<svg width="460" height="102" viewBox="0 0 460 102" fill="none" xmlns="http://www.w3.org/2000/svg">
<path d="M23.1228 101.685C22.9625 101.621 22.9145 99.3243 22.9145 90.9081V80.1951L23.5234 79.6169C23.8439 79.2957 24.1964 78.9423 24.3086 78.8299C24.4047 78.7174 24.629 78.4926 24.8053 78.3159C24.9816 78.1392 25.1899 77.9304 25.254 77.8501C25.3341 77.7698 25.6225 77.4968 25.8789 77.2398C26.1513 76.9828 26.4398 76.6937 26.5199 76.5973C26.616 76.501 27.1128 75.987 27.6416 75.457C28.1704 74.9269 28.6831 74.429 28.7633 74.3327C28.8594 74.2524 29.1478 73.9633 29.4042 73.7063C29.6766 73.4493 29.9651 73.1602 30.0612 73.0478C30.1734 72.9353 30.3977 72.7105 30.574 72.5338C30.7502 72.3571 30.9586 72.1483 31.0387 72.068C31.1028 71.9877 31.3912 71.7147 31.6476 71.4577C31.92 71.2007 32.2245 70.8955 32.3366 70.767C33.3301 69.707 34.7402 68.4221 34.8364 68.5024C34.8845 68.5505 34.9325 73.5296 34.9325 79.5526V90.5066L34.3717 91.0848C34.0512 91.4221 33.7307 91.679 33.6506 91.679C33.5705 91.679 33.4743 91.8236 33.4102 92.0003C33.3622 92.1769 33.1058 92.4339 32.8494 92.5785C32.609 92.7391 32.3206 93.0121 32.2245 93.2209C32.1443 93.4137 31.8559 93.7028 31.5835 93.8634C31.3111 94.024 31.0867 94.2489 31.0867 94.3613C31.0867 94.4737 30.8304 94.7307 30.5259 94.9235C30.2214 95.1322 29.9651 95.3732 29.9651 95.4856C29.9651 95.582 29.6766 95.8711 29.3241 96.1281C28.9716 96.369 28.6831 96.642 28.6831 96.7063C28.6831 96.8829 27.3531 98.1839 26.8404 98.5212C26.616 98.6658 26.4398 98.8746 26.4398 99.0031C26.4398 99.1155 26.1513 99.4046 25.7988 99.6616C25.4463 99.9025 25.1578 100.192 25.1578 100.304C25.1578 100.4 24.9175 100.641 24.613 100.818C24.3246 101.011 24.0361 101.3 23.9881 101.477C23.908 101.782 23.5554 101.862 23.1228 101.685Z" fill="#9B2149"/>
<path d="M76.9157 100.995C76.5151 100.545 76.0984 100.095 75.9702 99.983C74.8005 98.9069 71.3072 95.3252 71.3072 95.2128C71.3072 95.1164 71.2271 95.0522 71.147 95.0522C71.0509 95.0522 70.0093 94.0885 68.8235 92.8999C67.157 91.2456 66.6602 90.6513 66.6602 90.3301C66.6602 89.7037 67.1089 89.8001 67.814 90.5871C68.1505 90.9565 68.4229 91.3259 68.4229 91.3902C68.4229 91.4544 68.519 91.5187 68.6472 91.5187C68.7754 91.5187 69.0158 91.7435 69.176 92.0005C69.3202 92.2735 69.5766 92.5145 69.7209 92.5627C69.849 92.6108 70.0574 92.8196 70.1695 93.0124C70.2817 93.2212 70.5701 93.5103 70.8105 93.6548C71.0509 93.7994 71.3393 94.0885 71.4675 94.3133C71.5796 94.5382 71.7399 94.7309 71.804 94.7309C71.9001 94.7309 73.4064 96.1925 74.0634 96.9153C74.2076 97.092 74.8005 97.6863 75.3774 98.2484C75.9542 98.8106 76.4349 99.3245 76.4349 99.3888C76.4349 99.453 76.5792 99.5494 76.7554 99.5976C76.9317 99.6458 77.0759 99.7742 77.0759 99.9027C77.0759 100.015 77.2201 100.208 77.3964 100.32L77.7169 100.513L77.6848 90.3783C77.6528 82.4279 77.5887 80.2114 77.4445 80.1471C77.2362 80.0829 77.14 78.9907 77.3323 78.9907C77.3804 78.9907 77.7009 79.2638 78.0534 79.585L78.6783 80.1793V90.7156C78.6623 101.846 78.6783 101.798 77.9412 101.798C77.781 101.798 77.3163 101.429 76.9157 100.995Z" fill="#9B2149"/>
<path d="M36.6471 88.2581C36.5349 87.9208 36.5029 71.4096 36.6311 68.8077C36.7112 66.816 36.7913 66.2539 36.9996 66.0772C37.256 65.8363 37.7848 65.3063 38.1053 64.985C38.2976 64.7762 39.1789 63.8929 39.3872 63.7001C39.6276 63.4753 40.2205 62.8649 40.3487 62.7204C40.4128 62.6561 40.6852 62.3991 40.9416 62.1422C41.214 61.8852 41.5184 61.58 41.6306 61.4515C41.871 61.2106 43.6817 59.3796 43.874 59.2029C44.0983 58.9781 45.909 57.1631 46.0693 56.9864C46.1654 56.9061 46.4539 56.617 46.7102 56.36C46.9826 56.1031 47.2711 55.814 47.3512 55.7176C47.6877 55.3482 48.4248 54.7218 48.4889 54.77C48.521 54.8021 48.569 59.7008 48.6171 65.6596C48.6972 77.513 48.7293 77.0793 47.7518 77.6575C47.4954 77.8021 47.2711 78.0269 47.2711 78.1394C47.2711 78.2518 47.0147 78.5088 46.7102 78.7015C46.4058 78.9103 46.1494 79.1673 46.1494 79.2797C46.1494 79.3922 45.893 79.6331 45.5886 79.8098C45.2841 79.9864 44.9957 80.2755 44.9476 80.4522C44.8995 80.6128 44.6431 80.8698 44.4028 81.0144C44.1624 81.1589 43.906 81.432 43.8099 81.6086C43.7298 81.8014 43.4573 82.0584 43.201 82.1869C42.9446 82.2993 42.7042 82.5402 42.6722 82.7008C42.6241 82.8614 42.3357 83.1505 42.0472 83.3433C41.7428 83.52 41.5024 83.7769 41.5024 83.9054C41.5024 84.0179 41.246 84.2909 40.9416 84.4836C40.6371 84.6924 40.3807 84.9494 40.3807 85.0619C40.3807 85.1743 40.1243 85.4152 39.8199 85.5919C39.5154 85.7686 39.227 86.0577 39.1789 86.2183C39.1308 86.395 38.8424 86.668 38.554 86.8607C38.2495 87.0374 37.9771 87.3105 37.9451 87.4711C37.8329 87.8565 36.7432 88.5151 36.6471 88.2581Z" fill="#9B2149"/>
<path d="M58.4239 82.476C53.168 77.2078 52.6071 76.5975 52.6712 76.212C52.7674 75.7141 53.3122 75.6017 53.4724 76.0514C53.5365 76.196 53.6968 76.4369 53.825 76.5814C53.9692 76.726 54.1935 76.999 54.3217 77.1918C54.4499 77.3845 54.6101 77.5451 54.6582 77.5451C54.7704 77.5451 56.4529 79.2155 58.3598 81.2071C58.5681 81.4159 58.8725 81.705 59.0328 81.8496C60.0263 82.733 60.5711 83.4397 60.5711 83.8733C60.5711 84.2267 60.6352 84.2909 61.0198 84.2909C61.3563 84.2909 61.7088 84.5158 62.3818 85.1904C62.8786 85.6722 63.2952 86.138 63.3272 86.2022C63.4234 86.411 64.3848 87.0214 64.6412 87.0214C64.7854 87.0214 64.8976 87.1499 64.8976 87.3105C64.8976 87.8405 64.7053 88.3063 64.481 88.3063C64.3688 88.3063 61.6447 85.6883 58.4239 82.476Z" fill="#9B2149"/>
<path d="M99.9904 78.8942C99.8622 78.8621 95.2633 78.8139 89.767 78.7979C80.4089 78.7497 79.7679 78.7336 79.6237 78.4606C79.5276 78.316 79.3673 78.1072 79.2712 78.0269C79.159 77.9306 78.9347 77.7378 78.7424 77.5772C78.5661 77.4326 78.3258 77.1435 78.2136 76.9508C78.1175 76.742 77.9412 76.5814 77.829 76.5814C77.6047 76.5814 77.0759 76.0192 77.0759 75.7783C77.0759 75.698 76.8836 75.5374 76.6433 75.425C76.4029 75.3125 76.0984 75.0074 75.9863 74.7664C75.8741 74.5255 75.6978 74.3328 75.6017 74.3328C75.5216 74.3328 75.0088 73.8831 74.496 73.337C73.9672 72.7748 73.4705 72.2609 73.3743 72.1645C73.2942 72.0842 72.7814 71.5863 72.2526 71.0723C71.7399 70.5583 71.3072 70.0604 71.3072 69.9962C71.3072 69.9159 71.1149 69.7553 70.8746 69.6428C70.6342 69.5304 70.3298 69.2252 70.2176 68.9843C70.1054 68.7434 69.9452 68.5507 69.8811 68.5507C69.6888 68.5507 68.9677 67.86 68.7754 67.5067C68.6633 67.2657 68.6633 67.1051 68.8235 66.8963C68.9998 66.6394 69.7369 66.6233 79.4314 66.6233C88.5011 66.6233 89.8792 66.6554 90.0554 66.8642C90.1676 66.9927 90.424 67.1051 90.6323 67.1051C90.8887 67.1051 91.081 67.2657 91.2572 67.587C91.4014 67.86 91.6098 68.0688 91.7379 68.0688C91.8822 68.0688 92.1866 68.3579 92.427 68.7113C92.6673 69.0486 92.9077 69.3377 92.9718 69.3537C93.1 69.3537 94.7024 70.9278 94.7024 71.0563C94.7024 71.2008 95.087 71.5381 95.3914 71.6505C95.5357 71.6987 95.744 71.9236 95.8401 72.1324C95.9363 72.3412 96.2087 72.6303 96.449 72.7748C96.6894 72.9194 96.9778 73.2085 97.106 73.4333C97.2182 73.6582 97.3784 73.8509 97.4425 73.8509C97.5387 73.8509 98.9488 75.2162 99.5257 75.8747C99.6859 76.0514 99.9743 76.3405 100.167 76.5171C100.888 77.1596 101.224 77.6254 101.304 78.0912C101.384 78.4766 101.32 78.573 100.856 78.7657C100.567 78.8942 100.295 78.9745 100.279 78.9745C100.247 78.9585 100.119 78.9264 99.9904 78.8942Z" fill="#9B2149"/>
<path d="M0 78.043C0 77.9466 9.83879 68.0046 11.0727 66.8642C11.281 66.6554 12.8513 66.6233 21.9049 66.6233C31.3592 66.6233 32.5129 66.6554 32.593 66.8803C32.6411 67.0088 32.7533 67.0891 32.8334 67.0248C32.9135 66.9766 33.0417 67.0248 33.0898 67.1212C33.1539 67.2176 32.8975 67.587 32.5129 67.9564L31.8078 68.5988L31.7598 68.1009L31.7117 67.587H21.5684H11.4252L9.27795 69.7553C8.09217 70.9438 7.03458 71.9236 6.93843 71.9236C6.82626 71.9236 6.73012 72.0039 6.73012 72.1163C6.73012 72.3412 4.95145 74.1722 4.72711 74.1722C4.63096 74.1722 4.48675 74.3328 4.40663 74.5416C4.31048 74.7343 4.08614 74.9592 3.89386 75.0556C3.68554 75.1359 3.5253 75.2804 3.5253 75.3768C3.5253 75.4571 2.91639 76.1317 2.17928 76.8705C1.18578 77.8502 0.737108 78.1875 0.416626 78.1875C0.192289 78.1875 0 78.1233 0 78.043Z" fill="#9B2149"/>
<path d="M74.3839 77.0633C74.1595 76.8384 74.0313 76.5332 74.0313 76.1799V75.6338L74.5441 76.1156C74.8325 76.3726 75.2331 76.7581 75.4414 76.983L75.81 77.3845H75.2652C74.9447 77.3845 74.5922 77.256 74.3839 77.0633Z" fill="#9B2149"/>
<path d="M71.6277 74.124C71.6277 74.0277 71.4194 73.8349 71.147 73.7225C70.7464 73.5458 70.6663 73.4173 70.6663 72.9516C70.6663 72.4697 70.6983 72.4215 70.9547 72.55C71.0989 72.6303 71.5796 73.08 72.0123 73.5137L72.7975 74.3328H72.2206C71.852 74.3328 71.6277 74.2525 71.6277 74.124Z" fill="#9B2149"/>
<path d="M68.6152 71.2811C68.4229 71.0883 68.2626 70.7992 68.2626 70.6386C68.2626 70.4298 68.1505 70.3174 67.9742 70.3174C67.814 70.3174 67.4614 70.1086 67.173 69.8355C66.7243 69.434 66.6602 69.2894 66.7724 68.8879L66.9006 68.4221L68.487 70.0122L70.0894 71.6023H69.5285C69.176 71.6023 68.8235 71.4738 68.6152 71.2811Z" fill="#9B2149"/>
<path d="M72.7494 64.8564L66.0834 64.7761L65.5386 64.2461C63.167 61.9975 62.0133 60.825 62.0133 60.7126C62.0133 60.6323 61.837 60.4877 61.6127 60.3913C61.4043 60.295 61.1159 59.9898 60.9717 59.7168C60.8435 59.4598 60.6192 59.2349 60.507 59.2349C60.3948 59.2349 60.1545 59.0422 59.9942 58.8173C59.834 58.5764 59.5936 58.3034 59.4814 58.207C59.1129 57.9018 58.7443 57.5324 58.4719 57.2112C58.3277 57.0506 58.0553 56.7936 57.8951 56.6651C57.7188 56.5366 57.4945 56.2636 57.3823 56.0708C57.2861 55.862 57.0939 55.7014 56.9657 55.7014C56.8535 55.7014 56.5971 55.4444 56.4048 55.1393C56.2125 54.8341 55.9882 54.5771 55.9081 54.5771C55.6837 54.5771 55.1229 54.0471 55.1229 53.8222C55.1229 53.6937 54.9466 53.517 54.7223 53.4207C53.6487 52.9388 54.4339 52.8907 65.4905 52.8425C76.483 52.8103 76.5471 52.8103 76.9798 53.1476C77.2041 53.3243 77.3964 53.5652 77.3964 53.6777C77.3964 53.7901 77.5727 53.9828 77.797 54.0953C78.0213 54.2238 78.3578 54.561 78.5341 54.8501C78.7104 55.1393 78.9667 55.3802 79.0949 55.3802C79.2231 55.3802 79.4795 55.6372 79.6558 55.9423C79.8481 56.2475 80.0724 56.5045 80.1686 56.5045C80.3608 56.5045 82.2036 58.4158 82.2036 58.6246C82.2036 58.6888 82.2837 58.7531 82.3959 58.7531C82.5882 58.7531 83.4855 59.7007 83.4855 59.9095C83.4855 59.9738 83.5496 60.038 83.6458 60.038C83.8381 60.038 85.7289 61.9493 85.7289 62.1581C85.7289 62.2224 85.809 62.2866 85.9052 62.2866C86.0975 62.2866 87.9723 64.1979 87.9723 64.4067C87.9723 64.471 88.0845 64.5352 88.2127 64.5352C88.5492 64.5352 88.5171 64.8564 88.1806 64.8725C87.2672 64.9367 78.438 64.9207 72.7494 64.8564Z" fill="#9B2149"/>
<path d="M13.3961 64.5033C13.5564 64.3105 16.2484 61.5962 19.3411 58.4802C23.7798 54.0312 25.0777 52.8105 25.3982 52.8105C25.6866 52.8105 25.7988 52.8909 25.7988 53.1318C25.7988 53.3085 25.7027 53.453 25.5905 53.453C25.4783 53.453 25.3021 53.5976 25.1899 53.7742C25.0777 53.9509 24.8854 54.0955 24.7572 54.0955C24.629 54.0955 24.5169 54.1918 24.5169 54.3043C24.5169 54.5612 23.6836 55.3804 23.4272 55.3804C23.3151 55.3804 23.2349 55.4607 23.2349 55.541C23.2349 55.798 22.2575 56.8259 22.0011 56.8259C21.8889 56.8259 21.7928 56.9223 21.7928 57.0347C21.7928 57.2596 20.1263 58.9139 19.918 58.9139C19.8378 58.9139 19.7096 59.0745 19.6295 59.2833C19.5334 59.476 19.309 59.7009 19.1168 59.7973C18.9084 59.8776 18.7482 60.0382 18.7482 60.1346C18.7482 60.3594 17.8989 61.1625 17.6586 61.1625C17.5464 61.1625 17.4663 61.2267 17.4663 61.3231C17.4663 61.564 16.7933 62.2868 16.5529 62.2868C16.4407 62.2868 16.3446 62.3671 16.3446 62.4635C16.3446 62.5598 15.8639 63.1381 15.271 63.7484C14.3416 64.696 14.1012 64.8566 13.6365 64.8566H13.0917L13.3961 64.5033Z" fill="#9B2149"/>
<path d="M62.1735 64.6318C62.1735 64.5033 61.9972 64.3587 61.7729 64.3105C61.3563 64.1981 61.148 63.7163 61.2441 63.1059C61.2922 62.8007 61.4364 62.8971 62.3337 63.8126L63.3593 64.8566H62.7664C62.3658 64.8566 62.1735 64.7763 62.1735 64.6318Z" fill="#9B2149"/>
<path d="M57.0137 59.7008C56.8535 59.6205 56.7253 59.3956 56.7253 59.235C56.7253 59.0583 56.6452 58.9138 56.549 58.9138C56.4529 58.9138 56.2766 58.8174 56.1645 58.7211C56.0363 58.6086 55.828 58.4159 55.6837 58.3035C55.5555 58.191 55.4434 57.8377 55.4434 57.5164V56.9382L56.4529 57.8859C56.9977 58.3998 57.6547 59.0744 57.8951 59.3635L58.3598 59.8775H57.8149C57.5265 59.8775 57.158 59.7972 57.0137 59.7008Z" fill="#9B2149"/>
<path d="M52.7193 55.9103C52.7193 55.2518 52.8955 54.7378 53.1038 54.7378C53.216 54.7378 53.5365 54.9948 53.841 55.2999L54.3858 55.8621H53.9531C53.6807 55.8621 53.5205 55.9424 53.5205 56.103C53.5205 56.2476 53.3763 56.3439 53.1199 56.3439C52.7834 56.3439 52.7193 56.2636 52.7193 55.9103Z" fill="#9B2149"/>
<path d="M24.5008 48.49C24.2765 48.2651 24.0361 47.9439 23.9881 47.7833C23.924 47.6387 23.6996 47.4299 23.4913 47.3496C23.267 47.2693 22.9786 46.9802 22.8343 46.7072C22.7061 46.4502 22.4818 46.2253 22.3376 46.2253C22.2094 46.2253 21.953 45.9683 21.7767 45.6632C21.6005 45.358 21.3121 45.0689 21.1358 45.0207C20.9755 44.9725 20.7192 44.7316 20.5749 44.4907C20.4467 44.2498 20.1102 43.9285 19.8539 43.784C19.5975 43.6234 19.3892 43.3985 19.3892 43.27C19.3892 43.1255 19.1808 42.9167 18.9084 42.7721C18.6521 42.6436 18.3155 42.3063 18.1874 42.0493C18.0431 41.7763 17.8348 41.5675 17.6906 41.5675C17.5624 41.5675 17.306 41.3105 17.1298 41.0053C16.9535 40.7002 16.6651 40.4111 16.4888 40.3629C16.3286 40.2986 16.0722 40.0577 15.96 39.8168C15.8318 39.5759 15.5434 39.3028 15.319 39.1904C15.0787 39.094 14.8223 38.821 14.7101 38.5961C14.614 38.3873 14.4057 38.1625 14.2454 38.1143C13.973 38.0179 13.3 37.2309 13.3 37.006C13.3 36.9579 18.2995 36.9097 24.4047 36.9097H35.4934L36.7753 38.1946C37.4804 38.9173 38.7783 40.1862 39.6436 41.0535C40.5249 41.9048 41.3101 42.7079 41.4063 42.8363C41.5024 42.9488 42.0152 43.4627 42.528 43.9606C43.0567 44.4586 43.5535 44.9565 43.6496 45.0689C44.0502 45.5668 45.6527 47.189 45.7328 47.189C45.8449 47.189 47.1749 48.6185 47.239 48.8112C47.2711 48.8915 42.5921 48.9558 36.1023 48.9397L24.9175 48.9236L24.5008 48.49Z" fill="#9B2149"/>
<path d="M75.794 48.6505C75.794 48.4739 75.8741 48.2811 75.9702 48.2329C76.0504 48.1687 76.1946 47.9438 76.2747 47.735C76.3708 47.5102 76.5631 47.3496 76.7394 47.3496C76.9317 47.3496 77.14 47.1408 77.3002 46.8035C77.4765 46.418 77.7008 46.2253 78.0213 46.145C78.3899 46.0646 78.5181 45.9201 78.5982 45.5667C78.6623 45.2616 78.8546 45.0206 79.0789 44.9403C79.2872 44.86 79.5436 44.587 79.6718 44.3461C79.816 44.057 80.0243 43.8803 80.2967 43.8482C80.6172 43.816 80.7614 43.6715 80.8576 43.286C80.9698 42.9166 81.146 42.7399 81.5146 42.6275C81.8992 42.5311 82.0434 42.3866 82.0754 42.0653C82.1075 41.7762 82.2357 41.6317 82.476 41.5996C82.6843 41.5674 82.9247 41.3265 83.0689 41.0053C83.2131 40.7001 83.5336 40.3628 83.758 40.2504C83.9983 40.138 84.2867 39.8649 84.3829 39.6561C84.4951 39.4473 84.7354 39.2064 84.9437 39.094C85.152 38.9976 85.4245 38.7085 85.5366 38.4676C85.6808 38.1785 85.8731 38.0339 86.1135 38.0339C86.3859 38.0339 86.5141 37.9054 86.6263 37.52C86.7705 37.022 86.8346 36.9899 87.6037 36.9417L88.437 36.8936L86.2096 39.1422C84.9758 40.395 83.9022 41.4068 83.806 41.4068C83.7259 41.4068 83.6458 41.4711 83.6458 41.5514C83.6458 41.7602 77.7489 47.6708 77.5566 47.6708C77.4605 47.6708 77.3964 47.7511 77.3964 47.8635C77.3964 47.976 77.2041 48.2651 76.9637 48.506C76.451 49.036 75.794 49.1163 75.794 48.6505Z" fill="#9B2149"/>
<path d="M52.9917 46.948C52.7193 46.7553 52.7033 46.1289 52.7193 36.3153C52.7193 30.5975 52.7513 25.7469 52.7834 25.5542C52.8955 24.976 53.3442 24.2532 53.6487 24.1568C53.8089 24.1086 54.0653 23.8356 54.2255 23.5625C54.3858 23.3056 54.6902 23.0004 54.8986 22.904C55.1069 22.8077 55.3152 22.5989 55.3793 22.4222C55.4273 22.2616 55.6677 22.0206 55.9081 21.9082C56.1484 21.7797 56.4208 21.4906 56.533 21.2658C56.6292 21.0248 56.9016 20.7679 57.1259 20.6554C57.3502 20.5591 57.5265 20.4145 57.5265 20.3503C57.5265 20.2699 58.2476 19.5151 59.1289 18.6477C59.9942 17.7804 60.7954 16.9934 60.9076 16.881C61.0037 16.7846 61.7088 16.0458 62.494 15.2588C64.0643 13.6526 64.4329 13.3796 64.7053 13.6526C64.9457 13.8935 64.9777 34.7574 64.7534 35.3356C64.5771 35.7692 63.2311 37.2308 62.9907 37.2308C62.9106 37.2308 62.7023 37.4396 62.5581 37.6966C62.3978 37.9536 62.1094 38.2427 61.9011 38.3391C61.7088 38.4355 61.5325 38.58 61.5325 38.6442C61.5325 38.853 60.7794 39.6401 60.5871 39.6401C60.491 39.6401 60.3307 39.8007 60.2346 39.9934C59.9942 40.4592 59.7699 40.668 59.4173 40.8125C59.2571 40.8607 59.1289 40.9732 59.1289 41.0535C59.1289 41.2462 54.9787 45.4222 54.7864 45.4222C54.7063 45.4222 54.562 45.5989 54.4659 45.8077C54.3698 46.0165 54.1134 46.2895 53.889 46.4019C53.6647 46.5304 53.4404 46.7392 53.3763 46.8998C53.2961 47.1247 53.232 47.1247 52.9917 46.948Z" fill="#9B2149"/>
<path d="M10.656 34.5486C10.4477 34.4362 10.2234 34.1953 10.1753 34.0186C10.1112 33.8419 9.85483 33.585 9.59844 33.4404C9.34205 33.3119 9.0376 33.0228 8.94145 32.814C8.84531 32.5892 8.70109 32.4125 8.63699 32.4125C8.4447 32.4125 6.56989 30.5493 6.56989 30.3566C6.56989 30.2602 6.36157 30.0675 6.08916 29.923C5.83278 29.7784 5.60844 29.5696 5.60844 29.425C5.60844 29.2966 5.35205 29.0396 5.0476 28.8629C4.74314 28.6862 4.4547 28.3971 4.40663 28.2204C4.34254 28.0598 4.08615 27.8028 3.82977 27.6583C3.57338 27.5298 3.28495 27.2407 3.20483 27.0158C3.1247 26.807 2.86832 26.55 2.64398 26.4697C2.41964 26.3894 2.17928 26.1806 2.13121 26.0361C2.00302 25.6827 1.82675 25.5061 1.24989 25.1366C0.9935 24.976 0.801211 24.7672 0.801211 24.6548C0.801211 24.5424 0.656994 24.3336 0.480729 24.173C0.0480783 23.8035 0.0801265 23.4502 0.576873 23.0005L0.977476 22.615H11.1047H21.248L23.8118 25.1688C25.238 26.5822 26.5199 27.9153 26.6641 28.1401C26.8083 28.365 26.9846 28.5577 27.0647 28.5577C27.241 28.5577 32.1123 33.4565 32.4488 33.9544C32.577 34.1632 32.8013 34.3398 32.9455 34.3398C33.0898 34.3398 33.1699 34.4362 33.1218 34.5486C33.0257 34.8378 11.2169 34.8378 10.656 34.5486Z" fill="#9B2149"/>
<path d="M90.8566 33.7777C90.8566 33.4725 90.9207 33.2155 91.0008 33.2155C91.081 33.2155 91.2252 33.0067 91.3213 32.7337C91.4014 32.4607 91.5937 32.2519 91.738 32.2519C92.0745 32.2519 92.459 31.8664 92.459 31.5452C92.459 31.4167 92.6994 31.1918 93.0039 31.0472C93.3404 30.8866 93.5807 30.6457 93.6128 30.4369C93.6448 30.2442 93.8692 29.9872 94.1095 29.8748C94.3499 29.7463 94.6223 29.4732 94.7024 29.2644C94.8306 28.9593 94.9748 28.879 95.4235 28.879C95.9523 28.879 95.9843 28.8468 95.9843 28.3168C95.9843 27.851 96.0645 27.7386 96.5292 27.5137C96.8657 27.3531 97.106 27.1122 97.1381 26.9034C97.1701 26.7107 97.3304 26.534 97.4906 26.5019C97.8912 26.4216 98.2277 26.0843 98.2277 25.763C98.2277 25.6345 98.4681 25.4097 98.7725 25.2651C99.109 25.1045 99.3975 24.8154 99.4936 24.5263C99.5737 24.2693 99.75 24.0605 99.8782 24.0605C100.006 24.0605 100.199 23.9481 100.311 23.8196C100.487 23.6108 99.4455 23.5787 91.0329 23.5787H81.5627V23.1932C81.5627 22.9362 81.6748 22.7756 81.9312 22.7114C82.5722 22.5507 100.663 22.5989 100.551 22.7756C100.503 22.872 100.567 22.9362 100.695 22.9362C100.936 22.9362 101.497 23.8838 101.352 24.0284C101.304 24.0766 101.272 24.0605 101.272 23.9802C101.272 23.8999 101.016 24.189 100.695 24.5905C100.375 25.0081 100.006 25.3454 99.8942 25.3454C99.766 25.3454 99.6699 25.4097 99.6699 25.506C99.6699 25.6988 96.3529 29.0396 96.1606 29.0396C96.0805 29.0396 95.9843 29.1841 95.9363 29.3769C95.8882 29.5535 95.6959 29.7463 95.5196 29.7945C95.3274 29.8426 95.1831 29.939 95.1831 30.0033C95.1831 30.1478 91.081 34.3398 90.9367 34.3398C90.8887 34.3398 90.8566 34.0829 90.8566 33.7777Z" fill="#9B2149"/>
<path d="M66.7404 33.0227C66.6923 32.8139 66.6763 27.7706 66.6923 21.7958L66.7404 10.9382L68.4229 9.29996C69.3523 8.41658 70.1535 7.62956 70.2176 7.56532C70.3618 7.38864 72.2046 5.54158 72.4129 5.34884C72.509 5.26853 73.3102 4.4494 74.1916 3.54996C75.0729 2.63445 75.8581 1.89563 75.9382 1.89563C76.0183 1.89563 76.1305 1.75107 76.1946 1.5744C76.2426 1.39772 76.499 1.14074 76.7714 0.980123C77.0278 0.819508 77.2842 0.578586 77.3323 0.417972C77.4605 0.000374155 78.0053 -0.112056 78.3739 0.225234C78.6623 0.498279 78.6783 0.83557 78.6783 11.0346V21.5709L77.2201 23.0646C76.4349 23.8677 75.7139 24.5423 75.6337 24.5423C75.5536 24.5423 75.4094 24.6868 75.3133 24.8635C75.2171 25.0402 74.7684 25.522 74.3198 25.9396C73.2301 26.9515 73.0378 27.1603 72.7494 27.5618C72.6212 27.7546 72.461 27.9152 72.3808 27.9152C72.2526 27.9152 70.6663 29.441 70.6663 29.5695C70.6663 29.6498 68.8555 31.4808 67.5576 32.7015C66.8525 33.36 66.8205 33.3761 66.7404 33.0227Z" fill="#9B2149"/>
<path d="M36.6792 32.541C36.6311 30.6778 36.6151 13.5242 36.6631 13.4278C36.8234 13.0745 38.1854 14.2951 42.9286 19.0493C48.8254 24.9599 49.1619 25.3454 48.3928 25.3454C47.9281 25.3454 47.2711 24.8796 47.2711 24.5584C47.2711 24.4139 47.0468 24.2051 46.7743 24.0766C46.5019 23.9641 46.2455 23.7393 46.1814 23.5947C46.0853 23.3056 45.3963 22.615 45.204 22.615C45.1399 22.615 44.9957 22.4544 44.8835 22.2456C44.7713 22.0368 44.4669 21.7477 44.2105 21.587C43.9541 21.4425 43.7458 21.2176 43.7458 21.1052C43.7458 20.9767 43.6336 20.8482 43.5054 20.784C43.3772 20.7358 43.2651 20.543 43.2651 20.3664C43.2651 20.1576 43.1529 20.0451 42.9446 20.0451C42.7843 20.0451 42.576 19.9488 42.5119 19.8363C42.4478 19.7079 42.1914 19.483 41.9351 19.3224C41.6947 19.1778 41.4543 18.8887 41.4063 18.696C41.3582 18.5032 41.1178 18.2623 40.8454 18.166C40.589 18.0696 40.3807 17.8929 40.3807 17.7644C40.3807 17.652 40.2205 17.4271 40.0282 17.2826C39.3552 16.7686 37.9771 15.4034 37.9771 15.2267C37.9771 15.1464 37.913 15.0661 37.8169 15.0661C37.7367 15.0661 37.6566 14.9537 37.6566 14.8252C37.6566 14.6967 37.5925 14.5843 37.4964 14.5843C37.3842 14.5843 37.3361 17.7965 37.3361 23.8999C37.3361 33.1031 37.3361 33.2155 37.0157 33.2155C36.7433 33.2155 36.6952 33.1031 36.6792 32.541Z" fill="#9B2149"/>
<path d="M34.1313 11.388C34.1313 11.3077 33.9871 11.1792 33.8108 11.131C33.6346 11.0828 33.4583 10.874 33.3942 10.6813C33.3461 10.4885 33.0737 10.2155 32.8013 10.0709C32.4648 9.91033 32.2725 9.68547 32.2405 9.41243C32.2084 9.10726 32.0802 8.97877 31.7117 8.89846C31.4393 8.85027 31.1669 8.65754 31.0707 8.43268C30.9746 8.22388 30.6861 7.93477 30.4298 7.77416C30.1253 7.59748 29.9651 7.37262 29.9651 7.09958C29.9651 6.82653 29.8689 6.7141 29.6606 6.7141C29.3081 6.7141 28.5229 6.02346 28.5229 5.70223C28.5229 5.57374 28.3466 5.41312 28.1223 5.36494C27.8979 5.30069 27.7217 5.18826 27.7217 5.09189C27.7217 4.8831 27.4653 4.64217 26.8884 4.2567C26.632 4.09608 26.4398 3.90335 26.4398 3.79092C26.4398 3.61424 25.8308 3.01997 25.6386 3.01997C25.5745 3.01997 25.4463 2.85935 25.3341 2.65055C25.2219 2.44176 24.9175 2.15265 24.6611 1.99203C24.4047 1.84748 24.1964 1.60656 24.1964 1.47807C24.1964 1.34958 24.1323 1.25321 24.0361 1.25321C23.956 1.25321 23.8759 0.996225 23.8759 0.691057C23.8759 0.385889 23.9079 0.128906 23.956 0.128906C24.1483 0.128906 34.9325 11.0828 34.9325 11.2916C34.9325 11.4362 34.7723 11.5325 34.5319 11.5325C34.3076 11.5325 34.1313 11.4683 34.1313 11.388Z" fill="#9B2149"/>
<path d="M77.7169 101.557C77.7169 101.428 77.6368 101.316 77.5406 101.316C77.4605 101.316 77.4284 101.412 77.4925 101.525C77.5566 101.621 77.5566 101.669 77.4765 101.605C77.4124 101.541 77.2682 101.316 77.1721 101.123C77.0599 100.914 76.8836 100.754 76.7554 100.754C76.6272 100.754 76.5151 100.641 76.5151 100.513C76.5151 100.175 74.0313 97.7663 73.807 97.8947C73.7109 97.9429 73.6788 97.9429 73.7429 97.8787C73.791 97.8144 73.7269 97.6056 73.5827 97.429C73.0859 96.8347 70.1535 93.9276 70.0253 93.9276C69.9772 93.9276 69.817 93.7509 69.7048 93.526C69.5927 93.3172 69.3683 93.0924 69.2401 93.0442C69.0959 92.996 68.8395 92.739 68.6793 92.466C68.503 92.1769 68.3107 92.0163 68.1665 92.0644C68.0383 92.1126 67.9422 92.0644 67.9422 91.952C67.9422 91.8396 67.6537 91.422 67.3012 91.0365L66.6602 90.3298L66.6763 79.7132C66.6923 73.8829 66.7564 68.9359 66.8205 68.7111C66.9487 68.3256 66.9968 68.3256 67.0448 68.7593C67.0609 68.8556 67.141 68.9359 67.2211 68.9199C67.3172 68.9199 67.4775 69.0002 67.5896 69.1287C67.7018 69.2572 67.7499 69.3535 67.7018 69.3535C67.6377 69.3535 67.9422 69.6426 68.3428 69.996C68.7434 70.3494 69.0318 70.6385 68.9517 70.6385C68.8876 70.6385 69.0799 70.8151 69.3843 71.0239C70.0253 71.4576 71.2271 72.7425 71.179 72.9352C71.163 72.9995 71.2111 73.0477 71.3072 73.0477C71.3874 73.0477 72.2206 73.8026 73.166 74.7341C74.0954 75.6657 74.8005 76.4206 74.7364 76.4206C74.6563 76.4206 74.7845 76.5491 74.9928 76.6936C75.6978 77.1755 77.7169 79.2153 77.7169 79.4401C77.7169 79.5526 77.781 79.6168 77.8611 79.5526C77.9412 79.5044 78.1656 79.665 78.3578 79.9059C78.6623 80.2914 78.6783 80.3556 78.454 80.4038C78.1495 80.4681 78.1175 80.8535 78.4059 80.966C78.5662 81.0302 78.5662 81.0623 78.4059 81.0623C78.2777 81.0784 78.1976 81.3354 78.1976 81.7851C78.1976 82.2027 78.2777 82.5239 78.4059 82.5721C78.5662 82.6364 78.5662 82.6685 78.4059 82.6685C78.1335 82.6845 78.1015 100.288 78.3578 100.384C78.454 100.416 78.5501 100.657 78.5662 100.914C78.5982 101.332 78.5501 101.396 78.2457 101.348C77.8611 101.3 77.7329 101.557 78.0854 101.685C78.1976 101.733 78.1656 101.782 78.0053 101.782C77.8451 101.798 77.7169 101.685 77.7169 101.557Z" fill="#631032"/>
<path d="M63.8721 87.6154C63.7278 87.4066 63.4394 87.1336 63.2151 87.0211C62.9907 86.9087 62.7824 86.6678 62.7183 86.5072C62.6703 86.3305 62.526 86.2341 62.3978 86.2823C62.2857 86.3305 62.1895 86.3144 62.2216 86.2502C62.2857 86.0253 61.4364 85.1419 60.7634 84.7083C60.3948 84.4834 60.0904 84.1782 60.0904 84.0498C60.0904 83.9213 59.9942 83.7607 59.8821 83.6964C59.7539 83.6322 59.5456 83.3752 59.4013 83.1503C59.2411 82.9255 58.9527 82.6524 58.7443 82.54C58.536 82.4276 58.2636 82.1545 58.1515 81.9457C58.0393 81.7208 57.847 81.5924 57.7348 81.6245C57.6227 81.6727 57.5425 81.6566 57.5746 81.5924C57.6227 81.4317 57.3823 81.1587 55.7158 79.4562C54.9306 78.6692 54.2256 78.0588 54.1454 78.1231C54.0653 78.1713 54.0012 78.1231 54.0012 78.0267C54.0012 77.8661 53.9051 77.7215 53.3603 77.0791C52.7033 76.3081 52.7193 76.4527 52.7193 65.9806C52.7193 59.3472 52.7674 55.8619 52.8795 55.8619C52.9757 55.8619 53.0398 55.6531 53.0398 55.4122C53.0398 55.1552 53.0878 54.8982 53.1359 54.85C53.2801 54.7215 56.2446 57.6608 56.1484 57.8214C56.1004 57.8857 56.1324 57.9499 56.1965 57.9499C56.4369 57.9499 57.3663 58.7851 57.2701 58.9296C57.2381 58.9939 57.3983 59.1706 57.6387 59.2991C58.2316 59.6042 62.0453 63.4911 61.9011 63.6196C61.853 63.6838 61.8851 63.732 61.9972 63.732C62.2857 63.732 64.529 65.9485 64.7213 66.4303C64.8495 66.7355 64.8816 69.9157 64.8656 77.2076L64.8175 87.5512L64.465 87.776C64.1445 87.9848 64.0964 87.9688 63.8721 87.6154Z" fill="#631032"/>
<path d="M10.8964 78.9905C5.30398 78.9423 0.608918 78.8459 0.448677 78.7817C-0.288431 78.4122 -0.0640936 78.1231 4.02205 74.0435C6.21735 71.8431 7.96398 69.996 7.88386 69.9157C7.81976 69.8354 7.85181 69.8194 7.93193 69.8836C8.02807 69.9318 8.74916 69.3215 9.53434 68.5344L10.9605 67.105H21.7287C31.1028 67.105 32.5129 67.1371 32.6892 67.3459C32.8334 67.5226 32.8334 67.5868 32.7052 67.5868C32.593 67.5868 32.561 67.6671 32.6251 67.7796C32.6892 67.892 32.6731 67.9081 32.5449 67.8438C32.4488 67.7796 32.3206 67.8438 32.2565 68.0044C32.1283 68.3578 22.0171 78.5086 21.4723 78.8298C21.1198 79.0386 19.7577 79.0547 10.8964 78.9905Z" fill="#631032"/>
<path d="M13.8128 64.2621C14.1333 63.9248 14.7742 63.2824 15.2069 62.8166C15.6555 62.3508 16.0241 61.9011 16.0241 61.8047C16.0241 61.7244 16.0722 61.6602 16.1523 61.6762C16.3286 61.7405 18.2675 59.8292 18.2675 59.6043C18.2675 59.4919 18.3796 59.3955 18.5078 59.3955C18.636 59.3955 18.9565 59.0903 19.2289 58.7209C19.4853 58.3676 19.7096 58.1266 19.7096 58.1909C19.7096 58.2551 20.6871 57.3396 21.8729 56.1511C23.0587 54.9465 24.0361 53.9025 24.0361 53.8061C24.0361 53.7258 24.1804 53.6134 24.3726 53.5652C24.5489 53.517 24.7412 53.3243 24.7893 53.1476C24.8694 52.8264 24.9175 52.8264 35.9741 52.8103C42.4959 52.8103 47.1269 52.8745 47.1749 52.9549C47.223 53.0352 44.6431 55.7495 41.4223 58.9779L35.5735 64.8564H24.4047H13.2359L13.8128 64.2621Z" fill="#631032"/>
<path d="M54.4178 48.8431C54.3057 48.7307 54.4499 48.57 56.1004 46.9478C56.6292 46.4178 57.158 45.8878 57.2541 45.7753C57.3663 45.6629 57.6226 45.4059 57.831 45.2132C58.0393 45.0205 58.3277 44.7153 58.4719 44.5547C58.6161 44.3941 58.8725 44.1371 59.0328 43.9925C59.193 43.848 59.4494 43.607 59.5936 43.4304C60.2506 42.6755 61.5646 41.4066 61.6928 41.4066C61.7729 41.4066 61.9652 41.1978 62.1094 40.9408C62.2696 40.6839 62.5581 40.3787 62.7664 40.2663C62.9587 40.1538 63.167 39.9611 63.2151 39.8165C63.2631 39.672 63.4554 39.4471 63.6477 39.3186C63.824 39.1901 64.0964 38.9492 64.2406 38.7886C64.3848 38.628 64.8335 38.1301 65.2501 37.6964L66.0033 36.9094H76.9958C86.8025 36.9094 88.7895 36.9737 87.6839 37.2628C87.5076 37.311 87.2192 37.6964 87.0108 38.114C86.7705 38.5959 86.6102 38.8047 86.5301 38.6762C86.466 38.5638 86.3218 38.5316 86.2257 38.5798C86.1295 38.6441 86.0814 38.7726 86.1455 38.8529C86.2417 39.0295 85.6007 39.6238 85.2802 39.6399C85.1681 39.6399 85.0239 39.7684 84.9758 39.929C84.8155 40.3787 84.3829 40.8445 84.1265 40.8445C84.0143 40.8445 83.7259 41.1818 83.5016 41.5994C83.2772 42.033 83.0529 42.29 82.9888 42.1776C82.8446 41.9527 82.5241 42.1615 82.5241 42.4988C82.5241 42.804 82.0754 43.2537 81.7549 43.2537C81.6588 43.2537 81.4345 43.5107 81.2742 43.8158C81.0979 44.1692 80.8896 44.378 80.6813 44.378C80.489 44.378 80.2807 44.5547 80.1525 44.8438C80.0243 45.1008 79.784 45.3417 79.6077 45.3899C79.4475 45.422 79.2071 45.7111 79.0789 46.0002C78.9347 46.3536 78.7104 46.5784 78.4379 46.6427C78.1976 46.7069 77.9412 46.8996 77.8611 47.0924C77.5566 47.767 77.2361 48.2327 77.2361 48.0239C77.2361 47.8955 77.14 47.8312 77.0439 47.8794C76.9317 47.9115 76.8516 48.04 76.8836 48.1364C76.8996 48.2488 76.7554 48.4737 76.5631 48.6343C76.2106 48.9395 75.7619 48.9395 65.3623 48.9555C59.4013 48.9555 54.4819 48.9073 54.4178 48.8431Z" fill="#631032"/>
<path d="M48.1364 46.8676C47.9761 46.707 46.6301 45.3578 45.1399 43.8962C43.6657 42.4185 42.3837 41.0854 42.3036 40.9088C42.2075 40.7482 42.0633 40.6036 41.9831 40.6036C41.8549 40.6036 38.8264 37.6322 37.6246 36.3313C37.4643 36.1546 37.1919 35.8815 36.9996 35.7049C36.6792 35.3997 36.6631 35.2712 36.7433 33.5687C36.7913 32.4926 36.7753 31.8019 36.6792 31.8662C36.599 31.9144 36.5349 31.834 36.5349 31.7056C36.5349 31.561 36.6151 31.4486 36.6952 31.4486C36.8074 31.4486 36.8554 28.3648 36.8554 22.5345C36.8554 13.6846 36.8554 13.6204 37.1759 13.6204C37.3522 13.6204 37.5445 13.7328 37.5925 13.8613C37.6566 13.9898 37.7528 14.0701 37.8169 14.0219C37.897 13.9737 37.9931 14.0861 38.0572 14.2628C38.1053 14.4395 38.2335 14.584 38.3136 14.584C38.3937 14.584 38.4578 14.6965 38.4578 14.825C38.4578 15.098 39.0027 15.4192 39.1789 15.2586C39.259 15.1944 39.259 15.2265 39.211 15.3229C39.0828 15.5477 39.6276 16.0778 39.8199 15.9171C39.884 15.8368 39.9 15.9171 39.8359 16.0938C39.7558 16.3187 39.8039 16.3669 39.9801 16.2866C40.1243 16.2384 40.2045 16.2544 40.1564 16.3187C40.0602 16.4793 40.6211 16.9933 40.8775 16.9933C40.9736 16.9933 41.0217 17.1057 40.9576 17.2342C40.9095 17.3787 41.0057 17.5394 41.23 17.6518C41.6787 17.8927 42.1434 18.3746 42.0472 18.487C41.9992 18.5352 42.0953 18.6476 42.2716 18.744C42.4478 18.8403 42.7202 19.0491 42.8805 19.1937C43.0407 19.3543 43.233 19.4828 43.3292 19.4828C43.4253 19.4828 43.5855 19.6595 43.6817 19.8683C43.7939 20.0771 44.0022 20.318 44.1304 20.3983C44.2746 20.4786 44.3547 20.6071 44.3066 20.6874C44.2265 20.8159 44.7393 21.2014 44.8835 21.1211C44.9155 21.105 44.9316 21.1211 44.9155 21.1532C44.8835 21.1853 45.0437 21.378 45.2681 21.5708C45.4764 21.7796 45.6046 21.9884 45.5405 22.0687C45.4764 22.1329 45.5725 22.1329 45.7488 22.0687C45.9251 22.0044 46.0212 22.0044 45.9571 22.0526C45.8289 22.1811 46.4058 22.7754 46.6301 22.7754C46.7263 22.7754 46.7904 22.9039 46.7583 23.0645C46.7263 23.2412 46.8064 23.3375 46.9827 23.3215C47.1429 23.3054 47.239 23.3536 47.191 23.4178C47.1429 23.4821 47.3031 23.6588 47.5114 23.8033C47.7358 23.9479 47.88 24.1246 47.848 24.2049C47.7999 24.2691 47.9761 24.494 48.2486 24.6867L48.7293 25.0401L48.6972 36.0421C48.6812 42.0813 48.6171 47.0603 48.553 47.1085C48.4889 47.1406 48.2966 47.0442 48.1364 46.8676Z" fill="#631032"/>
<path d="M68.6152 34.7894C68.4069 34.5806 68.2626 34.7412 71.7559 31.2077C73.1981 29.7461 74.4319 28.5575 74.512 28.5575C74.5922 28.5575 74.7524 28.3969 74.8485 28.2042C75.0889 27.7384 75.5696 27.2565 75.6818 27.369C75.7299 27.4172 75.842 27.3047 75.9542 27.128C76.1144 26.8229 77.156 25.7307 77.9732 25.0079C78.1495 24.8634 78.3899 24.6064 78.5181 24.4297C78.6463 24.2691 79.111 23.8194 79.5436 23.45C80.2487 22.8396 80.4089 22.7754 81.1781 22.7754C81.6588 22.7754 82.0434 22.8557 82.0434 22.936C82.0434 23.0484 85.1681 23.0966 91.5296 23.0966C96.7375 23.0806 101.048 23.1448 101.112 23.209C101.32 23.4339 101.481 24.1085 101.304 23.9961C101.208 23.9479 101 24.0603 100.84 24.2691C100.679 24.4779 100.455 24.6225 100.343 24.5743C100.247 24.5422 100.103 24.6546 100.038 24.8152C99.8942 25.2489 99.4776 25.6825 99.077 25.8431C98.8526 25.9234 98.7084 26.1162 98.7084 26.3089C98.7084 26.4856 98.6443 26.6301 98.5642 26.6301C98.4841 26.6301 98.3559 26.7908 98.3078 26.9674C98.2277 27.2244 98.1636 27.2565 98.0675 27.112C97.9232 26.8711 97.5867 27.0317 97.5867 27.369C97.5867 27.6581 97.09 28.156 96.7855 28.156C96.6573 28.156 96.5291 28.3005 96.4971 28.4772C96.417 28.8787 95.9202 29.3606 95.5837 29.3606C95.4555 29.3606 95.2632 29.5373 95.1831 29.7461C95.103 29.9549 94.8466 30.2279 94.5902 30.3564C94.3499 30.4688 94.1255 30.7097 94.0935 30.8864C94.0454 31.0631 93.9332 31.2719 93.8051 31.3361C93.6769 31.4004 93.5807 31.5931 93.5807 31.7377C93.5807 31.9625 93.5487 31.9625 93.4365 31.7859C93.2602 31.4968 92.9397 31.7056 92.9397 32.1071C92.9397 32.2677 92.8757 32.4123 92.8116 32.4123C92.7314 32.4123 92.5872 32.5729 92.4911 32.7817C92.3949 32.9744 92.3148 33.0387 92.3148 32.9423C92.2828 32.5568 91.9623 32.7335 91.802 33.2153C91.7059 33.4884 91.5617 33.6972 91.4816 33.6972C91.4014 33.6972 91.3373 33.8096 91.3373 33.9381C91.3373 34.0666 91.0169 34.3557 90.6483 34.5806L89.9432 34.9821H79.3834C71.5957 34.9821 68.7594 34.9339 68.6152 34.7894Z" fill="#631032"/>
<path d="M34.2595 32.9262C34.0192 32.6852 33.6666 32.3319 33.4583 32.1392C32.8814 31.577 32.7372 31.4324 31.7277 30.4045C31.2149 29.8745 30.6701 29.3284 30.5419 29.1999C30.3977 29.0714 29.917 28.5735 29.4523 28.1077C28.9876 27.6259 28.4748 27.128 28.3306 26.9834C27.9781 26.6461 27.4012 26.0679 27.0487 25.6985C26.9045 25.554 26.6961 25.3612 26.6 25.2648C26.5039 25.1845 26.2635 24.9276 26.0552 24.7027C25.8469 24.4778 25.0617 23.7069 24.2925 22.9681L22.9145 21.6189V10.8898C22.9145 0.289289 22.9145 0.144736 23.2349 0.0483672C23.6836 -0.0961859 24.1643 0.0965516 24.2765 0.449904C24.3246 0.610518 24.4848 0.787194 24.613 0.835378C24.7412 0.883563 24.8213 0.995993 24.7572 1.0763C24.6611 1.25298 25.2059 1.60633 25.3822 1.4939C25.4302 1.44571 25.4463 1.46178 25.3982 1.52602C25.3661 1.57421 25.4943 1.783 25.7187 1.97574C25.927 2.18454 26.0552 2.39334 26.0071 2.44152C25.943 2.48971 25.9751 2.53789 26.0712 2.53789C26.2795 2.53789 26.7923 3.01974 27.0166 3.42127C27.1288 3.59795 27.3211 3.72644 27.4653 3.72644C27.6095 3.71038 27.6896 3.7425 27.6416 3.80675C27.6095 3.87099 27.7537 4.04767 27.9621 4.20828C28.1864 4.3689 28.3146 4.56164 28.2825 4.64194C28.2345 4.70619 28.3466 4.80256 28.5229 4.8668C28.6992 4.93105 28.9555 5.15591 29.0677 5.39683C29.1959 5.63775 29.5965 6.00717 29.949 6.23203C30.3176 6.45689 30.574 6.71387 30.5419 6.8263C30.4939 6.92267 30.6541 7.13147 30.8945 7.29208C31.3912 7.61331 31.7277 7.93454 31.7758 8.11122C31.7918 8.17546 31.904 8.22365 32.0161 8.22365C32.1283 8.20759 32.1924 8.22365 32.1443 8.27183C32.0963 8.32002 32.2405 8.49669 32.4488 8.67337C32.6731 8.85004 32.8174 9.04278 32.7693 9.12309C32.7212 9.18733 32.8975 9.38007 33.1378 9.52463C33.6827 9.87798 34.1313 10.3438 34.0352 10.4562C33.9871 10.4883 34.1794 10.6007 34.4358 10.6971L34.9325 10.8738V22.0365C34.9325 28.172 34.8684 33.2313 34.8043 33.2795C34.7242 33.3277 34.4839 33.1671 34.2595 32.9262Z" fill="#631032"/>
<path d="M121.546 31.0489C121.546 22.9969 126.32 15.2309 135.934 15.2309C139.322 15.2309 140.906 16.2869 142.292 16.2869C143.282 16.2869 143.92 15.8249 144.8 15.8249C146.494 15.8249 146.538 17.5189 147.066 20.1369C147.638 23.1069 147.946 23.8329 147.946 24.4489C147.946 25.3949 147.396 25.8349 146.758 25.8349C145.592 25.8349 144.998 24.4929 144.03 23.1069C142.006 20.2689 139.344 18.6409 136.704 18.6409C131.842 18.6409 129.334 23.1949 129.334 28.4309C129.334 35.2069 133.008 40.6849 138.992 40.6849C143.128 40.6849 145.504 38.0449 146.648 35.8889C147.044 35.2509 147.374 34.7229 147.836 34.7229C148.474 34.7229 148.716 35.6029 148.716 36.3289C148.716 37.7589 148.276 39.3869 147.352 40.8829C145.46 43.9409 141.544 46.6469 135.978 46.6469C126.694 46.6469 121.546 39.2989 121.546 31.0489ZM164.816 19.1249C162.088 19.1249 159.272 21.8089 159.272 28.3869C159.272 31.3789 159.778 34.8549 161.098 37.7809C162.616 40.9269 165.036 42.3129 167.214 42.3129C170.36 42.3129 173.132 39.9809 173.132 34.2169C173.132 30.9609 172.318 27.0449 170.976 24.2509C169.524 21.0609 167.17 19.1249 164.816 19.1249ZM151.044 31.1809C151.044 21.7649 157.028 15.2529 165.784 15.2529C173.88 15.2529 180.81 21.1269 180.81 31.6649C180.81 41.6309 174.276 46.6469 166.092 46.6469C156.676 46.6469 151.044 40.1789 151.044 31.1809ZM201.335 27.4629V33.8209C201.335 34.9869 201.093 35.6249 200.279 35.6249C199.399 35.6249 199.047 34.8549 198.761 34.2169C198.013 32.6329 197.617 31.8629 194.581 31.8629C193.635 31.8629 193.305 32.3909 193.305 33.9969V38.6609C193.305 41.7189 194.273 42.0489 197.309 42.0489C202.149 42.0489 203.579 40.7069 205.185 37.2309C205.603 36.3509 206.109 35.6909 206.747 35.6909C207.407 35.6909 207.825 36.1969 207.825 37.5389C207.825 38.6169 207.209 42.0929 207.011 44.3589C206.923 45.7009 206.439 46.0089 204.899 46.0089C203.337 46.0089 199.839 45.8989 196.253 45.8989C192.271 45.8989 188.487 46.0089 185.473 46.0089C184.263 46.0089 183.735 45.5249 183.735 44.7989C183.735 43.3249 185.825 43.3909 186.177 40.9049C186.375 39.6509 186.441 34.5249 186.441 30.2569C186.441 27.2649 186.419 23.0849 186.353 22.1389C186.067 18.6629 183.911 18.8609 183.911 17.1669C183.911 16.4409 184.263 15.8689 185.495 15.8689C187.717 15.8689 190.291 15.9789 195.351 15.9789C199.729 15.9789 202.105 15.8689 203.689 15.8689C205.251 15.8689 205.779 16.1549 206.087 18.1569C206.263 19.1029 206.527 20.8409 206.857 22.5349C207.011 23.2829 207.121 24.1409 207.121 24.4269C207.121 25.3509 206.549 25.7249 205.933 25.7249C205.031 25.7249 204.591 24.7569 204.107 23.8549C202.413 20.4449 201.599 19.6089 196.869 19.6089C193.855 19.6089 193.305 20.0269 193.305 22.4469V25.8569C193.305 27.6829 193.613 28.0129 194.449 28.0129C198.035 28.0129 198.343 26.7589 199.157 25.4169C199.421 25.0429 199.751 24.7789 200.147 24.7789C200.983 24.7789 201.335 25.4829 201.335 27.4629ZM236.373 27.5949C235.977 27.5949 234.965 29.9709 232.699 36.0209C231.313 39.6949 230.081 43.0829 229.443 44.4029C228.915 45.3709 228.079 46.1189 226.935 46.1189C226.363 46.1189 225.857 45.5909 225.571 44.9749C224.977 43.6989 220.511 32.5009 218.751 28.3649C218.465 27.7049 218.289 27.3749 218.113 27.3749C217.937 27.3749 217.849 27.6609 217.805 28.1229C217.717 28.9149 217.519 35.4709 217.519 36.7469C217.519 39.0349 217.761 41.0369 218.113 41.8069C218.927 43.3909 220.137 43.4129 220.137 44.7109C220.137 45.4809 219.719 46.0089 218.553 46.0089C217.123 46.0089 216.265 45.8989 215.473 45.8989C214.483 45.8989 213.317 46.0089 211.865 46.0089C210.831 46.0089 210.347 45.5029 210.347 44.7329C210.347 43.0829 212.503 43.4569 212.943 40.1129C213.405 36.4169 213.779 28.8049 213.779 25.3949C213.779 24.0529 213.735 22.9529 213.669 22.1389C213.361 18.6629 211.227 18.8609 211.227 17.1669C211.227 16.4189 211.601 15.8689 212.767 15.8689C213.559 15.8689 215.363 15.9789 216.441 15.9789C218.993 15.9789 219.719 16.1109 220.489 16.5949C221.303 17.1009 222.051 18.2889 222.469 19.0589C223.151 20.3129 227.419 30.4989 228.717 33.5349C228.805 33.7769 228.915 33.9309 229.091 33.9309C229.201 33.9309 229.333 33.8649 229.487 33.5569C229.861 32.5889 233.711 22.7109 235.405 18.9709C235.977 17.7609 236.549 17.0129 237.209 16.5729C237.935 16.1329 239.101 15.9789 241.367 15.9789C242.049 15.9789 243.545 15.8689 244.337 15.8689C245.415 15.8689 245.811 16.4409 245.811 17.1889C245.811 18.8169 243.809 18.7289 243.391 22.0729C243.281 22.9749 243.259 24.3389 243.259 25.1969C243.259 29.8609 243.765 37.2749 244.161 40.0249C244.623 43.5009 246.779 43.0829 246.779 44.7329C246.779 45.5029 246.295 46.0089 245.195 46.0089C243.787 46.0089 241.675 45.8989 240.707 45.8989C239.211 45.8989 237.737 46.0089 236.307 46.0089C235.185 46.0089 234.569 45.5469 234.569 44.7989C234.569 43.3249 236.593 43.3909 237.055 40.8169C237.121 40.4429 237.143 39.8269 237.143 39.0569C237.143 37.0769 236.967 32.2369 236.659 28.3429C236.593 27.7929 236.439 27.5949 236.373 27.5949ZM267.077 27.4629V33.8209C267.077 34.9869 266.835 35.6249 266.021 35.6249C265.141 35.6249 264.789 34.8549 264.503 34.2169C263.755 32.6329 263.359 31.8629 260.323 31.8629C259.377 31.8629 259.047 32.3909 259.047 33.9969V38.6609C259.047 41.7189 260.015 42.0489 263.051 42.0489C267.891 42.0489 269.321 40.7069 270.927 37.2309C271.345 36.3509 271.851 35.6909 272.489 35.6909C273.149 35.6909 273.567 36.1969 273.567 37.5389C273.567 38.6169 272.951 42.0929 272.753 44.3589C272.665 45.7009 272.181 46.0089 270.641 46.0089C269.079 46.0089 265.581 45.8989 261.995 45.8989C258.013 45.8989 254.229 46.0089 251.215 46.0089C250.005 46.0089 249.477 45.5249 249.477 44.7989C249.477 43.3249 251.567 43.3909 251.919 40.9049C252.117 39.6509 252.183 34.5249 252.183 30.2569C252.183 27.2649 252.161 23.0849 252.095 22.1389C251.809 18.6629 249.653 18.8609 249.653 17.1669C249.653 16.4409 250.005 15.8689 251.237 15.8689C253.459 15.8689 256.033 15.9789 261.093 15.9789C265.471 15.9789 267.847 15.8689 269.431 15.8689C270.993 15.8689 271.521 16.1549 271.829 18.1569C272.005 19.1029 272.269 20.8409 272.599 22.5349C272.753 23.2829 272.863 24.1409 272.863 24.4269C272.863 25.3509 272.291 25.7249 271.675 25.7249C270.773 25.7249 270.333 24.7569 269.849 23.8549C268.155 20.4449 267.341 19.6089 262.611 19.6089C259.597 19.6089 259.047 20.0269 259.047 22.4469V25.8569C259.047 27.6829 259.355 28.0129 260.191 28.0129C263.777 28.0129 264.085 26.7589 264.899 25.4169C265.163 25.0429 265.493 24.7789 265.889 24.7789C266.725 24.7789 267.077 25.4829 267.077 27.4629ZM294.124 24.7569C294.124 21.6549 291.902 19.7409 288.822 19.7409C286.49 19.7409 286.248 20.0269 286.248 22.7109V27.0229C286.248 28.6949 286.622 29.5969 289.086 29.5969C292.166 29.5969 294.124 27.8369 294.124 24.7569ZM286.226 35.7569V39.1889C286.226 40.9929 286.82 41.9169 287.568 42.7089C288.25 43.4789 289.174 43.9189 289.174 44.7989C289.174 45.5909 288.492 46.0089 287.458 46.0089C286.16 46.0089 284.268 45.8989 282.838 45.8989C281.32 45.8989 279.428 46.0089 278.372 46.0089C277.162 46.0089 276.634 45.5249 276.634 44.7989C276.634 43.3249 278.724 43.3909 279.076 40.9049C279.274 39.6509 279.34 34.5249 279.34 30.2569C279.34 27.2649 279.318 23.0849 279.252 22.1389C278.966 18.6629 276.81 18.8609 276.81 17.1669C276.81 16.4409 277.162 15.8689 278.394 15.8689C280.616 15.8689 281.364 15.9789 283.938 15.9789C286.358 15.9789 288.756 15.8249 291.528 15.8249C297.864 15.8249 301.846 18.3769 301.846 23.8549C301.846 26.5609 300.482 29.5529 295.422 31.3129C295.29 31.3789 295.136 31.4669 295.136 31.6209C295.136 31.7309 295.224 31.8849 295.444 31.9949C298.48 33.6229 300.328 36.2629 302.154 39.5629C303.034 41.1909 303.738 42.3349 304.662 43.0609C305.52 43.8089 306.004 43.9189 306.004 44.7769C306.004 45.7449 305.344 46.0089 304.64 46.0089C303.716 46.0089 301.472 45.8989 300.416 45.8989C298.568 45.8989 296.874 46.0089 296.214 46.0089C295.136 46.0089 294.432 45.4369 294.432 44.7109C294.432 43.9409 294.96 43.6549 294.96 42.5989C294.96 40.1129 292.408 35.7789 290.406 34.3489C289.526 33.7989 288.118 33.6669 287.788 33.6669C286.666 33.6669 286.226 34.4589 286.226 35.7569ZM325.042 27.4629V33.8209C325.042 34.9869 324.8 35.6249 323.986 35.6249C323.106 35.6249 322.754 34.8549 322.468 34.2169C321.72 32.6329 321.324 31.8629 318.288 31.8629C317.342 31.8629 317.012 32.3909 317.012 33.9969V38.6609C317.012 41.7189 317.98 42.0489 321.016 42.0489C325.856 42.0489 327.286 40.7069 328.892 37.2309C329.31 36.3509 329.816 35.6909 330.454 35.6909C331.114 35.6909 331.532 36.1969 331.532 37.5389C331.532 38.6169 330.916 42.0929 330.718 44.3589C330.63 45.7009 330.146 46.0089 328.606 46.0089C327.044 46.0089 323.546 45.8989 319.96 45.8989C315.978 45.8989 312.194 46.0089 309.18 46.0089C307.97 46.0089 307.442 45.5249 307.442 44.7989C307.442 43.3249 309.532 43.3909 309.884 40.9049C310.082 39.6509 310.148 34.5249 310.148 30.2569C310.148 27.2649 310.126 23.0849 310.06 22.1389C309.774 18.6629 307.618 18.8609 307.618 17.1669C307.618 16.4409 307.97 15.8689 309.202 15.8689C311.424 15.8689 313.998 15.9789 319.058 15.9789C323.436 15.9789 325.812 15.8689 327.396 15.8689C328.958 15.8689 329.486 16.1549 329.794 18.1569C329.97 19.1029 330.234 20.8409 330.564 22.5349C330.718 23.2829 330.828 24.1409 330.828 24.4269C330.828 25.3509 330.256 25.7249 329.64 25.7249C328.738 25.7249 328.298 24.7569 327.814 23.8549C326.12 20.4449 325.306 19.6089 320.576 19.6089C317.562 19.6089 317.012 20.0269 317.012 22.4469V25.8569C317.012 27.6829 317.32 28.0129 318.156 28.0129C321.742 28.0129 322.05 26.7589 322.864 25.4169C323.128 25.0429 323.458 24.7789 323.854 24.7789C324.69 24.7789 325.042 25.4829 325.042 27.4629Z" fill="#620E31"/>
<path d="M127.068 73.0589C126.215 73.0589 125.42 72.9203 124.684 72.6429C123.959 72.3549 123.324 71.9549 122.78 71.4429C122.247 70.9203 121.831 70.3069 121.532 69.6029C121.233 68.8989 121.084 68.1309 121.084 67.2989C121.084 66.4669 121.233 65.6989 121.532 64.9949C121.831 64.2909 122.252 63.6829 122.796 63.1709C123.34 62.6483 123.975 62.2483 124.7 61.9709C125.425 61.6829 126.22 61.5389 127.084 61.5389C128.001 61.5389 128.839 61.6989 129.596 62.0189C130.353 62.3283 130.993 62.7923 131.516 63.4109L130.172 64.6749C129.767 64.2376 129.313 63.9123 128.812 63.6989C128.311 63.4749 127.767 63.3629 127.18 63.3629C126.593 63.3629 126.055 63.4589 125.564 63.6509C125.084 63.8429 124.663 64.1149 124.3 64.4669C123.948 64.8189 123.671 65.2349 123.468 65.7149C123.276 66.1949 123.18 66.7229 123.18 67.2989C123.18 67.8749 123.276 68.4029 123.468 68.8829C123.671 69.3629 123.948 69.7789 124.3 70.1309C124.663 70.4829 125.084 70.7549 125.564 70.9469C126.055 71.1389 126.593 71.2349 127.18 71.2349C127.767 71.2349 128.311 71.1283 128.812 70.9149C129.313 70.6909 129.767 70.3549 130.172 69.9069L131.516 71.1869C130.993 71.7949 130.353 72.2589 129.596 72.5789C128.839 72.8989 127.996 73.0589 127.068 73.0589ZM138.523 73.0589C137.648 73.0589 136.843 72.9149 136.107 72.6269C135.371 72.3389 134.731 71.9389 134.187 71.4269C133.643 70.9043 133.221 70.2963 132.923 69.6029C132.624 68.8989 132.475 68.1309 132.475 67.2989C132.475 66.4669 132.624 65.7043 132.923 65.0109C133.221 64.3069 133.643 63.6989 134.187 63.1869C134.731 62.6643 135.371 62.2589 136.107 61.9709C136.843 61.6829 137.643 61.5389 138.507 61.5389C139.381 61.5389 140.181 61.6829 140.907 61.9709C141.643 62.2589 142.283 62.6643 142.827 63.1869C143.371 63.6989 143.792 64.3069 144.091 65.0109C144.389 65.7043 144.539 66.4669 144.539 67.2989C144.539 68.1309 144.389 68.8989 144.091 69.6029C143.792 70.3069 143.371 70.9149 142.827 71.4269C142.283 71.9389 141.643 72.3389 140.907 72.6269C140.181 72.9149 139.387 73.0589 138.523 73.0589ZM138.507 71.2349C139.072 71.2349 139.595 71.1389 140.075 70.9469C140.555 70.7549 140.971 70.4829 141.323 70.1309C141.675 69.7683 141.947 69.3523 142.139 68.8829C142.341 68.4029 142.443 67.8749 142.443 67.2989C142.443 66.7229 142.341 66.2003 142.139 65.7309C141.947 65.2509 141.675 64.8349 141.323 64.4829C140.971 64.1203 140.555 63.8429 140.075 63.6509C139.595 63.4589 139.072 63.3629 138.507 63.3629C137.941 63.3629 137.419 63.4589 136.939 63.6509C136.469 63.8429 136.053 64.1203 135.691 64.4829C135.339 64.8349 135.061 65.2509 134.859 65.7309C134.667 66.2003 134.571 66.7229 134.571 67.2989C134.571 67.8643 134.667 68.3869 134.859 68.8669C135.061 69.3469 135.339 69.7683 135.691 70.1309C136.043 70.4829 136.459 70.7549 136.939 70.9469C137.419 71.1389 137.941 71.2349 138.507 71.2349ZM146.743 72.8989V61.6989H148.455L153.351 69.8749H152.455L157.271 61.6989H158.983L158.999 72.8989H157.031L157.015 64.7869H157.431L153.335 71.6189H152.407L148.247 64.7869H148.727V72.8989H146.743ZM162.025 72.8989V61.6989H164.105V72.8989H162.025ZM170.606 73.0589C169.731 73.0589 168.894 72.9363 168.094 72.6909C167.294 72.4349 166.659 72.1096 166.19 71.7149L166.91 70.0989C167.358 70.4509 167.913 70.7443 168.574 70.9789C169.235 71.2136 169.913 71.3309 170.606 71.3309C171.193 71.3309 171.667 71.2669 172.03 71.1389C172.393 71.0109 172.659 70.8403 172.83 70.6269C173.001 70.4029 173.086 70.1523 173.086 69.8749C173.086 69.5336 172.963 69.2616 172.718 69.0589C172.473 68.8456 172.153 68.6803 171.758 68.5629C171.374 68.4349 170.942 68.3176 170.462 68.2109C169.993 68.1043 169.518 67.9816 169.038 67.8429C168.569 67.6936 168.137 67.5069 167.742 67.2829C167.358 67.0483 167.043 66.7389 166.798 66.3549C166.553 65.9709 166.43 65.4803 166.43 64.8829C166.43 64.2749 166.59 63.7203 166.91 63.2189C167.241 62.7069 167.737 62.3016 168.398 62.0029C169.07 61.6936 169.918 61.5389 170.942 61.5389C171.614 61.5389 172.281 61.6243 172.942 61.7949C173.603 61.9656 174.179 62.2109 174.67 62.5309L174.014 64.1469C173.513 63.8483 172.995 63.6296 172.462 63.4909C171.929 63.3416 171.417 63.2669 170.926 63.2669C170.35 63.2669 169.881 63.3363 169.518 63.4749C169.166 63.6136 168.905 63.7949 168.734 64.0189C168.574 64.2429 168.494 64.4989 168.494 64.7869C168.494 65.1283 168.611 65.4056 168.846 65.6189C169.091 65.8216 169.406 65.9816 169.79 66.0989C170.185 66.2163 170.622 66.3336 171.102 66.4509C171.582 66.5576 172.057 66.6803 172.526 66.8189C173.006 66.9576 173.438 67.1389 173.822 67.3629C174.217 67.5869 174.531 67.8909 174.766 68.2749C175.011 68.6589 175.134 69.1443 175.134 69.7309C175.134 70.3283 174.969 70.8829 174.638 71.3949C174.318 71.8963 173.822 72.3016 173.15 72.6109C172.478 72.9096 171.63 73.0589 170.606 73.0589ZM177.196 72.8989V61.6989H179.276V72.8989H177.196ZM187.554 73.0589C186.679 73.0589 185.874 72.9149 185.138 72.6269C184.402 72.3389 183.762 71.9389 183.218 71.4269C182.674 70.9043 182.252 70.2963 181.954 69.6029C181.655 68.8989 181.506 68.1309 181.506 67.2989C181.506 66.4669 181.655 65.7043 181.954 65.0109C182.252 64.3069 182.674 63.6989 183.218 63.1869C183.762 62.6643 184.402 62.2589 185.138 61.9709C185.874 61.6829 186.674 61.5389 187.538 61.5389C188.412 61.5389 189.212 61.6829 189.938 61.9709C190.674 62.2589 191.314 62.6643 191.858 63.1869C192.402 63.6989 192.823 64.3069 193.122 65.0109C193.42 65.7043 193.57 66.4669 193.57 67.2989C193.57 68.1309 193.42 68.8989 193.122 69.6029C192.823 70.3069 192.402 70.9149 191.858 71.4269C191.314 71.9389 190.674 72.3389 189.938 72.6269C189.212 72.9149 188.418 73.0589 187.554 73.0589ZM187.538 71.2349C188.103 71.2349 188.626 71.1389 189.106 70.9469C189.586 70.7549 190.002 70.4829 190.354 70.1309C190.706 69.7683 190.978 69.3523 191.17 68.8829C191.372 68.4029 191.474 67.8749 191.474 67.2989C191.474 66.7229 191.372 66.2003 191.17 65.7309C190.978 65.2509 190.706 64.8349 190.354 64.4829C190.002 64.1203 189.586 63.8429 189.106 63.6509C188.626 63.4589 188.103 63.3629 187.538 63.3629C186.972 63.3629 186.45 63.4589 185.97 63.6509C185.5 63.8429 185.084 64.1203 184.722 64.4829C184.37 64.8349 184.092 65.2509 183.89 65.7309C183.698 66.2003 183.602 66.7229 183.602 67.2989C183.602 67.8643 183.698 68.3869 183.89 68.8669C184.092 69.3469 184.37 69.7683 184.722 70.1309C185.074 70.4829 185.49 70.7549 185.97 70.9469C186.45 71.1389 186.972 71.2349 187.538 71.2349ZM186.194 60.7869L188.354 58.5949H190.706L187.922 60.7869H186.194ZM195.775 72.8989V61.6989H197.487L204.511 70.3229H203.663V61.6989H205.727V72.8989H204.015L196.991 64.2749H197.839V72.8989H195.775ZM215.07 66.3549H220.638V68.0669H215.07V66.3549ZM215.23 71.1549H221.55V72.8989H213.15V61.6989H221.326V63.4429H215.23V71.1549ZM227.34 73.0589C226.466 73.0589 225.628 72.9363 224.828 72.6909C224.028 72.4349 223.394 72.1096 222.924 71.7149L223.644 70.0989C224.092 70.4509 224.647 70.7443 225.308 70.9789C225.97 71.2136 226.647 71.3309 227.34 71.3309C227.927 71.3309 228.402 71.2669 228.764 71.1389C229.127 71.0109 229.394 70.8403 229.564 70.6269C229.735 70.4029 229.82 70.1523 229.82 69.8749C229.82 69.5336 229.698 69.2616 229.452 69.0589C229.207 68.8456 228.887 68.6803 228.492 68.5629C228.108 68.4349 227.676 68.3176 227.196 68.2109C226.727 68.1043 226.252 67.9816 225.772 67.8429C225.303 67.6936 224.871 67.5069 224.476 67.2829C224.092 67.0483 223.778 66.7389 223.532 66.3549C223.287 65.9709 223.164 65.4803 223.164 64.8829C223.164 64.2749 223.324 63.7203 223.644 63.2189C223.975 62.7069 224.471 62.3016 225.132 62.0029C225.804 61.6936 226.652 61.5389 227.676 61.5389C228.348 61.5389 229.015 61.6243 229.676 61.7949C230.338 61.9656 230.914 62.2109 231.404 62.5309L230.748 64.1469C230.247 63.8483 229.73 63.6296 229.196 63.4909C228.663 63.3416 228.151 63.2669 227.66 63.2669C227.084 63.2669 226.615 63.3363 226.252 63.4749C225.9 63.6136 225.639 63.7949 225.468 64.0189C225.308 64.2429 225.228 64.4989 225.228 64.7869C225.228 65.1283 225.346 65.4056 225.58 65.6189C225.826 65.8216 226.14 65.9816 226.524 66.0989C226.919 66.2163 227.356 66.3336 227.836 66.4509C228.316 66.5576 228.791 66.6803 229.26 66.8189C229.74 66.9576 230.172 67.1389 230.556 67.3629C230.951 67.5869 231.266 67.8909 231.5 68.2749C231.746 68.6589 231.868 69.1443 231.868 69.7309C231.868 70.3283 231.703 70.8829 231.372 71.3949C231.052 71.8963 230.556 72.3016 229.884 72.6109C229.212 72.9096 228.364 73.0589 227.34 73.0589ZM236.047 72.8989V63.4589H232.335V61.6989H241.839V63.4589H238.127V72.8989H236.047ZM241.253 72.8989L246.293 61.6989H248.341L253.397 72.8989H251.221L246.885 62.8029H247.717L243.397 72.8989H241.253ZM243.573 70.3069L244.133 68.6749H250.181L250.741 70.3069H243.573ZM256.531 72.8989V63.4589H252.819V61.6989H262.323V63.4589H258.611V72.8989H256.531ZM261.737 72.8989L266.777 61.6989H268.825L273.881 72.8989H271.705L267.369 62.8029H268.201L263.881 72.8989H261.737ZM264.057 70.3069L264.617 68.6749H270.665L271.225 70.3069H264.057ZM275.306 72.8989V61.6989H277.386V71.1389H283.242V72.8989H275.306ZM289.306 72.8989V61.6989H294.202C295.418 61.6989 296.484 61.9336 297.402 62.4029C298.319 62.8723 299.034 63.5229 299.546 64.3549C300.058 65.1869 300.314 66.1683 300.314 67.2989C300.314 68.4189 300.058 69.4003 299.546 70.2429C299.034 71.0749 298.319 71.7256 297.402 72.1949C296.484 72.6643 295.418 72.8989 294.202 72.8989H289.306ZM291.386 71.1389H294.106C294.948 71.1389 295.674 70.9789 296.282 70.6589C296.9 70.3389 297.375 69.8909 297.706 69.3149C298.047 68.7389 298.218 68.0669 298.218 67.2989C298.218 66.5203 298.047 65.8483 297.706 65.2829C297.375 64.7069 296.9 64.2589 296.282 63.9389C295.674 63.6189 294.948 63.4589 294.106 63.4589H291.386V71.1389ZM304.445 66.3549H310.013V68.0669H304.445V66.3549ZM304.605 71.1549H310.925V72.8989H302.525V61.6989H310.701V63.4429H304.605V71.1549ZM317.665 72.8989V61.6989H319.377L324.273 69.8749H323.377L328.193 61.6989H329.905L329.921 72.8989H327.953L327.937 64.7869H328.353L324.257 71.6189H323.329L319.169 64.7869H319.649V72.8989H317.665ZM334.866 66.3549H340.434V68.0669H334.866V66.3549ZM335.026 71.1549H341.346V72.8989H332.946V61.6989H341.122V63.4429H335.026V71.1549ZM345.409 73.0589C344.694 73.0589 344.033 72.9203 343.425 72.6429C342.828 72.3656 342.337 71.9656 341.953 71.4429L343.137 70.0189C343.446 70.4456 343.782 70.7656 344.145 70.9789C344.518 71.1923 344.924 71.2989 345.361 71.2989C346.524 71.2989 347.105 70.6109 347.105 69.2349V63.4429H343.121V61.6989H349.185V69.1229C349.185 70.4456 348.86 71.4323 348.209 72.0829C347.569 72.7336 346.636 73.0589 345.409 73.0589ZM357.351 73.0589C356.476 73.0589 355.671 72.9149 354.935 72.6269C354.199 72.3389 353.559 71.9389 353.015 71.4269C352.471 70.9043 352.049 70.2963 351.751 69.6029C351.452 68.8989 351.303 68.1309 351.303 67.2989C351.303 66.4669 351.452 65.7043 351.751 65.0109C352.049 64.3069 352.471 63.6989 353.015 63.1869C353.559 62.6643 354.199 62.2589 354.935 61.9709C355.671 61.6829 356.471 61.5389 357.335 61.5389C358.209 61.5389 359.009 61.6829 359.735 61.9709C360.471 62.2589 361.111 62.6643 361.655 63.1869C362.199 63.6989 362.62 64.3069 362.919 65.0109C363.217 65.7043 363.367 66.4669 363.367 67.2989C363.367 68.1309 363.217 68.8989 362.919 69.6029C362.62 70.3069 362.199 70.9149 361.655 71.4269C361.111 71.9389 360.471 72.3389 359.735 72.6269C359.009 72.9149 358.215 73.0589 357.351 73.0589ZM357.335 71.2349C357.9 71.2349 358.423 71.1389 358.903 70.9469C359.383 70.7549 359.799 70.4829 360.151 70.1309C360.503 69.7683 360.775 69.3523 360.967 68.8829C361.169 68.4029 361.271 67.8749 361.271 67.2989C361.271 66.7229 361.169 66.2003 360.967 65.7309C360.775 65.2509 360.503 64.8349 360.151 64.4829C359.799 64.1203 359.383 63.8429 358.903 63.6509C358.423 63.4589 357.9 63.3629 357.335 63.3629C356.769 63.3629 356.247 63.4589 355.767 63.6509C355.297 63.8429 354.881 64.1203 354.519 64.4829C354.167 64.8349 353.889 65.2509 353.687 65.7309C353.495 66.2003 353.399 66.7229 353.399 67.2989C353.399 67.8643 353.495 68.3869 353.687 68.8669C353.889 69.3469 354.167 69.7683 354.519 70.1309C354.871 70.4829 355.287 70.7549 355.767 70.9469C356.247 71.1389 356.769 71.2349 357.335 71.2349ZM365.571 72.8989V61.6989H370.179C371.171 61.6989 372.019 61.8589 372.723 62.1789C373.438 62.4989 373.987 62.9576 374.371 63.5549C374.755 64.1523 374.947 64.8616 374.947 65.6829C374.947 66.5043 374.755 67.2136 374.371 67.8109C373.987 68.3976 373.438 68.8509 372.723 69.1709C372.019 69.4803 371.171 69.6349 370.179 69.6349H366.723L367.651 68.6909V72.8989H365.571ZM372.899 72.8989L370.067 68.8349H372.291L375.139 72.8989H372.899ZM367.651 68.9149L366.723 67.9229H370.083C371.001 67.9229 371.689 67.7256 372.147 67.3309C372.617 66.9363 372.851 66.3869 372.851 65.6829C372.851 64.9683 372.617 64.4189 372.147 64.0349C371.689 63.6509 371.001 63.4589 370.083 63.4589H366.723L367.651 62.4349V68.9149ZM375.691 72.8989L380.731 61.6989H382.779L387.835 72.8989H385.659L381.323 62.8029H382.155L377.835 72.8989H375.691ZM378.011 70.3069L378.571 68.6749H384.619L385.179 70.3069H378.011ZM121.884 92.8989V81.6989H126.492C127.484 81.6989 128.332 81.8589 129.036 82.1789C129.751 82.4989 130.3 82.9576 130.684 83.5549C131.068 84.1523 131.26 84.8616 131.26 85.6829C131.26 86.5043 131.068 87.2136 130.684 87.8109C130.3 88.3976 129.751 88.8509 129.036 89.1709C128.332 89.4803 127.484 89.6349 126.492 89.6349H123.036L123.964 88.6909V92.8989H121.884ZM129.212 92.8989L126.38 88.8349H128.604L131.452 92.8989H129.212ZM123.964 88.9149L123.036 87.9229H126.396C127.313 87.9229 128.001 87.7256 128.46 87.3309C128.929 86.9363 129.164 86.3869 129.164 85.6829C129.164 84.9683 128.929 84.4189 128.46 84.0349C128.001 83.6509 127.313 83.4589 126.396 83.4589H123.036L123.964 82.4349V88.9149ZM135.507 86.3549H141.075V88.0669H135.507V86.3549ZM135.667 91.1549H141.987V92.8989H133.587V81.6989H141.763V83.4429H135.667V91.1549ZM149.538 93.0589C148.663 93.0589 147.858 92.9203 147.122 92.6429C146.396 92.3549 145.762 91.9549 145.218 91.4429C144.674 90.9203 144.252 90.3069 143.954 89.6029C143.655 88.8989 143.506 88.1309 143.506 87.2989C143.506 86.4669 143.655 85.6989 143.954 84.9949C144.252 84.2909 144.674 83.6829 145.218 83.1709C145.772 82.6483 146.418 82.2483 147.154 81.9709C147.89 81.6829 148.695 81.5389 149.57 81.5389C150.519 81.5389 151.372 81.6936 152.13 82.0029C152.898 82.3123 153.543 82.7656 154.066 83.3629L152.754 84.6429C152.316 84.2056 151.842 83.8856 151.33 83.6829C150.828 83.4696 150.274 83.3629 149.666 83.3629C149.079 83.3629 148.535 83.4589 148.034 83.6509C147.532 83.8429 147.1 84.1149 146.738 84.4669C146.375 84.8189 146.092 85.2349 145.89 85.7149C145.698 86.1949 145.602 86.7229 145.602 87.2989C145.602 87.8643 145.698 88.3869 145.89 88.8669C146.092 89.3469 146.375 89.7683 146.738 90.1309C147.1 90.4829 147.527 90.7549 148.018 90.9469C148.508 91.1389 149.052 91.2349 149.65 91.2349C150.204 91.2349 150.738 91.1496 151.25 90.9789C151.772 90.7976 152.268 90.4989 152.738 90.0829L153.922 91.6349C153.335 92.1043 152.652 92.4616 151.874 92.7069C151.106 92.9416 150.327 93.0589 149.538 93.0589ZM151.954 91.3629V87.1709H153.922V91.6349L151.954 91.3629ZM161.481 93.0589C159.945 93.0589 158.74 92.6269 157.865 91.7629C157.001 90.8989 156.569 89.6509 156.569 88.0189V81.6989H158.649V87.9389C158.649 89.0909 158.894 89.9283 159.385 90.4509C159.886 90.9736 160.59 91.2349 161.497 91.2349C162.404 91.2349 163.102 90.9736 163.593 90.4509C164.084 89.9283 164.329 89.0909 164.329 87.9389V81.6989H166.377V88.0189C166.377 89.6509 165.94 90.8989 165.065 91.7629C164.201 92.6269 163.006 93.0589 161.481 93.0589ZM169.29 92.8989V81.6989H171.37V91.1389H177.226V92.8989H169.29ZM177.3 92.8989L182.34 81.6989H184.388L189.444 92.8989H187.268L182.932 82.8029H183.764L179.444 92.8989H177.3ZM179.62 90.3069L180.18 88.6749H186.228L186.788 90.3069H179.62ZM192.578 92.8989V83.4589H188.866V81.6989H198.37V83.4589H194.658V92.8989H192.578ZM205.023 93.0589C204.148 93.0589 203.343 92.9149 202.607 92.6269C201.871 92.3389 201.231 91.9389 200.687 91.4269C200.143 90.9043 199.721 90.2963 199.423 89.6029C199.124 88.8989 198.975 88.1309 198.975 87.2989C198.975 86.4669 199.124 85.7043 199.423 85.0109C199.721 84.3069 200.143 83.6989 200.687 83.1869C201.231 82.6643 201.871 82.2589 202.607 81.9709C203.343 81.6829 204.143 81.5389 205.007 81.5389C205.881 81.5389 206.681 81.6829 207.407 81.9709C208.143 82.2589 208.783 82.6643 209.327 83.1869C209.871 83.6989 210.292 84.3069 210.591 85.0109C210.889 85.7043 211.039 86.4669 211.039 87.2989C211.039 88.1309 210.889 88.8989 210.591 89.6029C210.292 90.3069 209.871 90.9149 209.327 91.4269C208.783 91.9389 208.143 92.3389 207.407 92.6269C206.681 92.9149 205.887 93.0589 205.023 93.0589ZM205.007 91.2349C205.572 91.2349 206.095 91.1389 206.575 90.9469C207.055 90.7549 207.471 90.4829 207.823 90.1309C208.175 89.7683 208.447 89.3523 208.639 88.8829C208.841 88.4029 208.943 87.8749 208.943 87.2989C208.943 86.7229 208.841 86.2003 208.639 85.7309C208.447 85.2509 208.175 84.8349 207.823 84.4829C207.471 84.1203 207.055 83.8429 206.575 83.6509C206.095 83.4589 205.572 83.3629 205.007 83.3629C204.441 83.3629 203.919 83.4589 203.439 83.6509C202.969 83.8429 202.553 84.1203 202.191 84.4829C201.839 84.8349 201.561 85.2509 201.359 85.7309C201.167 86.2003 201.071 86.7229 201.071 87.2989C201.071 87.8643 201.167 88.3869 201.359 88.8669C201.561 89.3469 201.839 89.7683 202.191 90.1309C202.543 90.4829 202.959 90.7549 203.439 90.9469C203.919 91.1389 204.441 91.2349 205.007 91.2349ZM213.243 92.8989V81.6989H217.851C218.843 81.6989 219.691 81.8589 220.395 82.1789C221.11 82.4989 221.659 82.9576 222.043 83.5549C222.427 84.1523 222.619 84.8616 222.619 85.6829C222.619 86.5043 222.427 87.2136 222.043 87.8109C221.659 88.3976 221.11 88.8509 220.395 89.1709C219.691 89.4803 218.843 89.6349 217.851 89.6349H214.395L215.323 88.6909V92.8989H213.243ZM220.571 92.8989L217.739 88.8349H219.963L222.811 92.8989H220.571ZM215.323 88.9149L214.395 87.9229H217.755C218.673 87.9229 219.361 87.7256 219.819 87.3309C220.289 86.9363 220.523 86.3869 220.523 85.6829C220.523 84.9683 220.289 84.4189 219.819 84.0349C219.361 83.6509 218.673 83.4589 217.755 83.4589H214.395L215.323 82.4349V88.9149ZM224.946 92.8989V81.6989H227.026V92.8989H224.946ZM228.472 92.8989L233.512 81.6989H235.56L240.616 92.8989H238.44L234.104 82.8029H234.936L230.616 92.8989H228.472ZM230.792 90.3069L231.352 88.6749H237.4L237.96 90.3069H230.792Z" fill="#6B7071"/>
</svg>
