<svg width="351" height="207" viewBox="0 0 351 207" fill="none" xmlns="http://www.w3.org/2000/svg">
<path d="M150.23 108.784C150.07 108.72 150.022 106.423 150.022 98.007V87.294L150.631 86.7158C150.951 86.3945 151.304 86.0412 151.416 85.9288C151.512 85.8163 151.736 85.5915 151.913 85.4148C152.089 85.2381 152.297 85.0293 152.361 84.949C152.441 84.8687 152.73 84.5957 152.986 84.3387C153.259 84.0817 153.547 83.7926 153.627 83.6962C153.723 83.5998 154.22 83.0859 154.749 82.5558C155.278 82.0258 155.79 81.5279 155.87 81.4315C155.967 81.3512 156.255 81.0621 156.511 80.8052C156.784 80.5482 157.072 80.2591 157.168 80.1466C157.281 80.0342 157.505 79.8093 157.681 79.6327C157.857 79.456 158.066 79.2472 158.146 79.1669C158.21 79.0866 158.498 78.8135 158.755 78.5565C159.027 78.2996 159.332 77.9944 159.444 77.8659C160.437 76.8058 161.847 75.5209 161.944 75.6012C161.992 75.6494 162.04 80.6285 162.04 86.6515V97.6054L161.479 98.1836C161.158 98.5209 160.838 98.7779 160.758 98.7779C160.678 98.7779 160.582 98.9225 160.517 99.0991C160.469 99.2758 160.213 99.5328 159.957 99.6774C159.716 99.838 159.428 100.111 159.332 100.32C159.252 100.513 158.963 100.802 158.691 100.962C158.418 101.123 158.194 101.348 158.194 101.46C158.194 101.573 157.938 101.83 157.633 102.022C157.329 102.231 157.072 102.472 157.072 102.584C157.072 102.681 156.784 102.97 156.431 103.227C156.079 103.468 155.79 103.741 155.79 103.805C155.79 103.982 154.46 105.283 153.948 105.62C153.723 105.765 153.547 105.973 153.547 106.102C153.547 106.214 153.259 106.503 152.906 106.76C152.554 107.001 152.265 107.29 152.265 107.403C152.265 107.499 152.025 107.74 151.72 107.917C151.432 108.11 151.143 108.399 151.095 108.575C151.015 108.881 150.663 108.961 150.23 108.784Z" fill="#9B2149"/>
<path d="M204.023 108.094C203.622 107.644 203.206 107.194 203.077 107.082C201.908 106.006 198.414 102.424 198.414 102.311C198.414 102.215 198.334 102.151 198.254 102.151C198.158 102.151 197.117 101.187 195.931 99.9986C194.264 98.3442 193.767 97.75 193.767 97.4287C193.767 96.8023 194.216 96.8987 194.921 97.6857C195.258 98.0551 195.53 98.4246 195.53 98.4888C195.53 98.553 195.626 98.6173 195.754 98.6173C195.883 98.6173 196.123 98.8421 196.283 99.0991C196.427 99.3722 196.684 99.6131 196.828 99.6613C196.956 99.7095 197.165 99.9183 197.277 100.111C197.389 100.32 197.677 100.609 197.918 100.753C198.158 100.898 198.447 101.187 198.575 101.412C198.687 101.637 198.847 101.83 198.911 101.83C199.007 101.83 200.514 103.291 201.171 104.014C201.315 104.191 201.908 104.785 202.485 105.347C203.061 105.909 203.542 106.423 203.542 106.487C203.542 106.552 203.686 106.648 203.863 106.696C204.039 106.744 204.183 106.873 204.183 107.001C204.183 107.114 204.327 107.307 204.504 107.419L204.824 107.612L204.792 97.4769C204.76 89.5265 204.696 87.31 204.552 87.2458C204.343 87.1815 204.247 86.0894 204.44 86.0894C204.488 86.0894 204.808 86.3624 205.161 86.6836L205.786 87.2779V97.8142C205.77 108.945 205.786 108.897 205.048 108.897C204.888 108.897 204.424 108.527 204.023 108.094Z" fill="#9B2149"/>
<path d="M163.754 95.357C163.642 95.0197 163.61 78.5085 163.738 75.9065C163.818 73.9149 163.899 73.3528 164.107 73.1761C164.363 72.9352 164.892 72.4051 165.213 72.0839C165.405 71.8751 166.286 70.9917 166.494 70.799C166.735 70.5741 167.328 69.9638 167.456 69.8193C167.52 69.755 167.792 69.498 168.049 69.241C168.321 68.9841 168.626 68.6789 168.738 68.5504C168.978 68.3095 170.789 66.4785 170.981 66.3018C171.206 66.0769 173.016 64.262 173.177 64.0853C173.273 64.005 173.561 63.7159 173.817 63.4589C174.09 63.2019 174.378 62.9128 174.458 62.8165C174.795 62.447 175.532 61.8207 175.596 61.8688C175.628 61.901 175.676 66.7997 175.724 72.7585C175.804 84.6119 175.837 84.1782 174.859 84.7564C174.603 84.901 174.378 85.1258 174.378 85.2382C174.378 85.3507 174.122 85.6077 173.817 85.8004C173.513 86.0092 173.257 86.2662 173.257 86.3786C173.257 86.491 173 86.732 172.696 86.9086C172.391 87.0853 172.103 87.3744 172.055 87.5511C172.007 87.7117 171.75 87.9687 171.51 88.1132C171.27 88.2578 171.013 88.5308 170.917 88.7075C170.837 88.9003 170.565 89.1572 170.308 89.2857C170.052 89.3982 169.811 89.6391 169.779 89.7997C169.731 89.9603 169.443 90.2494 169.154 90.4422C168.85 90.6188 168.61 90.8758 168.61 91.0043C168.61 91.1167 168.353 91.3898 168.049 91.5825C167.744 91.7913 167.488 92.0483 167.488 92.1607C167.488 92.2732 167.232 92.5141 166.927 92.6908C166.623 92.8674 166.334 93.1565 166.286 93.3172C166.238 93.4938 165.95 93.7669 165.661 93.9596C165.357 94.1363 165.084 94.4093 165.052 94.57C164.94 94.9554 163.85 95.6139 163.754 95.357Z" fill="#9B2149"/>
<path d="M185.531 89.5749C180.275 84.3067 179.714 83.6964 179.778 83.3109C179.875 82.813 180.419 82.7006 180.58 83.1503C180.644 83.2948 180.804 83.5358 180.932 83.6803C181.076 83.8249 181.301 84.0979 181.429 84.2906C181.557 84.4834 181.717 84.644 181.765 84.644C181.878 84.644 183.56 86.3144 185.467 88.306C185.675 88.5148 185.98 88.8039 186.14 88.9485C187.134 89.8318 187.678 90.5386 187.678 90.9722C187.678 91.3256 187.742 91.3898 188.127 91.3898C188.464 91.3898 188.816 91.6147 189.489 92.2893C189.986 92.7711 190.402 93.2369 190.434 93.3011C190.531 93.5099 191.492 94.1203 191.748 94.1203C191.893 94.1203 192.005 94.2487 192.005 94.4094C192.005 94.9394 191.813 95.4052 191.588 95.4052C191.476 95.4052 188.752 92.7872 185.531 89.5749Z" fill="#9B2149"/>
<path d="M227.098 85.9931C226.969 85.961 222.37 85.9128 216.874 85.8967C207.516 85.8486 206.875 85.8325 206.731 85.5595C206.635 85.4149 206.475 85.2061 206.378 85.1258C206.266 85.0294 206.042 84.8367 205.85 84.6761C205.673 84.5315 205.433 84.2424 205.321 84.0497C205.225 83.8409 205.048 83.6803 204.936 83.6803C204.712 83.6803 204.183 83.1181 204.183 82.8772C204.183 82.7969 203.991 82.6363 203.75 82.5238C203.51 82.4114 203.206 82.1062 203.094 81.8653C202.981 81.6244 202.805 81.4317 202.709 81.4317C202.629 81.4317 202.116 80.9819 201.603 80.4359C201.074 79.8737 200.578 79.3597 200.482 79.2634C200.401 79.1831 199.889 78.6852 199.36 78.1712C198.847 77.6572 198.414 77.1593 198.414 77.0951C198.414 77.0148 198.222 76.8542 197.982 76.7417C197.741 76.6293 197.437 76.3241 197.325 76.0832C197.213 75.8423 197.052 75.6495 196.988 75.6495C196.796 75.6495 196.075 74.9589 195.883 74.6055C195.77 74.3646 195.77 74.204 195.931 73.9952C196.107 73.7382 196.844 73.7222 206.539 73.7222C215.608 73.7222 216.986 73.7543 217.163 73.9631C217.275 74.0916 217.531 74.204 217.74 74.204C217.996 74.204 218.188 74.3646 218.364 74.6859C218.509 74.9589 218.717 75.1677 218.845 75.1677C218.989 75.1677 219.294 75.4568 219.534 75.8102C219.775 76.1474 220.015 76.4366 220.079 76.4526C220.207 76.4526 221.81 78.0266 221.81 78.1551C221.81 78.2997 222.194 78.637 222.499 78.7494C222.643 78.7976 222.851 79.0224 222.947 79.2312C223.044 79.44 223.316 79.7292 223.556 79.8737C223.797 80.0183 224.085 80.3074 224.213 80.5322C224.325 80.7571 224.486 80.9498 224.55 80.9498C224.646 80.9498 226.056 82.315 226.633 82.9736C226.793 83.1502 227.082 83.4393 227.274 83.616C227.995 84.2585 228.331 84.7243 228.412 85.19C228.492 85.5755 228.428 85.6719 227.963 85.8646C227.674 85.9931 227.402 86.0734 227.386 86.0734C227.354 86.0574 227.226 86.0252 227.098 85.9931Z" fill="#9B2149"/>
<path d="M127.107 85.1419C127.107 85.0455 136.946 75.1035 138.18 73.9631C138.388 73.7543 139.959 73.7222 149.012 73.7222C158.466 73.7222 159.62 73.7543 159.7 73.9792C159.748 74.1076 159.86 74.188 159.941 74.1237C160.021 74.0755 160.149 74.1237 160.197 74.2201C160.261 74.3164 160.005 74.6859 159.62 75.0553L158.915 75.6977L158.867 75.1998L158.819 74.6859H148.676H138.532L136.385 76.8542C135.199 78.0427 134.142 79.0224 134.046 79.0224C133.934 79.0224 133.837 79.1028 133.837 79.2152C133.837 79.44 132.059 81.2711 131.834 81.2711C131.738 81.2711 131.594 81.4317 131.514 81.6405C131.418 81.8332 131.193 82.0581 131.001 82.1544C130.793 82.2347 130.633 82.3793 130.633 82.4757C130.633 82.556 130.024 83.2305 129.287 83.9694C128.293 84.9491 127.844 85.2864 127.524 85.2864C127.3 85.2864 127.107 85.2222 127.107 85.1419Z" fill="#9B2149"/>
<path d="M201.491 84.1621C201.267 83.9373 201.139 83.6321 201.139 83.2788V82.7327L201.651 83.2145C201.94 83.4715 202.34 83.857 202.549 84.0818L202.917 84.4834H202.372C202.052 84.4834 201.699 84.3549 201.491 84.1621Z" fill="#9B2149"/>
<path d="M198.735 81.2229C198.735 81.1265 198.527 80.9338 198.254 80.8214C197.854 80.6447 197.773 80.5162 197.773 80.0504C197.773 79.5686 197.806 79.5204 198.062 79.6489C198.206 79.7292 198.687 80.1789 199.12 80.6126L199.905 81.4317H199.328C198.959 81.4317 198.735 81.3514 198.735 81.2229Z" fill="#9B2149"/>
<path d="M195.722 78.3799C195.53 78.1872 195.37 77.8981 195.37 77.7375C195.37 77.5287 195.258 77.4162 195.081 77.4162C194.921 77.4162 194.569 77.2074 194.28 76.9344C193.832 76.5329 193.767 76.3883 193.88 75.9868L194.008 75.521L195.594 77.1111L197.197 78.7012H196.636C196.283 78.7012 195.931 78.5727 195.722 78.3799Z" fill="#9B2149"/>
<path d="M199.857 71.9553L193.191 71.875L192.646 71.345C190.274 69.0964 189.12 67.9239 189.12 67.8115C189.12 67.7311 188.944 67.5866 188.72 67.4902C188.512 67.3939 188.223 67.0887 188.079 66.8156C187.951 66.5587 187.726 66.3338 187.614 66.3338C187.502 66.3338 187.262 66.1411 187.101 65.9162C186.941 65.6753 186.701 65.4022 186.589 65.3059C186.22 65.0007 185.852 64.6313 185.579 64.3101C185.435 64.1494 185.163 63.8925 185.002 63.764C184.826 63.6355 184.602 63.3624 184.49 63.1697C184.393 62.9609 184.201 62.8003 184.073 62.8003C183.961 62.8003 183.704 62.5433 183.512 62.2381C183.32 61.933 183.095 61.676 183.015 61.676C182.791 61.676 182.23 61.146 182.23 60.9211C182.23 60.7926 182.054 60.6159 181.83 60.5196C180.756 60.0377 181.541 59.9895 192.598 59.9413C203.59 59.9092 203.654 59.9092 204.087 60.2465C204.311 60.4232 204.504 60.6641 204.504 60.7765C204.504 60.889 204.68 61.0817 204.904 61.1941C205.129 61.3226 205.465 61.6599 205.641 61.949C205.818 62.2381 206.074 62.4791 206.202 62.4791C206.33 62.4791 206.587 62.736 206.763 63.0412C206.955 63.3464 207.18 63.6034 207.276 63.6034C207.468 63.6034 209.311 65.5147 209.311 65.7235C209.311 65.7877 209.391 65.852 209.503 65.852C209.695 65.852 210.593 66.7996 210.593 67.0084C210.593 67.0726 210.657 67.1369 210.753 67.1369C210.945 67.1369 212.836 69.0482 212.836 69.257C212.836 69.3212 212.916 69.3855 213.012 69.3855C213.205 69.3855 215.08 71.2968 215.08 71.5056C215.08 71.5698 215.192 71.6341 215.32 71.6341C215.656 71.6341 215.624 71.9553 215.288 71.9714C214.374 72.0356 205.545 72.0196 199.857 71.9553Z" fill="#9B2149"/>
<path d="M140.503 71.6022C140.664 71.4094 143.356 68.695 146.448 65.5791C150.887 61.1301 152.185 59.9094 152.505 59.9094C152.794 59.9094 152.906 59.9897 152.906 60.2307C152.906 60.4073 152.81 60.5519 152.698 60.5519C152.586 60.5519 152.409 60.6964 152.297 60.8731C152.185 61.0498 151.993 61.1943 151.864 61.1943C151.736 61.1943 151.624 61.2907 151.624 61.4031C151.624 61.6601 150.791 62.4793 150.534 62.4793C150.422 62.4793 150.342 62.5596 150.342 62.6399C150.342 62.8969 149.365 63.9248 149.108 63.9248C148.996 63.9248 148.9 64.0212 148.9 64.1336C148.9 64.3584 147.233 66.0128 147.025 66.0128C146.945 66.0128 146.817 66.1734 146.737 66.3822C146.641 66.5749 146.416 66.7998 146.224 66.8962C146.016 66.9765 145.855 67.1371 145.855 67.2334C145.855 67.4583 145.006 68.2614 144.766 68.2614C144.654 68.2614 144.573 68.3256 144.573 68.422C144.573 68.6629 143.9 69.3857 143.66 69.3857C143.548 69.3857 143.452 69.466 143.452 69.5624C143.452 69.6587 142.971 70.2369 142.378 70.8473C141.449 71.7949 141.208 71.9555 140.744 71.9555H140.199L140.503 71.6022Z" fill="#9B2149"/>
<path d="M189.281 71.7306C189.281 71.6021 189.104 71.4576 188.88 71.4094C188.464 71.297 188.255 70.8151 188.351 70.2048C188.399 69.8996 188.544 69.996 189.441 70.9115L190.467 71.9555H189.874C189.473 71.9555 189.281 71.8752 189.281 71.7306Z" fill="#9B2149"/>
<path d="M184.121 66.7997C183.961 66.7194 183.833 66.4945 183.833 66.3339C183.833 66.1572 183.752 66.0127 183.656 66.0127C183.56 66.0127 183.384 65.9163 183.272 65.8199C183.143 65.7075 182.935 65.5148 182.791 65.4023C182.663 65.2899 182.551 64.9366 182.551 64.6153V64.0371L183.56 64.9847C184.105 65.4987 184.762 66.1733 185.002 66.4624L185.467 66.9764H184.922C184.634 66.9764 184.265 66.896 184.121 66.7997Z" fill="#9B2149"/>
<path d="M179.827 63.0092C179.827 62.3506 180.003 61.8367 180.211 61.8367C180.323 61.8367 180.644 62.0937 180.948 62.3988L181.493 62.961H181.06C180.788 62.961 180.628 63.0413 180.628 63.2019C180.628 63.3464 180.483 63.4428 180.227 63.4428C179.891 63.4428 179.827 63.3625 179.827 63.0092Z" fill="#9B2149"/>
<path d="M151.608 55.5889C151.384 55.364 151.143 55.0428 151.095 54.8821C151.031 54.7376 150.807 54.5288 150.599 54.4485C150.374 54.3682 150.086 54.0791 149.942 53.806C149.813 53.549 149.589 53.3242 149.445 53.3242C149.317 53.3242 149.06 53.0672 148.884 52.762C148.708 52.4569 148.419 52.1678 148.243 52.1196C148.083 52.0714 147.826 51.8305 147.682 51.5896C147.554 51.3486 147.217 51.0274 146.961 50.8828C146.705 50.7222 146.496 50.4974 146.496 50.3689C146.496 50.2243 146.288 50.0155 146.016 49.871C145.759 49.7425 145.423 49.4052 145.295 49.1482C145.15 48.8752 144.942 48.6664 144.798 48.6664C144.67 48.6664 144.413 48.4094 144.237 48.1042C144.061 47.799 143.772 47.5099 143.596 47.4618C143.436 47.3975 143.179 47.1566 143.067 46.9157C142.939 46.6747 142.651 46.4017 142.426 46.2893C142.186 46.1929 141.93 45.9199 141.817 45.695C141.721 45.4862 141.513 45.2613 141.353 45.2132C141.08 45.1168 140.407 44.3298 140.407 44.1049C140.407 44.0567 145.407 44.0085 151.512 44.0085H162.601L163.883 45.2935C164.588 46.0162 165.886 47.2851 166.751 48.1524C167.632 49.0037 168.417 49.8067 168.513 49.9352C168.61 50.0477 169.122 50.5616 169.635 51.0595C170.164 51.5574 170.661 52.0553 170.757 52.1678C171.157 52.6657 172.76 54.2879 172.84 54.2879C172.952 54.2879 174.282 55.7173 174.346 55.9101C174.378 55.9904 169.699 56.0546 163.21 56.0386L152.025 56.0225L151.608 55.5889Z" fill="#9B2149"/>
<path d="M202.901 55.7494C202.901 55.5727 202.981 55.38 203.077 55.3318C203.158 55.2676 203.302 55.0427 203.382 54.8339C203.478 54.6091 203.67 54.4484 203.847 54.4484C204.039 54.4484 204.247 54.2396 204.407 53.9023C204.584 53.5169 204.808 53.3241 205.129 53.2438C205.497 53.1635 205.625 53.019 205.705 52.6656C205.77 52.3604 205.962 52.1195 206.186 52.0392C206.394 51.9589 206.651 51.6859 206.779 51.4449C206.923 51.1558 207.132 50.9792 207.404 50.947C207.724 50.9149 207.869 50.7704 207.965 50.3849C208.077 50.0155 208.253 49.8388 208.622 49.7264C209.006 49.63 209.151 49.4854 209.183 49.1642C209.215 48.8751 209.343 48.7306 209.583 48.6984C209.792 48.6663 210.032 48.4254 210.176 48.1042C210.32 47.799 210.641 47.4617 210.865 47.3493C211.106 47.2368 211.394 46.9638 211.49 46.755C211.602 46.5462 211.843 46.3053 212.051 46.1929C212.259 46.0965 212.532 45.8074 212.644 45.5665C212.788 45.2773 212.98 45.1328 213.221 45.1328C213.493 45.1328 213.621 45.0043 213.734 44.6188C213.878 44.1209 213.942 44.0888 214.711 44.0406L215.544 43.9924L213.317 46.241C212.083 47.4938 211.009 48.5057 210.913 48.5057C210.833 48.5057 210.753 48.5699 210.753 48.6503C210.753 48.8591 204.856 54.7697 204.664 54.7697C204.568 54.7697 204.504 54.85 204.504 54.9624C204.504 55.0748 204.311 55.3639 204.071 55.6049C203.558 56.1349 202.901 56.2152 202.901 55.7494Z" fill="#9B2149"/>
<path d="M180.099 54.0469C179.827 53.8542 179.81 53.2278 179.827 43.4142C179.827 37.6963 179.859 32.8458 179.891 32.653C180.003 32.0748 180.451 31.3521 180.756 31.2557C180.916 31.2075 181.173 30.9345 181.333 30.6614C181.493 30.4044 181.797 30.0993 182.006 30.0029C182.214 29.9065 182.422 29.6977 182.487 29.5211C182.535 29.3604 182.775 29.1195 183.015 29.0071C183.256 28.8786 183.528 28.5895 183.64 28.3646C183.736 28.1237 184.009 27.8667 184.233 27.7543C184.457 27.6579 184.634 27.5134 184.634 27.4491C184.634 27.3688 185.355 26.6139 186.236 25.7466C187.101 24.8793 187.903 24.0923 188.015 23.9799C188.111 23.8835 188.816 23.1447 189.601 22.3576C191.172 20.7515 191.54 20.4785 191.813 20.7515C192.053 20.9924 192.085 41.8563 191.861 42.4345C191.684 42.8681 190.338 44.3297 190.098 44.3297C190.018 44.3297 189.81 44.5385 189.665 44.7955C189.505 45.0525 189.217 45.3416 189.008 45.438C188.816 45.5343 188.64 45.6789 188.64 45.7431C188.64 45.9519 187.887 46.7389 187.694 46.7389C187.598 46.7389 187.438 46.8996 187.342 47.0923C187.101 47.5581 186.877 47.7669 186.525 47.9114C186.364 47.9596 186.236 48.072 186.236 48.1523C186.236 48.3451 182.086 52.5211 181.894 52.5211C181.814 52.5211 181.669 52.6977 181.573 52.9065C181.477 53.1153 181.221 53.3884 180.996 53.5008C180.772 53.6293 180.548 53.8381 180.484 53.9987C180.403 54.2236 180.339 54.2236 180.099 54.0469Z" fill="#9B2149"/>
<path d="M137.763 41.6475C137.555 41.5351 137.331 41.2942 137.283 41.1175C137.218 40.9408 136.962 40.6838 136.706 40.5393C136.449 40.4108 136.145 40.1217 136.049 39.9129C135.953 39.688 135.808 39.5114 135.744 39.5114C135.552 39.5114 133.677 37.6482 133.677 37.4555C133.677 37.3591 133.469 37.1664 133.196 37.0218C132.94 36.8773 132.716 36.6685 132.716 36.5239C132.716 36.3954 132.459 36.1384 132.155 35.9618C131.85 35.7851 131.562 35.496 131.514 35.3193C131.45 35.1587 131.193 34.9017 130.937 34.7572C130.681 34.6287 130.392 34.3396 130.312 34.1147C130.232 33.9059 129.976 33.6489 129.751 33.5686C129.527 33.4883 129.287 33.2795 129.238 33.135C129.11 32.7816 128.934 32.6049 128.357 32.2355C128.101 32.0749 127.908 31.8661 127.908 31.7537C127.908 31.6412 127.764 31.4324 127.588 31.2718C127.155 30.9024 127.187 30.5491 127.684 30.0993L128.085 29.7139H138.212H148.355L150.919 32.2676C152.345 33.681 153.627 35.0141 153.771 35.239C153.916 35.4639 154.092 35.6566 154.172 35.6566C154.348 35.6566 159.22 40.5553 159.556 41.0533C159.684 41.2621 159.909 41.4387 160.053 41.4387C160.197 41.4387 160.277 41.5351 160.229 41.6475C160.133 41.9366 138.324 41.9366 137.763 41.6475Z" fill="#9B2149"/>
<path d="M217.964 40.8766C217.964 40.5714 218.028 40.3144 218.108 40.3144C218.188 40.3144 218.332 40.1056 218.429 39.8326C218.509 39.5595 218.701 39.3507 218.845 39.3507C219.182 39.3507 219.566 38.9653 219.566 38.644C219.566 38.5155 219.807 38.2907 220.111 38.1461C220.448 37.9855 220.688 37.7446 220.72 37.5358C220.752 37.3431 220.976 37.0861 221.217 36.9736C221.457 36.8451 221.73 36.5721 221.81 36.3633C221.938 36.0581 222.082 35.9778 222.531 35.9778C223.06 35.9778 223.092 35.9457 223.092 35.4157C223.092 34.9499 223.172 34.8375 223.636 34.6126C223.973 34.452 224.213 34.2111 224.245 34.0023C224.277 33.8095 224.438 33.6329 224.598 33.6007C224.998 33.5204 225.335 33.1831 225.335 32.8619C225.335 32.7334 225.575 32.5086 225.88 32.364C226.216 32.2034 226.505 31.9143 226.601 31.6252C226.681 31.3682 226.857 31.1594 226.985 31.1594C227.114 31.1594 227.306 31.047 227.418 30.9185C227.594 30.7097 226.553 30.6776 218.14 30.6776H208.67V30.2921C208.67 30.0351 208.782 29.8745 209.038 29.8102C209.679 29.6496 227.771 29.6978 227.658 29.8745C227.61 29.9708 227.674 30.0351 227.803 30.0351C228.043 30.0351 228.604 30.9827 228.46 31.1273C228.412 31.1755 228.38 31.1594 228.38 31.0791C228.38 30.9988 228.123 31.2879 227.803 31.6894C227.482 32.107 227.114 32.4443 227.001 32.4443C226.873 32.4443 226.777 32.5086 226.777 32.6049C226.777 32.7977 223.46 36.1384 223.268 36.1384C223.188 36.1384 223.092 36.283 223.044 36.4757C222.995 36.6524 222.803 36.8451 222.627 36.8933C222.435 36.9415 222.29 37.0379 222.29 37.1021C222.29 37.2467 218.188 41.4387 218.044 41.4387C217.996 41.4387 217.964 41.1817 217.964 40.8766Z" fill="#9B2149"/>
<path d="M193.848 40.1216C193.8 39.9128 193.784 34.8695 193.8 28.8946L193.848 18.0371L195.53 16.3988C196.46 15.5155 197.261 14.7284 197.325 14.6642C197.469 14.4875 199.312 12.6405 199.52 12.4477C199.616 12.3674 200.417 11.5483 201.299 10.6488C202.18 9.73333 202.965 8.9945 203.045 8.9945C203.126 8.9945 203.238 8.84995 203.302 8.67327C203.35 8.4966 203.606 8.23961 203.879 8.079C204.135 7.91839 204.391 7.67746 204.44 7.51685C204.568 7.09925 205.113 6.98682 205.481 7.32411C205.77 7.59716 205.786 7.93445 205.786 18.1335V28.6698L204.327 30.1635C203.542 30.9666 202.821 31.6412 202.741 31.6412C202.661 31.6412 202.517 31.7857 202.42 31.9624C202.324 32.1391 201.876 32.6209 201.427 33.0385C200.337 34.0504 200.145 34.2592 199.857 34.6607C199.728 34.8534 199.568 35.0141 199.488 35.0141C199.36 35.0141 197.774 36.5399 197.774 36.6684C197.774 36.7487 195.963 38.5797 194.665 39.8004C193.96 40.4589 193.928 40.4749 193.848 40.1216Z" fill="#9B2149"/>
<path d="M163.786 39.6398C163.738 37.7767 163.722 20.6231 163.77 20.5267C163.931 20.1734 165.293 21.394 170.036 26.1482C175.933 32.0588 176.269 32.4443 175.5 32.4443C175.035 32.4443 174.378 31.9785 174.378 31.6573C174.378 31.5127 174.154 31.3039 173.882 31.1754C173.609 31.063 173.353 30.8382 173.289 30.6936C173.193 30.4045 172.503 29.7139 172.311 29.7139C172.247 29.7139 172.103 29.5532 171.991 29.3444C171.879 29.1356 171.574 28.8465 171.318 28.6859C171.061 28.5414 170.853 28.3165 170.853 28.2041C170.853 28.0756 170.741 27.9471 170.613 27.8828C170.484 27.8347 170.372 27.6419 170.372 27.4653C170.372 27.2565 170.26 27.144 170.052 27.144C169.892 27.144 169.683 27.0477 169.619 26.9352C169.555 26.8067 169.299 26.5819 169.042 26.4213C168.802 26.2767 168.562 25.9876 168.513 25.7949C168.465 25.6021 168.225 25.3612 167.953 25.2648C167.696 25.1685 167.488 24.9918 167.488 24.8633C167.488 24.7509 167.328 24.526 167.135 24.3815C166.462 23.8675 165.084 22.5023 165.084 22.3256C165.084 22.2453 165.02 22.165 164.924 22.165C164.844 22.165 164.764 22.0525 164.764 21.9241C164.764 21.7956 164.7 21.6831 164.604 21.6831C164.491 21.6831 164.443 24.8954 164.443 30.9988C164.443 40.202 164.443 40.3144 164.123 40.3144C163.85 40.3144 163.802 40.202 163.786 39.6398Z" fill="#9B2149"/>
<path d="M161.239 18.4869C161.239 18.4066 161.094 18.2781 160.918 18.2299C160.742 18.1817 160.566 17.9729 160.501 17.7802C160.453 17.5874 160.181 17.3144 159.909 17.1698C159.572 17.0092 159.38 16.7843 159.348 16.5113C159.316 16.2061 159.187 16.0776 158.819 15.9973C158.547 15.9492 158.274 15.7564 158.178 15.5316C158.082 15.3228 157.793 15.0336 157.537 14.873C157.233 14.6964 157.072 14.4715 157.072 14.1985C157.072 13.9254 156.976 13.813 156.768 13.813C156.415 13.813 155.63 13.1223 155.63 12.8011C155.63 12.6726 155.454 12.512 155.23 12.4638C155.005 12.3996 154.829 12.2871 154.829 12.1908C154.829 11.982 154.573 11.7411 153.996 11.3556C153.739 11.195 153.547 11.0022 153.547 10.8898C153.547 10.7131 152.938 10.1188 152.746 10.1188C152.682 10.1188 152.554 9.95823 152.441 9.74943C152.329 9.54063 152.025 9.25153 151.768 9.09091C151.512 8.94636 151.304 8.70544 151.304 8.57695C151.304 8.44845 151.24 8.35208 151.143 8.35208C151.063 8.35208 150.983 8.0951 150.983 7.78993C150.983 7.48477 151.015 7.22778 151.063 7.22778C151.256 7.22778 162.04 18.1817 162.04 18.3905C162.04 18.535 161.88 18.6314 161.639 18.6314C161.415 18.6314 161.239 18.5672 161.239 18.4869Z" fill="#9B2149"/>
<path d="M204.824 108.656C204.824 108.527 204.744 108.415 204.648 108.415C204.568 108.415 204.536 108.511 204.6 108.624C204.664 108.72 204.664 108.768 204.584 108.704C204.52 108.64 204.375 108.415 204.279 108.222C204.167 108.013 203.991 107.853 203.863 107.853C203.734 107.853 203.622 107.74 203.622 107.612C203.622 107.274 201.139 104.865 200.914 104.994C200.818 105.042 200.786 105.042 200.85 104.978C200.898 104.913 200.834 104.705 200.69 104.528C200.193 103.934 197.261 101.026 197.133 101.026C197.084 101.026 196.924 100.85 196.812 100.625C196.7 100.416 196.476 100.191 196.347 100.143C196.203 100.095 195.947 99.8379 195.787 99.5649C195.61 99.2757 195.418 99.1151 195.274 99.1633C195.146 99.2115 195.049 99.1633 195.049 99.0509C195.049 98.9385 194.761 98.5209 194.408 98.1354L193.767 97.4287L193.784 86.8121C193.8 80.9817 193.864 76.0348 193.928 75.81C194.056 75.4245 194.104 75.4245 194.152 75.8581C194.168 75.9545 194.248 76.0348 194.328 76.0188C194.424 76.0188 194.585 76.0991 194.697 76.2276C194.809 76.356 194.857 76.4524 194.809 76.4524C194.745 76.4524 195.049 76.7415 195.45 77.0949C195.851 77.4482 196.139 77.7373 196.059 77.7373C195.995 77.7373 196.187 77.914 196.492 78.1228C197.133 78.5565 198.334 79.8414 198.286 80.0341C198.27 80.0984 198.318 80.1466 198.414 80.1466C198.495 80.1466 199.328 80.9014 200.273 81.833C201.203 82.7646 201.908 83.5195 201.844 83.5195C201.764 83.5195 201.892 83.6479 202.1 83.7925C202.805 84.2743 204.824 86.3142 204.824 86.539C204.824 86.6514 204.888 86.7157 204.968 86.6514C205.048 86.6033 205.273 86.7639 205.465 87.0048C205.77 87.3903 205.786 87.4545 205.561 87.5027C205.257 87.5669 205.225 87.9524 205.513 88.0648C205.673 88.1291 205.673 88.1612 205.513 88.1612C205.385 88.1773 205.305 88.4343 205.305 88.884C205.305 89.3016 205.385 89.6228 205.513 89.671C205.673 89.7352 205.673 89.7674 205.513 89.7674C205.241 89.7834 205.209 107.387 205.465 107.483C205.561 107.515 205.657 107.756 205.673 108.013C205.705 108.431 205.657 108.495 205.353 108.447C204.968 108.399 204.84 108.656 205.193 108.784C205.305 108.832 205.273 108.88 205.113 108.88C204.952 108.897 204.824 108.784 204.824 108.656Z" fill="#631032"/>
<path d="M190.979 94.7143C190.835 94.5055 190.547 94.2324 190.322 94.12C190.098 94.0076 189.89 93.7667 189.826 93.606C189.777 93.4294 189.633 93.333 189.505 93.3812C189.393 93.4294 189.297 93.4133 189.329 93.3491C189.393 93.1242 188.544 92.2408 187.871 91.8072C187.502 91.5823 187.198 91.2771 187.198 91.1486C187.198 91.0201 187.101 90.8595 186.989 90.7953C186.861 90.731 186.653 90.4741 186.509 90.2492C186.348 90.0243 186.06 89.7513 185.852 89.6389C185.643 89.5264 185.371 89.2534 185.259 89.0446C185.147 88.8197 184.954 88.6912 184.842 88.7234C184.73 88.7715 184.65 88.7555 184.682 88.6912C184.73 88.5306 184.49 88.2576 182.823 86.5551C182.038 85.768 181.333 85.1577 181.253 85.222C181.173 85.2701 181.108 85.222 181.108 85.1256C181.108 84.965 181.012 84.8204 180.467 84.178C179.81 83.407 179.827 83.5516 179.827 73.0795C179.827 66.4461 179.875 62.9608 179.987 62.9608C180.083 62.9608 180.147 62.752 180.147 62.5111C180.147 62.2541 180.195 61.9971 180.243 61.9489C180.387 61.8204 183.352 64.7597 183.256 64.9203C183.208 64.9845 183.24 65.0488 183.304 65.0488C183.544 65.0488 184.473 65.884 184.377 66.0285C184.345 66.0928 184.506 66.2694 184.746 66.3979C185.339 66.7031 189.153 70.59 189.008 70.7185C188.96 70.7827 188.992 70.8309 189.104 70.8309C189.393 70.8309 191.636 73.0474 191.829 73.5292C191.957 73.8344 191.989 77.0146 191.973 84.3065L191.925 94.65L191.572 94.8749C191.252 95.0837 191.204 95.0676 190.979 94.7143Z" fill="#631032"/>
<path d="M138.004 86.0893C132.411 86.0411 127.716 85.9448 127.556 85.8805C126.819 85.5111 127.043 85.222 131.129 81.1424C133.325 78.942 135.071 77.0949 134.991 77.0146C134.927 76.9343 134.959 76.9182 135.039 76.9825C135.135 77.0307 135.856 76.4203 136.642 75.6333L138.068 74.2039H148.836C158.21 74.2039 159.62 74.236 159.796 74.4448C159.941 74.6215 159.941 74.6857 159.812 74.6857C159.7 74.6857 159.668 74.766 159.732 74.8784C159.796 74.9909 159.78 75.0069 159.652 74.9427C159.556 74.8784 159.428 74.9427 159.364 75.1033C159.236 75.4567 149.124 85.6075 148.58 85.9287C148.227 86.1375 146.865 86.1536 138.004 86.0893Z" fill="#631032"/>
<path d="M140.92 71.361C141.24 71.0237 141.881 70.3812 142.314 69.9155C142.763 69.4497 143.131 69 143.131 68.9036C143.131 68.8233 143.179 68.759 143.26 68.7751C143.436 68.8393 145.375 66.928 145.375 66.7032C145.375 66.5907 145.487 66.4944 145.615 66.4944C145.743 66.4944 146.064 66.1892 146.336 65.8198C146.593 65.4664 146.817 65.2255 146.817 65.2898C146.817 65.354 147.794 64.4385 148.98 63.25C150.166 62.0454 151.143 61.0014 151.143 60.905C151.143 60.8247 151.288 60.7123 151.48 60.6641C151.656 60.6159 151.848 60.4231 151.897 60.2465C151.977 59.9252 152.025 59.9252 163.081 59.9092C169.603 59.9092 174.234 59.9734 174.282 60.0537C174.33 60.134 171.75 62.8484 168.53 66.0768L162.681 71.9553H151.512H140.343L140.92 71.361Z" fill="#631032"/>
<path d="M181.525 55.942C181.413 55.8295 181.557 55.6689 183.208 54.0467C183.736 53.5167 184.265 52.9867 184.361 52.8742C184.474 52.7618 184.73 52.5048 184.938 52.3121C185.147 52.1193 185.435 51.8142 185.579 51.6536C185.723 51.4929 185.98 51.236 186.14 51.0914C186.3 50.9468 186.557 50.7059 186.701 50.5293C187.358 49.7744 188.672 48.5055 188.8 48.5055C188.88 48.5055 189.072 48.2967 189.217 48.0397C189.377 47.7827 189.665 47.4776 189.874 47.3651C190.066 47.2527 190.274 47.06 190.322 46.9154C190.37 46.7709 190.563 46.546 190.755 46.4175C190.931 46.289 191.204 46.0481 191.348 45.8875C191.492 45.7269 191.941 45.229 192.357 44.7953L193.11 44.0083H204.103C213.91 44.0083 215.897 44.0725 214.791 44.3617C214.615 44.4098 214.326 44.7953 214.118 45.2129C213.878 45.6948 213.717 45.9036 213.637 45.7751C213.573 45.6626 213.429 45.6305 213.333 45.6787C213.237 45.7429 213.189 45.8714 213.253 45.9517C213.349 46.1284 212.708 46.7227 212.387 46.7387C212.275 46.7387 212.131 46.8672 212.083 47.0279C211.923 47.4776 211.49 47.9434 211.234 47.9434C211.122 47.9434 210.833 48.2806 210.609 48.6982C210.384 49.1319 210.16 49.3889 210.096 49.2765C209.952 49.0516 209.631 49.2604 209.631 49.5977C209.631 49.9029 209.183 50.3526 208.862 50.3526C208.766 50.3526 208.542 50.6096 208.381 50.9147C208.205 51.2681 207.997 51.4769 207.789 51.4769C207.596 51.4769 207.388 51.6536 207.26 51.9427C207.132 52.1996 206.891 52.4406 206.715 52.4887C206.555 52.5209 206.314 52.81 206.186 53.0991C206.042 53.4524 205.818 53.6773 205.545 53.7415C205.305 53.8058 205.048 53.9985 204.968 54.1913C204.664 54.8658 204.343 55.3316 204.343 55.1228C204.343 54.9943 204.247 54.9301 204.151 54.9783C204.039 55.0104 203.959 55.1389 203.991 55.2353C204.007 55.3477 203.863 55.5725 203.67 55.7332C203.318 56.0383 202.869 56.0383 192.47 56.0544C186.509 56.0544 181.589 56.0062 181.525 55.942Z" fill="#631032"/>
<path d="M175.244 53.9664C175.083 53.8058 173.737 52.4567 172.247 50.9951C170.773 49.5174 169.491 48.1843 169.411 48.0076C169.315 47.847 169.17 47.7025 169.09 47.7025C168.962 47.7025 165.934 44.7311 164.732 43.4301C164.572 43.2535 164.299 42.9804 164.107 42.8037C163.786 42.4986 163.77 42.3701 163.85 40.6676C163.899 39.5914 163.883 38.9008 163.786 38.965C163.706 39.0132 163.642 38.9329 163.642 38.8044C163.642 38.6599 163.722 38.5475 163.802 38.5475C163.915 38.5475 163.963 35.4637 163.963 29.6333C163.963 20.7835 163.963 20.7192 164.283 20.7192C164.459 20.7192 164.652 20.8317 164.7 20.9602C164.764 21.0887 164.86 21.169 164.924 21.1208C165.004 21.0726 165.1 21.185 165.164 21.3617C165.213 21.5384 165.341 21.6829 165.421 21.6829C165.501 21.6829 165.565 21.7954 165.565 21.9238C165.565 22.1969 166.11 22.5181 166.286 22.3575C166.366 22.2933 166.366 22.3254 166.318 22.4218C166.19 22.6466 166.735 23.1766 166.927 23.016C166.991 22.9357 167.007 23.016 166.943 23.1927C166.863 23.4176 166.911 23.4657 167.087 23.3854C167.232 23.3373 167.312 23.3533 167.264 23.4176C167.167 23.5782 167.728 24.0921 167.985 24.0921C168.081 24.0921 168.129 24.2046 168.065 24.3331C168.017 24.4776 168.113 24.6382 168.337 24.7507C168.786 24.9916 169.251 25.4734 169.154 25.5859C169.106 25.634 169.203 25.7465 169.379 25.8428C169.555 25.9392 169.827 26.148 169.988 26.2926C170.148 26.4532 170.34 26.5817 170.436 26.5817C170.533 26.5817 170.693 26.7583 170.789 26.9671C170.901 27.1759 171.109 27.4169 171.238 27.4972C171.382 27.5775 171.462 27.706 171.414 27.7863C171.334 27.9148 171.847 28.3002 171.991 28.2199C172.023 28.2039 172.039 28.2199 172.023 28.2521C171.991 28.2842 172.151 28.4769 172.375 28.6697C172.584 28.8785 172.712 29.0873 172.648 29.1676C172.584 29.2318 172.68 29.2318 172.856 29.1676C173.032 29.1033 173.128 29.1033 173.064 29.1515C172.936 29.28 173.513 29.8743 173.737 29.8743C173.834 29.8743 173.898 30.0028 173.866 30.1634C173.834 30.34 173.914 30.4364 174.09 30.4204C174.25 30.4043 174.346 30.4525 174.298 30.5167C174.25 30.581 174.41 30.7576 174.619 30.9022C174.843 31.0468 174.987 31.2234 174.955 31.3037C174.907 31.368 175.083 31.5928 175.356 31.7856L175.837 32.1389L175.804 43.141C175.788 49.1801 175.724 54.1592 175.66 54.2074C175.596 54.2395 175.404 54.1431 175.244 53.9664Z" fill="#631032"/>
<path d="M195.722 41.8882C195.514 41.6794 195.37 41.8401 198.863 38.3065C200.305 36.8449 201.539 35.6564 201.619 35.6564C201.699 35.6564 201.86 35.4958 201.956 35.303C202.196 34.8373 202.677 34.3554 202.789 34.4678C202.837 34.516 202.949 34.4036 203.061 34.2269C203.222 33.9218 204.263 32.8296 205.08 32.1068C205.257 31.9623 205.497 31.7053 205.625 31.5286C205.753 31.368 206.218 30.9183 206.651 30.5488C207.356 29.9385 207.516 29.8743 208.285 29.8743C208.766 29.8743 209.151 29.9546 209.151 30.0349C209.151 30.1473 212.275 30.1955 218.637 30.1955C223.845 30.1794 228.155 30.2437 228.219 30.3079C228.428 30.5328 228.588 31.2074 228.412 31.0949C228.315 31.0468 228.107 31.1592 227.947 31.368C227.787 31.5768 227.562 31.7213 227.45 31.6732C227.354 31.641 227.21 31.7535 227.146 31.9141C227.001 32.3477 226.585 32.7814 226.184 32.942C225.96 33.0223 225.816 33.215 225.816 33.4078C225.816 33.5845 225.752 33.729 225.671 33.729C225.591 33.729 225.463 33.8896 225.415 34.0663C225.335 34.3233 225.271 34.3554 225.175 34.2109C225.03 33.9699 224.694 34.1306 224.694 34.4678C224.694 34.7569 224.197 35.2549 223.893 35.2549C223.765 35.2549 223.636 35.3994 223.604 35.5761C223.524 35.9776 223.027 36.4595 222.691 36.4595C222.563 36.4595 222.37 36.6361 222.29 36.8449C222.21 37.0537 221.954 37.3268 221.697 37.4553C221.457 37.5677 221.233 37.8086 221.201 37.9853C221.153 38.162 221.04 38.3708 220.912 38.435C220.784 38.4993 220.688 38.692 220.688 38.8366C220.688 39.0614 220.656 39.0614 220.544 38.8847C220.367 38.5956 220.047 38.8044 220.047 39.206C220.047 39.3666 219.983 39.5111 219.919 39.5111C219.839 39.5111 219.694 39.6718 219.598 39.8806C219.502 40.0733 219.422 40.1375 219.422 40.0412C219.39 39.6557 219.07 39.8324 218.909 40.3142C218.813 40.5873 218.669 40.7961 218.589 40.7961C218.509 40.7961 218.445 40.9085 218.445 41.037C218.445 41.1655 218.124 41.4546 217.756 41.6794L217.05 42.081H206.491C198.703 42.081 195.867 42.0328 195.722 41.8882Z" fill="#631032"/>
<path d="M161.367 40.025C161.126 39.7841 160.774 39.4308 160.566 39.238C159.989 38.6759 159.844 38.5313 158.835 37.5034C158.322 36.9734 157.777 36.4273 157.649 36.2988C157.505 36.1703 157.024 35.6724 156.56 35.2066C156.095 34.7248 155.582 34.2269 155.438 34.0823C155.085 33.745 154.508 33.1668 154.156 32.7974C154.012 32.6528 153.803 32.4601 153.707 32.3637C153.611 32.2834 153.371 32.0264 153.162 31.8016C152.954 31.5767 152.169 30.8058 151.4 30.0669L150.022 28.7178V17.9887C150.022 7.38817 150.022 7.24361 150.342 7.14724C150.791 7.00269 151.272 7.19543 151.384 7.54878C151.432 7.7094 151.592 7.88607 151.72 7.93426C151.848 7.98244 151.929 8.09487 151.864 8.17518C151.768 8.35185 152.313 8.70521 152.489 8.59277C152.537 8.54459 152.554 8.56065 152.505 8.6249C152.473 8.67308 152.602 8.88188 152.826 9.07462C153.034 9.28342 153.162 9.49222 153.114 9.5404C153.05 9.58859 153.082 9.63677 153.178 9.63677C153.387 9.63677 153.9 10.1186 154.124 10.5201C154.236 10.6968 154.428 10.8253 154.573 10.8253C154.717 10.8093 154.797 10.8414 154.749 10.9056C154.717 10.9699 154.861 11.1465 155.069 11.3072C155.294 11.4678 155.422 11.6605 155.39 11.7408C155.342 11.8051 155.454 11.9014 155.63 11.9657C155.806 12.0299 156.063 12.2548 156.175 12.4957C156.303 12.7366 156.704 13.106 157.056 13.3309C157.425 13.5558 157.681 13.8127 157.649 13.9252C157.601 14.0215 157.761 14.2303 158.002 14.391C158.498 14.7122 158.835 15.0334 158.883 15.2101C158.899 15.2743 159.011 15.3225 159.123 15.3225C159.236 15.3065 159.3 15.3225 159.252 15.3707C159.204 15.4189 159.348 15.5956 159.556 15.7722C159.78 15.9489 159.925 16.1417 159.877 16.222C159.828 16.2862 160.005 16.4789 160.245 16.6235C160.79 16.9769 161.239 17.4426 161.142 17.5551C161.094 17.5872 161.287 17.6996 161.543 17.796L162.04 17.9727V29.1354C162.04 35.2708 161.976 40.3302 161.912 40.3784C161.831 40.4266 161.591 40.266 161.367 40.025Z" fill="#631032"/>
<path d="M70.166 141.15C70.166 133.098 74.94 125.332 84.554 125.332C87.942 125.332 89.526 126.388 90.912 126.388C91.902 126.388 92.54 125.926 93.42 125.926C95.114 125.926 95.158 127.62 95.686 130.238C96.258 133.208 96.566 133.934 96.566 134.55C96.566 135.496 96.016 135.936 95.378 135.936C94.212 135.936 93.618 134.594 92.65 133.208C90.626 130.37 87.964 128.742 85.324 128.742C80.462 128.742 77.954 133.296 77.954 138.532C77.954 145.308 81.628 150.786 87.612 150.786C91.748 150.786 94.124 148.146 95.268 145.99C95.664 145.352 95.994 144.824 96.456 144.824C97.094 144.824 97.336 145.704 97.336 146.43C97.336 147.86 96.896 149.488 95.972 150.984C94.08 154.042 90.164 156.748 84.598 156.748C75.314 156.748 70.166 149.4 70.166 141.15ZM113.437 129.226C110.709 129.226 107.893 131.91 107.893 138.488C107.893 141.48 108.399 144.956 109.719 147.882C111.237 151.028 113.657 152.414 115.835 152.414C118.981 152.414 121.753 150.082 121.753 144.318C121.753 141.062 120.939 137.146 119.597 134.352C118.145 131.162 115.791 129.226 113.437 129.226ZM99.6646 141.282C99.6646 131.866 105.649 125.354 114.405 125.354C122.501 125.354 129.431 131.228 129.431 141.766C129.431 151.732 122.897 156.748 114.713 156.748C105.297 156.748 99.6646 150.28 99.6646 141.282ZM149.955 137.564V143.922C149.955 145.088 149.713 145.726 148.899 145.726C148.019 145.726 147.667 144.956 147.381 144.318C146.633 142.734 146.237 141.964 143.201 141.964C142.255 141.964 141.925 142.492 141.925 144.098V148.762C141.925 151.82 142.893 152.15 145.929 152.15C150.769 152.15 152.199 150.808 153.805 147.332C154.223 146.452 154.729 145.792 155.367 145.792C156.027 145.792 156.445 146.298 156.445 147.64C156.445 148.718 155.829 152.194 155.631 154.46C155.543 155.802 155.059 156.11 153.519 156.11C151.957 156.11 148.459 156 144.873 156C140.891 156 137.107 156.11 134.093 156.11C132.883 156.11 132.355 155.626 132.355 154.9C132.355 153.426 134.445 153.492 134.797 151.006C134.995 149.752 135.061 144.626 135.061 140.358C135.061 137.366 135.039 133.186 134.973 132.24C134.687 128.764 132.531 128.962 132.531 127.268C132.531 126.542 132.883 125.97 134.115 125.97C136.337 125.97 138.911 126.08 143.971 126.08C148.349 126.08 150.725 125.97 152.309 125.97C153.871 125.97 154.399 126.256 154.707 128.258C154.883 129.204 155.147 130.942 155.477 132.636C155.631 133.384 155.741 134.242 155.741 134.528C155.741 135.452 155.169 135.826 154.553 135.826C153.651 135.826 153.211 134.858 152.727 133.956C151.033 130.546 150.219 129.71 145.489 129.71C142.475 129.71 141.925 130.128 141.925 132.548V135.958C141.925 137.784 142.233 138.114 143.069 138.114C146.655 138.114 146.963 136.86 147.777 135.518C148.041 135.144 148.371 134.88 148.767 134.88C149.603 134.88 149.955 135.584 149.955 137.564ZM184.993 137.696C184.597 137.696 183.585 140.072 181.319 146.122C179.933 149.796 178.701 153.184 178.063 154.504C177.535 155.472 176.699 156.22 175.555 156.22C174.983 156.22 174.477 155.692 174.191 155.076C173.597 153.8 169.131 142.602 167.371 138.466C167.085 137.806 166.909 137.476 166.733 137.476C166.557 137.476 166.469 137.762 166.425 138.224C166.337 139.016 166.139 145.572 166.139 146.848C166.139 149.136 166.381 151.138 166.733 151.908C167.547 153.492 168.757 153.514 168.757 154.812C168.757 155.582 168.339 156.11 167.173 156.11C165.743 156.11 164.885 156 164.093 156C163.103 156 161.937 156.11 160.485 156.11C159.451 156.11 158.967 155.604 158.967 154.834C158.967 153.184 161.123 153.558 161.563 150.214C162.025 146.518 162.399 138.906 162.399 135.496C162.399 134.154 162.355 133.054 162.289 132.24C161.981 128.764 159.847 128.962 159.847 127.268C159.847 126.52 160.221 125.97 161.387 125.97C162.179 125.97 163.983 126.08 165.061 126.08C167.613 126.08 168.339 126.212 169.109 126.696C169.923 127.202 170.671 128.39 171.089 129.16C171.771 130.414 176.039 140.6 177.337 143.636C177.425 143.878 177.535 144.032 177.711 144.032C177.821 144.032 177.953 143.966 178.107 143.658C178.481 142.69 182.331 132.812 184.025 129.072C184.597 127.862 185.169 127.114 185.829 126.674C186.555 126.234 187.721 126.08 189.987 126.08C190.669 126.08 192.165 125.97 192.957 125.97C194.035 125.97 194.431 126.542 194.431 127.29C194.431 128.918 192.429 128.83 192.011 132.174C191.901 133.076 191.879 134.44 191.879 135.298C191.879 139.962 192.385 147.376 192.781 150.126C193.243 153.602 195.399 153.184 195.399 154.834C195.399 155.604 194.915 156.11 193.815 156.11C192.407 156.11 190.295 156 189.327 156C187.831 156 186.357 156.11 184.927 156.11C183.805 156.11 183.189 155.648 183.189 154.9C183.189 153.426 185.213 153.492 185.675 150.918C185.741 150.544 185.763 149.928 185.763 149.158C185.763 147.178 185.587 142.338 185.279 138.444C185.213 137.894 185.059 137.696 184.993 137.696ZM215.697 137.564V143.922C215.697 145.088 215.455 145.726 214.641 145.726C213.761 145.726 213.409 144.956 213.123 144.318C212.375 142.734 211.979 141.964 208.943 141.964C207.997 141.964 207.667 142.492 207.667 144.098V148.762C207.667 151.82 208.635 152.15 211.671 152.15C216.511 152.15 217.941 150.808 219.547 147.332C219.965 146.452 220.471 145.792 221.109 145.792C221.769 145.792 222.187 146.298 222.187 147.64C222.187 148.718 221.571 152.194 221.373 154.46C221.285 155.802 220.801 156.11 219.261 156.11C217.699 156.11 214.201 156 210.615 156C206.633 156 202.849 156.11 199.835 156.11C198.625 156.11 198.097 155.626 198.097 154.9C198.097 153.426 200.187 153.492 200.539 151.006C200.737 149.752 200.803 144.626 200.803 140.358C200.803 137.366 200.781 133.186 200.715 132.24C200.429 128.764 198.273 128.962 198.273 127.268C198.273 126.542 198.625 125.97 199.857 125.97C202.079 125.97 204.653 126.08 209.713 126.08C214.091 126.08 216.467 125.97 218.051 125.97C219.613 125.97 220.141 126.256 220.449 128.258C220.625 129.204 220.889 130.942 221.219 132.636C221.373 133.384 221.483 134.242 221.483 134.528C221.483 135.452 220.911 135.826 220.295 135.826C219.393 135.826 218.953 134.858 218.469 133.956C216.775 130.546 215.961 129.71 211.231 129.71C208.217 129.71 207.667 130.128 207.667 132.548V135.958C207.667 137.784 207.975 138.114 208.811 138.114C212.397 138.114 212.705 136.86 213.519 135.518C213.783 135.144 214.113 134.88 214.509 134.88C215.345 134.88 215.697 135.584 215.697 137.564ZM242.744 134.858C242.744 131.756 240.522 129.842 237.442 129.842C235.11 129.842 234.868 130.128 234.868 132.812V137.124C234.868 138.796 235.242 139.698 237.706 139.698C240.786 139.698 242.744 137.938 242.744 134.858ZM234.846 145.858V149.29C234.846 151.094 235.44 152.018 236.188 152.81C236.87 153.58 237.794 154.02 237.794 154.9C237.794 155.692 237.112 156.11 236.078 156.11C234.78 156.11 232.888 156 231.458 156C229.94 156 228.048 156.11 226.992 156.11C225.782 156.11 225.254 155.626 225.254 154.9C225.254 153.426 227.344 153.492 227.696 151.006C227.894 149.752 227.96 144.626 227.96 140.358C227.96 137.366 227.938 133.186 227.872 132.24C227.586 128.764 225.43 128.962 225.43 127.268C225.43 126.542 225.782 125.97 227.014 125.97C229.236 125.97 229.984 126.08 232.558 126.08C234.978 126.08 237.376 125.926 240.148 125.926C246.484 125.926 250.466 128.478 250.466 133.956C250.466 136.662 249.102 139.654 244.042 141.414C243.91 141.48 243.756 141.568 243.756 141.722C243.756 141.832 243.844 141.986 244.064 142.096C247.1 143.724 248.948 146.364 250.774 149.664C251.654 151.292 252.358 152.436 253.282 153.162C254.14 153.91 254.624 154.02 254.624 154.878C254.624 155.846 253.964 156.11 253.26 156.11C252.336 156.11 250.092 156 249.036 156C247.188 156 245.494 156.11 244.834 156.11C243.756 156.11 243.052 155.538 243.052 154.812C243.052 154.042 243.58 153.756 243.58 152.7C243.58 150.214 241.028 145.88 239.026 144.45C238.146 143.9 236.738 143.768 236.408 143.768C235.286 143.768 234.846 144.56 234.846 145.858ZM273.662 137.564V143.922C273.662 145.088 273.42 145.726 272.606 145.726C271.726 145.726 271.374 144.956 271.088 144.318C270.34 142.734 269.944 141.964 266.908 141.964C265.962 141.964 265.632 142.492 265.632 144.098V148.762C265.632 151.82 266.6 152.15 269.636 152.15C274.476 152.15 275.906 150.808 277.512 147.332C277.93 146.452 278.436 145.792 279.074 145.792C279.734 145.792 280.152 146.298 280.152 147.64C280.152 148.718 279.536 152.194 279.338 154.46C279.25 155.802 278.766 156.11 277.226 156.11C275.664 156.11 272.166 156 268.58 156C264.598 156 260.814 156.11 257.8 156.11C256.59 156.11 256.062 155.626 256.062 154.9C256.062 153.426 258.152 153.492 258.504 151.006C258.702 149.752 258.768 144.626 258.768 140.358C258.768 137.366 258.746 133.186 258.68 132.24C258.394 128.764 256.238 128.962 256.238 127.268C256.238 126.542 256.59 125.97 257.822 125.97C260.044 125.97 262.618 126.08 267.678 126.08C272.056 126.08 274.432 125.97 276.016 125.97C277.578 125.97 278.106 126.256 278.414 128.258C278.59 129.204 278.854 130.942 279.184 132.636C279.338 133.384 279.448 134.242 279.448 134.528C279.448 135.452 278.876 135.826 278.26 135.826C277.358 135.826 276.918 134.858 276.434 133.956C274.74 130.546 273.926 129.71 269.196 129.71C266.182 129.71 265.632 130.128 265.632 132.548V135.958C265.632 137.784 265.94 138.114 266.776 138.114C270.362 138.114 270.67 136.86 271.484 135.518C271.748 135.144 272.078 134.88 272.474 134.88C273.31 134.88 273.662 135.584 273.662 137.564Z" fill="#620E31"/>
<path d="M48.5005 183.16C47.6472 183.16 46.8525 183.021 46.1165 182.744C45.3912 182.456 44.7565 182.056 44.2125 181.544C43.6792 181.021 43.2632 180.408 42.9645 179.704C42.6658 179 42.5165 178.232 42.5165 177.4C42.5165 176.568 42.6658 175.8 42.9645 175.096C43.2632 174.392 43.6845 173.784 44.2285 173.272C44.7725 172.749 45.4072 172.349 46.1325 172.072C46.8578 171.784 47.6525 171.64 48.5165 171.64C49.4338 171.64 50.2712 171.8 51.0285 172.12C51.7858 172.429 52.4258 172.893 52.9485 173.512L51.6045 174.776C51.1992 174.339 50.7458 174.013 50.2445 173.8C49.7432 173.576 49.1992 173.464 48.6125 173.464C48.0258 173.464 47.4872 173.56 46.9965 173.752C46.5165 173.944 46.0952 174.216 45.7325 174.568C45.3805 174.92 45.1032 175.336 44.9005 175.816C44.7085 176.296 44.6125 176.824 44.6125 177.4C44.6125 177.976 44.7085 178.504 44.9005 178.984C45.1032 179.464 45.3805 179.88 45.7325 180.232C46.0952 180.584 46.5165 180.856 46.9965 181.048C47.4872 181.24 48.0258 181.336 48.6125 181.336C49.1992 181.336 49.7432 181.229 50.2445 181.016C50.7458 180.792 51.1992 180.456 51.6045 180.008L52.9485 181.288C52.4258 181.896 51.7858 182.36 51.0285 182.68C50.2712 183 49.4285 183.16 48.5005 183.16ZM59.9551 183.16C59.0805 183.16 58.2751 183.016 57.5391 182.728C56.8031 182.44 56.1631 182.04 55.6191 181.528C55.0751 181.005 54.6538 180.397 54.3551 179.704C54.0565 179 53.9071 178.232 53.9071 177.4C53.9071 176.568 54.0565 175.805 54.3551 175.112C54.6538 174.408 55.0751 173.8 55.6191 173.288C56.1631 172.765 56.8031 172.36 57.5391 172.072C58.2751 171.784 59.0751 171.64 59.9391 171.64C60.8138 171.64 61.6138 171.784 62.3391 172.072C63.0751 172.36 63.7151 172.765 64.2591 173.288C64.8031 173.8 65.2245 174.408 65.5231 175.112C65.8218 175.805 65.9711 176.568 65.9711 177.4C65.9711 178.232 65.8218 179 65.5231 179.704C65.2245 180.408 64.8031 181.016 64.2591 181.528C63.7151 182.04 63.0751 182.44 62.3391 182.728C61.6138 183.016 60.8191 183.16 59.9551 183.16ZM59.9391 181.336C60.5045 181.336 61.0271 181.24 61.5071 181.048C61.9871 180.856 62.4031 180.584 62.7551 180.232C63.1071 179.869 63.3791 179.453 63.5711 178.984C63.7738 178.504 63.8751 177.976 63.8751 177.4C63.8751 176.824 63.7738 176.301 63.5711 175.832C63.3791 175.352 63.1071 174.936 62.7551 174.584C62.4031 174.221 61.9871 173.944 61.5071 173.752C61.0271 173.56 60.5045 173.464 59.9391 173.464C59.3738 173.464 58.8511 173.56 58.3711 173.752C57.9018 173.944 57.4858 174.221 57.1231 174.584C56.7711 174.936 56.4938 175.352 56.2911 175.832C56.0991 176.301 56.0031 176.824 56.0031 177.4C56.0031 177.965 56.0991 178.488 56.2911 178.968C56.4938 179.448 56.7711 179.869 57.1231 180.232C57.4751 180.584 57.8911 180.856 58.3711 181.048C58.8511 181.24 59.3738 181.336 59.9391 181.336ZM68.1759 183V171.8H69.8879L74.7839 179.976H73.8879L78.7039 171.8H80.4159L80.4319 183H78.4639L78.4479 174.888H78.8639L74.7679 181.72H73.8399L69.6799 174.888H70.1599V183H68.1759ZM83.4571 183V171.8H85.5371V183H83.4571ZM92.0385 183.16C91.1638 183.16 90.3265 183.037 89.5265 182.792C88.7265 182.536 88.0918 182.211 87.6225 181.816L88.3425 180.2C88.7905 180.552 89.3452 180.845 90.0065 181.08C90.6678 181.315 91.3452 181.432 92.0385 181.432C92.6252 181.432 93.0998 181.368 93.4625 181.24C93.8252 181.112 94.0918 180.941 94.2625 180.728C94.4332 180.504 94.5185 180.253 94.5185 179.976C94.5185 179.635 94.3958 179.363 94.1505 179.16C93.9052 178.947 93.5852 178.781 93.1905 178.664C92.8065 178.536 92.3745 178.419 91.8945 178.312C91.4252 178.205 90.9505 178.083 90.4705 177.944C90.0012 177.795 89.5692 177.608 89.1745 177.384C88.7905 177.149 88.4758 176.84 88.2305 176.456C87.9852 176.072 87.8625 175.581 87.8625 174.984C87.8625 174.376 88.0225 173.821 88.3425 173.32C88.6732 172.808 89.1692 172.403 89.8305 172.104C90.5025 171.795 91.3505 171.64 92.3745 171.64C93.0465 171.64 93.7132 171.725 94.3745 171.896C95.0358 172.067 95.6118 172.312 96.1025 172.632L95.4465 174.248C94.9452 173.949 94.4278 173.731 93.8945 173.592C93.3612 173.443 92.8492 173.368 92.3585 173.368C91.7825 173.368 91.3132 173.437 90.9505 173.576C90.5985 173.715 90.3372 173.896 90.1665 174.12C90.0065 174.344 89.9265 174.6 89.9265 174.888C89.9265 175.229 90.0438 175.507 90.2785 175.72C90.5238 175.923 90.8385 176.083 91.2225 176.2C91.6172 176.317 92.0545 176.435 92.5345 176.552C93.0145 176.659 93.4892 176.781 93.9585 176.92C94.4385 177.059 94.8705 177.24 95.2545 177.464C95.6492 177.688 95.9638 177.992 96.1985 178.376C96.4438 178.76 96.5665 179.245 96.5665 179.832C96.5665 180.429 96.4012 180.984 96.0705 181.496C95.7505 181.997 95.2545 182.403 94.5825 182.712C93.9105 183.011 93.0625 183.16 92.0385 183.16ZM98.629 183V171.8H100.709V183H98.629ZM108.986 183.16C108.112 183.16 107.306 183.016 106.57 182.728C105.834 182.44 105.194 182.04 104.65 181.528C104.106 181.005 103.685 180.397 103.386 179.704C103.088 179 102.938 178.232 102.938 177.4C102.938 176.568 103.088 175.805 103.386 175.112C103.685 174.408 104.106 173.8 104.65 173.288C105.194 172.765 105.834 172.36 106.57 172.072C107.306 171.784 108.106 171.64 108.97 171.64C109.845 171.64 110.645 171.784 111.37 172.072C112.106 172.36 112.746 172.765 113.29 173.288C113.834 173.8 114.256 174.408 114.554 175.112C114.853 175.805 115.002 176.568 115.002 177.4C115.002 178.232 114.853 179 114.554 179.704C114.256 180.408 113.834 181.016 113.29 181.528C112.746 182.04 112.106 182.44 111.37 182.728C110.645 183.016 109.85 183.16 108.986 183.16ZM108.97 181.336C109.536 181.336 110.058 181.24 110.538 181.048C111.018 180.856 111.434 180.584 111.786 180.232C112.138 179.869 112.41 179.453 112.602 178.984C112.805 178.504 112.906 177.976 112.906 177.4C112.906 176.824 112.805 176.301 112.602 175.832C112.41 175.352 112.138 174.936 111.786 174.584C111.434 174.221 111.018 173.944 110.538 173.752C110.058 173.56 109.536 173.464 108.97 173.464C108.405 173.464 107.882 173.56 107.402 173.752C106.933 173.944 106.517 174.221 106.154 174.584C105.802 174.936 105.525 175.352 105.322 175.832C105.13 176.301 105.034 176.824 105.034 177.4C105.034 177.965 105.13 178.488 105.322 178.968C105.525 179.448 105.802 179.869 106.154 180.232C106.506 180.584 106.922 180.856 107.402 181.048C107.882 181.24 108.405 181.336 108.97 181.336ZM107.626 170.888L109.786 168.696H112.138L109.354 170.888H107.626ZM117.207 183V171.8H118.919L125.943 180.424H125.095V171.8H127.159V183H125.447L118.423 174.376H119.271V183H117.207ZM136.502 176.456H142.07V178.168H136.502V176.456ZM136.662 181.256H142.982V183H134.582V171.8H142.758V173.544H136.662V181.256ZM148.773 183.16C147.898 183.16 147.061 183.037 146.261 182.792C145.461 182.536 144.826 182.211 144.357 181.816L145.077 180.2C145.525 180.552 146.08 180.845 146.741 181.08C147.402 181.315 148.08 181.432 148.773 181.432C149.36 181.432 149.834 181.368 150.197 181.24C150.56 181.112 150.826 180.941 150.997 180.728C151.168 180.504 151.253 180.253 151.253 179.976C151.253 179.635 151.13 179.363 150.885 179.16C150.64 178.947 150.32 178.781 149.925 178.664C149.541 178.536 149.109 178.419 148.629 178.312C148.16 178.205 147.685 178.083 147.205 177.944C146.736 177.795 146.304 177.608 145.909 177.384C145.525 177.149 145.21 176.84 144.965 176.456C144.72 176.072 144.597 175.581 144.597 174.984C144.597 174.376 144.757 173.821 145.077 173.32C145.408 172.808 145.904 172.403 146.565 172.104C147.237 171.795 148.085 171.64 149.109 171.64C149.781 171.64 150.448 171.725 151.109 171.896C151.77 172.067 152.346 172.312 152.837 172.632L152.181 174.248C151.68 173.949 151.162 173.731 150.629 173.592C150.096 173.443 149.584 173.368 149.093 173.368C148.517 173.368 148.048 173.437 147.685 173.576C147.333 173.715 147.072 173.896 146.901 174.12C146.741 174.344 146.661 174.6 146.661 174.888C146.661 175.229 146.778 175.507 147.013 175.72C147.258 175.923 147.573 176.083 147.957 176.2C148.352 176.317 148.789 176.435 149.269 176.552C149.749 176.659 150.224 176.781 150.693 176.92C151.173 177.059 151.605 177.24 151.989 177.464C152.384 177.688 152.698 177.992 152.933 178.376C153.178 178.76 153.301 179.245 153.301 179.832C153.301 180.429 153.136 180.984 152.805 181.496C152.485 181.997 151.989 182.403 151.317 182.712C150.645 183.011 149.797 183.16 148.773 183.16ZM157.479 183V173.56H153.767V171.8H163.271V173.56H159.559V183H157.479ZM162.686 183L167.726 171.8H169.774L174.83 183H172.654L168.318 172.904H169.15L164.83 183H162.686ZM165.006 180.408L165.566 178.776H171.614L172.174 180.408H165.006ZM177.964 183V173.56H174.252V171.8H183.756V173.56H180.044V183H177.964ZM183.17 183L188.21 171.8H190.258L195.314 183H193.138L188.802 172.904H189.634L185.314 183H183.17ZM185.49 180.408L186.05 178.776H192.098L192.658 180.408H185.49ZM196.738 183V171.8H198.818V181.24H204.674V183H196.738ZM210.738 183V171.8H215.634C216.85 171.8 217.917 172.035 218.834 172.504C219.752 172.973 220.466 173.624 220.978 174.456C221.49 175.288 221.746 176.269 221.746 177.4C221.746 178.52 221.49 179.501 220.978 180.344C220.466 181.176 219.752 181.827 218.834 182.296C217.917 182.765 216.85 183 215.634 183H210.738ZM212.818 181.24H215.538C216.381 181.24 217.106 181.08 217.714 180.76C218.333 180.44 218.808 179.992 219.138 179.416C219.48 178.84 219.65 178.168 219.65 177.4C219.65 176.621 219.48 175.949 219.138 175.384C218.808 174.808 218.333 174.36 217.714 174.04C217.106 173.72 216.381 173.56 215.538 173.56H212.818V181.24ZM225.877 176.456H231.445V178.168H225.877V176.456ZM226.037 181.256H232.357V183H223.957V171.8H232.133V173.544H226.037V181.256ZM239.098 183V171.8H240.81L245.706 179.976H244.81L249.626 171.8H251.338L251.354 183H249.386L249.37 174.888H249.786L245.69 181.72H244.762L240.602 174.888H241.082V183H239.098ZM256.299 176.456H261.867V178.168H256.299V176.456ZM256.459 181.256H262.779V183H254.379V171.8H262.555V173.544H256.459V181.256ZM266.842 183.16C266.127 183.16 265.466 183.021 264.858 182.744C264.26 182.467 263.77 182.067 263.386 181.544L264.57 180.12C264.879 180.547 265.215 180.867 265.578 181.08C265.951 181.293 266.356 181.4 266.794 181.4C267.956 181.4 268.538 180.712 268.538 179.336V173.544H264.554V171.8H270.618V179.224C270.618 180.547 270.292 181.533 269.642 182.184C269.002 182.835 268.068 183.16 266.842 183.16ZM278.783 183.16C277.909 183.16 277.103 183.016 276.367 182.728C275.631 182.44 274.991 182.04 274.447 181.528C273.903 181.005 273.482 180.397 273.183 179.704C272.885 179 272.735 178.232 272.735 177.4C272.735 176.568 272.885 175.805 273.183 175.112C273.482 174.408 273.903 173.8 274.447 173.288C274.991 172.765 275.631 172.36 276.367 172.072C277.103 171.784 277.903 171.64 278.767 171.64C279.642 171.64 280.442 171.784 281.167 172.072C281.903 172.36 282.543 172.765 283.087 173.288C283.631 173.8 284.053 174.408 284.351 175.112C284.65 175.805 284.799 176.568 284.799 177.4C284.799 178.232 284.65 179 284.351 179.704C284.053 180.408 283.631 181.016 283.087 181.528C282.543 182.04 281.903 182.44 281.167 182.728C280.442 183.016 279.647 183.16 278.783 183.16ZM278.767 181.336C279.333 181.336 279.855 181.24 280.335 181.048C280.815 180.856 281.231 180.584 281.583 180.232C281.935 179.869 282.207 179.453 282.399 178.984C282.602 178.504 282.703 177.976 282.703 177.4C282.703 176.824 282.602 176.301 282.399 175.832C282.207 175.352 281.935 174.936 281.583 174.584C281.231 174.221 280.815 173.944 280.335 173.752C279.855 173.56 279.333 173.464 278.767 173.464C278.202 173.464 277.679 173.56 277.199 173.752C276.73 173.944 276.314 174.221 275.951 174.584C275.599 174.936 275.322 175.352 275.119 175.832C274.927 176.301 274.831 176.824 274.831 177.4C274.831 177.965 274.927 178.488 275.119 178.968C275.322 179.448 275.599 179.869 275.951 180.232C276.303 180.584 276.719 180.856 277.199 181.048C277.679 181.24 278.202 181.336 278.767 181.336ZM287.004 183V171.8H291.612C292.604 171.8 293.452 171.96 294.156 172.28C294.871 172.6 295.42 173.059 295.804 173.656C296.188 174.253 296.38 174.963 296.38 175.784C296.38 176.605 296.188 177.315 295.804 177.912C295.42 178.499 294.871 178.952 294.156 179.272C293.452 179.581 292.604 179.736 291.612 179.736H288.156L289.084 178.792V183H287.004ZM294.332 183L291.5 178.936H293.724L296.572 183H294.332ZM289.084 179.016L288.156 178.024H291.516C292.433 178.024 293.121 177.827 293.58 177.432C294.049 177.037 294.284 176.488 294.284 175.784C294.284 175.069 294.049 174.52 293.58 174.136C293.121 173.752 292.433 173.56 291.516 173.56H288.156L289.084 172.536V179.016ZM297.123 183L302.163 171.8H304.211L309.267 183H307.091L302.755 172.904H303.587L299.267 183H297.123ZM299.443 180.408L300.003 178.776H306.051L306.611 180.408H299.443ZM116.926 203V191.8H121.534C122.526 191.8 123.374 191.96 124.078 192.28C124.793 192.6 125.342 193.059 125.726 193.656C126.11 194.253 126.302 194.963 126.302 195.784C126.302 196.605 126.11 197.315 125.726 197.912C125.342 198.499 124.793 198.952 124.078 199.272C123.374 199.581 122.526 199.736 121.534 199.736H118.078L119.006 198.792V203H116.926ZM124.254 203L121.422 198.936H123.646L126.494 203H124.254ZM119.006 199.016L118.078 198.024H121.438C122.355 198.024 123.043 197.827 123.502 197.432C123.971 197.037 124.206 196.488 124.206 195.784C124.206 195.069 123.971 194.52 123.502 194.136C123.043 193.752 122.355 193.56 121.438 193.56H118.078L119.006 192.536V199.016ZM130.549 196.456H136.117V198.168H130.549V196.456ZM130.709 201.256H137.029V203H128.629V191.8H136.805V193.544H130.709V201.256ZM144.58 203.16C143.705 203.16 142.9 203.021 142.164 202.744C141.438 202.456 140.804 202.056 140.26 201.544C139.716 201.021 139.294 200.408 138.996 199.704C138.697 199 138.548 198.232 138.548 197.4C138.548 196.568 138.697 195.8 138.996 195.096C139.294 194.392 139.716 193.784 140.26 193.272C140.814 192.749 141.46 192.349 142.196 192.072C142.932 191.784 143.737 191.64 144.612 191.64C145.561 191.64 146.414 191.795 147.172 192.104C147.94 192.413 148.585 192.867 149.108 193.464L147.796 194.744C147.358 194.307 146.884 193.987 146.372 193.784C145.87 193.571 145.316 193.464 144.708 193.464C144.121 193.464 143.577 193.56 143.076 193.752C142.574 193.944 142.142 194.216 141.78 194.568C141.417 194.92 141.134 195.336 140.932 195.816C140.74 196.296 140.644 196.824 140.644 197.4C140.644 197.965 140.74 198.488 140.932 198.968C141.134 199.448 141.417 199.869 141.78 200.232C142.142 200.584 142.569 200.856 143.06 201.048C143.55 201.24 144.094 201.336 144.692 201.336C145.246 201.336 145.78 201.251 146.292 201.08C146.814 200.899 147.31 200.6 147.78 200.184L148.964 201.736C148.377 202.205 147.694 202.563 146.916 202.808C146.148 203.043 145.369 203.16 144.58 203.16ZM146.996 201.464V197.272H148.964V201.736L146.996 201.464ZM156.523 203.16C154.987 203.16 153.782 202.728 152.907 201.864C152.043 201 151.611 199.752 151.611 198.12V191.8H153.691V198.04C153.691 199.192 153.936 200.029 154.427 200.552C154.928 201.075 155.632 201.336 156.539 201.336C157.446 201.336 158.144 201.075 158.635 200.552C159.126 200.029 159.371 199.192 159.371 198.04V191.8H161.419V198.12C161.419 199.752 160.982 201 160.107 201.864C159.243 202.728 158.048 203.16 156.523 203.16ZM164.332 203V191.8H166.412V201.24H172.268V203H164.332ZM172.342 203L177.382 191.8H179.43L184.486 203H182.31L177.974 192.904H178.806L174.486 203H172.342ZM174.662 200.408L175.222 198.776H181.27L181.83 200.408H174.662ZM187.62 203V193.56H183.908V191.8H193.412V193.56H189.7V203H187.62ZM200.065 203.16C199.19 203.16 198.385 203.016 197.649 202.728C196.913 202.44 196.273 202.04 195.729 201.528C195.185 201.005 194.763 200.397 194.465 199.704C194.166 199 194.017 198.232 194.017 197.4C194.017 196.568 194.166 195.805 194.465 195.112C194.763 194.408 195.185 193.8 195.729 193.288C196.273 192.765 196.913 192.36 197.649 192.072C198.385 191.784 199.185 191.64 200.049 191.64C200.923 191.64 201.723 191.784 202.449 192.072C203.185 192.36 203.825 192.765 204.369 193.288C204.913 193.8 205.334 194.408 205.633 195.112C205.931 195.805 206.081 196.568 206.081 197.4C206.081 198.232 205.931 199 205.633 199.704C205.334 200.408 204.913 201.016 204.369 201.528C203.825 202.04 203.185 202.44 202.449 202.728C201.723 203.016 200.929 203.16 200.065 203.16ZM200.049 201.336C200.614 201.336 201.137 201.24 201.617 201.048C202.097 200.856 202.513 200.584 202.865 200.232C203.217 199.869 203.489 199.453 203.681 198.984C203.883 198.504 203.985 197.976 203.985 197.4C203.985 196.824 203.883 196.301 203.681 195.832C203.489 195.352 203.217 194.936 202.865 194.584C202.513 194.221 202.097 193.944 201.617 193.752C201.137 193.56 200.614 193.464 200.049 193.464C199.483 193.464 198.961 193.56 198.481 193.752C198.011 193.944 197.595 194.221 197.233 194.584C196.881 194.936 196.603 195.352 196.401 195.832C196.209 196.301 196.113 196.824 196.113 197.4C196.113 197.965 196.209 198.488 196.401 198.968C196.603 199.448 196.881 199.869 197.233 200.232C197.585 200.584 198.001 200.856 198.481 201.048C198.961 201.24 199.483 201.336 200.049 201.336ZM208.285 203V191.8H212.893C213.885 191.8 214.733 191.96 215.437 192.28C216.152 192.6 216.701 193.059 217.085 193.656C217.469 194.253 217.661 194.963 217.661 195.784C217.661 196.605 217.469 197.315 217.085 197.912C216.701 198.499 216.152 198.952 215.437 199.272C214.733 199.581 213.885 199.736 212.893 199.736H209.437L210.365 198.792V203H208.285ZM215.613 203L212.781 198.936H215.005L217.853 203H215.613ZM210.365 199.016L209.437 198.024H212.797C213.715 198.024 214.403 197.827 214.861 197.432C215.331 197.037 215.565 196.488 215.565 195.784C215.565 195.069 215.331 194.52 214.861 194.136C214.403 193.752 213.715 193.56 212.797 193.56H209.437L210.365 192.536V199.016ZM219.988 203V191.8H222.068V203H219.988ZM223.514 203L228.554 191.8H230.602L235.658 203H233.482L229.146 192.904H229.978L225.658 203H223.514ZM225.834 200.408L226.394 198.776H232.442L233.002 200.408H225.834Z" fill="#6B7071"/>
</svg>
