<svg width="471" height="102" viewBox="0 0 471 102" fill="none" xmlns="http://www.w3.org/2000/svg">
<path d="M139.712 35.342C139.712 32.086 137.424 29.842 134.124 29.842C131.792 29.842 131.352 30.128 131.352 32.812V37.322C131.352 40.248 132.54 40.776 134.938 40.776C137.974 40.776 139.712 38.708 139.712 35.342ZM131.418 46.144V49.312C131.418 51.424 132.43 52.26 133.904 52.898C134.938 53.36 135.862 53.756 135.862 54.658C135.862 55.758 134.916 56.11 133.508 56.11C132.21 56.11 129.372 56 127.942 56C126.424 56 124.532 56.11 123.476 56.11C122.266 56.11 121.738 55.626 121.738 54.9C121.738 53.426 123.828 53.492 124.18 51.006C124.378 49.752 124.444 44.626 124.444 40.358C124.444 37.366 124.422 33.186 124.356 32.24C124.07 28.764 121.914 28.962 121.914 27.268C121.914 26.542 122.266 25.97 123.498 25.97C125.72 25.97 126.468 26.08 129.042 26.08C131.462 26.08 134.058 25.926 136.83 25.926C143.188 25.926 147.324 29.49 147.324 34.968C147.324 40.248 144.024 44.714 136.632 44.714C134.52 44.714 133.376 44.384 132.452 44.384C131.506 44.384 131.418 44.824 131.418 46.144ZM152.374 40.358C152.374 37.388 152.374 33.186 152.308 32.196C152.022 28.742 149.844 28.94 149.844 27.268C149.844 26.542 150.196 25.97 151.428 25.97C152.77 25.97 154.442 26.08 155.872 26.08C157.346 26.08 159.766 25.97 161.042 25.97C162.208 25.97 162.604 26.542 162.604 27.268C162.604 29.138 159.722 28.786 159.414 32.284C159.304 33.23 159.282 36.398 159.282 40.358V49.29C159.282 51.71 160.162 52.15 163.198 52.15C168.016 52.15 169.292 50.302 170.37 47.266C170.898 45.924 171.36 45.308 172.064 45.308C172.834 45.308 173.164 46.034 173.164 47.2C173.164 48.432 172.812 51.226 172.614 54.35C172.526 55.714 172.02 56.11 170.502 56.11C168.676 56.11 165.332 56 161.504 56C155.63 56 152.814 56.11 151.406 56.11C150.284 56.11 149.668 55.692 149.668 54.9C149.668 53.382 151.714 53.47 152.11 51.006C152.308 49.862 152.374 46.078 152.374 40.358ZM184.521 43.812H190.329C190.769 43.812 190.857 43.658 190.857 43.416C190.857 42.756 188.987 37.278 187.931 35.232C187.821 34.99 187.623 34.726 187.491 34.726C187.315 34.726 187.183 34.99 187.051 35.232C186.083 37.168 184.015 42.866 184.015 43.416C184.015 43.658 184.125 43.812 184.521 43.812ZM177.327 50.126L184.015 32.702C184.587 31.14 184.961 29.578 185.159 28.412C185.467 26.894 188.833 25.398 190.263 25.398C191.429 25.398 191.825 26.212 192.243 27.334L201.109 50.17C201.373 50.852 201.901 51.996 203.045 52.986C203.485 53.382 204.189 53.932 204.189 54.636C204.189 55.824 203.331 56.11 201.593 56.11C200.405 56.11 199.327 56 197.259 56C195.191 56 194.047 56.11 192.749 56.11C191.451 56.11 190.835 55.604 190.835 54.746C190.835 53.492 193.431 53.03 193.431 51.028C193.431 50.676 192.881 49.026 192.441 48.234C192.287 47.948 191.935 47.728 191.495 47.728H183.861C183.289 47.728 182.871 47.948 182.607 48.234C182.167 48.894 181.441 50.632 181.441 51.38C181.441 53.316 183.729 53.602 183.729 54.856C183.729 55.56 183.311 56.11 181.881 56.11C180.935 56.11 179.329 56 178.317 56C177.283 56 176.623 56.11 175.655 56.11C174.709 56.11 174.202 55.67 174.202 54.878C174.202 53.492 175.985 53.602 177.327 50.126ZM207.545 25.97C208.359 25.97 210.185 26.08 211.307 26.08C212.583 26.08 213.375 26.124 213.925 26.41C214.673 26.762 215.157 27.51 216.521 29.182L225.981 42.052C226.905 43.196 227.521 43.746 227.631 43.746C227.873 43.746 227.939 43.614 227.939 39.808C227.939 35.562 227.719 31.69 227.059 30.436C226.355 28.764 224.859 28.456 224.859 27.246C224.859 26.454 225.299 25.97 226.421 25.97C227.565 25.97 228.885 26.08 229.721 26.08C230.711 26.08 231.987 25.97 232.977 25.97C234.077 25.97 234.473 26.52 234.473 27.268C234.473 28.94 232.515 28.566 232.251 31.844C232.163 32.79 232.119 36.266 232.119 39.192C232.141 50.258 232.493 50.302 232.493 53.558C232.493 55.076 231.063 56.352 228.951 56.352C228.379 56.352 227.609 55.868 226.883 55.01L213.793 37.718C213.331 37.19 213.111 36.882 212.935 36.882C212.605 36.882 212.561 37.322 212.561 41.612C212.561 46.342 212.935 50.434 213.529 51.688C214.277 53.448 215.773 53.624 215.773 54.812C215.773 55.604 215.289 56.11 214.189 56.11C212.913 56.11 211.703 56 210.867 56C209.855 56 208.513 56.11 207.303 56.11C206.225 56.11 205.785 55.582 205.785 54.834C205.785 53.184 208.073 53.558 208.337 50.28C208.425 49.246 208.491 45.748 208.491 40.424C208.491 35.782 208.469 33.098 208.403 32.24C208.095 28.764 205.961 28.962 205.961 27.268C205.961 26.476 206.467 25.97 207.545 25.97ZM255.225 37.564V43.922C255.225 45.088 254.983 45.726 254.169 45.726C253.289 45.726 252.937 44.956 252.651 44.318C251.903 42.734 251.507 41.964 248.471 41.964C247.525 41.964 247.195 42.492 247.195 44.098V48.762C247.195 51.82 248.163 52.15 251.199 52.15C256.039 52.15 257.469 50.808 259.075 47.332C259.493 46.452 259.999 45.792 260.637 45.792C261.297 45.792 261.715 46.298 261.715 47.64C261.715 48.718 261.099 52.194 260.901 54.46C260.813 55.802 260.329 56.11 258.789 56.11C257.227 56.11 253.729 56 250.143 56C246.161 56 242.377 56.11 239.363 56.11C238.153 56.11 237.625 55.626 237.625 54.9C237.625 53.426 239.715 53.492 240.067 51.006C240.265 49.752 240.331 44.626 240.331 40.358C240.331 37.366 240.309 33.186 240.243 32.24C239.957 28.764 237.801 28.962 237.801 27.268C237.801 26.542 238.153 25.97 239.385 25.97C241.607 25.97 244.181 26.08 249.241 26.08C253.619 26.08 255.995 25.97 257.579 25.97C259.141 25.97 259.669 26.256 259.977 28.258C260.153 29.204 260.417 30.942 260.747 32.636C260.901 33.384 261.011 34.242 261.011 34.528C261.011 35.452 260.439 35.826 259.823 35.826C258.921 35.826 258.481 34.858 257.997 33.956C256.303 30.546 255.489 29.71 250.759 29.71C247.745 29.71 247.195 30.128 247.195 32.548V35.958C247.195 37.784 247.503 38.114 248.339 38.114C251.925 38.114 252.233 36.86 253.047 35.518C253.311 35.144 253.641 34.88 254.037 34.88C254.873 34.88 255.225 35.584 255.225 37.564ZM273.466 43.812H279.274C279.714 43.812 279.802 43.658 279.802 43.416C279.802 42.756 277.932 37.278 276.876 35.232C276.766 34.99 276.568 34.726 276.436 34.726C276.26 34.726 276.128 34.99 275.996 35.232C275.028 37.168 272.96 42.866 272.96 43.416C272.96 43.658 273.07 43.812 273.466 43.812ZM266.272 50.126L272.96 32.702C273.532 31.14 273.906 29.578 274.104 28.412C274.412 26.894 277.778 25.398 279.208 25.398C280.374 25.398 280.77 26.212 281.188 27.334L290.054 50.17C290.318 50.852 290.846 51.996 291.99 52.986C292.43 53.382 293.134 53.932 293.134 54.636C293.134 55.824 292.276 56.11 290.538 56.11C289.35 56.11 288.272 56 286.204 56C284.136 56 282.992 56.11 281.694 56.11C280.396 56.11 279.78 55.604 279.78 54.746C279.78 53.492 282.376 53.03 282.376 51.028C282.376 50.676 281.826 49.026 281.386 48.234C281.232 47.948 280.88 47.728 280.44 47.728H272.806C272.234 47.728 271.816 47.948 271.552 48.234C271.112 48.894 270.386 50.632 270.386 51.38C270.386 53.316 272.674 53.602 272.674 54.856C272.674 55.56 272.256 56.11 270.826 56.11C269.88 56.11 268.274 56 267.262 56C266.228 56 265.568 56.11 264.6 56.11C263.654 56.11 263.148 55.67 263.148 54.878C263.148 53.492 264.93 53.602 266.272 50.126ZM293.729 41.15C293.729 33.098 298.503 25.332 308.117 25.332C311.505 25.332 313.089 26.388 314.475 26.388C315.465 26.388 316.103 25.926 316.983 25.926C318.677 25.926 318.721 27.62 319.249 30.238C319.821 33.208 320.129 33.934 320.129 34.55C320.129 35.496 319.579 35.936 318.941 35.936C317.775 35.936 317.181 34.594 316.213 33.208C314.189 30.37 311.527 28.742 308.887 28.742C304.025 28.742 301.517 33.296 301.517 38.532C301.517 45.308 305.191 50.786 311.175 50.786C315.311 50.786 317.687 48.146 318.831 45.99C319.227 45.352 319.557 44.824 320.019 44.824C320.657 44.824 320.899 45.704 320.899 46.43C320.899 47.86 320.459 49.488 319.535 50.984C317.643 54.042 313.727 56.748 308.161 56.748C298.877 56.748 293.729 49.4 293.729 41.15ZM334.381 25.97C335.547 25.97 335.943 26.542 335.943 27.268C335.943 28.962 333.831 28.72 333.523 32.196C333.413 33.164 333.391 36.398 333.391 40.358C333.391 45.308 333.501 49.642 333.677 50.94C334.073 53.47 336.119 53.404 336.119 54.9C336.119 55.56 335.547 56.11 334.381 56.11C333.083 56.11 331.411 56 329.981 56C328.507 56 326.813 56.11 325.515 56.11C324.305 56.11 323.777 55.56 323.777 54.9C323.777 53.404 325.889 53.448 326.241 50.94C326.417 49.73 326.483 44.56 326.483 40.358C326.483 37.388 326.483 33.186 326.417 32.196C326.131 28.742 323.953 28.94 323.953 27.268C323.953 26.542 324.305 25.97 325.537 25.97C326.879 25.97 328.551 26.08 329.981 26.08C331.455 26.08 333.127 25.97 334.381 25.97ZM370.324 40.248C370.324 42.6827 370.016 44.8973 369.4 46.892C368.813 48.8573 367.904 50.5587 366.672 51.996C365.469 53.4333 363.914 54.5333 362.008 55.296C360.13 56.0587 357.916 56.44 355.364 56.44C352.812 56.44 350.582 56.0587 348.676 55.296C346.798 54.504 345.244 53.404 344.012 51.996C342.809 50.5587 341.9 48.8427 341.284 46.848C340.697 44.8533 340.404 42.6387 340.404 40.204C340.404 36.948 340.932 34.1173 341.988 31.712C343.073 29.3067 344.716 27.444 346.916 26.124C349.145 24.7747 351.976 24.1 355.408 24.1C358.81 24.1 361.612 24.7747 363.812 26.124C366.012 27.444 367.64 29.3213 368.696 31.756C369.781 34.1613 370.324 36.992 370.324 40.248ZM347.4 40.248C347.4 42.448 347.678 44.34 348.236 45.924C348.793 47.508 349.658 48.7253 350.832 49.576C352.005 50.4267 353.516 50.852 355.364 50.852C357.27 50.852 358.796 50.4267 359.94 49.576C361.113 48.7253 361.964 47.508 362.492 45.924C363.049 44.34 363.328 42.448 363.328 40.248C363.328 36.9333 362.712 34.3373 361.48 32.46C360.248 30.5827 358.224 29.644 355.408 29.644C353.53 29.644 352.005 30.0693 350.832 30.92C349.658 31.7707 348.793 32.988 348.236 34.572C347.678 36.156 347.4 38.048 347.4 40.248ZM364.648 15.344C364.237 15.7547 363.694 16.2533 363.02 16.84C362.345 17.4267 361.612 18.0427 360.82 18.688C360.057 19.3333 359.294 19.9493 358.532 20.536C357.798 21.0933 357.153 21.5627 356.596 21.944H352.24V21.372C352.709 20.8147 353.252 20.1693 353.868 19.436C354.513 18.6733 355.144 17.896 355.76 17.104C356.376 16.2827 356.889 15.5493 357.3 14.904H364.648V15.344ZM376.369 25.97C377.183 25.97 379.009 26.08 380.131 26.08C381.407 26.08 382.199 26.124 382.749 26.41C383.497 26.762 383.981 27.51 385.345 29.182L394.805 42.052C395.729 43.196 396.345 43.746 396.455 43.746C396.697 43.746 396.763 43.614 396.763 39.808C396.763 35.562 396.543 31.69 395.883 30.436C395.179 28.764 393.683 28.456 393.683 27.246C393.683 26.454 394.123 25.97 395.245 25.97C396.389 25.97 397.709 26.08 398.545 26.08C399.535 26.08 400.811 25.97 401.801 25.97C402.901 25.97 403.297 26.52 403.297 27.268C403.297 28.94 401.339 28.566 401.075 31.844C400.987 32.79 400.943 36.266 400.943 39.192C400.965 50.258 401.317 50.302 401.317 53.558C401.317 55.076 399.887 56.352 397.775 56.352C397.203 56.352 396.433 55.868 395.707 55.01L382.617 37.718C382.155 37.19 381.935 36.882 381.759 36.882C381.429 36.882 381.385 37.322 381.385 41.612C381.385 46.342 381.759 50.434 382.353 51.688C383.101 53.448 384.597 53.624 384.597 54.812C384.597 55.604 384.113 56.11 383.013 56.11C381.737 56.11 380.527 56 379.691 56C378.679 56 377.337 56.11 376.127 56.11C375.049 56.11 374.609 55.582 374.609 54.834C374.609 53.184 376.897 53.558 377.161 50.28C377.249 49.246 377.315 45.748 377.315 40.424C377.315 35.782 377.293 33.098 377.227 32.24C376.919 28.764 374.785 28.962 374.785 27.268C374.785 26.476 375.291 25.97 376.369 25.97Z" fill="#620E31"/>
<path d="M126.32 83.16C124.784 83.16 123.579 82.728 122.704 81.864C121.84 81 121.408 79.752 121.408 78.12V71.8H123.488V78.04C123.488 79.192 123.733 80.0293 124.224 80.552C124.725 81.0747 125.429 81.336 126.336 81.336C127.243 81.336 127.941 81.0747 128.432 80.552C128.923 80.0293 129.168 79.192 129.168 78.04V71.8H131.216V78.12C131.216 79.752 130.779 81 129.904 81.864C129.04 82.728 127.845 83.16 126.32 83.16ZM134.129 83V71.8H135.841L142.865 80.424H142.017V71.8H144.081V83H142.369L135.345 74.376H136.193V83H134.129ZM147.082 83V71.8H149.162V83H147.082ZM152.192 83V71.8H157.088C158.304 71.8 159.37 72.0347 160.288 72.504C161.205 72.9733 161.92 73.624 162.432 74.456C162.944 75.288 163.2 76.2693 163.2 77.4C163.2 78.52 162.944 79.5013 162.432 80.344C161.92 81.176 161.205 81.8267 160.288 82.296C159.37 82.7653 158.304 83 157.088 83H152.192ZM154.272 81.24H156.992C157.834 81.24 158.56 81.08 159.168 80.76C159.786 80.44 160.261 79.992 160.592 79.416C160.933 78.84 161.104 78.168 161.104 77.4C161.104 76.6213 160.933 75.9493 160.592 75.384C160.261 74.808 159.786 74.36 159.168 74.04C158.56 73.72 157.834 73.56 156.992 73.56H154.272V81.24ZM163.67 83L168.71 71.8H170.758L175.814 83H173.638L169.302 72.904H170.134L165.814 83H163.67ZM165.99 80.408L166.55 78.776H172.598L173.158 80.408H165.99ZM177.238 83V71.8H182.134C183.35 71.8 184.417 72.0347 185.334 72.504C186.252 72.9733 186.966 73.624 187.478 74.456C187.99 75.288 188.246 76.2693 188.246 77.4C188.246 78.52 187.99 79.5013 187.478 80.344C186.966 81.176 186.252 81.8267 185.334 82.296C184.417 82.7653 183.35 83 182.134 83H177.238ZM179.318 81.24H182.038C182.881 81.24 183.606 81.08 184.214 80.76C184.833 80.44 185.308 79.992 185.638 79.416C185.98 78.84 186.15 78.168 186.15 77.4C186.15 76.6213 185.98 75.9493 185.638 75.384C185.308 74.808 184.833 74.36 184.214 74.04C183.606 73.72 182.881 73.56 182.038 73.56H179.318V81.24ZM194.879 83V71.8H199.775C200.991 71.8 202.058 72.0347 202.975 72.504C203.892 72.9733 204.607 73.624 205.119 74.456C205.631 75.288 205.887 76.2693 205.887 77.4C205.887 78.52 205.631 79.5013 205.119 80.344C204.607 81.176 203.892 81.8267 202.975 82.296C202.058 82.7653 200.991 83 199.775 83H194.879ZM196.959 81.24H199.679C200.522 81.24 201.247 81.08 201.855 80.76C202.474 80.44 202.948 79.992 203.279 79.416C203.62 78.84 203.791 78.168 203.791 77.4C203.791 76.6213 203.62 75.9493 203.279 75.384C202.948 74.808 202.474 74.36 201.855 74.04C201.247 73.72 200.522 73.56 199.679 73.56H196.959V81.24ZM210.018 76.456H215.586V78.168H210.018V76.456ZM210.178 81.256H216.498V83H208.098V71.8H216.274V73.544H210.178V81.256ZM223.238 83V71.8H227.846C228.838 71.8 229.686 71.96 230.39 72.28C231.105 72.6 231.654 73.0587 232.038 73.656C232.422 74.2533 232.614 74.9627 232.614 75.784C232.614 76.6053 232.422 77.3147 232.038 77.912C231.654 78.5093 231.105 78.968 230.39 79.288C229.686 79.608 228.838 79.768 227.846 79.768H224.39L225.318 78.792V83H223.238ZM225.318 79.016L224.39 78.008H227.75C228.668 78.008 229.356 77.816 229.814 77.432C230.284 77.0373 230.518 76.488 230.518 75.784C230.518 75.0693 230.284 74.52 229.814 74.136C229.356 73.752 228.668 73.56 227.75 73.56H224.39L225.318 72.536V79.016ZM234.692 83V71.8H236.772V81.24H242.628V83H234.692ZM242.701 83L247.741 71.8H249.789L254.845 83H252.669L248.333 72.904H249.165L244.845 83H242.701ZM245.021 80.408L245.581 78.776H251.629L252.189 80.408H245.021ZM256.27 83V71.8H257.982L265.006 80.424H264.158V71.8H266.222V83H264.51L257.486 74.376H258.334V83H256.27ZM271.143 76.456H276.711V78.168H271.143V76.456ZM271.303 81.256H277.623V83H269.223V71.8H277.399V73.544H271.303V81.256ZM278.357 83L283.398 71.8H285.446L290.502 83H288.326L283.99 72.904H284.822L280.502 83H278.357ZM280.678 80.408L281.238 78.776H287.286L287.845 80.408H280.678ZM296.954 83.16C296.1 83.16 295.306 83.0213 294.57 82.744C293.844 82.456 293.21 82.056 292.666 81.544C292.132 81.0213 291.716 80.408 291.418 79.704C291.119 79 290.97 78.232 290.97 77.4C290.97 76.568 291.119 75.8 291.418 75.096C291.716 74.392 292.138 73.784 292.682 73.272C293.226 72.7493 293.86 72.3493 294.586 72.072C295.311 71.784 296.106 71.64 296.97 71.64C297.887 71.64 298.724 71.8 299.482 72.12C300.239 72.4293 300.879 72.8933 301.402 73.512L300.058 74.776C299.652 74.3387 299.199 74.0133 298.698 73.8C298.196 73.576 297.652 73.464 297.066 73.464C296.479 73.464 295.94 73.56 295.45 73.752C294.97 73.944 294.548 74.216 294.186 74.568C293.834 74.92 293.556 75.336 293.354 75.816C293.162 76.296 293.066 76.824 293.066 77.4C293.066 77.976 293.162 78.504 293.354 78.984C293.556 79.464 293.834 79.88 294.186 80.232C294.548 80.584 294.97 80.856 295.45 81.048C295.94 81.24 296.479 81.336 297.066 81.336C297.652 81.336 298.196 81.2293 298.698 81.016C299.199 80.792 299.652 80.456 300.058 80.008L301.402 81.288C300.879 81.896 300.239 82.36 299.482 82.68C298.724 83 297.882 83.16 296.954 83.16ZM303.395 83V71.8H305.475V83H303.395ZM313.752 83.16C312.877 83.16 312.072 83.016 311.336 82.728C310.6 82.44 309.96 82.04 309.416 81.528C308.872 81.0053 308.451 80.3973 308.152 79.704C307.853 79 307.704 78.232 307.704 77.4C307.704 76.568 307.853 75.8053 308.152 75.112C308.451 74.408 308.872 73.8 309.416 73.288C309.96 72.7653 310.6 72.36 311.336 72.072C312.072 71.784 312.872 71.64 313.736 71.64C314.611 71.64 315.411 71.784 316.136 72.072C316.872 72.36 317.512 72.7653 318.056 73.288C318.6 73.8 319.021 74.408 319.32 75.112C319.619 75.8053 319.768 76.568 319.768 77.4C319.768 78.232 319.619 79 319.32 79.704C319.021 80.408 318.6 81.016 318.056 81.528C317.512 82.04 316.872 82.44 316.136 82.728C315.411 83.016 314.616 83.16 313.752 83.16ZM313.736 81.336C314.301 81.336 314.824 81.24 315.304 81.048C315.784 80.856 316.2 80.584 316.552 80.232C316.904 79.8693 317.176 79.4533 317.368 78.984C317.571 78.504 317.672 77.976 317.672 77.4C317.672 76.824 317.571 76.3013 317.368 75.832C317.176 75.352 316.904 74.936 316.552 74.584C316.2 74.2213 315.784 73.944 315.304 73.752C314.824 73.56 314.301 73.464 313.736 73.464C313.171 73.464 312.648 73.56 312.168 73.752C311.699 73.944 311.283 74.2213 310.92 74.584C310.568 74.936 310.291 75.352 310.088 75.832C309.896 76.3013 309.8 76.824 309.8 77.4C309.8 77.9653 309.896 78.488 310.088 78.968C310.291 79.448 310.568 79.8693 310.92 80.232C311.272 80.584 311.688 80.856 312.168 81.048C312.648 81.24 313.171 81.336 313.736 81.336ZM312.392 70.888L314.552 68.696H316.904L314.12 70.888H312.392ZM321.973 83V71.8H323.685L330.709 80.424H329.861V71.8H331.925V83H330.213L323.189 74.376H324.037V83H321.973ZM342.1 83V78.568L342.564 79.848L337.7 71.8H339.924L343.828 78.28H342.58L346.516 71.8H348.564L343.7 79.848L344.18 78.568V83H342.1ZM354.348 83V71.8H358.956C359.948 71.8 360.796 71.96 361.5 72.28C362.214 72.6 362.764 73.0587 363.148 73.656C363.532 74.2533 363.724 74.9627 363.724 75.784C363.724 76.6053 363.532 77.3147 363.148 77.912C362.764 78.5093 362.214 78.968 361.5 79.288C360.796 79.608 359.948 79.768 358.956 79.768H355.5L356.428 78.792V83H354.348ZM356.428 79.016L355.5 78.008H358.86C359.777 78.008 360.465 77.816 360.924 77.432C361.393 77.0373 361.628 76.488 361.628 75.784C361.628 75.0693 361.393 74.52 360.924 74.136C360.465 73.752 359.777 73.56 358.86 73.56H355.5L356.428 72.536V79.016ZM365.801 83V71.8H370.409C371.401 71.8 372.249 71.96 372.953 72.28C373.668 72.6 374.217 73.0587 374.601 73.656C374.985 74.2533 375.177 74.9627 375.177 75.784C375.177 76.6053 374.985 77.3147 374.601 77.912C374.217 78.4987 373.668 78.952 372.953 79.272C372.249 79.5813 371.401 79.736 370.409 79.736H366.953L367.881 78.792V83H365.801ZM373.129 83L370.297 78.936H372.521L375.369 83H373.129ZM367.881 79.016L366.953 78.024H370.313C371.23 78.024 371.918 77.8267 372.377 77.432C372.846 77.0373 373.081 76.488 373.081 75.784C373.081 75.0693 372.846 74.52 372.377 74.136C371.918 73.752 371.23 73.56 370.313 73.56H366.953L367.881 72.536V79.016ZM382.752 83.16C381.877 83.16 381.072 83.016 380.336 82.728C379.6 82.44 378.96 82.04 378.416 81.528C377.872 81.0053 377.451 80.3973 377.152 79.704C376.853 79 376.704 78.232 376.704 77.4C376.704 76.568 376.853 75.8053 377.152 75.112C377.451 74.408 377.872 73.8 378.416 73.288C378.96 72.7653 379.6 72.36 380.336 72.072C381.072 71.784 381.872 71.64 382.736 71.64C383.611 71.64 384.411 71.784 385.136 72.072C385.872 72.36 386.512 72.7653 387.056 73.288C387.6 73.8 388.021 74.408 388.32 75.112C388.619 75.8053 388.768 76.568 388.768 77.4C388.768 78.232 388.619 79 388.32 79.704C388.021 80.408 387.6 81.016 387.056 81.528C386.512 82.04 385.872 82.44 385.136 82.728C384.411 83.016 383.616 83.16 382.752 83.16ZM382.736 81.336C383.301 81.336 383.824 81.24 384.304 81.048C384.784 80.856 385.2 80.584 385.552 80.232C385.904 79.8693 386.176 79.4533 386.368 78.984C386.571 78.504 386.672 77.976 386.672 77.4C386.672 76.824 386.571 76.3013 386.368 75.832C386.176 75.352 385.904 74.936 385.552 74.584C385.2 74.2213 384.784 73.944 384.304 73.752C383.824 73.56 383.301 73.464 382.736 73.464C382.171 73.464 381.648 73.56 381.168 73.752C380.699 73.944 380.283 74.2213 379.92 74.584C379.568 74.936 379.291 75.352 379.088 75.832C378.896 76.3013 378.8 76.824 378.8 77.4C378.8 77.9653 378.896 78.488 379.088 78.968C379.291 79.448 379.568 79.8693 379.92 80.232C380.272 80.584 380.688 80.856 381.168 81.048C381.648 81.24 382.171 81.336 382.736 81.336ZM394.445 83.16C393.57 83.16 392.733 83.0373 391.933 82.792C391.133 82.536 390.498 82.2107 390.029 81.816L390.749 80.2C391.197 80.552 391.751 80.8453 392.413 81.08C393.074 81.3147 393.751 81.432 394.445 81.432C395.031 81.432 395.506 81.368 395.869 81.24C396.231 81.112 396.498 80.9413 396.669 80.728C396.839 80.504 396.925 80.2533 396.925 79.976C396.925 79.6347 396.802 79.3627 396.557 79.16C396.311 78.9467 395.991 78.7813 395.597 78.664C395.213 78.536 394.781 78.4187 394.301 78.312C393.831 78.2053 393.357 78.0827 392.877 77.944C392.407 77.7947 391.975 77.608 391.581 77.384C391.197 77.1493 390.882 76.84 390.637 76.456C390.391 76.072 390.269 75.5813 390.269 74.984C390.269 74.376 390.429 73.8213 390.749 73.32C391.079 72.808 391.575 72.4027 392.237 72.104C392.909 71.7947 393.757 71.64 394.781 71.64C395.453 71.64 396.119 71.7253 396.781 71.896C397.442 72.0667 398.018 72.312 398.509 72.632L397.853 74.248C397.351 73.9493 396.834 73.7307 396.301 73.592C395.767 73.4427 395.255 73.368 394.765 73.368C394.189 73.368 393.719 73.4373 393.357 73.576C393.005 73.7147 392.743 73.896 392.573 74.12C392.413 74.344 392.333 74.6 392.333 74.888C392.333 75.2293 392.45 75.5067 392.685 75.72C392.93 75.9227 393.245 76.0827 393.629 76.2C394.023 76.3173 394.461 76.4347 394.941 76.552C395.421 76.6587 395.895 76.7813 396.365 76.92C396.845 77.0587 397.277 77.24 397.661 77.464C398.055 77.688 398.37 77.992 398.605 78.376C398.85 78.76 398.973 79.2453 398.973 79.832C398.973 80.4293 398.807 80.984 398.477 81.496C398.157 81.9973 397.661 82.4027 396.989 82.712C396.317 83.0107 395.469 83.16 394.445 83.16ZM401.035 83V71.8H405.643C406.635 71.8 407.483 71.96 408.187 72.28C408.902 72.6 409.451 73.0587 409.835 73.656C410.219 74.2533 410.411 74.9627 410.411 75.784C410.411 76.6053 410.219 77.3147 409.835 77.912C409.451 78.5093 408.902 78.968 408.187 79.288C407.483 79.608 406.635 79.768 405.643 79.768H402.187L403.115 78.792V83H401.035ZM403.115 79.016L402.187 78.008H405.547C406.465 78.008 407.153 77.816 407.611 77.432C408.081 77.0373 408.315 76.488 408.315 75.784C408.315 75.0693 408.081 74.52 407.611 74.136C407.153 73.752 406.465 73.56 405.547 73.56H402.187L403.115 72.536V79.016ZM414.408 76.456H419.976V78.168H414.408V76.456ZM414.568 81.256H420.888V83H412.488V71.8H420.664V73.544H414.568V81.256ZM428.391 83.16C427.538 83.16 426.743 83.0213 426.007 82.744C425.282 82.456 424.647 82.056 424.103 81.544C423.57 81.0213 423.154 80.408 422.855 79.704C422.556 79 422.407 78.232 422.407 77.4C422.407 76.568 422.556 75.8 422.855 75.096C423.154 74.392 423.575 73.784 424.119 73.272C424.663 72.7493 425.298 72.3493 426.023 72.072C426.748 71.784 427.543 71.64 428.407 71.64C429.324 71.64 430.162 71.8 430.919 72.12C431.676 72.4293 432.316 72.8933 432.839 73.512L431.495 74.776C431.09 74.3387 430.636 74.0133 430.135 73.8C429.634 73.576 429.09 73.464 428.503 73.464C427.916 73.464 427.378 73.56 426.887 73.752C426.407 73.944 425.986 74.216 425.623 74.568C425.271 74.92 424.994 75.336 424.791 75.816C424.599 76.296 424.503 76.824 424.503 77.4C424.503 77.976 424.599 78.504 424.791 78.984C424.994 79.464 425.271 79.88 425.623 80.232C425.986 80.584 426.407 80.856 426.887 81.048C427.378 81.24 427.916 81.336 428.503 81.336C429.09 81.336 429.634 81.2293 430.135 81.016C430.636 80.792 431.09 80.456 431.495 80.008L432.839 81.288C432.316 81.896 431.676 82.36 430.919 82.68C430.162 83 429.319 83.16 428.391 83.16ZM436.979 83V73.56H433.267V71.8H442.771V73.56H439.059V83H436.979ZM444.332 83V71.8H446.412V83H444.332ZM452.675 83L447.779 71.8H450.035L454.403 81.928H453.107L457.523 71.8H459.603L454.723 83H452.675ZM458.842 83L463.882 71.8H465.93L470.986 83H468.81L464.474 72.904H465.306L460.986 83H458.842ZM461.162 80.408L461.722 78.776H467.77L468.33 80.408H461.162Z" fill="#6B7071"/>
<path d="M23.1227 101.685C22.9625 101.621 22.9144 99.3243 22.9144 90.9081V80.1951L23.5233 79.6169C23.8438 79.2957 24.1964 78.9423 24.3085 78.8299C24.4047 78.7174 24.629 78.4926 24.8053 78.3159C24.9815 78.1392 25.1899 77.9304 25.2539 77.8501C25.3341 77.7698 25.6225 77.4968 25.8789 77.2398C26.1513 76.9828 26.4397 76.6937 26.5199 76.5973C26.616 76.501 27.1127 75.987 27.6415 75.457C28.1703 74.9269 28.6831 74.429 28.7632 74.3327C28.8594 74.2524 29.1478 73.9633 29.4042 73.7063C29.6766 73.4493 29.965 73.1602 30.0612 73.0478C30.1733 72.9353 30.3977 72.7105 30.5739 72.5338C30.7502 72.3571 30.9585 72.1483 31.0386 72.068C31.1027 71.9877 31.3912 71.7147 31.6476 71.4577C31.92 71.2007 32.2244 70.8955 32.3366 70.767C33.3301 69.707 34.7402 68.4221 34.8364 68.5024C34.8844 68.5505 34.9325 73.5296 34.9325 79.5526V90.5066L34.3717 91.0848C34.0512 91.4221 33.7307 91.679 33.6506 91.679C33.5705 91.679 33.4743 91.8236 33.4102 92.0003C33.3621 92.1769 33.1058 92.4339 32.8494 92.5785C32.609 92.7391 32.3206 93.0121 32.2244 93.2209C32.1443 93.4137 31.8559 93.7028 31.5835 93.8634C31.3111 94.024 31.0867 94.2489 31.0867 94.3613C31.0867 94.4737 30.8303 94.7307 30.5259 94.9235C30.2214 95.1322 29.965 95.3732 29.965 95.4856C29.965 95.582 29.6766 95.8711 29.3241 96.1281C28.9715 96.369 28.6831 96.642 28.6831 96.7063C28.6831 96.8829 27.3531 98.1839 26.8403 98.5212C26.616 98.6658 26.4397 98.8746 26.4397 99.0031C26.4397 99.1155 26.1513 99.4046 25.7988 99.6616C25.4462 99.9025 25.1578 100.192 25.1578 100.304C25.1578 100.4 24.9174 100.641 24.613 100.818C24.3245 101.011 24.0361 101.3 23.988 101.477C23.9079 101.782 23.5554 101.862 23.1227 101.685Z" fill="#9B2149"/>
<path d="M76.9156 100.995C76.515 100.545 76.0984 100.095 75.9702 99.983C74.8005 98.9069 71.3072 95.3252 71.3072 95.2128C71.3072 95.1164 71.2271 95.0522 71.147 95.0522C71.0508 95.0522 70.0093 94.0885 68.8235 92.8999C67.157 91.2456 66.6602 90.6513 66.6602 90.3301C66.6602 89.7037 67.1089 89.8001 67.814 90.5871C68.1505 90.9565 68.4229 91.3259 68.4229 91.3902C68.4229 91.4544 68.519 91.5187 68.6472 91.5187C68.7754 91.5187 69.0158 91.7435 69.176 92.0005C69.3202 92.2735 69.5766 92.5145 69.7208 92.5627C69.849 92.6108 70.0573 92.8196 70.1695 93.0124C70.2817 93.2212 70.5701 93.5103 70.8105 93.6548C71.0508 93.7994 71.3393 94.0885 71.4674 94.3133C71.5796 94.5382 71.7399 94.7309 71.804 94.7309C71.9001 94.7309 73.4064 96.1925 74.0634 96.9153C74.2076 97.092 74.8005 97.6863 75.3773 98.2484C75.9542 98.8106 76.4349 99.3245 76.4349 99.3888C76.4349 99.453 76.5791 99.5494 76.7554 99.5976C76.9317 99.6458 77.0759 99.7742 77.0759 99.9027C77.0759 100.015 77.2201 100.208 77.3964 100.32L77.7168 100.513L77.6848 90.3783C77.6527 82.4279 77.5887 80.2114 77.4444 80.1471C77.2361 80.0829 77.14 78.9907 77.3323 78.9907C77.3803 78.9907 77.7008 79.2638 78.0534 79.585L78.6783 80.1793V90.7156C78.6623 101.846 78.6783 101.798 77.9412 101.798C77.7809 101.798 77.3162 101.429 76.9156 100.995Z" fill="#9B2149"/>
<path d="M36.6471 88.2581C36.535 87.9208 36.5029 71.4096 36.6311 68.8077C36.7112 66.816 36.7914 66.2539 36.9997 66.0772C37.2561 65.8363 37.7848 65.3063 38.1053 64.985C38.2976 64.7762 39.1789 63.8929 39.3873 63.7001C39.6276 63.4753 40.2205 62.8649 40.3487 62.7204C40.4128 62.6561 40.6852 62.3991 40.9416 62.1422C41.214 61.8852 41.5185 61.58 41.6306 61.4515C41.871 61.2106 43.6817 59.3796 43.874 59.2029C44.0983 58.9781 45.9091 57.1631 46.0693 56.9864C46.1654 56.9061 46.4539 56.617 46.7103 56.36C46.9827 56.1031 47.2711 55.814 47.3512 55.7176C47.6877 55.3482 48.4248 54.7218 48.4889 54.77C48.521 54.8021 48.5691 59.7008 48.6171 65.6596C48.6973 77.513 48.7293 77.0793 47.7518 77.6575C47.4954 77.8021 47.2711 78.0269 47.2711 78.1394C47.2711 78.2518 47.0147 78.5088 46.7103 78.7015C46.4058 78.9103 46.1494 79.1673 46.1494 79.2797C46.1494 79.3922 45.893 79.6331 45.5886 79.8098C45.2841 79.9864 44.9957 80.2755 44.9476 80.4522C44.8995 80.6128 44.6432 80.8698 44.4028 81.0144C44.1624 81.1589 43.9061 81.432 43.8099 81.6086C43.7298 81.8014 43.4574 82.0584 43.201 82.1869C42.9446 82.2993 42.7042 82.5402 42.6722 82.7008C42.6241 82.8614 42.3357 83.1505 42.0473 83.3433C41.7428 83.52 41.5024 83.7769 41.5024 83.9054C41.5024 84.0179 41.2461 84.2909 40.9416 84.4836C40.6371 84.6924 40.3807 84.9494 40.3807 85.0619C40.3807 85.1743 40.1244 85.4152 39.8199 85.5919C39.5154 85.7686 39.227 86.0577 39.1789 86.2183C39.1309 86.395 38.8424 86.668 38.554 86.8607C38.2495 87.0374 37.9771 87.3105 37.9451 87.4711C37.8329 87.8565 36.7433 88.5151 36.6471 88.2581Z" fill="#9B2149"/>
<path d="M58.4239 82.476C53.168 77.2078 52.6071 76.5975 52.6712 76.212C52.7674 75.7141 53.3122 75.6017 53.4724 76.0514C53.5365 76.196 53.6968 76.4369 53.825 76.5814C53.9692 76.726 54.1935 76.999 54.3217 77.1918C54.4499 77.3845 54.6101 77.5451 54.6582 77.5451C54.7704 77.5451 56.4529 79.2155 58.3598 81.2071C58.5681 81.4159 58.8726 81.705 59.0328 81.8496C60.0263 82.733 60.5711 83.4397 60.5711 83.8733C60.5711 84.2267 60.6352 84.2909 61.0198 84.2909C61.3563 84.2909 61.7088 84.5158 62.3818 85.1904C62.8786 85.6722 63.2952 86.138 63.3273 86.2022C63.4234 86.411 64.3848 87.0214 64.6412 87.0214C64.7855 87.0214 64.8976 87.1499 64.8976 87.3105C64.8976 87.8405 64.7053 88.3063 64.481 88.3063C64.3688 88.3063 61.6447 85.6883 58.4239 82.476Z" fill="#9B2149"/>
<path d="M99.9904 78.8942C99.8622 78.8621 95.2633 78.8139 89.767 78.7979C80.4089 78.7497 79.768 78.7336 79.6238 78.4606C79.5276 78.316 79.3674 78.1072 79.2712 78.0269C79.1591 77.9306 78.9347 77.7378 78.7424 77.5772C78.5662 77.4326 78.3258 77.1435 78.2136 76.9508C78.1175 76.742 77.9412 76.5814 77.8291 76.5814C77.6047 76.5814 77.0759 76.0192 77.0759 75.7783C77.0759 75.698 76.8836 75.5374 76.6433 75.425C76.4029 75.3125 76.0985 75.0074 75.9863 74.7664C75.8741 74.5255 75.6979 74.3328 75.6017 74.3328C75.5216 74.3328 75.0088 73.8831 74.4961 73.337C73.9673 72.7748 73.4705 72.2609 73.3744 72.1645C73.2942 72.0842 72.7815 71.5863 72.2527 71.0723C71.7399 70.5583 71.3073 70.0604 71.3073 69.9962C71.3073 69.9159 71.115 69.7553 70.8746 69.6428C70.6342 69.5304 70.3298 69.2252 70.2176 68.9843C70.1055 68.7434 69.9452 68.5507 69.8811 68.5507C69.6888 68.5507 68.9677 67.86 68.7755 67.5067C68.6633 67.2657 68.6633 67.1051 68.8235 66.8963C68.9998 66.6394 69.7369 66.6233 79.4315 66.6233C88.5011 66.6233 89.8792 66.6554 90.0555 66.8642C90.1676 66.9927 90.424 67.1051 90.6323 67.1051C90.8887 67.1051 91.081 67.2657 91.2573 67.587C91.4015 67.86 91.6098 68.0688 91.738 68.0688C91.8822 68.0688 92.1867 68.3579 92.427 68.7113C92.6674 69.0486 92.9077 69.3377 92.9718 69.3537C93.1 69.3537 94.7024 70.9278 94.7024 71.0563C94.7024 71.2008 95.087 71.5381 95.3915 71.6505C95.5357 71.6987 95.744 71.9236 95.8401 72.1324C95.9363 72.3412 96.2087 72.6303 96.4491 72.7748C96.6894 72.9194 96.9779 73.2085 97.1061 73.4333C97.2182 73.6582 97.3785 73.8509 97.4426 73.8509C97.5387 73.8509 98.9488 75.2162 99.5257 75.8747C99.6859 76.0514 99.9744 76.3405 100.167 76.5171C100.888 77.1596 101.224 77.6254 101.304 78.0912C101.384 78.4766 101.32 78.573 100.856 78.7657C100.567 78.8942 100.295 78.9745 100.279 78.9745C100.247 78.9585 100.119 78.9264 99.9904 78.8942Z" fill="#9B2149"/>
<path d="M0 78.043C0 77.9466 9.83879 68.0046 11.0727 66.8642C11.281 66.6554 12.8513 66.6233 21.9049 66.6233C31.3592 66.6233 32.5129 66.6554 32.593 66.8803C32.6411 67.0088 32.7533 67.0891 32.8334 67.0248C32.9135 66.9766 33.0417 67.0248 33.0898 67.1212C33.1539 67.2176 32.8975 67.587 32.5129 67.9564L31.8078 68.5988L31.7598 68.1009L31.7117 67.587H21.5684H11.4252L9.27795 69.7553C8.09217 70.9438 7.03458 71.9236 6.93843 71.9236C6.82626 71.9236 6.73012 72.0039 6.73012 72.1163C6.73012 72.3412 4.95145 74.1722 4.72711 74.1722C4.63096 74.1722 4.48675 74.3328 4.40663 74.5416C4.31048 74.7343 4.08614 74.9592 3.89386 75.0556C3.68554 75.1359 3.5253 75.2804 3.5253 75.3768C3.5253 75.4571 2.91639 76.1317 2.17928 76.8705C1.18578 77.8502 0.737108 78.1875 0.416626 78.1875C0.192289 78.1875 0 78.1233 0 78.043Z" fill="#9B2149"/>
<path d="M74.3838 77.0633C74.1595 76.8384 74.0313 76.5332 74.0313 76.1799V75.6338L74.5441 76.1156C74.8325 76.3726 75.2331 76.7581 75.4414 76.983L75.81 77.3845H75.2652C74.9447 77.3845 74.5922 77.256 74.3838 77.0633Z" fill="#9B2149"/>
<path d="M71.6277 74.124C71.6277 74.0277 71.4194 73.8349 71.147 73.7225C70.7464 73.5458 70.6663 73.4173 70.6663 72.9516C70.6663 72.4697 70.6983 72.4215 70.9547 72.55C71.0989 72.6303 71.5796 73.08 72.0123 73.5137L72.7975 74.3328H72.2206C71.852 74.3328 71.6277 74.2525 71.6277 74.124Z" fill="#9B2149"/>
<path d="M68.6152 71.2811C68.4229 71.0883 68.2626 70.7992 68.2626 70.6386C68.2626 70.4298 68.1505 70.3174 67.9742 70.3174C67.814 70.3174 67.4614 70.1086 67.173 69.8355C66.7243 69.434 66.6602 69.2894 66.7724 68.8879L66.9006 68.4221L68.487 70.0122L70.0894 71.6023H69.5285C69.176 71.6023 68.8235 71.4738 68.6152 71.2811Z" fill="#9B2149"/>
<path d="M72.7494 64.8564L66.0834 64.7761L65.5386 64.2461C63.167 61.9975 62.0133 60.825 62.0133 60.7126C62.0133 60.6323 61.837 60.4877 61.6127 60.3913C61.4043 60.295 61.1159 59.9898 60.9717 59.7168C60.8435 59.4598 60.6192 59.2349 60.507 59.2349C60.3948 59.2349 60.1545 59.0422 59.9942 58.8173C59.834 58.5764 59.5936 58.3034 59.4814 58.207C59.1129 57.9018 58.7443 57.5324 58.4719 57.2112C58.3277 57.0506 58.0553 56.7936 57.8951 56.6651C57.7188 56.5366 57.4945 56.2636 57.3823 56.0708C57.2861 55.862 57.0939 55.7014 56.9657 55.7014C56.8535 55.7014 56.5971 55.4444 56.4048 55.1393C56.2125 54.8341 55.9882 54.5771 55.9081 54.5771C55.6837 54.5771 55.1229 54.0471 55.1229 53.8222C55.1229 53.6937 54.9466 53.517 54.7223 53.4207C53.6487 52.9388 54.4339 52.8907 65.4905 52.8425C76.483 52.8103 76.5471 52.8103 76.9798 53.1476C77.2041 53.3243 77.3964 53.5652 77.3964 53.6777C77.3964 53.7901 77.5727 53.9828 77.797 54.0953C78.0213 54.2238 78.3578 54.561 78.5341 54.8501C78.7104 55.1393 78.9667 55.3802 79.0949 55.3802C79.2231 55.3802 79.4795 55.6372 79.6558 55.9423C79.8481 56.2475 80.0724 56.5045 80.1686 56.5045C80.3608 56.5045 82.2036 58.4158 82.2036 58.6246C82.2036 58.6888 82.2837 58.7531 82.3959 58.7531C82.5882 58.7531 83.4855 59.7007 83.4855 59.9095C83.4855 59.9738 83.5496 60.038 83.6458 60.038C83.8381 60.038 85.7289 61.9493 85.7289 62.1581C85.7289 62.2224 85.809 62.2866 85.9052 62.2866C86.0975 62.2866 87.9723 64.1979 87.9723 64.4067C87.9723 64.471 88.0845 64.5352 88.2127 64.5352C88.5492 64.5352 88.5171 64.8564 88.1806 64.8725C87.2672 64.9367 78.438 64.9207 72.7494 64.8564Z" fill="#9B2149"/>
<path d="M13.3961 64.5033C13.5564 64.3105 16.2484 61.5962 19.3411 58.4802C23.7797 54.0312 25.0777 52.8105 25.3982 52.8105C25.6866 52.8105 25.7988 52.8909 25.7988 53.1318C25.7988 53.3085 25.7026 53.453 25.5905 53.453C25.4783 53.453 25.302 53.5976 25.1899 53.7742C25.0777 53.9509 24.8854 54.0955 24.7572 54.0955C24.629 54.0955 24.5169 54.1918 24.5169 54.3043C24.5169 54.5612 23.6836 55.3804 23.4272 55.3804C23.3151 55.3804 23.2349 55.4607 23.2349 55.541C23.2349 55.798 22.2575 56.8259 22.0011 56.8259C21.8889 56.8259 21.7928 56.9223 21.7928 57.0347C21.7928 57.2596 20.1263 58.9139 19.9179 58.9139C19.8378 58.9139 19.7096 59.0745 19.6295 59.2833C19.5334 59.476 19.309 59.7009 19.1167 59.7973C18.9084 59.8776 18.7482 60.0382 18.7482 60.1346C18.7482 60.3594 17.8989 61.1625 17.6585 61.1625C17.5464 61.1625 17.4663 61.2267 17.4663 61.3231C17.4663 61.564 16.7932 62.2868 16.5529 62.2868C16.4407 62.2868 16.3446 62.3671 16.3446 62.4635C16.3446 62.5598 15.8638 63.1381 15.271 63.7484C14.3416 64.696 14.1012 64.8566 13.6365 64.8566H13.0917L13.3961 64.5033Z" fill="#9B2149"/>
<path d="M62.1735 64.6318C62.1735 64.5033 61.9972 64.3587 61.7729 64.3105C61.3563 64.1981 61.148 63.7163 61.2441 63.1059C61.2922 62.8007 61.4364 62.8971 62.3338 63.8126L63.3593 64.8566H62.7664C62.3658 64.8566 62.1735 64.7763 62.1735 64.6318Z" fill="#9B2149"/>
<path d="M57.0137 59.7008C56.8535 59.6205 56.7253 59.3956 56.7253 59.235C56.7253 59.0583 56.6452 58.9138 56.549 58.9138C56.4529 58.9138 56.2766 58.8174 56.1644 58.7211C56.0363 58.6086 55.8279 58.4159 55.6837 58.3035C55.5555 58.191 55.4434 57.8377 55.4434 57.5164V56.9382L56.4529 57.8859C56.9977 58.3998 57.6547 59.0744 57.895 59.3635L58.3597 59.8775H57.8149C57.5265 59.8775 57.1579 59.7972 57.0137 59.7008Z" fill="#9B2149"/>
<path d="M52.7193 55.9103C52.7193 55.2518 52.8956 54.7378 53.1039 54.7378C53.216 54.7378 53.5365 54.9948 53.841 55.2999L54.3858 55.8621H53.9532C53.6807 55.8621 53.5205 55.9424 53.5205 56.103C53.5205 56.2476 53.3763 56.3439 53.1199 56.3439C52.7834 56.3439 52.7193 56.2636 52.7193 55.9103Z" fill="#9B2149"/>
<path d="M24.5008 48.49C24.2765 48.2651 24.0361 47.9439 23.9881 47.7833C23.924 47.6387 23.6996 47.4299 23.4913 47.3496C23.267 47.2693 22.9785 46.9802 22.8343 46.7072C22.7061 46.4502 22.4818 46.2253 22.3376 46.2253C22.2094 46.2253 21.953 45.9683 21.7767 45.6632C21.6005 45.358 21.312 45.0689 21.1358 45.0207C20.9755 44.9725 20.7191 44.7316 20.5749 44.4907C20.4467 44.2498 20.1102 43.9285 19.8538 43.784C19.5975 43.6234 19.3891 43.3985 19.3891 43.27C19.3891 43.1255 19.1808 42.9167 18.9084 42.7721C18.652 42.6436 18.3155 42.3063 18.1873 42.0493C18.0431 41.7763 17.8348 41.5675 17.6906 41.5675C17.5624 41.5675 17.306 41.3105 17.1297 41.0053C16.9535 40.7002 16.665 40.4111 16.4888 40.3629C16.3285 40.2986 16.0722 40.0577 15.96 39.8168C15.8318 39.5759 15.5434 39.3028 15.319 39.1904C15.0787 39.094 14.8223 38.821 14.7101 38.5961C14.614 38.3873 14.4057 38.1625 14.2454 38.1143C13.973 38.0179 13.3 37.2309 13.3 37.006C13.3 36.9579 18.2995 36.9097 24.4047 36.9097H35.4934L36.7753 38.1946C37.4803 38.9173 38.7783 40.1862 39.6436 41.0535C40.5249 41.9048 41.3101 42.7079 41.4063 42.8363C41.5024 42.9488 42.0152 43.4627 42.5279 43.9606C43.0567 44.4586 43.5535 44.9565 43.6496 45.0689C44.0502 45.5668 45.6526 47.189 45.7328 47.189C45.8449 47.189 47.1749 48.6185 47.239 48.8112C47.2711 48.8915 42.592 48.9558 36.1023 48.9397L24.9175 48.9236L24.5008 48.49Z" fill="#9B2149"/>
<path d="M75.794 48.6505C75.794 48.4739 75.8741 48.2811 75.9703 48.2329C76.0504 48.1687 76.1946 47.9438 76.2747 47.735C76.3709 47.5102 76.5632 47.3496 76.7394 47.3496C76.9317 47.3496 77.14 47.1408 77.3003 46.8035C77.4765 46.418 77.7009 46.2253 78.0214 46.145C78.3899 46.0646 78.5181 45.9201 78.5982 45.5667C78.6623 45.2616 78.8546 45.0206 79.0789 44.9403C79.2873 44.86 79.5436 44.587 79.6718 44.3461C79.8161 44.057 80.0244 43.8803 80.2968 43.8482C80.6173 43.816 80.7615 43.6715 80.8576 43.286C80.9698 42.9166 81.1461 42.7399 81.5146 42.6275C81.8992 42.5311 82.0434 42.3866 82.0755 42.0653C82.1075 41.7762 82.2357 41.6317 82.4761 41.5996C82.6844 41.5674 82.9247 41.3265 83.0689 41.0053C83.2132 40.7001 83.5336 40.3628 83.758 40.2504C83.9983 40.138 84.2868 39.8649 84.3829 39.6561C84.4951 39.4473 84.7355 39.2064 84.9438 39.094C85.1521 38.9976 85.4245 38.7085 85.5367 38.4676C85.6809 38.1785 85.8732 38.0339 86.1135 38.0339C86.3859 38.0339 86.5141 37.9054 86.6263 37.52C86.7705 37.022 86.8346 36.9899 87.6038 36.9417L88.437 36.8936L86.2097 39.1422C84.9758 40.395 83.9022 41.4068 83.8061 41.4068C83.7259 41.4068 83.6458 41.4711 83.6458 41.5514C83.6458 41.7602 77.7489 47.6708 77.5567 47.6708C77.4605 47.6708 77.3964 47.7511 77.3964 47.8635C77.3964 47.976 77.2041 48.2651 76.9638 48.506C76.451 49.036 75.794 49.1163 75.794 48.6505Z" fill="#9B2149"/>
<path d="M52.9917 46.948C52.7193 46.7553 52.7033 46.1289 52.7193 36.3153C52.7193 30.5975 52.7513 25.7469 52.7834 25.5542C52.8955 24.976 53.3442 24.2532 53.6487 24.1568C53.8089 24.1086 54.0653 23.8356 54.2255 23.5625C54.3858 23.3056 54.6902 23.0004 54.8986 22.904C55.1069 22.8077 55.3152 22.5989 55.3793 22.4222C55.4273 22.2616 55.6677 22.0206 55.9081 21.9082C56.1484 21.7797 56.4208 21.4906 56.533 21.2658C56.6292 21.0248 56.9016 20.7679 57.1259 20.6554C57.3502 20.5591 57.5265 20.4145 57.5265 20.3503C57.5265 20.2699 58.2476 19.5151 59.1289 18.6477C59.9942 17.7804 60.7954 16.9934 60.9076 16.881C61.0037 16.7846 61.7088 16.0458 62.494 15.2588C64.0643 13.6526 64.4329 13.3796 64.7053 13.6526C64.9457 13.8935 64.9777 34.7574 64.7534 35.3356C64.5771 35.7692 63.2311 37.2308 62.9907 37.2308C62.9106 37.2308 62.7023 37.4396 62.5581 37.6966C62.3978 37.9536 62.1094 38.2427 61.9011 38.3391C61.7088 38.4355 61.5325 38.58 61.5325 38.6442C61.5325 38.853 60.7794 39.6401 60.5871 39.6401C60.491 39.6401 60.3307 39.8007 60.2346 39.9934C59.9942 40.4592 59.7699 40.668 59.4173 40.8125C59.2571 40.8607 59.1289 40.9732 59.1289 41.0535C59.1289 41.2462 54.9787 45.4222 54.7864 45.4222C54.7063 45.4222 54.562 45.5989 54.4659 45.8077C54.3698 46.0165 54.1134 46.2895 53.889 46.4019C53.6647 46.5304 53.4404 46.7392 53.3763 46.8998C53.2961 47.1247 53.232 47.1247 52.9917 46.948Z" fill="#9B2149"/>
<path d="M10.656 34.5486C10.4477 34.4362 10.2233 34.1953 10.1753 34.0186C10.1112 33.8419 9.85479 33.585 9.59841 33.4404C9.34202 33.3119 9.03757 33.0228 8.94142 32.814C8.84528 32.5892 8.70106 32.4125 8.63696 32.4125C8.44467 32.4125 6.56985 30.5493 6.56985 30.3566C6.56985 30.2602 6.36154 30.0675 6.08913 29.923C5.83275 29.7784 5.60841 29.5696 5.60841 29.425C5.60841 29.2966 5.35202 29.0396 5.04757 28.8629C4.74311 28.6862 4.45467 28.3971 4.4066 28.2204C4.34251 28.0598 4.08612 27.8028 3.82973 27.6583C3.57335 27.5298 3.28492 27.2407 3.20479 27.0158C3.12467 26.807 2.86829 26.55 2.64395 26.4697C2.41961 26.3894 2.17925 26.1806 2.13118 26.0361C2.00299 25.6827 1.82672 25.5061 1.24985 25.1366C0.993469 24.976 0.80118 24.7672 0.80118 24.6548C0.80118 24.5424 0.656963 24.3336 0.480698 24.173C0.0480478 23.8035 0.0800959 23.4502 0.576843 23.0005L0.977445 22.615H11.1047H21.2479L23.8118 25.1688C25.2379 26.5822 26.5199 27.9153 26.6641 28.1401C26.8083 28.365 26.9846 28.5577 27.0647 28.5577C27.2409 28.5577 32.1123 33.4565 32.4488 33.9544C32.577 34.1632 32.8013 34.3398 32.9455 34.3398C33.0897 34.3398 33.1699 34.4362 33.1218 34.5486C33.0256 34.8378 11.2168 34.8378 10.656 34.5486Z" fill="#9B2149"/>
<path d="M90.8566 33.7777C90.8566 33.4725 90.9207 33.2155 91.0008 33.2155C91.0809 33.2155 91.2252 33.0067 91.3213 32.7337C91.4014 32.4607 91.5937 32.2519 91.7379 32.2519C92.0744 32.2519 92.459 31.8664 92.459 31.5452C92.459 31.4167 92.6994 31.1918 93.0038 31.0472C93.3403 30.8866 93.5807 30.6457 93.6127 30.4369C93.6448 30.2442 93.8691 29.9872 94.1095 29.8748C94.3499 29.7463 94.6223 29.4732 94.7024 29.2644C94.8306 28.9593 94.9748 28.879 95.4235 28.879C95.9523 28.879 95.9843 28.8468 95.9843 28.3168C95.9843 27.851 96.0644 27.7386 96.5291 27.5137C96.8656 27.3531 97.106 27.1122 97.138 26.9034C97.1701 26.7107 97.3303 26.534 97.4906 26.5019C97.8912 26.4216 98.2277 26.0843 98.2277 25.763C98.2277 25.6345 98.468 25.4097 98.7725 25.2651C99.109 25.1045 99.3974 24.8154 99.4936 24.5263C99.5737 24.2693 99.75 24.0605 99.8782 24.0605C100.006 24.0605 100.199 23.9481 100.311 23.8196C100.487 23.6108 99.4455 23.5787 91.0329 23.5787H81.5626V23.1932C81.5626 22.9362 81.6748 22.7756 81.9312 22.7114C82.5721 22.5507 100.663 22.5989 100.551 22.7756C100.503 22.872 100.567 22.9362 100.695 22.9362C100.936 22.9362 101.497 23.8838 101.352 24.0284C101.304 24.0766 101.272 24.0605 101.272 23.9802C101.272 23.8999 101.016 24.189 100.695 24.5905C100.375 25.0081 100.006 25.3454 99.8942 25.3454C99.766 25.3454 99.6699 25.4097 99.6699 25.506C99.6699 25.6988 96.3529 29.0396 96.1606 29.0396C96.0805 29.0396 95.9843 29.1841 95.9362 29.3769C95.8882 29.5535 95.6959 29.7463 95.5196 29.7945C95.3273 29.8426 95.1831 29.939 95.1831 30.0033C95.1831 30.1478 91.0809 34.3398 90.9367 34.3398C90.8886 34.3398 90.8566 34.0829 90.8566 33.7777Z" fill="#9B2149"/>
<path d="M66.7404 33.0227C66.6923 32.8139 66.6763 27.7706 66.6923 21.7958L66.7404 10.9382L68.4229 9.29996C69.3523 8.41658 70.1535 7.62956 70.2176 7.56532C70.3618 7.38864 72.2046 5.54158 72.4129 5.34884C72.509 5.26853 73.3102 4.4494 74.1916 3.54996C75.0729 2.63445 75.8581 1.89563 75.9382 1.89563C76.0183 1.89563 76.1305 1.75107 76.1946 1.5744C76.2426 1.39772 76.499 1.14074 76.7714 0.980123C77.0278 0.819508 77.2842 0.578586 77.3323 0.417972C77.4605 0.000374155 78.0053 -0.112056 78.3739 0.225234C78.6623 0.498279 78.6783 0.83557 78.6783 11.0346V21.5709L77.2201 23.0646C76.4349 23.8677 75.7139 24.5423 75.6337 24.5423C75.5536 24.5423 75.4094 24.6868 75.3133 24.8635C75.2171 25.0402 74.7684 25.522 74.3198 25.9396C73.2301 26.9515 73.0378 27.1603 72.7494 27.5618C72.6212 27.7546 72.461 27.9152 72.3808 27.9152C72.2526 27.9152 70.6663 29.441 70.6663 29.5695C70.6663 29.6498 68.8555 31.4808 67.5576 32.7015C66.8525 33.36 66.8205 33.3761 66.7404 33.0227Z" fill="#9B2149"/>
<path d="M36.6791 32.541C36.6311 30.6778 36.615 13.5242 36.6631 13.4278C36.8234 13.0745 38.1854 14.2951 42.9285 19.0493C48.8254 24.9599 49.1619 25.3454 48.3928 25.3454C47.9281 25.3454 47.2711 24.8796 47.2711 24.5584C47.2711 24.4139 47.0467 24.2051 46.7743 24.0766C46.5019 23.9641 46.2455 23.7393 46.1814 23.5947C46.0853 23.3056 45.3963 22.615 45.204 22.615C45.1399 22.615 44.9957 22.4544 44.8835 22.2456C44.7713 22.0368 44.4669 21.7477 44.2105 21.587C43.9541 21.4425 43.7458 21.2176 43.7458 21.1052C43.7458 20.9767 43.6336 20.8482 43.5054 20.784C43.3772 20.7358 43.265 20.543 43.265 20.3664C43.265 20.1576 43.1529 20.0451 42.9446 20.0451C42.7843 20.0451 42.576 19.9488 42.5119 19.8363C42.4478 19.7079 42.1914 19.483 41.935 19.3224C41.6947 19.1778 41.4543 18.8887 41.4063 18.696C41.3582 18.5032 41.1178 18.2623 40.8454 18.166C40.589 18.0696 40.3807 17.8929 40.3807 17.7644C40.3807 17.652 40.2205 17.4271 40.0282 17.2826C39.3552 16.7686 37.9771 15.4034 37.9771 15.2267C37.9771 15.1464 37.913 15.0661 37.8169 15.0661C37.7367 15.0661 37.6566 14.9537 37.6566 14.8252C37.6566 14.6967 37.5925 14.5843 37.4964 14.5843C37.3842 14.5843 37.3361 17.7965 37.3361 23.8999C37.3361 33.1031 37.3361 33.2155 37.0157 33.2155C36.7432 33.2155 36.6952 33.1031 36.6791 32.541Z" fill="#9B2149"/>
<path d="M34.1313 11.388C34.1313 11.3077 33.9871 11.1792 33.8109 11.131C33.6346 11.0828 33.4583 10.874 33.3942 10.6813C33.3462 10.4885 33.0737 10.2155 32.8013 10.0709C32.4648 9.91033 32.2725 9.68547 32.2405 9.41243C32.2084 9.10726 32.0803 8.97877 31.7117 8.89846C31.4393 8.85027 31.1669 8.65754 31.0707 8.43268C30.9746 8.22388 30.6862 7.93477 30.4298 7.77416C30.1253 7.59748 29.9651 7.37262 29.9651 7.09958C29.9651 6.82653 29.8689 6.7141 29.6606 6.7141C29.3081 6.7141 28.5229 6.02346 28.5229 5.70223C28.5229 5.57374 28.3466 5.41312 28.1223 5.36494C27.898 5.30069 27.7217 5.18826 27.7217 5.09189C27.7217 4.8831 27.4653 4.64217 26.8884 4.2567C26.6321 4.09608 26.4398 3.90335 26.4398 3.79092C26.4398 3.61424 25.8309 3.01997 25.6386 3.01997C25.5745 3.01997 25.4463 2.85935 25.3341 2.65055C25.2219 2.44176 24.9175 2.15265 24.6611 1.99203C24.4047 1.84748 24.1964 1.60656 24.1964 1.47807C24.1964 1.34958 24.1323 1.25321 24.0362 1.25321C23.956 1.25321 23.8759 0.996225 23.8759 0.691057C23.8759 0.385889 23.908 0.128906 23.956 0.128906C24.1483 0.128906 34.9325 11.0828 34.9325 11.2916C34.9325 11.4362 34.7723 11.5325 34.5319 11.5325C34.3076 11.5325 34.1313 11.4683 34.1313 11.388Z" fill="#9B2149"/>
<path d="M77.7168 101.557C77.7168 101.428 77.6367 101.316 77.5406 101.316C77.4605 101.316 77.4284 101.412 77.4925 101.525C77.5566 101.621 77.5566 101.669 77.4765 101.605C77.4124 101.541 77.2682 101.316 77.172 101.123C77.0599 100.914 76.8836 100.754 76.7554 100.754C76.6272 100.754 76.515 100.641 76.515 100.513C76.515 100.175 74.0313 97.7663 73.807 97.8947C73.7108 97.9429 73.6788 97.9429 73.7429 97.8787C73.7909 97.8144 73.7268 97.6056 73.5826 97.429C73.0859 96.8347 70.1535 93.9276 70.0253 93.9276C69.9772 93.9276 69.817 93.7509 69.7048 93.526C69.5926 93.3172 69.3683 93.0924 69.2401 93.0442C69.0959 92.996 68.8395 92.739 68.6793 92.466C68.503 92.1769 68.3107 92.0163 68.1665 92.0644C68.0383 92.1126 67.9421 92.0644 67.9421 91.952C67.9421 91.8396 67.6537 91.422 67.3012 91.0365L66.6602 90.3298L66.6762 79.7132C66.6923 73.8829 66.7564 68.9359 66.8205 68.7111C66.9487 68.3256 66.9967 68.3256 67.0448 68.7593C67.0608 68.8556 67.1409 68.9359 67.2211 68.9199C67.3172 68.9199 67.4774 69.0002 67.5896 69.1287C67.7018 69.2572 67.7499 69.3535 67.7018 69.3535C67.6377 69.3535 67.9421 69.6426 68.3427 69.996C68.7433 70.3494 69.0318 70.6385 68.9517 70.6385C68.8876 70.6385 69.0799 70.8151 69.3843 71.0239C70.0253 71.4576 71.2271 72.7425 71.179 72.9352C71.163 72.9995 71.2111 73.0477 71.3072 73.0477C71.3873 73.0477 72.2206 73.8026 73.166 74.7341C74.0954 75.6657 74.8005 76.4206 74.7364 76.4206C74.6562 76.4206 74.7844 76.5491 74.9927 76.6936C75.6978 77.1755 77.7168 79.2153 77.7168 79.4401C77.7168 79.5526 77.7809 79.6168 77.8611 79.5526C77.9412 79.5044 78.1655 79.665 78.3578 79.9059C78.6623 80.2914 78.6783 80.3556 78.454 80.4038C78.1495 80.4681 78.1174 80.8535 78.4059 80.966C78.5661 81.0302 78.5661 81.0623 78.4059 81.0623C78.2777 81.0784 78.1976 81.3354 78.1976 81.7851C78.1976 82.2027 78.2777 82.5239 78.4059 82.5721C78.5661 82.6364 78.5661 82.6685 78.4059 82.6685C78.1335 82.6845 78.1014 100.288 78.3578 100.384C78.454 100.416 78.5501 100.657 78.5661 100.914C78.5982 101.332 78.5501 101.396 78.2456 101.348C77.8611 101.3 77.7329 101.557 78.0854 101.685C78.1976 101.733 78.1655 101.782 78.0053 101.782C77.845 101.798 77.7168 101.685 77.7168 101.557Z" fill="#631032"/>
<path d="M63.872 87.6154C63.7278 87.4066 63.4394 87.1336 63.2151 87.0211C62.9907 86.9087 62.7824 86.6678 62.7183 86.5072C62.6702 86.3305 62.526 86.2341 62.3978 86.2823C62.2857 86.3305 62.1895 86.3144 62.2216 86.2502C62.2857 86.0253 61.4364 85.1419 60.7634 84.7083C60.3948 84.4834 60.0904 84.1782 60.0904 84.0498C60.0904 83.9213 59.9942 83.7607 59.882 83.6964C59.7539 83.6322 59.5455 83.3752 59.4013 83.1503C59.2411 82.9255 58.9526 82.6524 58.7443 82.54C58.536 82.4276 58.2636 82.1545 58.1514 81.9457C58.0393 81.7208 57.847 81.5924 57.7348 81.6245C57.6226 81.6727 57.5425 81.6566 57.5746 81.5924C57.6226 81.4317 57.3823 81.1587 55.7158 79.4562C54.9306 78.6692 54.2255 78.0588 54.1454 78.1231C54.0653 78.1713 54.0012 78.1231 54.0012 78.0267C54.0012 77.8661 53.9051 77.7215 53.3602 77.0791C52.7032 76.3081 52.7193 76.4527 52.7193 65.9806C52.7193 59.3472 52.7673 55.8619 52.8795 55.8619C52.9757 55.8619 53.0398 55.6531 53.0398 55.4122C53.0398 55.1552 53.0878 54.8982 53.1359 54.85C53.2801 54.7215 56.2446 57.6608 56.1484 57.8214C56.1004 57.8857 56.1324 57.9499 56.1965 57.9499C56.4369 57.9499 57.3663 58.7851 57.2701 58.9296C57.2381 58.9939 57.3983 59.1706 57.6387 59.2991C58.2316 59.6042 62.0453 63.4911 61.9011 63.6196C61.853 63.6838 61.8851 63.732 61.9972 63.732C62.2857 63.732 64.529 65.9485 64.7213 66.4303C64.8495 66.7355 64.8816 69.9157 64.8655 77.2076L64.8175 87.5512L64.4649 87.776C64.1445 87.9848 64.0964 87.9688 63.872 87.6154Z" fill="#631032"/>
<path d="M10.8964 78.9905C5.30398 78.9423 0.608918 78.8459 0.448677 78.7817C-0.288431 78.4122 -0.0640936 78.1231 4.02205 74.0435C6.21735 71.8431 7.96398 69.996 7.88386 69.9157C7.81976 69.8354 7.85181 69.8194 7.93193 69.8836C8.02807 69.9318 8.74916 69.3215 9.53434 68.5344L10.9605 67.105H21.7287C31.1028 67.105 32.5129 67.1371 32.6892 67.3459C32.8334 67.5226 32.8334 67.5868 32.7052 67.5868C32.593 67.5868 32.561 67.6671 32.6251 67.7796C32.6892 67.892 32.6731 67.9081 32.5449 67.8438C32.4488 67.7796 32.3206 67.8438 32.2565 68.0044C32.1283 68.3578 22.0171 78.5086 21.4723 78.8298C21.1198 79.0386 19.7577 79.0547 10.8964 78.9905Z" fill="#631032"/>
<path d="M13.8128 64.2621C14.1333 63.9248 14.7742 63.2824 15.2069 62.8166C15.6555 62.3508 16.0241 61.9011 16.0241 61.8047C16.0241 61.7244 16.0722 61.6602 16.1523 61.6762C16.3286 61.7405 18.2675 59.8292 18.2675 59.6043C18.2675 59.4919 18.3796 59.3955 18.5078 59.3955C18.636 59.3955 18.9565 59.0903 19.2289 58.7209C19.4853 58.3676 19.7096 58.1266 19.7096 58.1909C19.7096 58.2551 20.6871 57.3396 21.8729 56.1511C23.0587 54.9465 24.0361 53.9025 24.0361 53.8061C24.0361 53.7258 24.1804 53.6134 24.3726 53.5652C24.5489 53.517 24.7412 53.3243 24.7893 53.1476C24.8694 52.8264 24.9175 52.8264 35.9741 52.8103C42.4959 52.8103 47.1269 52.8745 47.1749 52.9549C47.223 53.0352 44.6431 55.7495 41.4223 58.9779L35.5735 64.8564H24.4047H13.2359L13.8128 64.2621Z" fill="#631032"/>
<path d="M54.4178 48.8431C54.3057 48.7307 54.4499 48.57 56.1004 46.9478C56.6292 46.4178 57.158 45.8878 57.2541 45.7753C57.3663 45.6629 57.6226 45.4059 57.831 45.2132C58.0393 45.0205 58.3277 44.7153 58.4719 44.5547C58.6161 44.3941 58.8725 44.1371 59.0328 43.9925C59.193 43.848 59.4494 43.607 59.5936 43.4304C60.2506 42.6755 61.5646 41.4066 61.6928 41.4066C61.7729 41.4066 61.9652 41.1978 62.1094 40.9408C62.2696 40.6839 62.5581 40.3787 62.7664 40.2663C62.9587 40.1538 63.167 39.9611 63.2151 39.8165C63.2631 39.672 63.4554 39.4471 63.6477 39.3186C63.824 39.1901 64.0964 38.9492 64.2406 38.7886C64.3848 38.628 64.8335 38.1301 65.2501 37.6964L66.0033 36.9094H76.9958C86.8025 36.9094 88.7895 36.9737 87.6839 37.2628C87.5076 37.311 87.2192 37.6964 87.0108 38.114C86.7705 38.5959 86.6102 38.8047 86.5301 38.6762C86.466 38.5638 86.3218 38.5316 86.2257 38.5798C86.1295 38.6441 86.0814 38.7726 86.1455 38.8529C86.2417 39.0295 85.6007 39.6238 85.2802 39.6399C85.1681 39.6399 85.0239 39.7684 84.9758 39.929C84.8155 40.3787 84.3829 40.8445 84.1265 40.8445C84.0143 40.8445 83.7259 41.1818 83.5016 41.5994C83.2772 42.033 83.0529 42.29 82.9888 42.1776C82.8446 41.9527 82.5241 42.1615 82.5241 42.4988C82.5241 42.804 82.0754 43.2537 81.7549 43.2537C81.6588 43.2537 81.4345 43.5107 81.2742 43.8158C81.0979 44.1692 80.8896 44.378 80.6813 44.378C80.489 44.378 80.2807 44.5547 80.1525 44.8438C80.0243 45.1008 79.784 45.3417 79.6077 45.3899C79.4475 45.422 79.2071 45.7111 79.0789 46.0002C78.9347 46.3536 78.7104 46.5784 78.4379 46.6427C78.1976 46.7069 77.9412 46.8996 77.8611 47.0924C77.5566 47.767 77.2361 48.2327 77.2361 48.0239C77.2361 47.8955 77.14 47.8312 77.0439 47.8794C76.9317 47.9115 76.8516 48.04 76.8836 48.1364C76.8996 48.2488 76.7554 48.4737 76.5631 48.6343C76.2106 48.9395 75.7619 48.9395 65.3623 48.9555C59.4013 48.9555 54.4819 48.9073 54.4178 48.8431Z" fill="#631032"/>
<path d="M48.1364 46.8676C47.9761 46.707 46.6301 45.3578 45.1399 43.8962C43.6656 42.4185 42.3837 41.0854 42.3036 40.9088C42.2074 40.7482 42.0632 40.6036 41.9831 40.6036C41.8549 40.6036 38.8264 37.6322 37.6246 36.3313C37.4643 36.1546 37.1919 35.8815 36.9996 35.7049C36.6791 35.3997 36.6631 35.2712 36.7432 33.5687C36.7913 32.4926 36.7753 31.8019 36.6791 31.8662C36.599 31.9144 36.5349 31.834 36.5349 31.7056C36.5349 31.561 36.615 31.4486 36.6952 31.4486C36.8073 31.4486 36.8554 28.3648 36.8554 22.5345C36.8554 13.6846 36.8554 13.6204 37.1759 13.6204C37.3521 13.6204 37.5444 13.7328 37.5925 13.8613C37.6566 13.9898 37.7527 14.0701 37.8168 14.0219C37.897 13.9737 37.9931 14.0861 38.0572 14.2628C38.1053 14.4395 38.2335 14.584 38.3136 14.584C38.3937 14.584 38.4578 14.6965 38.4578 14.825C38.4578 15.098 39.0026 15.4192 39.1789 15.2586C39.259 15.1944 39.259 15.2265 39.2109 15.3229C39.0827 15.5477 39.6276 16.0778 39.8199 15.9171C39.8839 15.8368 39.9 15.9171 39.8359 16.0938C39.7558 16.3187 39.8038 16.3669 39.9801 16.2866C40.1243 16.2384 40.2044 16.2544 40.1564 16.3187C40.0602 16.4793 40.6211 16.9933 40.8774 16.9933C40.9736 16.9933 41.0217 17.1057 40.9576 17.2342C40.9095 17.3787 41.0056 17.5394 41.23 17.6518C41.6786 17.8927 42.1433 18.3746 42.0472 18.487C41.9991 18.5352 42.0953 18.6476 42.2715 18.744C42.4478 18.8403 42.7202 19.0491 42.8805 19.1937C43.0407 19.3543 43.233 19.4828 43.3291 19.4828C43.4253 19.4828 43.5855 19.6595 43.6817 19.8683C43.7938 20.0771 44.0021 20.318 44.1303 20.3983C44.2746 20.4786 44.3547 20.6071 44.3066 20.6874C44.2265 20.8159 44.7392 21.2014 44.8835 21.1211C44.9155 21.105 44.9315 21.1211 44.9155 21.1532C44.8835 21.1853 45.0437 21.378 45.268 21.5708C45.4764 21.7796 45.6046 21.9884 45.5405 22.0687C45.4764 22.1329 45.5725 22.1329 45.7488 22.0687C45.925 22.0044 46.0212 22.0044 45.9571 22.0526C45.8289 22.1811 46.4058 22.7754 46.6301 22.7754C46.7262 22.7754 46.7903 22.9039 46.7583 23.0645C46.7262 23.2412 46.8064 23.3375 46.9826 23.3215C47.1429 23.3054 47.239 23.3536 47.1909 23.4178C47.1429 23.4821 47.3031 23.6588 47.5114 23.8033C47.7358 23.9479 47.88 24.1246 47.8479 24.2049C47.7999 24.2691 47.9761 24.494 48.2485 24.6867L48.7292 25.0401L48.6972 36.0421C48.6812 42.0813 48.6171 47.0603 48.553 47.1085C48.4889 47.1406 48.2966 47.0442 48.1364 46.8676Z" fill="#631032"/>
<path d="M68.6152 34.7894C68.4069 34.5806 68.2627 34.7412 71.7559 31.2077C73.1981 29.7461 74.4319 28.5575 74.5121 28.5575C74.5922 28.5575 74.7524 28.3969 74.8486 28.2042C75.0889 27.7384 75.5697 27.2565 75.6818 27.369C75.7299 27.4172 75.8421 27.3047 75.9542 27.128C76.1145 26.8229 77.156 25.7307 77.9733 25.0079C78.1495 24.8634 78.3899 24.6064 78.5181 24.4297C78.6463 24.2691 79.111 23.8194 79.5436 23.45C80.2487 22.8396 80.4089 22.7754 81.1781 22.7754C81.6588 22.7754 82.0434 22.8557 82.0434 22.936C82.0434 23.0484 85.1681 23.0966 91.5297 23.0966C96.7375 23.0806 101.048 23.1448 101.112 23.209C101.32 23.4339 101.481 24.1085 101.304 23.9961C101.208 23.9479 101 24.0603 100.84 24.2691C100.679 24.4779 100.455 24.6225 100.343 24.5743C100.247 24.5422 100.103 24.6546 100.038 24.8152C99.8942 25.2489 99.4776 25.6825 99.077 25.8431C98.8527 25.9234 98.7085 26.1162 98.7085 26.3089C98.7085 26.4856 98.6444 26.6301 98.5642 26.6301C98.4841 26.6301 98.3559 26.7908 98.3079 26.9674C98.2277 27.2244 98.1636 27.2565 98.0675 27.112C97.9233 26.8711 97.5868 27.0317 97.5868 27.369C97.5868 27.6581 97.09 28.156 96.7856 28.156C96.6574 28.156 96.5292 28.3005 96.4971 28.4772C96.417 28.8787 95.9203 29.3606 95.5838 29.3606C95.4556 29.3606 95.2633 29.5373 95.1832 29.7461C95.103 29.9549 94.8466 30.2279 94.5903 30.3564C94.3499 30.4688 94.1256 30.7097 94.0935 30.8864C94.0454 31.0631 93.9333 31.2719 93.8051 31.3361C93.6769 31.4004 93.5807 31.5931 93.5807 31.7377C93.5807 31.9625 93.5487 31.9625 93.4365 31.7859C93.2603 31.4968 92.9398 31.7056 92.9398 32.1071C92.9398 32.2677 92.8757 32.4123 92.8116 32.4123C92.7315 32.4123 92.5872 32.5729 92.4911 32.7817C92.395 32.9744 92.3148 33.0387 92.3148 32.9423C92.2828 32.5568 91.9623 32.7335 91.8021 33.2153C91.7059 33.4884 91.5617 33.6972 91.4816 33.6972C91.4015 33.6972 91.3374 33.8096 91.3374 33.9381C91.3374 34.0666 91.0169 34.3557 90.6483 34.5806L89.9433 34.9821H79.3834C71.5957 34.9821 68.7594 34.9339 68.6152 34.7894Z" fill="#631032"/>
<path d="M34.2596 32.9262C34.0192 32.6852 33.6667 32.3319 33.4583 32.1392C32.8815 31.577 32.7373 31.4324 31.7277 30.4045C31.215 29.8745 30.6702 29.3284 30.542 29.1999C30.3977 29.0714 29.917 28.5735 29.4523 28.1077C28.9876 27.6259 28.4749 27.128 28.3306 26.9834C27.9781 26.6461 27.4012 26.0679 27.0487 25.6985C26.9045 25.554 26.6962 25.3612 26.6 25.2648C26.5039 25.1845 26.2635 24.9276 26.0552 24.7027C25.8469 24.4778 25.0617 23.7069 24.2926 22.9681L22.9145 21.6189V10.8898C22.9145 0.289289 22.9145 0.144736 23.235 0.0483672C23.6836 -0.0961859 24.1644 0.0965516 24.2765 0.449904C24.3246 0.610518 24.4849 0.787194 24.613 0.835378C24.7412 0.883563 24.8214 0.995993 24.7573 1.0763C24.6611 1.25298 25.2059 1.60633 25.3822 1.4939C25.4303 1.44571 25.4463 1.46178 25.3982 1.52602C25.3662 1.57421 25.4944 1.783 25.7187 1.97574C25.927 2.18454 26.0552 2.39334 26.0071 2.44152C25.943 2.48971 25.9751 2.53789 26.0712 2.53789C26.2796 2.53789 26.7923 3.01974 27.0167 3.42127C27.1288 3.59795 27.3211 3.72644 27.4653 3.72644C27.6096 3.71038 27.6897 3.7425 27.6416 3.80675C27.6096 3.87099 27.7538 4.04767 27.9621 4.20828C28.1864 4.3689 28.3146 4.56164 28.2826 4.64194C28.2345 4.70619 28.3467 4.80256 28.5229 4.8668C28.6992 4.93105 28.9556 5.15591 29.0677 5.39683C29.1959 5.63775 29.5965 6.00717 29.9491 6.23203C30.3176 6.45689 30.574 6.71387 30.542 6.8263C30.4939 6.92267 30.6541 7.13147 30.8945 7.29208C31.3912 7.61331 31.7277 7.93454 31.7758 8.11122C31.7918 8.17546 31.904 8.22365 32.0162 8.22365C32.1283 8.20759 32.1924 8.22365 32.1444 8.27183C32.0963 8.32002 32.2405 8.49669 32.4488 8.67337C32.6732 8.85004 32.8174 9.04278 32.7693 9.12309C32.7212 9.18733 32.8975 9.38007 33.1379 9.52463C33.6827 9.87798 34.1314 10.3438 34.0352 10.4562C33.9871 10.4883 34.1794 10.6007 34.4358 10.6971L34.9326 10.8738V22.0365C34.9326 28.172 34.8685 33.2313 34.8044 33.2795C34.7242 33.3277 34.4839 33.1671 34.2596 32.9262Z" fill="#631032"/>
</svg>
