<svg width="362" height="102" viewBox="0 0 362 102" fill="none" xmlns="http://www.w3.org/2000/svg">
<path d="M136.008 54.782C126.992 54.782 121.219 47.1 121.219 38.475C121.219 30.057 126.21 21.938 136.261 21.938C139.803 21.938 141.459 23.042 142.908 23.042C143.943 23.042 144.61 22.559 145.53 22.559C147.301 22.559 147.347 24.33 147.899 27.067C148.497 30.172 148.819 30.931 148.819 31.575C148.819 32.564 148.244 33.024 147.577 33.024C146.358 33.024 145.737 31.621 144.725 30.172C142.609 27.205 139.826 25.503 137.066 25.503C131.983 25.503 129.062 30.655 129.062 36.313C129.062 44.248 133.685 49.492 138.262 49.492C140.033 49.492 141.597 48.641 142.195 47.721C142.701 46.893 142.793 46.019 142.793 44.363C142.793 40.545 141.942 40.269 140.907 39.533C140.01 38.889 138.883 38.82 138.883 37.647C138.883 36.727 139.55 36.175 140.907 36.175C142.218 36.175 143.874 36.313 145.047 36.313C146.634 36.313 148.083 36.175 149.831 36.175C150.866 36.175 151.303 36.773 151.303 37.555C151.303 39.326 149.9 39.096 149.9 43.857C149.9 46.456 150.13 50.711 150.13 52.252C150.13 53.425 149.785 54.138 148.658 54.138C148.083 54.138 147.531 53.793 146.979 53.172C146.496 52.735 146.036 52.275 145.576 52.275C144.886 52.275 144.035 52.735 142.908 53.218C141.252 53.908 138.929 54.782 136.008 54.782ZM168.613 26.009C165.761 26.009 162.817 28.815 162.817 35.692C162.817 38.82 163.346 42.454 164.726 45.513C166.313 48.802 168.843 50.251 171.12 50.251C174.409 50.251 177.307 47.813 177.307 41.787C177.307 38.383 176.456 34.289 175.053 31.368C173.535 28.033 171.074 26.009 168.613 26.009ZM154.215 38.613C154.215 28.769 160.471 21.961 169.625 21.961C178.089 21.961 185.334 28.102 185.334 39.119C185.334 49.538 178.503 54.782 169.947 54.782C160.103 54.782 154.215 48.02 154.215 38.613ZM190.208 54.115C188.943 54.115 188.391 53.609 188.391 52.85C188.391 51.286 190.576 51.378 190.944 48.779C191.151 47.399 191.22 43.466 191.22 37.647C191.22 32.817 191.174 30.057 191.128 29.16C190.829 25.526 188.575 25.733 188.575 23.962C188.575 23.18 189.012 22.605 190.231 22.605C192.163 22.605 194.371 22.72 196.372 22.72C198.764 22.72 201.11 22.582 203.479 22.582C208.654 22.582 214.151 24.238 214.151 29.988C214.151 33.3 211.529 35.761 209.505 36.589C209.413 36.635 209.275 36.727 209.275 36.865C209.275 37.003 209.413 37.072 209.505 37.095C213.392 38.222 216.29 41.051 216.29 44.823C216.29 52.873 209.367 54.138 203.663 54.138C201.271 54.138 197.775 54 195.337 54C193.566 54 191.933 54.115 190.208 54.115ZM208.194 44.708C208.194 41.971 206.699 40.2 204.33 39.418C203.134 39.027 200.926 38.912 199.477 38.912C198.718 38.912 198.442 39.28 198.442 41.212V47.79C198.442 49.676 198.787 50.067 202.053 50.067C206.147 50.067 208.194 48.342 208.194 44.708ZM198.442 27.734V34.105C198.442 35.048 198.902 35.163 199.96 35.163C201.432 35.163 203.295 34.956 204.422 34.473C205.917 33.852 206.837 32.518 206.837 30.678C206.837 27.435 204.031 26.492 200.765 26.492C198.902 26.492 198.442 26.814 198.442 27.734ZM230.294 22.605C231.513 22.605 231.927 23.203 231.927 23.962C231.927 25.733 229.719 25.48 229.397 29.114C229.282 30.126 229.259 33.507 229.259 37.647C229.259 42.822 229.374 47.353 229.558 48.71C229.972 51.355 232.111 51.286 232.111 52.85C232.111 53.54 231.513 54.115 230.294 54.115C228.937 54.115 227.189 54 225.694 54C224.153 54 222.382 54.115 221.025 54.115C219.76 54.115 219.208 53.54 219.208 52.85C219.208 51.286 221.416 51.332 221.784 48.71C221.968 47.445 222.037 42.04 222.037 37.647C222.037 34.542 222.037 30.149 221.968 29.114C221.669 25.503 219.392 25.71 219.392 23.962C219.392 23.203 219.76 22.605 221.048 22.605C222.451 22.605 224.199 22.72 225.694 22.72C227.235 22.72 228.983 22.605 230.294 22.605ZM254.139 34.726V41.373C254.139 42.592 253.886 43.259 253.035 43.259C252.115 43.259 251.747 42.454 251.448 41.787C250.666 40.131 250.252 39.326 247.078 39.326C246.089 39.326 245.744 39.878 245.744 41.557V46.433C245.744 49.63 246.756 49.975 249.93 49.975C254.99 49.975 256.485 48.572 258.164 44.938C258.601 44.018 259.13 43.328 259.797 43.328C260.487 43.328 260.924 43.857 260.924 45.26C260.924 46.387 260.28 50.021 260.073 52.39C259.981 53.793 259.475 54.115 257.865 54.115C256.232 54.115 252.575 54 248.826 54C244.663 54 240.707 54.115 237.556 54.115C236.291 54.115 235.739 53.609 235.739 52.85C235.739 51.309 237.924 51.378 238.292 48.779C238.499 47.468 238.568 42.109 238.568 37.647C238.568 34.519 238.545 30.149 238.476 29.16C238.177 25.526 235.923 25.733 235.923 23.962C235.923 23.203 236.291 22.605 237.579 22.605C239.902 22.605 242.593 22.72 247.883 22.72C252.46 22.72 254.944 22.605 256.6 22.605C258.233 22.605 258.785 22.904 259.107 24.997C259.291 25.986 259.567 27.803 259.912 29.574C260.073 30.356 260.188 31.253 260.188 31.552C260.188 32.518 259.59 32.909 258.946 32.909C258.003 32.909 257.543 31.897 257.037 30.954C255.266 27.389 254.415 26.515 249.47 26.515C246.319 26.515 245.744 26.952 245.744 29.482V33.047C245.744 34.956 246.066 35.301 246.94 35.301C250.689 35.301 251.011 33.99 251.862 32.587C252.138 32.196 252.483 31.92 252.897 31.92C253.771 31.92 254.139 32.656 254.139 34.726ZM282.415 31.897C282.415 28.654 280.092 26.653 276.872 26.653C274.434 26.653 274.181 26.952 274.181 29.758V34.266C274.181 36.014 274.572 36.957 277.148 36.957C280.368 36.957 282.415 35.117 282.415 31.897ZM274.158 43.397V46.985C274.158 48.871 274.779 49.837 275.561 50.665C276.274 51.47 277.24 51.93 277.24 52.85C277.24 53.678 276.527 54.115 275.446 54.115C274.089 54.115 272.111 54 270.616 54C269.029 54 267.051 54.115 265.947 54.115C264.682 54.115 264.13 53.609 264.13 52.85C264.13 51.309 266.315 51.378 266.683 48.779C266.89 47.468 266.959 42.109 266.959 37.647C266.959 34.519 266.936 30.149 266.867 29.16C266.568 25.526 264.314 25.733 264.314 23.962C264.314 23.203 264.682 22.605 265.97 22.605C268.293 22.605 269.074 22.72 271.766 22.72C274.296 22.72 276.803 22.559 279.701 22.559C286.325 22.559 290.488 25.227 290.488 30.954C290.488 33.783 289.062 36.911 283.772 38.751C283.634 38.82 283.473 38.912 283.473 39.073C283.473 39.188 283.565 39.349 283.795 39.464C286.969 41.166 288.901 43.926 290.81 47.376C291.73 49.078 292.466 50.274 293.432 51.033C294.329 51.815 294.835 51.93 294.835 52.827C294.835 53.839 294.145 54.115 293.409 54.115C292.443 54.115 290.097 54 288.993 54C287.061 54 285.29 54.115 284.6 54.115C283.473 54.115 282.737 53.517 282.737 52.758C282.737 51.953 283.289 51.654 283.289 50.55C283.289 47.951 280.621 43.42 278.528 41.925C277.608 41.35 276.136 41.212 275.791 41.212C274.618 41.212 274.158 42.04 274.158 43.397ZM298.178 22.605C299.029 22.605 300.938 22.72 302.111 22.72C303.445 22.72 304.273 22.766 304.848 23.065C305.63 23.433 306.136 24.215 307.562 25.963L317.452 39.418C318.418 40.614 319.062 41.189 319.177 41.189C319.43 41.189 319.499 41.051 319.499 37.072C319.499 32.633 319.269 28.585 318.579 27.274C317.843 25.526 316.279 25.204 316.279 23.939C316.279 23.111 316.739 22.605 317.912 22.605C319.108 22.605 320.488 22.72 321.362 22.72C322.397 22.72 323.731 22.605 324.766 22.605C325.916 22.605 326.33 23.18 326.33 23.962C326.33 25.71 324.283 25.319 324.007 28.746C323.915 29.735 323.869 33.369 323.869 36.428C323.892 47.997 324.26 48.043 324.26 51.447C324.26 53.034 322.765 54.368 320.557 54.368C319.959 54.368 319.154 53.862 318.395 52.965L304.71 34.887C304.227 34.335 303.997 34.013 303.813 34.013C303.468 34.013 303.422 34.473 303.422 38.958C303.422 43.903 303.813 48.181 304.434 49.492C305.216 51.332 306.78 51.516 306.78 52.758C306.78 53.586 306.274 54.115 305.124 54.115C303.79 54.115 302.525 54 301.651 54C300.593 54 299.19 54.115 297.925 54.115C296.798 54.115 296.338 53.563 296.338 52.781C296.338 51.056 298.73 51.447 299.006 48.02C299.098 46.939 299.167 43.282 299.167 37.716C299.167 32.863 299.144 30.057 299.075 29.16C298.753 25.526 296.522 25.733 296.522 23.962C296.522 23.134 297.051 22.605 298.178 22.605ZM343.269 26.009C340.417 26.009 337.473 28.815 337.473 35.692C337.473 38.82 338.002 42.454 339.382 45.513C340.969 48.802 343.499 50.251 345.776 50.251C349.065 50.251 351.963 47.813 351.963 41.787C351.963 38.383 351.112 34.289 349.709 31.368C348.191 28.033 345.73 26.009 343.269 26.009ZM328.871 38.613C328.871 28.769 335.127 21.961 344.281 21.961C352.745 21.961 359.99 28.102 359.99 39.119C359.99 49.538 353.159 54.782 344.603 54.782C334.759 54.782 328.871 48.02 328.871 38.613Z" fill="#620E31"/>
<path d="M126.976 84.16C126.101 84.16 125.264 84.0373 124.464 83.792C123.664 83.536 123.029 83.2107 122.56 82.816L123.28 81.2C123.728 81.552 124.283 81.8453 124.944 82.08C125.605 82.3147 126.283 82.432 126.976 82.432C127.563 82.432 128.037 82.368 128.4 82.24C128.763 82.112 129.029 81.9413 129.2 81.728C129.371 81.504 129.456 81.2533 129.456 80.976C129.456 80.6347 129.333 80.3627 129.088 80.16C128.843 79.9467 128.523 79.7813 128.128 79.664C127.744 79.536 127.312 79.4187 126.832 79.312C126.363 79.2053 125.888 79.0827 125.408 78.944C124.939 78.7947 124.507 78.608 124.112 78.384C123.728 78.1493 123.413 77.84 123.168 77.456C122.923 77.072 122.8 76.5813 122.8 75.984C122.8 75.376 122.96 74.8213 123.28 74.32C123.611 73.808 124.107 73.4027 124.768 73.104C125.44 72.7947 126.288 72.64 127.312 72.64C127.984 72.64 128.651 72.7253 129.312 72.896C129.973 73.0667 130.549 73.312 131.04 73.632L130.384 75.248C129.883 74.9493 129.365 74.7307 128.832 74.592C128.299 74.4427 127.787 74.368 127.296 74.368C126.72 74.368 126.251 74.4373 125.888 74.576C125.536 74.7147 125.275 74.896 125.104 75.12C124.944 75.344 124.864 75.6 124.864 75.888C124.864 76.2293 124.981 76.5067 125.216 76.72C125.461 76.9227 125.776 77.0827 126.16 77.2C126.555 77.3173 126.992 77.4347 127.472 77.552C127.952 77.6587 128.427 77.7813 128.896 77.92C129.376 78.0587 129.808 78.24 130.192 78.464C130.587 78.688 130.901 78.992 131.136 79.376C131.381 79.76 131.504 80.2453 131.504 80.832C131.504 81.4293 131.339 81.984 131.008 82.496C130.688 82.9973 130.192 83.4027 129.52 83.712C128.848 84.0107 128 84.16 126.976 84.16ZM135.487 77.456H141.055V79.168H135.487V77.456ZM135.647 82.256H141.967V84H133.567V72.8H141.743V74.544H135.647V82.256ZM149.469 84.16C148.616 84.16 147.821 84.0213 147.085 83.744C146.36 83.456 145.725 83.056 145.181 82.544C144.648 82.0213 144.232 81.408 143.933 80.704C143.635 80 143.485 79.232 143.485 78.4C143.485 77.568 143.635 76.8 143.933 76.096C144.232 75.392 144.653 74.784 145.197 74.272C145.741 73.7493 146.376 73.3493 147.101 73.072C147.827 72.784 148.621 72.64 149.485 72.64C150.403 72.64 151.24 72.8 151.997 73.12C152.755 73.4293 153.395 73.8933 153.917 74.512L152.573 75.776C152.168 75.3387 151.715 75.0133 151.213 74.8C150.712 74.576 150.168 74.464 149.581 74.464C148.995 74.464 148.456 74.56 147.965 74.752C147.485 74.944 147.064 75.216 146.701 75.568C146.349 75.92 146.072 76.336 145.869 76.816C145.677 77.296 145.581 77.824 145.581 78.4C145.581 78.976 145.677 79.504 145.869 79.984C146.072 80.464 146.349 80.88 146.701 81.232C147.064 81.584 147.485 81.856 147.965 82.048C148.456 82.24 148.995 82.336 149.581 82.336C150.168 82.336 150.712 82.2293 151.213 82.016C151.715 81.792 152.168 81.456 152.573 81.008L153.917 82.288C153.395 82.896 152.755 83.36 151.997 83.68C151.24 84 150.397 84.16 149.469 84.16ZM155.91 84V72.8H160.518C161.51 72.8 162.358 72.96 163.062 73.28C163.777 73.6 164.326 74.0587 164.71 74.656C165.094 75.2533 165.286 75.9627 165.286 76.784C165.286 77.6053 165.094 78.3147 164.71 78.912C164.326 79.4987 163.777 79.952 163.062 80.272C162.358 80.5813 161.51 80.736 160.518 80.736H157.062L157.99 79.792V84H155.91ZM163.238 84L160.406 79.936H162.63L165.478 84H163.238ZM157.99 80.016L157.062 79.024H160.422C161.34 79.024 162.028 78.8267 162.486 78.432C162.956 78.0373 163.19 77.488 163.19 76.784C163.19 76.0693 162.956 75.52 162.486 75.136C162.028 74.752 161.34 74.56 160.422 74.56H157.062L157.99 73.536V80.016ZM169.533 77.456H175.101V79.168H169.533V77.456ZM169.693 82.256H176.013V84H167.613V72.8H175.789V74.544H169.693V82.256ZM180.604 84V74.56H176.892V72.8H186.396V74.56H182.684V84H180.604ZM185.811 84L190.851 72.8H192.899L197.955 84H195.779L191.443 73.904H192.275L187.955 84H185.811ZM188.131 81.408L188.691 79.776H194.739L195.299 81.408H188.131ZM199.379 84V72.8H203.987C204.979 72.8 205.827 72.96 206.531 73.28C207.246 73.6 207.795 74.0587 208.179 74.656C208.563 75.2533 208.755 75.9627 208.755 76.784C208.755 77.6053 208.563 78.3147 208.179 78.912C207.795 79.4987 207.246 79.952 206.531 80.272C205.827 80.5813 204.979 80.736 203.987 80.736H200.531L201.459 79.792V84H199.379ZM206.707 84L203.875 79.936H206.099L208.947 84H206.707ZM201.459 80.016L200.531 79.024H203.891C204.808 79.024 205.496 78.8267 205.955 78.432C206.424 78.0373 206.659 77.488 206.659 76.784C206.659 76.0693 206.424 75.52 205.955 75.136C205.496 74.752 204.808 74.56 203.891 74.56H200.531L201.459 73.536V80.016ZM211.082 84V72.8H213.162V84H211.082ZM214.607 84L219.648 72.8H221.696L226.752 84H224.576L220.24 73.904H221.072L216.752 84H214.607ZM216.928 81.408L217.488 79.776H223.536L224.095 81.408H216.928ZM232.598 84V72.8H237.494C238.71 72.8 239.776 73.0347 240.694 73.504C241.611 73.9733 242.326 74.624 242.838 75.456C243.35 76.288 243.606 77.2693 243.606 78.4C243.606 79.52 243.35 80.5013 242.838 81.344C242.326 82.176 241.611 82.8267 240.694 83.296C239.776 83.7653 238.71 84 237.494 84H232.598ZM234.678 82.24H237.398C238.24 82.24 238.966 82.08 239.574 81.76C240.192 81.44 240.667 80.992 240.998 80.416C241.339 79.84 241.51 79.168 241.51 78.4C241.51 77.6213 241.339 76.9493 240.998 76.384C240.667 75.808 240.192 75.36 239.574 75.04C238.966 74.72 238.24 74.56 237.398 74.56H234.678V82.24ZM247.737 77.456H253.305V79.168H247.737V77.456ZM247.897 82.256H254.217V84H245.817V72.8H253.993V74.544H247.897V82.256ZM266.189 84.16C265.314 84.16 264.509 84.0213 263.773 83.744C263.048 83.456 262.413 83.056 261.869 82.544C261.325 82.0213 260.904 81.408 260.605 80.704C260.306 80 260.157 79.232 260.157 78.4C260.157 77.568 260.306 76.8 260.605 76.096C260.904 75.392 261.325 74.784 261.869 74.272C262.424 73.7493 263.069 73.3493 263.805 73.072C264.541 72.784 265.346 72.64 266.221 72.64C267.17 72.64 268.024 72.7947 268.781 73.104C269.549 73.4133 270.194 73.8667 270.717 74.464L269.405 75.744C268.968 75.3067 268.493 74.9867 267.981 74.784C267.48 74.5707 266.925 74.464 266.317 74.464C265.73 74.464 265.186 74.56 264.685 74.752C264.184 74.944 263.752 75.216 263.389 75.568C263.026 75.92 262.744 76.336 262.541 76.816C262.349 77.296 262.253 77.824 262.253 78.4C262.253 78.9653 262.349 79.488 262.541 79.968C262.744 80.448 263.026 80.8693 263.389 81.232C263.752 81.584 264.178 81.856 264.669 82.048C265.16 82.24 265.704 82.336 266.301 82.336C266.856 82.336 267.389 82.2507 267.901 82.08C268.424 81.8987 268.92 81.6 269.389 81.184L270.573 82.736C269.986 83.2053 269.304 83.5627 268.525 83.808C267.757 84.0427 266.978 84.16 266.189 84.16ZM268.605 82.464V78.272H270.573V82.736L268.605 82.464ZM278.565 84.16C277.69 84.16 276.885 84.016 276.149 83.728C275.413 83.44 274.773 83.04 274.229 82.528C273.685 82.0053 273.263 81.3973 272.965 80.704C272.666 80 272.517 79.232 272.517 78.4C272.517 77.568 272.666 76.8053 272.965 76.112C273.263 75.408 273.685 74.8 274.229 74.288C274.773 73.7653 275.413 73.36 276.149 73.072C276.885 72.784 277.685 72.64 278.549 72.64C279.423 72.64 280.223 72.784 280.949 73.072C281.685 73.36 282.325 73.7653 282.869 74.288C283.413 74.8 283.834 75.408 284.133 76.112C284.431 76.8053 284.581 77.568 284.581 78.4C284.581 79.232 284.431 80 284.133 80.704C283.834 81.408 283.413 82.016 282.869 82.528C282.325 83.04 281.685 83.44 280.949 83.728C280.223 84.016 279.429 84.16 278.565 84.16ZM278.549 82.336C279.114 82.336 279.637 82.24 280.117 82.048C280.597 81.856 281.013 81.584 281.365 81.232C281.717 80.8693 281.989 80.4533 282.181 79.984C282.383 79.504 282.485 78.976 282.485 78.4C282.485 77.824 282.383 77.3013 282.181 76.832C281.989 76.352 281.717 75.936 281.365 75.584C281.013 75.2213 280.597 74.944 280.117 74.752C279.637 74.56 279.114 74.464 278.549 74.464C277.983 74.464 277.461 74.56 276.981 74.752C276.511 74.944 276.095 75.2213 275.733 75.584C275.381 75.936 275.103 76.352 274.901 76.832C274.709 77.3013 274.613 77.824 274.613 78.4C274.613 78.9653 274.709 79.488 274.901 79.968C275.103 80.448 275.381 80.8693 275.733 81.232C276.085 81.584 276.501 81.856 276.981 82.048C277.461 82.24 277.983 82.336 278.549 82.336ZM286.785 84V72.8H292.033C293.377 72.8 294.401 73.0667 295.105 73.6C295.809 74.1227 296.161 74.8267 296.161 75.712C296.161 76.3093 296.023 76.8213 295.745 77.248C295.468 77.664 295.095 77.9893 294.625 78.224C294.167 78.448 293.665 78.56 293.121 78.56L293.409 77.984C294.039 77.984 294.604 78.1013 295.105 78.336C295.607 78.56 296.001 78.8907 296.289 79.328C296.588 79.7653 296.737 80.3093 296.737 80.96C296.737 81.92 296.369 82.6667 295.633 83.2C294.897 83.7333 293.804 84 292.353 84H286.785ZM288.865 82.368H292.225C293.004 82.368 293.601 82.24 294.017 81.984C294.433 81.728 294.641 81.3173 294.641 80.752C294.641 80.1973 294.433 79.792 294.017 79.536C293.601 79.2693 293.004 79.136 292.225 79.136H288.705V77.52H291.809C292.535 77.52 293.089 77.392 293.473 77.136C293.868 76.88 294.065 76.496 294.065 75.984C294.065 75.4613 293.868 75.072 293.473 74.816C293.089 74.56 292.535 74.432 291.809 74.432H288.865V82.368ZM298.957 84V72.8H301.037V84H298.957ZM305.987 77.456H311.555V79.168H305.987V77.456ZM306.147 82.256H312.467V84H304.067V72.8H312.243V74.544H306.147V82.256ZM314.785 84V72.8H319.393C320.385 72.8 321.233 72.96 321.937 73.28C322.652 73.6 323.201 74.0587 323.585 74.656C323.969 75.2533 324.161 75.9627 324.161 76.784C324.161 77.6053 323.969 78.3147 323.585 78.912C323.201 79.4987 322.652 79.952 321.937 80.272C321.233 80.5813 320.385 80.736 319.393 80.736H315.937L316.865 79.792V84H314.785ZM322.113 84L319.281 79.936H321.505L324.353 84H322.113ZM316.865 80.016L315.937 79.024H319.297C320.215 79.024 320.903 78.8267 321.361 78.432C321.831 78.0373 322.065 77.488 322.065 76.784C322.065 76.0693 321.831 75.52 321.361 75.136C320.903 74.752 320.215 74.56 319.297 74.56H315.937L316.865 73.536V80.016ZM326.488 84V72.8H328.2L335.224 81.424H334.376V72.8H336.44V84H334.728L327.704 75.376H328.552V84H326.488ZM344.69 84.16C343.815 84.16 343.01 84.016 342.274 83.728C341.538 83.44 340.898 83.04 340.354 82.528C339.81 82.0053 339.388 81.3973 339.09 80.704C338.791 80 338.642 79.232 338.642 78.4C338.642 77.568 338.791 76.8053 339.09 76.112C339.388 75.408 339.81 74.8 340.354 74.288C340.898 73.7653 341.538 73.36 342.274 73.072C343.01 72.784 343.81 72.64 344.674 72.64C345.548 72.64 346.348 72.784 347.074 73.072C347.81 73.36 348.45 73.7653 348.994 74.288C349.538 74.8 349.959 75.408 350.258 76.112C350.556 76.8053 350.706 77.568 350.706 78.4C350.706 79.232 350.556 80 350.258 80.704C349.959 81.408 349.538 82.016 348.994 82.528C348.45 83.04 347.81 83.44 347.074 83.728C346.348 84.016 345.554 84.16 344.69 84.16ZM344.674 82.336C345.239 82.336 345.762 82.24 346.242 82.048C346.722 81.856 347.138 81.584 347.49 81.232C347.842 80.8693 348.114 80.4533 348.306 79.984C348.508 79.504 348.61 78.976 348.61 78.4C348.61 77.824 348.508 77.3013 348.306 76.832C348.114 76.352 347.842 75.936 347.49 75.584C347.138 75.2213 346.722 74.944 346.242 74.752C345.762 74.56 345.239 74.464 344.674 74.464C344.108 74.464 343.586 74.56 343.106 74.752C342.636 74.944 342.22 75.2213 341.858 75.584C341.506 75.936 341.228 76.352 341.026 76.832C340.834 77.3013 340.738 77.824 340.738 78.4C340.738 78.9653 340.834 79.488 341.026 79.968C341.228 80.448 341.506 80.8693 341.858 81.232C342.21 81.584 342.626 81.856 343.106 82.048C343.586 82.24 344.108 82.336 344.674 82.336Z" fill="#6B7071"/>
<path d="M23.1227 101.685C22.9625 101.621 22.9144 99.3244 22.9144 90.9082V80.1952L23.5233 79.617C23.8438 79.2958 24.1964 78.9424 24.3085 78.83C24.4047 78.7176 24.629 78.4927 24.8053 78.316C24.9815 78.1394 25.1899 77.9306 25.2539 77.8503C25.3341 77.7699 25.6225 77.4969 25.8789 77.2399C26.1513 76.9829 26.4397 76.6938 26.5199 76.5975C26.616 76.5011 27.1127 75.9871 27.6415 75.4571C28.1703 74.9271 28.6831 74.4292 28.7632 74.3328C28.8594 74.2525 29.1478 73.9634 29.4042 73.7064C29.6766 73.4494 29.965 73.1603 30.0612 73.0479C30.1733 72.9354 30.3977 72.7106 30.5739 72.5339C30.7502 72.3572 30.9585 72.1484 31.0386 72.0681C31.1027 71.9878 31.3912 71.7148 31.6476 71.4578C31.92 71.2008 32.2244 70.8956 32.3366 70.7672C33.3301 69.7071 34.7402 68.4222 34.8364 68.5025C34.8844 68.5507 34.9325 73.5297 34.9325 79.5528V90.5067L34.3717 91.0849C34.0512 91.4222 33.7307 91.6792 33.6506 91.6792C33.5705 91.6792 33.4743 91.8237 33.4102 92.0004C33.3621 92.1771 33.1058 92.434 32.8494 92.5786C32.609 92.7392 32.3206 93.0123 32.2244 93.2211C32.1443 93.4138 31.8559 93.7029 31.5835 93.8635C31.3111 94.0241 31.0867 94.249 31.0867 94.3614C31.0867 94.4739 30.8303 94.7308 30.5259 94.9236C30.2214 95.1324 29.965 95.3733 29.965 95.4857C29.965 95.5821 29.6766 95.8712 29.3241 96.1282C28.9715 96.3691 28.6831 96.6421 28.6831 96.7064C28.6831 96.8831 27.3531 98.184 26.8403 98.5213C26.616 98.6659 26.4397 98.8747 26.4397 99.0032C26.4397 99.1156 26.1513 99.4047 25.7988 99.6617C25.4462 99.9026 25.1578 100.192 25.1578 100.304C25.1578 100.401 24.9174 100.641 24.613 100.818C24.3245 101.011 24.0361 101.3 23.988 101.477C23.9079 101.782 23.5554 101.862 23.1227 101.685Z" fill="#9B2149"/>
<path d="M76.9156 100.995C76.515 100.545 76.0984 100.095 75.9702 99.9829C74.8005 98.9068 71.3072 95.3251 71.3072 95.2127C71.3072 95.1163 71.2271 95.0521 71.147 95.0521C71.0508 95.0521 70.0093 94.0884 68.8235 92.8998C67.157 91.2455 66.6602 90.6512 66.6602 90.33C66.6602 89.7036 67.1089 89.8 67.814 90.587C68.1505 90.9564 68.4229 91.3258 68.4229 91.39C68.4229 91.4543 68.519 91.5185 68.6472 91.5185C68.7754 91.5185 69.0158 91.7434 69.176 92.0004C69.3202 92.2734 69.5766 92.5143 69.7208 92.5625C69.849 92.6107 70.0573 92.8195 70.1695 93.0122C70.2817 93.221 70.5701 93.5102 70.8105 93.6547C71.0508 93.7993 71.3393 94.0884 71.4674 94.3132C71.5796 94.5381 71.7399 94.7308 71.804 94.7308C71.9001 94.7308 73.4064 96.1924 74.0634 96.9152C74.2076 97.0919 74.8005 97.6861 75.3773 98.2483C75.9542 98.8104 76.4349 99.3244 76.4349 99.3886C76.4349 99.4529 76.5791 99.5493 76.7554 99.5974C76.9317 99.6456 77.0759 99.7741 77.0759 99.9026C77.0759 100.015 77.2201 100.208 77.3964 100.32L77.7168 100.513L77.6848 90.3782C77.6527 82.4278 77.5887 80.2113 77.4444 80.147C77.2361 80.0828 77.14 78.9906 77.3323 78.9906C77.3803 78.9906 77.7008 79.2636 78.0534 79.5849L78.6783 80.1791V90.7155C78.6623 101.846 78.6783 101.798 77.9412 101.798C77.7809 101.798 77.3162 101.428 76.9156 100.995Z" fill="#9B2149"/>
<path d="M36.6471 88.2581C36.535 87.9208 36.5029 71.4096 36.6311 68.8076C36.7112 66.816 36.7914 66.2539 36.9997 66.0772C37.2561 65.8363 37.7848 65.3062 38.1053 64.985C38.2976 64.7762 39.1789 63.8928 39.3873 63.7001C39.6276 63.4752 40.2205 62.8649 40.3487 62.7203C40.4128 62.6561 40.6852 62.3991 40.9416 62.1421C41.214 61.8852 41.5185 61.58 41.6306 61.4515C41.871 61.2106 43.6817 59.3796 43.874 59.2029C44.0983 58.978 45.9091 57.1631 46.0693 56.9864C46.1654 56.9061 46.4539 56.617 46.7103 56.36C46.9827 56.103 47.2711 55.8139 47.3512 55.7176C47.6877 55.3481 48.4248 54.7217 48.4889 54.7699C48.521 54.8021 48.5691 59.7008 48.6171 65.6596C48.6973 77.5129 48.7293 77.0793 47.7518 77.6575C47.4954 77.802 47.2711 78.0269 47.2711 78.1393C47.2711 78.2518 47.0147 78.5088 46.7103 78.7015C46.4058 78.9103 46.1494 79.1673 46.1494 79.2797C46.1494 79.3921 45.893 79.6331 45.5886 79.8097C45.2841 79.9864 44.9957 80.2755 44.9476 80.4522C44.8995 80.6128 44.6432 80.8698 44.4028 81.0143C44.1624 81.1589 43.9061 81.4319 43.8099 81.6086C43.7298 81.8014 43.4574 82.0583 43.201 82.1868C42.9446 82.2993 42.7042 82.5402 42.6722 82.7008C42.6241 82.8614 42.3357 83.1505 42.0473 83.3433C41.7428 83.5199 41.5024 83.7769 41.5024 83.9054C41.5024 84.0178 41.2461 84.2909 40.9416 84.4836C40.6371 84.6924 40.3807 84.9494 40.3807 85.0618C40.3807 85.1743 40.1244 85.4152 39.8199 85.5919C39.5154 85.7685 39.227 86.0576 39.1789 86.2183C39.1309 86.3949 38.8424 86.668 38.554 86.8607C38.2495 87.0374 37.9771 87.3104 37.9451 87.471C37.8329 87.8565 36.7433 88.515 36.6471 88.2581Z" fill="#9B2149"/>
<path d="M58.4239 82.4759C53.168 77.2078 52.6071 76.5974 52.6712 76.212C52.7674 75.7141 53.3122 75.6016 53.4724 76.0513C53.5365 76.1959 53.6968 76.4368 53.825 76.5814C53.9692 76.7259 54.1935 76.999 54.3217 77.1917C54.4499 77.3844 54.6101 77.5451 54.6582 77.5451C54.7704 77.5451 56.4529 79.2155 58.3598 81.2071C58.5681 81.4159 58.8726 81.705 59.0328 81.8495C60.0263 82.7329 60.5711 83.4396 60.5711 83.8733C60.5711 84.2266 60.6352 84.2909 61.0198 84.2909C61.3563 84.2909 61.7088 84.5157 62.3818 85.1903C62.8786 85.6722 63.2952 86.1379 63.3273 86.2022C63.4234 86.411 64.3848 87.0213 64.6412 87.0213C64.7855 87.0213 64.8976 87.1498 64.8976 87.3104C64.8976 87.8405 64.7053 88.3062 64.481 88.3062C64.3688 88.3062 61.6447 85.6882 58.4239 82.4759Z" fill="#9B2149"/>
<path d="M99.9904 78.8942C99.8622 78.8621 95.2633 78.8139 89.767 78.7979C80.4089 78.7497 79.768 78.7336 79.6238 78.4606C79.5276 78.316 79.3674 78.1072 79.2712 78.0269C79.1591 77.9306 78.9347 77.7378 78.7424 77.5772C78.5662 77.4326 78.3258 77.1435 78.2136 76.9508C78.1175 76.742 77.9412 76.5814 77.8291 76.5814C77.6047 76.5814 77.0759 76.0192 77.0759 75.7783C77.0759 75.698 76.8836 75.5374 76.6433 75.425C76.4029 75.3125 76.0985 75.0074 75.9863 74.7664C75.8741 74.5255 75.6979 74.3328 75.6017 74.3328C75.5216 74.3328 75.0088 73.8831 74.4961 73.337C73.9673 72.7748 73.4705 72.2609 73.3744 72.1645C73.2942 72.0842 72.7815 71.5863 72.2527 71.0723C71.7399 70.5583 71.3073 70.0604 71.3073 69.9962C71.3073 69.9159 71.115 69.7553 70.8746 69.6428C70.6342 69.5304 70.3298 69.2252 70.2176 68.9843C70.1055 68.7434 69.9452 68.5507 69.8811 68.5507C69.6888 68.5507 68.9677 67.86 68.7755 67.5067C68.6633 67.2657 68.6633 67.1051 68.8235 66.8963C68.9998 66.6394 69.7369 66.6233 79.4315 66.6233C88.5011 66.6233 89.8792 66.6554 90.0555 66.8642C90.1676 66.9927 90.424 67.1051 90.6323 67.1051C90.8887 67.1051 91.081 67.2657 91.2573 67.587C91.4015 67.86 91.6098 68.0688 91.738 68.0688C91.8822 68.0688 92.1867 68.3579 92.427 68.7113C92.6674 69.0486 92.9077 69.3377 92.9718 69.3537C93.1 69.3537 94.7024 70.9278 94.7024 71.0563C94.7024 71.2008 95.087 71.5381 95.3915 71.6505C95.5357 71.6987 95.744 71.9236 95.8401 72.1324C95.9363 72.3412 96.2087 72.6303 96.4491 72.7748C96.6894 72.9194 96.9779 73.2085 97.1061 73.4333C97.2182 73.6582 97.3785 73.8509 97.4426 73.8509C97.5387 73.8509 98.9488 75.2162 99.5257 75.8747C99.6859 76.0514 99.9744 76.3405 100.167 76.5171C100.888 77.1596 101.224 77.6254 101.304 78.0912C101.384 78.4766 101.32 78.573 100.856 78.7657C100.567 78.8942 100.295 78.9745 100.279 78.9745C100.247 78.9585 100.119 78.9264 99.9904 78.8942Z" fill="#9B2149"/>
<path d="M0 78.043C0 77.9466 9.83879 68.0046 11.0726 66.8642C11.281 66.6554 12.8513 66.6233 21.9049 66.6233C31.3592 66.6233 32.5129 66.6554 32.593 66.8803C32.6411 67.0088 32.7533 67.0891 32.8334 67.0248C32.9135 66.9766 33.0417 67.0248 33.0898 67.1212C33.1539 67.2176 32.8975 67.587 32.5129 67.9564L31.8078 68.5988L31.7598 68.1009L31.7117 67.587H21.5684H11.4252L9.27795 69.7553C8.09217 70.9438 7.03458 71.9236 6.93843 71.9236C6.82626 71.9236 6.73012 72.0039 6.73012 72.1163C6.73012 72.3412 4.95145 74.1722 4.72711 74.1722C4.63096 74.1722 4.48675 74.3328 4.40663 74.5416C4.31048 74.7343 4.08614 74.9592 3.89386 75.0556C3.68554 75.1359 3.5253 75.2804 3.5253 75.3768C3.5253 75.4571 2.91639 76.1317 2.17928 76.8705C1.18578 77.8502 0.737108 78.1875 0.416626 78.1875C0.192289 78.1875 0 78.1233 0 78.043Z" fill="#9B2149"/>
<path d="M74.3838 77.0632C74.1595 76.8384 74.0313 76.5332 74.0313 76.1798V75.6338L74.5441 76.1156C74.8325 76.3726 75.2331 76.7581 75.4414 76.9829L75.81 77.3845H75.2652C74.9447 77.3845 74.5922 77.256 74.3838 77.0632Z" fill="#9B2149"/>
<path d="M71.6277 74.124C71.6277 74.0276 71.4194 73.8349 71.147 73.7224C70.7464 73.5458 70.6663 73.4173 70.6663 72.9515C70.6663 72.4696 70.6983 72.4215 70.9547 72.55C71.0989 72.6303 71.5796 73.08 72.0123 73.5136L72.7975 74.3328H72.2206C71.852 74.3328 71.6277 74.2525 71.6277 74.124Z" fill="#9B2149"/>
<path d="M68.6152 71.2811C68.4229 71.0884 68.2626 70.7992 68.2626 70.6386C68.2626 70.4298 68.1505 70.3174 67.9742 70.3174C67.814 70.3174 67.4614 70.1086 67.173 69.8356C66.7243 69.434 66.6602 69.2895 66.7724 68.8879L66.9006 68.4221L68.487 70.0122L70.0894 71.6023H69.5285C69.176 71.6023 68.8235 71.4738 68.6152 71.2811Z" fill="#9B2149"/>
<path d="M72.7494 64.8565L66.0834 64.7762L65.5386 64.2462C63.167 61.9976 62.0133 60.8251 62.0133 60.7127C62.0133 60.6324 61.837 60.4878 61.6127 60.3914C61.4043 60.2951 61.1159 59.9899 60.9717 59.7169C60.8435 59.4599 60.6192 59.235 60.507 59.235C60.3948 59.235 60.1545 59.0423 59.9942 58.8174C59.834 58.5765 59.5936 58.3035 59.4814 58.2071C59.1129 57.9019 58.7443 57.5325 58.4719 57.2113C58.3277 57.0507 58.0553 56.7937 57.8951 56.6652C57.7188 56.5367 57.4945 56.2636 57.3823 56.0709C57.2861 55.8621 57.0939 55.7015 56.9657 55.7015C56.8535 55.7015 56.5971 55.4445 56.4048 55.1393C56.2125 54.8342 55.9882 54.5772 55.9081 54.5772C55.6837 54.5772 55.1229 54.0472 55.1229 53.8223C55.1229 53.6938 54.9466 53.5171 54.7223 53.4208C53.6487 52.9389 54.4339 52.8907 65.4905 52.8426C76.483 52.8104 76.5471 52.8104 76.9798 53.1477C77.2041 53.3244 77.3964 53.5653 77.3964 53.6778C77.3964 53.7902 77.5727 53.9829 77.797 54.0954C78.0213 54.2238 78.3578 54.5611 78.5341 54.8502C78.7104 55.1393 78.9667 55.3803 79.0949 55.3803C79.2231 55.3803 79.4795 55.6372 79.6558 55.9424C79.8481 56.2476 80.0724 56.5046 80.1686 56.5046C80.3608 56.5046 82.2036 58.4159 82.2036 58.6247C82.2036 58.6889 82.2837 58.7532 82.3959 58.7532C82.5882 58.7532 83.4855 59.7008 83.4855 59.9096C83.4855 59.9738 83.5496 60.0381 83.6458 60.0381C83.8381 60.0381 85.7289 61.9494 85.7289 62.1582C85.7289 62.2224 85.809 62.2867 85.9052 62.2867C86.0975 62.2867 87.9723 64.198 87.9723 64.4068C87.9723 64.471 88.0845 64.5353 88.2127 64.5353C88.5492 64.5353 88.5171 64.8565 88.1806 64.8726C87.2672 64.9368 78.438 64.9208 72.7494 64.8565Z" fill="#9B2149"/>
<path d="M13.3961 64.5032C13.5564 64.3104 16.2484 61.596 19.3411 58.4801C23.7797 54.0311 25.0777 52.8104 25.3982 52.8104C25.6866 52.8104 25.7988 52.8907 25.7988 53.1317C25.7988 53.3083 25.7026 53.4529 25.5905 53.4529C25.4783 53.4529 25.302 53.5974 25.1899 53.7741C25.0777 53.9508 24.8854 54.0953 24.7572 54.0953C24.629 54.0953 24.5169 54.1917 24.5169 54.3041C24.5169 54.5611 23.6836 55.3803 23.4272 55.3803C23.3151 55.3803 23.2349 55.4606 23.2349 55.5409C23.2349 55.7979 22.2575 56.8258 22.0011 56.8258C21.8889 56.8258 21.7928 56.9222 21.7928 57.0346C21.7928 57.2594 20.1263 58.9138 19.9179 58.9138C19.8378 58.9138 19.7096 59.0744 19.6295 59.2832C19.5334 59.4759 19.309 59.7008 19.1167 59.7972C18.9084 59.8775 18.7482 60.0381 18.7482 60.1344C18.7482 60.3593 17.8989 61.1624 17.6585 61.1624C17.5464 61.1624 17.4663 61.2266 17.4663 61.323C17.4663 61.5639 16.7932 62.2867 16.5529 62.2867C16.4407 62.2867 16.3446 62.367 16.3446 62.4634C16.3446 62.5597 15.8638 63.1379 15.271 63.7483C14.3416 64.6959 14.1012 64.8565 13.6365 64.8565H13.0917L13.3961 64.5032Z" fill="#9B2149"/>
<path d="M62.1735 64.6317C62.1735 64.5032 61.9972 64.3586 61.7729 64.3104C61.3563 64.198 61.148 63.7162 61.2441 63.1058C61.2922 62.8007 61.4364 62.897 62.3338 63.8125L63.3593 64.8565H62.7664C62.3658 64.8565 62.1735 64.7762 62.1735 64.6317Z" fill="#9B2149"/>
<path d="M57.0137 59.7008C56.8535 59.6205 56.7253 59.3956 56.7253 59.235C56.7253 59.0583 56.6452 58.9138 56.549 58.9138C56.4529 58.9138 56.2766 58.8174 56.1644 58.7211C56.0363 58.6086 55.8279 58.4159 55.6837 58.3035C55.5555 58.191 55.4434 57.8377 55.4434 57.5164V56.9382L56.4529 57.8859C56.9977 58.3998 57.6547 59.0744 57.895 59.3635L58.3597 59.8775H57.8149C57.5265 59.8775 57.1579 59.7972 57.0137 59.7008Z" fill="#9B2149"/>
<path d="M52.7193 55.9103C52.7193 55.2518 52.8956 54.7378 53.1039 54.7378C53.216 54.7378 53.5365 54.9948 53.841 55.3L54.3858 55.8621H53.9532C53.6807 55.8621 53.5205 55.9424 53.5205 56.103C53.5205 56.2476 53.3763 56.344 53.1199 56.344C52.7834 56.344 52.7193 56.2636 52.7193 55.9103Z" fill="#9B2149"/>
<path d="M24.5008 48.4899C24.2765 48.265 24.0361 47.9438 23.9881 47.7832C23.924 47.6386 23.6996 47.4298 23.4913 47.3495C23.267 47.2692 22.9785 46.9801 22.8343 46.7071C22.7061 46.4501 22.4818 46.2252 22.3376 46.2252C22.2094 46.2252 21.953 45.9683 21.7767 45.6631C21.6005 45.3579 21.312 45.0688 21.1358 45.0206C20.9755 44.9724 20.7191 44.7315 20.5749 44.4906C20.4467 44.2497 20.1102 43.9284 19.8538 43.7839C19.5975 43.6233 19.3891 43.3984 19.3891 43.2699C19.3891 43.1254 19.1808 42.9166 18.9084 42.772C18.652 42.6435 18.3155 42.3062 18.1873 42.0493C18.0431 41.7762 17.8348 41.5674 17.6906 41.5674C17.5624 41.5674 17.306 41.3104 17.1297 41.0053C16.9535 40.7001 16.665 40.411 16.4888 40.3628C16.3285 40.2986 16.0722 40.0576 15.96 39.8167C15.8318 39.5758 15.5434 39.3027 15.319 39.1903C15.0787 39.0939 14.8223 38.8209 14.7101 38.596C14.614 38.3872 14.4057 38.1624 14.2454 38.1142C13.973 38.0178 13.3 37.2308 13.3 37.006C13.3 36.9578 18.2995 36.9096 24.4047 36.9096H35.4934L36.7753 38.1945C37.4803 38.9173 38.7783 40.1861 39.6436 41.0534C40.5249 41.9047 41.3101 42.7078 41.4063 42.8363C41.5024 42.9487 42.0152 43.4627 42.5279 43.9606C43.0567 44.4585 43.5535 44.9564 43.6496 45.0688C44.0502 45.5667 45.6526 47.1889 45.7328 47.1889C45.8449 47.1889 47.1749 48.6184 47.239 48.8111C47.2711 48.8914 42.592 48.9557 36.1023 48.9396L24.9175 48.9236L24.5008 48.4899Z" fill="#9B2149"/>
<path d="M75.794 48.6505C75.794 48.4738 75.8741 48.2811 75.9703 48.2329C76.0504 48.1687 76.1946 47.9438 76.2747 47.735C76.3709 47.5101 76.5632 47.3495 76.7394 47.3495C76.9317 47.3495 77.14 47.1407 77.3003 46.8034C77.4765 46.418 77.7009 46.2252 78.0214 46.1449C78.3899 46.0646 78.5181 45.9201 78.5982 45.5667C78.6623 45.2615 78.8546 45.0206 79.0789 44.9403C79.2873 44.86 79.5436 44.587 79.6718 44.346C79.8161 44.0569 80.0244 43.8803 80.2968 43.8481C80.6173 43.816 80.7615 43.6715 80.8576 43.286C80.9698 42.9166 81.1461 42.7399 81.5146 42.6275C81.8992 42.5311 82.0434 42.3865 82.0755 42.0653C82.1075 41.7762 82.2357 41.6317 82.4761 41.5995C82.6844 41.5674 82.9247 41.3265 83.0689 41.0053C83.2132 40.7001 83.5336 40.3628 83.758 40.2504C83.9983 40.1379 84.2868 39.8649 84.3829 39.6561C84.4951 39.4473 84.7355 39.2064 84.9438 39.0939C85.1521 38.9976 85.4245 38.7085 85.5367 38.4675C85.6809 38.1784 85.8732 38.0339 86.1135 38.0339C86.3859 38.0339 86.5141 37.9054 86.6263 37.5199C86.7705 37.022 86.8346 36.9899 87.6038 36.9417L88.437 36.8935L86.2097 39.1421C84.9758 40.3949 83.9022 41.4068 83.8061 41.4068C83.7259 41.4068 83.6458 41.471 83.6458 41.5513C83.6458 41.7601 77.7489 47.6708 77.5567 47.6708C77.4605 47.6708 77.3964 47.7511 77.3964 47.8635C77.3964 47.9759 77.2041 48.265 76.9638 48.506C76.451 49.036 75.794 49.1163 75.794 48.6505Z" fill="#9B2149"/>
<path d="M52.9917 46.948C52.7193 46.7553 52.7033 46.1289 52.7193 36.3153C52.7193 30.5974 52.7513 25.7469 52.7834 25.5541C52.8955 24.9759 53.3442 24.2532 53.6487 24.1568C53.8089 24.1086 54.0653 23.8356 54.2255 23.5625C54.3858 23.3055 54.6902 23.0004 54.8986 22.904C55.1069 22.8076 55.3152 22.5988 55.3793 22.4222C55.4273 22.2615 55.6677 22.0206 55.9081 21.9082C56.1484 21.7797 56.4208 21.4906 56.533 21.2657C56.6292 21.0248 56.9016 20.7678 57.1259 20.6554C57.3502 20.559 57.5265 20.4145 57.5265 20.3502C57.5265 20.2699 58.2476 19.515 59.1289 18.6477C59.9942 17.7804 60.7954 16.9934 60.9076 16.881C61.0037 16.7846 61.7088 16.0458 62.494 15.2588C64.0643 13.6526 64.4329 13.3796 64.7053 13.6526C64.9457 13.8935 64.9777 34.7574 64.7534 35.3356C64.5771 35.7692 63.2311 37.2308 62.9907 37.2308C62.9106 37.2308 62.7023 37.4396 62.5581 37.6966C62.3978 37.9536 62.1094 38.2427 61.9011 38.3391C61.7088 38.4354 61.5325 38.58 61.5325 38.6442C61.5325 38.853 60.7794 39.64 60.5871 39.64C60.491 39.64 60.3307 39.8007 60.2346 39.9934C59.9942 40.4592 59.7699 40.668 59.4173 40.8125C59.2571 40.8607 59.1289 40.9731 59.1289 41.0535C59.1289 41.2462 54.9787 45.4222 54.7864 45.4222C54.7063 45.4222 54.562 45.5988 54.4659 45.8076C54.3698 46.0164 54.1134 46.2895 53.889 46.4019C53.6647 46.5304 53.4404 46.7392 53.3763 46.8998C53.2961 47.1247 53.232 47.1247 52.9917 46.948Z" fill="#9B2149"/>
<path d="M10.656 34.5486C10.4477 34.4361 10.2233 34.1952 10.1753 34.0185C10.1112 33.8419 9.85479 33.5849 9.59841 33.4403C9.34202 33.3118 9.03757 33.0227 8.94142 32.8139C8.84528 32.5891 8.70106 32.4124 8.63696 32.4124C8.44467 32.4124 6.56985 30.5493 6.56985 30.3565C6.56985 30.2601 6.36154 30.0674 6.08913 29.9229C5.83275 29.7783 5.60841 29.5695 5.60841 29.425C5.60841 29.2965 5.35202 29.0395 5.04757 28.8628C4.74311 28.6861 4.45467 28.397 4.4066 28.2203C4.34251 28.0597 4.08612 27.8027 3.82973 27.6582C3.57335 27.5297 3.28492 27.2406 3.20479 27.0157C3.12467 26.8069 2.86829 26.55 2.64395 26.4696C2.41961 26.3893 2.17925 26.1805 2.13118 26.036C2.00299 25.6826 1.82672 25.506 1.24985 25.1365C0.993469 24.9759 0.80118 24.7671 0.80118 24.6547C0.80118 24.5423 0.656963 24.3335 0.480698 24.1729C0.0480478 23.8034 0.0800959 23.4501 0.576843 23.0004L0.977445 22.6149H11.1047H21.2479L23.8118 25.1687C25.2379 26.5821 26.5199 27.9152 26.6641 28.14C26.8083 28.3649 26.9846 28.5576 27.0647 28.5576C27.2409 28.5576 32.1123 33.4564 32.4488 33.9543C32.577 34.1631 32.8013 34.3398 32.9455 34.3398C33.0897 34.3398 33.1699 34.4361 33.1218 34.5486C33.0256 34.8377 11.2168 34.8377 10.656 34.5486Z" fill="#9B2149"/>
<path d="M90.8566 33.7776C90.8566 33.4724 90.9207 33.2155 91.0008 33.2155C91.0809 33.2155 91.2252 33.0067 91.3213 32.7336C91.4014 32.4606 91.5937 32.2518 91.7379 32.2518C92.0744 32.2518 92.459 31.8663 92.459 31.5451C92.459 31.4166 92.6994 31.1917 93.0038 31.0472C93.3403 30.8865 93.5807 30.6456 93.6127 30.4368C93.6448 30.2441 93.8691 29.9871 94.1095 29.8747C94.3499 29.7462 94.6223 29.4731 94.7024 29.2643C94.8306 28.9592 94.9748 28.8789 95.4235 28.8789C95.9523 28.8789 95.9843 28.8467 95.9843 28.3167C95.9843 27.8509 96.0644 27.7385 96.5291 27.5136C96.8656 27.353 97.106 27.1121 97.138 26.9033C97.1701 26.7106 97.3303 26.5339 97.4906 26.5018C97.8912 26.4215 98.2277 26.0842 98.2277 25.7629C98.2277 25.6344 98.468 25.4096 98.7725 25.265C99.109 25.1044 99.3974 24.8153 99.4936 24.5262C99.5737 24.2692 99.75 24.0604 99.8782 24.0604C100.006 24.0604 100.199 23.948 100.311 23.8195C100.487 23.6107 99.4455 23.5786 91.0329 23.5786H81.5626V23.1931C81.5626 22.9361 81.6748 22.7755 81.9312 22.7113C82.5721 22.5506 100.663 22.5988 100.551 22.7755C100.503 22.8719 100.567 22.9361 100.695 22.9361C100.936 22.9361 101.497 23.8837 101.352 24.0283C101.304 24.0765 101.272 24.0604 101.272 23.9801C101.272 23.8998 101.016 24.1889 100.695 24.5905C100.375 25.0081 100.006 25.3453 99.8942 25.3453C99.766 25.3453 99.6699 25.4096 99.6699 25.506C99.6699 25.6987 96.3529 29.0395 96.1606 29.0395C96.0805 29.0395 95.9843 29.184 95.9362 29.3768C95.8882 29.5534 95.6959 29.7462 95.5196 29.7944C95.3273 29.8425 95.1831 29.9389 95.1831 30.0032C95.1831 30.1477 91.0809 34.3398 90.9367 34.3398C90.8886 34.3398 90.8566 34.0828 90.8566 33.7776Z" fill="#9B2149"/>
<path d="M66.7404 33.0227C66.6923 32.8139 66.6763 27.7706 66.6923 21.7958L66.7404 10.9382L68.4229 9.29996C69.3523 8.41658 70.1535 7.62956 70.2176 7.56532C70.3618 7.38864 72.2046 5.54158 72.4129 5.34884C72.509 5.26853 73.3102 4.4494 74.1916 3.54996C75.0729 2.63445 75.8581 1.89563 75.9382 1.89563C76.0183 1.89563 76.1305 1.75107 76.1946 1.5744C76.2426 1.39772 76.499 1.14074 76.7714 0.980123C77.0278 0.819508 77.2842 0.578586 77.3323 0.417972C77.4605 0.000374155 78.0053 -0.112056 78.3739 0.225234C78.6623 0.498279 78.6783 0.83557 78.6783 11.0346V21.5709L77.2201 23.0646C76.4349 23.8677 75.7139 24.5423 75.6337 24.5423C75.5536 24.5423 75.4094 24.6868 75.3133 24.8635C75.2171 25.0402 74.7684 25.522 74.3198 25.9396C73.2301 26.9515 73.0378 27.1603 72.7494 27.5618C72.6212 27.7546 72.461 27.9152 72.3808 27.9152C72.2526 27.9152 70.6663 29.441 70.6663 29.5695C70.6663 29.6498 68.8555 31.4808 67.5576 32.7015C66.8525 33.36 66.8205 33.3761 66.7404 33.0227Z" fill="#9B2149"/>
<path d="M36.6791 32.5409C36.6311 30.6777 36.615 13.5241 36.6631 13.4278C36.8234 13.0744 38.1854 14.2951 42.9285 19.0493C48.8254 24.9599 49.1619 25.3453 48.3928 25.3453C47.9281 25.3453 47.2711 24.8796 47.2711 24.5583C47.2711 24.4138 47.0467 24.205 46.7743 24.0765C46.5019 23.9641 46.2455 23.7392 46.1814 23.5946C46.0853 23.3055 45.3963 22.6149 45.204 22.6149C45.1399 22.6149 44.9957 22.4543 44.8835 22.2455C44.7713 22.0367 44.4669 21.7476 44.2105 21.587C43.9541 21.4424 43.7458 21.2176 43.7458 21.1051C43.7458 20.9766 43.6336 20.8481 43.5054 20.7839C43.3772 20.7357 43.265 20.543 43.265 20.3663C43.265 20.1575 43.1529 20.0451 42.9446 20.0451C42.7843 20.0451 42.576 19.9487 42.5119 19.8363C42.4478 19.7078 42.1914 19.4829 41.935 19.3223C41.6947 19.1778 41.4543 18.8886 41.4063 18.6959C41.3582 18.5032 41.1178 18.2622 40.8454 18.1659C40.589 18.0695 40.3807 17.8928 40.3807 17.7643C40.3807 17.6519 40.2205 17.4271 40.0282 17.2825C39.3552 16.7685 37.9771 15.4033 37.9771 15.2266C37.9771 15.1463 37.913 15.066 37.8169 15.066C37.7367 15.066 37.6566 14.9536 37.6566 14.8251C37.6566 14.6966 37.5925 14.5842 37.4964 14.5842C37.3842 14.5842 37.3361 17.7965 37.3361 23.8998C37.3361 33.103 37.3361 33.2155 37.0157 33.2155C36.7432 33.2155 36.6952 33.103 36.6791 32.5409Z" fill="#9B2149"/>
<path d="M34.1313 11.3879C34.1313 11.3076 33.9871 11.1791 33.8109 11.131C33.6346 11.0828 33.4583 10.874 33.3942 10.6812C33.3462 10.4885 33.0737 10.2155 32.8013 10.0709C32.4648 9.91028 32.2725 9.68542 32.2405 9.41238C32.2084 9.10721 32.0803 8.97872 31.7117 8.89841C31.4393 8.85023 31.1669 8.65749 31.0707 8.43263C30.9746 8.22383 30.6862 7.93473 30.4298 7.77411C30.1253 7.59744 29.9651 7.37257 29.9651 7.09953C29.9651 6.82649 29.8689 6.71406 29.6606 6.71406C29.3081 6.71406 28.5229 6.02341 28.5229 5.70218C28.5229 5.57369 28.3466 5.41308 28.1223 5.36489C27.898 5.30065 27.7217 5.18822 27.7217 5.09185C27.7217 4.88305 27.4653 4.64213 26.8884 4.25665C26.6321 4.09604 26.4398 3.9033 26.4398 3.79087C26.4398 3.6142 25.8309 3.01992 25.6386 3.01992C25.5745 3.01992 25.4463 2.85931 25.3341 2.65051C25.2219 2.44171 24.9175 2.1526 24.6611 1.99199C24.4047 1.84744 24.1964 1.60651 24.1964 1.47802C24.1964 1.34953 24.1323 1.25316 24.0362 1.25316C23.956 1.25316 23.8759 0.996179 23.8759 0.691011C23.8759 0.385844 23.908 0.12886 23.956 0.12886C24.1483 0.12886 34.9325 11.0828 34.9325 11.2916C34.9325 11.4361 34.7723 11.5325 34.5319 11.5325C34.3076 11.5325 34.1313 11.4682 34.1313 11.3879Z" fill="#9B2149"/>
<path d="M77.7168 101.557C77.7168 101.428 77.6367 101.316 77.5406 101.316C77.4605 101.316 77.4284 101.412 77.4925 101.525C77.5566 101.621 77.5566 101.669 77.4765 101.605C77.4124 101.541 77.2682 101.316 77.172 101.123C77.0599 100.914 76.8836 100.754 76.7554 100.754C76.6272 100.754 76.515 100.641 76.515 100.513C76.515 100.175 74.0313 97.7663 73.807 97.8947C73.7108 97.9429 73.6788 97.9429 73.7429 97.8787C73.7909 97.8144 73.7268 97.6056 73.5826 97.429C73.0859 96.8347 70.1535 93.9276 70.0253 93.9276C69.9772 93.9276 69.817 93.7509 69.7048 93.526C69.5926 93.3172 69.3683 93.0924 69.2401 93.0442C69.0959 92.996 68.8395 92.739 68.6793 92.466C68.503 92.1769 68.3107 92.0163 68.1665 92.0644C68.0383 92.1126 67.9421 92.0644 67.9421 91.952C67.9421 91.8396 67.6537 91.422 67.3012 91.0365L66.6602 90.3298L66.6762 79.7132C66.6923 73.8829 66.7564 68.9359 66.8205 68.7111C66.9487 68.3256 66.9967 68.3256 67.0448 68.7593C67.0608 68.8556 67.1409 68.9359 67.2211 68.9199C67.3172 68.9199 67.4774 69.0002 67.5896 69.1287C67.7018 69.2572 67.7499 69.3535 67.7018 69.3535C67.6377 69.3535 67.9421 69.6426 68.3427 69.996C68.7434 70.3494 69.0318 70.6385 68.9517 70.6385C68.8876 70.6385 69.0799 70.8151 69.3843 71.0239C70.0253 71.4576 71.2271 72.7425 71.179 72.9352C71.163 72.9995 71.2111 73.0477 71.3072 73.0477C71.3873 73.0477 72.2206 73.8026 73.166 74.7341C74.0954 75.6657 74.8005 76.4206 74.7364 76.4206C74.6562 76.4206 74.7844 76.5491 74.9927 76.6936C75.6978 77.1755 77.7168 79.2153 77.7168 79.4401C77.7168 79.5526 77.7809 79.6168 77.8611 79.5526C77.9412 79.5044 78.1655 79.665 78.3578 79.9059C78.6623 80.2914 78.6783 80.3556 78.454 80.4038C78.1495 80.4681 78.1174 80.8535 78.4059 80.966C78.5661 81.0302 78.5661 81.0623 78.4059 81.0623C78.2777 81.0784 78.1976 81.3354 78.1976 81.7851C78.1976 82.2027 78.2777 82.5239 78.4059 82.5721C78.5661 82.6364 78.5661 82.6685 78.4059 82.6685C78.1335 82.6845 78.1014 100.288 78.3578 100.384C78.454 100.416 78.5501 100.657 78.5661 100.914C78.5982 101.332 78.5501 101.396 78.2456 101.348C77.8611 101.3 77.7329 101.557 78.0854 101.685C78.1976 101.733 78.1655 101.782 78.0053 101.782C77.845 101.798 77.7168 101.685 77.7168 101.557Z" fill="#631032"/>
<path d="M63.872 87.6154C63.7278 87.4066 63.4394 87.1336 63.2151 87.0211C62.9907 86.9087 62.7824 86.6678 62.7183 86.5072C62.6702 86.3305 62.526 86.2341 62.3978 86.2823C62.2857 86.3305 62.1895 86.3144 62.2216 86.2502C62.2857 86.0253 61.4364 85.1419 60.7634 84.7083C60.3948 84.4834 60.0904 84.1782 60.0904 84.0498C60.0904 83.9213 59.9942 83.7607 59.882 83.6964C59.7539 83.6322 59.5455 83.3752 59.4013 83.1503C59.2411 82.9255 58.9526 82.6524 58.7443 82.54C58.536 82.4276 58.2636 82.1545 58.1514 81.9457C58.0393 81.7208 57.847 81.5924 57.7348 81.6245C57.6226 81.6727 57.5425 81.6566 57.5746 81.5924C57.6226 81.4317 57.3823 81.1587 55.7158 79.4562C54.9306 78.6692 54.2255 78.0588 54.1454 78.1231C54.0653 78.1713 54.0012 78.1231 54.0012 78.0267C54.0012 77.8661 53.9051 77.7215 53.3602 77.0791C52.7032 76.3081 52.7193 76.4527 52.7193 65.9806C52.7193 59.3472 52.7673 55.8619 52.8795 55.8619C52.9757 55.8619 53.0398 55.6531 53.0398 55.4122C53.0398 55.1552 53.0878 54.8982 53.1359 54.85C53.2801 54.7215 56.2446 57.6608 56.1484 57.8214C56.1004 57.8857 56.1324 57.9499 56.1965 57.9499C56.4369 57.9499 57.3663 58.7851 57.2701 58.9296C57.2381 58.9939 57.3983 59.1706 57.6387 59.2991C58.2316 59.6042 62.0453 63.4911 61.9011 63.6196C61.853 63.6838 61.8851 63.732 61.9972 63.732C62.2857 63.732 64.529 65.9485 64.7213 66.4303C64.8495 66.7355 64.8816 69.9157 64.8655 77.2076L64.8175 87.5512L64.4649 87.776C64.1445 87.9848 64.0964 87.9688 63.872 87.6154Z" fill="#631032"/>
<path d="M10.8964 78.9904C5.30398 78.9422 0.608918 78.8458 0.448677 78.7816C-0.288431 78.4122 -0.0640936 78.1231 4.02205 74.0435C6.21735 71.843 7.96398 69.996 7.88386 69.9157C7.81976 69.8354 7.85181 69.8193 7.93193 69.8836C8.02807 69.9317 8.74916 69.3214 9.53434 68.5344L10.9605 67.1049H21.7287C31.1028 67.1049 32.5129 67.137 32.6892 67.3458C32.8334 67.5225 32.8334 67.5868 32.7052 67.5868C32.593 67.5868 32.561 67.6671 32.6251 67.7795C32.6892 67.8919 32.6731 67.908 32.5449 67.8437C32.4488 67.7795 32.3206 67.8437 32.2565 68.0044C32.1283 68.3577 22.0171 78.5086 21.4723 78.8298C21.1198 79.0386 19.7577 79.0546 10.8964 78.9904Z" fill="#631032"/>
<path d="M13.8128 64.2621C14.1333 63.9248 14.7742 63.2823 15.2069 62.8165C15.6555 62.3507 16.0241 61.901 16.0241 61.8047C16.0241 61.7243 16.0722 61.6601 16.1523 61.6762C16.3286 61.7404 18.2675 59.8291 18.2675 59.6042C18.2675 59.4918 18.3796 59.3954 18.5078 59.3954C18.636 59.3954 18.9565 59.0903 19.2289 58.7209C19.4853 58.3675 19.7096 58.1266 19.7096 58.1908C19.7096 58.2551 20.6871 57.3396 21.8729 56.151C23.0587 54.9464 24.0361 53.9024 24.0361 53.8061C24.0361 53.7257 24.1804 53.6133 24.3726 53.5651C24.5489 53.5169 24.7412 53.3242 24.7893 53.1475C24.8694 52.8263 24.9175 52.8263 35.9741 52.8102C42.4959 52.8102 47.1269 52.8745 47.1749 52.9548C47.223 53.0351 44.6431 55.7495 41.4223 58.9778L35.5735 64.8563H24.4047H13.2359L13.8128 64.2621Z" fill="#631032"/>
<path d="M54.4178 48.8431C54.3057 48.7306 54.4499 48.57 56.1004 46.9478C56.6292 46.4178 57.158 45.8877 57.2541 45.7753C57.3663 45.6629 57.6226 45.4059 57.831 45.2132C58.0393 45.0204 58.3277 44.7153 58.4719 44.5546C58.6161 44.394 58.8725 44.137 59.0328 43.9925C59.193 43.8479 59.4494 43.607 59.5936 43.4303C60.2506 42.6755 61.5646 41.4066 61.6928 41.4066C61.7729 41.4066 61.9652 41.1978 62.1094 40.9408C62.2696 40.6838 62.5581 40.3787 62.7664 40.2662C62.9587 40.1538 63.167 39.9611 63.2151 39.8165C63.2631 39.672 63.4554 39.4471 63.6477 39.3186C63.824 39.1901 64.0964 38.9492 64.2406 38.7886C64.3848 38.628 64.8335 38.1301 65.2501 37.6964L66.0033 36.9094H76.9958C86.8025 36.9094 88.7895 36.9736 87.6839 37.2627C87.5076 37.3109 87.2192 37.6964 87.0108 38.114C86.7705 38.5958 86.6102 38.8046 86.5301 38.6762C86.466 38.5637 86.3218 38.5316 86.2257 38.5798C86.1295 38.644 86.0814 38.7725 86.1455 38.8528C86.2417 39.0295 85.6007 39.6238 85.2802 39.6398C85.1681 39.6398 85.0239 39.7683 84.9758 39.9289C84.8155 40.3787 84.3829 40.8444 84.1265 40.8444C84.0143 40.8444 83.7259 41.1817 83.5016 41.5993C83.2772 42.033 83.0529 42.29 82.9888 42.1775C82.8446 41.9527 82.5241 42.1615 82.5241 42.4988C82.5241 42.8039 82.0754 43.2537 81.7549 43.2537C81.6588 43.2537 81.4345 43.5106 81.2742 43.8158C81.0979 44.1692 80.8896 44.378 80.6813 44.378C80.489 44.378 80.2807 44.5546 80.1525 44.8438C80.0243 45.1007 79.784 45.3417 79.6077 45.3898C79.4475 45.422 79.2071 45.7111 79.0789 46.0002C78.9347 46.3535 78.7104 46.5784 78.438 46.6426C78.1976 46.7069 77.9412 46.8996 77.8611 47.0924C77.5566 47.7669 77.2361 48.2327 77.2361 48.0239C77.2361 47.8954 77.14 47.8312 77.0439 47.8794C76.9317 47.9115 76.8516 48.04 76.8836 48.1363C76.8996 48.2488 76.7554 48.4736 76.5631 48.6343C76.2106 48.9394 75.7619 48.9394 65.3623 48.9555C59.4013 48.9555 54.4819 48.9073 54.4178 48.8431Z" fill="#631032"/>
<path d="M48.1364 46.8675C47.9761 46.7069 46.6301 45.3577 45.1399 43.8961C43.6656 42.4185 42.3837 41.0854 42.3036 40.9087C42.2074 40.7481 42.0632 40.6035 41.9831 40.6035C41.8549 40.6035 38.8264 37.6322 37.6246 36.3312C37.4643 36.1545 37.1919 35.8815 36.9996 35.7048C36.6791 35.3996 36.6631 35.2711 36.7432 33.5686C36.7913 32.4925 36.7753 31.8019 36.6791 31.8661C36.599 31.9143 36.5349 31.834 36.5349 31.7055C36.5349 31.5609 36.615 31.4485 36.6952 31.4485C36.8073 31.4485 36.8554 28.3647 36.8554 22.5344C36.8554 13.6845 36.8554 13.6203 37.1759 13.6203C37.3521 13.6203 37.5444 13.7327 37.5925 13.8612C37.6566 13.9897 37.7527 14.07 37.8168 14.0218C37.897 13.9737 37.9931 14.0861 38.0572 14.2628C38.1053 14.4394 38.2335 14.584 38.3136 14.584C38.3937 14.584 38.4578 14.6964 38.4578 14.8249C38.4578 15.098 39.0026 15.4192 39.1789 15.2586C39.259 15.1943 39.259 15.2264 39.2109 15.3228C39.0827 15.5477 39.6276 16.0777 39.8199 15.9171C39.8839 15.8368 39.9 15.9171 39.8359 16.0938C39.7558 16.3186 39.8038 16.3668 39.9801 16.2865C40.1243 16.2383 40.2044 16.2544 40.1564 16.3186C40.0602 16.4792 40.6211 16.9932 40.8774 16.9932C40.9736 16.9932 41.0217 17.1056 40.9576 17.2341C40.9095 17.3787 41.0056 17.5393 41.23 17.6517C41.6786 17.8926 42.1433 18.3745 42.0472 18.4869C41.9991 18.5351 42.0953 18.6475 42.2715 18.7439C42.4478 18.8403 42.7202 19.0491 42.8805 19.1936C43.0407 19.3542 43.233 19.4827 43.3291 19.4827C43.4253 19.4827 43.5855 19.6594 43.6817 19.8682C43.7938 20.077 44.0021 20.3179 44.1303 20.3982C44.2746 20.4785 44.3547 20.607 44.3066 20.6873C44.2265 20.8158 44.7392 21.2013 44.8835 21.121C44.9155 21.1049 44.9315 21.121 44.9155 21.1531C44.8835 21.1852 45.0437 21.378 45.268 21.5707C45.4764 21.7795 45.6046 21.9883 45.5405 22.0686C45.4764 22.1329 45.5725 22.1329 45.7488 22.0686C45.925 22.0044 46.0212 22.0044 45.9571 22.0526C45.8289 22.1811 46.4058 22.7753 46.6301 22.7753C46.7262 22.7753 46.7903 22.9038 46.7583 23.0644C46.7262 23.2411 46.8064 23.3375 46.9826 23.3214C47.1429 23.3054 47.239 23.3535 47.1909 23.4178C47.1429 23.482 47.3031 23.6587 47.5114 23.8033C47.7358 23.9478 47.88 24.1245 47.8479 24.2048C47.7999 24.269 47.9761 24.4939 48.2485 24.6866L48.7292 25.04L48.6972 36.0421C48.6812 42.0812 48.6171 47.0602 48.553 47.1084C48.4889 47.1406 48.2966 47.0442 48.1364 46.8675Z" fill="#631032"/>
<path d="M68.6152 34.7893C68.4069 34.5805 68.2627 34.7411 71.7559 31.2076C73.1981 29.746 74.4319 28.5575 74.5121 28.5575C74.5922 28.5575 74.7524 28.3968 74.8486 28.2041C75.0889 27.7383 75.5697 27.2565 75.6818 27.3689C75.7299 27.4171 75.8421 27.3047 75.9542 27.128C76.1145 26.8228 77.156 25.7306 77.9733 25.0079C78.1495 24.8633 78.3899 24.6063 78.5181 24.4297C78.6463 24.269 79.111 23.8193 79.5436 23.4499C80.2487 22.8396 80.4089 22.7753 81.1781 22.7753C81.6588 22.7753 82.0434 22.8556 82.0434 22.9359C82.0434 23.0484 85.1681 23.0966 91.5297 23.0966C96.7375 23.0805 101.048 23.1447 101.112 23.209C101.32 23.4338 101.481 24.1084 101.304 23.996C101.208 23.9478 101 24.0602 100.84 24.269C100.679 24.4778 100.455 24.6224 100.343 24.5742C100.247 24.5421 100.103 24.6545 100.038 24.8151C99.8942 25.2488 99.4776 25.6825 99.077 25.8431C98.8527 25.9234 98.7085 26.1161 98.7085 26.3088C98.7085 26.4855 98.6444 26.6301 98.5642 26.6301C98.4841 26.6301 98.3559 26.7907 98.3079 26.9674C98.2277 27.2244 98.1636 27.2565 98.0675 27.1119C97.9233 26.871 97.5868 27.0316 97.5868 27.3689C97.5868 27.658 97.09 28.1559 96.7856 28.1559C96.6574 28.1559 96.5292 28.3005 96.4971 28.4771C96.417 28.8787 95.9203 29.3605 95.5838 29.3605C95.4556 29.3605 95.2633 29.5372 95.1832 29.746C95.103 29.9548 94.8466 30.2278 94.5903 30.3563C94.3499 30.4688 94.1256 30.7097 94.0935 30.8864C94.0454 31.063 93.9333 31.2718 93.8051 31.3361C93.6769 31.4003 93.5807 31.5931 93.5807 31.7376C93.5807 31.9625 93.5487 31.9625 93.4365 31.7858C93.2603 31.4967 92.9398 31.7055 92.9398 32.107C92.9398 32.2676 92.8757 32.4122 92.8116 32.4122C92.7315 32.4122 92.5872 32.5728 92.4911 32.7816C92.395 32.9744 92.3148 33.0386 92.3148 32.9422C92.2828 32.5568 91.9623 32.7334 91.8021 33.2153C91.7059 33.4883 91.5617 33.6971 91.4816 33.6971C91.4015 33.6971 91.3374 33.8095 91.3374 33.938C91.3374 34.0665 91.0169 34.3556 90.6483 34.5805L89.9433 34.982H79.3834C71.5957 34.982 68.7594 34.9338 68.6152 34.7893Z" fill="#631032"/>
<path d="M34.2596 32.9262C34.0192 32.6852 33.6667 32.3319 33.4583 32.1391C32.8815 31.577 32.7373 31.4324 31.7277 30.4045C31.215 29.8745 30.6702 29.3284 30.542 29.1999C30.3977 29.0714 29.917 28.5735 29.4523 28.1077C28.9876 27.6259 28.4749 27.128 28.3306 26.9834C27.9781 26.6461 27.4012 26.0679 27.0487 25.6985C26.9045 25.554 26.6962 25.3612 26.6 25.2648C26.5039 25.1845 26.2635 24.9276 26.0552 24.7027C25.8469 24.4778 25.0617 23.7069 24.2926 22.9681L22.9145 21.6189V10.8898C22.9145 0.289289 22.9145 0.144736 23.235 0.0483672C23.6836 -0.0961859 24.1644 0.0965516 24.2765 0.449904C24.3246 0.610518 24.4849 0.787194 24.613 0.835378C24.7412 0.883563 24.8214 0.995993 24.7573 1.0763C24.6611 1.25298 25.2059 1.60633 25.3822 1.4939C25.4303 1.44571 25.4463 1.46178 25.3982 1.52602C25.3662 1.57421 25.4944 1.783 25.7187 1.97574C25.927 2.18454 26.0552 2.39334 26.0071 2.44152C25.943 2.48971 25.9751 2.53789 26.0712 2.53789C26.2796 2.53789 26.7923 3.01974 27.0167 3.42127C27.1288 3.59795 27.3211 3.72644 27.4653 3.72644C27.6096 3.71038 27.6897 3.7425 27.6416 3.80675C27.6096 3.87099 27.7538 4.04767 27.9621 4.20828C28.1864 4.3689 28.3146 4.56164 28.2826 4.64194C28.2345 4.70619 28.3467 4.80256 28.5229 4.8668C28.6992 4.93105 28.9556 5.15591 29.0677 5.39683C29.1959 5.63775 29.5965 6.00717 29.9491 6.23203C30.3176 6.45689 30.574 6.71387 30.542 6.8263C30.4939 6.92267 30.6541 7.13147 30.8945 7.29208C31.3912 7.61331 31.7277 7.93454 31.7758 8.11122C31.7918 8.17546 31.904 8.22365 32.0162 8.22365C32.1283 8.20759 32.1924 8.22365 32.1444 8.27183C32.0963 8.32002 32.2405 8.49669 32.4488 8.67337C32.6732 8.85004 32.8174 9.04278 32.7693 9.12309C32.7212 9.18733 32.8975 9.38007 33.1379 9.52462C33.6827 9.87798 34.1314 10.3438 34.0352 10.4562C33.9871 10.4883 34.1794 10.6007 34.4358 10.6971L34.9326 10.8738V22.0365C34.9326 28.172 34.8685 33.2313 34.8044 33.2795C34.7242 33.3277 34.4839 33.1671 34.2596 32.9262Z" fill="#631032"/>
</svg>
