<svg width="696" height="119" viewBox="0 0 696 119" fill="none" xmlns="http://www.w3.org/2000/svg">
<path d="M470.008 69.782C460.992 69.782 455.219 62.1 455.219 53.475C455.219 45.057 460.21 36.938 470.261 36.938C473.803 36.938 475.459 38.042 476.908 38.042C477.943 38.042 478.61 37.559 479.53 37.559C481.301 37.559 481.347 39.33 481.899 42.067C482.497 45.172 482.819 45.931 482.819 46.575C482.819 47.564 482.244 48.024 481.577 48.024C480.358 48.024 479.737 46.621 478.725 45.172C476.609 42.205 473.826 40.503 471.066 40.503C465.983 40.503 463.062 45.655 463.062 51.313C463.062 59.248 467.685 64.492 472.262 64.492C474.033 64.492 475.597 63.641 476.195 62.721C476.701 61.893 476.793 61.019 476.793 59.363C476.793 55.545 475.942 55.269 474.907 54.533C474.01 53.889 472.883 53.82 472.883 52.647C472.883 51.727 473.55 51.175 474.907 51.175C476.218 51.175 477.874 51.313 479.047 51.313C480.634 51.313 482.083 51.175 483.831 51.175C484.866 51.175 485.303 51.773 485.303 52.555C485.303 54.326 483.9 54.096 483.9 58.857C483.9 61.456 484.13 65.711 484.13 67.252C484.13 68.425 483.785 69.138 482.658 69.138C482.083 69.138 481.531 68.793 480.979 68.172C480.496 67.735 480.036 67.275 479.576 67.275C478.886 67.275 478.035 67.735 476.908 68.218C475.252 68.908 472.929 69.782 470.008 69.782ZM502.613 41.009C499.761 41.009 496.817 43.815 496.817 50.692C496.817 53.82 497.346 57.454 498.726 60.513C500.313 63.802 502.843 65.251 505.12 65.251C508.409 65.251 511.307 62.813 511.307 56.787C511.307 53.383 510.456 49.289 509.053 46.368C507.535 43.033 505.074 41.009 502.613 41.009ZM488.215 53.613C488.215 43.769 494.471 36.961 503.625 36.961C512.089 36.961 519.334 43.102 519.334 54.119C519.334 64.538 512.503 69.782 503.947 69.782C494.103 69.782 488.215 63.02 488.215 53.613ZM524.208 69.115C522.943 69.115 522.391 68.609 522.391 67.85C522.391 66.286 524.576 66.378 524.944 63.779C525.151 62.399 525.22 58.466 525.22 52.647C525.22 47.817 525.174 45.057 525.128 44.16C524.829 40.526 522.575 40.733 522.575 38.962C522.575 38.18 523.012 37.605 524.231 37.605C526.163 37.605 528.371 37.72 530.372 37.72C532.764 37.72 535.11 37.582 537.479 37.582C542.654 37.582 548.151 39.238 548.151 44.988C548.151 48.3 545.529 50.761 543.505 51.589C543.413 51.635 543.275 51.727 543.275 51.865C543.275 52.003 543.413 52.072 543.505 52.095C547.392 53.222 550.29 56.051 550.29 59.823C550.29 67.873 543.367 69.138 537.663 69.138C535.271 69.138 531.775 69 529.337 69C527.566 69 525.933 69.115 524.208 69.115ZM542.194 59.708C542.194 56.971 540.699 55.2 538.33 54.418C537.134 54.027 534.926 53.912 533.477 53.912C532.718 53.912 532.442 54.28 532.442 56.212V62.79C532.442 64.676 532.787 65.067 536.053 65.067C540.147 65.067 542.194 63.342 542.194 59.708ZM532.442 42.734V49.105C532.442 50.048 532.902 50.163 533.96 50.163C535.432 50.163 537.295 49.956 538.422 49.473C539.917 48.852 540.837 47.518 540.837 45.678C540.837 42.435 538.031 41.492 534.765 41.492C532.902 41.492 532.442 41.814 532.442 42.734ZM564.294 37.605C565.513 37.605 565.927 38.203 565.927 38.962C565.927 40.733 563.719 40.48 563.397 44.114C563.282 45.126 563.259 48.507 563.259 52.647C563.259 57.822 563.374 62.353 563.558 63.71C563.972 66.355 566.111 66.286 566.111 67.85C566.111 68.54 565.513 69.115 564.294 69.115C562.937 69.115 561.189 69 559.694 69C558.153 69 556.382 69.115 555.025 69.115C553.76 69.115 553.208 68.54 553.208 67.85C553.208 66.286 555.416 66.332 555.784 63.71C555.968 62.445 556.037 57.04 556.037 52.647C556.037 49.542 556.037 45.149 555.968 44.114C555.669 40.503 553.392 40.71 553.392 38.962C553.392 38.203 553.76 37.605 555.048 37.605C556.451 37.605 558.199 37.72 559.694 37.72C561.235 37.72 562.983 37.605 564.294 37.605ZM588.139 49.726V56.373C588.139 57.592 587.886 58.259 587.035 58.259C586.115 58.259 585.747 57.454 585.448 56.787C584.666 55.131 584.252 54.326 581.078 54.326C580.089 54.326 579.744 54.878 579.744 56.557V61.433C579.744 64.63 580.756 64.975 583.93 64.975C588.99 64.975 590.485 63.572 592.164 59.938C592.601 59.018 593.13 58.328 593.797 58.328C594.487 58.328 594.924 58.857 594.924 60.26C594.924 61.387 594.28 65.021 594.073 67.39C593.981 68.793 593.475 69.115 591.865 69.115C590.232 69.115 586.575 69 582.826 69C578.663 69 574.707 69.115 571.556 69.115C570.291 69.115 569.739 68.609 569.739 67.85C569.739 66.309 571.924 66.378 572.292 63.779C572.499 62.468 572.568 57.109 572.568 52.647C572.568 49.519 572.545 45.149 572.476 44.16C572.177 40.526 569.923 40.733 569.923 38.962C569.923 38.203 570.291 37.605 571.579 37.605C573.902 37.605 576.593 37.72 581.883 37.72C586.46 37.72 588.944 37.605 590.6 37.605C592.233 37.605 592.785 37.904 593.107 39.997C593.291 40.986 593.567 42.803 593.912 44.574C594.073 45.356 594.188 46.253 594.188 46.552C594.188 47.518 593.59 47.909 592.946 47.909C592.003 47.909 591.543 46.897 591.037 45.954C589.266 42.389 588.415 41.515 583.47 41.515C580.319 41.515 579.744 41.952 579.744 44.482V48.047C579.744 49.956 580.066 50.301 580.94 50.301C584.689 50.301 585.011 48.99 585.862 47.587C586.138 47.196 586.483 46.92 586.897 46.92C587.771 46.92 588.139 47.656 588.139 49.726ZM616.415 46.897C616.415 43.654 614.092 41.653 610.872 41.653C608.434 41.653 608.181 41.952 608.181 44.758V49.266C608.181 51.014 608.572 51.957 611.148 51.957C614.368 51.957 616.415 50.117 616.415 46.897ZM608.158 58.397V61.985C608.158 63.871 608.779 64.837 609.561 65.665C610.274 66.47 611.24 66.93 611.24 67.85C611.24 68.678 610.527 69.115 609.446 69.115C608.089 69.115 606.111 69 604.616 69C603.029 69 601.051 69.115 599.947 69.115C598.682 69.115 598.13 68.609 598.13 67.85C598.13 66.309 600.315 66.378 600.683 63.779C600.89 62.468 600.959 57.109 600.959 52.647C600.959 49.519 600.936 45.149 600.867 44.16C600.568 40.526 598.314 40.733 598.314 38.962C598.314 38.203 598.682 37.605 599.97 37.605C602.293 37.605 603.074 37.72 605.766 37.72C608.296 37.72 610.803 37.559 613.701 37.559C620.325 37.559 624.488 40.227 624.488 45.954C624.488 48.783 623.062 51.911 617.772 53.751C617.634 53.82 617.473 53.912 617.473 54.073C617.473 54.188 617.565 54.349 617.795 54.464C620.969 56.166 622.901 58.926 624.81 62.376C625.73 64.078 626.466 65.274 627.432 66.033C628.329 66.815 628.835 66.93 628.835 67.827C628.835 68.839 628.145 69.115 627.409 69.115C626.443 69.115 624.097 69 622.993 69C621.061 69 619.29 69.115 618.6 69.115C617.473 69.115 616.737 68.517 616.737 67.758C616.737 66.953 617.289 66.654 617.289 65.55C617.289 62.951 614.621 58.42 612.528 56.925C611.608 56.35 610.136 56.212 609.791 56.212C608.618 56.212 608.158 57.04 608.158 58.397ZM632.178 37.605C633.029 37.605 634.938 37.72 636.111 37.72C637.445 37.72 638.273 37.766 638.848 38.065C639.63 38.433 640.136 39.215 641.562 40.963L651.452 54.418C652.418 55.614 653.062 56.189 653.177 56.189C653.43 56.189 653.499 56.051 653.499 52.072C653.499 47.633 653.269 43.585 652.579 42.274C651.843 40.526 650.279 40.204 650.279 38.939C650.279 38.111 650.739 37.605 651.912 37.605C653.108 37.605 654.488 37.72 655.362 37.72C656.397 37.72 657.731 37.605 658.766 37.605C659.916 37.605 660.33 38.18 660.33 38.962C660.33 40.71 658.283 40.319 658.007 43.746C657.915 44.735 657.869 48.369 657.869 51.428C657.892 62.997 658.26 63.043 658.26 66.447C658.26 68.034 656.765 69.368 654.557 69.368C653.959 69.368 653.154 68.862 652.395 67.965L638.71 49.887C638.227 49.335 637.997 49.013 637.813 49.013C637.468 49.013 637.422 49.473 637.422 53.958C637.422 58.903 637.813 63.181 638.434 64.492C639.216 66.332 640.78 66.516 640.78 67.758C640.78 68.586 640.274 69.115 639.124 69.115C637.79 69.115 636.525 69 635.651 69C634.593 69 633.19 69.115 631.925 69.115C630.798 69.115 630.338 68.563 630.338 67.781C630.338 66.056 632.73 66.447 633.006 63.02C633.098 61.939 633.167 58.282 633.167 52.716C633.167 47.863 633.144 45.057 633.075 44.16C632.753 40.526 630.522 40.733 630.522 38.962C630.522 38.134 631.051 37.605 632.178 37.605ZM677.269 41.009C674.417 41.009 671.473 43.815 671.473 50.692C671.473 53.82 672.002 57.454 673.382 60.513C674.969 63.802 677.499 65.251 679.776 65.251C683.065 65.251 685.963 62.813 685.963 56.787C685.963 53.383 685.112 49.289 683.709 46.368C682.191 43.033 679.73 41.009 677.269 41.009ZM662.871 53.613C662.871 43.769 669.127 36.961 678.281 36.961C686.745 36.961 693.99 43.102 693.99 54.119C693.99 64.538 687.159 69.782 678.603 69.782C668.759 69.782 662.871 63.02 662.871 53.613Z" fill="#620E31"/>
<path d="M460.976 88.16C460.101 88.16 459.264 88.0373 458.464 87.792C457.664 87.536 457.029 87.2107 456.56 86.816L457.28 85.2C457.728 85.552 458.283 85.8453 458.944 86.08C459.605 86.3147 460.283 86.432 460.976 86.432C461.563 86.432 462.037 86.368 462.4 86.24C462.763 86.112 463.029 85.9413 463.2 85.728C463.371 85.504 463.456 85.2533 463.456 84.976C463.456 84.6347 463.333 84.3627 463.088 84.16C462.843 83.9467 462.523 83.7813 462.128 83.664C461.744 83.536 461.312 83.4187 460.832 83.312C460.363 83.2053 459.888 83.0827 459.408 82.944C458.939 82.7947 458.507 82.608 458.112 82.384C457.728 82.1493 457.413 81.84 457.168 81.456C456.923 81.072 456.8 80.5813 456.8 79.984C456.8 79.376 456.96 78.8213 457.28 78.32C457.611 77.808 458.107 77.4027 458.768 77.104C459.44 76.7947 460.288 76.64 461.312 76.64C461.984 76.64 462.651 76.7253 463.312 76.896C463.973 77.0667 464.549 77.312 465.04 77.632L464.384 79.248C463.883 78.9493 463.365 78.7307 462.832 78.592C462.299 78.4427 461.787 78.368 461.296 78.368C460.72 78.368 460.251 78.4373 459.888 78.576C459.536 78.7147 459.275 78.896 459.104 79.12C458.944 79.344 458.864 79.6 458.864 79.888C458.864 80.2293 458.981 80.5067 459.216 80.72C459.461 80.9227 459.776 81.0827 460.16 81.2C460.555 81.3173 460.992 81.4347 461.472 81.552C461.952 81.6587 462.427 81.7813 462.896 81.92C463.376 82.0587 463.808 82.24 464.192 82.464C464.587 82.688 464.901 82.992 465.136 83.376C465.381 83.76 465.504 84.2453 465.504 84.832C465.504 85.4293 465.339 85.984 465.008 86.496C464.688 86.9973 464.192 87.4027 463.52 87.712C462.848 88.0107 462 88.16 460.976 88.16ZM469.487 81.456H475.055V83.168H469.487V81.456ZM469.647 86.256H475.967V88H467.567V76.8H475.743V78.544H469.647V86.256ZM483.469 88.16C482.616 88.16 481.821 88.0213 481.085 87.744C480.36 87.456 479.725 87.056 479.181 86.544C478.648 86.0213 478.232 85.408 477.933 84.704C477.635 84 477.485 83.232 477.485 82.4C477.485 81.568 477.635 80.8 477.933 80.096C478.232 79.392 478.653 78.784 479.197 78.272C479.741 77.7493 480.376 77.3493 481.101 77.072C481.827 76.784 482.621 76.64 483.485 76.64C484.403 76.64 485.24 76.8 485.997 77.12C486.755 77.4293 487.395 77.8933 487.917 78.512L486.573 79.776C486.168 79.3387 485.715 79.0133 485.213 78.8C484.712 78.576 484.168 78.464 483.581 78.464C482.995 78.464 482.456 78.56 481.965 78.752C481.485 78.944 481.064 79.216 480.701 79.568C480.349 79.92 480.072 80.336 479.869 80.816C479.677 81.296 479.581 81.824 479.581 82.4C479.581 82.976 479.677 83.504 479.869 83.984C480.072 84.464 480.349 84.88 480.701 85.232C481.064 85.584 481.485 85.856 481.965 86.048C482.456 86.24 482.995 86.336 483.581 86.336C484.168 86.336 484.712 86.2293 485.213 86.016C485.715 85.792 486.168 85.456 486.573 85.008L487.917 86.288C487.395 86.896 486.755 87.36 485.997 87.68C485.24 88 484.397 88.16 483.469 88.16ZM489.91 88V76.8H494.518C495.51 76.8 496.358 76.96 497.062 77.28C497.777 77.6 498.326 78.0587 498.71 78.656C499.094 79.2533 499.286 79.9627 499.286 80.784C499.286 81.6053 499.094 82.3147 498.71 82.912C498.326 83.4987 497.777 83.952 497.062 84.272C496.358 84.5813 495.51 84.736 494.518 84.736H491.062L491.99 83.792V88H489.91ZM497.238 88L494.406 83.936H496.63L499.478 88H497.238ZM491.99 84.016L491.062 83.024H494.422C495.34 83.024 496.028 82.8267 496.486 82.432C496.956 82.0373 497.19 81.488 497.19 80.784C497.19 80.0693 496.956 79.52 496.486 79.136C496.028 78.752 495.34 78.56 494.422 78.56H491.062L491.99 77.536V84.016ZM503.533 81.456H509.101V83.168H503.533V81.456ZM503.693 86.256H510.013V88H501.613V76.8H509.789V78.544H503.693V86.256ZM514.604 88V78.56H510.892V76.8H520.396V78.56H516.684V88H514.604ZM519.811 88L524.851 76.8H526.899L531.955 88H529.779L525.443 77.904H526.275L521.955 88H519.811ZM522.131 85.408L522.691 83.776H528.739L529.299 85.408H522.131ZM533.379 88V76.8H537.987C538.979 76.8 539.827 76.96 540.531 77.28C541.246 77.6 541.795 78.0587 542.179 78.656C542.563 79.2533 542.755 79.9627 542.755 80.784C542.755 81.6053 542.563 82.3147 542.179 82.912C541.795 83.4987 541.246 83.952 540.531 84.272C539.827 84.5813 538.979 84.736 537.987 84.736H534.531L535.459 83.792V88H533.379ZM540.707 88L537.875 83.936H540.099L542.947 88H540.707ZM535.459 84.016L534.531 83.024H537.891C538.808 83.024 539.496 82.8267 539.955 82.432C540.424 82.0373 540.659 81.488 540.659 80.784C540.659 80.0693 540.424 79.52 539.955 79.136C539.496 78.752 538.808 78.56 537.891 78.56H534.531L535.459 77.536V84.016ZM545.082 88V76.8H547.162V88H545.082ZM544.778 75.888L546.938 73.696H549.29L546.506 75.888H544.778ZM548.607 88L553.648 76.8H555.696L560.752 88H558.576L554.24 77.904H555.072L550.752 88H548.607ZM550.928 85.408L551.488 83.776H557.536L558.095 85.408H550.928ZM566.598 88V76.8H571.494C572.71 76.8 573.776 77.0347 574.694 77.504C575.611 77.9733 576.326 78.624 576.838 79.456C577.35 80.288 577.606 81.2693 577.606 82.4C577.606 83.52 577.35 84.5013 576.838 85.344C576.326 86.176 575.611 86.8267 574.694 87.296C573.776 87.7653 572.71 88 571.494 88H566.598ZM568.678 86.24H571.398C572.24 86.24 572.966 86.08 573.574 85.76C574.192 85.44 574.667 84.992 574.998 84.416C575.339 83.84 575.51 83.168 575.51 82.4C575.51 81.6213 575.339 80.9493 574.998 80.384C574.667 79.808 574.192 79.36 573.574 79.04C572.966 78.72 572.24 78.56 571.398 78.56H568.678V86.24ZM581.737 81.456H587.305V83.168H581.737V81.456ZM581.897 86.256H588.217V88H579.817V76.8H587.993V78.544H581.897V86.256ZM600.189 88.16C599.314 88.16 598.509 88.0213 597.773 87.744C597.048 87.456 596.413 87.056 595.869 86.544C595.325 86.0213 594.904 85.408 594.605 84.704C594.306 84 594.157 83.232 594.157 82.4C594.157 81.568 594.306 80.8 594.605 80.096C594.904 79.392 595.325 78.784 595.869 78.272C596.424 77.7493 597.069 77.3493 597.805 77.072C598.541 76.784 599.346 76.64 600.221 76.64C601.17 76.64 602.024 76.7947 602.781 77.104C603.549 77.4133 604.194 77.8667 604.717 78.464L603.405 79.744C602.968 79.3067 602.493 78.9867 601.981 78.784C601.48 78.5707 600.925 78.464 600.317 78.464C599.73 78.464 599.186 78.56 598.685 78.752C598.184 78.944 597.752 79.216 597.389 79.568C597.026 79.92 596.744 80.336 596.541 80.816C596.349 81.296 596.253 81.824 596.253 82.4C596.253 82.9653 596.349 83.488 596.541 83.968C596.744 84.448 597.026 84.8693 597.389 85.232C597.752 85.584 598.178 85.856 598.669 86.048C599.16 86.24 599.704 86.336 600.301 86.336C600.856 86.336 601.389 86.2507 601.901 86.08C602.424 85.8987 602.92 85.6 603.389 85.184L604.573 86.736C603.986 87.2053 603.304 87.5627 602.525 87.808C601.757 88.0427 600.978 88.16 600.189 88.16ZM602.605 86.464V82.272H604.573V86.736L602.605 86.464ZM612.565 88.16C611.69 88.16 610.885 88.016 610.149 87.728C609.413 87.44 608.773 87.04 608.229 86.528C607.685 86.0053 607.263 85.3973 606.965 84.704C606.666 84 606.517 83.232 606.517 82.4C606.517 81.568 606.666 80.8053 606.965 80.112C607.263 79.408 607.685 78.8 608.229 78.288C608.773 77.7653 609.413 77.36 610.149 77.072C610.885 76.784 611.685 76.64 612.549 76.64C613.423 76.64 614.223 76.784 614.949 77.072C615.685 77.36 616.325 77.7653 616.869 78.288C617.413 78.8 617.834 79.408 618.133 80.112C618.431 80.8053 618.581 81.568 618.581 82.4C618.581 83.232 618.431 84 618.133 84.704C617.834 85.408 617.413 86.016 616.869 86.528C616.325 87.04 615.685 87.44 614.949 87.728C614.223 88.016 613.429 88.16 612.565 88.16ZM612.549 86.336C613.114 86.336 613.637 86.24 614.117 86.048C614.597 85.856 615.013 85.584 615.365 85.232C615.717 84.8693 615.989 84.4533 616.181 83.984C616.383 83.504 616.485 82.976 616.485 82.4C616.485 81.824 616.383 81.3013 616.181 80.832C615.989 80.352 615.717 79.936 615.365 79.584C615.013 79.2213 614.597 78.944 614.117 78.752C613.637 78.56 613.114 78.464 612.549 78.464C611.983 78.464 611.461 78.56 610.981 78.752C610.511 78.944 610.095 79.2213 609.733 79.584C609.381 79.936 609.103 80.352 608.901 80.832C608.709 81.3013 608.613 81.824 608.613 82.4C608.613 82.9653 608.709 83.488 608.901 83.968C609.103 84.448 609.381 84.8693 609.733 85.232C610.085 85.584 610.501 85.856 610.981 86.048C611.461 86.24 611.983 86.336 612.549 86.336ZM620.785 88V76.8H626.033C627.377 76.8 628.401 77.0667 629.105 77.6C629.809 78.1227 630.161 78.8267 630.161 79.712C630.161 80.3093 630.023 80.8213 629.745 81.248C629.468 81.664 629.095 81.9893 628.625 82.224C628.167 82.448 627.665 82.56 627.121 82.56L627.409 81.984C628.039 81.984 628.604 82.1013 629.105 82.336C629.607 82.56 630.001 82.8907 630.289 83.328C630.588 83.7653 630.737 84.3093 630.737 84.96C630.737 85.92 630.369 86.6667 629.633 87.2C628.897 87.7333 627.804 88 626.353 88H620.785ZM622.865 86.368H626.225C627.004 86.368 627.601 86.24 628.017 85.984C628.433 85.728 628.641 85.3173 628.641 84.752C628.641 84.1973 628.433 83.792 628.017 83.536C627.601 83.2693 627.004 83.136 626.225 83.136H622.705V81.52H625.809C626.535 81.52 627.089 81.392 627.473 81.136C627.868 80.88 628.065 80.496 628.065 79.984C628.065 79.4613 627.868 79.072 627.473 78.816C627.089 78.56 626.535 78.432 625.809 78.432H622.865V86.368ZM632.957 88V76.8H635.037V88H632.957ZM639.987 81.456H645.555V83.168H639.987V81.456ZM640.147 86.256H646.467V88H638.067V76.8H646.243V78.544H640.147V86.256ZM648.785 88V76.8H653.393C654.385 76.8 655.233 76.96 655.937 77.28C656.652 77.6 657.201 78.0587 657.585 78.656C657.969 79.2533 658.161 79.9627 658.161 80.784C658.161 81.6053 657.969 82.3147 657.585 82.912C657.201 83.4987 656.652 83.952 655.937 84.272C655.233 84.5813 654.385 84.736 653.393 84.736H649.937L650.865 83.792V88H648.785ZM656.113 88L653.281 83.936H655.505L658.353 88H656.113ZM650.865 84.016L649.937 83.024H653.297C654.215 83.024 654.903 82.8267 655.361 82.432C655.831 82.0373 656.065 81.488 656.065 80.784C656.065 80.0693 655.831 79.52 655.361 79.136C654.903 78.752 654.215 78.56 653.297 78.56H649.937L650.865 77.536V84.016ZM660.488 88V76.8H662.2L669.224 85.424H668.376V76.8H670.44V88H668.728L661.704 79.376H662.552V88H660.488ZM678.69 88.16C677.815 88.16 677.01 88.016 676.274 87.728C675.538 87.44 674.898 87.04 674.354 86.528C673.81 86.0053 673.388 85.3973 673.09 84.704C672.791 84 672.642 83.232 672.642 82.4C672.642 81.568 672.791 80.8053 673.09 80.112C673.388 79.408 673.81 78.8 674.354 78.288C674.898 77.7653 675.538 77.36 676.274 77.072C677.01 76.784 677.81 76.64 678.674 76.64C679.548 76.64 680.348 76.784 681.074 77.072C681.81 77.36 682.45 77.7653 682.994 78.288C683.538 78.8 683.959 79.408 684.258 80.112C684.556 80.8053 684.706 81.568 684.706 82.4C684.706 83.232 684.556 84 684.258 84.704C683.959 85.408 683.538 86.016 682.994 86.528C682.45 87.04 681.81 87.44 681.074 87.728C680.348 88.016 679.554 88.16 678.69 88.16ZM678.674 86.336C679.239 86.336 679.762 86.24 680.242 86.048C680.722 85.856 681.138 85.584 681.49 85.232C681.842 84.8693 682.114 84.4533 682.306 83.984C682.508 83.504 682.61 82.976 682.61 82.4C682.61 81.824 682.508 81.3013 682.306 80.832C682.114 80.352 681.842 79.936 681.49 79.584C681.138 79.2213 680.722 78.944 680.242 78.752C679.762 78.56 679.239 78.464 678.674 78.464C678.108 78.464 677.586 78.56 677.106 78.752C676.636 78.944 676.22 79.2213 675.858 79.584C675.506 79.936 675.228 80.352 675.026 80.832C674.834 81.3013 674.738 81.824 674.738 82.4C674.738 82.9653 674.834 83.488 675.026 83.968C675.228 84.448 675.506 84.8693 675.858 85.232C676.21 85.584 676.626 85.856 677.106 86.048C677.586 86.24 678.108 86.336 678.674 86.336Z" fill="#6B7071"/>
<path d="M154.408 23.685C156.051 23.685 156.609 24.491 156.609 25.514C156.609 27.901 153.571 27.56 153.168 32.458C153.044 33.822 153.013 38.379 153.013 43.959C153.013 50.934 153.106 57.041 153.416 58.87C153.912 62.435 156.826 62.342 156.826 64.45C156.826 65.38 156.051 66.155 154.408 66.155C152.548 66.155 150.192 66 148.208 66C146.1 66 143.744 66.155 141.884 66.155C140.21 66.155 139.466 65.38 139.466 64.45C139.466 62.342 142.411 62.404 142.938 58.87C143.062 57.816 143.31 52.732 143.31 48.95C143.31 47.028 142.876 46.284 141.357 46.284H129.98C128.647 46.284 127.934 46.718 127.934 48.95C127.934 52.825 128.213 57.661 128.399 58.87C128.926 62.435 131.84 62.342 131.84 64.45C131.84 65.38 131.034 66.155 129.391 66.155C127.562 66.155 125.206 66 123.191 66C121.114 66 118.727 66.155 116.898 66.155C115.193 66.155 114.449 65.38 114.449 64.45C114.449 62.342 117.425 62.404 117.921 58.87C118.169 57.165 118.262 49.88 118.262 43.959C118.262 39.774 118.262 33.853 118.169 32.458C117.766 27.591 114.697 27.87 114.697 25.514C114.697 24.491 115.193 23.685 116.929 23.685C118.82 23.685 121.176 23.84 123.191 23.84C125.268 23.84 127.624 23.685 129.391 23.685C131.034 23.685 131.592 24.491 131.592 25.514C131.592 27.498 129.453 27.622 128.554 30.288C128.213 31.063 127.934 34.907 127.934 37.449C127.934 39.96 128.43 40.611 130.042 40.611H141.202C142.69 40.611 143.31 40.084 143.31 37.449C143.31 34.69 142.969 30.877 142.721 30.288C141.977 27.932 139.683 27.374 139.683 25.514C139.683 24.491 140.21 23.685 141.915 23.685C143.806 23.685 146.162 23.84 148.208 23.84C150.285 23.84 152.61 23.685 154.408 23.685ZM176.618 23.685C178.261 23.685 178.819 24.491 178.819 25.514C178.819 27.901 175.843 27.56 175.409 32.458C175.254 33.822 175.223 38.379 175.223 43.959C175.223 50.934 175.378 57.041 175.626 58.87C176.184 62.435 179.067 62.342 179.067 64.45C179.067 65.38 178.261 66.155 176.618 66.155C174.789 66.155 172.433 66 170.418 66C168.341 66 165.954 66.155 164.125 66.155C162.42 66.155 161.676 65.38 161.676 64.45C161.676 62.342 164.652 62.404 165.148 58.87C165.396 57.165 165.489 49.88 165.489 43.959C165.489 39.774 165.489 33.853 165.396 32.458C164.993 27.591 161.924 27.87 161.924 25.514C161.924 24.491 162.42 23.685 164.156 23.685C166.047 23.685 168.403 23.84 170.418 23.84C172.495 23.84 174.851 23.685 176.618 23.685ZM197.504 33.636V55.181C197.504 59.583 198.496 60.699 202.96 60.699C211.33 60.699 214.089 52.949 214.089 45.85C214.089 36.457 210.09 28.924 201.1 28.924C197.938 28.924 197.504 30.35 197.504 33.636ZM192.699 23.84C196.109 23.84 198.434 23.654 201.782 23.654C213.562 23.654 225.063 29.575 225.063 44.672C225.063 57.971 217.437 66.186 204.851 66.186C201.193 66.186 196.636 65.969 192.699 65.969C190.622 65.969 188.235 66.124 186.406 66.124C184.701 66.124 183.957 65.38 183.957 64.45C183.957 62.342 186.933 62.404 187.429 58.87C187.677 57.165 187.77 49.88 187.77 43.959C187.77 39.774 187.77 33.853 187.677 32.458C187.274 27.591 184.205 27.87 184.205 25.514C184.205 24.491 184.701 23.685 186.437 23.685C188.328 23.685 190.684 23.84 192.699 23.84ZM240.454 48.826H248.638C249.258 48.826 249.382 48.609 249.382 48.268C249.382 47.338 246.747 39.619 245.259 36.736C245.104 36.395 244.825 36.023 244.639 36.023C244.391 36.023 244.205 36.395 244.019 36.736C242.655 39.464 239.741 47.493 239.741 48.268C239.741 48.609 239.896 48.826 240.454 48.826ZM230.317 57.723L239.741 33.171C240.547 30.97 241.074 28.769 241.353 27.126C241.787 24.987 246.53 22.879 248.545 22.879C250.188 22.879 250.746 24.026 251.335 25.607L263.828 57.785C264.2 58.746 264.944 60.358 266.556 61.753C267.176 62.311 268.168 63.086 268.168 64.078C268.168 65.752 266.959 66.155 264.51 66.155C262.836 66.155 261.317 66 258.403 66C255.489 66 253.877 66.155 252.048 66.155C250.219 66.155 249.351 65.442 249.351 64.233C249.351 62.466 253.009 61.815 253.009 58.994C253.009 58.498 252.234 56.173 251.614 55.057C251.397 54.654 250.901 54.344 250.281 54.344H239.524C238.718 54.344 238.129 54.654 237.757 55.057C237.137 55.987 236.114 58.436 236.114 59.49C236.114 62.218 239.338 62.621 239.338 64.388C239.338 65.38 238.749 66.155 236.734 66.155C235.401 66.155 233.138 66 231.712 66C230.255 66 229.325 66.155 227.961 66.155C226.628 66.155 225.915 65.535 225.915 64.419C225.915 62.466 228.426 62.621 230.317 57.723ZM274.231 43.959C274.231 39.774 274.231 33.853 274.138 32.458C273.735 27.591 270.666 27.87 270.666 25.514C270.666 24.491 271.162 23.685 272.898 23.685C274.789 23.685 277.145 23.84 279.16 23.84C281.237 23.84 284.647 23.685 286.445 23.685C288.088 23.685 288.646 24.491 288.646 25.514C288.646 28.149 284.585 27.653 284.151 32.582C283.996 33.915 283.965 38.379 283.965 43.959V56.545C283.965 59.955 285.205 60.575 289.483 60.575C296.272 60.575 298.07 57.971 299.589 53.693C300.333 51.802 300.984 50.934 301.976 50.934C303.061 50.934 303.526 51.957 303.526 53.6C303.526 55.336 303.03 59.273 302.751 63.675C302.627 65.597 301.914 66.155 299.775 66.155C297.202 66.155 292.49 66 287.096 66C278.819 66 274.851 66.155 272.867 66.155C271.286 66.155 270.418 65.566 270.418 64.45C270.418 62.311 273.301 62.435 273.859 58.963C274.138 57.351 274.231 52.019 274.231 43.959ZM326.115 67.054C313.963 67.054 306.182 56.7 306.182 45.075C306.182 33.729 312.909 22.786 326.456 22.786C331.23 22.786 333.462 24.274 335.415 24.274C336.81 24.274 337.709 23.623 338.949 23.623C341.336 23.623 341.398 26.01 342.142 29.699C342.948 33.884 343.382 34.907 343.382 35.775C343.382 37.108 342.607 37.728 341.708 37.728C340.065 37.728 339.228 35.837 337.864 33.884C335.012 29.885 331.261 27.591 327.541 27.591C320.69 27.591 316.753 34.535 316.753 42.161C316.753 52.856 322.984 59.924 329.153 59.924C331.54 59.924 333.648 58.777 334.454 57.537C335.136 56.421 335.26 55.243 335.26 53.011C335.26 47.865 334.113 47.493 332.718 46.501C331.509 45.633 329.99 45.54 329.99 43.959C329.99 42.719 330.889 41.975 332.718 41.975C334.485 41.975 336.717 42.161 338.298 42.161C340.437 42.161 342.39 41.975 344.746 41.975C346.141 41.975 346.73 42.781 346.73 43.835C346.73 46.222 344.839 45.912 344.839 52.329C344.839 55.832 345.149 61.567 345.149 63.644C345.149 65.225 344.684 66.186 343.165 66.186C342.39 66.186 341.646 65.721 340.902 64.884C340.251 64.295 339.631 63.675 339.011 63.675C338.081 63.675 336.934 64.295 335.415 64.946C333.183 65.876 330.052 67.054 326.115 67.054ZM370.06 28.273C366.216 28.273 362.248 32.055 362.248 41.324C362.248 45.54 362.961 50.438 364.821 54.561C366.96 58.994 370.37 60.947 373.439 60.947C377.872 60.947 381.778 57.661 381.778 49.539C381.778 44.951 380.631 39.433 378.74 35.496C376.694 31.001 373.377 28.273 370.06 28.273ZM350.654 45.261C350.654 31.993 359.086 22.817 371.424 22.817C382.832 22.817 392.597 31.094 392.597 45.943C392.597 59.986 383.39 67.054 371.858 67.054C358.59 67.054 350.654 57.94 350.654 45.261Z" fill="#620E31"/>
<path d="M113.4 90V76H119.8C121.08 76 122.18 76.2067 123.1 76.62C124.033 77.0333 124.753 77.6333 125.26 78.42C125.767 79.1933 126.02 80.1133 126.02 81.18C126.02 82.2333 125.767 83.1467 125.26 83.92C124.753 84.6933 124.033 85.2933 123.1 85.72C122.18 86.1333 121.08 86.34 119.8 86.34H115.6L117.36 84.62V90H113.4ZM117.36 85.04L115.6 83.22H119.56C120.387 83.22 121 83.04 121.4 82.68C121.813 82.32 122.02 81.82 122.02 81.18C122.02 80.5267 121.813 80.02 121.4 79.66C121 79.3 120.387 79.12 119.56 79.12H115.6L117.36 77.3V85.04ZM130.951 90V76H137.351C138.631 76 139.731 76.2067 140.651 76.62C141.584 77.0333 142.304 77.6333 142.811 78.42C143.317 79.1933 143.571 80.1133 143.571 81.18C143.571 82.2333 143.317 83.1467 142.811 83.92C142.304 84.68 141.584 85.2667 140.651 85.68C139.731 86.08 138.631 86.28 137.351 86.28H133.151L134.911 84.62V90H130.951ZM139.611 90L136.131 84.9H140.351L143.851 90H139.611ZM134.911 85.04L133.151 83.22H137.111C137.937 83.22 138.551 83.04 138.951 82.68C139.364 82.32 139.571 81.82 139.571 81.18C139.571 80.5267 139.364 80.02 138.951 79.66C138.551 79.3 137.937 79.12 137.111 79.12H133.151L134.911 77.3V85.04ZM148.755 90V76H152.715V90H148.755ZM158.533 90V76H161.793L167.593 85.52H165.873L171.513 76H174.773L174.813 90H171.173L171.133 81.54H171.753L167.533 88.62H165.773L161.433 81.54H162.193V90H158.533ZM184.255 81.42H190.755V84.38H184.255V81.42ZM184.535 86.94H191.855V90H180.615V76H191.595V79.06H184.535V86.94ZM197.052 90V76H203.452C204.732 76 205.832 76.2067 206.752 76.62C207.686 77.0333 208.406 77.6333 208.912 78.42C209.419 79.1933 209.672 80.1133 209.672 81.18C209.672 82.2333 209.419 83.1467 208.912 83.92C208.406 84.68 207.686 85.2667 206.752 85.68C205.832 86.08 204.732 86.28 203.452 86.28H199.252L201.012 84.62V90H197.052ZM205.712 90L202.232 84.9H206.452L209.952 90H205.712ZM201.012 85.04L199.252 83.22H203.212C204.039 83.22 204.652 83.04 205.052 82.68C205.466 82.32 205.672 81.82 205.672 81.18C205.672 80.5267 205.466 80.02 205.052 79.66C204.652 79.3 204.039 79.12 203.212 79.12H199.252L201.012 77.3V85.04ZM221.917 90.28C220.797 90.28 219.764 90.1 218.817 89.74C217.87 89.38 217.044 88.8733 216.337 88.22C215.644 87.5533 215.104 86.78 214.717 85.9C214.33 85.02 214.137 84.0533 214.137 83C214.137 81.9467 214.33 80.98 214.717 80.1C215.104 79.22 215.644 78.4533 216.337 77.8C217.044 77.1333 217.87 76.62 218.817 76.26C219.764 75.9 220.797 75.72 221.917 75.72C223.05 75.72 224.084 75.9 225.017 76.26C225.964 76.62 226.784 77.1333 227.477 77.8C228.17 78.4533 228.71 79.22 229.097 80.1C229.497 80.98 229.697 81.9467 229.697 83C229.697 84.0533 229.497 85.0267 229.097 85.92C228.71 86.8 228.17 87.5667 227.477 88.22C226.784 88.8733 225.964 89.38 225.017 89.74C224.084 90.1 223.05 90.28 221.917 90.28ZM221.917 87C222.45 87 222.944 86.9067 223.397 86.72C223.864 86.5333 224.264 86.2667 224.597 85.92C224.944 85.56 225.21 85.1333 225.397 84.64C225.597 84.1467 225.697 83.6 225.697 83C225.697 82.3867 225.597 81.84 225.397 81.36C225.21 80.8667 224.944 80.4467 224.597 80.1C224.264 79.74 223.864 79.4667 223.397 79.28C222.944 79.0933 222.45 79 221.917 79C221.384 79 220.884 79.0933 220.417 79.28C219.964 79.4667 219.564 79.74 219.217 80.1C218.884 80.4467 218.617 80.8667 218.417 81.36C218.23 81.84 218.137 82.3867 218.137 83C218.137 83.6 218.23 84.1467 218.417 84.64C218.617 85.1333 218.884 85.56 219.217 85.92C219.564 86.2667 219.964 86.5333 220.417 86.72C220.884 86.9067 221.384 87 221.917 87ZM247.231 81.42H253.731V84.38H247.231V81.42ZM247.511 86.94H254.831V90H243.591V76H254.571V79.06H247.511V86.94ZM260.029 90V76H263.989V86.86H270.669V90H260.029ZM284.056 90V76H290.456C291.736 76 292.836 76.2067 293.756 76.62C294.69 77.0333 295.41 77.6333 295.916 78.42C296.423 79.1933 296.676 80.1133 296.676 81.18C296.676 82.2333 296.423 83.1467 295.916 83.92C295.41 84.6933 294.69 85.2933 293.756 85.72C292.836 86.1333 291.736 86.34 290.456 86.34H286.256L288.016 84.62V90H284.056ZM288.016 85.04L286.256 83.22H290.216C291.043 83.22 291.656 83.04 292.056 82.68C292.47 82.32 292.676 81.82 292.676 81.18C292.676 80.5267 292.47 80.02 292.056 79.66C291.656 79.3 291.043 79.12 290.216 79.12H286.256L288.016 77.3V85.04ZM307.93 90.28C305.864 90.28 304.25 89.7133 303.09 88.58C301.93 87.4467 301.35 85.84 301.35 83.76V76H305.31V83.64C305.31 84.84 305.544 85.7 306.01 86.22C306.49 86.74 307.144 87 307.97 87C308.797 87 309.444 86.74 309.91 86.22C310.377 85.7 310.61 84.84 310.61 83.64V76H314.51V83.76C314.51 85.84 313.93 87.4467 312.77 88.58C311.61 89.7133 309.997 90.28 307.93 90.28ZM323.833 81.42H330.333V84.38H323.833V81.42ZM324.113 86.94H331.433V90H320.193V76H331.173V79.06H324.113V86.94ZM336.63 90V76H343.79C345.63 76 347.004 76.34 347.91 77.02C348.817 77.6867 349.27 78.5667 349.27 79.66C349.27 80.38 349.077 81.0133 348.69 81.56C348.317 82.0933 347.784 82.52 347.09 82.84C346.41 83.1467 345.597 83.3 344.65 83.3L345.05 82.34C346.037 82.34 346.897 82.4933 347.63 82.8C348.364 83.0933 348.93 83.5267 349.33 84.1C349.744 84.66 349.95 85.3467 349.95 86.16C349.95 87.3733 349.457 88.32 348.47 89C347.497 89.6667 346.07 90 344.19 90H336.63ZM340.55 87.14H343.87C344.55 87.14 345.064 87.0267 345.41 86.8C345.77 86.56 345.95 86.2 345.95 85.72C345.95 85.24 345.77 84.8867 345.41 84.66C345.064 84.42 344.55 84.3 343.87 84.3H340.27V81.56H343.27C343.937 81.56 344.437 81.4467 344.77 81.22C345.104 80.9933 345.27 80.6533 345.27 80.2C345.27 79.7467 345.104 79.4133 344.77 79.2C344.437 78.9733 343.937 78.86 343.27 78.86H340.55V87.14ZM355.002 90V76H358.962V86.86H365.642V90H355.002ZM377.054 90.28C375.934 90.28 374.9 90.1 373.954 89.74C373.007 89.38 372.18 88.8733 371.474 88.22C370.78 87.5533 370.24 86.78 369.854 85.9C369.467 85.02 369.274 84.0533 369.274 83C369.274 81.9467 369.467 80.98 369.854 80.1C370.24 79.22 370.78 78.4533 371.474 77.8C372.18 77.1333 373.007 76.62 373.954 76.26C374.9 75.9 375.934 75.72 377.054 75.72C378.187 75.72 379.22 75.9 380.154 76.26C381.1 76.62 381.92 77.1333 382.614 77.8C383.307 78.4533 383.847 79.22 384.234 80.1C384.634 80.98 384.834 81.9467 384.834 83C384.834 84.0533 384.634 85.0267 384.234 85.92C383.847 86.8 383.307 87.5667 382.614 88.22C381.92 88.8733 381.1 89.38 380.154 89.74C379.22 90.1 378.187 90.28 377.054 90.28ZM377.054 87C377.587 87 378.08 86.9067 378.534 86.72C379 86.5333 379.4 86.2667 379.734 85.92C380.08 85.56 380.347 85.1333 380.534 84.64C380.734 84.1467 380.834 83.6 380.834 83C380.834 82.3867 380.734 81.84 380.534 81.36C380.347 80.8667 380.08 80.4467 379.734 80.1C379.4 79.74 379 79.4667 378.534 79.28C378.08 79.0933 377.587 79 377.054 79C376.52 79 376.02 79.0933 375.554 79.28C375.1 79.4667 374.7 79.74 374.354 80.1C374.02 80.4467 373.754 80.8667 373.554 81.36C373.367 81.84 373.274 82.3867 373.274 83C373.274 83.6 373.367 84.1467 373.554 84.64C373.754 85.1333 374.02 85.56 374.354 85.92C374.7 86.2667 375.1 86.5333 375.554 86.72C376.02 86.9067 376.52 87 377.054 87Z" fill="#B28E5E"/>
<path d="M23.1227 101.685C22.9625 101.621 22.9144 99.3244 22.9144 90.9082V80.1952L23.5233 79.617C23.8438 79.2958 24.1964 78.9424 24.3085 78.83C24.4047 78.7176 24.629 78.4927 24.8053 78.316C24.9815 78.1393 25.1899 77.9305 25.2539 77.8502C25.3341 77.7699 25.6225 77.4969 25.8789 77.2399C26.1513 76.9829 26.4397 76.6938 26.5199 76.5974C26.616 76.5011 27.1127 75.9871 27.6415 75.4571C28.1703 74.9271 28.6831 74.4291 28.7632 74.3328C28.8594 74.2525 29.1478 73.9634 29.4042 73.7064C29.6766 73.4494 29.965 73.1603 30.0612 73.0479C30.1733 72.9354 30.3977 72.7106 30.5739 72.5339C30.7502 72.3572 30.9585 72.1484 31.0386 72.0681C31.1027 71.9878 31.3912 71.7148 31.6476 71.4578C31.92 71.2008 32.2244 70.8956 32.3366 70.7671C33.3301 69.7071 34.7402 68.4222 34.8364 68.5025C34.8844 68.5507 34.9325 73.5297 34.9325 79.5527V90.5067L34.3717 91.0849C34.0512 91.4222 33.7307 91.6791 33.6506 91.6791C33.5705 91.6791 33.4743 91.8237 33.4102 92.0004C33.3621 92.177 33.1058 92.434 32.8494 92.5786C32.609 92.7392 32.3206 93.0122 32.2244 93.221C32.1443 93.4138 31.8559 93.7029 31.5835 93.8635C31.3111 94.0241 31.0867 94.249 31.0867 94.3614C31.0867 94.4738 30.8303 94.7308 30.5259 94.9236C30.2214 95.1324 29.965 95.3733 29.965 95.4857C29.965 95.5821 29.6766 95.8712 29.3241 96.1282C28.9715 96.3691 28.6831 96.6421 28.6831 96.7064C28.6831 96.8831 27.3531 98.184 26.8403 98.5213C26.616 98.6659 26.4397 98.8747 26.4397 99.0032C26.4397 99.1156 26.1513 99.4047 25.7988 99.6617C25.4462 99.9026 25.1578 100.192 25.1578 100.304C25.1578 100.401 24.9174 100.641 24.613 100.818C24.3245 101.011 24.0361 101.3 23.988 101.477C23.9079 101.782 23.5554 101.862 23.1227 101.685Z" fill="#9B2149"/>
<path d="M76.9156 100.995C76.515 100.545 76.0984 100.095 75.9702 99.9829C74.8005 98.9068 71.3072 95.3251 71.3072 95.2127C71.3072 95.1163 71.2271 95.0521 71.147 95.0521C71.0508 95.0521 70.0093 94.0884 68.8235 92.8998C67.157 91.2455 66.6602 90.6512 66.6602 90.33C66.6602 89.7036 67.1089 89.8 67.814 90.587C68.1505 90.9564 68.4229 91.3258 68.4229 91.39C68.4229 91.4543 68.519 91.5185 68.6472 91.5185C68.7754 91.5185 69.0158 91.7434 69.176 92.0004C69.3202 92.2734 69.5766 92.5143 69.7208 92.5625C69.849 92.6107 70.0573 92.8195 70.1695 93.0122C70.2817 93.221 70.5701 93.5102 70.8105 93.6547C71.0508 93.7993 71.3393 94.0884 71.4674 94.3132C71.5796 94.5381 71.7399 94.7308 71.804 94.7308C71.9001 94.7308 73.4064 96.1924 74.0634 96.9152C74.2076 97.0919 74.8005 97.6861 75.3773 98.2483C75.9542 98.8104 76.4349 99.3244 76.4349 99.3886C76.4349 99.4529 76.5791 99.5493 76.7554 99.5974C76.9317 99.6456 77.0759 99.7741 77.0759 99.9026C77.0759 100.015 77.2201 100.208 77.3964 100.32L77.7168 100.513L77.6848 90.3782C77.6527 82.4278 77.5887 80.2113 77.4444 80.147C77.2361 80.0828 77.14 78.9906 77.3323 78.9906C77.3803 78.9906 77.7008 79.2636 78.0534 79.5849L78.6783 80.1791V90.7155C78.6623 101.846 78.6783 101.798 77.9412 101.798C77.7809 101.798 77.3162 101.428 76.9156 100.995Z" fill="#9B2149"/>
<path d="M36.6471 88.2581C36.535 87.9208 36.5029 71.4096 36.6311 68.8076C36.7112 66.816 36.7914 66.2539 36.9997 66.0772C37.2561 65.8363 37.7848 65.3062 38.1053 64.985C38.2976 64.7762 39.1789 63.8928 39.3873 63.7001C39.6276 63.4752 40.2205 62.8649 40.3487 62.7203C40.4128 62.6561 40.6852 62.3991 40.9416 62.1421C41.214 61.8852 41.5185 61.58 41.6306 61.4515C41.871 61.2106 43.6817 59.3796 43.874 59.2029C44.0983 58.978 45.9091 57.1631 46.0693 56.9864C46.1654 56.9061 46.4539 56.617 46.7103 56.36C46.9827 56.103 47.2711 55.8139 47.3512 55.7176C47.6877 55.3481 48.4248 54.7217 48.4889 54.7699C48.521 54.8021 48.5691 59.7008 48.6171 65.6596C48.6973 77.5129 48.7293 77.0793 47.7518 77.6575C47.4954 77.802 47.2711 78.0269 47.2711 78.1393C47.2711 78.2518 47.0147 78.5088 46.7103 78.7015C46.4058 78.9103 46.1494 79.1673 46.1494 79.2797C46.1494 79.3921 45.893 79.6331 45.5886 79.8097C45.2841 79.9864 44.9957 80.2755 44.9476 80.4522C44.8995 80.6128 44.6432 80.8698 44.4028 81.0143C44.1624 81.1589 43.9061 81.4319 43.8099 81.6086C43.7298 81.8014 43.4574 82.0583 43.201 82.1868C42.9446 82.2993 42.7042 82.5402 42.6722 82.7008C42.6241 82.8614 42.3357 83.1505 42.0473 83.3433C41.7428 83.5199 41.5024 83.7769 41.5024 83.9054C41.5024 84.0178 41.2461 84.2909 40.9416 84.4836C40.6371 84.6924 40.3807 84.9494 40.3807 85.0618C40.3807 85.1743 40.1244 85.4152 39.8199 85.5919C39.5154 85.7685 39.227 86.0576 39.1789 86.2183C39.1309 86.3949 38.8424 86.668 38.554 86.8607C38.2495 87.0374 37.9771 87.3104 37.9451 87.471C37.8329 87.8565 36.7433 88.515 36.6471 88.2581Z" fill="#9B2149"/>
<path d="M58.4239 82.4759C53.168 77.2078 52.6071 76.5974 52.6712 76.212C52.7674 75.7141 53.3122 75.6016 53.4724 76.0513C53.5365 76.1959 53.6968 76.4368 53.825 76.5814C53.9692 76.7259 54.1935 76.999 54.3217 77.1917C54.4499 77.3844 54.6101 77.5451 54.6582 77.5451C54.7704 77.5451 56.4529 79.2155 58.3598 81.2071C58.5681 81.4159 58.8726 81.705 59.0328 81.8495C60.0263 82.7329 60.5711 83.4396 60.5711 83.8733C60.5711 84.2266 60.6352 84.2909 61.0198 84.2909C61.3563 84.2909 61.7088 84.5157 62.3818 85.1903C62.8786 85.6722 63.2952 86.1379 63.3273 86.2022C63.4234 86.411 64.3848 87.0213 64.6412 87.0213C64.7855 87.0213 64.8976 87.1498 64.8976 87.3104C64.8976 87.8405 64.7053 88.3062 64.481 88.3062C64.3688 88.3062 61.6447 85.6882 58.4239 82.4759Z" fill="#9B2149"/>
<path d="M99.9904 78.8942C99.8622 78.8621 95.2633 78.8139 89.767 78.7979C80.4089 78.7497 79.768 78.7336 79.6238 78.4606C79.5276 78.316 79.3674 78.1072 79.2712 78.0269C79.1591 77.9306 78.9347 77.7378 78.7424 77.5772C78.5662 77.4326 78.3258 77.1435 78.2136 76.9508C78.1175 76.742 77.9412 76.5814 77.8291 76.5814C77.6047 76.5814 77.0759 76.0192 77.0759 75.7783C77.0759 75.698 76.8836 75.5374 76.6433 75.425C76.4029 75.3125 76.0985 75.0074 75.9863 74.7664C75.8741 74.5255 75.6979 74.3328 75.6017 74.3328C75.5216 74.3328 75.0088 73.8831 74.4961 73.337C73.9673 72.7748 73.4705 72.2609 73.3744 72.1645C73.2942 72.0842 72.7815 71.5863 72.2527 71.0723C71.7399 70.5583 71.3073 70.0604 71.3073 69.9962C71.3073 69.9159 71.115 69.7553 70.8746 69.6428C70.6342 69.5304 70.3298 69.2252 70.2176 68.9843C70.1055 68.7434 69.9452 68.5507 69.8811 68.5507C69.6888 68.5507 68.9677 67.86 68.7755 67.5067C68.6633 67.2657 68.6633 67.1051 68.8235 66.8963C68.9998 66.6394 69.7369 66.6233 79.4315 66.6233C88.5011 66.6233 89.8792 66.6554 90.0555 66.8642C90.1676 66.9927 90.424 67.1051 90.6323 67.1051C90.8887 67.1051 91.081 67.2657 91.2573 67.587C91.4015 67.86 91.6098 68.0688 91.738 68.0688C91.8822 68.0688 92.1867 68.3579 92.427 68.7113C92.6674 69.0486 92.9077 69.3377 92.9718 69.3537C93.1 69.3537 94.7024 70.9278 94.7024 71.0563C94.7024 71.2008 95.087 71.5381 95.3915 71.6505C95.5357 71.6987 95.744 71.9236 95.8401 72.1324C95.9363 72.3412 96.2087 72.6303 96.4491 72.7748C96.6894 72.9194 96.9779 73.2085 97.1061 73.4333C97.2182 73.6582 97.3785 73.8509 97.4426 73.8509C97.5387 73.8509 98.9488 75.2162 99.5257 75.8747C99.6859 76.0514 99.9744 76.3405 100.167 76.5171C100.888 77.1596 101.224 77.6254 101.304 78.0912C101.384 78.4766 101.32 78.573 100.856 78.7657C100.567 78.8942 100.295 78.9745 100.279 78.9745C100.247 78.9585 100.119 78.9264 99.9904 78.8942Z" fill="#9B2149"/>
<path d="M0 78.043C0 77.9466 9.83879 68.0046 11.0726 66.8642C11.281 66.6554 12.8513 66.6233 21.9049 66.6233C31.3592 66.6233 32.5129 66.6554 32.593 66.8803C32.6411 67.0088 32.7533 67.0891 32.8334 67.0248C32.9135 66.9766 33.0417 67.0248 33.0898 67.1212C33.1539 67.2176 32.8975 67.587 32.5129 67.9564L31.8078 68.5988L31.7598 68.1009L31.7117 67.587H21.5684H11.4252L9.27795 69.7553C8.09217 70.9438 7.03458 71.9236 6.93843 71.9236C6.82626 71.9236 6.73012 72.0039 6.73012 72.1163C6.73012 72.3412 4.95145 74.1722 4.72711 74.1722C4.63096 74.1722 4.48675 74.3328 4.40663 74.5416C4.31048 74.7343 4.08614 74.9592 3.89386 75.0556C3.68554 75.1359 3.5253 75.2804 3.5253 75.3768C3.5253 75.4571 2.91639 76.1317 2.17928 76.8705C1.18578 77.8502 0.737108 78.1875 0.416626 78.1875C0.192289 78.1875 0 78.1233 0 78.043Z" fill="#9B2149"/>
<path d="M74.3838 77.0632C74.1595 76.8384 74.0313 76.5332 74.0313 76.1798V75.6338L74.5441 76.1156C74.8325 76.3726 75.2331 76.7581 75.4414 76.9829L75.81 77.3845H75.2652C74.9447 77.3845 74.5922 77.256 74.3838 77.0632Z" fill="#9B2149"/>
<path d="M71.6277 74.124C71.6277 74.0276 71.4194 73.8349 71.147 73.7224C70.7464 73.5458 70.6663 73.4173 70.6663 72.9515C70.6663 72.4696 70.6983 72.4215 70.9547 72.55C71.0989 72.6303 71.5796 73.08 72.0123 73.5136L72.7975 74.3328H72.2206C71.852 74.3328 71.6277 74.2525 71.6277 74.124Z" fill="#9B2149"/>
<path d="M68.6152 71.2811C68.4229 71.0884 68.2626 70.7992 68.2626 70.6386C68.2626 70.4298 68.1505 70.3174 67.9742 70.3174C67.814 70.3174 67.4614 70.1086 67.173 69.8356C66.7243 69.434 66.6602 69.2895 66.7724 68.8879L66.9006 68.4221L68.487 70.0122L70.0894 71.6023H69.5285C69.176 71.6023 68.8235 71.4738 68.6152 71.2811Z" fill="#9B2149"/>
<path d="M72.7494 64.8565L66.0834 64.7762L65.5386 64.2462C63.167 61.9976 62.0133 60.8251 62.0133 60.7127C62.0133 60.6324 61.837 60.4878 61.6127 60.3914C61.4043 60.2951 61.1159 59.9899 60.9717 59.7169C60.8435 59.4599 60.6192 59.235 60.507 59.235C60.3948 59.235 60.1545 59.0423 59.9942 58.8174C59.834 58.5765 59.5936 58.3035 59.4814 58.2071C59.1129 57.9019 58.7443 57.5325 58.4719 57.2113C58.3277 57.0507 58.0553 56.7937 57.8951 56.6652C57.7188 56.5367 57.4945 56.2636 57.3823 56.0709C57.2861 55.8621 57.0939 55.7015 56.9657 55.7015C56.8535 55.7015 56.5971 55.4445 56.4048 55.1393C56.2125 54.8342 55.9882 54.5772 55.9081 54.5772C55.6837 54.5772 55.1229 54.0472 55.1229 53.8223C55.1229 53.6938 54.9466 53.5171 54.7223 53.4208C53.6487 52.9389 54.4339 52.8907 65.4905 52.8426C76.483 52.8104 76.5471 52.8104 76.9798 53.1477C77.2041 53.3244 77.3964 53.5653 77.3964 53.6778C77.3964 53.7902 77.5727 53.9829 77.797 54.0954C78.0213 54.2238 78.3578 54.5611 78.5341 54.8502C78.7104 55.1393 78.9667 55.3803 79.0949 55.3803C79.2231 55.3803 79.4795 55.6372 79.6558 55.9424C79.8481 56.2476 80.0724 56.5046 80.1686 56.5046C80.3608 56.5046 82.2036 58.4159 82.2036 58.6247C82.2036 58.6889 82.2837 58.7532 82.3959 58.7532C82.5882 58.7532 83.4855 59.7008 83.4855 59.9096C83.4855 59.9738 83.5496 60.0381 83.6458 60.0381C83.8381 60.0381 85.7289 61.9494 85.7289 62.1582C85.7289 62.2224 85.809 62.2867 85.9052 62.2867C86.0975 62.2867 87.9723 64.198 87.9723 64.4068C87.9723 64.471 88.0845 64.5353 88.2127 64.5353C88.5492 64.5353 88.5171 64.8565 88.1806 64.8726C87.2672 64.9368 78.438 64.9208 72.7494 64.8565Z" fill="#9B2149"/>
<path d="M13.3961 64.5032C13.5564 64.3104 16.2484 61.596 19.3411 58.4801C23.7797 54.0311 25.0777 52.8104 25.3982 52.8104C25.6866 52.8104 25.7988 52.8907 25.7988 53.1317C25.7988 53.3083 25.7026 53.4529 25.5905 53.4529C25.4783 53.4529 25.302 53.5974 25.1899 53.7741C25.0777 53.9508 24.8854 54.0953 24.7572 54.0953C24.629 54.0953 24.5169 54.1917 24.5169 54.3041C24.5169 54.5611 23.6836 55.3803 23.4272 55.3803C23.3151 55.3803 23.2349 55.4606 23.2349 55.5409C23.2349 55.7979 22.2575 56.8258 22.0011 56.8258C21.8889 56.8258 21.7928 56.9222 21.7928 57.0346C21.7928 57.2594 20.1263 58.9138 19.9179 58.9138C19.8378 58.9138 19.7096 59.0744 19.6295 59.2832C19.5334 59.4759 19.309 59.7008 19.1167 59.7972C18.9084 59.8775 18.7482 60.0381 18.7482 60.1344C18.7482 60.3593 17.8989 61.1624 17.6585 61.1624C17.5464 61.1624 17.4663 61.2266 17.4663 61.323C17.4663 61.5639 16.7932 62.2867 16.5529 62.2867C16.4407 62.2867 16.3446 62.367 16.3446 62.4634C16.3446 62.5597 15.8638 63.1379 15.271 63.7483C14.3416 64.6959 14.1012 64.8565 13.6365 64.8565H13.0917L13.3961 64.5032Z" fill="#9B2149"/>
<path d="M62.1735 64.6317C62.1735 64.5032 61.9972 64.3586 61.7729 64.3104C61.3563 64.198 61.148 63.7162 61.2441 63.1058C61.2922 62.8007 61.4364 62.897 62.3338 63.8125L63.3593 64.8565H62.7664C62.3658 64.8565 62.1735 64.7762 62.1735 64.6317Z" fill="#9B2149"/>
<path d="M57.0137 59.7008C56.8535 59.6205 56.7253 59.3956 56.7253 59.235C56.7253 59.0583 56.6452 58.9138 56.549 58.9138C56.4529 58.9138 56.2766 58.8174 56.1644 58.7211C56.0363 58.6086 55.8279 58.4159 55.6837 58.3035C55.5555 58.191 55.4434 57.8377 55.4434 57.5164V56.9382L56.4529 57.8859C56.9977 58.3998 57.6547 59.0744 57.895 59.3635L58.3597 59.8775H57.8149C57.5265 59.8775 57.1579 59.7972 57.0137 59.7008Z" fill="#9B2149"/>
<path d="M52.7193 55.9103C52.7193 55.2518 52.8956 54.7378 53.1039 54.7378C53.216 54.7378 53.5365 54.9948 53.841 55.3L54.3858 55.8621H53.9532C53.6807 55.8621 53.5205 55.9424 53.5205 56.103C53.5205 56.2476 53.3763 56.344 53.1199 56.344C52.7834 56.344 52.7193 56.2636 52.7193 55.9103Z" fill="#9B2149"/>
<path d="M24.5008 48.4899C24.2765 48.265 24.0361 47.9438 23.9881 47.7832C23.924 47.6386 23.6996 47.4298 23.4913 47.3495C23.267 47.2692 22.9785 46.9801 22.8343 46.7071C22.7061 46.4501 22.4818 46.2252 22.3376 46.2252C22.2094 46.2252 21.953 45.9683 21.7767 45.6631C21.6005 45.3579 21.312 45.0688 21.1358 45.0206C20.9755 44.9724 20.7191 44.7315 20.5749 44.4906C20.4467 44.2497 20.1102 43.9284 19.8538 43.7839C19.5975 43.6233 19.3891 43.3984 19.3891 43.2699C19.3891 43.1254 19.1808 42.9166 18.9084 42.772C18.652 42.6435 18.3155 42.3062 18.1873 42.0493C18.0431 41.7762 17.8348 41.5674 17.6906 41.5674C17.5624 41.5674 17.306 41.3104 17.1297 41.0053C16.9535 40.7001 16.665 40.411 16.4888 40.3628C16.3285 40.2986 16.0722 40.0576 15.96 39.8167C15.8318 39.5758 15.5434 39.3027 15.319 39.1903C15.0787 39.0939 14.8223 38.8209 14.7101 38.596C14.614 38.3872 14.4057 38.1624 14.2454 38.1142C13.973 38.0178 13.3 37.2308 13.3 37.006C13.3 36.9578 18.2995 36.9096 24.4047 36.9096H35.4934L36.7753 38.1945C37.4803 38.9173 38.7783 40.1861 39.6436 41.0534C40.5249 41.9047 41.3101 42.7078 41.4063 42.8363C41.5024 42.9487 42.0152 43.4627 42.5279 43.9606C43.0567 44.4585 43.5535 44.9564 43.6496 45.0688C44.0502 45.5667 45.6526 47.1889 45.7328 47.1889C45.8449 47.1889 47.1749 48.6184 47.239 48.8111C47.2711 48.8914 42.592 48.9557 36.1023 48.9396L24.9175 48.9236L24.5008 48.4899Z" fill="#9B2149"/>
<path d="M75.794 48.6505C75.794 48.4738 75.8741 48.2811 75.9703 48.2329C76.0504 48.1687 76.1946 47.9438 76.2747 47.735C76.3709 47.5101 76.5632 47.3495 76.7394 47.3495C76.9317 47.3495 77.14 47.1407 77.3003 46.8034C77.4765 46.418 77.7009 46.2252 78.0214 46.1449C78.3899 46.0646 78.5181 45.9201 78.5982 45.5667C78.6623 45.2615 78.8546 45.0206 79.0789 44.9403C79.2873 44.86 79.5436 44.587 79.6718 44.346C79.8161 44.0569 80.0244 43.8803 80.2968 43.8481C80.6173 43.816 80.7615 43.6715 80.8576 43.286C80.9698 42.9166 81.1461 42.7399 81.5146 42.6275C81.8992 42.5311 82.0434 42.3865 82.0755 42.0653C82.1075 41.7762 82.2357 41.6317 82.4761 41.5995C82.6844 41.5674 82.9247 41.3265 83.0689 41.0053C83.2132 40.7001 83.5336 40.3628 83.758 40.2504C83.9983 40.1379 84.2868 39.8649 84.3829 39.6561C84.4951 39.4473 84.7355 39.2064 84.9438 39.0939C85.1521 38.9976 85.4245 38.7085 85.5367 38.4675C85.6809 38.1784 85.8732 38.0339 86.1135 38.0339C86.3859 38.0339 86.5141 37.9054 86.6263 37.5199C86.7705 37.022 86.8346 36.9899 87.6038 36.9417L88.437 36.8935L86.2097 39.1421C84.9758 40.3949 83.9022 41.4068 83.8061 41.4068C83.7259 41.4068 83.6458 41.471 83.6458 41.5513C83.6458 41.7601 77.7489 47.6708 77.5567 47.6708C77.4605 47.6708 77.3964 47.7511 77.3964 47.8635C77.3964 47.9759 77.2041 48.265 76.9638 48.506C76.451 49.036 75.794 49.1163 75.794 48.6505Z" fill="#9B2149"/>
<path d="M52.9917 46.948C52.7193 46.7553 52.7033 46.1289 52.7193 36.3153C52.7193 30.5974 52.7513 25.7469 52.7834 25.5541C52.8955 24.9759 53.3442 24.2532 53.6487 24.1568C53.8089 24.1086 54.0653 23.8356 54.2255 23.5625C54.3858 23.3055 54.6902 23.0004 54.8986 22.904C55.1069 22.8076 55.3152 22.5988 55.3793 22.4221C55.4273 22.2615 55.6677 22.0206 55.9081 21.9082C56.1484 21.7797 56.4208 21.4906 56.533 21.2657C56.6292 21.0248 56.9016 20.7678 57.1259 20.6554C57.3502 20.559 57.5265 20.4145 57.5265 20.3502C57.5265 20.2699 58.2476 19.515 59.1289 18.6477C59.9942 17.7804 60.7954 16.9934 60.9076 16.8809C61.0037 16.7846 61.7088 16.0458 62.494 15.2587C64.0643 13.6526 64.4329 13.3796 64.7053 13.6526C64.9457 13.8935 64.9777 34.7573 64.7534 35.3356C64.5771 35.7692 63.2311 37.2308 62.9907 37.2308C62.9106 37.2308 62.7023 37.4396 62.5581 37.6966C62.3978 37.9536 62.1094 38.2427 61.9011 38.3391C61.7088 38.4354 61.5325 38.58 61.5325 38.6442C61.5325 38.853 60.7794 39.64 60.5871 39.64C60.491 39.64 60.3307 39.8006 60.2346 39.9934C59.9942 40.4592 59.7699 40.668 59.4173 40.8125C59.2571 40.8607 59.1289 40.9731 59.1289 41.0534C59.1289 41.2462 54.9787 45.4222 54.7864 45.4222C54.7063 45.4222 54.562 45.5988 54.4659 45.8076C54.3698 46.0164 54.1134 46.2895 53.889 46.4019C53.6647 46.5304 53.4404 46.7392 53.3763 46.8998C53.2961 47.1247 53.232 47.1247 52.9917 46.948Z" fill="#9B2149"/>
<path d="M10.656 34.5486C10.4477 34.4361 10.2233 34.1952 10.1753 34.0185C10.1112 33.8419 9.85479 33.5849 9.59841 33.4403C9.34202 33.3118 9.03757 33.0227 8.94142 32.8139C8.84528 32.5891 8.70106 32.4124 8.63696 32.4124C8.44467 32.4124 6.56985 30.5493 6.56985 30.3565C6.56985 30.2601 6.36154 30.0674 6.08913 29.9229C5.83275 29.7783 5.60841 29.5695 5.60841 29.425C5.60841 29.2965 5.35202 29.0395 5.04757 28.8628C4.74311 28.6861 4.45467 28.397 4.4066 28.2203C4.34251 28.0597 4.08612 27.8027 3.82973 27.6582C3.57335 27.5297 3.28492 27.2406 3.20479 27.0157C3.12467 26.8069 2.86829 26.55 2.64395 26.4696C2.41961 26.3893 2.17925 26.1805 2.13118 26.036C2.00299 25.6826 1.82672 25.506 1.24985 25.1365C0.993469 24.9759 0.80118 24.7671 0.80118 24.6547C0.80118 24.5423 0.656963 24.3335 0.480698 24.1729C0.0480478 23.8034 0.0800959 23.4501 0.576843 23.0004L0.977445 22.6149H11.1047H21.2479L23.8118 25.1687C25.2379 26.5821 26.5199 27.9152 26.6641 28.14C26.8083 28.3649 26.9846 28.5576 27.0647 28.5576C27.2409 28.5576 32.1123 33.4564 32.4488 33.9543C32.577 34.1631 32.8013 34.3398 32.9455 34.3398C33.0897 34.3398 33.1699 34.4361 33.1218 34.5486C33.0256 34.8377 11.2168 34.8377 10.656 34.5486Z" fill="#9B2149"/>
<path d="M90.8566 33.7776C90.8566 33.4724 90.9207 33.2155 91.0008 33.2155C91.0809 33.2155 91.2252 33.0067 91.3213 32.7336C91.4014 32.4606 91.5937 32.2518 91.7379 32.2518C92.0744 32.2518 92.459 31.8663 92.459 31.5451C92.459 31.4166 92.6994 31.1917 93.0038 31.0472C93.3403 30.8865 93.5807 30.6456 93.6127 30.4368C93.6448 30.2441 93.8691 29.9871 94.1095 29.8747C94.3499 29.7462 94.6223 29.4731 94.7024 29.2643C94.8306 28.9592 94.9748 28.8789 95.4235 28.8789C95.9523 28.8789 95.9843 28.8467 95.9843 28.3167C95.9843 27.8509 96.0644 27.7385 96.5291 27.5136C96.8656 27.353 97.106 27.1121 97.138 26.9033C97.1701 26.7106 97.3303 26.5339 97.4906 26.5018C97.8912 26.4215 98.2277 26.0842 98.2277 25.7629C98.2277 25.6344 98.468 25.4096 98.7725 25.265C99.109 25.1044 99.3974 24.8153 99.4936 24.5262C99.5737 24.2692 99.75 24.0604 99.8782 24.0604C100.006 24.0604 100.199 23.948 100.311 23.8195C100.487 23.6107 99.4455 23.5786 91.0329 23.5786H81.5626V23.1931C81.5626 22.9361 81.6748 22.7755 81.9312 22.7113C82.5721 22.5506 100.663 22.5988 100.551 22.7755C100.503 22.8719 100.567 22.9361 100.695 22.9361C100.936 22.9361 101.497 23.8837 101.352 24.0283C101.304 24.0765 101.272 24.0604 101.272 23.9801C101.272 23.8998 101.016 24.1889 100.695 24.5905C100.375 25.0081 100.006 25.3453 99.8942 25.3453C99.766 25.3453 99.6699 25.4096 99.6699 25.506C99.6699 25.6987 96.3529 29.0395 96.1606 29.0395C96.0805 29.0395 95.9843 29.184 95.9362 29.3768C95.8882 29.5534 95.6959 29.7462 95.5196 29.7944C95.3273 29.8425 95.1831 29.9389 95.1831 30.0032C95.1831 30.1477 91.0809 34.3398 90.9367 34.3398C90.8886 34.3398 90.8566 34.0828 90.8566 33.7776Z" fill="#9B2149"/>
<path d="M66.7404 33.0227C66.6923 32.8139 66.6763 27.7706 66.6923 21.7958L66.7404 10.9382L68.4229 9.29996C69.3523 8.41658 70.1535 7.62956 70.2176 7.56532C70.3618 7.38864 72.2046 5.54158 72.4129 5.34884C72.509 5.26853 73.3102 4.4494 74.1916 3.54996C75.0729 2.63445 75.8581 1.89563 75.9382 1.89563C76.0183 1.89563 76.1305 1.75107 76.1946 1.5744C76.2426 1.39772 76.499 1.14074 76.7714 0.980123C77.0278 0.819508 77.2842 0.578586 77.3323 0.417972C77.4605 0.000374155 78.0053 -0.112056 78.3739 0.225234C78.6623 0.498279 78.6783 0.83557 78.6783 11.0346V21.5709L77.2201 23.0646C76.4349 23.8677 75.7139 24.5423 75.6337 24.5423C75.5536 24.5423 75.4094 24.6868 75.3133 24.8635C75.2171 25.0402 74.7684 25.522 74.3198 25.9396C73.2301 26.9515 73.0378 27.1603 72.7494 27.5618C72.6212 27.7546 72.461 27.9152 72.3808 27.9152C72.2526 27.9152 70.6663 29.441 70.6663 29.5695C70.6663 29.6498 68.8555 31.4808 67.5576 32.7015C66.8525 33.36 66.8205 33.3761 66.7404 33.0227Z" fill="#9B2149"/>
<path d="M36.6791 32.5409C36.6311 30.6777 36.615 13.5241 36.6631 13.4277C36.8234 13.0744 38.1854 14.2951 42.9285 19.0492C48.8254 24.9599 49.1619 25.3453 48.3928 25.3453C47.9281 25.3453 47.2711 24.8796 47.2711 24.5583C47.2711 24.4138 47.0467 24.205 46.7743 24.0765C46.5019 23.964 46.2455 23.7392 46.1814 23.5946C46.0853 23.3055 45.3963 22.6149 45.204 22.6149C45.1399 22.6149 44.9957 22.4543 44.8835 22.2455C44.7713 22.0367 44.4669 21.7476 44.2105 21.587C43.9541 21.4424 43.7458 21.2175 43.7458 21.1051C43.7458 20.9766 43.6336 20.8481 43.5054 20.7839C43.3772 20.7357 43.265 20.543 43.265 20.3663C43.265 20.1575 43.1529 20.0451 42.9446 20.0451C42.7843 20.0451 42.576 19.9487 42.5119 19.8363C42.4478 19.7078 42.1914 19.4829 41.935 19.3223C41.6947 19.1777 41.4543 18.8886 41.4063 18.6959C41.3582 18.5032 41.1178 18.2622 40.8454 18.1659C40.589 18.0695 40.3807 17.8928 40.3807 17.7643C40.3807 17.6519 40.2205 17.427 40.0282 17.2825C39.3552 16.7685 37.9771 15.4033 37.9771 15.2266C37.9771 15.1463 37.913 15.066 37.8169 15.066C37.7367 15.066 37.6566 14.9536 37.6566 14.8251C37.6566 14.6966 37.5925 14.5842 37.4964 14.5842C37.3842 14.5842 37.3361 17.7965 37.3361 23.8998C37.3361 33.103 37.3361 33.2154 37.0157 33.2154C36.7432 33.2154 36.6952 33.103 36.6791 32.5409Z" fill="#9B2149"/>
<path d="M34.1313 11.388C34.1313 11.3076 33.9871 11.1792 33.8109 11.131C33.6346 11.0828 33.4583 10.874 33.3942 10.6812C33.3462 10.4885 33.0737 10.2155 32.8013 10.0709C32.4648 9.9103 32.2725 9.68544 32.2405 9.41239C32.2084 9.10723 32.0803 8.97873 31.7117 8.89843C31.4393 8.85024 31.1669 8.65751 31.0707 8.43265C30.9746 8.22385 30.6862 7.93474 30.4298 7.77413C30.1253 7.59745 29.9651 7.37259 29.9651 7.09955C29.9651 6.8265 29.8689 6.71407 29.6606 6.71407C29.3081 6.71407 28.5229 6.02343 28.5229 5.7022C28.5229 5.57371 28.3466 5.41309 28.1223 5.36491C27.898 5.30066 27.7217 5.18823 27.7217 5.09186C27.7217 4.88307 27.4653 4.64214 26.8884 4.25667C26.6321 4.09605 26.4398 3.90332 26.4398 3.79089C26.4398 3.61421 25.8309 3.01994 25.6386 3.01994C25.5745 3.01994 25.4463 2.85932 25.3341 2.65052C25.2219 2.44172 24.9175 2.15262 24.6611 1.992C24.4047 1.84745 24.1964 1.60653 24.1964 1.47804C24.1964 1.34955 24.1323 1.25318 24.0362 1.25318C23.956 1.25318 23.8759 0.996194 23.8759 0.691027C23.8759 0.385859 23.908 0.128876 23.956 0.128876C24.1483 0.128876 34.9325 11.0828 34.9325 11.2916C34.9325 11.4361 34.7723 11.5325 34.5319 11.5325C34.3076 11.5325 34.1313 11.4683 34.1313 11.388Z" fill="#9B2149"/>
<path d="M77.7168 101.557C77.7168 101.428 77.6367 101.316 77.5406 101.316C77.4605 101.316 77.4284 101.412 77.4925 101.525C77.5566 101.621 77.5566 101.669 77.4765 101.605C77.4124 101.541 77.2682 101.316 77.172 101.123C77.0599 100.914 76.8836 100.754 76.7554 100.754C76.6272 100.754 76.515 100.641 76.515 100.513C76.515 100.175 74.0313 97.7663 73.807 97.8947C73.7108 97.9429 73.6788 97.9429 73.7429 97.8787C73.7909 97.8144 73.7268 97.6056 73.5826 97.429C73.0859 96.8347 70.1535 93.9276 70.0253 93.9276C69.9772 93.9276 69.817 93.7509 69.7048 93.526C69.5926 93.3172 69.3683 93.0924 69.2401 93.0442C69.0959 92.996 68.8395 92.739 68.6793 92.466C68.503 92.1769 68.3107 92.0163 68.1665 92.0644C68.0383 92.1126 67.9421 92.0644 67.9421 91.952C67.9421 91.8396 67.6537 91.422 67.3012 91.0365L66.6602 90.3298L66.6762 79.7132C66.6923 73.8829 66.7564 68.9359 66.8205 68.7111C66.9487 68.3256 66.9967 68.3256 67.0448 68.7593C67.0608 68.8556 67.1409 68.9359 67.2211 68.9199C67.3172 68.9199 67.4774 69.0002 67.5896 69.1287C67.7018 69.2572 67.7499 69.3535 67.7018 69.3535C67.6377 69.3535 67.9421 69.6426 68.3427 69.996C68.7434 70.3494 69.0318 70.6385 68.9517 70.6385C68.8876 70.6385 69.0799 70.8151 69.3843 71.0239C70.0253 71.4576 71.2271 72.7425 71.179 72.9352C71.163 72.9995 71.2111 73.0477 71.3072 73.0477C71.3873 73.0477 72.2206 73.8026 73.166 74.7341C74.0954 75.6657 74.8005 76.4206 74.7364 76.4206C74.6562 76.4206 74.7844 76.5491 74.9927 76.6936C75.6978 77.1755 77.7168 79.2153 77.7168 79.4401C77.7168 79.5526 77.7809 79.6168 77.8611 79.5526C77.9412 79.5044 78.1655 79.665 78.3578 79.9059C78.6623 80.2914 78.6783 80.3556 78.454 80.4038C78.1495 80.4681 78.1174 80.8535 78.4059 80.966C78.5661 81.0302 78.5661 81.0623 78.4059 81.0623C78.2777 81.0784 78.1976 81.3354 78.1976 81.7851C78.1976 82.2027 78.2777 82.5239 78.4059 82.5721C78.5661 82.6364 78.5661 82.6685 78.4059 82.6685C78.1335 82.6845 78.1014 100.288 78.3578 100.384C78.454 100.416 78.5501 100.657 78.5661 100.914C78.5982 101.332 78.5501 101.396 78.2456 101.348C77.8611 101.3 77.7329 101.557 78.0854 101.685C78.1976 101.733 78.1655 101.782 78.0053 101.782C77.845 101.798 77.7168 101.685 77.7168 101.557Z" fill="#631032"/>
<path d="M63.872 87.6154C63.7278 87.4066 63.4394 87.1336 63.2151 87.0211C62.9907 86.9087 62.7824 86.6678 62.7183 86.5072C62.6702 86.3305 62.526 86.2341 62.3978 86.2823C62.2857 86.3305 62.1895 86.3144 62.2216 86.2502C62.2857 86.0253 61.4364 85.1419 60.7634 84.7083C60.3948 84.4834 60.0904 84.1782 60.0904 84.0498C60.0904 83.9213 59.9942 83.7607 59.882 83.6964C59.7539 83.6322 59.5455 83.3752 59.4013 83.1503C59.2411 82.9255 58.9526 82.6524 58.7443 82.54C58.536 82.4276 58.2636 82.1545 58.1514 81.9457C58.0393 81.7208 57.847 81.5924 57.7348 81.6245C57.6226 81.6727 57.5425 81.6566 57.5746 81.5924C57.6226 81.4317 57.3823 81.1587 55.7158 79.4562C54.9306 78.6692 54.2255 78.0588 54.1454 78.1231C54.0653 78.1713 54.0012 78.1231 54.0012 78.0267C54.0012 77.8661 53.9051 77.7215 53.3602 77.0791C52.7032 76.3081 52.7193 76.4527 52.7193 65.9806C52.7193 59.3472 52.7673 55.8619 52.8795 55.8619C52.9757 55.8619 53.0398 55.6531 53.0398 55.4122C53.0398 55.1552 53.0878 54.8982 53.1359 54.85C53.2801 54.7215 56.2446 57.6608 56.1484 57.8214C56.1004 57.8857 56.1324 57.9499 56.1965 57.9499C56.4369 57.9499 57.3663 58.7851 57.2701 58.9296C57.2381 58.9939 57.3983 59.1706 57.6387 59.2991C58.2316 59.6042 62.0453 63.4911 61.9011 63.6196C61.853 63.6838 61.8851 63.732 61.9972 63.732C62.2857 63.732 64.529 65.9485 64.7213 66.4303C64.8495 66.7355 64.8816 69.9157 64.8655 77.2076L64.8175 87.5512L64.4649 87.776C64.1445 87.9848 64.0964 87.9688 63.872 87.6154Z" fill="#631032"/>
<path d="M10.8964 78.9904C5.30398 78.9422 0.608918 78.8459 0.448677 78.7816C-0.288431 78.4122 -0.0640936 78.1231 4.02205 74.0435C6.21735 71.8431 7.96398 69.996 7.88386 69.9157C7.81976 69.8354 7.85181 69.8193 7.93193 69.8836C8.02807 69.9318 8.74916 69.3214 9.53434 68.5344L10.9605 67.1049H21.7287C31.1028 67.1049 32.5129 67.1371 32.6892 67.3459C32.8334 67.5225 32.8334 67.5868 32.7052 67.5868C32.593 67.5868 32.561 67.6671 32.6251 67.7795C32.6892 67.8919 32.6731 67.908 32.5449 67.8438C32.4488 67.7795 32.3206 67.8438 32.2565 68.0044C32.1283 68.3577 22.0171 78.5086 21.4723 78.8298C21.1198 79.0386 19.7577 79.0547 10.8964 78.9904Z" fill="#631032"/>
<path d="M13.8128 64.2621C14.1333 63.9248 14.7742 63.2823 15.2069 62.8165C15.6555 62.3507 16.0241 61.901 16.0241 61.8047C16.0241 61.7243 16.0722 61.6601 16.1523 61.6762C16.3286 61.7404 18.2675 59.8291 18.2675 59.6042C18.2675 59.4918 18.3796 59.3954 18.5078 59.3954C18.636 59.3954 18.9565 59.0903 19.2289 58.7209C19.4853 58.3675 19.7096 58.1266 19.7096 58.1908C19.7096 58.2551 20.6871 57.3396 21.8729 56.151C23.0587 54.9464 24.0361 53.9024 24.0361 53.8061C24.0361 53.7257 24.1804 53.6133 24.3726 53.5651C24.5489 53.5169 24.7412 53.3242 24.7893 53.1475C24.8694 52.8263 24.9175 52.8263 35.9741 52.8102C42.4959 52.8102 47.1269 52.8745 47.1749 52.9548C47.223 53.0351 44.6431 55.7495 41.4223 58.9778L35.5735 64.8563H24.4047H13.2359L13.8128 64.2621Z" fill="#631032"/>
<path d="M54.4178 48.8431C54.3057 48.7306 54.4499 48.57 56.1004 46.9478C56.6292 46.4178 57.158 45.8877 57.2541 45.7753C57.3663 45.6629 57.6226 45.4059 57.831 45.2132C58.0393 45.0204 58.3277 44.7153 58.4719 44.5546C58.6161 44.394 58.8725 44.137 59.0328 43.9925C59.193 43.8479 59.4494 43.607 59.5936 43.4303C60.2506 42.6755 61.5646 41.4066 61.6928 41.4066C61.7729 41.4066 61.9652 41.1978 62.1094 40.9408C62.2696 40.6838 62.5581 40.3787 62.7664 40.2662C62.9587 40.1538 63.167 39.9611 63.2151 39.8165C63.2631 39.672 63.4554 39.4471 63.6477 39.3186C63.824 39.1901 64.0964 38.9492 64.2406 38.7886C64.3848 38.628 64.8335 38.1301 65.2501 37.6964L66.0033 36.9094H76.9958C86.8025 36.9094 88.7895 36.9736 87.6839 37.2627C87.5076 37.3109 87.2192 37.6964 87.0108 38.114C86.7705 38.5958 86.6102 38.8046 86.5301 38.6762C86.466 38.5637 86.3218 38.5316 86.2257 38.5798C86.1295 38.644 86.0814 38.7725 86.1455 38.8528C86.2417 39.0295 85.6007 39.6238 85.2802 39.6398C85.1681 39.6398 85.0239 39.7683 84.9758 39.9289C84.8155 40.3787 84.3829 40.8444 84.1265 40.8444C84.0143 40.8444 83.7259 41.1817 83.5016 41.5993C83.2772 42.033 83.0529 42.29 82.9888 42.1775C82.8446 41.9527 82.5241 42.1615 82.5241 42.4988C82.5241 42.8039 82.0754 43.2537 81.7549 43.2537C81.6588 43.2537 81.4345 43.5106 81.2742 43.8158C81.0979 44.1692 80.8896 44.378 80.6813 44.378C80.489 44.378 80.2807 44.5546 80.1525 44.8438C80.0243 45.1007 79.784 45.3417 79.6077 45.3898C79.4475 45.422 79.2071 45.7111 79.0789 46.0002C78.9347 46.3535 78.7104 46.5784 78.438 46.6426C78.1976 46.7069 77.9412 46.8996 77.8611 47.0924C77.5566 47.7669 77.2361 48.2327 77.2361 48.0239C77.2361 47.8954 77.14 47.8312 77.0439 47.8794C76.9317 47.9115 76.8516 48.04 76.8836 48.1363C76.8996 48.2488 76.7554 48.4736 76.5631 48.6343C76.2106 48.9394 75.7619 48.9394 65.3623 48.9555C59.4013 48.9555 54.4819 48.9073 54.4178 48.8431Z" fill="#631032"/>
<path d="M48.1364 46.8675C47.9761 46.7069 46.6301 45.3577 45.1399 43.8961C43.6656 42.4185 42.3837 41.0854 42.3036 40.9087C42.2074 40.7481 42.0632 40.6035 41.9831 40.6035C41.8549 40.6035 38.8264 37.6322 37.6246 36.3312C37.4643 36.1545 37.1919 35.8815 36.9996 35.7048C36.6791 35.3996 36.6631 35.2711 36.7432 33.5686C36.7913 32.4925 36.7753 31.8019 36.6791 31.8661C36.599 31.9143 36.5349 31.834 36.5349 31.7055C36.5349 31.5609 36.615 31.4485 36.6952 31.4485C36.8073 31.4485 36.8554 28.3647 36.8554 22.5344C36.8554 13.6845 36.8554 13.6203 37.1759 13.6203C37.3521 13.6203 37.5444 13.7327 37.5925 13.8612C37.6566 13.9897 37.7527 14.07 37.8168 14.0218C37.897 13.9737 37.9931 14.0861 38.0572 14.2628C38.1053 14.4394 38.2335 14.584 38.3136 14.584C38.3937 14.584 38.4578 14.6964 38.4578 14.8249C38.4578 15.098 39.0026 15.4192 39.1789 15.2586C39.259 15.1943 39.259 15.2264 39.2109 15.3228C39.0827 15.5477 39.6276 16.0777 39.8199 15.9171C39.8839 15.8368 39.9 15.9171 39.8359 16.0938C39.7558 16.3186 39.8038 16.3668 39.9801 16.2865C40.1243 16.2383 40.2044 16.2544 40.1564 16.3186C40.0602 16.4792 40.6211 16.9932 40.8774 16.9932C40.9736 16.9932 41.0217 17.1056 40.9576 17.2341C40.9095 17.3787 41.0056 17.5393 41.23 17.6517C41.6786 17.8926 42.1433 18.3745 42.0472 18.4869C41.9991 18.5351 42.0953 18.6475 42.2715 18.7439C42.4478 18.8403 42.7202 19.0491 42.8805 19.1936C43.0407 19.3542 43.233 19.4827 43.3291 19.4827C43.4253 19.4827 43.5855 19.6594 43.6817 19.8682C43.7938 20.077 44.0021 20.3179 44.1303 20.3982C44.2746 20.4785 44.3547 20.607 44.3066 20.6873C44.2265 20.8158 44.7392 21.2013 44.8835 21.121C44.9155 21.1049 44.9315 21.121 44.9155 21.1531C44.8835 21.1852 45.0437 21.378 45.268 21.5707C45.4764 21.7795 45.6046 21.9883 45.5405 22.0686C45.4764 22.1329 45.5725 22.1329 45.7488 22.0686C45.925 22.0044 46.0212 22.0044 45.9571 22.0526C45.8289 22.1811 46.4058 22.7753 46.6301 22.7753C46.7262 22.7753 46.7903 22.9038 46.7583 23.0644C46.7262 23.2411 46.8064 23.3375 46.9826 23.3214C47.1429 23.3054 47.239 23.3535 47.1909 23.4178C47.1429 23.482 47.3031 23.6587 47.5114 23.8033C47.7358 23.9478 47.88 24.1245 47.8479 24.2048C47.7999 24.269 47.9761 24.4939 48.2485 24.6866L48.7292 25.04L48.6972 36.0421C48.6812 42.0812 48.6171 47.0602 48.553 47.1084C48.4889 47.1406 48.2966 47.0442 48.1364 46.8675Z" fill="#631032"/>
<path d="M68.6152 34.7893C68.4069 34.5805 68.2627 34.7411 71.7559 31.2076C73.1981 29.746 74.4319 28.5575 74.5121 28.5575C74.5922 28.5575 74.7524 28.3968 74.8486 28.2041C75.0889 27.7383 75.5697 27.2565 75.6818 27.3689C75.7299 27.4171 75.8421 27.3047 75.9542 27.128C76.1145 26.8228 77.156 25.7306 77.9733 25.0079C78.1495 24.8633 78.3899 24.6063 78.5181 24.4297C78.6463 24.269 79.111 23.8193 79.5436 23.4499C80.2487 22.8396 80.4089 22.7753 81.1781 22.7753C81.6588 22.7753 82.0434 22.8556 82.0434 22.9359C82.0434 23.0484 85.1681 23.0966 91.5297 23.0966C96.7375 23.0805 101.048 23.1447 101.112 23.209C101.32 23.4338 101.481 24.1084 101.304 23.996C101.208 23.9478 101 24.0602 100.84 24.269C100.679 24.4778 100.455 24.6224 100.343 24.5742C100.247 24.5421 100.103 24.6545 100.038 24.8151C99.8942 25.2488 99.4776 25.6825 99.077 25.8431C98.8527 25.9234 98.7085 26.1161 98.7085 26.3088C98.7085 26.4855 98.6444 26.6301 98.5642 26.6301C98.4841 26.6301 98.3559 26.7907 98.3079 26.9674C98.2277 27.2244 98.1636 27.2565 98.0675 27.1119C97.9233 26.871 97.5868 27.0316 97.5868 27.3689C97.5868 27.658 97.09 28.1559 96.7856 28.1559C96.6574 28.1559 96.5292 28.3005 96.4971 28.4771C96.417 28.8787 95.9203 29.3605 95.5838 29.3605C95.4556 29.3605 95.2633 29.5372 95.1832 29.746C95.103 29.9548 94.8466 30.2278 94.5903 30.3563C94.3499 30.4688 94.1256 30.7097 94.0935 30.8864C94.0454 31.063 93.9333 31.2718 93.8051 31.3361C93.6769 31.4003 93.5807 31.5931 93.5807 31.7376C93.5807 31.9625 93.5487 31.9625 93.4365 31.7858C93.2603 31.4967 92.9398 31.7055 92.9398 32.107C92.9398 32.2676 92.8757 32.4122 92.8116 32.4122C92.7315 32.4122 92.5872 32.5728 92.4911 32.7816C92.395 32.9744 92.3148 33.0386 92.3148 32.9422C92.2828 32.5568 91.9623 32.7334 91.8021 33.2153C91.7059 33.4883 91.5617 33.6971 91.4816 33.6971C91.4015 33.6971 91.3374 33.8095 91.3374 33.938C91.3374 34.0665 91.0169 34.3556 90.6483 34.5805L89.9433 34.982H79.3834C71.5957 34.982 68.7594 34.9338 68.6152 34.7893Z" fill="#631032"/>
<path d="M34.2596 32.9262C34.0192 32.6852 33.6667 32.3319 33.4583 32.1391C32.8815 31.577 32.7373 31.4324 31.7277 30.4045C31.215 29.8745 30.6702 29.3284 30.542 29.1999C30.3977 29.0714 29.917 28.5735 29.4523 28.1077C28.9876 27.6259 28.4749 27.128 28.3306 26.9834C27.9781 26.6461 27.4012 26.0679 27.0487 25.6985C26.9045 25.554 26.6962 25.3612 26.6 25.2648C26.5039 25.1845 26.2635 24.9276 26.0552 24.7027C25.8469 24.4778 25.0617 23.7069 24.2926 22.9681L22.9145 21.6189V10.8898C22.9145 0.289289 22.9145 0.144736 23.235 0.0483672C23.6836 -0.0961859 24.1644 0.0965516 24.2765 0.449904C24.3246 0.610518 24.4849 0.787194 24.613 0.835378C24.7412 0.883563 24.8214 0.995993 24.7573 1.0763C24.6611 1.25298 25.2059 1.60633 25.3822 1.4939C25.4303 1.44571 25.4463 1.46178 25.3982 1.52602C25.3662 1.57421 25.4944 1.783 25.7187 1.97574C25.927 2.18454 26.0552 2.39334 26.0071 2.44152C25.943 2.48971 25.9751 2.53789 26.0712 2.53789C26.2796 2.53789 26.7923 3.01974 27.0167 3.42127C27.1288 3.59795 27.3211 3.72644 27.4653 3.72644C27.6096 3.71038 27.6897 3.7425 27.6416 3.80675C27.6096 3.87099 27.7538 4.04767 27.9621 4.20828C28.1864 4.3689 28.3146 4.56164 28.2826 4.64194C28.2345 4.70619 28.3467 4.80256 28.5229 4.8668C28.6992 4.93105 28.9556 5.15591 29.0677 5.39683C29.1959 5.63775 29.5965 6.00717 29.9491 6.23203C30.3176 6.45689 30.574 6.71387 30.542 6.8263C30.4939 6.92267 30.6541 7.13147 30.8945 7.29208C31.3912 7.61331 31.7277 7.93454 31.7758 8.11122C31.7918 8.17546 31.904 8.22365 32.0162 8.22365C32.1283 8.20759 32.1924 8.22365 32.1444 8.27183C32.0963 8.32002 32.2405 8.49669 32.4488 8.67337C32.6732 8.85004 32.8174 9.04278 32.7693 9.12309C32.7212 9.18733 32.8975 9.38007 33.1379 9.52462C33.6827 9.87798 34.1314 10.3438 34.0352 10.4562C33.9871 10.4883 34.1794 10.6007 34.4358 10.6971L34.9326 10.8738V22.0365C34.9326 28.172 34.8685 33.2313 34.8044 33.2795C34.7242 33.3277 34.4839 33.1671 34.2596 32.9262Z" fill="#631032"/>
<rect x="422" width="7" height="119" rx="3.5" fill="#620E31"/>
<path d="M186 109C186 110.091 185.091 110.961 184.002 110.915L139 109L184.002 107.085C185.091 107.039 186 107.909 186 109Z" fill="#620E31"/>
<path d="M196.528 115V113.32L200.848 109.24C201.189 108.931 201.44 108.653 201.6 108.408C201.76 108.163 201.867 107.939 201.92 107.736C201.984 107.533 202.016 107.347 202.016 107.176C202.016 106.728 201.861 106.387 201.552 106.152C201.253 105.907 200.811 105.784 200.224 105.784C199.755 105.784 199.317 105.875 198.912 106.056C198.517 106.237 198.181 106.52 197.904 106.904L196.016 105.688C196.443 105.048 197.04 104.541 197.808 104.168C198.576 103.795 199.461 103.608 200.464 103.608C201.296 103.608 202.021 103.747 202.64 104.024C203.269 104.291 203.755 104.669 204.096 105.16C204.448 105.651 204.624 106.237 204.624 106.92C204.624 107.283 204.576 107.645 204.48 108.008C204.395 108.36 204.213 108.733 203.936 109.128C203.669 109.523 203.275 109.965 202.752 110.456L199.168 113.832L198.672 112.888H204.992V115H196.528ZM212.862 115.192C211.944 115.192 211.123 114.968 210.398 114.52C209.672 114.061 209.102 113.4 208.686 112.536C208.27 111.672 208.062 110.627 208.062 109.4C208.062 108.173 208.27 107.128 208.686 106.264C209.102 105.4 209.672 104.744 210.398 104.296C211.123 103.837 211.944 103.608 212.862 103.608C213.79 103.608 214.611 103.837 215.326 104.296C216.051 104.744 216.622 105.4 217.038 106.264C217.454 107.128 217.662 108.173 217.662 109.4C217.662 110.627 217.454 111.672 217.038 112.536C216.622 113.4 216.051 114.061 215.326 114.52C214.611 114.968 213.79 115.192 212.862 115.192ZM212.862 113C213.299 113 213.678 112.877 213.998 112.632C214.328 112.387 214.584 111.997 214.766 111.464C214.958 110.931 215.054 110.243 215.054 109.4C215.054 108.557 214.958 107.869 214.766 107.336C214.584 106.803 214.328 106.413 213.998 106.168C213.678 105.923 213.299 105.8 212.862 105.8C212.435 105.8 212.056 105.923 211.726 106.168C211.406 106.413 211.15 106.803 210.958 107.336C210.776 107.869 210.686 108.557 210.686 109.4C210.686 110.243 210.776 110.931 210.958 111.464C211.15 111.997 211.406 112.387 211.726 112.632C212.056 112.877 212.435 113 212.862 113ZM220.762 115V113.32L225.082 109.24C225.424 108.931 225.674 108.653 225.834 108.408C225.994 108.163 226.101 107.939 226.154 107.736C226.218 107.533 226.25 107.347 226.25 107.176C226.25 106.728 226.096 106.387 225.786 106.152C225.488 105.907 225.045 105.784 224.458 105.784C223.989 105.784 223.552 105.875 223.146 106.056C222.752 106.237 222.416 106.52 222.138 106.904L220.25 105.688C220.677 105.048 221.274 104.541 222.042 104.168C222.81 103.795 223.696 103.608 224.698 103.608C225.53 103.608 226.256 103.747 226.874 104.024C227.504 104.291 227.989 104.669 228.33 105.16C228.682 105.651 228.858 106.237 228.858 106.92C228.858 107.283 228.81 107.645 228.714 108.008C228.629 108.36 228.448 108.733 228.17 109.128C227.904 109.523 227.509 109.965 226.986 110.456L223.402 113.832L222.906 112.888H229.226V115H220.762ZM232.2 115V113.32L236.52 109.24C236.861 108.931 237.112 108.653 237.272 108.408C237.432 108.163 237.539 107.939 237.592 107.736C237.656 107.533 237.688 107.347 237.688 107.176C237.688 106.728 237.533 106.387 237.224 106.152C236.925 105.907 236.483 105.784 235.896 105.784C235.427 105.784 234.989 105.875 234.584 106.056C234.189 106.237 233.853 106.52 233.576 106.904L231.688 105.688C232.115 105.048 232.712 104.541 233.48 104.168C234.248 103.795 235.133 103.608 236.136 103.608C236.968 103.608 237.693 103.747 238.312 104.024C238.941 104.291 239.427 104.669 239.768 105.16C240.12 105.651 240.296 106.237 240.296 106.92C240.296 107.283 240.248 107.645 240.152 108.008C240.067 108.36 239.885 108.733 239.608 109.128C239.341 109.523 238.947 109.965 238.424 110.456L234.84 113.832L234.344 112.888H240.664V115H232.2ZM250.473 111.496V109.496H255.001V111.496H250.473ZM264.872 115V113.32L269.192 109.24C269.533 108.931 269.784 108.653 269.944 108.408C270.104 108.163 270.21 107.939 270.264 107.736C270.328 107.533 270.36 107.347 270.36 107.176C270.36 106.728 270.205 106.387 269.896 106.152C269.597 105.907 269.154 105.784 268.568 105.784C268.098 105.784 267.661 105.875 267.256 106.056C266.861 106.237 266.525 106.52 266.248 106.904L264.36 105.688C264.786 105.048 265.384 104.541 266.152 104.168C266.92 103.795 267.805 103.608 268.808 103.608C269.64 103.608 270.365 103.747 270.984 104.024C271.613 104.291 272.098 104.669 272.44 105.16C272.792 105.651 272.968 106.237 272.968 106.92C272.968 107.283 272.92 107.645 272.824 108.008C272.738 108.36 272.557 108.733 272.28 109.128C272.013 109.523 271.618 109.965 271.096 110.456L267.512 113.832L267.016 112.888H273.336V115H264.872ZM281.205 115.192C280.288 115.192 279.467 114.968 278.741 114.52C278.016 114.061 277.445 113.4 277.029 112.536C276.613 111.672 276.405 110.627 276.405 109.4C276.405 108.173 276.613 107.128 277.029 106.264C277.445 105.4 278.016 104.744 278.741 104.296C279.467 103.837 280.288 103.608 281.205 103.608C282.133 103.608 282.955 103.837 283.669 104.296C284.395 104.744 284.965 105.4 285.381 106.264C285.797 107.128 286.005 108.173 286.005 109.4C286.005 110.627 285.797 111.672 285.381 112.536C284.965 113.4 284.395 114.061 283.669 114.52C282.955 114.968 282.133 115.192 281.205 115.192ZM281.205 113C281.643 113 282.021 112.877 282.341 112.632C282.672 112.387 282.928 111.997 283.109 111.464C283.301 110.931 283.397 110.243 283.397 109.4C283.397 108.557 283.301 107.869 283.109 107.336C282.928 106.803 282.672 106.413 282.341 106.168C282.021 105.923 281.643 105.8 281.205 105.8C280.779 105.8 280.4 105.923 280.069 106.168C279.749 106.413 279.493 106.803 279.301 107.336C279.12 107.869 279.029 108.557 279.029 109.4C279.029 110.243 279.12 110.931 279.301 111.464C279.493 111.997 279.749 112.387 280.069 112.632C280.4 112.877 280.779 113 281.205 113ZM289.106 115V113.32L293.426 109.24C293.767 108.931 294.018 108.653 294.178 108.408C294.338 108.163 294.445 107.939 294.498 107.736C294.562 107.533 294.594 107.347 294.594 107.176C294.594 106.728 294.439 106.387 294.13 106.152C293.831 105.907 293.389 105.784 292.802 105.784C292.333 105.784 291.895 105.875 291.49 106.056C291.095 106.237 290.759 106.52 290.482 106.904L288.594 105.688C289.021 105.048 289.618 104.541 290.386 104.168C291.154 103.795 292.039 103.608 293.042 103.608C293.874 103.608 294.599 103.747 295.218 104.024C295.847 104.291 296.333 104.669 296.674 105.16C297.026 105.651 297.202 106.237 297.202 106.92C297.202 107.283 297.154 107.645 297.058 108.008C296.973 108.36 296.791 108.733 296.514 109.128C296.247 109.523 295.853 109.965 295.33 110.456L291.746 113.832L291.25 112.888H297.57V115H289.106ZM305.28 115.192C304.341 115.192 303.52 115.053 302.816 114.776C302.112 114.488 301.562 114.088 301.168 113.576C300.773 113.053 300.576 112.445 300.576 111.752C300.576 111.059 300.768 110.472 301.152 109.992C301.546 109.501 302.096 109.133 302.8 108.888C303.504 108.632 304.33 108.504 305.28 108.504C306.24 108.504 307.072 108.632 307.776 108.888C308.49 109.133 309.04 109.501 309.424 109.992C309.818 110.472 310.016 111.059 310.016 111.752C310.016 112.445 309.818 113.053 309.424 113.576C309.029 114.088 308.474 114.488 307.76 114.776C307.056 115.053 306.229 115.192 305.28 115.192ZM305.28 113.288C305.93 113.288 306.442 113.144 306.816 112.856C307.2 112.568 307.392 112.173 307.392 111.672C307.392 111.171 307.2 110.781 306.816 110.504C306.442 110.216 305.93 110.072 305.28 110.072C304.64 110.072 304.133 110.216 303.76 110.504C303.386 110.781 303.2 111.171 303.2 111.672C303.2 112.173 303.386 112.568 303.76 112.856C304.133 113.144 304.64 113.288 305.28 113.288ZM305.28 109.816C304.416 109.816 303.658 109.699 303.008 109.464C302.368 109.229 301.866 108.888 301.504 108.44C301.152 107.981 300.976 107.437 300.976 106.808C300.976 106.147 301.157 105.581 301.52 105.112C301.882 104.632 302.389 104.264 303.04 104.008C303.69 103.741 304.437 103.608 305.28 103.608C306.144 103.608 306.896 103.741 307.536 104.008C308.186 104.264 308.693 104.632 309.056 105.112C309.429 105.581 309.616 106.147 309.616 106.808C309.616 107.437 309.434 107.981 309.072 108.44C308.72 108.888 308.218 109.229 307.568 109.464C306.917 109.699 306.154 109.816 305.28 109.816ZM305.28 108.296C305.824 108.296 306.25 108.173 306.56 107.928C306.88 107.683 307.04 107.347 307.04 106.92C307.04 106.472 306.874 106.125 306.544 105.88C306.224 105.635 305.802 105.512 305.28 105.512C304.768 105.512 304.352 105.635 304.032 105.88C303.712 106.125 303.552 106.472 303.552 106.92C303.552 107.347 303.706 107.683 304.016 107.928C304.325 108.173 304.746 108.296 305.28 108.296Z" fill="black"/>
<path d="M321 109C321 107.909 321.909 107.039 322.998 107.085L368 109L322.998 110.915C321.909 110.961 321 110.091 321 109Z" fill="#620E31"/>
</svg>
