<svg width="242" height="192" viewBox="0 0 242 192" fill="none" xmlns="http://www.w3.org/2000/svg">
<path d="M16.3928 159.782C7.37677 159.782 1.60377 152.1 1.60377 143.475C1.60377 135.057 6.59477 126.938 16.6458 126.938C20.1878 126.938 21.8438 128.042 23.2928 128.042C24.3278 128.042 24.9948 127.559 25.9148 127.559C27.6858 127.559 27.7318 129.33 28.2838 132.067C28.8818 135.172 29.2038 135.931 29.2038 136.575C29.2038 137.564 28.6288 138.024 27.9618 138.024C26.7428 138.024 26.1218 136.621 25.1098 135.172C22.9938 132.205 20.2108 130.503 17.4508 130.503C12.3678 130.503 9.44677 135.655 9.44677 141.313C9.44677 149.248 14.0698 154.492 18.6468 154.492C20.4178 154.492 21.9818 153.641 22.5798 152.721C23.0858 151.893 23.1778 151.019 23.1778 149.363C23.1778 145.545 22.3268 145.269 21.2918 144.533C20.3948 143.889 19.2678 143.82 19.2678 142.647C19.2678 141.727 19.9348 141.175 21.2918 141.175C22.6028 141.175 24.2588 141.313 25.4318 141.313C27.0188 141.313 28.4678 141.175 30.2158 141.175C31.2508 141.175 31.6878 141.773 31.6878 142.555C31.6878 144.326 30.2848 144.096 30.2848 148.857C30.2848 151.456 30.5148 155.711 30.5148 157.252C30.5148 158.425 30.1698 159.138 29.0428 159.138C28.4678 159.138 27.9158 158.793 27.3638 158.172C26.8808 157.735 26.4208 157.275 25.9608 157.275C25.2708 157.275 24.4198 157.735 23.2928 158.218C21.6368 158.908 19.3138 159.782 16.3928 159.782ZM48.9974 131.009C46.1454 131.009 43.2014 133.815 43.2014 140.692C43.2014 143.82 43.7304 147.454 45.1104 150.513C46.6974 153.802 49.2274 155.251 51.5044 155.251C54.7934 155.251 57.6914 152.813 57.6914 146.787C57.6914 143.383 56.8404 139.289 55.4374 136.368C53.9194 133.033 51.4584 131.009 48.9974 131.009ZM34.5994 143.613C34.5994 133.769 40.8554 126.961 50.0094 126.961C58.4734 126.961 65.7184 133.102 65.7184 144.119C65.7184 154.538 58.8874 159.782 50.3314 159.782C40.4874 159.782 34.5994 153.02 34.5994 143.613ZM70.593 159.115C69.328 159.115 68.776 158.609 68.776 157.85C68.776 156.286 70.961 156.378 71.329 153.779C71.536 152.399 71.605 148.466 71.605 142.647C71.605 137.817 71.559 135.057 71.513 134.16C71.214 130.526 68.96 130.733 68.96 128.962C68.96 128.18 69.397 127.605 70.616 127.605C72.548 127.605 74.756 127.72 76.757 127.72C79.149 127.72 81.495 127.582 83.864 127.582C89.039 127.582 94.536 129.238 94.536 134.988C94.536 138.3 91.914 140.761 89.89 141.589C89.798 141.635 89.66 141.727 89.66 141.865C89.66 142.003 89.798 142.072 89.89 142.095C93.777 143.222 96.675 146.051 96.675 149.823C96.675 157.873 89.752 159.138 84.048 159.138C81.656 159.138 78.16 159 75.722 159C73.951 159 72.318 159.115 70.593 159.115ZM88.579 149.708C88.579 146.971 87.084 145.2 84.715 144.418C83.519 144.027 81.311 143.912 79.862 143.912C79.103 143.912 78.827 144.28 78.827 146.212V152.79C78.827 154.676 79.172 155.067 82.438 155.067C86.532 155.067 88.579 153.342 88.579 149.708ZM78.827 132.734V139.105C78.827 140.048 79.287 140.163 80.345 140.163C81.817 140.163 83.68 139.956 84.807 139.473C86.302 138.852 87.222 137.518 87.222 135.678C87.222 132.435 84.416 131.492 81.15 131.492C79.287 131.492 78.827 131.814 78.827 132.734ZM110.678 127.605C111.897 127.605 112.311 128.203 112.311 128.962C112.311 130.733 110.103 130.48 109.781 134.114C109.666 135.126 109.643 138.507 109.643 142.647C109.643 147.822 109.758 152.353 109.942 153.71C110.356 156.355 112.495 156.286 112.495 157.85C112.495 158.54 111.897 159.115 110.678 159.115C109.321 159.115 107.573 159 106.078 159C104.537 159 102.766 159.115 101.409 159.115C100.144 159.115 99.5924 158.54 99.5924 157.85C99.5924 156.286 101.8 156.332 102.168 153.71C102.352 152.445 102.421 147.04 102.421 142.647C102.421 139.542 102.421 135.149 102.352 134.114C102.053 130.503 99.7764 130.71 99.7764 128.962C99.7764 128.203 100.144 127.605 101.432 127.605C102.835 127.605 104.583 127.72 106.078 127.72C107.619 127.72 109.367 127.605 110.678 127.605ZM134.524 139.726V146.373C134.524 147.592 134.271 148.259 133.42 148.259C132.5 148.259 132.132 147.454 131.833 146.787C131.051 145.131 130.637 144.326 127.463 144.326C126.474 144.326 126.129 144.878 126.129 146.557V151.433C126.129 154.63 127.141 154.975 130.315 154.975C135.375 154.975 136.87 153.572 138.549 149.938C138.986 149.018 139.515 148.328 140.182 148.328C140.872 148.328 141.309 148.857 141.309 150.26C141.309 151.387 140.665 155.021 140.458 157.39C140.366 158.793 139.86 159.115 138.25 159.115C136.617 159.115 132.96 159 129.211 159C125.048 159 121.092 159.115 117.941 159.115C116.676 159.115 116.124 158.609 116.124 157.85C116.124 156.309 118.309 156.378 118.677 153.779C118.884 152.468 118.953 147.109 118.953 142.647C118.953 139.519 118.93 135.149 118.861 134.16C118.562 130.526 116.308 130.733 116.308 128.962C116.308 128.203 116.676 127.605 117.964 127.605C120.287 127.605 122.978 127.72 128.268 127.72C132.845 127.72 135.329 127.605 136.985 127.605C138.618 127.605 139.17 127.904 139.492 129.997C139.676 130.986 139.952 132.803 140.297 134.574C140.458 135.356 140.573 136.253 140.573 136.552C140.573 137.518 139.975 137.909 139.331 137.909C138.388 137.909 137.928 136.897 137.422 135.954C135.651 132.389 134.8 131.515 129.855 131.515C126.704 131.515 126.129 131.952 126.129 134.482V138.047C126.129 139.956 126.451 140.301 127.325 140.301C131.074 140.301 131.396 138.99 132.247 137.587C132.523 137.196 132.868 136.92 133.282 136.92C134.156 136.92 134.524 137.656 134.524 139.726ZM162.799 136.897C162.799 133.654 160.476 131.653 157.256 131.653C154.818 131.653 154.565 131.952 154.565 134.758V139.266C154.565 141.014 154.956 141.957 157.532 141.957C160.752 141.957 162.799 140.117 162.799 136.897ZM154.542 148.397V151.985C154.542 153.871 155.163 154.837 155.945 155.665C156.658 156.47 157.624 156.93 157.624 157.85C157.624 158.678 156.911 159.115 155.83 159.115C154.473 159.115 152.495 159 151 159C149.413 159 147.435 159.115 146.331 159.115C145.066 159.115 144.514 158.609 144.514 157.85C144.514 156.309 146.699 156.378 147.067 153.779C147.274 152.468 147.343 147.109 147.343 142.647C147.343 139.519 147.32 135.149 147.251 134.16C146.952 130.526 144.698 130.733 144.698 128.962C144.698 128.203 145.066 127.605 146.354 127.605C148.677 127.605 149.459 127.72 152.15 127.72C154.68 127.72 157.187 127.559 160.085 127.559C166.709 127.559 170.872 130.227 170.872 135.954C170.872 138.783 169.446 141.911 164.156 143.751C164.018 143.82 163.857 143.912 163.857 144.073C163.857 144.188 163.949 144.349 164.179 144.464C167.353 146.166 169.285 148.926 171.194 152.376C172.114 154.078 172.85 155.274 173.816 156.033C174.713 156.815 175.219 156.93 175.219 157.827C175.219 158.839 174.529 159.115 173.793 159.115C172.827 159.115 170.481 159 169.377 159C167.445 159 165.674 159.115 164.984 159.115C163.857 159.115 163.121 158.517 163.121 157.758C163.121 156.953 163.673 156.654 163.673 155.55C163.673 152.951 161.005 148.42 158.912 146.925C157.992 146.35 156.52 146.212 156.175 146.212C155.002 146.212 154.542 147.04 154.542 148.397ZM178.563 127.605C179.414 127.605 181.323 127.72 182.496 127.72C183.83 127.72 184.658 127.766 185.233 128.065C186.015 128.433 186.521 129.215 187.947 130.963L197.837 144.418C198.803 145.614 199.447 146.189 199.562 146.189C199.815 146.189 199.884 146.051 199.884 142.072C199.884 137.633 199.654 133.585 198.964 132.274C198.228 130.526 196.664 130.204 196.664 128.939C196.664 128.111 197.124 127.605 198.297 127.605C199.493 127.605 200.873 127.72 201.747 127.72C202.782 127.72 204.116 127.605 205.151 127.605C206.301 127.605 206.715 128.18 206.715 128.962C206.715 130.71 204.668 130.319 204.392 133.746C204.3 134.735 204.254 138.369 204.254 141.428C204.277 152.997 204.645 153.043 204.645 156.447C204.645 158.034 203.15 159.368 200.942 159.368C200.344 159.368 199.539 158.862 198.78 157.965L185.095 139.887C184.612 139.335 184.382 139.013 184.198 139.013C183.853 139.013 183.807 139.473 183.807 143.958C183.807 148.903 184.198 153.181 184.819 154.492C185.601 156.332 187.165 156.516 187.165 157.758C187.165 158.586 186.659 159.115 185.509 159.115C184.175 159.115 182.91 159 182.036 159C180.978 159 179.575 159.115 178.31 159.115C177.183 159.115 176.723 158.563 176.723 157.781C176.723 156.056 179.115 156.447 179.391 153.02C179.483 151.939 179.552 148.282 179.552 142.716C179.552 137.863 179.529 135.057 179.46 134.16C179.138 130.526 176.907 130.733 176.907 128.962C176.907 128.134 177.436 127.605 178.563 127.605ZM223.654 131.009C220.802 131.009 217.858 133.815 217.858 140.692C217.858 143.82 218.387 147.454 219.767 150.513C221.354 153.802 223.884 155.251 226.161 155.251C229.45 155.251 232.348 152.813 232.348 146.787C232.348 143.383 231.497 139.289 230.094 136.368C228.576 133.033 226.115 131.009 223.654 131.009ZM209.256 143.613C209.256 133.769 215.512 126.961 224.666 126.961C233.13 126.961 240.375 133.102 240.375 144.119C240.375 154.538 233.544 159.782 224.988 159.782C215.144 159.782 209.256 153.02 209.256 143.613Z" fill="#620E31"/>
<path d="M7.27288 188.16C6.39821 188.16 5.56088 188.037 4.76088 187.792C3.96088 187.536 3.32621 187.211 2.85688 186.816L3.57688 185.2C4.02488 185.552 4.57954 185.845 5.24088 186.08C5.90221 186.315 6.57954 186.432 7.27288 186.432C7.85954 186.432 8.33421 186.368 8.69688 186.24C9.05954 186.112 9.32621 185.941 9.49688 185.728C9.66754 185.504 9.75288 185.253 9.75288 184.976C9.75288 184.635 9.63021 184.363 9.38488 184.16C9.13954 183.947 8.81954 183.781 8.42488 183.664C8.04088 183.536 7.60888 183.419 7.12888 183.312C6.65954 183.205 6.18488 183.083 5.70488 182.944C5.23554 182.795 4.80354 182.608 4.40887 182.384C4.02488 182.149 3.71021 181.84 3.46488 181.456C3.21954 181.072 3.09688 180.581 3.09688 179.984C3.09688 179.376 3.25688 178.821 3.57688 178.32C3.90754 177.808 4.40354 177.403 5.06488 177.104C5.73688 176.795 6.58488 176.64 7.60888 176.64C8.28088 176.64 8.94754 176.725 9.60888 176.896C10.2702 177.067 10.8462 177.312 11.3369 177.632L10.6809 179.248C10.1795 178.949 9.66221 178.731 9.12888 178.592C8.59554 178.443 8.08354 178.368 7.59288 178.368C7.01688 178.368 6.54754 178.437 6.18488 178.576C5.83288 178.715 5.57154 178.896 5.40088 179.12C5.24088 179.344 5.16088 179.6 5.16088 179.888C5.16088 180.229 5.27821 180.507 5.51288 180.72C5.75821 180.923 6.07288 181.083 6.45688 181.2C6.85154 181.317 7.28888 181.435 7.76888 181.552C8.24888 181.659 8.72354 181.781 9.19288 181.92C9.67288 182.059 10.1049 182.24 10.4889 182.464C10.8835 182.688 11.1982 182.992 11.4329 183.376C11.6782 183.76 11.8009 184.245 11.8009 184.832C11.8009 185.429 11.6355 185.984 11.3049 186.496C10.9849 186.997 10.4889 187.403 9.81688 187.712C9.14488 188.011 8.29688 188.16 7.27288 188.16ZM15.7834 181.456H21.3514V183.168H15.7834V181.456ZM15.9434 186.256H22.2634V188H13.8634V176.8H22.0394V178.544H15.9434V186.256ZM29.7661 188.16C28.9128 188.16 28.1181 188.021 27.3821 187.744C26.6568 187.456 26.0221 187.056 25.4781 186.544C24.9448 186.021 24.5288 185.408 24.2301 184.704C23.9315 184 23.7821 183.232 23.7821 182.4C23.7821 181.568 23.9315 180.8 24.2301 180.096C24.5288 179.392 24.9501 178.784 25.4941 178.272C26.0381 177.749 26.6728 177.349 27.3981 177.072C28.1235 176.784 28.9181 176.64 29.7821 176.64C30.6995 176.64 31.5368 176.8 32.2941 177.12C33.0515 177.429 33.6915 177.893 34.2141 178.512L32.8701 179.776C32.4648 179.339 32.0115 179.013 31.5101 178.8C31.0088 178.576 30.4648 178.464 29.8781 178.464C29.2915 178.464 28.7528 178.56 28.2621 178.752C27.7821 178.944 27.3608 179.216 26.9981 179.568C26.6461 179.92 26.3688 180.336 26.1661 180.816C25.9741 181.296 25.8781 181.824 25.8781 182.4C25.8781 182.976 25.9741 183.504 26.1661 183.984C26.3688 184.464 26.6461 184.88 26.9981 185.232C27.3608 185.584 27.7821 185.856 28.2621 186.048C28.7528 186.24 29.2915 186.336 29.8781 186.336C30.4648 186.336 31.0088 186.229 31.5101 186.016C32.0115 185.792 32.4648 185.456 32.8701 185.008L34.2141 186.288C33.6915 186.896 33.0515 187.36 32.2941 187.68C31.5368 188 30.6941 188.16 29.7661 188.16ZM36.2071 188V176.8H40.8151C41.8071 176.8 42.6551 176.96 43.3591 177.28C44.0738 177.6 44.6231 178.059 45.0071 178.656C45.3911 179.253 45.5831 179.963 45.5831 180.784C45.5831 181.605 45.3911 182.315 45.0071 182.912C44.6231 183.499 44.0738 183.952 43.3591 184.272C42.6551 184.581 41.8071 184.736 40.8151 184.736H37.3591L38.2871 183.792V188H36.2071ZM43.5351 188L40.7031 183.936H42.9271L45.7751 188H43.5351ZM38.2871 184.016L37.3591 183.024H40.7191C41.6365 183.024 42.3245 182.827 42.7831 182.432C43.2525 182.037 43.4871 181.488 43.4871 180.784C43.4871 180.069 43.2525 179.52 42.7831 179.136C42.3245 178.752 41.6365 178.56 40.7191 178.56H37.3591L38.2871 177.536V184.016ZM49.8303 181.456H55.3983V183.168H49.8303V181.456ZM49.9903 186.256H56.3103V188H47.9103V176.8H56.0863V178.544H49.9903V186.256ZM60.901 188V178.56H57.189V176.8H66.693V178.56H62.981V188H60.901ZM66.1075 188L71.1475 176.8H73.1955L78.2515 188H76.0755L71.7395 177.904H72.5715L68.2515 188H66.1075ZM68.4275 185.408L68.9875 183.776H75.0355L75.5955 185.408H68.4275ZM79.6759 188V176.8H84.2839C85.2759 176.8 86.1239 176.96 86.8279 177.28C87.5425 177.6 88.0919 178.059 88.4759 178.656C88.8599 179.253 89.0519 179.963 89.0519 180.784C89.0519 181.605 88.8599 182.315 88.4759 182.912C88.0919 183.499 87.5425 183.952 86.8279 184.272C86.1239 184.581 85.2759 184.736 84.2839 184.736H80.8279L81.7559 183.792V188H79.6759ZM87.0039 188L84.1719 183.936H86.3959L89.2439 188H87.0039ZM81.7559 184.016L80.8279 183.024H84.1879C85.1052 183.024 85.7932 182.827 86.2519 182.432C86.7212 182.037 86.9559 181.488 86.9559 180.784C86.9559 180.069 86.7212 179.52 86.2519 179.136C85.7932 178.752 85.1052 178.56 84.1879 178.56H80.8279L81.7559 177.536V184.016ZM91.379 188V176.8H93.459V188H91.379ZM91.075 175.888L93.235 173.696H95.587L92.803 175.888H91.075ZM94.9044 188L99.9444 176.8H101.992L107.048 188H104.872L100.536 177.904H101.368L97.0484 188H94.9044ZM97.2244 185.408L97.7844 183.776H103.832L104.392 185.408H97.2244ZM112.895 188V176.8H117.791C119.007 176.8 120.073 177.035 120.991 177.504C121.908 177.973 122.623 178.624 123.135 179.456C123.647 180.288 123.903 181.269 123.903 182.4C123.903 183.52 123.647 184.501 123.135 185.344C122.623 186.176 121.908 186.827 120.991 187.296C120.073 187.765 119.007 188 117.791 188H112.895ZM114.975 186.24H117.695C118.537 186.24 119.263 186.08 119.871 185.76C120.489 185.44 120.964 184.992 121.295 184.416C121.636 183.84 121.807 183.168 121.807 182.4C121.807 181.621 121.636 180.949 121.295 180.384C120.964 179.808 120.489 179.36 119.871 179.04C119.263 178.72 118.537 178.56 117.695 178.56H114.975V186.24ZM128.033 181.456H133.601V183.168H128.033V181.456ZM128.193 186.256H134.513V188H126.113V176.8H134.289V178.544H128.193V186.256ZM146.486 188.16C145.611 188.16 144.806 188.021 144.07 187.744C143.345 187.456 142.71 187.056 142.166 186.544C141.622 186.021 141.201 185.408 140.902 184.704C140.603 184 140.454 183.232 140.454 182.4C140.454 181.568 140.603 180.8 140.902 180.096C141.201 179.392 141.622 178.784 142.166 178.272C142.721 177.749 143.366 177.349 144.102 177.072C144.838 176.784 145.643 176.64 146.518 176.64C147.467 176.64 148.321 176.795 149.078 177.104C149.846 177.413 150.491 177.867 151.014 178.464L149.702 179.744C149.265 179.307 148.79 178.987 148.278 178.784C147.777 178.571 147.222 178.464 146.614 178.464C146.027 178.464 145.483 178.56 144.982 178.752C144.481 178.944 144.049 179.216 143.686 179.568C143.323 179.92 143.041 180.336 142.838 180.816C142.646 181.296 142.55 181.824 142.55 182.4C142.55 182.965 142.646 183.488 142.838 183.968C143.041 184.448 143.323 184.869 143.686 185.232C144.049 185.584 144.475 185.856 144.966 186.048C145.457 186.24 146.001 186.336 146.598 186.336C147.153 186.336 147.686 186.251 148.198 186.08C148.721 185.899 149.217 185.6 149.686 185.184L150.87 186.736C150.283 187.205 149.601 187.563 148.822 187.808C148.054 188.043 147.275 188.16 146.486 188.16ZM148.902 186.464V182.272H150.87V186.736L148.902 186.464ZM158.861 188.16C157.987 188.16 157.181 188.016 156.445 187.728C155.709 187.44 155.069 187.04 154.525 186.528C153.981 186.005 153.56 185.397 153.261 184.704C152.963 184 152.813 183.232 152.813 182.4C152.813 181.568 152.963 180.805 153.261 180.112C153.56 179.408 153.981 178.8 154.525 178.288C155.069 177.765 155.709 177.36 156.445 177.072C157.181 176.784 157.981 176.64 158.845 176.64C159.72 176.64 160.52 176.784 161.245 177.072C161.981 177.36 162.621 177.765 163.165 178.288C163.709 178.8 164.131 179.408 164.429 180.112C164.728 180.805 164.877 181.568 164.877 182.4C164.877 183.232 164.728 184 164.429 184.704C164.131 185.408 163.709 186.016 163.165 186.528C162.621 187.04 161.981 187.44 161.245 187.728C160.52 188.016 159.725 188.16 158.861 188.16ZM158.845 186.336C159.411 186.336 159.933 186.24 160.413 186.048C160.893 185.856 161.309 185.584 161.661 185.232C162.013 184.869 162.285 184.453 162.477 183.984C162.68 183.504 162.781 182.976 162.781 182.4C162.781 181.824 162.68 181.301 162.477 180.832C162.285 180.352 162.013 179.936 161.661 179.584C161.309 179.221 160.893 178.944 160.413 178.752C159.933 178.56 159.411 178.464 158.845 178.464C158.28 178.464 157.757 178.56 157.277 178.752C156.808 178.944 156.392 179.221 156.029 179.584C155.677 179.936 155.4 180.352 155.197 180.832C155.005 181.301 154.909 181.824 154.909 182.4C154.909 182.965 155.005 183.488 155.197 183.968C155.4 184.448 155.677 184.869 156.029 185.232C156.381 185.584 156.797 185.856 157.277 186.048C157.757 186.24 158.28 186.336 158.845 186.336ZM167.082 188V176.8H172.33C173.674 176.8 174.698 177.067 175.402 177.6C176.106 178.123 176.458 178.827 176.458 179.712C176.458 180.309 176.319 180.821 176.042 181.248C175.765 181.664 175.391 181.989 174.922 182.224C174.463 182.448 173.962 182.56 173.418 182.56L173.706 181.984C174.335 181.984 174.901 182.101 175.402 182.336C175.903 182.56 176.298 182.891 176.586 183.328C176.885 183.765 177.034 184.309 177.034 184.96C177.034 185.92 176.666 186.667 175.93 187.2C175.194 187.733 174.101 188 172.65 188H167.082ZM169.162 186.368H172.522C173.301 186.368 173.898 186.24 174.314 185.984C174.73 185.728 174.938 185.317 174.938 184.752C174.938 184.197 174.73 183.792 174.314 183.536C173.898 183.269 173.301 183.136 172.522 183.136H169.002V181.52H172.106C172.831 181.52 173.386 181.392 173.77 181.136C174.165 180.88 174.362 180.496 174.362 179.984C174.362 179.461 174.165 179.072 173.77 178.816C173.386 178.56 172.831 178.432 172.106 178.432H169.162V186.368ZM179.254 188V176.8H181.334V188H179.254ZM186.283 181.456H191.851V183.168H186.283V181.456ZM186.443 186.256H192.763V188H184.363V176.8H192.539V178.544H186.443V186.256ZM195.082 188V176.8H199.69C200.682 176.8 201.53 176.96 202.234 177.28C202.949 177.6 203.498 178.059 203.882 178.656C204.266 179.253 204.458 179.963 204.458 180.784C204.458 181.605 204.266 182.315 203.882 182.912C203.498 183.499 202.949 183.952 202.234 184.272C201.53 184.581 200.682 184.736 199.69 184.736H196.234L197.162 183.792V188H195.082ZM202.41 188L199.578 183.936H201.802L204.65 188H202.41ZM197.162 184.016L196.234 183.024H199.594C200.511 183.024 201.199 182.827 201.658 182.432C202.127 182.037 202.362 181.488 202.362 180.784C202.362 180.069 202.127 179.52 201.658 179.136C201.199 178.752 200.511 178.56 199.594 178.56H196.234L197.162 177.536V184.016ZM206.785 188V176.8H208.497L215.521 185.424H214.673V176.8H216.737V188H215.025L208.001 179.376H208.849V188H206.785ZM224.986 188.16C224.112 188.16 223.306 188.016 222.57 187.728C221.834 187.44 221.194 187.04 220.65 186.528C220.106 186.005 219.685 185.397 219.386 184.704C219.088 184 218.938 183.232 218.938 182.4C218.938 181.568 219.088 180.805 219.386 180.112C219.685 179.408 220.106 178.8 220.65 178.288C221.194 177.765 221.834 177.36 222.57 177.072C223.306 176.784 224.106 176.64 224.97 176.64C225.845 176.64 226.645 176.784 227.37 177.072C228.106 177.36 228.746 177.765 229.29 178.288C229.834 178.8 230.256 179.408 230.554 180.112C230.853 180.805 231.002 181.568 231.002 182.4C231.002 183.232 230.853 184 230.554 184.704C230.256 185.408 229.834 186.016 229.29 186.528C228.746 187.04 228.106 187.44 227.37 187.728C226.645 188.016 225.85 188.16 224.986 188.16ZM224.97 186.336C225.536 186.336 226.058 186.24 226.538 186.048C227.018 185.856 227.434 185.584 227.786 185.232C228.138 184.869 228.41 184.453 228.602 183.984C228.805 183.504 228.906 182.976 228.906 182.4C228.906 181.824 228.805 181.301 228.602 180.832C228.41 180.352 228.138 179.936 227.786 179.584C227.434 179.221 227.018 178.944 226.538 178.752C226.058 178.56 225.536 178.464 224.97 178.464C224.405 178.464 223.882 178.56 223.402 178.752C222.933 178.944 222.517 179.221 222.154 179.584C221.802 179.936 221.525 180.352 221.322 180.832C221.13 181.301 221.034 181.824 221.034 182.4C221.034 182.965 221.13 183.488 221.322 183.968C221.525 184.448 221.802 184.869 222.154 185.232C222.506 185.584 222.922 185.856 223.402 186.048C223.882 186.24 224.405 186.336 224.97 186.336Z" fill="#6B7071"/>
<path d="M87.23 108.685C87.0698 108.621 87.0217 106.324 87.0217 97.9082V87.1952L87.6306 86.617C87.9511 86.2958 88.3036 85.9424 88.4158 85.83C88.5119 85.7176 88.7363 85.4927 88.9125 85.316C89.0888 85.1393 89.2971 84.9305 89.3612 84.8502C89.4413 84.7699 89.7298 84.4969 89.9862 84.2399C90.2586 83.9829 90.547 83.6938 90.6271 83.5974C90.7233 83.5011 91.22 82.9871 91.7488 82.4571C92.2776 81.9271 92.7904 81.4291 92.8705 81.3328C92.9666 81.2525 93.2551 80.9634 93.5115 80.7064C93.7839 80.4494 94.0723 80.1603 94.1684 80.0479C94.2806 79.9354 94.505 79.7106 94.6812 79.5339C94.8575 79.3572 95.0658 79.1484 95.1459 79.0681C95.21 78.9878 95.4984 78.7148 95.7548 78.4578C96.0272 78.2008 96.3317 77.8956 96.4439 77.7671C97.4374 76.7071 98.8475 75.4222 98.9436 75.5025C98.9917 75.5507 99.0398 80.5297 99.0398 86.5527V97.5067L98.4789 98.0849C98.1584 98.4222 97.838 98.6791 97.7578 98.6791C97.6777 98.6791 97.5816 98.8237 97.5175 99.0004C97.4694 99.177 97.213 99.434 96.9566 99.5786C96.7163 99.7392 96.4278 100.012 96.3317 100.221C96.2516 100.414 95.9631 100.703 95.6907 100.864C95.4183 101.024 95.194 101.249 95.194 101.361C95.194 101.474 94.9376 101.731 94.6331 101.924C94.3287 102.132 94.0723 102.373 94.0723 102.486C94.0723 102.582 93.7839 102.871 93.4313 103.128C93.0788 103.369 92.7904 103.642 92.7904 103.706C92.7904 103.883 91.4604 105.184 90.9476 105.521C90.7233 105.666 90.547 105.875 90.547 106.003C90.547 106.116 90.2586 106.405 89.906 106.662C89.5535 106.903 89.2651 107.192 89.2651 107.304C89.2651 107.401 89.0247 107.641 88.7203 107.818C88.4318 108.011 88.1434 108.3 88.0953 108.477C88.0152 108.782 87.6627 108.862 87.23 108.685Z" fill="#9B2149"/>
<path d="M141.023 107.995C140.622 107.545 140.206 107.095 140.077 106.983C138.908 105.907 135.414 102.325 135.414 102.213C135.414 102.116 135.334 102.052 135.254 102.052C135.158 102.052 134.117 101.088 132.931 99.8998C131.264 98.2455 130.767 97.6512 130.767 97.33C130.767 96.7036 131.216 96.8 131.921 97.587C132.258 97.9564 132.53 98.3258 132.53 98.39C132.53 98.4543 132.626 98.5185 132.754 98.5185C132.883 98.5185 133.123 98.7434 133.283 99.0004C133.427 99.2734 133.684 99.5143 133.828 99.5625C133.956 99.6107 134.165 99.8195 134.277 100.012C134.389 100.221 134.677 100.51 134.918 100.655C135.158 100.799 135.447 101.088 135.575 101.313C135.687 101.538 135.847 101.731 135.911 101.731C136.007 101.731 137.514 103.192 138.171 103.915C138.315 104.092 138.908 104.686 139.485 105.248C140.061 105.81 140.542 106.324 140.542 106.389C140.542 106.453 140.686 106.549 140.863 106.597C141.039 106.646 141.183 106.774 141.183 106.903C141.183 107.015 141.327 107.208 141.504 107.32L141.824 107.513L141.792 97.3782C141.76 89.4278 141.696 87.2113 141.552 87.147C141.343 87.0828 141.247 85.9906 141.44 85.9906C141.488 85.9906 141.808 86.2636 142.161 86.5849L142.786 87.1791V97.7155C142.77 108.846 142.786 108.798 142.048 108.798C141.888 108.798 141.424 108.428 141.023 107.995Z" fill="#9B2149"/>
<path d="M100.754 95.2581C100.642 94.9208 100.61 78.4096 100.738 75.8076C100.818 73.816 100.899 73.2539 101.107 73.0772C101.363 72.8363 101.892 72.3062 102.213 71.985C102.405 71.7762 103.286 70.8928 103.494 70.7001C103.735 70.4752 104.328 69.8649 104.456 69.7204C104.52 69.6561 104.792 69.3991 105.049 69.1421C105.321 68.8852 105.626 68.58 105.738 68.4515C105.978 68.2106 107.789 66.3796 107.981 66.2029C108.206 65.978 110.016 64.1631 110.177 63.9864C110.273 63.9061 110.561 63.617 110.817 63.36C111.09 63.103 111.378 62.8139 111.458 62.7176C111.795 62.3481 112.532 61.7217 112.596 61.7699C112.628 61.8021 112.676 66.7008 112.724 72.6596C112.804 84.5129 112.837 84.0793 111.859 84.6575C111.603 84.8021 111.378 85.0269 111.378 85.1393C111.378 85.2518 111.122 85.5088 110.817 85.7015C110.513 85.9103 110.257 86.1673 110.257 86.2797C110.257 86.3921 110 86.6331 109.696 86.8097C109.391 86.9864 109.103 87.2755 109.055 87.4522C109.007 87.6128 108.75 87.8698 108.51 88.0143C108.27 88.1589 108.013 88.4319 107.917 88.6086C107.837 88.8014 107.565 89.0583 107.308 89.1868C107.052 89.2993 106.811 89.5402 106.779 89.7008C106.731 89.8614 106.443 90.1505 106.154 90.3433C105.85 90.5199 105.61 90.7769 105.61 90.9054C105.61 91.0178 105.353 91.2909 105.049 91.4836C104.744 91.6924 104.488 91.9494 104.488 92.0618C104.488 92.1743 104.232 92.4152 103.927 92.5919C103.623 92.7685 103.334 93.0576 103.286 93.2183C103.238 93.3949 102.95 93.668 102.661 93.8607C102.357 94.0374 102.084 94.3104 102.052 94.471C101.94 94.8565 100.85 95.515 100.754 95.2581Z" fill="#9B2149"/>
<path d="M122.531 89.4759C117.275 84.2078 116.714 83.5974 116.778 83.212C116.875 82.7141 117.419 82.6016 117.58 83.0514C117.644 83.1959 117.804 83.4368 117.932 83.5814C118.076 83.7259 118.301 83.999 118.429 84.1917C118.557 84.3845 118.717 84.5451 118.765 84.5451C118.878 84.5451 120.56 86.2155 122.467 88.2071C122.675 88.4159 122.98 88.705 123.14 88.8495C124.134 89.7329 124.678 90.4396 124.678 90.8733C124.678 91.2266 124.742 91.2909 125.127 91.2909C125.464 91.2909 125.816 91.5157 126.489 92.1903C126.986 92.6722 127.402 93.1379 127.434 93.2022C127.531 93.411 128.492 94.0213 128.748 94.0213C128.893 94.0213 129.005 94.1498 129.005 94.3104C129.005 94.8405 128.813 95.3062 128.588 95.3062C128.476 95.3062 125.752 92.6882 122.531 89.4759Z" fill="#9B2149"/>
<path d="M164.098 85.8942C163.969 85.8621 159.37 85.8139 153.874 85.7979C144.516 85.7497 143.875 85.7336 143.731 85.4606C143.635 85.316 143.475 85.1072 143.378 85.0269C143.266 84.9305 143.042 84.7378 142.85 84.5772C142.673 84.4326 142.433 84.1435 142.321 83.9508C142.225 83.742 142.048 83.5814 141.936 83.5814C141.712 83.5814 141.183 83.0192 141.183 82.7783C141.183 82.698 140.991 82.5374 140.75 82.425C140.51 82.3125 140.206 82.0074 140.094 81.7664C139.981 81.5255 139.805 81.3328 139.709 81.3328C139.629 81.3328 139.116 80.8831 138.603 80.337C138.074 79.7748 137.578 79.2609 137.482 79.1645C137.401 79.0842 136.889 78.5863 136.36 78.0723C135.847 77.5583 135.414 77.0604 135.414 76.9962C135.414 76.9159 135.222 76.7553 134.982 76.6428C134.741 76.5304 134.437 76.2252 134.325 75.9843C134.213 75.7434 134.052 75.5507 133.988 75.5507C133.796 75.5507 133.075 74.86 132.883 74.5067C132.77 74.2657 132.77 74.1051 132.931 73.8963C133.107 73.6393 133.844 73.6233 143.539 73.6233C152.608 73.6233 153.986 73.6554 154.163 73.8642C154.275 73.9927 154.531 74.1051 154.74 74.1051C154.996 74.1051 155.188 74.2657 155.364 74.587C155.509 74.86 155.717 75.0688 155.845 75.0688C155.989 75.0688 156.294 75.3579 156.534 75.7113C156.775 76.0486 157.015 76.3377 157.079 76.3537C157.207 76.3537 158.81 77.9278 158.81 78.0562C158.81 78.2008 159.194 78.5381 159.499 78.6505C159.643 78.6987 159.851 78.9236 159.947 79.1324C160.044 79.3412 160.316 79.6303 160.556 79.7748C160.797 79.9194 161.085 80.2085 161.213 80.4333C161.325 80.6582 161.486 80.8509 161.55 80.8509C161.646 80.8509 163.056 82.2162 163.633 82.8747C163.793 83.0514 164.082 83.3405 164.274 83.5171C164.995 84.1596 165.331 84.6254 165.412 85.0912C165.492 85.4766 165.428 85.573 164.963 85.7657C164.674 85.8942 164.402 85.9745 164.386 85.9745C164.354 85.9585 164.226 85.9264 164.098 85.8942Z" fill="#9B2149"/>
<path d="M64.1072 85.043C64.1072 84.9466 73.946 75.0046 75.1799 73.8642C75.3882 73.6554 76.9586 73.6233 86.0122 73.6233C95.4664 73.6233 96.6201 73.6554 96.7002 73.8803C96.7483 74.0088 96.8605 74.0891 96.9406 74.0248C97.0207 73.9766 97.1489 74.0248 97.197 74.1212C97.2611 74.2176 97.0047 74.587 96.6201 74.9564L95.9151 75.5988L95.867 75.1009L95.8189 74.587H85.6757H75.5324L73.3852 76.7553C72.1994 77.9438 71.1418 78.9236 71.0457 78.9236C70.9335 78.9236 70.8374 79.0039 70.8374 79.1163C70.8374 79.3412 69.0587 81.1722 68.8343 81.1722C68.7382 81.1722 68.594 81.3328 68.5139 81.5416C68.4177 81.7343 68.1934 81.9592 68.0011 82.0555C67.7928 82.1359 67.6325 82.2804 67.6325 82.3768C67.6325 82.4571 67.0236 83.1317 66.2865 83.8705C65.293 84.8502 64.8443 85.1875 64.5239 85.1875C64.2995 85.1875 64.1072 85.1233 64.1072 85.043Z" fill="#9B2149"/>
<path d="M138.491 84.0632C138.267 83.8384 138.139 83.5332 138.139 83.1798V82.6338L138.651 83.1156C138.94 83.3726 139.34 83.7581 139.549 83.9829L139.917 84.3844H139.372C139.052 84.3844 138.699 84.256 138.491 84.0632Z" fill="#9B2149"/>
<path d="M135.735 81.124C135.735 81.0276 135.527 80.8349 135.254 80.7224C134.854 80.5458 134.773 80.4173 134.773 79.9515C134.773 79.4696 134.806 79.4215 135.062 79.55C135.206 79.6303 135.687 80.08 136.12 80.5136L136.905 81.3328H136.328C135.959 81.3328 135.735 81.2525 135.735 81.124Z" fill="#9B2149"/>
<path d="M132.722 78.2811C132.53 78.0884 132.37 77.7993 132.37 77.6386C132.37 77.4298 132.258 77.3174 132.081 77.3174C131.921 77.3174 131.569 77.1086 131.28 76.8356C130.832 76.434 130.767 76.2895 130.88 75.8879L131.008 75.4222L132.594 77.0122L134.197 78.6023H133.636C133.283 78.6023 132.931 78.4738 132.722 78.2811Z" fill="#9B2149"/>
<path d="M136.857 71.8565L130.191 71.7762L129.646 71.2462C127.274 68.9976 126.12 67.8251 126.12 67.7127C126.12 67.6324 125.944 67.4878 125.72 67.3914C125.512 67.2951 125.223 66.9899 125.079 66.7169C124.951 66.4599 124.726 66.235 124.614 66.235C124.502 66.235 124.262 66.0423 124.101 65.8174C123.941 65.5765 123.701 65.3034 123.589 65.2071C123.22 64.9019 122.852 64.5325 122.579 64.2113C122.435 64.0507 122.163 63.7937 122.002 63.6652C121.826 63.5367 121.602 63.2636 121.49 63.0709C121.393 62.8621 121.201 62.7015 121.073 62.7015C120.961 62.7015 120.704 62.4445 120.512 62.1393C120.32 61.8342 120.095 61.5772 120.015 61.5772C119.791 61.5772 119.23 61.0472 119.23 60.8223C119.23 60.6938 119.054 60.5171 118.83 60.4208C117.756 59.9389 118.541 59.8907 129.598 59.8426C140.59 59.8104 140.654 59.8104 141.087 60.1477C141.311 60.3244 141.504 60.5653 141.504 60.6777C141.504 60.7902 141.68 60.9829 141.904 61.0953C142.129 61.2238 142.465 61.5611 142.641 61.8502C142.818 62.1393 143.074 62.3803 143.202 62.3803C143.33 62.3803 143.587 62.6372 143.763 62.9424C143.955 63.2476 144.18 63.5046 144.276 63.5046C144.468 63.5046 146.311 65.4159 146.311 65.6247C146.311 65.6889 146.391 65.7532 146.503 65.7532C146.695 65.7532 147.593 66.7008 147.593 66.9096C147.593 66.9738 147.657 67.0381 147.753 67.0381C147.945 67.0381 149.836 68.9494 149.836 69.1582C149.836 69.2224 149.916 69.2867 150.012 69.2867C150.205 69.2867 152.08 71.198 152.08 71.4068C152.08 71.471 152.192 71.5353 152.32 71.5353C152.656 71.5353 152.624 71.8565 152.288 71.8726C151.374 71.9368 142.545 71.9208 136.857 71.8565Z" fill="#9B2149"/>
<path d="M77.5034 71.5032C77.6636 71.3104 80.3557 68.596 83.4483 65.4801C87.887 61.0311 89.1849 59.8104 89.5054 59.8104C89.7939 59.8104 89.906 59.8907 89.906 60.1317C89.906 60.3083 89.8099 60.4529 89.6977 60.4529C89.5855 60.4529 89.4093 60.5974 89.2971 60.7741C89.1849 60.9508 88.9927 61.0953 88.8645 61.0953C88.7363 61.0953 88.6241 61.1917 88.6241 61.3041C88.6241 61.5611 87.7908 62.3803 87.5345 62.3803C87.4223 62.3803 87.3422 62.4606 87.3422 62.5409C87.3422 62.7979 86.3647 63.8258 86.1083 63.8258C85.9961 63.8258 85.9 63.9222 85.9 64.0346C85.9 64.2595 84.2335 65.9138 84.0252 65.9138C83.9451 65.9138 83.8169 66.0744 83.7367 66.2832C83.6406 66.4759 83.4163 66.7008 83.224 66.7972C83.0157 66.8775 82.8554 67.0381 82.8554 67.1345C82.8554 67.3593 82.0061 68.1624 81.7658 68.1624C81.6536 68.1624 81.5735 68.2266 81.5735 68.323C81.5735 68.5639 80.9005 69.2867 80.6601 69.2867C80.548 69.2867 80.4518 69.367 80.4518 69.4634C80.4518 69.5597 79.9711 70.1379 79.3782 70.7483C78.4488 71.6959 78.2084 71.8565 77.7437 71.8565H77.1989L77.5034 71.5032Z" fill="#9B2149"/>
<path d="M126.281 71.6317C126.281 71.5032 126.104 71.3586 125.88 71.3104C125.464 71.198 125.255 70.7162 125.351 70.1058C125.399 69.8007 125.544 69.897 126.441 70.8125L127.467 71.8565H126.874C126.473 71.8565 126.281 71.7762 126.281 71.6317Z" fill="#9B2149"/>
<path d="M121.121 66.7008C120.961 66.6205 120.833 66.3956 120.833 66.235C120.833 66.0583 120.752 65.9138 120.656 65.9138C120.56 65.9138 120.384 65.8174 120.272 65.721C120.143 65.6086 119.935 65.4159 119.791 65.3035C119.663 65.191 119.551 64.8377 119.551 64.5164V63.9382L120.56 64.8859C121.105 65.3998 121.762 66.0744 122.002 66.3635L122.467 66.8775H121.922C121.634 66.8775 121.265 66.7972 121.121 66.7008Z" fill="#9B2149"/>
<path d="M116.827 62.9103C116.827 62.2518 117.003 61.7378 117.211 61.7378C117.323 61.7378 117.644 61.9948 117.948 62.3L118.493 62.8621H118.06C117.788 62.8621 117.628 62.9424 117.628 63.103C117.628 63.2476 117.483 63.3439 117.227 63.3439C116.891 63.3439 116.827 63.2636 116.827 62.9103Z" fill="#9B2149"/>
<path d="M88.6081 55.4899C88.3837 55.265 88.1434 54.9438 88.0953 54.7832C88.0312 54.6386 87.8069 54.4298 87.5986 54.3495C87.3742 54.2692 87.0858 53.9801 86.9416 53.7071C86.8134 53.4501 86.589 53.2252 86.4448 53.2252C86.3166 53.2252 86.0602 52.9683 85.884 52.6631C85.7077 52.3579 85.4193 52.0688 85.243 52.0206C85.0828 51.9724 84.8264 51.7315 84.6822 51.4906C84.554 51.2497 84.2175 50.9285 83.9611 50.7839C83.7047 50.6233 83.4964 50.3984 83.4964 50.2699C83.4964 50.1254 83.2881 49.9166 83.0157 49.772C82.7593 49.6435 82.4228 49.3062 82.2946 49.0493C82.1504 48.7762 81.942 48.5674 81.7978 48.5674C81.6696 48.5674 81.4133 48.3104 81.237 48.0053C81.0607 47.7001 80.7723 47.411 80.596 47.3628C80.4358 47.2986 80.1794 47.0576 80.0672 46.8167C79.939 46.5758 79.6506 46.3028 79.4263 46.1903C79.1859 46.094 78.9295 45.8209 78.8173 45.596C78.7212 45.3872 78.5129 45.1624 78.3526 45.1142C78.0802 45.0178 77.4072 44.2308 77.4072 44.006C77.4072 43.9578 82.4067 43.9096 88.5119 43.9096H99.6006L100.883 45.1945C101.588 45.9173 102.886 47.1861 103.751 48.0535C104.632 48.9047 105.417 49.7078 105.513 49.8363C105.61 49.9487 106.122 50.4627 106.635 50.9606C107.164 51.4585 107.661 51.9564 107.757 52.0688C108.157 52.5667 109.76 54.1889 109.84 54.1889C109.952 54.1889 111.282 55.6184 111.346 55.8111C111.378 55.8914 106.699 55.9557 100.21 55.9396L89.0247 55.9236L88.6081 55.4899Z" fill="#9B2149"/>
<path d="M139.901 55.6505C139.901 55.4738 139.981 55.2811 140.077 55.2329C140.158 55.1687 140.302 54.9438 140.382 54.735C140.478 54.5102 140.67 54.3495 140.847 54.3495C141.039 54.3495 141.247 54.1407 141.407 53.8034C141.584 53.418 141.808 53.2252 142.129 53.1449C142.497 53.0646 142.625 52.9201 142.705 52.5667C142.77 52.2615 142.962 52.0206 143.186 51.9403C143.394 51.86 143.651 51.587 143.779 51.346C143.923 51.0569 144.132 50.8803 144.404 50.8481C144.724 50.816 144.869 50.6715 144.965 50.286C145.077 49.9166 145.253 49.7399 145.622 49.6275C146.006 49.5311 146.151 49.3865 146.183 49.0653C146.215 48.7762 146.343 48.6317 146.583 48.5995C146.792 48.5674 147.032 48.3265 147.176 48.0053C147.32 47.7001 147.641 47.3628 147.865 47.2504C148.106 47.1379 148.394 46.8649 148.49 46.6561C148.602 46.4473 148.843 46.2064 149.051 46.094C149.259 45.9976 149.532 45.7085 149.644 45.4676C149.788 45.1784 149.98 45.0339 150.221 45.0339C150.493 45.0339 150.621 44.9054 150.734 44.5199C150.878 44.022 150.942 43.9899 151.711 43.9417L152.544 43.8935L150.317 46.1421C149.083 47.3949 148.009 48.4068 147.913 48.4068C147.833 48.4068 147.753 48.471 147.753 48.5514C147.753 48.7602 141.856 54.6708 141.664 54.6708C141.568 54.6708 141.504 54.7511 141.504 54.8635C141.504 54.9759 141.311 55.265 141.071 55.506C140.558 56.036 139.901 56.1163 139.901 55.6505Z" fill="#9B2149"/>
<path d="M117.099 53.948C116.827 53.7553 116.81 53.1289 116.827 43.3153C116.827 37.5974 116.859 32.7469 116.891 32.5541C117.003 31.9759 117.451 31.2532 117.756 31.1568C117.916 31.1086 118.173 30.8356 118.333 30.5625C118.493 30.3055 118.797 30.0004 119.006 29.904C119.214 29.8076 119.422 29.5988 119.487 29.4222C119.535 29.2615 119.775 29.0206 120.015 28.9082C120.256 28.7797 120.528 28.4906 120.64 28.2657C120.736 28.0248 121.009 27.7678 121.233 27.6554C121.457 27.559 121.634 27.4145 121.634 27.3502C121.634 27.2699 122.355 26.515 123.236 25.6477C124.101 24.7804 124.903 23.9934 125.015 23.881C125.111 23.7846 125.816 23.0458 126.601 22.2588C128.172 20.6526 128.54 20.3796 128.813 20.6526C129.053 20.8935 129.085 41.7574 128.861 42.3356C128.684 42.7692 127.338 44.2308 127.098 44.2308C127.018 44.2308 126.81 44.4396 126.665 44.6966C126.505 44.9536 126.217 45.2427 126.008 45.3391C125.816 45.4354 125.64 45.58 125.64 45.6442C125.64 45.853 124.887 46.64 124.694 46.64C124.598 46.64 124.438 46.8007 124.342 46.9934C124.101 47.4592 123.877 47.668 123.525 47.8125C123.364 47.8607 123.236 47.9731 123.236 48.0535C123.236 48.2462 119.086 52.4222 118.894 52.4222C118.814 52.4222 118.669 52.5988 118.573 52.8076C118.477 53.0164 118.221 53.2895 117.996 53.4019C117.772 53.5304 117.548 53.7392 117.484 53.8998C117.403 54.1247 117.339 54.1247 117.099 53.948Z" fill="#9B2149"/>
<path d="M74.7633 41.5486C74.555 41.4361 74.3306 41.1952 74.2825 41.0185C74.2184 40.8419 73.9621 40.5849 73.7057 40.4403C73.4493 40.3118 73.1448 40.0227 73.0487 39.8139C72.9525 39.5891 72.8083 39.4124 72.7442 39.4124C72.5519 39.4124 70.6771 37.5493 70.6771 37.3565C70.6771 37.2601 70.4688 37.0674 70.1964 36.9229C69.94 36.7783 69.7157 36.5695 69.7157 36.425C69.7157 36.2965 69.4593 36.0395 69.1548 35.8628C68.8504 35.6861 68.5619 35.397 68.5139 35.2203C68.4498 35.0597 68.1934 34.8027 67.937 34.6582C67.6806 34.5297 67.3922 34.2406 67.3121 34.0157C67.2319 33.8069 66.9756 33.55 66.7512 33.4696C66.5269 33.3893 66.2865 33.1805 66.2384 33.036C66.1103 32.6826 65.934 32.506 65.3571 32.1365C65.1007 31.9759 64.9084 31.7671 64.9084 31.6547C64.9084 31.5423 64.7642 31.3335 64.588 31.1729C64.1553 30.8034 64.1874 30.4501 64.6841 30.0004L65.0847 29.6149H75.2119H85.3552L87.9191 32.1687C89.3452 33.5821 90.6271 34.9152 90.7713 35.14C90.9156 35.3649 91.0918 35.5576 91.1719 35.5576C91.3482 35.5576 96.2195 40.4564 96.556 40.9543C96.6842 41.1631 96.9086 41.3398 97.0528 41.3398C97.197 41.3398 97.2771 41.4361 97.2291 41.5486C97.1329 41.8377 75.3241 41.8377 74.7633 41.5486Z" fill="#9B2149"/>
<path d="M154.964 40.7776C154.964 40.4724 155.028 40.2155 155.108 40.2155C155.188 40.2155 155.332 40.0067 155.429 39.7336C155.509 39.4606 155.701 39.2518 155.845 39.2518C156.182 39.2518 156.566 38.8663 156.566 38.5451C156.566 38.4166 156.807 38.1917 157.111 38.0472C157.448 37.8866 157.688 37.6456 157.72 37.4368C157.752 37.2441 157.976 36.9871 158.217 36.8747C158.457 36.7462 158.73 36.4731 158.81 36.2643C158.938 35.9592 159.082 35.8789 159.531 35.8789C160.06 35.8789 160.092 35.8467 160.092 35.3167C160.092 34.8509 160.172 34.7385 160.636 34.5136C160.973 34.353 161.213 34.1121 161.245 33.9033C161.277 33.7106 161.438 33.5339 161.598 33.5018C161.998 33.4215 162.335 33.0842 162.335 32.7629C162.335 32.6345 162.575 32.4096 162.88 32.265C163.216 32.1044 163.505 31.8153 163.601 31.5262C163.681 31.2692 163.857 31.0604 163.985 31.0604C164.114 31.0604 164.306 30.948 164.418 30.8195C164.594 30.6107 163.553 30.5786 155.14 30.5786H145.67V30.1931C145.67 29.9361 145.782 29.7755 146.038 29.7113C146.679 29.5507 164.771 29.5988 164.658 29.7755C164.61 29.8719 164.674 29.9361 164.803 29.9361C165.043 29.9361 165.604 30.8838 165.46 31.0283C165.412 31.0765 165.38 31.0604 165.38 30.9801C165.38 30.8998 165.123 31.1889 164.803 31.5905C164.482 32.0081 164.114 32.3453 164.001 32.3453C163.873 32.3453 163.777 32.4096 163.777 32.506C163.777 32.6987 160.46 36.0395 160.268 36.0395C160.188 36.0395 160.092 36.184 160.044 36.3768C159.995 36.5535 159.803 36.7462 159.627 36.7944C159.435 36.8426 159.29 36.9389 159.29 37.0032C159.29 37.1477 155.188 41.3398 155.044 41.3398C154.996 41.3398 154.964 41.0828 154.964 40.7776Z" fill="#9B2149"/>
<path d="M130.848 40.0227C130.8 39.8139 130.784 34.7706 130.8 28.7958L130.848 17.9382L132.53 16.3C133.46 15.4166 134.261 14.6296 134.325 14.5653C134.469 14.3886 136.312 12.5416 136.52 12.3488C136.616 12.2685 137.417 11.4494 138.299 10.55C139.18 9.63445 139.965 8.89563 140.045 8.89563C140.126 8.89563 140.238 8.75107 140.302 8.5744C140.35 8.39772 140.606 8.14074 140.879 7.98012C141.135 7.81951 141.391 7.57859 141.44 7.41797C141.568 7.00037 142.113 6.88794 142.481 7.22523C142.77 7.49828 142.786 7.83557 142.786 18.0346V28.5709L141.327 30.0646C140.542 30.8677 139.821 31.5423 139.741 31.5423C139.661 31.5423 139.517 31.6868 139.42 31.8635C139.324 32.0402 138.876 32.522 138.427 32.9396C137.337 33.9515 137.145 34.1603 136.857 34.5618C136.728 34.7546 136.568 34.9152 136.488 34.9152C136.36 34.9152 134.774 36.441 134.774 36.5695C134.774 36.6498 132.963 38.4808 131.665 39.7015C130.96 40.36 130.928 40.3761 130.848 40.0227Z" fill="#9B2149"/>
<path d="M100.786 39.5409C100.738 37.6777 100.722 20.5241 100.77 20.4278C100.931 20.0744 102.293 21.2951 107.036 26.0493C112.933 31.9599 113.269 32.3453 112.5 32.3453C112.035 32.3453 111.378 31.8796 111.378 31.5583C111.378 31.4138 111.154 31.205 110.882 31.0765C110.609 30.9641 110.353 30.7392 110.289 30.5946C110.193 30.3055 109.503 29.6149 109.311 29.6149C109.247 29.6149 109.103 29.4543 108.991 29.2455C108.879 29.0367 108.574 28.7476 108.318 28.587C108.061 28.4424 107.853 28.2176 107.853 28.1051C107.853 27.9766 107.741 27.8481 107.613 27.7839C107.484 27.7357 107.372 27.543 107.372 27.3663C107.372 27.1575 107.26 27.0451 107.052 27.0451C106.892 27.0451 106.683 26.9487 106.619 26.8363C106.555 26.7078 106.299 26.4829 106.042 26.3223C105.802 26.1778 105.562 25.8886 105.513 25.6959C105.465 25.5032 105.225 25.2622 104.953 25.1659C104.696 25.0695 104.488 24.8928 104.488 24.7643C104.488 24.6519 104.328 24.4271 104.135 24.2825C103.462 23.7685 102.084 22.4033 102.084 22.2266C102.084 22.1463 102.02 22.066 101.924 22.066C101.844 22.066 101.764 21.9536 101.764 21.8251C101.764 21.6966 101.7 21.5842 101.604 21.5842C101.491 21.5842 101.443 24.7965 101.443 30.8998C101.443 40.103 101.443 40.2155 101.123 40.2155C100.85 40.2155 100.802 40.103 100.786 39.5409Z" fill="#9B2149"/>
<path d="M98.2386 18.3879C98.2386 18.3076 98.0944 18.1791 97.9181 18.131C97.7418 18.0828 97.5656 17.874 97.5015 17.6812C97.4534 17.4885 97.181 17.2155 96.9086 17.0709C96.5721 16.9103 96.3798 16.6854 96.3477 16.4124C96.3157 16.1072 96.1875 15.9787 95.8189 15.8984C95.5465 15.8502 95.2741 15.6575 95.178 15.4326C95.0818 15.2238 94.7934 14.9347 94.537 14.7741C94.2326 14.5974 94.0723 14.3726 94.0723 14.0995C94.0723 13.8265 93.9762 13.7141 93.7679 13.7141C93.4153 13.7141 92.6301 13.0234 92.6301 12.7022C92.6301 12.5737 92.4539 12.4131 92.2295 12.3649C92.0052 12.3007 91.8289 12.1882 91.8289 12.0919C91.8289 11.8831 91.5726 11.6421 90.9957 11.2567C90.7393 11.096 90.547 10.9033 90.547 10.7909C90.547 10.6142 89.9381 10.0199 89.7458 10.0199C89.6817 10.0199 89.5535 9.85931 89.4413 9.65052C89.3292 9.44172 89.0247 9.15261 88.7683 8.992C88.5119 8.84744 88.3036 8.60652 88.3036 8.47803C88.3036 8.34954 88.2395 8.25317 88.1434 8.25317C88.0633 8.25317 87.9832 7.99619 87.9832 7.69102C87.9832 7.38585 88.0152 7.12887 88.0633 7.12887C88.2556 7.12887 99.0398 18.0828 99.0398 18.2916C99.0398 18.4361 98.8795 18.5325 98.6392 18.5325C98.4148 18.5325 98.2386 18.4683 98.2386 18.3879Z" fill="#9B2149"/>
<path d="M141.824 108.557C141.824 108.428 141.744 108.316 141.648 108.316C141.568 108.316 141.536 108.412 141.6 108.525C141.664 108.621 141.664 108.669 141.584 108.605C141.52 108.541 141.375 108.316 141.279 108.123C141.167 107.914 140.991 107.754 140.863 107.754C140.734 107.754 140.622 107.641 140.622 107.513C140.622 107.175 138.139 104.766 137.914 104.895C137.818 104.943 137.786 104.943 137.85 104.879C137.898 104.814 137.834 104.606 137.69 104.429C137.193 103.835 134.261 100.928 134.133 100.928C134.084 100.928 133.924 100.751 133.812 100.526C133.7 100.317 133.476 100.092 133.347 100.044C133.203 99.996 132.947 99.739 132.787 99.466C132.61 99.1769 132.418 99.0162 132.274 99.0644C132.146 99.1126 132.049 99.0644 132.049 98.952C132.049 98.8396 131.761 98.422 131.408 98.0365L130.767 97.3298L130.784 86.7132C130.8 80.8829 130.864 75.9359 130.928 75.7111C131.056 75.3256 131.104 75.3256 131.152 75.7593C131.168 75.8556 131.248 75.9359 131.328 75.9199C131.424 75.9199 131.585 76.0002 131.697 76.1287C131.809 76.2572 131.857 76.3535 131.809 76.3535C131.745 76.3535 132.049 76.6426 132.45 76.996C132.851 77.3493 133.139 77.6385 133.059 77.6385C132.995 77.6385 133.187 77.8151 133.492 78.0239C134.133 78.4576 135.334 79.7425 135.286 79.9352C135.27 79.9995 135.318 80.0477 135.414 80.0477C135.495 80.0477 136.328 80.8026 137.273 81.7341C138.203 82.6657 138.908 83.4206 138.844 83.4206C138.764 83.4206 138.892 83.5491 139.1 83.6936C139.805 84.1755 141.824 86.2153 141.824 86.4401C141.824 86.5526 141.888 86.6168 141.968 86.5526C142.048 86.5044 142.273 86.665 142.465 86.9059C142.77 87.2914 142.786 87.3556 142.561 87.4038C142.257 87.4681 142.225 87.8535 142.513 87.966C142.673 88.0302 142.673 88.0623 142.513 88.0623C142.385 88.0784 142.305 88.3354 142.305 88.7851C142.305 89.2027 142.385 89.5239 142.513 89.5721C142.673 89.6364 142.673 89.6685 142.513 89.6685C142.241 89.6845 142.209 107.288 142.465 107.384C142.561 107.416 142.657 107.657 142.673 107.914C142.705 108.332 142.657 108.396 142.353 108.348C141.968 108.3 141.84 108.557 142.193 108.685C142.305 108.733 142.273 108.782 142.113 108.782C141.952 108.798 141.824 108.685 141.824 108.557Z" fill="#631032"/>
<path d="M127.979 94.6154C127.835 94.4066 127.547 94.1336 127.322 94.0211C127.098 93.9087 126.89 93.6678 126.826 93.5072C126.777 93.3305 126.633 93.2341 126.505 93.2823C126.393 93.3305 126.297 93.3144 126.329 93.2502C126.393 93.0253 125.544 92.1419 124.871 91.7083C124.502 91.4834 124.198 91.1783 124.198 91.0498C124.198 90.9213 124.101 90.7607 123.989 90.6964C123.861 90.6322 123.653 90.3752 123.509 90.1503C123.348 89.9255 123.06 89.6524 122.852 89.54C122.643 89.4276 122.371 89.1545 122.259 88.9457C122.147 88.7208 121.954 88.5924 121.842 88.6245C121.73 88.6727 121.65 88.6566 121.682 88.5924C121.73 88.4317 121.49 88.1587 119.823 86.4562C119.038 85.6692 118.333 85.0588 118.253 85.1231C118.173 85.1713 118.108 85.1231 118.108 85.0267C118.108 84.8661 118.012 84.7215 117.467 84.0791C116.81 83.3081 116.827 83.4527 116.827 72.9806C116.827 66.3472 116.875 62.8619 116.987 62.8619C117.083 62.8619 117.147 62.6531 117.147 62.4122C117.147 62.1552 117.195 61.8982 117.243 61.85C117.387 61.7216 120.352 64.6608 120.256 64.8214C120.208 64.8857 120.24 64.9499 120.304 64.9499C120.544 64.9499 121.473 65.7851 121.377 65.9297C121.345 65.9939 121.506 66.1706 121.746 66.2991C122.339 66.6042 126.153 70.4911 126.008 70.6196C125.96 70.6838 125.992 70.732 126.104 70.732C126.393 70.732 128.636 72.9485 128.829 73.4303C128.957 73.7355 128.989 76.9157 128.973 84.2076L128.925 94.5512L128.572 94.776C128.252 94.9848 128.204 94.9688 127.979 94.6154Z" fill="#631032"/>
<path d="M75.0036 85.9904C69.4112 85.9422 64.7162 85.8459 64.5559 85.7816C63.8188 85.4122 64.0431 85.1231 68.1293 81.0435C70.3246 78.8431 72.0712 76.996 71.9911 76.9157C71.927 76.8354 71.959 76.8193 72.0392 76.8836C72.1353 76.9318 72.8564 76.3214 73.6416 75.5344L75.0677 74.1049H85.8359C95.21 74.1049 96.6201 74.1371 96.7964 74.3459C96.9406 74.5225 96.9406 74.5868 96.8124 74.5868C96.7003 74.5868 96.6682 74.6671 96.7323 74.7795C96.7964 74.8919 96.7804 74.908 96.6522 74.8438C96.556 74.7795 96.4278 74.8438 96.3637 75.0044C96.2356 75.3577 86.1243 85.5086 85.5795 85.8298C85.227 86.0386 83.865 86.0547 75.0036 85.9904Z" fill="#631032"/>
<path d="M77.92 71.2621C78.2405 70.9248 78.8815 70.2823 79.3141 69.8165C79.7628 69.3507 80.1313 68.901 80.1313 68.8047C80.1313 68.7243 80.1794 68.6601 80.2595 68.6762C80.4358 68.7404 82.3747 66.8291 82.3747 66.6042C82.3747 66.4918 82.4869 66.3954 82.6151 66.3954C82.7433 66.3954 83.0637 66.0903 83.3362 65.7209C83.5925 65.3675 83.8169 65.1266 83.8169 65.1908C83.8169 65.2551 84.7943 64.3396 85.9801 63.151C87.1659 61.9464 88.1434 60.9024 88.1434 60.8061C88.1434 60.7257 88.2876 60.6133 88.4799 60.5651C88.6562 60.5169 88.8484 60.3242 88.8965 60.1475C88.9766 59.8263 89.0247 59.8263 100.081 59.8102C106.603 59.8102 111.234 59.8745 111.282 59.9548C111.33 60.0351 108.75 62.7495 105.53 65.9778L99.6807 71.8563H88.5119H77.3431L77.92 71.2621Z" fill="#631032"/>
<path d="M118.525 55.8431C118.413 55.7306 118.557 55.57 120.208 53.9478C120.736 53.4178 121.265 52.8878 121.361 52.7753C121.474 52.6629 121.73 52.4059 121.938 52.2132C122.147 52.0204 122.435 51.7153 122.579 51.5547C122.723 51.394 122.98 51.1371 123.14 50.9925C123.3 50.8479 123.557 50.607 123.701 50.4304C124.358 49.6755 125.672 48.4066 125.8 48.4066C125.88 48.4066 126.072 48.1978 126.217 47.9408C126.377 47.6838 126.665 47.3787 126.874 47.2662C127.066 47.1538 127.274 46.9611 127.322 46.8165C127.37 46.672 127.563 46.4471 127.755 46.3186C127.931 46.1901 128.204 45.9492 128.348 45.7886C128.492 45.628 128.941 45.1301 129.357 44.6964L130.11 43.9094H141.103C150.91 43.9094 152.897 43.9736 151.791 44.2628C151.615 44.3109 151.326 44.6964 151.118 45.114C150.878 45.5959 150.717 45.8047 150.637 45.6762C150.573 45.5637 150.429 45.5316 150.333 45.5798C150.237 45.644 150.189 45.7725 150.253 45.8528C150.349 46.0295 149.708 46.6238 149.387 46.6398C149.275 46.6398 149.131 46.7683 149.083 46.929C148.923 47.3787 148.49 47.8445 148.234 47.8445C148.122 47.8445 147.833 48.1817 147.609 48.5993C147.384 49.033 147.16 49.29 147.096 49.1776C146.952 48.9527 146.631 49.1615 146.631 49.4988C146.631 49.804 146.183 50.2537 145.862 50.2537C145.766 50.2537 145.542 50.5107 145.381 50.8158C145.205 51.1692 144.997 51.378 144.789 51.378C144.596 51.378 144.388 51.5547 144.26 51.8438C144.132 52.1007 143.891 52.3417 143.715 52.3898C143.555 52.422 143.314 52.7111 143.186 53.0002C143.042 53.3535 142.818 53.5784 142.545 53.6426C142.305 53.7069 142.048 53.8996 141.968 54.0924C141.664 54.7669 141.343 55.2327 141.343 55.0239C141.343 54.8954 141.247 54.8312 141.151 54.8794C141.039 54.9115 140.959 55.04 140.991 55.1364C141.007 55.2488 140.863 55.4736 140.67 55.6343C140.318 55.9394 139.869 55.9394 129.47 55.9555C123.509 55.9555 118.589 55.9073 118.525 55.8431Z" fill="#631032"/>
<path d="M112.244 53.8675C112.083 53.7069 110.737 52.3577 109.247 50.8961C107.773 49.4185 106.491 48.0854 106.411 47.9087C106.315 47.7481 106.17 47.6035 106.09 47.6035C105.962 47.6035 102.934 44.6322 101.732 43.3312C101.572 43.1545 101.299 42.8815 101.107 42.7048C100.786 42.3996 100.77 42.2711 100.85 40.5686C100.899 39.4925 100.883 38.8019 100.786 38.8661C100.706 38.9143 100.642 38.834 100.642 38.7055C100.642 38.5609 100.722 38.4485 100.802 38.4485C100.915 38.4485 100.963 35.3647 100.963 29.5344C100.963 20.6845 100.963 20.6203 101.283 20.6203C101.459 20.6203 101.652 20.7327 101.7 20.8612C101.764 20.9897 101.86 21.07 101.924 21.0218C102.004 20.9736 102.1 21.0861 102.164 21.2628C102.213 21.4394 102.341 21.584 102.421 21.584C102.501 21.584 102.565 21.6964 102.565 21.8249C102.565 22.0979 103.11 22.4192 103.286 22.2586C103.366 22.1943 103.366 22.2264 103.318 22.3228C103.19 22.5477 103.735 23.0777 103.927 22.9171C103.991 22.8368 104.007 22.9171 103.943 23.0938C103.863 23.3186 103.911 23.3668 104.087 23.2865C104.232 23.2383 104.312 23.2544 104.264 23.3186C104.167 23.4792 104.728 23.9932 104.985 23.9932C105.081 23.9932 105.129 24.1056 105.065 24.2341C105.017 24.3787 105.113 24.5393 105.337 24.6517C105.786 24.8926 106.251 25.3745 106.154 25.4869C106.106 25.5351 106.203 25.6475 106.379 25.7439C106.555 25.8403 106.827 26.0491 106.988 26.1936C107.148 26.3542 107.34 26.4827 107.436 26.4827C107.533 26.4827 107.693 26.6594 107.789 26.8682C107.901 27.077 108.109 27.3179 108.238 27.3982C108.382 27.4785 108.462 27.607 108.414 27.6873C108.334 27.8158 108.847 28.2013 108.991 28.121C109.023 28.1049 109.039 28.121 109.023 28.1531C108.991 28.1852 109.151 28.378 109.375 28.5707C109.584 28.7795 109.712 28.9883 109.648 29.0686C109.584 29.1329 109.68 29.1329 109.856 29.0686C110.032 29.0044 110.128 29.0044 110.064 29.0526C109.936 29.181 110.513 29.7753 110.737 29.7753C110.834 29.7753 110.898 29.9038 110.866 30.0644C110.834 30.2411 110.914 30.3375 111.09 30.3214C111.25 30.3053 111.346 30.3535 111.298 30.4178C111.25 30.482 111.41 30.6587 111.619 30.8033C111.843 30.9478 111.987 31.1245 111.955 31.2048C111.907 31.269 112.083 31.4939 112.356 31.6866L112.837 32.04L112.804 43.0421C112.788 49.0812 112.724 54.0602 112.66 54.1084C112.596 54.1405 112.404 54.0442 112.244 53.8675Z" fill="#631032"/>
<path d="M132.722 41.7893C132.514 41.5805 132.37 41.7411 135.863 38.2076C137.305 36.746 138.539 35.5574 138.619 35.5574C138.699 35.5574 138.86 35.3968 138.956 35.2041C139.196 34.7383 139.677 34.2565 139.789 34.3689C139.837 34.4171 139.949 34.3047 140.061 34.128C140.222 33.8228 141.263 32.7306 142.08 32.0079C142.257 31.8633 142.497 31.6063 142.625 31.4297C142.753 31.269 143.218 30.8193 143.651 30.4499C144.356 29.8396 144.516 29.7753 145.285 29.7753C145.766 29.7753 146.151 29.8556 146.151 29.9359C146.151 30.0484 149.275 30.0966 155.637 30.0966C160.845 30.0805 165.155 30.1447 165.219 30.209C165.428 30.4338 165.588 31.1084 165.412 30.996C165.315 30.9478 165.107 31.0602 164.947 31.269C164.787 31.4778 164.562 31.6224 164.45 31.5742C164.354 31.5421 164.21 31.6545 164.146 31.8151C164.001 32.2488 163.585 32.6824 163.184 32.8431C162.96 32.9234 162.816 33.1161 162.816 33.3088C162.816 33.4855 162.752 33.6301 162.671 33.6301C162.591 33.6301 162.463 33.7907 162.415 33.9674C162.335 34.2243 162.271 34.2565 162.175 34.1119C162.03 33.871 161.694 34.0316 161.694 34.3689C161.694 34.658 161.197 35.1559 160.893 35.1559C160.765 35.1559 160.636 35.3005 160.604 35.4771C160.524 35.8787 160.027 36.3605 159.691 36.3605C159.563 36.3605 159.37 36.5372 159.29 36.746C159.21 36.9548 158.954 37.2278 158.697 37.3563C158.457 37.4688 158.233 37.7097 158.201 37.8864C158.153 38.063 158.04 38.2718 157.912 38.3361C157.784 38.4003 157.688 38.5931 157.688 38.7376C157.688 38.9625 157.656 38.9625 157.544 38.7858C157.367 38.4967 157.047 38.7055 157.047 39.107C157.047 39.2676 156.983 39.4122 156.919 39.4122C156.839 39.4122 156.694 39.5728 156.598 39.7816C156.502 39.9743 156.422 40.0386 156.422 39.9422C156.39 39.5567 156.07 39.7334 155.909 40.2153C155.813 40.4883 155.669 40.6971 155.589 40.6971C155.509 40.6971 155.445 40.8095 155.445 40.938C155.445 41.0665 155.124 41.3556 154.756 41.5805L154.05 41.982H143.491C135.703 41.982 132.867 41.9338 132.722 41.7893Z" fill="#631032"/>
<path d="M98.3668 39.9262C98.1264 39.6852 97.7739 39.3319 97.5656 39.1391C96.9887 38.577 96.8445 38.4324 95.835 37.4045C95.3222 36.8745 94.7774 36.3284 94.6492 36.1999C94.505 36.0714 94.0242 35.5735 93.5595 35.1077C93.0948 34.6259 92.5821 34.128 92.4378 33.9834C92.0853 33.6461 91.5084 33.0679 91.1559 32.6985C91.0117 32.554 90.8034 32.3612 90.7072 32.2648C90.6111 32.1845 90.3707 31.9276 90.1624 31.7027C89.9541 31.4778 89.1689 30.7069 88.3998 29.9681L87.0217 28.6189V17.8898C87.0217 7.28929 87.0217 7.14474 87.3422 7.04837C87.7909 6.90381 88.2716 7.09655 88.3837 7.4499C88.4318 7.61052 88.5921 7.78719 88.7203 7.83538C88.8484 7.88356 88.9286 7.99599 88.8645 8.0763C88.7683 8.25298 89.3131 8.60633 89.4894 8.4939C89.5375 8.44571 89.5535 8.46178 89.5054 8.52602C89.4734 8.57421 89.6016 8.783 89.8259 8.97574C90.0342 9.18454 90.1624 9.39334 90.1143 9.44152C90.0503 9.48971 90.0823 9.53789 90.1784 9.53789C90.3868 9.53789 90.8995 10.0197 91.1239 10.4213C91.236 10.5979 91.4283 10.7264 91.5725 10.7264C91.7168 10.7104 91.7969 10.7425 91.7488 10.8067C91.7168 10.871 91.861 11.0477 92.0693 11.2083C92.2936 11.3689 92.4218 11.5616 92.3898 11.6419C92.3417 11.7062 92.4539 11.8026 92.6301 11.8668C92.8064 11.931 93.0628 12.1559 93.175 12.3968C93.3031 12.6378 93.7037 13.0072 94.0563 13.232C94.4248 13.4569 94.6812 13.7139 94.6492 13.8263C94.6011 13.9227 94.7613 14.1315 95.0017 14.2921C95.4984 14.6133 95.835 14.9345 95.883 15.1112C95.899 15.1755 96.0112 15.2236 96.1234 15.2236C96.2356 15.2076 96.2997 15.2236 96.2516 15.2718C96.2035 15.32 96.3477 15.4967 96.556 15.6734C96.7804 15.85 96.9246 16.0428 96.8765 16.1231C96.8284 16.1873 97.0047 16.3801 97.2451 16.5246C97.7899 16.878 98.2386 17.3438 98.1424 17.4562C98.0943 17.4883 98.2866 17.6007 98.543 17.6971L99.0398 17.8738V29.0365C99.0398 35.172 98.9757 40.2313 98.9116 40.2795C98.8315 40.3277 98.5911 40.1671 98.3668 39.9262Z" fill="#631032"/>
</svg>
