<svg width="395" height="119" viewBox="0 0 395 119" fill="none" xmlns="http://www.w3.org/2000/svg">
<path d="M154.408 23.685C156.051 23.685 156.609 24.491 156.609 25.514C156.609 27.901 153.571 27.56 153.168 32.458C153.044 33.822 153.013 38.379 153.013 43.959C153.013 50.934 153.106 57.041 153.416 58.87C153.912 62.435 156.826 62.342 156.826 64.45C156.826 65.38 156.051 66.155 154.408 66.155C152.548 66.155 150.192 66 148.208 66C146.1 66 143.744 66.155 141.884 66.155C140.21 66.155 139.466 65.38 139.466 64.45C139.466 62.342 142.411 62.404 142.938 58.87C143.062 57.816 143.31 52.732 143.31 48.95C143.31 47.028 142.876 46.284 141.357 46.284H129.98C128.647 46.284 127.934 46.718 127.934 48.95C127.934 52.825 128.213 57.661 128.399 58.87C128.926 62.435 131.84 62.342 131.84 64.45C131.84 65.38 131.034 66.155 129.391 66.155C127.562 66.155 125.206 66 123.191 66C121.114 66 118.727 66.155 116.898 66.155C115.193 66.155 114.449 65.38 114.449 64.45C114.449 62.342 117.425 62.404 117.921 58.87C118.169 57.165 118.262 49.88 118.262 43.959C118.262 39.774 118.262 33.853 118.169 32.458C117.766 27.591 114.697 27.87 114.697 25.514C114.697 24.491 115.193 23.685 116.929 23.685C118.82 23.685 121.176 23.84 123.191 23.84C125.268 23.84 127.624 23.685 129.391 23.685C131.034 23.685 131.592 24.491 131.592 25.514C131.592 27.498 129.453 27.622 128.554 30.288C128.213 31.063 127.934 34.907 127.934 37.449C127.934 39.96 128.43 40.611 130.042 40.611H141.202C142.69 40.611 143.31 40.084 143.31 37.449C143.31 34.69 142.969 30.877 142.721 30.288C141.977 27.932 139.683 27.374 139.683 25.514C139.683 24.491 140.21 23.685 141.915 23.685C143.806 23.685 146.162 23.84 148.208 23.84C150.285 23.84 152.61 23.685 154.408 23.685ZM176.618 23.685C178.261 23.685 178.819 24.491 178.819 25.514C178.819 27.901 175.843 27.56 175.409 32.458C175.254 33.822 175.223 38.379 175.223 43.959C175.223 50.934 175.378 57.041 175.626 58.87C176.184 62.435 179.067 62.342 179.067 64.45C179.067 65.38 178.261 66.155 176.618 66.155C174.789 66.155 172.433 66 170.418 66C168.341 66 165.954 66.155 164.125 66.155C162.42 66.155 161.676 65.38 161.676 64.45C161.676 62.342 164.652 62.404 165.148 58.87C165.396 57.165 165.489 49.88 165.489 43.959C165.489 39.774 165.489 33.853 165.396 32.458C164.993 27.591 161.924 27.87 161.924 25.514C161.924 24.491 162.42 23.685 164.156 23.685C166.047 23.685 168.403 23.84 170.418 23.84C172.495 23.84 174.851 23.685 176.618 23.685ZM197.504 33.636V55.181C197.504 59.583 198.496 60.699 202.96 60.699C211.33 60.699 214.089 52.949 214.089 45.85C214.089 36.457 210.09 28.924 201.1 28.924C197.938 28.924 197.504 30.35 197.504 33.636ZM192.699 23.84C196.109 23.84 198.434 23.654 201.782 23.654C213.562 23.654 225.063 29.575 225.063 44.672C225.063 57.971 217.437 66.186 204.851 66.186C201.193 66.186 196.636 65.969 192.699 65.969C190.622 65.969 188.235 66.124 186.406 66.124C184.701 66.124 183.957 65.38 183.957 64.45C183.957 62.342 186.933 62.404 187.429 58.87C187.677 57.165 187.77 49.88 187.77 43.959C187.77 39.774 187.77 33.853 187.677 32.458C187.274 27.591 184.205 27.87 184.205 25.514C184.205 24.491 184.701 23.685 186.437 23.685C188.328 23.685 190.684 23.84 192.699 23.84ZM240.454 48.826H248.638C249.258 48.826 249.382 48.609 249.382 48.268C249.382 47.338 246.747 39.619 245.259 36.736C245.104 36.395 244.825 36.023 244.639 36.023C244.391 36.023 244.205 36.395 244.019 36.736C242.655 39.464 239.741 47.493 239.741 48.268C239.741 48.609 239.896 48.826 240.454 48.826ZM230.317 57.723L239.741 33.171C240.547 30.97 241.074 28.769 241.353 27.126C241.787 24.987 246.53 22.879 248.545 22.879C250.188 22.879 250.746 24.026 251.335 25.607L263.828 57.785C264.2 58.746 264.944 60.358 266.556 61.753C267.176 62.311 268.168 63.086 268.168 64.078C268.168 65.752 266.959 66.155 264.51 66.155C262.836 66.155 261.317 66 258.403 66C255.489 66 253.877 66.155 252.048 66.155C250.219 66.155 249.351 65.442 249.351 64.233C249.351 62.466 253.009 61.815 253.009 58.994C253.009 58.498 252.234 56.173 251.614 55.057C251.397 54.654 250.901 54.344 250.281 54.344H239.524C238.718 54.344 238.129 54.654 237.757 55.057C237.137 55.987 236.114 58.436 236.114 59.49C236.114 62.218 239.338 62.621 239.338 64.388C239.338 65.38 238.749 66.155 236.734 66.155C235.401 66.155 233.138 66 231.712 66C230.255 66 229.325 66.155 227.961 66.155C226.628 66.155 225.915 65.535 225.915 64.419C225.915 62.466 228.426 62.621 230.317 57.723ZM274.231 43.959C274.231 39.774 274.231 33.853 274.138 32.458C273.735 27.591 270.666 27.87 270.666 25.514C270.666 24.491 271.162 23.685 272.898 23.685C274.789 23.685 277.145 23.84 279.16 23.84C281.237 23.84 284.647 23.685 286.445 23.685C288.088 23.685 288.646 24.491 288.646 25.514C288.646 28.149 284.585 27.653 284.151 32.582C283.996 33.915 283.965 38.379 283.965 43.959V56.545C283.965 59.955 285.205 60.575 289.483 60.575C296.272 60.575 298.07 57.971 299.589 53.693C300.333 51.802 300.984 50.934 301.976 50.934C303.061 50.934 303.526 51.957 303.526 53.6C303.526 55.336 303.03 59.273 302.751 63.675C302.627 65.597 301.914 66.155 299.775 66.155C297.202 66.155 292.49 66 287.096 66C278.819 66 274.851 66.155 272.867 66.155C271.286 66.155 270.418 65.566 270.418 64.45C270.418 62.311 273.301 62.435 273.859 58.963C274.138 57.351 274.231 52.019 274.231 43.959ZM326.115 67.054C313.963 67.054 306.182 56.7 306.182 45.075C306.182 33.729 312.909 22.786 326.456 22.786C331.23 22.786 333.462 24.274 335.415 24.274C336.81 24.274 337.709 23.623 338.949 23.623C341.336 23.623 341.398 26.01 342.142 29.699C342.948 33.884 343.382 34.907 343.382 35.775C343.382 37.108 342.607 37.728 341.708 37.728C340.065 37.728 339.228 35.837 337.864 33.884C335.012 29.885 331.261 27.591 327.541 27.591C320.69 27.591 316.753 34.535 316.753 42.161C316.753 52.856 322.984 59.924 329.153 59.924C331.54 59.924 333.648 58.777 334.454 57.537C335.136 56.421 335.26 55.243 335.26 53.011C335.26 47.865 334.113 47.493 332.718 46.501C331.509 45.633 329.99 45.54 329.99 43.959C329.99 42.719 330.889 41.975 332.718 41.975C334.485 41.975 336.717 42.161 338.298 42.161C340.437 42.161 342.39 41.975 344.746 41.975C346.141 41.975 346.73 42.781 346.73 43.835C346.73 46.222 344.839 45.912 344.839 52.329C344.839 55.832 345.149 61.567 345.149 63.644C345.149 65.225 344.684 66.186 343.165 66.186C342.39 66.186 341.646 65.721 340.902 64.884C340.251 64.295 339.631 63.675 339.011 63.675C338.081 63.675 336.934 64.295 335.415 64.946C333.183 65.876 330.052 67.054 326.115 67.054ZM370.06 28.273C366.216 28.273 362.248 32.055 362.248 41.324C362.248 45.54 362.961 50.438 364.821 54.561C366.96 58.994 370.37 60.947 373.439 60.947C377.872 60.947 381.778 57.661 381.778 49.539C381.778 44.951 380.631 39.433 378.74 35.496C376.694 31.001 373.377 28.273 370.06 28.273ZM350.654 45.261C350.654 31.993 359.086 22.817 371.424 22.817C382.832 22.817 392.597 31.094 392.597 45.943C392.597 59.986 383.39 67.054 371.858 67.054C358.59 67.054 350.654 57.94 350.654 45.261Z" fill="#620E31"/>
<path d="M113.4 90V76H119.8C121.08 76 122.18 76.2067 123.1 76.62C124.033 77.0333 124.753 77.6333 125.26 78.42C125.767 79.1933 126.02 80.1133 126.02 81.18C126.02 82.2333 125.767 83.1467 125.26 83.92C124.753 84.6933 124.033 85.2933 123.1 85.72C122.18 86.1333 121.08 86.34 119.8 86.34H115.6L117.36 84.62V90H113.4ZM117.36 85.04L115.6 83.22H119.56C120.387 83.22 121 83.04 121.4 82.68C121.813 82.32 122.02 81.82 122.02 81.18C122.02 80.5267 121.813 80.02 121.4 79.66C121 79.3 120.387 79.12 119.56 79.12H115.6L117.36 77.3V85.04ZM130.951 90V76H137.351C138.631 76 139.731 76.2067 140.651 76.62C141.584 77.0333 142.304 77.6333 142.811 78.42C143.317 79.1933 143.571 80.1133 143.571 81.18C143.571 82.2333 143.317 83.1467 142.811 83.92C142.304 84.68 141.584 85.2667 140.651 85.68C139.731 86.08 138.631 86.28 137.351 86.28H133.151L134.911 84.62V90H130.951ZM139.611 90L136.131 84.9H140.351L143.851 90H139.611ZM134.911 85.04L133.151 83.22H137.111C137.937 83.22 138.551 83.04 138.951 82.68C139.364 82.32 139.571 81.82 139.571 81.18C139.571 80.5267 139.364 80.02 138.951 79.66C138.551 79.3 137.937 79.12 137.111 79.12H133.151L134.911 77.3V85.04ZM148.755 90V76H152.715V90H148.755ZM158.533 90V76H161.793L167.593 85.52H165.873L171.513 76H174.773L174.813 90H171.173L171.133 81.54H171.753L167.533 88.62H165.773L161.433 81.54H162.193V90H158.533ZM184.255 81.42H190.755V84.38H184.255V81.42ZM184.535 86.94H191.855V90H180.615V76H191.595V79.06H184.535V86.94ZM197.052 90V76H203.452C204.732 76 205.832 76.2067 206.752 76.62C207.686 77.0333 208.406 77.6333 208.912 78.42C209.419 79.1933 209.672 80.1133 209.672 81.18C209.672 82.2333 209.419 83.1467 208.912 83.92C208.406 84.68 207.686 85.2667 206.752 85.68C205.832 86.08 204.732 86.28 203.452 86.28H199.252L201.012 84.62V90H197.052ZM205.712 90L202.232 84.9H206.452L209.952 90H205.712ZM201.012 85.04L199.252 83.22H203.212C204.039 83.22 204.652 83.04 205.052 82.68C205.466 82.32 205.672 81.82 205.672 81.18C205.672 80.5267 205.466 80.02 205.052 79.66C204.652 79.3 204.039 79.12 203.212 79.12H199.252L201.012 77.3V85.04ZM221.917 90.28C220.797 90.28 219.764 90.1 218.817 89.74C217.87 89.38 217.044 88.8733 216.337 88.22C215.644 87.5533 215.104 86.78 214.717 85.9C214.33 85.02 214.137 84.0533 214.137 83C214.137 81.9467 214.33 80.98 214.717 80.1C215.104 79.22 215.644 78.4533 216.337 77.8C217.044 77.1333 217.87 76.62 218.817 76.26C219.764 75.9 220.797 75.72 221.917 75.72C223.05 75.72 224.084 75.9 225.017 76.26C225.964 76.62 226.784 77.1333 227.477 77.8C228.17 78.4533 228.71 79.22 229.097 80.1C229.497 80.98 229.697 81.9467 229.697 83C229.697 84.0533 229.497 85.0267 229.097 85.92C228.71 86.8 228.17 87.5667 227.477 88.22C226.784 88.8733 225.964 89.38 225.017 89.74C224.084 90.1 223.05 90.28 221.917 90.28ZM221.917 87C222.45 87 222.944 86.9067 223.397 86.72C223.864 86.5333 224.264 86.2667 224.597 85.92C224.944 85.56 225.21 85.1333 225.397 84.64C225.597 84.1467 225.697 83.6 225.697 83C225.697 82.3867 225.597 81.84 225.397 81.36C225.21 80.8667 224.944 80.4467 224.597 80.1C224.264 79.74 223.864 79.4667 223.397 79.28C222.944 79.0933 222.45 79 221.917 79C221.384 79 220.884 79.0933 220.417 79.28C219.964 79.4667 219.564 79.74 219.217 80.1C218.884 80.4467 218.617 80.8667 218.417 81.36C218.23 81.84 218.137 82.3867 218.137 83C218.137 83.6 218.23 84.1467 218.417 84.64C218.617 85.1333 218.884 85.56 219.217 85.92C219.564 86.2667 219.964 86.5333 220.417 86.72C220.884 86.9067 221.384 87 221.917 87ZM247.231 81.42H253.731V84.38H247.231V81.42ZM247.511 86.94H254.831V90H243.591V76H254.571V79.06H247.511V86.94ZM260.029 90V76H263.989V86.86H270.669V90H260.029ZM284.056 90V76H290.456C291.736 76 292.836 76.2067 293.756 76.62C294.69 77.0333 295.41 77.6333 295.916 78.42C296.423 79.1933 296.676 80.1133 296.676 81.18C296.676 82.2333 296.423 83.1467 295.916 83.92C295.41 84.6933 294.69 85.2933 293.756 85.72C292.836 86.1333 291.736 86.34 290.456 86.34H286.256L288.016 84.62V90H284.056ZM288.016 85.04L286.256 83.22H290.216C291.043 83.22 291.656 83.04 292.056 82.68C292.47 82.32 292.676 81.82 292.676 81.18C292.676 80.5267 292.47 80.02 292.056 79.66C291.656 79.3 291.043 79.12 290.216 79.12H286.256L288.016 77.3V85.04ZM307.93 90.28C305.864 90.28 304.25 89.7133 303.09 88.58C301.93 87.4467 301.35 85.84 301.35 83.76V76H305.31V83.64C305.31 84.84 305.544 85.7 306.01 86.22C306.49 86.74 307.144 87 307.97 87C308.797 87 309.444 86.74 309.91 86.22C310.377 85.7 310.61 84.84 310.61 83.64V76H314.51V83.76C314.51 85.84 313.93 87.4467 312.77 88.58C311.61 89.7133 309.997 90.28 307.93 90.28ZM323.833 81.42H330.333V84.38H323.833V81.42ZM324.113 86.94H331.433V90H320.193V76H331.173V79.06H324.113V86.94ZM336.63 90V76H343.79C345.63 76 347.004 76.34 347.91 77.02C348.817 77.6867 349.27 78.5667 349.27 79.66C349.27 80.38 349.077 81.0133 348.69 81.56C348.317 82.0933 347.784 82.52 347.09 82.84C346.41 83.1467 345.597 83.3 344.65 83.3L345.05 82.34C346.037 82.34 346.897 82.4933 347.63 82.8C348.364 83.0933 348.93 83.5267 349.33 84.1C349.744 84.66 349.95 85.3467 349.95 86.16C349.95 87.3733 349.457 88.32 348.47 89C347.497 89.6667 346.07 90 344.19 90H336.63ZM340.55 87.14H343.87C344.55 87.14 345.064 87.0267 345.41 86.8C345.77 86.56 345.95 86.2 345.95 85.72C345.95 85.24 345.77 84.8867 345.41 84.66C345.064 84.42 344.55 84.3 343.87 84.3H340.27V81.56H343.27C343.937 81.56 344.437 81.4467 344.77 81.22C345.104 80.9933 345.27 80.6533 345.27 80.2C345.27 79.7467 345.104 79.4133 344.77 79.2C344.437 78.9733 343.937 78.86 343.27 78.86H340.55V87.14ZM355.002 90V76H358.962V86.86H365.642V90H355.002ZM377.054 90.28C375.934 90.28 374.9 90.1 373.954 89.74C373.007 89.38 372.18 88.8733 371.474 88.22C370.78 87.5533 370.24 86.78 369.854 85.9C369.467 85.02 369.274 84.0533 369.274 83C369.274 81.9467 369.467 80.98 369.854 80.1C370.24 79.22 370.78 78.4533 371.474 77.8C372.18 77.1333 373.007 76.62 373.954 76.26C374.9 75.9 375.934 75.72 377.054 75.72C378.187 75.72 379.22 75.9 380.154 76.26C381.1 76.62 381.92 77.1333 382.614 77.8C383.307 78.4533 383.847 79.22 384.234 80.1C384.634 80.98 384.834 81.9467 384.834 83C384.834 84.0533 384.634 85.0267 384.234 85.92C383.847 86.8 383.307 87.5667 382.614 88.22C381.92 88.8733 381.1 89.38 380.154 89.74C379.22 90.1 378.187 90.28 377.054 90.28ZM377.054 87C377.587 87 378.08 86.9067 378.534 86.72C379 86.5333 379.4 86.2667 379.734 85.92C380.08 85.56 380.347 85.1333 380.534 84.64C380.734 84.1467 380.834 83.6 380.834 83C380.834 82.3867 380.734 81.84 380.534 81.36C380.347 80.8667 380.08 80.4467 379.734 80.1C379.4 79.74 379 79.4667 378.534 79.28C378.08 79.0933 377.587 79 377.054 79C376.52 79 376.02 79.0933 375.554 79.28C375.1 79.4667 374.7 79.74 374.354 80.1C374.02 80.4467 373.754 80.8667 373.554 81.36C373.367 81.84 373.274 82.3867 373.274 83C373.274 83.6 373.367 84.1467 373.554 84.64C373.754 85.1333 374.02 85.56 374.354 85.92C374.7 86.2667 375.1 86.5333 375.554 86.72C376.02 86.9067 376.52 87 377.054 87Z" fill="#B28E5E"/>
<path d="M23.1228 101.685C22.9625 101.621 22.9145 99.3243 22.9145 90.9081V80.1951L23.5234 79.6169C23.8439 79.2957 24.1964 78.9423 24.3086 78.8299C24.4047 78.7174 24.629 78.4926 24.8053 78.3159C24.9816 78.1392 25.1899 77.9304 25.254 77.8501C25.3341 77.7698 25.6225 77.4968 25.8789 77.2398C26.1513 76.9828 26.4398 76.6937 26.5199 76.5973C26.616 76.501 27.1128 75.987 27.6416 75.457C28.1704 74.9269 28.6831 74.429 28.7633 74.3327C28.8594 74.2524 29.1478 73.9633 29.4042 73.7063C29.6766 73.4493 29.9651 73.1602 30.0612 73.0478C30.1734 72.9353 30.3977 72.7105 30.574 72.5338C30.7502 72.3571 30.9586 72.1483 31.0387 72.068C31.1028 71.9877 31.3912 71.7147 31.6476 71.4577C31.92 71.2007 32.2245 70.8955 32.3366 70.767C33.3301 69.707 34.7402 68.4221 34.8364 68.5024C34.8845 68.5505 34.9325 73.5296 34.9325 79.5526V90.5066L34.3717 91.0848C34.0512 91.4221 33.7307 91.679 33.6506 91.679C33.5705 91.679 33.4743 91.8236 33.4102 92.0003C33.3622 92.1769 33.1058 92.4339 32.8494 92.5785C32.609 92.7391 32.3206 93.0121 32.2245 93.2209C32.1443 93.4137 31.8559 93.7028 31.5835 93.8634C31.3111 94.024 31.0867 94.2489 31.0867 94.3613C31.0867 94.4737 30.8304 94.7307 30.5259 94.9235C30.2214 95.1322 29.9651 95.3732 29.9651 95.4856C29.9651 95.582 29.6766 95.8711 29.3241 96.1281C28.9716 96.369 28.6831 96.642 28.6831 96.7063C28.6831 96.8829 27.3531 98.1839 26.8404 98.5212C26.616 98.6658 26.4398 98.8746 26.4398 99.0031C26.4398 99.1155 26.1513 99.4046 25.7988 99.6616C25.4463 99.9025 25.1578 100.192 25.1578 100.304C25.1578 100.4 24.9175 100.641 24.613 100.818C24.3246 101.011 24.0361 101.3 23.9881 101.477C23.908 101.782 23.5554 101.862 23.1228 101.685Z" fill="#9B2149"/>
<path d="M76.9157 100.995C76.5151 100.545 76.0984 100.095 75.9702 99.983C74.8005 98.9069 71.3072 95.3252 71.3072 95.2128C71.3072 95.1164 71.2271 95.0522 71.147 95.0522C71.0509 95.0522 70.0093 94.0885 68.8235 92.8999C67.157 91.2456 66.6602 90.6513 66.6602 90.3301C66.6602 89.7037 67.1089 89.8001 67.814 90.5871C68.1505 90.9565 68.4229 91.3259 68.4229 91.3902C68.4229 91.4544 68.519 91.5187 68.6472 91.5187C68.7754 91.5187 69.0158 91.7435 69.176 92.0005C69.3202 92.2735 69.5766 92.5145 69.7209 92.5627C69.849 92.6108 70.0574 92.8196 70.1695 93.0124C70.2817 93.2212 70.5701 93.5103 70.8105 93.6548C71.0509 93.7994 71.3393 94.0885 71.4675 94.3133C71.5796 94.5382 71.7399 94.7309 71.804 94.7309C71.9001 94.7309 73.4064 96.1925 74.0634 96.9153C74.2076 97.092 74.8005 97.6863 75.3774 98.2484C75.9542 98.8106 76.4349 99.3245 76.4349 99.3888C76.4349 99.453 76.5792 99.5494 76.7554 99.5976C76.9317 99.6458 77.0759 99.7742 77.0759 99.9027C77.0759 100.015 77.2201 100.208 77.3964 100.32L77.7169 100.513L77.6848 90.3783C77.6528 82.4279 77.5887 80.2114 77.4445 80.1471C77.2362 80.0829 77.14 78.9907 77.3323 78.9907C77.3804 78.9907 77.7009 79.2638 78.0534 79.585L78.6783 80.1793V90.7156C78.6623 101.846 78.6783 101.798 77.9412 101.798C77.781 101.798 77.3163 101.429 76.9157 100.995Z" fill="#9B2149"/>
<path d="M36.6471 88.2581C36.5349 87.9208 36.5029 71.4096 36.6311 68.8077C36.7112 66.816 36.7913 66.2539 36.9996 66.0772C37.256 65.8363 37.7848 65.3063 38.1053 64.985C38.2976 64.7762 39.1789 63.8929 39.3872 63.7001C39.6276 63.4753 40.2205 62.8649 40.3487 62.7204C40.4128 62.6561 40.6852 62.3991 40.9416 62.1422C41.214 61.8852 41.5184 61.58 41.6306 61.4515C41.871 61.2106 43.6817 59.3796 43.874 59.2029C44.0983 58.9781 45.909 57.1631 46.0693 56.9864C46.1654 56.9061 46.4539 56.617 46.7102 56.36C46.9826 56.1031 47.2711 55.814 47.3512 55.7176C47.6877 55.3482 48.4248 54.7218 48.4889 54.77C48.521 54.8021 48.569 59.7008 48.6171 65.6596C48.6972 77.513 48.7293 77.0793 47.7518 77.6575C47.4954 77.8021 47.2711 78.0269 47.2711 78.1394C47.2711 78.2518 47.0147 78.5088 46.7102 78.7015C46.4058 78.9103 46.1494 79.1673 46.1494 79.2797C46.1494 79.3922 45.893 79.6331 45.5886 79.8098C45.2841 79.9864 44.9957 80.2755 44.9476 80.4522C44.8995 80.6128 44.6431 80.8698 44.4028 81.0144C44.1624 81.1589 43.906 81.432 43.8099 81.6086C43.7298 81.8014 43.4573 82.0584 43.201 82.1869C42.9446 82.2993 42.7042 82.5402 42.6722 82.7008C42.6241 82.8614 42.3357 83.1505 42.0472 83.3433C41.7428 83.52 41.5024 83.7769 41.5024 83.9054C41.5024 84.0179 41.246 84.2909 40.9416 84.4836C40.6371 84.6924 40.3807 84.9494 40.3807 85.0619C40.3807 85.1743 40.1243 85.4152 39.8199 85.5919C39.5154 85.7686 39.227 86.0577 39.1789 86.2183C39.1308 86.395 38.8424 86.668 38.554 86.8607C38.2495 87.0374 37.9771 87.3105 37.9451 87.4711C37.8329 87.8565 36.7432 88.5151 36.6471 88.2581Z" fill="#9B2149"/>
<path d="M58.4239 82.476C53.168 77.2078 52.6071 76.5975 52.6712 76.212C52.7674 75.7141 53.3122 75.6017 53.4724 76.0514C53.5365 76.196 53.6968 76.4369 53.825 76.5814C53.9692 76.726 54.1935 76.999 54.3217 77.1918C54.4499 77.3845 54.6101 77.5451 54.6582 77.5451C54.7704 77.5451 56.4529 79.2155 58.3598 81.2071C58.5681 81.4159 58.8725 81.705 59.0328 81.8496C60.0263 82.733 60.5711 83.4397 60.5711 83.8733C60.5711 84.2267 60.6352 84.2909 61.0198 84.2909C61.3563 84.2909 61.7088 84.5158 62.3818 85.1904C62.8786 85.6722 63.2952 86.138 63.3272 86.2022C63.4234 86.411 64.3848 87.0214 64.6412 87.0214C64.7854 87.0214 64.8976 87.1499 64.8976 87.3105C64.8976 87.8405 64.7053 88.3063 64.481 88.3063C64.3688 88.3063 61.6447 85.6883 58.4239 82.476Z" fill="#9B2149"/>
<path d="M99.9904 78.8942C99.8622 78.8621 95.2633 78.8139 89.767 78.7979C80.4089 78.7497 79.7679 78.7336 79.6237 78.4606C79.5276 78.316 79.3673 78.1072 79.2712 78.0269C79.159 77.9306 78.9347 77.7378 78.7424 77.5772C78.5661 77.4326 78.3258 77.1435 78.2136 76.9508C78.1175 76.742 77.9412 76.5814 77.829 76.5814C77.6047 76.5814 77.0759 76.0192 77.0759 75.7783C77.0759 75.698 76.8836 75.5374 76.6433 75.425C76.4029 75.3125 76.0984 75.0074 75.9863 74.7664C75.8741 74.5255 75.6978 74.3328 75.6017 74.3328C75.5216 74.3328 75.0088 73.8831 74.496 73.337C73.9672 72.7748 73.4705 72.2609 73.3743 72.1645C73.2942 72.0842 72.7814 71.5863 72.2526 71.0723C71.7399 70.5583 71.3072 70.0604 71.3072 69.9962C71.3072 69.9159 71.1149 69.7553 70.8746 69.6428C70.6342 69.5304 70.3298 69.2252 70.2176 68.9843C70.1054 68.7434 69.9452 68.5507 69.8811 68.5507C69.6888 68.5507 68.9677 67.86 68.7754 67.5067C68.6633 67.2657 68.6633 67.1051 68.8235 66.8963C68.9998 66.6394 69.7369 66.6233 79.4314 66.6233C88.5011 66.6233 89.8792 66.6554 90.0554 66.8642C90.1676 66.9927 90.424 67.1051 90.6323 67.1051C90.8887 67.1051 91.081 67.2657 91.2572 67.587C91.4014 67.86 91.6098 68.0688 91.7379 68.0688C91.8822 68.0688 92.1866 68.3579 92.427 68.7113C92.6673 69.0486 92.9077 69.3377 92.9718 69.3537C93.1 69.3537 94.7024 70.9278 94.7024 71.0563C94.7024 71.2008 95.087 71.5381 95.3914 71.6505C95.5357 71.6987 95.744 71.9236 95.8401 72.1324C95.9363 72.3412 96.2087 72.6303 96.449 72.7748C96.6894 72.9194 96.9778 73.2085 97.106 73.4333C97.2182 73.6582 97.3784 73.8509 97.4425 73.8509C97.5387 73.8509 98.9488 75.2162 99.5257 75.8747C99.6859 76.0514 99.9743 76.3405 100.167 76.5171C100.888 77.1596 101.224 77.6254 101.304 78.0912C101.384 78.4766 101.32 78.573 100.856 78.7657C100.567 78.8942 100.295 78.9745 100.279 78.9745C100.247 78.9585 100.119 78.9264 99.9904 78.8942Z" fill="#9B2149"/>
<path d="M0 78.043C0 77.9466 9.83879 68.0046 11.0727 66.8642C11.281 66.6554 12.8513 66.6233 21.9049 66.6233C31.3592 66.6233 32.5129 66.6554 32.593 66.8803C32.6411 67.0088 32.7533 67.0891 32.8334 67.0248C32.9135 66.9766 33.0417 67.0248 33.0898 67.1212C33.1539 67.2176 32.8975 67.587 32.5129 67.9564L31.8078 68.5988L31.7598 68.1009L31.7117 67.587H21.5684H11.4252L9.27795 69.7553C8.09217 70.9438 7.03458 71.9236 6.93843 71.9236C6.82626 71.9236 6.73012 72.0039 6.73012 72.1163C6.73012 72.3412 4.95145 74.1722 4.72711 74.1722C4.63096 74.1722 4.48675 74.3328 4.40663 74.5416C4.31048 74.7343 4.08614 74.9592 3.89386 75.0556C3.68554 75.1359 3.5253 75.2804 3.5253 75.3768C3.5253 75.4571 2.91639 76.1317 2.17928 76.8705C1.18578 77.8502 0.737108 78.1875 0.416626 78.1875C0.192289 78.1875 0 78.1233 0 78.043Z" fill="#9B2149"/>
<path d="M74.3839 77.0633C74.1595 76.8384 74.0313 76.5332 74.0313 76.1799V75.6338L74.5441 76.1156C74.8325 76.3726 75.2331 76.7581 75.4414 76.983L75.81 77.3845H75.2652C74.9447 77.3845 74.5922 77.256 74.3839 77.0633Z" fill="#9B2149"/>
<path d="M71.6277 74.124C71.6277 74.0277 71.4194 73.8349 71.147 73.7225C70.7464 73.5458 70.6663 73.4173 70.6663 72.9516C70.6663 72.4697 70.6983 72.4215 70.9547 72.55C71.0989 72.6303 71.5796 73.08 72.0123 73.5137L72.7975 74.3328H72.2206C71.852 74.3328 71.6277 74.2525 71.6277 74.124Z" fill="#9B2149"/>
<path d="M68.6152 71.2811C68.4229 71.0883 68.2626 70.7992 68.2626 70.6386C68.2626 70.4298 68.1505 70.3174 67.9742 70.3174C67.814 70.3174 67.4614 70.1086 67.173 69.8355C66.7243 69.434 66.6602 69.2894 66.7724 68.8879L66.9006 68.4221L68.487 70.0122L70.0894 71.6023H69.5285C69.176 71.6023 68.8235 71.4738 68.6152 71.2811Z" fill="#9B2149"/>
<path d="M72.7494 64.8564L66.0834 64.7761L65.5386 64.2461C63.167 61.9975 62.0133 60.825 62.0133 60.7126C62.0133 60.6323 61.837 60.4877 61.6127 60.3913C61.4043 60.295 61.1159 59.9898 60.9717 59.7168C60.8435 59.4598 60.6192 59.2349 60.507 59.2349C60.3948 59.2349 60.1545 59.0422 59.9942 58.8173C59.834 58.5764 59.5936 58.3034 59.4814 58.207C59.1129 57.9018 58.7443 57.5324 58.4719 57.2112C58.3277 57.0506 58.0553 56.7936 57.8951 56.6651C57.7188 56.5366 57.4945 56.2636 57.3823 56.0708C57.2861 55.862 57.0939 55.7014 56.9657 55.7014C56.8535 55.7014 56.5971 55.4444 56.4048 55.1393C56.2125 54.8341 55.9882 54.5771 55.9081 54.5771C55.6837 54.5771 55.1229 54.0471 55.1229 53.8222C55.1229 53.6937 54.9466 53.517 54.7223 53.4207C53.6487 52.9388 54.4339 52.8907 65.4905 52.8425C76.483 52.8103 76.5471 52.8103 76.9798 53.1476C77.2041 53.3243 77.3964 53.5652 77.3964 53.6777C77.3964 53.7901 77.5727 53.9828 77.797 54.0953C78.0213 54.2238 78.3578 54.561 78.5341 54.8501C78.7104 55.1393 78.9667 55.3802 79.0949 55.3802C79.2231 55.3802 79.4795 55.6372 79.6558 55.9423C79.8481 56.2475 80.0724 56.5045 80.1686 56.5045C80.3608 56.5045 82.2036 58.4158 82.2036 58.6246C82.2036 58.6888 82.2837 58.7531 82.3959 58.7531C82.5882 58.7531 83.4855 59.7007 83.4855 59.9095C83.4855 59.9738 83.5496 60.038 83.6458 60.038C83.8381 60.038 85.7289 61.9493 85.7289 62.1581C85.7289 62.2224 85.809 62.2866 85.9052 62.2866C86.0975 62.2866 87.9723 64.1979 87.9723 64.4067C87.9723 64.471 88.0845 64.5352 88.2127 64.5352C88.5492 64.5352 88.5171 64.8564 88.1806 64.8725C87.2672 64.9367 78.438 64.9207 72.7494 64.8564Z" fill="#9B2149"/>
<path d="M13.3961 64.5033C13.5564 64.3105 16.2484 61.5962 19.3411 58.4802C23.7798 54.0312 25.0777 52.8105 25.3982 52.8105C25.6866 52.8105 25.7988 52.8909 25.7988 53.1318C25.7988 53.3085 25.7027 53.453 25.5905 53.453C25.4783 53.453 25.3021 53.5976 25.1899 53.7742C25.0777 53.9509 24.8854 54.0955 24.7572 54.0955C24.629 54.0955 24.5169 54.1918 24.5169 54.3043C24.5169 54.5612 23.6836 55.3804 23.4272 55.3804C23.3151 55.3804 23.2349 55.4607 23.2349 55.541C23.2349 55.798 22.2575 56.8259 22.0011 56.8259C21.8889 56.8259 21.7928 56.9223 21.7928 57.0347C21.7928 57.2596 20.1263 58.9139 19.918 58.9139C19.8378 58.9139 19.7096 59.0745 19.6295 59.2833C19.5334 59.476 19.309 59.7009 19.1168 59.7973C18.9084 59.8776 18.7482 60.0382 18.7482 60.1346C18.7482 60.3594 17.8989 61.1625 17.6586 61.1625C17.5464 61.1625 17.4663 61.2267 17.4663 61.3231C17.4663 61.564 16.7933 62.2868 16.5529 62.2868C16.4407 62.2868 16.3446 62.3671 16.3446 62.4635C16.3446 62.5598 15.8639 63.1381 15.271 63.7484C14.3416 64.696 14.1012 64.8566 13.6365 64.8566H13.0917L13.3961 64.5033Z" fill="#9B2149"/>
<path d="M62.1735 64.6318C62.1735 64.5033 61.9972 64.3587 61.7729 64.3105C61.3563 64.1981 61.148 63.7163 61.2441 63.1059C61.2922 62.8007 61.4364 62.8971 62.3337 63.8126L63.3593 64.8566H62.7664C62.3658 64.8566 62.1735 64.7763 62.1735 64.6318Z" fill="#9B2149"/>
<path d="M57.0137 59.7008C56.8535 59.6205 56.7253 59.3956 56.7253 59.235C56.7253 59.0583 56.6452 58.9138 56.549 58.9138C56.4529 58.9138 56.2766 58.8174 56.1645 58.7211C56.0363 58.6086 55.828 58.4159 55.6837 58.3035C55.5555 58.191 55.4434 57.8377 55.4434 57.5164V56.9382L56.4529 57.8859C56.9977 58.3998 57.6547 59.0744 57.8951 59.3635L58.3598 59.8775H57.8149C57.5265 59.8775 57.158 59.7972 57.0137 59.7008Z" fill="#9B2149"/>
<path d="M52.7193 55.9103C52.7193 55.2518 52.8955 54.7378 53.1038 54.7378C53.216 54.7378 53.5365 54.9948 53.841 55.2999L54.3858 55.8621H53.9531C53.6807 55.8621 53.5205 55.9424 53.5205 56.103C53.5205 56.2476 53.3763 56.3439 53.1199 56.3439C52.7834 56.3439 52.7193 56.2636 52.7193 55.9103Z" fill="#9B2149"/>
<path d="M24.5008 48.49C24.2765 48.2651 24.0361 47.9439 23.9881 47.7833C23.924 47.6387 23.6996 47.4299 23.4913 47.3496C23.267 47.2693 22.9786 46.9802 22.8343 46.7072C22.7061 46.4502 22.4818 46.2253 22.3376 46.2253C22.2094 46.2253 21.953 45.9683 21.7767 45.6632C21.6005 45.358 21.3121 45.0689 21.1358 45.0207C20.9755 44.9725 20.7192 44.7316 20.5749 44.4907C20.4467 44.2498 20.1102 43.9285 19.8539 43.784C19.5975 43.6234 19.3892 43.3985 19.3892 43.27C19.3892 43.1255 19.1808 42.9167 18.9084 42.7721C18.6521 42.6436 18.3155 42.3063 18.1874 42.0493C18.0431 41.7763 17.8348 41.5675 17.6906 41.5675C17.5624 41.5675 17.306 41.3105 17.1298 41.0053C16.9535 40.7002 16.6651 40.4111 16.4888 40.3629C16.3286 40.2986 16.0722 40.0577 15.96 39.8168C15.8318 39.5759 15.5434 39.3028 15.319 39.1904C15.0787 39.094 14.8223 38.821 14.7101 38.5961C14.614 38.3873 14.4057 38.1625 14.2454 38.1143C13.973 38.0179 13.3 37.2309 13.3 37.006C13.3 36.9579 18.2995 36.9097 24.4047 36.9097H35.4934L36.7753 38.1946C37.4804 38.9173 38.7783 40.1862 39.6436 41.0535C40.5249 41.9048 41.3101 42.7079 41.4063 42.8363C41.5024 42.9488 42.0152 43.4627 42.528 43.9606C43.0567 44.4586 43.5535 44.9565 43.6496 45.0689C44.0502 45.5668 45.6527 47.189 45.7328 47.189C45.8449 47.189 47.1749 48.6185 47.239 48.8112C47.2711 48.8915 42.5921 48.9558 36.1023 48.9397L24.9175 48.9236L24.5008 48.49Z" fill="#9B2149"/>
<path d="M75.794 48.6505C75.794 48.4739 75.8741 48.2811 75.9702 48.2329C76.0504 48.1687 76.1946 47.9438 76.2747 47.735C76.3708 47.5102 76.5631 47.3496 76.7394 47.3496C76.9317 47.3496 77.14 47.1408 77.3002 46.8035C77.4765 46.418 77.7008 46.2253 78.0213 46.145C78.3899 46.0646 78.5181 45.9201 78.5982 45.5667C78.6623 45.2616 78.8546 45.0206 79.0789 44.9403C79.2872 44.86 79.5436 44.587 79.6718 44.3461C79.816 44.057 80.0243 43.8803 80.2967 43.8482C80.6172 43.816 80.7614 43.6715 80.8576 43.286C80.9698 42.9166 81.146 42.7399 81.5146 42.6275C81.8992 42.5311 82.0434 42.3866 82.0754 42.0653C82.1075 41.7762 82.2357 41.6317 82.476 41.5996C82.6843 41.5674 82.9247 41.3265 83.0689 41.0053C83.2131 40.7001 83.5336 40.3628 83.758 40.2504C83.9983 40.138 84.2867 39.8649 84.3829 39.6561C84.4951 39.4473 84.7354 39.2064 84.9437 39.094C85.152 38.9976 85.4245 38.7085 85.5366 38.4676C85.6808 38.1785 85.8731 38.0339 86.1135 38.0339C86.3859 38.0339 86.5141 37.9054 86.6263 37.52C86.7705 37.022 86.8346 36.9899 87.6037 36.9417L88.437 36.8936L86.2096 39.1422C84.9758 40.395 83.9022 41.4068 83.806 41.4068C83.7259 41.4068 83.6458 41.4711 83.6458 41.5514C83.6458 41.7602 77.7489 47.6708 77.5566 47.6708C77.4605 47.6708 77.3964 47.7511 77.3964 47.8635C77.3964 47.976 77.2041 48.2651 76.9637 48.506C76.451 49.036 75.794 49.1163 75.794 48.6505Z" fill="#9B2149"/>
<path d="M52.9917 46.948C52.7193 46.7553 52.7033 46.1289 52.7193 36.3153C52.7193 30.5975 52.7513 25.7469 52.7834 25.5542C52.8955 24.976 53.3442 24.2532 53.6487 24.1568C53.8089 24.1086 54.0653 23.8356 54.2255 23.5625C54.3858 23.3056 54.6902 23.0004 54.8986 22.904C55.1069 22.8077 55.3152 22.5989 55.3793 22.4222C55.4273 22.2616 55.6677 22.0206 55.9081 21.9082C56.1484 21.7797 56.4208 21.4906 56.533 21.2658C56.6292 21.0248 56.9016 20.7679 57.1259 20.6554C57.3502 20.5591 57.5265 20.4145 57.5265 20.3503C57.5265 20.2699 58.2476 19.5151 59.1289 18.6477C59.9942 17.7804 60.7954 16.9934 60.9076 16.881C61.0037 16.7846 61.7088 16.0458 62.494 15.2588C64.0643 13.6526 64.4329 13.3796 64.7053 13.6526C64.9457 13.8935 64.9777 34.7574 64.7534 35.3356C64.5771 35.7692 63.2311 37.2308 62.9907 37.2308C62.9106 37.2308 62.7023 37.4396 62.5581 37.6966C62.3978 37.9536 62.1094 38.2427 61.9011 38.3391C61.7088 38.4355 61.5325 38.58 61.5325 38.6442C61.5325 38.853 60.7794 39.6401 60.5871 39.6401C60.491 39.6401 60.3307 39.8007 60.2346 39.9934C59.9942 40.4592 59.7699 40.668 59.4173 40.8125C59.2571 40.8607 59.1289 40.9732 59.1289 41.0535C59.1289 41.2462 54.9787 45.4222 54.7864 45.4222C54.7063 45.4222 54.562 45.5989 54.4659 45.8077C54.3698 46.0165 54.1134 46.2895 53.889 46.4019C53.6647 46.5304 53.4404 46.7392 53.3763 46.8998C53.2961 47.1247 53.232 47.1247 52.9917 46.948Z" fill="#9B2149"/>
<path d="M10.656 34.5486C10.4477 34.4362 10.2234 34.1953 10.1753 34.0186C10.1112 33.8419 9.85482 33.585 9.59843 33.4404C9.34205 33.3119 9.03759 33.0228 8.94144 32.814C8.8453 32.5892 8.70108 32.4125 8.63699 32.4125C8.4447 32.4125 6.56988 30.5493 6.56988 30.3566C6.56988 30.2602 6.36156 30.0675 6.08915 29.923C5.83277 29.7784 5.60843 29.5696 5.60843 29.425C5.60843 29.2966 5.35205 29.0396 5.04759 28.8629C4.74313 28.6862 4.4547 28.3971 4.40662 28.2204C4.34253 28.0598 4.08614 27.8028 3.82976 27.6583C3.57337 27.5298 3.28494 27.2407 3.20482 27.0158C3.1247 26.807 2.86831 26.55 2.64397 26.4697C2.41964 26.3894 2.17928 26.1806 2.1312 26.0361C2.00301 25.6827 1.82675 25.5061 1.24988 25.1366C0.993492 24.976 0.801203 24.7672 0.801203 24.6548C0.801203 24.5424 0.656986 24.3336 0.480721 24.173C0.0480706 23.8035 0.0801188 23.4502 0.576866 23.0005L0.977468 22.615H11.1047H21.2479L23.8118 25.1688C25.2379 26.5822 26.5199 27.9153 26.6641 28.1401C26.8083 28.365 26.9846 28.5577 27.0647 28.5577C27.241 28.5577 32.1123 33.4565 32.4488 33.9544C32.577 34.1632 32.8013 34.3398 32.9455 34.3398C33.0898 34.3398 33.1699 34.4362 33.1218 34.5486C33.0257 34.8378 11.2169 34.8378 10.656 34.5486Z" fill="#9B2149"/>
<path d="M90.8566 33.7777C90.8566 33.4725 90.9207 33.2155 91.0008 33.2155C91.081 33.2155 91.2252 33.0067 91.3213 32.7337C91.4014 32.4607 91.5937 32.2519 91.738 32.2519C92.0745 32.2519 92.459 31.8664 92.459 31.5452C92.459 31.4167 92.6994 31.1918 93.0039 31.0472C93.3404 30.8866 93.5807 30.6457 93.6128 30.4369C93.6448 30.2442 93.8692 29.9872 94.1095 29.8748C94.3499 29.7463 94.6223 29.4732 94.7024 29.2644C94.8306 28.9593 94.9748 28.879 95.4235 28.879C95.9523 28.879 95.9843 28.8468 95.9843 28.3168C95.9843 27.851 96.0645 27.7386 96.5292 27.5137C96.8657 27.3531 97.106 27.1122 97.1381 26.9034C97.1701 26.7107 97.3304 26.534 97.4906 26.5019C97.8912 26.4216 98.2277 26.0843 98.2277 25.763C98.2277 25.6345 98.4681 25.4097 98.7725 25.2651C99.109 25.1045 99.3975 24.8154 99.4936 24.5263C99.5737 24.2693 99.75 24.0605 99.8782 24.0605C100.006 24.0605 100.199 23.9481 100.311 23.8196C100.487 23.6108 99.4455 23.5787 91.0329 23.5787H81.5627V23.1932C81.5627 22.9362 81.6748 22.7756 81.9312 22.7114C82.5722 22.5507 100.663 22.5989 100.551 22.7756C100.503 22.872 100.567 22.9362 100.695 22.9362C100.936 22.9362 101.497 23.8838 101.352 24.0284C101.304 24.0766 101.272 24.0605 101.272 23.9802C101.272 23.8999 101.016 24.189 100.695 24.5905C100.375 25.0081 100.006 25.3454 99.8942 25.3454C99.766 25.3454 99.6699 25.4097 99.6699 25.506C99.6699 25.6988 96.3529 29.0396 96.1606 29.0396C96.0805 29.0396 95.9843 29.1841 95.9363 29.3769C95.8882 29.5535 95.6959 29.7463 95.5196 29.7945C95.3274 29.8426 95.1831 29.939 95.1831 30.0033C95.1831 30.1478 91.081 34.3398 90.9367 34.3398C90.8887 34.3398 90.8566 34.0829 90.8566 33.7777Z" fill="#9B2149"/>
<path d="M66.7404 33.0227C66.6923 32.8139 66.6763 27.7706 66.6923 21.7958L66.7404 10.9382L68.4229 9.29996C69.3523 8.41658 70.1535 7.62956 70.2176 7.56532C70.3618 7.38864 72.2046 5.54158 72.4129 5.34884C72.509 5.26853 73.3102 4.4494 74.1916 3.54996C75.0729 2.63445 75.8581 1.89563 75.9382 1.89563C76.0183 1.89563 76.1305 1.75107 76.1946 1.5744C76.2426 1.39772 76.499 1.14074 76.7714 0.980123C77.0278 0.819508 77.2842 0.578586 77.3323 0.417972C77.4605 0.000374155 78.0053 -0.112056 78.3739 0.225234C78.6623 0.498279 78.6783 0.83557 78.6783 11.0346V21.5709L77.2201 23.0646C76.4349 23.8677 75.7139 24.5423 75.6337 24.5423C75.5536 24.5423 75.4094 24.6868 75.3133 24.8635C75.2171 25.0402 74.7684 25.522 74.3198 25.9396C73.2301 26.9515 73.0378 27.1603 72.7494 27.5618C72.6212 27.7546 72.461 27.9152 72.3808 27.9152C72.2526 27.9152 70.6663 29.441 70.6663 29.5695C70.6663 29.6498 68.8555 31.4808 67.5576 32.7015C66.8525 33.36 66.8205 33.3761 66.7404 33.0227Z" fill="#9B2149"/>
<path d="M36.6792 32.541C36.6311 30.6778 36.6151 13.5242 36.6631 13.4278C36.8234 13.0745 38.1854 14.2951 42.9286 19.0493C48.8254 24.9599 49.1619 25.3454 48.3928 25.3454C47.9281 25.3454 47.2711 24.8796 47.2711 24.5584C47.2711 24.4139 47.0468 24.2051 46.7743 24.0766C46.5019 23.9641 46.2455 23.7393 46.1814 23.5947C46.0853 23.3056 45.3963 22.615 45.204 22.615C45.1399 22.615 44.9957 22.4544 44.8835 22.2456C44.7713 22.0368 44.4669 21.7477 44.2105 21.587C43.9541 21.4425 43.7458 21.2176 43.7458 21.1052C43.7458 20.9767 43.6336 20.8482 43.5054 20.784C43.3772 20.7358 43.2651 20.543 43.2651 20.3664C43.2651 20.1576 43.1529 20.0451 42.9446 20.0451C42.7843 20.0451 42.576 19.9488 42.5119 19.8363C42.4478 19.7079 42.1914 19.483 41.9351 19.3224C41.6947 19.1778 41.4543 18.8887 41.4063 18.696C41.3582 18.5032 41.1178 18.2623 40.8454 18.166C40.589 18.0696 40.3807 17.8929 40.3807 17.7644C40.3807 17.652 40.2205 17.4271 40.0282 17.2826C39.3552 16.7686 37.9771 15.4034 37.9771 15.2267C37.9771 15.1464 37.913 15.0661 37.8169 15.0661C37.7367 15.0661 37.6566 14.9537 37.6566 14.8252C37.6566 14.6967 37.5925 14.5843 37.4964 14.5843C37.3842 14.5843 37.3361 17.7965 37.3361 23.8999C37.3361 33.1031 37.3361 33.2155 37.0157 33.2155C36.7433 33.2155 36.6952 33.1031 36.6792 32.541Z" fill="#9B2149"/>
<path d="M34.1313 11.388C34.1313 11.3077 33.9871 11.1792 33.8108 11.131C33.6346 11.0828 33.4583 10.874 33.3942 10.6813C33.3461 10.4885 33.0737 10.2155 32.8013 10.0709C32.4648 9.91033 32.2725 9.68547 32.2405 9.41243C32.2084 9.10726 32.0802 8.97877 31.7117 8.89846C31.4393 8.85027 31.1669 8.65754 31.0707 8.43268C30.9746 8.22388 30.6861 7.93477 30.4298 7.77416C30.1253 7.59748 29.9651 7.37262 29.9651 7.09958C29.9651 6.82653 29.8689 6.7141 29.6606 6.7141C29.3081 6.7141 28.5229 6.02346 28.5229 5.70223C28.5229 5.57374 28.3466 5.41312 28.1223 5.36494C27.8979 5.30069 27.7217 5.18826 27.7217 5.09189C27.7217 4.8831 27.4653 4.64217 26.8884 4.2567C26.632 4.09608 26.4398 3.90335 26.4398 3.79092C26.4398 3.61424 25.8308 3.01997 25.6386 3.01997C25.5745 3.01997 25.4463 2.85935 25.3341 2.65055C25.2219 2.44176 24.9175 2.15265 24.6611 1.99203C24.4047 1.84748 24.1964 1.60656 24.1964 1.47807C24.1964 1.34958 24.1323 1.25321 24.0361 1.25321C23.956 1.25321 23.8759 0.996225 23.8759 0.691057C23.8759 0.385889 23.9079 0.128906 23.956 0.128906C24.1483 0.128906 34.9325 11.0828 34.9325 11.2916C34.9325 11.4362 34.7723 11.5325 34.5319 11.5325C34.3076 11.5325 34.1313 11.4683 34.1313 11.388Z" fill="#9B2149"/>
<path d="M77.7169 101.557C77.7169 101.428 77.6368 101.316 77.5406 101.316C77.4605 101.316 77.4284 101.412 77.4925 101.525C77.5566 101.621 77.5566 101.669 77.4765 101.605C77.4124 101.541 77.2682 101.316 77.1721 101.123C77.0599 100.914 76.8836 100.754 76.7554 100.754C76.6272 100.754 76.5151 100.641 76.5151 100.513C76.5151 100.175 74.0313 97.7663 73.807 97.8947C73.7109 97.9429 73.6788 97.9429 73.7429 97.8787C73.791 97.8144 73.7269 97.6056 73.5827 97.429C73.0859 96.8347 70.1535 93.9276 70.0253 93.9276C69.9772 93.9276 69.817 93.7509 69.7048 93.526C69.5927 93.3172 69.3683 93.0924 69.2401 93.0442C69.0959 92.996 68.8395 92.739 68.6793 92.466C68.503 92.1769 68.3107 92.0163 68.1665 92.0644C68.0383 92.1126 67.9422 92.0644 67.9422 91.952C67.9422 91.8396 67.6537 91.422 67.3012 91.0365L66.6602 90.3298L66.6763 79.7132C66.6923 73.8829 66.7564 68.9359 66.8205 68.7111C66.9487 68.3256 66.9968 68.3256 67.0448 68.7593C67.0609 68.8556 67.141 68.9359 67.2211 68.9199C67.3172 68.9199 67.4775 69.0002 67.5896 69.1287C67.7018 69.2572 67.7499 69.3535 67.7018 69.3535C67.6377 69.3535 67.9422 69.6426 68.3428 69.996C68.7434 70.3494 69.0318 70.6385 68.9517 70.6385C68.8876 70.6385 69.0799 70.8151 69.3843 71.0239C70.0253 71.4576 71.2271 72.7425 71.179 72.9352C71.163 72.9995 71.2111 73.0477 71.3072 73.0477C71.3874 73.0477 72.2206 73.8026 73.166 74.7341C74.0954 75.6657 74.8005 76.4206 74.7364 76.4206C74.6563 76.4206 74.7845 76.5491 74.9928 76.6936C75.6978 77.1755 77.7169 79.2153 77.7169 79.4401C77.7169 79.5526 77.781 79.6168 77.8611 79.5526C77.9412 79.5044 78.1656 79.665 78.3578 79.9059C78.6623 80.2914 78.6783 80.3556 78.454 80.4038C78.1495 80.4681 78.1175 80.8535 78.4059 80.966C78.5662 81.0302 78.5662 81.0623 78.4059 81.0623C78.2777 81.0784 78.1976 81.3354 78.1976 81.7851C78.1976 82.2027 78.2777 82.5239 78.4059 82.5721C78.5662 82.6364 78.5662 82.6685 78.4059 82.6685C78.1335 82.6845 78.1015 100.288 78.3578 100.384C78.454 100.416 78.5501 100.657 78.5662 100.914C78.5982 101.332 78.5501 101.396 78.2457 101.348C77.8611 101.3 77.7329 101.557 78.0854 101.685C78.1976 101.733 78.1656 101.782 78.0053 101.782C77.8451 101.798 77.7169 101.685 77.7169 101.557Z" fill="#631032"/>
<path d="M63.8721 87.6154C63.7278 87.4066 63.4394 87.1336 63.2151 87.0211C62.9907 86.9087 62.7824 86.6678 62.7183 86.5072C62.6703 86.3305 62.526 86.2341 62.3978 86.2823C62.2857 86.3305 62.1895 86.3144 62.2216 86.2502C62.2857 86.0253 61.4364 85.1419 60.7634 84.7083C60.3948 84.4834 60.0904 84.1782 60.0904 84.0498C60.0904 83.9213 59.9942 83.7607 59.8821 83.6964C59.7539 83.6322 59.5456 83.3752 59.4013 83.1503C59.2411 82.9255 58.9527 82.6524 58.7443 82.54C58.536 82.4276 58.2636 82.1545 58.1515 81.9457C58.0393 81.7208 57.847 81.5924 57.7348 81.6245C57.6227 81.6727 57.5425 81.6566 57.5746 81.5924C57.6227 81.4317 57.3823 81.1587 55.7158 79.4562C54.9306 78.6692 54.2256 78.0588 54.1454 78.1231C54.0653 78.1713 54.0012 78.1231 54.0012 78.0267C54.0012 77.8661 53.9051 77.7215 53.3603 77.0791C52.7033 76.3081 52.7193 76.4527 52.7193 65.9806C52.7193 59.3472 52.7674 55.8619 52.8795 55.8619C52.9757 55.8619 53.0398 55.6531 53.0398 55.4122C53.0398 55.1552 53.0878 54.8982 53.1359 54.85C53.2801 54.7215 56.2446 57.6608 56.1484 57.8214C56.1004 57.8857 56.1324 57.9499 56.1965 57.9499C56.4369 57.9499 57.3663 58.7851 57.2701 58.9296C57.2381 58.9939 57.3983 59.1706 57.6387 59.2991C58.2316 59.6042 62.0453 63.4911 61.9011 63.6196C61.853 63.6838 61.8851 63.732 61.9972 63.732C62.2857 63.732 64.529 65.9485 64.7213 66.4303C64.8495 66.7355 64.8816 69.9157 64.8656 77.2076L64.8175 87.5512L64.465 87.776C64.1445 87.9848 64.0964 87.9688 63.8721 87.6154Z" fill="#631032"/>
<path d="M10.8964 78.9905C5.30398 78.9423 0.608918 78.8459 0.448677 78.7817C-0.288431 78.4122 -0.0640936 78.1231 4.02205 74.0435C6.21735 71.8431 7.96398 69.996 7.88386 69.9157C7.81976 69.8354 7.85181 69.8194 7.93193 69.8836C8.02807 69.9318 8.74916 69.3215 9.53434 68.5344L10.9605 67.105H21.7287C31.1028 67.105 32.5129 67.1371 32.6892 67.3459C32.8334 67.5226 32.8334 67.5868 32.7052 67.5868C32.593 67.5868 32.561 67.6671 32.6251 67.7796C32.6892 67.892 32.6731 67.9081 32.5449 67.8438C32.4488 67.7796 32.3206 67.8438 32.2565 68.0044C32.1283 68.3578 22.0171 78.5086 21.4723 78.8298C21.1198 79.0386 19.7577 79.0547 10.8964 78.9905Z" fill="#631032"/>
<path d="M13.8128 64.2621C14.1333 63.9248 14.7742 63.2824 15.2069 62.8166C15.6555 62.3508 16.0241 61.9011 16.0241 61.8047C16.0241 61.7244 16.0722 61.6602 16.1523 61.6762C16.3286 61.7405 18.2675 59.8292 18.2675 59.6043C18.2675 59.4919 18.3796 59.3955 18.5078 59.3955C18.636 59.3955 18.9565 59.0903 19.2289 58.7209C19.4853 58.3676 19.7096 58.1266 19.7096 58.1909C19.7096 58.2551 20.6871 57.3396 21.8729 56.1511C23.0587 54.9465 24.0361 53.9025 24.0361 53.8061C24.0361 53.7258 24.1804 53.6134 24.3727 53.5652C24.5489 53.517 24.7412 53.3243 24.7893 53.1476C24.8694 52.8264 24.9175 52.8264 35.9741 52.8103C42.4959 52.8103 47.1269 52.8745 47.1749 52.9549C47.223 53.0352 44.6431 55.7495 41.4223 58.9779L35.5735 64.8564H24.4047H13.2359L13.8128 64.2621Z" fill="#631032"/>
<path d="M54.4178 48.8431C54.3057 48.7307 54.4499 48.57 56.1004 46.9478C56.6292 46.4178 57.158 45.8878 57.2541 45.7753C57.3663 45.6629 57.6226 45.4059 57.831 45.2132C58.0393 45.0205 58.3277 44.7153 58.4719 44.5547C58.6161 44.3941 58.8725 44.1371 59.0328 43.9925C59.193 43.848 59.4494 43.607 59.5936 43.4304C60.2506 42.6755 61.5646 41.4066 61.6928 41.4066C61.7729 41.4066 61.9652 41.1978 62.1094 40.9408C62.2696 40.6839 62.5581 40.3787 62.7664 40.2663C62.9587 40.1538 63.167 39.9611 63.2151 39.8165C63.2631 39.672 63.4554 39.4471 63.6477 39.3186C63.824 39.1901 64.0964 38.9492 64.2406 38.7886C64.3848 38.628 64.8335 38.1301 65.2501 37.6964L66.0033 36.9094H76.9958C86.8025 36.9094 88.7895 36.9737 87.6839 37.2628C87.5076 37.311 87.2192 37.6964 87.0108 38.114C86.7705 38.5959 86.6102 38.8047 86.5301 38.6762C86.466 38.5638 86.3218 38.5316 86.2257 38.5798C86.1295 38.6441 86.0814 38.7726 86.1455 38.8529C86.2417 39.0295 85.6007 39.6238 85.2802 39.6399C85.1681 39.6399 85.0239 39.7684 84.9758 39.929C84.8155 40.3787 84.3829 40.8445 84.1265 40.8445C84.0143 40.8445 83.7259 41.1818 83.5016 41.5994C83.2772 42.033 83.0529 42.29 82.9888 42.1776C82.8446 41.9527 82.5241 42.1615 82.5241 42.4988C82.5241 42.804 82.0754 43.2537 81.7549 43.2537C81.6588 43.2537 81.4345 43.5107 81.2742 43.8158C81.0979 44.1692 80.8896 44.378 80.6813 44.378C80.489 44.378 80.2807 44.5547 80.1525 44.8438C80.0243 45.1008 79.784 45.3417 79.6077 45.3899C79.4475 45.422 79.2071 45.7111 79.0789 46.0002C78.9347 46.3536 78.7104 46.5784 78.4379 46.6427C78.1976 46.7069 77.9412 46.8996 77.8611 47.0924C77.5566 47.767 77.2361 48.2327 77.2361 48.0239C77.2361 47.8955 77.14 47.8312 77.0439 47.8794C76.9317 47.9115 76.8516 48.04 76.8836 48.1364C76.8996 48.2488 76.7554 48.4737 76.5631 48.6343C76.2106 48.9395 75.7619 48.9395 65.3623 48.9555C59.4013 48.9555 54.4819 48.9073 54.4178 48.8431Z" fill="#631032"/>
<path d="M48.1364 46.8676C47.9761 46.707 46.6301 45.3578 45.1399 43.8962C43.6657 42.4185 42.3837 41.0854 42.3036 40.9088C42.2075 40.7482 42.0633 40.6036 41.9831 40.6036C41.8549 40.6036 38.8264 37.6322 37.6246 36.3313C37.4643 36.1546 37.1919 35.8815 36.9996 35.7049C36.6792 35.3997 36.6631 35.2712 36.7433 33.5687C36.7913 32.4926 36.7753 31.8019 36.6792 31.8662C36.599 31.9144 36.5349 31.834 36.5349 31.7056C36.5349 31.561 36.6151 31.4486 36.6952 31.4486C36.8074 31.4486 36.8554 28.3648 36.8554 22.5345C36.8554 13.6846 36.8554 13.6204 37.1759 13.6204C37.3522 13.6204 37.5445 13.7328 37.5925 13.8613C37.6566 13.9898 37.7528 14.0701 37.8169 14.0219C37.897 13.9737 37.9931 14.0861 38.0572 14.2628C38.1053 14.4395 38.2335 14.584 38.3136 14.584C38.3937 14.584 38.4578 14.6965 38.4578 14.825C38.4578 15.098 39.0027 15.4192 39.1789 15.2586C39.259 15.1944 39.259 15.2265 39.211 15.3229C39.0828 15.5477 39.6276 16.0778 39.8199 15.9171C39.884 15.8368 39.9 15.9171 39.8359 16.0938C39.7558 16.3187 39.8039 16.3669 39.9801 16.2866C40.1243 16.2384 40.2045 16.2544 40.1564 16.3187C40.0602 16.4793 40.6211 16.9933 40.8775 16.9933C40.9736 16.9933 41.0217 17.1057 40.9576 17.2342C40.9095 17.3787 41.0057 17.5394 41.23 17.6518C41.6787 17.8927 42.1434 18.3746 42.0472 18.487C41.9992 18.5352 42.0953 18.6476 42.2716 18.744C42.4478 18.8403 42.7202 19.0491 42.8805 19.1937C43.0407 19.3543 43.233 19.4828 43.3292 19.4828C43.4253 19.4828 43.5855 19.6595 43.6817 19.8683C43.7939 20.0771 44.0022 20.318 44.1304 20.3983C44.2746 20.4786 44.3547 20.6071 44.3066 20.6874C44.2265 20.8159 44.7393 21.2014 44.8835 21.1211C44.9155 21.105 44.9316 21.1211 44.9155 21.1532C44.8835 21.1853 45.0437 21.378 45.2681 21.5708C45.4764 21.7796 45.6046 21.9884 45.5405 22.0687C45.4764 22.1329 45.5725 22.1329 45.7488 22.0687C45.9251 22.0044 46.0212 22.0044 45.9571 22.0526C45.8289 22.1811 46.4058 22.7754 46.6301 22.7754C46.7263 22.7754 46.7904 22.9039 46.7583 23.0645C46.7263 23.2412 46.8064 23.3375 46.9827 23.3215C47.1429 23.3054 47.239 23.3536 47.191 23.4178C47.1429 23.4821 47.3031 23.6588 47.5114 23.8033C47.7358 23.9479 47.88 24.1246 47.848 24.2049C47.7999 24.2691 47.9761 24.494 48.2486 24.6867L48.7293 25.0401L48.6972 36.0421C48.6812 42.0813 48.6171 47.0603 48.553 47.1085C48.4889 47.1406 48.2966 47.0442 48.1364 46.8676Z" fill="#631032"/>
<path d="M68.6152 34.7894C68.4069 34.5806 68.2626 34.7412 71.7559 31.2077C73.1981 29.7461 74.4319 28.5575 74.512 28.5575C74.5922 28.5575 74.7524 28.3969 74.8485 28.2042C75.0889 27.7384 75.5696 27.2565 75.6818 27.369C75.7299 27.4172 75.842 27.3047 75.9542 27.128C76.1144 26.8229 77.156 25.7307 77.9732 25.0079C78.1495 24.8634 78.3899 24.6064 78.5181 24.4297C78.6463 24.2691 79.111 23.8194 79.5436 23.45C80.2487 22.8396 80.4089 22.7754 81.1781 22.7754C81.6588 22.7754 82.0434 22.8557 82.0434 22.936C82.0434 23.0484 85.1681 23.0966 91.5296 23.0966C96.7375 23.0806 101.048 23.1448 101.112 23.209C101.32 23.4339 101.481 24.1085 101.304 23.9961C101.208 23.9479 101 24.0603 100.84 24.2691C100.679 24.4779 100.455 24.6225 100.343 24.5743C100.247 24.5422 100.103 24.6546 100.038 24.8152C99.8942 25.2489 99.4776 25.6825 99.077 25.8431C98.8526 25.9234 98.7084 26.1162 98.7084 26.3089C98.7084 26.4856 98.6443 26.6301 98.5642 26.6301C98.4841 26.6301 98.3559 26.7908 98.3078 26.9674C98.2277 27.2244 98.1636 27.2565 98.0675 27.112C97.9232 26.8711 97.5867 27.0317 97.5867 27.369C97.5867 27.6581 97.09 28.156 96.7855 28.156C96.6573 28.156 96.5291 28.3005 96.4971 28.4772C96.417 28.8787 95.9202 29.3606 95.5837 29.3606C95.4555 29.3606 95.2632 29.5373 95.1831 29.7461C95.103 29.9549 94.8466 30.2279 94.5902 30.3564C94.3499 30.4688 94.1255 30.7097 94.0935 30.8864C94.0454 31.0631 93.9332 31.2719 93.8051 31.3361C93.6769 31.4004 93.5807 31.5931 93.5807 31.7377C93.5807 31.9625 93.5487 31.9625 93.4365 31.7859C93.2602 31.4968 92.9397 31.7056 92.9397 32.1071C92.9397 32.2677 92.8757 32.4123 92.8116 32.4123C92.7314 32.4123 92.5872 32.5729 92.4911 32.7817C92.3949 32.9744 92.3148 33.0387 92.3148 32.9423C92.2828 32.5568 91.9623 32.7335 91.802 33.2153C91.7059 33.4884 91.5617 33.6972 91.4816 33.6972C91.4014 33.6972 91.3373 33.8096 91.3373 33.9381C91.3373 34.0666 91.0169 34.3557 90.6483 34.5806L89.9432 34.9821H79.3834C71.5957 34.9821 68.7594 34.9339 68.6152 34.7894Z" fill="#631032"/>
<path d="M34.2595 32.9262C34.0192 32.6852 33.6666 32.3319 33.4583 32.1392C32.8814 31.577 32.7372 31.4324 31.7277 30.4045C31.2149 29.8745 30.6701 29.3284 30.5419 29.1999C30.3977 29.0714 29.917 28.5735 29.4523 28.1077C28.9876 27.6259 28.4748 27.128 28.3306 26.9834C27.9781 26.6461 27.4012 26.0679 27.0487 25.6985C26.9045 25.554 26.6961 25.3612 26.6 25.2648C26.5039 25.1845 26.2635 24.9276 26.0552 24.7027C25.8469 24.4778 25.0617 23.7069 24.2925 22.9681L22.9145 21.6189V10.8898C22.9145 0.289289 22.9145 0.144736 23.2349 0.0483672C23.6836 -0.0961859 24.1643 0.0965516 24.2765 0.449904C24.3246 0.610518 24.4848 0.787194 24.613 0.835378C24.7412 0.883563 24.8213 0.995993 24.7572 1.0763C24.6611 1.25298 25.2059 1.60633 25.3822 1.4939C25.4302 1.44571 25.4463 1.46178 25.3982 1.52602C25.3661 1.57421 25.4943 1.783 25.7187 1.97574C25.927 2.18454 26.0552 2.39334 26.0071 2.44152C25.943 2.48971 25.9751 2.53789 26.0712 2.53789C26.2795 2.53789 26.7923 3.01974 27.0166 3.42127C27.1288 3.59795 27.3211 3.72644 27.4653 3.72644C27.6095 3.71038 27.6896 3.7425 27.6416 3.80675C27.6095 3.87099 27.7537 4.04767 27.9621 4.20828C28.1864 4.3689 28.3146 4.56164 28.2825 4.64194C28.2345 4.70619 28.3466 4.80256 28.5229 4.8668C28.6992 4.93105 28.9555 5.15591 29.0677 5.39683C29.1959 5.63775 29.5965 6.00717 29.949 6.23203C30.3176 6.45689 30.574 6.71387 30.5419 6.8263C30.4939 6.92267 30.6541 7.13147 30.8945 7.29208C31.3912 7.61331 31.7277 7.93454 31.7758 8.11122C31.7918 8.17546 31.904 8.22365 32.0161 8.22365C32.1283 8.20759 32.1924 8.22365 32.1443 8.27183C32.0963 8.32002 32.2405 8.49669 32.4488 8.67337C32.6731 8.85004 32.8174 9.04278 32.7693 9.12309C32.7212 9.18733 32.8975 9.38007 33.1378 9.52463C33.6827 9.87798 34.1313 10.3438 34.0352 10.4562C33.9871 10.4883 34.1794 10.6007 34.4358 10.6971L34.9325 10.8738V22.0365C34.9325 28.172 34.8684 33.2313 34.8043 33.2795C34.7242 33.3277 34.4839 33.1671 34.2595 32.9262Z" fill="#631032"/>
<path d="M186 109C186 110.091 185.091 110.961 184.002 110.915L139 109L184.002 107.085C185.091 107.039 186 107.909 186 109V109Z" fill="#620E31"/>
<path d="M196.528 115V113.32L200.848 109.24C201.189 108.931 201.44 108.653 201.6 108.408C201.76 108.163 201.867 107.939 201.92 107.736C201.984 107.533 202.016 107.347 202.016 107.176C202.016 106.728 201.861 106.387 201.552 106.152C201.253 105.907 200.811 105.784 200.224 105.784C199.755 105.784 199.317 105.875 198.912 106.056C198.517 106.237 198.181 106.52 197.904 106.904L196.016 105.688C196.443 105.048 197.04 104.541 197.808 104.168C198.576 103.795 199.461 103.608 200.464 103.608C201.296 103.608 202.021 103.747 202.64 104.024C203.269 104.291 203.755 104.669 204.096 105.16C204.448 105.651 204.624 106.237 204.624 106.92C204.624 107.283 204.576 107.645 204.48 108.008C204.395 108.36 204.213 108.733 203.936 109.128C203.669 109.523 203.275 109.965 202.752 110.456L199.168 113.832L198.672 112.888H204.992V115H196.528ZM212.862 115.192C211.944 115.192 211.123 114.968 210.398 114.52C209.672 114.061 209.102 113.4 208.686 112.536C208.27 111.672 208.062 110.627 208.062 109.4C208.062 108.173 208.27 107.128 208.686 106.264C209.102 105.4 209.672 104.744 210.398 104.296C211.123 103.837 211.944 103.608 212.862 103.608C213.79 103.608 214.611 103.837 215.326 104.296C216.051 104.744 216.622 105.4 217.038 106.264C217.454 107.128 217.662 108.173 217.662 109.4C217.662 110.627 217.454 111.672 217.038 112.536C216.622 113.4 216.051 114.061 215.326 114.52C214.611 114.968 213.79 115.192 212.862 115.192ZM212.862 113C213.299 113 213.678 112.877 213.998 112.632C214.328 112.387 214.584 111.997 214.766 111.464C214.958 110.931 215.054 110.243 215.054 109.4C215.054 108.557 214.958 107.869 214.766 107.336C214.584 106.803 214.328 106.413 213.998 106.168C213.678 105.923 213.299 105.8 212.862 105.8C212.435 105.8 212.056 105.923 211.726 106.168C211.406 106.413 211.15 106.803 210.958 107.336C210.776 107.869 210.686 108.557 210.686 109.4C210.686 110.243 210.776 110.931 210.958 111.464C211.15 111.997 211.406 112.387 211.726 112.632C212.056 112.877 212.435 113 212.862 113ZM220.762 115V113.32L225.082 109.24C225.424 108.931 225.674 108.653 225.834 108.408C225.994 108.163 226.101 107.939 226.154 107.736C226.218 107.533 226.25 107.347 226.25 107.176C226.25 106.728 226.096 106.387 225.786 106.152C225.488 105.907 225.045 105.784 224.458 105.784C223.989 105.784 223.552 105.875 223.146 106.056C222.752 106.237 222.416 106.52 222.138 106.904L220.25 105.688C220.677 105.048 221.274 104.541 222.042 104.168C222.81 103.795 223.696 103.608 224.698 103.608C225.53 103.608 226.256 103.747 226.874 104.024C227.504 104.291 227.989 104.669 228.33 105.16C228.682 105.651 228.858 106.237 228.858 106.92C228.858 107.283 228.81 107.645 228.714 108.008C228.629 108.36 228.448 108.733 228.17 109.128C227.904 109.523 227.509 109.965 226.986 110.456L223.402 113.832L222.906 112.888H229.226V115H220.762ZM232.2 115V113.32L236.52 109.24C236.861 108.931 237.112 108.653 237.272 108.408C237.432 108.163 237.539 107.939 237.592 107.736C237.656 107.533 237.688 107.347 237.688 107.176C237.688 106.728 237.533 106.387 237.224 106.152C236.925 105.907 236.483 105.784 235.896 105.784C235.427 105.784 234.989 105.875 234.584 106.056C234.189 106.237 233.853 106.52 233.576 106.904L231.688 105.688C232.115 105.048 232.712 104.541 233.48 104.168C234.248 103.795 235.133 103.608 236.136 103.608C236.968 103.608 237.693 103.747 238.312 104.024C238.941 104.291 239.427 104.669 239.768 105.16C240.12 105.651 240.296 106.237 240.296 106.92C240.296 107.283 240.248 107.645 240.152 108.008C240.067 108.36 239.885 108.733 239.608 109.128C239.341 109.523 238.947 109.965 238.424 110.456L234.84 113.832L234.344 112.888H240.664V115H232.2ZM250.473 111.496V109.496H255.001V111.496H250.473ZM264.872 115V113.32L269.192 109.24C269.533 108.931 269.784 108.653 269.944 108.408C270.104 108.163 270.21 107.939 270.264 107.736C270.328 107.533 270.36 107.347 270.36 107.176C270.36 106.728 270.205 106.387 269.896 106.152C269.597 105.907 269.154 105.784 268.568 105.784C268.098 105.784 267.661 105.875 267.256 106.056C266.861 106.237 266.525 106.52 266.248 106.904L264.36 105.688C264.786 105.048 265.384 104.541 266.152 104.168C266.92 103.795 267.805 103.608 268.808 103.608C269.64 103.608 270.365 103.747 270.984 104.024C271.613 104.291 272.098 104.669 272.44 105.16C272.792 105.651 272.968 106.237 272.968 106.92C272.968 107.283 272.92 107.645 272.824 108.008C272.738 108.36 272.557 108.733 272.28 109.128C272.013 109.523 271.618 109.965 271.096 110.456L267.512 113.832L267.016 112.888H273.336V115H264.872ZM281.205 115.192C280.288 115.192 279.467 114.968 278.741 114.52C278.016 114.061 277.445 113.4 277.029 112.536C276.613 111.672 276.405 110.627 276.405 109.4C276.405 108.173 276.613 107.128 277.029 106.264C277.445 105.4 278.016 104.744 278.741 104.296C279.467 103.837 280.288 103.608 281.205 103.608C282.133 103.608 282.955 103.837 283.669 104.296C284.395 104.744 284.965 105.4 285.381 106.264C285.797 107.128 286.005 108.173 286.005 109.4C286.005 110.627 285.797 111.672 285.381 112.536C284.965 113.4 284.395 114.061 283.669 114.52C282.955 114.968 282.133 115.192 281.205 115.192ZM281.205 113C281.643 113 282.021 112.877 282.341 112.632C282.672 112.387 282.928 111.997 283.109 111.464C283.301 110.931 283.397 110.243 283.397 109.4C283.397 108.557 283.301 107.869 283.109 107.336C282.928 106.803 282.672 106.413 282.341 106.168C282.021 105.923 281.643 105.8 281.205 105.8C280.779 105.8 280.4 105.923 280.069 106.168C279.749 106.413 279.493 106.803 279.301 107.336C279.12 107.869 279.029 108.557 279.029 109.4C279.029 110.243 279.12 110.931 279.301 111.464C279.493 111.997 279.749 112.387 280.069 112.632C280.4 112.877 280.779 113 281.205 113ZM289.106 115V113.32L293.426 109.24C293.767 108.931 294.018 108.653 294.178 108.408C294.338 108.163 294.445 107.939 294.498 107.736C294.562 107.533 294.594 107.347 294.594 107.176C294.594 106.728 294.439 106.387 294.13 106.152C293.831 105.907 293.389 105.784 292.802 105.784C292.333 105.784 291.895 105.875 291.49 106.056C291.095 106.237 290.759 106.52 290.482 106.904L288.594 105.688C289.021 105.048 289.618 104.541 290.386 104.168C291.154 103.795 292.039 103.608 293.042 103.608C293.874 103.608 294.599 103.747 295.218 104.024C295.847 104.291 296.333 104.669 296.674 105.16C297.026 105.651 297.202 106.237 297.202 106.92C297.202 107.283 297.154 107.645 297.058 108.008C296.973 108.36 296.791 108.733 296.514 109.128C296.247 109.523 295.853 109.965 295.33 110.456L291.746 113.832L291.25 112.888H297.57V115H289.106ZM305.28 115.192C304.341 115.192 303.52 115.053 302.816 114.776C302.112 114.488 301.562 114.088 301.168 113.576C300.773 113.053 300.576 112.445 300.576 111.752C300.576 111.059 300.768 110.472 301.152 109.992C301.546 109.501 302.096 109.133 302.8 108.888C303.504 108.632 304.33 108.504 305.28 108.504C306.24 108.504 307.072 108.632 307.776 108.888C308.49 109.133 309.04 109.501 309.424 109.992C309.818 110.472 310.016 111.059 310.016 111.752C310.016 112.445 309.818 113.053 309.424 113.576C309.029 114.088 308.474 114.488 307.76 114.776C307.056 115.053 306.229 115.192 305.28 115.192ZM305.28 113.288C305.93 113.288 306.442 113.144 306.816 112.856C307.2 112.568 307.392 112.173 307.392 111.672C307.392 111.171 307.2 110.781 306.816 110.504C306.442 110.216 305.93 110.072 305.28 110.072C304.64 110.072 304.133 110.216 303.76 110.504C303.386 110.781 303.2 111.171 303.2 111.672C303.2 112.173 303.386 112.568 303.76 112.856C304.133 113.144 304.64 113.288 305.28 113.288ZM305.28 109.816C304.416 109.816 303.658 109.699 303.008 109.464C302.368 109.229 301.866 108.888 301.504 108.44C301.152 107.981 300.976 107.437 300.976 106.808C300.976 106.147 301.157 105.581 301.52 105.112C301.882 104.632 302.389 104.264 303.04 104.008C303.69 103.741 304.437 103.608 305.28 103.608C306.144 103.608 306.896 103.741 307.536 104.008C308.186 104.264 308.693 104.632 309.056 105.112C309.429 105.581 309.616 106.147 309.616 106.808C309.616 107.437 309.434 107.981 309.072 108.44C308.72 108.888 308.218 109.229 307.568 109.464C306.917 109.699 306.154 109.816 305.28 109.816ZM305.28 108.296C305.824 108.296 306.25 108.173 306.56 107.928C306.88 107.683 307.04 107.347 307.04 106.92C307.04 106.472 306.874 106.125 306.544 105.88C306.224 105.635 305.802 105.512 305.28 105.512C304.768 105.512 304.352 105.635 304.032 105.88C303.712 106.125 303.552 106.472 303.552 106.92C303.552 107.347 303.706 107.683 304.016 107.928C304.325 108.173 304.746 108.296 305.28 108.296Z" fill="black"/>
<path d="M321 109C321 107.909 321.909 107.039 322.998 107.085L368 109L322.998 110.915C321.909 110.961 321 110.091 321 109V109Z" fill="#620E31"/>
</svg>
