<svg width="283" height="200" viewBox="0 0 283 200" fill="none" xmlns="http://www.w3.org/2000/svg">
<path d="M74 190C74 191.091 73.0914 191.961 72.0018 191.915L27 190L72.0018 188.085C73.0914 188.039 74 188.909 74 190V190Z" fill="#620E31"/>
<path d="M84.528 196V194.32L88.848 190.24C89.1893 189.931 89.44 189.653 89.6 189.408C89.76 189.163 89.8667 188.939 89.92 188.736C89.984 188.533 90.016 188.347 90.016 188.176C90.016 187.728 89.8613 187.387 89.552 187.152C89.2533 186.907 88.8107 186.784 88.224 186.784C87.7547 186.784 87.3173 186.875 86.912 187.056C86.5173 187.237 86.1813 187.52 85.904 187.904L84.016 186.688C84.4427 186.048 85.04 185.541 85.808 185.168C86.576 184.795 87.4613 184.608 88.464 184.608C89.296 184.608 90.0213 184.747 90.64 185.024C91.2693 185.291 91.7547 185.669 92.096 186.16C92.448 186.651 92.624 187.237 92.624 187.92C92.624 188.283 92.576 188.645 92.48 189.008C92.3947 189.36 92.2133 189.733 91.936 190.128C91.6693 190.523 91.2747 190.965 90.752 191.456L87.168 194.832L86.672 193.888H92.992V196H84.528ZM100.862 196.192C99.9442 196.192 99.1228 195.968 98.3975 195.52C97.6722 195.061 97.1015 194.4 96.6855 193.536C96.2695 192.672 96.0615 191.627 96.0615 190.4C96.0615 189.173 96.2695 188.128 96.6855 187.264C97.1015 186.4 97.6722 185.744 98.3975 185.296C99.1228 184.837 99.9442 184.608 100.862 184.608C101.79 184.608 102.611 184.837 103.326 185.296C104.051 185.744 104.622 186.4 105.038 187.264C105.454 188.128 105.662 189.173 105.662 190.4C105.662 191.627 105.454 192.672 105.038 193.536C104.622 194.4 104.051 195.061 103.326 195.52C102.611 195.968 101.79 196.192 100.862 196.192ZM100.862 194C101.299 194 101.678 193.877 101.998 193.632C102.328 193.387 102.584 192.997 102.766 192.464C102.958 191.931 103.054 191.243 103.054 190.4C103.054 189.557 102.958 188.869 102.766 188.336C102.584 187.803 102.328 187.413 101.998 187.168C101.678 186.923 101.299 186.8 100.862 186.8C100.435 186.8 100.056 186.923 99.7255 187.168C99.4055 187.413 99.1495 187.803 98.9575 188.336C98.7762 188.869 98.6855 189.557 98.6855 190.4C98.6855 191.243 98.7762 191.931 98.9575 192.464C99.1495 192.997 99.4055 193.387 99.7255 193.632C100.056 193.877 100.435 194 100.862 194ZM108.762 196V194.32L113.082 190.24C113.424 189.931 113.674 189.653 113.834 189.408C113.994 189.163 114.101 188.939 114.154 188.736C114.218 188.533 114.25 188.347 114.25 188.176C114.25 187.728 114.096 187.387 113.786 187.152C113.488 186.907 113.045 186.784 112.458 186.784C111.989 186.784 111.552 186.875 111.146 187.056C110.752 187.237 110.416 187.52 110.138 187.904L108.25 186.688C108.677 186.048 109.274 185.541 110.042 185.168C110.81 184.795 111.696 184.608 112.698 184.608C113.53 184.608 114.256 184.747 114.874 185.024C115.504 185.291 115.989 185.669 116.33 186.16C116.682 186.651 116.858 187.237 116.858 187.92C116.858 188.283 116.81 188.645 116.714 189.008C116.629 189.36 116.448 189.733 116.17 190.128C115.904 190.523 115.509 190.965 114.986 191.456L111.402 194.832L110.906 193.888H117.226V196H108.762ZM120.2 196V194.32L124.52 190.24C124.861 189.931 125.112 189.653 125.272 189.408C125.432 189.163 125.539 188.939 125.592 188.736C125.656 188.533 125.688 188.347 125.688 188.176C125.688 187.728 125.533 187.387 125.224 187.152C124.925 186.907 124.483 186.784 123.896 186.784C123.427 186.784 122.989 186.875 122.584 187.056C122.189 187.237 121.853 187.52 121.576 187.904L119.688 186.688C120.115 186.048 120.712 185.541 121.48 185.168C122.248 184.795 123.133 184.608 124.136 184.608C124.968 184.608 125.693 184.747 126.312 185.024C126.941 185.291 127.427 185.669 127.768 186.16C128.12 186.651 128.296 187.237 128.296 187.92C128.296 188.283 128.248 188.645 128.152 189.008C128.067 189.36 127.885 189.733 127.608 190.128C127.341 190.523 126.947 190.965 126.424 191.456L122.84 194.832L122.344 193.888H128.664V196H120.2ZM138.473 192.496V190.496H143.001V192.496H138.473ZM152.872 196V194.32L157.192 190.24C157.533 189.931 157.784 189.653 157.944 189.408C158.104 189.163 158.21 188.939 158.264 188.736C158.328 188.533 158.36 188.347 158.36 188.176C158.36 187.728 158.205 187.387 157.896 187.152C157.597 186.907 157.154 186.784 156.568 186.784C156.098 186.784 155.661 186.875 155.256 187.056C154.861 187.237 154.525 187.52 154.248 187.904L152.36 186.688C152.786 186.048 153.384 185.541 154.152 185.168C154.92 184.795 155.805 184.608 156.808 184.608C157.64 184.608 158.365 184.747 158.984 185.024C159.613 185.291 160.098 185.669 160.44 186.16C160.792 186.651 160.968 187.237 160.968 187.92C160.968 188.283 160.92 188.645 160.824 189.008C160.738 189.36 160.557 189.733 160.28 190.128C160.013 190.523 159.618 190.965 159.096 191.456L155.512 194.832L155.016 193.888H161.336V196H152.872ZM169.205 196.192C168.288 196.192 167.467 195.968 166.741 195.52C166.016 195.061 165.445 194.4 165.029 193.536C164.613 192.672 164.405 191.627 164.405 190.4C164.405 189.173 164.613 188.128 165.029 187.264C165.445 186.4 166.016 185.744 166.741 185.296C167.467 184.837 168.288 184.608 169.205 184.608C170.133 184.608 170.955 184.837 171.669 185.296C172.395 185.744 172.965 186.4 173.381 187.264C173.797 188.128 174.005 189.173 174.005 190.4C174.005 191.627 173.797 192.672 173.381 193.536C172.965 194.4 172.395 195.061 171.669 195.52C170.955 195.968 170.133 196.192 169.205 196.192ZM169.205 194C169.643 194 170.021 193.877 170.341 193.632C170.672 193.387 170.928 192.997 171.109 192.464C171.301 191.931 171.397 191.243 171.397 190.4C171.397 189.557 171.301 188.869 171.109 188.336C170.928 187.803 170.672 187.413 170.341 187.168C170.021 186.923 169.643 186.8 169.205 186.8C168.779 186.8 168.4 186.923 168.069 187.168C167.749 187.413 167.493 187.803 167.301 188.336C167.12 188.869 167.029 189.557 167.029 190.4C167.029 191.243 167.12 191.931 167.301 192.464C167.493 192.997 167.749 193.387 168.069 193.632C168.4 193.877 168.779 194 169.205 194ZM177.106 196V194.32L181.426 190.24C181.767 189.931 182.018 189.653 182.178 189.408C182.338 189.163 182.445 188.939 182.498 188.736C182.562 188.533 182.594 188.347 182.594 188.176C182.594 187.728 182.439 187.387 182.13 187.152C181.831 186.907 181.389 186.784 180.802 186.784C180.333 186.784 179.895 186.875 179.49 187.056C179.095 187.237 178.759 187.52 178.482 187.904L176.594 186.688C177.021 186.048 177.618 185.541 178.386 185.168C179.154 184.795 180.039 184.608 181.042 184.608C181.874 184.608 182.599 184.747 183.218 185.024C183.847 185.291 184.333 185.669 184.674 186.16C185.026 186.651 185.202 187.237 185.202 187.92C185.202 188.283 185.154 188.645 185.058 189.008C184.973 189.36 184.791 189.733 184.514 190.128C184.247 190.523 183.853 190.965 183.33 191.456L179.746 194.832L179.25 193.888H185.57V196H177.106ZM193.28 196.192C192.341 196.192 191.52 196.053 190.816 195.776C190.112 195.488 189.562 195.088 189.168 194.576C188.773 194.053 188.576 193.445 188.576 192.752C188.576 192.059 188.768 191.472 189.152 190.992C189.546 190.501 190.096 190.133 190.8 189.888C191.504 189.632 192.33 189.504 193.28 189.504C194.24 189.504 195.072 189.632 195.776 189.888C196.49 190.133 197.04 190.501 197.424 190.992C197.818 191.472 198.016 192.059 198.016 192.752C198.016 193.445 197.818 194.053 197.424 194.576C197.029 195.088 196.474 195.488 195.76 195.776C195.056 196.053 194.229 196.192 193.28 196.192ZM193.28 194.288C193.93 194.288 194.442 194.144 194.816 193.856C195.2 193.568 195.392 193.173 195.392 192.672C195.392 192.171 195.2 191.781 194.816 191.504C194.442 191.216 193.93 191.072 193.28 191.072C192.64 191.072 192.133 191.216 191.76 191.504C191.386 191.781 191.2 192.171 191.2 192.672C191.2 193.173 191.386 193.568 191.76 193.856C192.133 194.144 192.64 194.288 193.28 194.288ZM193.28 190.816C192.416 190.816 191.658 190.699 191.008 190.464C190.368 190.229 189.866 189.888 189.504 189.44C189.152 188.981 188.976 188.437 188.976 187.808C188.976 187.147 189.157 186.581 189.52 186.112C189.882 185.632 190.389 185.264 191.04 185.008C191.69 184.741 192.437 184.608 193.28 184.608C194.144 184.608 194.896 184.741 195.536 185.008C196.186 185.264 196.693 185.632 197.056 186.112C197.429 186.581 197.616 187.147 197.616 187.808C197.616 188.437 197.434 188.981 197.072 189.44C196.72 189.888 196.218 190.229 195.568 190.464C194.917 190.699 194.154 190.816 193.28 190.816ZM193.28 189.296C193.824 189.296 194.25 189.173 194.56 188.928C194.88 188.683 195.04 188.347 195.04 187.92C195.04 187.472 194.874 187.125 194.544 186.88C194.224 186.635 193.802 186.512 193.28 186.512C192.768 186.512 192.352 186.635 192.032 186.88C191.712 187.125 191.552 187.472 191.552 187.92C191.552 188.347 191.706 188.683 192.016 188.928C192.325 189.173 192.746 189.296 193.28 189.296Z" fill="black"/>
<path d="M209 190C209 188.909 209.909 188.039 210.998 188.085L256 190L210.998 191.915C209.909 191.961 209 191.091 209 190V190Z" fill="#620E31"/>
<path d="M114.123 101.686C113.963 101.621 113.915 99.3245 113.915 90.9083V80.1953L114.523 79.6171C114.844 79.2959 115.196 78.9426 115.309 78.8301C115.405 78.7177 115.629 78.4928 115.805 78.3162C115.982 78.1395 116.19 77.9307 116.254 77.8504C116.334 77.7701 116.623 77.497 116.879 77.24C117.151 76.9831 117.44 76.6939 117.52 76.5976C117.616 76.5012 118.113 75.9872 118.642 75.4572C119.17 74.9272 119.683 74.4293 119.763 74.3329C119.859 74.2526 120.148 73.9635 120.404 73.7065C120.677 73.4495 120.965 73.1604 121.061 73.048C121.173 72.9356 121.398 72.7107 121.574 72.534C121.75 72.3574 121.959 72.1486 122.039 72.0683C122.103 71.9879 122.391 71.7149 122.648 71.4579C122.92 71.2009 123.225 70.8958 123.337 70.7673C124.33 69.7072 125.74 68.4223 125.836 68.5026C125.885 68.5508 125.933 73.5298 125.933 79.5529V90.5068L125.372 91.085C125.051 91.4223 124.731 91.6793 124.651 91.6793C124.571 91.6793 124.474 91.8238 124.41 92.0005C124.362 92.1772 124.106 92.4342 123.849 92.5787C123.609 92.7393 123.321 93.0124 123.225 93.2212C123.144 93.4139 122.856 93.703 122.584 93.8636C122.311 94.0243 122.087 94.2491 122.087 94.3615C122.087 94.474 121.83 94.731 121.526 94.9237C121.222 95.1325 120.965 95.3734 120.965 95.4858C120.965 95.5822 120.677 95.8713 120.324 96.1283C119.972 96.3692 119.683 96.6423 119.683 96.7065C119.683 96.8832 118.353 98.1842 117.84 98.5215C117.616 98.666 117.44 98.8748 117.44 99.0033C117.44 99.1157 117.151 99.4048 116.799 99.6618C116.446 99.9027 116.158 100.192 116.158 100.304C116.158 100.401 115.918 100.642 115.613 100.818C115.325 101.011 115.036 101.3 114.988 101.477C114.908 101.782 114.556 101.862 114.123 101.686Z" fill="#9B2149"/>
<path d="M167.916 100.995C167.515 100.545 167.098 100.095 166.97 99.983C165.8 98.9069 162.307 95.3252 162.307 95.2128C162.307 95.1164 162.227 95.0522 162.147 95.0522C162.051 95.0522 161.009 94.0885 159.823 92.8999C158.157 91.2456 157.66 90.6513 157.66 90.3301C157.66 89.7037 158.109 89.8001 158.814 90.5871C159.15 90.9565 159.423 91.3259 159.423 91.3902C159.423 91.4544 159.519 91.5187 159.647 91.5187C159.775 91.5187 160.016 91.7435 160.176 92.0005C160.32 92.2735 160.577 92.5145 160.721 92.5627C160.849 92.6108 161.057 92.8196 161.169 93.0124C161.282 93.2212 161.57 93.5103 161.81 93.6548C162.051 93.7994 162.339 94.0885 162.467 94.3133C162.58 94.5382 162.74 94.7309 162.804 94.7309C162.9 94.7309 164.406 96.1925 165.063 96.9153C165.208 97.092 165.8 97.6863 166.377 98.2484C166.954 98.8106 167.435 99.3245 167.435 99.3888C167.435 99.453 167.579 99.5494 167.755 99.5976C167.932 99.6458 168.076 99.7742 168.076 99.9027C168.076 100.015 168.22 100.208 168.396 100.32L168.717 100.513L168.685 90.3783C168.653 82.4279 168.589 80.2114 168.444 80.1471C168.236 80.0829 168.14 78.9907 168.332 78.9907C168.38 78.9907 168.701 79.2638 169.053 79.585L169.678 80.1793V90.7156C169.662 101.846 169.678 101.798 168.941 101.798C168.781 101.798 168.316 101.429 167.916 100.995Z" fill="#9B2149"/>
<path d="M127.647 88.2583C127.535 87.921 127.503 71.4099 127.631 68.8079C127.711 66.8163 127.791 66.2541 127.999 66.0775C128.256 65.8365 128.785 65.3065 129.105 64.9853C129.297 64.7765 130.179 63.8931 130.387 63.7004C130.627 63.4755 131.22 62.8652 131.348 62.7206C131.413 62.6564 131.685 62.3994 131.941 62.1424C132.214 61.8854 132.518 61.5803 132.63 61.4518C132.871 61.2108 134.681 59.3798 134.874 59.2032C135.098 58.9783 136.909 57.1634 137.069 56.9867C137.165 56.9064 137.454 56.6173 137.71 56.3603C137.982 56.1033 138.271 55.8142 138.351 55.7178C138.687 55.3484 139.425 54.722 139.489 54.7702C139.521 54.8023 139.569 59.7011 139.617 65.6599C139.697 77.5132 139.729 77.0796 138.752 77.6578C138.495 77.8023 138.271 78.0272 138.271 78.1396C138.271 78.252 138.014 78.509 137.71 78.7018C137.406 78.9106 137.149 79.1675 137.149 79.28C137.149 79.3924 136.893 79.6333 136.588 79.81C136.284 79.9867 135.995 80.2758 135.947 80.4525C135.899 80.6131 135.643 80.8701 135.403 81.0146C135.162 81.1592 134.906 81.4322 134.81 81.6089C134.73 81.8016 134.457 82.0586 134.201 82.1871C133.944 82.2995 133.704 82.5405 133.672 82.7011C133.624 82.8617 133.335 83.1508 133.047 83.3435C132.743 83.5202 132.502 83.7772 132.502 83.9057C132.502 84.0181 132.246 84.2912 131.941 84.4839C131.637 84.6927 131.381 84.9497 131.381 85.0621C131.381 85.1745 131.124 85.4155 130.82 85.5921C130.515 85.7688 130.227 86.0579 130.179 86.2185C130.131 86.3952 129.842 86.6682 129.554 86.861C129.249 87.0377 128.977 87.3107 128.945 87.4713C128.833 87.8568 127.743 88.5153 127.647 88.2583Z" fill="#9B2149"/>
<path d="M149.424 82.476C144.168 77.2078 143.607 76.5975 143.671 76.212C143.767 75.7141 144.312 75.6017 144.472 76.0514C144.536 76.196 144.697 76.4369 144.825 76.5814C144.969 76.726 145.193 76.999 145.321 77.1918C145.45 77.3845 145.61 77.5451 145.658 77.5451C145.77 77.5451 147.453 79.2155 149.36 81.2071C149.568 81.4159 149.872 81.705 150.033 81.8496C151.026 82.733 151.571 83.4397 151.571 83.8733C151.571 84.2267 151.635 84.2909 152.02 84.2909C152.356 84.2909 152.709 84.5158 153.382 85.1904C153.878 85.6722 154.295 86.138 154.327 86.2022C154.423 86.411 155.385 87.0214 155.641 87.0214C155.785 87.0214 155.897 87.1499 155.897 87.3105C155.897 87.8405 155.705 88.3063 155.481 88.3063C155.369 88.3063 152.644 85.6883 149.424 82.476Z" fill="#9B2149"/>
<path d="M190.99 78.8945C190.862 78.8624 186.263 78.8142 180.767 78.7981C171.409 78.7499 170.768 78.7339 170.624 78.4608C170.527 78.3163 170.367 78.1075 170.271 78.0272C170.159 77.9308 169.934 77.7381 169.742 77.5774C169.566 77.4329 169.326 77.1438 169.213 76.951C169.117 76.7423 168.941 76.5816 168.829 76.5816C168.604 76.5816 168.076 76.0195 168.076 75.7786C168.076 75.6983 167.883 75.5376 167.643 75.4252C167.403 75.3128 167.098 75.0076 166.986 74.7667C166.874 74.5258 166.698 74.333 166.601 74.333C166.521 74.333 166.009 73.8833 165.496 73.3372C164.967 72.7751 164.47 72.2611 164.374 72.1647C164.294 72.0844 163.781 71.5865 163.252 71.0726C162.74 70.5586 162.307 70.0607 162.307 69.9964C162.307 69.9161 162.115 69.7555 161.874 69.6431C161.634 69.5307 161.33 69.2255 161.217 68.9846C161.105 68.7436 160.945 68.5509 160.881 68.5509C160.689 68.5509 159.967 67.8603 159.775 67.5069C159.663 67.266 159.663 67.1054 159.823 66.8966C160 66.6396 160.737 66.6235 170.431 66.6235C179.501 66.6235 180.879 66.6557 181.055 66.8645C181.167 66.9929 181.424 67.1054 181.632 67.1054C181.888 67.1054 182.081 67.266 182.257 67.5872C182.401 67.8603 182.61 68.0691 182.738 68.0691C182.882 68.0691 183.186 68.3582 183.427 68.7115C183.667 69.0488 183.907 69.3379 183.972 69.354C184.1 69.354 185.702 70.928 185.702 71.0565C185.702 71.201 186.087 71.5383 186.391 71.6508C186.535 71.699 186.744 71.9238 186.84 72.1326C186.936 72.3414 187.208 72.6305 187.449 72.7751C187.689 72.9196 187.978 73.2087 188.106 73.4336C188.218 73.6585 188.378 73.8512 188.442 73.8512C188.538 73.8512 189.949 75.2164 190.525 75.8749C190.686 76.0516 190.974 76.3407 191.166 76.5174C191.887 77.1598 192.224 77.6256 192.304 78.0914C192.384 78.4769 192.32 78.5733 191.855 78.766C191.567 78.8945 191.295 78.9748 191.279 78.9748C191.247 78.9587 191.118 78.9266 190.99 78.8945Z" fill="#9B2149"/>
<path d="M91 78.0432C91 77.9469 100.839 68.0048 102.073 66.8645C102.281 66.6557 103.851 66.6235 112.905 66.6235C122.359 66.6235 123.513 66.6557 123.593 66.8805C123.641 67.009 123.753 67.0893 123.833 67.0251C123.913 66.9769 124.042 67.0251 124.09 67.1214C124.154 67.2178 123.897 67.5872 123.513 67.9566L122.808 68.5991L122.76 68.1012L122.712 67.5872H112.568H102.425L100.278 69.7555C99.0922 70.9441 98.0346 71.9238 97.9384 71.9238C97.8263 71.9238 97.7301 72.0041 97.7301 72.1166C97.7301 72.3414 95.9514 74.1724 95.7271 74.1724C95.631 74.1724 95.4867 74.333 95.4066 74.5418C95.3105 74.7346 95.0861 74.9594 94.8939 75.0558C94.6855 75.1361 94.5253 75.2807 94.5253 75.377C94.5253 75.4573 93.9164 76.1319 93.1793 76.8707C92.1858 77.8505 91.7371 78.1878 91.4166 78.1878C91.1923 78.1878 91 78.1235 91 78.0432Z" fill="#9B2149"/>
<path d="M165.384 77.0633C165.159 76.8384 165.031 76.5332 165.031 76.1799V75.6338L165.544 76.1156C165.832 76.3726 166.233 76.7581 166.441 76.983L166.81 77.3845H166.265C165.945 77.3845 165.592 77.256 165.384 77.0633Z" fill="#9B2149"/>
<path d="M162.628 74.1243C162.628 74.0279 162.42 73.8352 162.147 73.7227C161.747 73.5461 161.667 73.4176 161.667 72.9518C161.667 72.47 161.699 72.4218 161.955 72.5503C162.099 72.6306 162.58 73.0803 163.013 73.5139L163.798 74.3331H163.221C162.852 74.3331 162.628 74.2528 162.628 74.1243Z" fill="#9B2149"/>
<path d="M159.615 71.2813C159.423 71.0886 159.263 70.7995 159.263 70.6388C159.263 70.43 159.15 70.3176 158.974 70.3176C158.814 70.3176 158.461 70.1088 158.173 69.8358C157.724 69.4342 157.66 69.2897 157.772 68.8881L157.901 68.4224L159.487 70.0124L161.089 71.6025H160.528C160.176 71.6025 159.823 71.474 159.615 71.2813Z" fill="#9B2149"/>
<path d="M163.75 64.8569L157.084 64.7766L156.539 64.2466C154.167 61.998 153.013 60.8255 153.013 60.7131C153.013 60.6328 152.837 60.4882 152.613 60.3918C152.405 60.2955 152.116 59.9903 151.972 59.7173C151.844 59.4603 151.619 59.2354 151.507 59.2354C151.395 59.2354 151.155 59.0427 150.994 58.8178C150.834 58.5769 150.594 58.3038 150.482 58.2075C150.113 57.9023 149.745 57.5329 149.472 57.2117C149.328 57.0511 149.055 56.7941 148.895 56.6656C148.719 56.5371 148.495 56.264 148.382 56.0713C148.286 55.8625 148.094 55.7019 147.966 55.7019C147.854 55.7019 147.597 55.4449 147.405 55.1397C147.213 54.8346 146.988 54.5776 146.908 54.5776C146.684 54.5776 146.123 54.0476 146.123 53.8227C146.123 53.6942 145.947 53.5175 145.722 53.4212C144.649 52.9393 145.434 52.8911 156.491 52.843C167.483 52.8108 167.547 52.8108 167.98 53.1481C168.204 53.3248 168.397 53.5657 168.397 53.6781C168.397 53.7906 168.573 53.9833 168.797 54.0957C169.022 54.2242 169.358 54.5615 169.534 54.8506C169.711 55.1397 169.967 55.3807 170.095 55.3807C170.223 55.3807 170.48 55.6376 170.656 55.9428C170.848 56.248 171.073 56.505 171.169 56.505C171.361 56.505 173.204 58.4163 173.204 58.6251C173.204 58.6893 173.284 58.7536 173.396 58.7536C173.588 58.7536 174.486 59.7012 174.486 59.91C174.486 59.9742 174.55 60.0385 174.646 60.0385C174.838 60.0385 176.729 61.9498 176.729 62.1586C176.729 62.2228 176.809 62.2871 176.905 62.2871C177.098 62.2871 178.972 64.1984 178.972 64.4072C178.972 64.4714 179.085 64.5357 179.213 64.5357C179.549 64.5357 179.517 64.8569 179.181 64.873C178.267 64.9372 169.438 64.9212 163.75 64.8569Z" fill="#9B2149"/>
<path d="M104.396 64.5033C104.556 64.3105 107.249 61.5962 110.341 58.4802C114.78 54.0312 116.078 52.8105 116.398 52.8105C116.687 52.8105 116.799 52.8909 116.799 53.1318C116.799 53.3085 116.703 53.453 116.591 53.453C116.478 53.453 116.302 53.5976 116.19 53.7742C116.078 53.9509 115.886 54.0955 115.757 54.0955C115.629 54.0955 115.517 54.1918 115.517 54.3043C115.517 54.5612 114.684 55.3804 114.427 55.3804C114.315 55.3804 114.235 55.4607 114.235 55.541C114.235 55.798 113.258 56.8259 113.001 56.8259C112.889 56.8259 112.793 56.9223 112.793 57.0347C112.793 57.2596 111.126 58.9139 110.918 58.9139C110.838 58.9139 110.71 59.0745 110.63 59.2833C110.533 59.476 110.309 59.7009 110.117 59.7973C109.909 59.8776 109.748 60.0382 109.748 60.1346C109.748 60.3594 108.899 61.1625 108.659 61.1625C108.546 61.1625 108.466 61.2267 108.466 61.3231C108.466 61.564 107.793 62.2868 107.553 62.2868C107.441 62.2868 107.345 62.3671 107.345 62.4635C107.345 62.5598 106.864 63.1381 106.271 63.7484C105.342 64.696 105.101 64.8566 104.637 64.8566H104.092L104.396 64.5033Z" fill="#9B2149"/>
<path d="M153.173 64.632C153.173 64.5035 152.997 64.359 152.773 64.3108C152.356 64.1983 152.148 63.7165 152.244 63.1062C152.292 62.801 152.436 62.8974 153.334 63.8129L154.359 64.8569H153.766C153.366 64.8569 153.173 64.7766 153.173 64.632Z" fill="#9B2149"/>
<path d="M148.014 59.701C147.853 59.6207 147.725 59.3959 147.725 59.2353C147.725 59.0586 147.645 58.914 147.549 58.914C147.453 58.914 147.277 58.8177 147.164 58.7213C147.036 58.6089 146.828 58.4161 146.684 58.3037C146.556 58.1913 146.443 57.8379 146.443 57.5167V56.9385L147.453 57.8861C147.998 58.4001 148.655 59.0746 148.895 59.3638L149.36 59.8777H148.815C148.526 59.8777 148.158 59.7974 148.014 59.701Z" fill="#9B2149"/>
<path d="M143.719 55.9108C143.719 55.2522 143.896 54.7383 144.104 54.7383C144.216 54.7383 144.536 54.9953 144.841 55.3004L145.386 55.8626H144.953C144.681 55.8626 144.52 55.9429 144.52 56.1035C144.52 56.2481 144.376 56.3444 144.12 56.3444C143.783 56.3444 143.719 56.2641 143.719 55.9108Z" fill="#9B2149"/>
<path d="M115.501 48.49C115.276 48.2651 115.036 47.9439 114.988 47.7833C114.924 47.6387 114.699 47.4299 114.491 47.3496C114.267 47.2693 113.978 46.9802 113.834 46.7072C113.706 46.4502 113.482 46.2253 113.337 46.2253C113.209 46.2253 112.953 45.9683 112.777 45.6632C112.6 45.358 112.312 45.0689 112.136 45.0207C111.975 44.9725 111.719 44.7316 111.575 44.4907C111.447 44.2498 111.11 43.9285 110.854 43.784C110.597 43.6234 110.389 43.3985 110.389 43.27C110.389 43.1255 110.181 42.9167 109.908 42.7721C109.652 42.6436 109.315 42.3063 109.187 42.0493C109.043 41.7763 108.835 41.5675 108.69 41.5675C108.562 41.5675 108.306 41.3105 108.13 41.0053C107.953 40.7002 107.665 40.4111 107.489 40.3629C107.328 40.2986 107.072 40.0577 106.96 39.8168C106.832 39.5759 106.543 39.3028 106.319 39.1904C106.078 39.094 105.822 38.821 105.71 38.5961C105.614 38.3873 105.405 38.1625 105.245 38.1143C104.973 38.0179 104.3 37.2309 104.3 37.006C104.3 36.9579 109.299 36.9097 115.405 36.9097H126.493L127.775 38.1946C128.48 38.9173 129.778 40.1862 130.643 41.0535C131.525 41.9048 132.31 42.7079 132.406 42.8363C132.502 42.9488 133.015 43.4627 133.528 43.9606C134.057 44.4586 134.553 44.9565 134.649 45.0689C135.05 45.5668 136.652 47.189 136.733 47.189C136.845 47.189 138.175 48.6185 138.239 48.8112C138.271 48.8915 133.592 48.9558 127.102 48.9397L115.917 48.9236L115.501 48.49Z" fill="#9B2149"/>
<path d="M166.794 48.6505C166.794 48.4739 166.874 48.2811 166.97 48.2329C167.05 48.1687 167.195 47.9438 167.275 47.735C167.371 47.5102 167.563 47.3496 167.739 47.3496C167.932 47.3496 168.14 47.1408 168.3 46.8035C168.476 46.418 168.701 46.2253 169.021 46.145C169.39 46.0646 169.518 45.9201 169.598 45.5667C169.662 45.2616 169.855 45.0206 170.079 44.9403C170.287 44.86 170.544 44.587 170.672 44.3461C170.816 44.057 171.024 43.8803 171.297 43.8482C171.617 43.816 171.761 43.6715 171.858 43.286C171.97 42.9166 172.146 42.7399 172.515 42.6275C172.899 42.5311 173.043 42.3866 173.075 42.0653C173.107 41.7762 173.236 41.6317 173.476 41.5996C173.684 41.5674 173.925 41.3265 174.069 41.0053C174.213 40.7001 174.534 40.3628 174.758 40.2504C174.998 40.138 175.287 39.8649 175.383 39.6561C175.495 39.4473 175.735 39.2064 175.944 39.094C176.152 38.9976 176.424 38.7085 176.537 38.4676C176.681 38.1785 176.873 38.0339 177.113 38.0339C177.386 38.0339 177.514 37.9054 177.626 37.52C177.77 37.022 177.835 36.9899 178.604 36.9417L179.437 36.8936L177.21 39.1422C175.976 40.395 174.902 41.4068 174.806 41.4068C174.726 41.4068 174.646 41.4711 174.646 41.5514C174.646 41.7602 168.749 47.6708 168.557 47.6708C168.46 47.6708 168.396 47.7511 168.396 47.8635C168.396 47.976 168.204 48.2651 167.964 48.506C167.451 49.036 166.794 49.1163 166.794 48.6505Z" fill="#9B2149"/>
<path d="M143.992 46.948C143.719 46.7553 143.703 46.1289 143.719 36.3153C143.719 30.5975 143.751 25.7469 143.783 25.5542C143.895 24.976 144.344 24.2532 144.649 24.1568C144.809 24.1086 145.065 23.8356 145.225 23.5625C145.386 23.3056 145.69 23.0004 145.898 22.904C146.107 22.8077 146.315 22.5989 146.379 22.4222C146.427 22.2616 146.668 22.0206 146.908 21.9082C147.148 21.7797 147.421 21.4906 147.533 21.2658C147.629 21.0248 147.901 20.7679 148.126 20.6554C148.35 20.5591 148.526 20.4145 148.526 20.3503C148.526 20.2699 149.247 19.5151 150.129 18.6477C150.994 17.7804 151.795 16.9934 151.907 16.881C152.004 16.7846 152.709 16.0458 153.494 15.2588C155.064 13.6526 155.433 13.3796 155.705 13.6526C155.946 13.8935 155.978 34.7574 155.753 35.3356C155.577 35.7692 154.231 37.2308 153.991 37.2308C153.91 37.2308 153.702 37.4396 153.558 37.6966C153.398 37.9536 153.109 38.2427 152.901 38.3391C152.709 38.4355 152.532 38.58 152.532 38.6442C152.532 38.853 151.779 39.6401 151.587 39.6401C151.491 39.6401 151.331 39.8007 151.234 39.9934C150.994 40.4592 150.77 40.668 150.417 40.8125C150.257 40.8607 150.129 40.9732 150.129 41.0535C150.129 41.2462 145.979 45.4222 145.786 45.4222C145.706 45.4222 145.562 45.5989 145.466 45.8077C145.37 46.0165 145.113 46.2895 144.889 46.4019C144.665 46.5304 144.44 46.7392 144.376 46.8998C144.296 47.1247 144.232 47.1247 143.992 46.948Z" fill="#9B2149"/>
<path d="M101.656 34.5489C101.448 34.4365 101.223 34.1955 101.175 34.0189C101.111 33.8422 100.855 33.5852 100.599 33.4407C100.342 33.3122 100.038 33.0231 99.9415 32.8143C99.8454 32.5894 99.7012 32.4127 99.6371 32.4127C99.4448 32.4127 97.57 30.5496 97.57 30.3569C97.57 30.2605 97.3617 30.0677 97.0893 29.9232C96.8329 29.7786 96.6085 29.5698 96.6085 29.4253C96.6085 29.2968 96.3521 29.0398 96.0477 28.8631C95.7432 28.6865 95.4548 28.3974 95.4067 28.2207C95.3426 28.0601 95.0862 27.8031 94.8299 27.6585C94.5735 27.53 94.285 27.2409 94.2049 27.0161C94.1248 26.8073 93.8684 26.5503 93.6441 26.47C93.4197 26.3897 93.1794 26.1809 93.1313 26.0363C93.0031 25.683 92.8268 25.5063 92.25 25.1369C91.9936 24.9763 91.8013 24.7675 91.8013 24.655C91.8013 24.5426 91.6571 24.3338 91.4808 24.1732C91.0482 23.8038 91.0802 23.4504 91.577 23.0007L91.9776 22.6152H102.105H112.248L114.812 25.169C116.238 26.5824 117.52 27.9155 117.664 28.1404C117.808 28.3652 117.985 28.558 118.065 28.558C118.241 28.558 123.112 33.4567 123.449 33.9546C123.577 34.1634 123.801 34.3401 123.946 34.3401C124.09 34.3401 124.17 34.4365 124.122 34.5489C124.026 34.838 102.217 34.838 101.656 34.5489Z" fill="#9B2149"/>
<path d="M181.856 33.7779C181.856 33.4728 181.921 33.2158 182.001 33.2158C182.081 33.2158 182.225 33.007 182.321 32.7339C182.401 32.4609 182.594 32.2521 182.738 32.2521C183.074 32.2521 183.459 31.8666 183.459 31.5454C183.459 31.4169 183.699 31.192 184.004 31.0475C184.34 30.8869 184.581 30.646 184.613 30.4372C184.645 30.2444 184.869 29.9874 185.109 29.875C185.35 29.7465 185.622 29.4735 185.702 29.2647C185.83 28.9595 185.975 28.8792 186.423 28.8792C186.952 28.8792 186.984 28.8471 186.984 28.317C186.984 27.8513 187.064 27.7388 187.529 27.514C187.866 27.3534 188.106 27.1124 188.138 26.9036C188.17 26.7109 188.33 26.5342 188.49 26.5021C188.891 26.4218 189.228 26.0845 189.228 25.7633C189.228 25.6348 189.468 25.4099 189.772 25.2654C190.109 25.1048 190.397 24.8156 190.493 24.5265C190.574 24.2696 190.75 24.0608 190.878 24.0608C191.006 24.0608 191.199 23.9483 191.311 23.8198C191.487 23.611 190.445 23.5789 182.033 23.5789H172.562V23.1934C172.562 22.9365 172.675 22.7758 172.931 22.7116C173.572 22.551 191.663 22.5992 191.551 22.7758C191.503 22.8722 191.567 22.9365 191.695 22.9365C191.936 22.9365 192.496 23.8841 192.352 24.0286C192.304 24.0768 192.272 24.0608 192.272 23.9805C192.272 23.9001 192.016 24.1893 191.695 24.5908C191.375 25.0084 191.006 25.3457 190.894 25.3457C190.766 25.3457 190.67 25.4099 190.67 25.5063C190.67 25.699 187.353 29.0398 187.16 29.0398C187.08 29.0398 186.984 29.1844 186.936 29.3771C186.888 29.5538 186.696 29.7465 186.519 29.7947C186.327 29.8429 186.183 29.9393 186.183 30.0035C186.183 30.1481 182.081 34.3401 181.937 34.3401C181.889 34.3401 181.856 34.0831 181.856 33.7779Z" fill="#9B2149"/>
<path d="M157.741 33.023C157.693 32.8142 157.677 27.7709 157.693 21.796L157.741 10.9385L159.423 9.3002C160.353 8.41682 161.154 7.62981 161.218 7.56556C161.362 7.38889 163.205 5.54182 163.413 5.34908C163.509 5.26878 164.31 4.44964 165.192 3.5502C166.073 2.6347 166.858 1.89587 166.938 1.89587C167.019 1.89587 167.131 1.75132 167.195 1.57464C167.243 1.39796 167.499 1.14098 167.772 0.980367C168.028 0.819752 168.284 0.578831 168.333 0.418216C168.461 0.000618296 169.006 -0.111812 169.374 0.225479C169.663 0.498523 169.679 0.835814 169.679 11.0348V21.5712L168.22 23.0649C167.435 23.8679 166.714 24.5425 166.634 24.5425C166.554 24.5425 166.41 24.6871 166.313 24.8637C166.217 25.0404 165.769 25.5223 165.32 25.9399C164.23 26.9517 164.038 27.1605 163.75 27.5621C163.621 27.7548 163.461 27.9154 163.381 27.9154C163.253 27.9154 161.667 29.4413 161.667 29.5698C161.667 29.6501 159.856 31.4811 158.558 32.7017C157.853 33.3603 157.821 33.3763 157.741 33.023Z" fill="#9B2149"/>
<path d="M127.679 32.5412C127.631 30.6781 127.615 13.5244 127.663 13.4281C127.824 13.0747 129.186 14.2954 133.929 19.0496C139.826 24.9602 140.162 25.3457 139.393 25.3457C138.928 25.3457 138.271 24.8799 138.271 24.5587C138.271 24.4141 138.047 24.2053 137.775 24.0768C137.502 23.9644 137.246 23.7395 137.182 23.595C137.085 23.3059 136.396 22.6152 136.204 22.6152C136.14 22.6152 135.996 22.4546 135.884 22.2458C135.771 22.037 135.467 21.7479 135.211 21.5873C134.954 21.4427 134.746 21.2179 134.746 21.1054C134.746 20.977 134.634 20.8485 134.506 20.7842C134.377 20.736 134.265 20.5433 134.265 20.3666C134.265 20.1578 134.153 20.0454 133.945 20.0454C133.785 20.0454 133.576 19.949 133.512 19.8366C133.448 19.7081 133.192 19.4832 132.935 19.3226C132.695 19.1781 132.455 18.889 132.406 18.6962C132.358 18.5035 132.118 18.2626 131.846 18.1662C131.589 18.0698 131.381 17.8932 131.381 17.7647C131.381 17.6522 131.221 17.4274 131.028 17.2828C130.355 16.7689 128.977 15.4036 128.977 15.227C128.977 15.1466 128.913 15.0663 128.817 15.0663C128.737 15.0663 128.657 14.9539 128.657 14.8254C128.657 14.6969 128.593 14.5845 128.497 14.5845C128.384 14.5845 128.336 17.7968 128.336 23.9001C128.336 33.1033 128.336 33.2158 128.016 33.2158C127.743 33.2158 127.695 33.1033 127.679 32.5412Z" fill="#9B2149"/>
<path d="M125.131 11.388C125.131 11.3077 124.987 11.1792 124.811 11.131C124.635 11.0828 124.458 10.874 124.394 10.6813C124.346 10.4885 124.074 10.2155 123.801 10.0709C123.465 9.91033 123.273 9.68547 123.241 9.41243C123.209 9.10726 123.08 8.97877 122.712 8.89846C122.439 8.85027 122.167 8.65754 122.071 8.43268C121.975 8.22388 121.686 7.93477 121.43 7.77416C121.125 7.59748 120.965 7.37262 120.965 7.09958C120.965 6.82653 120.869 6.7141 120.661 6.7141C120.308 6.7141 119.523 6.02346 119.523 5.70223C119.523 5.57374 119.347 5.41312 119.122 5.36494C118.898 5.30069 118.722 5.18826 118.722 5.09189C118.722 4.8831 118.465 4.64217 117.889 4.2567C117.632 4.09608 117.44 3.90335 117.44 3.79092C117.44 3.61424 116.831 3.01997 116.639 3.01997C116.575 3.01997 116.446 2.85935 116.334 2.65055C116.222 2.44176 115.918 2.15265 115.661 1.99203C115.405 1.84748 115.196 1.60656 115.196 1.47807C115.196 1.34958 115.132 1.25321 115.036 1.25321C114.956 1.25321 114.876 0.996225 114.876 0.691057C114.876 0.385889 114.908 0.128906 114.956 0.128906C115.148 0.128906 125.933 11.0828 125.933 11.2916C125.933 11.4362 125.772 11.5325 125.532 11.5325C125.308 11.5325 125.131 11.4683 125.131 11.388Z" fill="#9B2149"/>
<path d="M168.598 101.557C168.598 101.428 168.518 101.316 168.422 101.316C168.342 101.316 168.31 101.412 168.374 101.525C168.438 101.621 168.438 101.669 168.358 101.605C168.294 101.541 168.149 101.316 168.053 101.123C167.941 100.914 167.765 100.754 167.637 100.754C167.508 100.754 167.396 100.641 167.396 100.513C167.396 100.175 164.913 97.7663 164.688 97.8947C164.592 97.9429 164.56 97.9429 164.624 97.8787C164.672 97.8144 164.608 97.6056 164.464 97.429C163.967 96.8347 161.035 93.9276 160.907 93.9276C160.858 93.9276 160.698 93.7509 160.586 93.526C160.474 93.3172 160.25 93.0924 160.121 93.0442C159.977 92.996 159.721 92.739 159.561 92.466C159.384 92.1769 159.192 92.0163 159.048 92.0644C158.92 92.1126 158.823 92.0644 158.823 91.952C158.823 91.8396 158.535 91.422 158.182 91.0365L157.542 90.3298L157.558 79.7132C157.574 73.8829 157.638 68.9359 157.702 68.7111C157.83 68.3256 157.878 68.3256 157.926 68.7593C157.942 68.8556 158.022 68.9359 158.102 68.9199C158.198 68.9199 158.359 69.0002 158.471 69.1287C158.583 69.2572 158.631 69.3535 158.583 69.3535C158.519 69.3535 158.823 69.6426 159.224 69.996C159.625 70.3494 159.913 70.6385 159.833 70.6385C159.769 70.6385 159.961 70.8151 160.266 71.0239C160.907 71.4576 162.108 72.7425 162.06 72.9352C162.044 72.9995 162.092 73.0477 162.188 73.0477C162.269 73.0477 163.102 73.8026 164.047 74.7341C164.977 75.6657 165.682 76.4206 165.618 76.4206C165.538 76.4206 165.666 76.5491 165.874 76.6936C166.579 77.1755 168.598 79.2153 168.598 79.4401C168.598 79.5526 168.662 79.6168 168.742 79.5526C168.822 79.5044 169.047 79.665 169.239 79.9059C169.544 80.2914 169.56 80.3556 169.335 80.4038C169.031 80.4681 168.999 80.8535 169.287 80.966C169.447 81.0302 169.447 81.0623 169.287 81.0623C169.159 81.0784 169.079 81.3354 169.079 81.7851C169.079 82.2027 169.159 82.5239 169.287 82.5721C169.447 82.6364 169.447 82.6685 169.287 82.6685C169.015 82.6845 168.983 100.288 169.239 100.384C169.335 100.416 169.431 100.657 169.447 100.914C169.479 101.332 169.431 101.396 169.127 101.348C168.742 101.3 168.614 101.557 168.967 101.685C169.079 101.733 169.047 101.782 168.887 101.782C168.726 101.798 168.598 101.685 168.598 101.557Z" fill="#631032"/>
<path d="M154.753 87.6156C154.609 87.4068 154.32 87.1338 154.096 87.0214C153.872 86.9089 153.663 86.668 153.599 86.5074C153.551 86.3307 153.407 86.2344 153.279 86.2825C153.167 86.3307 153.07 86.3147 153.102 86.2504C153.167 86.0256 152.317 85.1422 151.644 84.7085C151.276 84.4837 150.971 84.1785 150.971 84.05C150.971 83.9215 150.875 83.7609 150.763 83.6966C150.635 83.6324 150.426 83.3754 150.282 83.1506C150.122 82.9257 149.834 82.6527 149.625 82.5402C149.417 82.4278 149.144 82.1548 149.032 81.946C148.92 81.7211 148.728 81.5926 148.616 81.6247C148.504 81.6729 148.423 81.6568 148.455 81.5926C148.504 81.432 148.263 81.1589 146.597 79.4564C145.811 78.6694 145.106 78.0591 145.026 78.1233C144.946 78.1715 144.882 78.1233 144.882 78.027C144.882 77.8663 144.786 77.7218 144.241 77.0793C143.584 76.3084 143.6 76.4529 143.6 65.9809C143.6 59.3475 143.648 55.8622 143.76 55.8622C143.857 55.8622 143.921 55.6534 143.921 55.4124C143.921 55.1555 143.969 54.8985 144.017 54.8503C144.161 54.7218 147.125 57.661 147.029 57.8217C146.981 57.8859 147.013 57.9501 147.077 57.9501C147.318 57.9501 148.247 58.7853 148.151 58.9299C148.119 58.9941 148.279 59.1708 148.52 59.2993C149.112 59.6045 152.926 63.4913 152.782 63.6198C152.734 63.6841 152.766 63.7323 152.878 63.7323C153.167 63.7323 155.41 65.9487 155.602 66.4306C155.73 66.7358 155.762 69.9159 155.746 77.2078L155.698 87.5514L155.346 87.7763C155.025 87.9851 154.977 87.969 154.753 87.6156Z" fill="#631032"/>
<path d="M101.777 78.9905C96.185 78.9423 91.49 78.8459 91.3297 78.7817C90.5926 78.4122 90.8169 78.1231 94.9031 74.0435C97.0984 71.8431 98.845 69.996 98.7649 69.9157C98.7008 69.8354 98.7329 69.8194 98.813 69.8836C98.9091 69.9318 99.6302 69.3215 100.415 68.5344L101.842 67.105H112.61C121.984 67.105 123.394 67.1371 123.57 67.3459C123.714 67.5226 123.714 67.5868 123.586 67.5868C123.474 67.5868 123.442 67.6671 123.506 67.7796C123.57 67.892 123.554 67.9081 123.426 67.8438C123.33 67.7796 123.202 67.8438 123.138 68.0044C123.009 68.3578 112.898 78.5086 112.353 78.8298C112.001 79.0386 110.639 79.0547 101.777 78.9905Z" fill="#631032"/>
<path d="M104.694 64.2619C105.015 63.9246 105.656 63.2821 106.088 62.8163C106.537 62.3506 106.905 61.9008 106.905 61.8045C106.905 61.7242 106.953 61.6599 107.034 61.676C107.21 61.7402 109.149 59.8289 109.149 59.6041C109.149 59.4916 109.261 59.3953 109.389 59.3953C109.517 59.3953 109.838 59.0901 110.11 58.7207C110.367 58.3673 110.591 58.1264 110.591 58.1906C110.591 58.2549 111.568 57.3394 112.754 56.1508C113.94 54.9462 114.917 53.9022 114.917 53.8059C114.917 53.7256 115.062 53.6131 115.254 53.5649C115.43 53.5168 115.622 53.324 115.671 53.1473C115.751 52.8261 115.799 52.8261 126.855 52.8101C133.377 52.8101 138.008 52.8743 138.056 52.9546C138.104 53.0349 135.524 55.7493 132.304 58.9777L126.455 64.8561H115.286H104.117L104.694 64.2619Z" fill="#631032"/>
<path d="M145.299 48.8428C145.187 48.7304 145.331 48.5698 146.982 46.9476C147.51 46.4176 148.039 45.8875 148.135 45.7751C148.247 45.6627 148.504 45.4057 148.712 45.213C148.921 45.0202 149.209 44.715 149.353 44.5544C149.497 44.3938 149.754 44.1368 149.914 43.9923C150.074 43.8477 150.331 43.6068 150.475 43.4301C151.132 42.6752 152.446 41.4064 152.574 41.4064C152.654 41.4064 152.846 41.1976 152.991 40.9406C153.151 40.6836 153.439 40.3785 153.648 40.266C153.84 40.1536 154.048 39.9609 154.096 39.8163C154.144 39.6717 154.337 39.4469 154.529 39.3184C154.705 39.1899 154.978 38.949 155.122 38.7884C155.266 38.6278 155.715 38.1298 156.131 37.6962L156.884 36.9092H167.877C177.684 36.9092 179.671 36.9734 178.565 37.2625C178.389 37.3107 178.1 37.6962 177.892 38.1138C177.652 38.5956 177.491 38.8044 177.411 38.6759C177.347 38.5635 177.203 38.5314 177.107 38.5796C177.011 38.6438 176.963 38.7723 177.027 38.8526C177.123 39.0293 176.482 39.6236 176.161 39.6396C176.049 39.6396 175.905 39.7681 175.857 39.9287C175.697 40.3785 175.264 40.8442 175.008 40.8442C174.896 40.8442 174.607 41.1815 174.383 41.5991C174.158 42.0328 173.934 42.2898 173.87 42.1773C173.726 41.9525 173.405 42.1613 173.405 42.4986C173.405 42.8037 172.957 43.2535 172.636 43.2535C172.54 43.2535 172.316 43.5104 172.155 43.8156C171.979 44.169 171.771 44.3778 171.563 44.3778C171.37 44.3778 171.162 44.5544 171.034 44.8435C170.906 45.1005 170.665 45.3414 170.489 45.3896C170.329 45.4217 170.088 45.7109 169.96 46C169.816 46.3533 169.592 46.5782 169.319 46.6424C169.079 46.7067 168.822 46.8994 168.742 47.0921C168.438 47.7667 168.117 48.2325 168.117 48.0237C168.117 47.8952 168.021 47.831 167.925 47.8792C167.813 47.9113 167.733 48.0398 167.765 48.1361C167.781 48.2486 167.637 48.4734 167.444 48.634C167.092 48.9392 166.643 48.9392 156.244 48.9553C150.283 48.9553 145.363 48.9071 145.299 48.8428Z" fill="#631032"/>
<path d="M139.017 46.8673C138.857 46.7067 137.511 45.3575 136.021 43.896C134.547 42.4183 133.265 41.0852 133.185 40.9085C133.089 40.7479 132.944 40.6034 132.864 40.6034C132.736 40.6034 129.707 37.632 128.506 36.331C128.345 36.1543 128.073 35.8813 127.881 35.7046C127.56 35.3994 127.544 35.271 127.624 33.5684C127.672 32.4923 127.656 31.8017 127.56 31.8659C127.48 31.9141 127.416 31.8338 127.416 31.7053C127.416 31.5608 127.496 31.4483 127.576 31.4483C127.688 31.4483 127.736 28.3645 127.736 22.5342C127.736 13.6844 127.736 13.6201 128.057 13.6201C128.233 13.6201 128.426 13.7325 128.474 13.861C128.538 13.9895 128.634 14.0698 128.698 14.0217C128.778 13.9735 128.874 14.0859 128.938 14.2626C128.986 14.4393 129.115 14.5838 129.195 14.5838C129.275 14.5838 129.339 14.6962 129.339 14.8247C129.339 15.0978 129.884 15.419 130.06 15.2584C130.14 15.1941 130.14 15.2263 130.092 15.3226C129.964 15.5475 130.509 16.0775 130.701 15.9169C130.765 15.8366 130.781 15.9169 130.717 16.0936C130.637 16.3184 130.685 16.3666 130.861 16.2863C131.005 16.2381 131.086 16.2542 131.037 16.3184C130.941 16.4791 131.502 16.993 131.759 16.993C131.855 16.993 131.903 17.1055 131.839 17.2339C131.791 17.3785 131.887 17.5391 132.111 17.6515C132.56 17.8925 133.024 18.3743 132.928 18.4867C132.88 18.5349 132.976 18.6474 133.153 18.7437C133.329 18.8401 133.601 19.0489 133.762 19.1934C133.922 19.3541 134.114 19.4825 134.21 19.4825C134.306 19.4825 134.467 19.6592 134.563 19.868C134.675 20.0768 134.883 20.3177 135.011 20.3981C135.156 20.4784 135.236 20.6068 135.188 20.6872C135.108 20.8156 135.62 21.2011 135.765 21.1208C135.797 21.1048 135.813 21.1208 135.797 21.1529C135.765 21.1851 135.925 21.3778 136.149 21.5705C136.357 21.7793 136.486 21.9881 136.422 22.0684C136.357 22.1327 136.454 22.1327 136.63 22.0684C136.806 22.0042 136.902 22.0042 136.838 22.0524C136.71 22.1809 137.287 22.7751 137.511 22.7751C137.607 22.7751 137.671 22.9036 137.639 23.0643C137.607 23.2409 137.687 23.3373 137.864 23.3212C138.024 23.3052 138.12 23.3534 138.072 23.4176C138.024 23.4818 138.184 23.6585 138.393 23.8031C138.617 23.9476 138.761 24.1243 138.729 24.2046C138.681 24.2689 138.857 24.4937 139.13 24.6865L139.61 25.0398L139.578 36.0419C139.562 42.081 139.498 47.0601 139.434 47.1082C139.37 47.1404 139.178 47.044 139.017 46.8673Z" fill="#631032"/>
<path d="M159.496 34.7894C159.288 34.5806 159.144 34.7412 162.637 31.2077C164.079 29.7461 165.313 28.5575 165.393 28.5575C165.473 28.5575 165.634 28.3969 165.73 28.2042C165.97 27.7384 166.451 27.2565 166.563 27.369C166.611 27.4172 166.723 27.3047 166.835 27.128C166.996 26.8229 168.037 25.7307 168.854 25.0079C169.031 24.8634 169.271 24.6064 169.399 24.4297C169.528 24.2691 169.992 23.8194 170.425 23.45C171.13 22.8396 171.29 22.7754 172.059 22.7754C172.54 22.7754 172.925 22.8557 172.925 22.936C172.925 23.0484 176.049 23.0966 182.411 23.0966C187.619 23.0806 191.929 23.1448 191.993 23.209C192.202 23.4339 192.362 24.1085 192.186 23.9961C192.089 23.9479 191.881 24.0603 191.721 24.2691C191.561 24.4779 191.336 24.6225 191.224 24.5743C191.128 24.5422 190.984 24.6546 190.92 24.8152C190.775 25.2489 190.359 25.6825 189.958 25.8431C189.734 25.9234 189.59 26.1162 189.59 26.3089C189.59 26.4856 189.526 26.6301 189.445 26.6301C189.365 26.6301 189.237 26.7908 189.189 26.9674C189.109 27.2244 189.045 27.2565 188.949 27.112C188.804 26.8711 188.468 27.0317 188.468 27.369C188.468 27.6581 187.971 28.156 187.667 28.156C187.539 28.156 187.41 28.3005 187.378 28.4772C187.298 28.8787 186.801 29.3606 186.465 29.3606C186.337 29.3606 186.144 29.5373 186.064 29.7461C185.984 29.9549 185.728 30.2279 185.471 30.3564C185.231 30.4688 185.007 30.7097 184.975 30.8864C184.927 31.0631 184.814 31.2719 184.686 31.3361C184.558 31.4004 184.462 31.5931 184.462 31.7377C184.462 31.9625 184.43 31.9625 184.318 31.7859C184.141 31.4968 183.821 31.7056 183.821 32.1071C183.821 32.2677 183.757 32.4123 183.693 32.4123C183.613 32.4123 183.468 32.5729 183.372 32.7817C183.276 32.9744 183.196 33.0387 183.196 32.9423C183.164 32.5568 182.844 32.7335 182.683 33.2153C182.587 33.4884 182.443 33.6972 182.363 33.6972C182.283 33.6972 182.219 33.8096 182.219 33.9381C182.219 34.0666 181.898 34.3557 181.53 34.5806L180.824 34.9821H170.265C162.477 34.9821 159.641 34.9339 159.496 34.7894Z" fill="#631032"/>
<path d="M125.14 32.9262C124.9 32.6852 124.548 32.3319 124.339 32.1392C123.762 31.577 123.618 31.4324 122.609 30.4045C122.096 29.8745 121.551 29.3284 121.423 29.1999C121.279 29.0714 120.798 28.5735 120.333 28.1077C119.869 27.6259 119.356 27.128 119.212 26.9834C118.859 26.6461 118.282 26.0679 117.93 25.6985C117.785 25.554 117.577 25.3612 117.481 25.2648C117.385 25.1845 117.144 24.9276 116.936 24.7027C116.728 24.4778 115.943 23.7069 115.173 22.9681L113.795 21.6189V10.8898C113.795 0.289289 113.795 0.144736 114.116 0.0483672C114.565 -0.0961859 115.045 0.0965516 115.157 0.449904C115.206 0.610518 115.366 0.787194 115.494 0.835378C115.622 0.883563 115.702 0.995993 115.638 1.0763C115.542 1.25298 116.087 1.60633 116.263 1.4939C116.311 1.44571 116.327 1.46178 116.279 1.52602C116.247 1.57421 116.375 1.783 116.6 1.97574C116.808 2.18454 116.936 2.39334 116.888 2.44152C116.824 2.48971 116.856 2.53789 116.952 2.53789C117.16 2.53789 117.673 3.01974 117.898 3.42127C118.01 3.59795 118.202 3.72644 118.346 3.72644C118.49 3.71038 118.571 3.7425 118.523 3.80675C118.49 3.87099 118.635 4.04767 118.843 4.20828C119.067 4.3689 119.196 4.56164 119.163 4.64194C119.115 4.70619 119.228 4.80256 119.404 4.8668C119.58 4.93105 119.836 5.15591 119.949 5.39683C120.077 5.63775 120.477 6.00717 120.83 6.23203C121.199 6.45689 121.455 6.71387 121.423 6.8263C121.375 6.92267 121.535 7.13147 121.775 7.29208C122.272 7.61331 122.609 7.93454 122.657 8.11122C122.673 8.17546 122.785 8.22365 122.897 8.22365C123.009 8.20759 123.073 8.22365 123.025 8.27183C122.977 8.32002 123.121 8.49669 123.33 8.67337C123.554 8.85004 123.698 9.04278 123.65 9.12309C123.602 9.18733 123.778 9.38007 124.019 9.52463C124.564 9.87798 125.012 10.3438 124.916 10.4562C124.868 10.4883 125.06 10.6007 125.317 10.6971L125.813 10.8738V22.0365C125.813 28.172 125.749 33.2313 125.685 33.2795C125.605 33.3277 125.365 33.1671 125.14 32.9262Z" fill="#631032"/>
<path d="M42.408 104.685C44.051 104.685 44.609 105.491 44.609 106.514C44.609 108.901 41.571 108.56 41.168 113.458C41.044 114.822 41.013 119.379 41.013 124.959C41.013 131.934 41.106 138.041 41.416 139.87C41.912 143.435 44.826 143.342 44.826 145.45C44.826 146.38 44.051 147.155 42.408 147.155C40.548 147.155 38.192 147 36.208 147C34.1 147 31.744 147.155 29.884 147.155C28.21 147.155 27.466 146.38 27.466 145.45C27.466 143.342 30.411 143.404 30.938 139.87C31.062 138.816 31.31 133.732 31.31 129.95C31.31 128.028 30.876 127.284 29.357 127.284H17.98C16.647 127.284 15.934 127.718 15.934 129.95C15.934 133.825 16.213 138.661 16.399 139.87C16.926 143.435 19.84 143.342 19.84 145.45C19.84 146.38 19.034 147.155 17.391 147.155C15.562 147.155 13.206 147 11.191 147C9.114 147 6.727 147.155 4.898 147.155C3.193 147.155 2.449 146.38 2.449 145.45C2.449 143.342 5.425 143.404 5.921 139.87C6.169 138.165 6.262 130.88 6.262 124.959C6.262 120.774 6.262 114.853 6.169 113.458C5.766 108.591 2.697 108.87 2.697 106.514C2.697 105.491 3.193 104.685 4.929 104.685C6.82 104.685 9.176 104.84 11.191 104.84C13.268 104.84 15.624 104.685 17.391 104.685C19.034 104.685 19.592 105.491 19.592 106.514C19.592 108.498 17.453 108.622 16.554 111.288C16.213 112.063 15.934 115.907 15.934 118.449C15.934 120.96 16.43 121.611 18.042 121.611H29.202C30.69 121.611 31.31 121.084 31.31 118.449C31.31 115.69 30.969 111.877 30.721 111.288C29.977 108.932 27.683 108.374 27.683 106.514C27.683 105.491 28.21 104.685 29.915 104.685C31.806 104.685 34.162 104.84 36.208 104.84C38.285 104.84 40.61 104.685 42.408 104.685ZM64.6176 104.685C66.2606 104.685 66.8186 105.491 66.8186 106.514C66.8186 108.901 63.8426 108.56 63.4086 113.458C63.2536 114.822 63.2226 119.379 63.2226 124.959C63.2226 131.934 63.3776 138.041 63.6256 139.87C64.1836 143.435 67.0666 143.342 67.0666 145.45C67.0666 146.38 66.2606 147.155 64.6176 147.155C62.7886 147.155 60.4326 147 58.4176 147C56.3406 147 53.9536 147.155 52.1246 147.155C50.4196 147.155 49.6756 146.38 49.6756 145.45C49.6756 143.342 52.6516 143.404 53.1476 139.87C53.3956 138.165 53.4886 130.88 53.4886 124.959C53.4886 120.774 53.4886 114.853 53.3956 113.458C52.9926 108.591 49.9236 108.87 49.9236 106.514C49.9236 105.491 50.4196 104.685 52.1556 104.685C54.0466 104.685 56.4026 104.84 58.4176 104.84C60.4946 104.84 62.8506 104.685 64.6176 104.685ZM85.5038 114.636V136.181C85.5038 140.583 86.4958 141.699 90.9598 141.699C99.3298 141.699 102.089 133.949 102.089 126.85C102.089 117.457 98.0898 109.924 89.0998 109.924C85.9378 109.924 85.5038 111.35 85.5038 114.636ZM80.6988 104.84C84.1088 104.84 86.4338 104.654 89.7818 104.654C101.562 104.654 113.063 110.575 113.063 125.672C113.063 138.971 105.437 147.186 92.8508 147.186C89.1928 147.186 84.6358 146.969 80.6988 146.969C78.6218 146.969 76.2348 147.124 74.4058 147.124C72.7008 147.124 71.9568 146.38 71.9568 145.45C71.9568 143.342 74.9328 143.404 75.4288 139.87C75.6768 138.165 75.7698 130.88 75.7698 124.959C75.7698 120.774 75.7698 114.853 75.6768 113.458C75.2738 108.591 72.2048 108.87 72.2048 106.514C72.2048 105.491 72.7008 104.685 74.4368 104.685C76.3278 104.685 78.6838 104.84 80.6988 104.84ZM128.454 129.826H136.638C137.258 129.826 137.382 129.609 137.382 129.268C137.382 128.338 134.747 120.619 133.259 117.736C133.104 117.395 132.825 117.023 132.639 117.023C132.391 117.023 132.205 117.395 132.019 117.736C130.655 120.464 127.741 128.493 127.741 129.268C127.741 129.609 127.896 129.826 128.454 129.826ZM118.317 138.723L127.741 114.171C128.547 111.97 129.074 109.769 129.353 108.126C129.787 105.987 134.53 103.879 136.545 103.879C138.188 103.879 138.746 105.026 139.335 106.607L151.828 138.785C152.2 139.746 152.944 141.358 154.556 142.753C155.176 143.311 156.168 144.086 156.168 145.078C156.168 146.752 154.959 147.155 152.51 147.155C150.836 147.155 149.317 147 146.403 147C143.489 147 141.877 147.155 140.048 147.155C138.219 147.155 137.351 146.442 137.351 145.233C137.351 143.466 141.009 142.815 141.009 139.994C141.009 139.498 140.234 137.173 139.614 136.057C139.397 135.654 138.901 135.344 138.281 135.344H127.524C126.718 135.344 126.129 135.654 125.757 136.057C125.137 136.987 124.114 139.436 124.114 140.49C124.114 143.218 127.338 143.621 127.338 145.388C127.338 146.38 126.749 147.155 124.734 147.155C123.401 147.155 121.138 147 119.712 147C118.255 147 117.325 147.155 115.961 147.155C114.628 147.155 113.915 146.535 113.915 145.419C113.915 143.466 116.426 143.621 118.317 138.723ZM162.231 124.959C162.231 120.774 162.231 114.853 162.138 113.458C161.735 108.591 158.666 108.87 158.666 106.514C158.666 105.491 159.162 104.685 160.898 104.685C162.789 104.685 165.145 104.84 167.16 104.84C169.237 104.84 172.647 104.685 174.445 104.685C176.088 104.685 176.646 105.491 176.646 106.514C176.646 109.149 172.585 108.653 172.151 113.582C171.996 114.915 171.965 119.379 171.965 124.959V137.545C171.965 140.955 173.205 141.575 177.483 141.575C184.272 141.575 186.07 138.971 187.589 134.693C188.333 132.802 188.984 131.934 189.976 131.934C191.061 131.934 191.526 132.957 191.526 134.6C191.526 136.336 191.03 140.273 190.751 144.675C190.627 146.597 189.914 147.155 187.775 147.155C185.202 147.155 180.49 147 175.096 147C166.819 147 162.851 147.155 160.867 147.155C159.286 147.155 158.418 146.566 158.418 145.45C158.418 143.311 161.301 143.435 161.859 139.963C162.138 138.351 162.231 133.019 162.231 124.959ZM214.115 148.054C201.963 148.054 194.182 137.7 194.182 126.075C194.182 114.729 200.909 103.786 214.456 103.786C219.23 103.786 221.462 105.274 223.415 105.274C224.81 105.274 225.709 104.623 226.949 104.623C229.336 104.623 229.398 107.01 230.142 110.699C230.948 114.884 231.382 115.907 231.382 116.775C231.382 118.108 230.607 118.728 229.708 118.728C228.065 118.728 227.228 116.837 225.864 114.884C223.012 110.885 219.261 108.591 215.541 108.591C208.69 108.591 204.753 115.535 204.753 123.161C204.753 133.856 210.984 140.924 217.153 140.924C219.54 140.924 221.648 139.777 222.454 138.537C223.136 137.421 223.26 136.243 223.26 134.011C223.26 128.865 222.113 128.493 220.718 127.501C219.509 126.633 217.99 126.54 217.99 124.959C217.99 123.719 218.889 122.975 220.718 122.975C222.485 122.975 224.717 123.161 226.298 123.161C228.437 123.161 230.39 122.975 232.746 122.975C234.141 122.975 234.73 123.781 234.73 124.835C234.73 127.222 232.839 126.912 232.839 133.329C232.839 136.832 233.149 142.567 233.149 144.644C233.149 146.225 232.684 147.186 231.165 147.186C230.39 147.186 229.646 146.721 228.902 145.884C228.251 145.295 227.631 144.675 227.011 144.675C226.081 144.675 224.934 145.295 223.415 145.946C221.183 146.876 218.052 148.054 214.115 148.054ZM258.06 109.273C254.216 109.273 250.248 113.055 250.248 122.324C250.248 126.54 250.961 131.438 252.821 135.561C254.96 139.994 258.37 141.947 261.439 141.947C265.872 141.947 269.778 138.661 269.778 130.539C269.778 125.951 268.631 120.433 266.74 116.496C264.694 112.001 261.377 109.273 258.06 109.273ZM238.654 126.261C238.654 112.993 247.086 103.817 259.424 103.817C270.832 103.817 280.597 112.094 280.597 126.943C280.597 140.986 271.39 148.054 259.858 148.054C246.59 148.054 238.654 138.94 238.654 126.261Z" fill="#620E31"/>
<path d="M1.4 171V157H7.8C9.08 157 10.18 157.207 11.1 157.62C12.0333 158.033 12.7533 158.633 13.26 159.42C13.7667 160.193 14.02 161.113 14.02 162.18C14.02 163.233 13.7667 164.147 13.26 164.92C12.7533 165.693 12.0333 166.293 11.1 166.72C10.18 167.133 9.08 167.34 7.8 167.34H3.6L5.36 165.62V171H1.4ZM5.36 166.04L3.6 164.22H7.56C8.38667 164.22 9 164.04 9.4 163.68C9.81333 163.32 10.02 162.82 10.02 162.18C10.02 161.527 9.81333 161.02 9.4 160.66C9 160.3 8.38667 160.12 7.56 160.12H3.6L5.36 158.3V166.04ZM18.9508 171V157H25.3508C26.6308 157 27.7308 157.207 28.6508 157.62C29.5841 158.033 30.3041 158.633 30.8108 159.42C31.3174 160.193 31.5708 161.113 31.5708 162.18C31.5708 163.233 31.3174 164.147 30.8108 164.92C30.3041 165.68 29.5841 166.267 28.6508 166.68C27.7308 167.08 26.6308 167.28 25.3508 167.28H21.1508L22.9108 165.62V171H18.9508ZM27.6108 171L24.1308 165.9H28.3508L31.8508 171H27.6108ZM22.9108 166.04L21.1508 164.22H25.1108C25.9374 164.22 26.5508 164.04 26.9508 163.68C27.3641 163.32 27.5708 162.82 27.5708 162.18C27.5708 161.527 27.3641 161.02 26.9508 160.66C26.5508 160.3 25.9374 160.12 25.1108 160.12H21.1508L22.9108 158.3V166.04ZM36.7555 171V157H40.7155V171H36.7555ZM46.5328 171V157H49.7928L55.5928 166.52H53.8728L59.5128 157H62.7728L62.8128 171H59.1728L59.1328 162.54H59.7528L55.5328 169.62H53.7728L49.4328 162.54H50.1928V171H46.5328ZM72.2548 162.42H78.7548V165.38H72.2548V162.42ZM72.5348 167.94H79.8548V171H68.6148V157H79.5948V160.06H72.5348V167.94ZM85.0523 171V157H91.4523C92.7323 157 93.8323 157.207 94.7523 157.62C95.6857 158.033 96.4057 158.633 96.9123 159.42C97.419 160.193 97.6723 161.113 97.6723 162.18C97.6723 163.233 97.419 164.147 96.9123 164.92C96.4057 165.68 95.6857 166.267 94.7523 166.68C93.8323 167.08 92.7323 167.28 91.4523 167.28H87.2523L89.0123 165.62V171H85.0523ZM93.7123 171L90.2323 165.9H94.4523L97.9523 171H93.7123ZM89.0123 166.04L87.2523 164.22H91.2123C92.039 164.22 92.6523 164.04 93.0523 163.68C93.4657 163.32 93.6723 162.82 93.6723 162.18C93.6723 161.527 93.4657 161.02 93.0523 160.66C92.6523 160.3 92.039 160.12 91.2123 160.12H87.2523L89.0123 158.3V166.04ZM109.917 171.28C108.797 171.28 107.764 171.1 106.817 170.74C105.87 170.38 105.044 169.873 104.337 169.22C103.644 168.553 103.104 167.78 102.717 166.9C102.33 166.02 102.137 165.053 102.137 164C102.137 162.947 102.33 161.98 102.717 161.1C103.104 160.22 103.644 159.453 104.337 158.8C105.044 158.133 105.87 157.62 106.817 157.26C107.764 156.9 108.797 156.72 109.917 156.72C111.05 156.72 112.084 156.9 113.017 157.26C113.964 157.62 114.784 158.133 115.477 158.8C116.17 159.453 116.71 160.22 117.097 161.1C117.497 161.98 117.697 162.947 117.697 164C117.697 165.053 117.497 166.027 117.097 166.92C116.71 167.8 116.17 168.567 115.477 169.22C114.784 169.873 113.964 170.38 113.017 170.74C112.084 171.1 111.05 171.28 109.917 171.28ZM109.917 168C110.45 168 110.944 167.907 111.397 167.72C111.864 167.533 112.264 167.267 112.597 166.92C112.944 166.56 113.21 166.133 113.397 165.64C113.597 165.147 113.697 164.6 113.697 164C113.697 163.387 113.597 162.84 113.397 162.36C113.21 161.867 112.944 161.447 112.597 161.1C112.264 160.74 111.864 160.467 111.397 160.28C110.944 160.093 110.45 160 109.917 160C109.384 160 108.884 160.093 108.417 160.28C107.964 160.467 107.564 160.74 107.217 161.1C106.884 161.447 106.617 161.867 106.417 162.36C106.23 162.84 106.137 163.387 106.137 164C106.137 164.6 106.23 165.147 106.417 165.64C106.617 166.133 106.884 166.56 107.217 166.92C107.564 167.267 107.964 167.533 108.417 167.72C108.884 167.907 109.384 168 109.917 168ZM135.231 162.42H141.731V165.38H135.231V162.42ZM135.511 167.94H142.831V171H131.591V157H142.571V160.06H135.511V167.94ZM148.029 171V157H151.989V167.86H158.669V171H148.029ZM172.056 171V157H178.456C179.736 157 180.836 157.207 181.756 157.62C182.69 158.033 183.41 158.633 183.916 159.42C184.423 160.193 184.676 161.113 184.676 162.18C184.676 163.233 184.423 164.147 183.916 164.92C183.41 165.693 182.69 166.293 181.756 166.72C180.836 167.133 179.736 167.34 178.456 167.34H174.256L176.016 165.62V171H172.056ZM176.016 166.04L174.256 164.22H178.216C179.043 164.22 179.656 164.04 180.056 163.68C180.47 163.32 180.676 162.82 180.676 162.18C180.676 161.527 180.47 161.02 180.056 160.66C179.656 160.3 179.043 160.12 178.216 160.12H174.256L176.016 158.3V166.04ZM195.93 171.28C193.864 171.28 192.25 170.713 191.09 169.58C189.93 168.447 189.35 166.84 189.35 164.76V157H193.31V164.64C193.31 165.84 193.544 166.7 194.01 167.22C194.49 167.74 195.144 168 195.97 168C196.797 168 197.444 167.74 197.91 167.22C198.377 166.7 198.61 165.84 198.61 164.64V157H202.51V164.76C202.51 166.84 201.93 168.447 200.77 169.58C199.61 170.713 197.997 171.28 195.93 171.28ZM211.833 162.42H218.333V165.38H211.833V162.42ZM212.113 167.94H219.433V171H208.193V157H219.173V160.06H212.113V167.94ZM224.63 171V157H231.79C233.63 157 235.004 157.34 235.91 158.02C236.817 158.687 237.27 159.567 237.27 160.66C237.27 161.38 237.077 162.013 236.69 162.56C236.317 163.093 235.784 163.52 235.09 163.84C234.41 164.147 233.597 164.3 232.65 164.3L233.05 163.34C234.037 163.34 234.897 163.493 235.63 163.8C236.364 164.093 236.93 164.527 237.33 165.1C237.744 165.66 237.95 166.347 237.95 167.16C237.95 168.373 237.457 169.32 236.47 170C235.497 170.667 234.07 171 232.19 171H224.63ZM228.55 168.14H231.87C232.55 168.14 233.064 168.027 233.41 167.8C233.77 167.56 233.95 167.2 233.95 166.72C233.95 166.24 233.77 165.887 233.41 165.66C233.064 165.42 232.55 165.3 231.87 165.3H228.27V162.56H231.27C231.937 162.56 232.437 162.447 232.77 162.22C233.104 161.993 233.27 161.653 233.27 161.2C233.27 160.747 233.104 160.413 232.77 160.2C232.437 159.973 231.937 159.86 231.27 159.86H228.55V168.14ZM243.002 171V157H246.962V167.86H253.642V171H243.002ZM265.054 171.28C263.934 171.28 262.9 171.1 261.954 170.74C261.007 170.38 260.18 169.873 259.474 169.22C258.78 168.553 258.24 167.78 257.854 166.9C257.467 166.02 257.274 165.053 257.274 164C257.274 162.947 257.467 161.98 257.854 161.1C258.24 160.22 258.78 159.453 259.474 158.8C260.18 158.133 261.007 157.62 261.954 157.26C262.9 156.9 263.934 156.72 265.054 156.72C266.187 156.72 267.22 156.9 268.154 157.26C269.1 157.62 269.92 158.133 270.614 158.8C271.307 159.453 271.847 160.22 272.234 161.1C272.634 161.98 272.834 162.947 272.834 164C272.834 165.053 272.634 166.027 272.234 166.92C271.847 167.8 271.307 168.567 270.614 169.22C269.92 169.873 269.1 170.38 268.154 170.74C267.22 171.1 266.187 171.28 265.054 171.28ZM265.054 168C265.587 168 266.08 167.907 266.534 167.72C267 167.533 267.4 167.267 267.734 166.92C268.08 166.56 268.347 166.133 268.534 165.64C268.734 165.147 268.834 164.6 268.834 164C268.834 163.387 268.734 162.84 268.534 162.36C268.347 161.867 268.08 161.447 267.734 161.1C267.4 160.74 267 160.467 266.534 160.28C266.08 160.093 265.587 160 265.054 160C264.52 160 264.02 160.093 263.554 160.28C263.1 160.467 262.7 160.74 262.354 161.1C262.02 161.447 261.754 161.867 261.554 162.36C261.367 162.84 261.274 163.387 261.274 164C261.274 164.6 261.367 165.147 261.554 165.64C261.754 166.133 262.02 166.56 262.354 166.92C262.7 167.267 263.1 167.533 263.554 167.72C264.02 167.907 264.52 168 265.054 168Z" fill="#B28E5E"/>
</svg>
