<svg width="395" height="119" viewBox="0 0 395 119" fill="none" xmlns="http://www.w3.org/2000/svg">
<path d="M154.408 23.685C156.051 23.685 156.609 24.491 156.609 25.514C156.609 27.901 153.571 27.56 153.168 32.458C153.044 33.822 153.013 38.379 153.013 43.959C153.013 50.934 153.106 57.041 153.416 58.87C153.912 62.435 156.826 62.342 156.826 64.45C156.826 65.38 156.051 66.155 154.408 66.155C152.548 66.155 150.192 66 148.208 66C146.1 66 143.744 66.155 141.884 66.155C140.21 66.155 139.466 65.38 139.466 64.45C139.466 62.342 142.411 62.404 142.938 58.87C143.062 57.816 143.31 52.732 143.31 48.95C143.31 47.028 142.876 46.284 141.357 46.284H129.98C128.647 46.284 127.934 46.718 127.934 48.95C127.934 52.825 128.213 57.661 128.399 58.87C128.926 62.435 131.84 62.342 131.84 64.45C131.84 65.38 131.034 66.155 129.391 66.155C127.562 66.155 125.206 66 123.191 66C121.114 66 118.727 66.155 116.898 66.155C115.193 66.155 114.449 65.38 114.449 64.45C114.449 62.342 117.425 62.404 117.921 58.87C118.169 57.165 118.262 49.88 118.262 43.959C118.262 39.774 118.262 33.853 118.169 32.458C117.766 27.591 114.697 27.87 114.697 25.514C114.697 24.491 115.193 23.685 116.929 23.685C118.82 23.685 121.176 23.84 123.191 23.84C125.268 23.84 127.624 23.685 129.391 23.685C131.034 23.685 131.592 24.491 131.592 25.514C131.592 27.498 129.453 27.622 128.554 30.288C128.213 31.063 127.934 34.907 127.934 37.449C127.934 39.96 128.43 40.611 130.042 40.611H141.202C142.69 40.611 143.31 40.084 143.31 37.449C143.31 34.69 142.969 30.877 142.721 30.288C141.977 27.932 139.683 27.374 139.683 25.514C139.683 24.491 140.21 23.685 141.915 23.685C143.806 23.685 146.162 23.84 148.208 23.84C150.285 23.84 152.61 23.685 154.408 23.685ZM176.618 23.685C178.261 23.685 178.819 24.491 178.819 25.514C178.819 27.901 175.843 27.56 175.409 32.458C175.254 33.822 175.223 38.379 175.223 43.959C175.223 50.934 175.378 57.041 175.626 58.87C176.184 62.435 179.067 62.342 179.067 64.45C179.067 65.38 178.261 66.155 176.618 66.155C174.789 66.155 172.433 66 170.418 66C168.341 66 165.954 66.155 164.125 66.155C162.42 66.155 161.676 65.38 161.676 64.45C161.676 62.342 164.652 62.404 165.148 58.87C165.396 57.165 165.489 49.88 165.489 43.959C165.489 39.774 165.489 33.853 165.396 32.458C164.993 27.591 161.924 27.87 161.924 25.514C161.924 24.491 162.42 23.685 164.156 23.685C166.047 23.685 168.403 23.84 170.418 23.84C172.495 23.84 174.851 23.685 176.618 23.685ZM197.504 33.636V55.181C197.504 59.583 198.496 60.699 202.96 60.699C211.33 60.699 214.089 52.949 214.089 45.85C214.089 36.457 210.09 28.924 201.1 28.924C197.938 28.924 197.504 30.35 197.504 33.636ZM192.699 23.84C196.109 23.84 198.434 23.654 201.782 23.654C213.562 23.654 225.063 29.575 225.063 44.672C225.063 57.971 217.437 66.186 204.851 66.186C201.193 66.186 196.636 65.969 192.699 65.969C190.622 65.969 188.235 66.124 186.406 66.124C184.701 66.124 183.957 65.38 183.957 64.45C183.957 62.342 186.933 62.404 187.429 58.87C187.677 57.165 187.77 49.88 187.77 43.959C187.77 39.774 187.77 33.853 187.677 32.458C187.274 27.591 184.205 27.87 184.205 25.514C184.205 24.491 184.701 23.685 186.437 23.685C188.328 23.685 190.684 23.84 192.699 23.84ZM240.454 48.826H248.638C249.258 48.826 249.382 48.609 249.382 48.268C249.382 47.338 246.747 39.619 245.259 36.736C245.104 36.395 244.825 36.023 244.639 36.023C244.391 36.023 244.205 36.395 244.019 36.736C242.655 39.464 239.741 47.493 239.741 48.268C239.741 48.609 239.896 48.826 240.454 48.826ZM230.317 57.723L239.741 33.171C240.547 30.97 241.074 28.769 241.353 27.126C241.787 24.987 246.53 22.879 248.545 22.879C250.188 22.879 250.746 24.026 251.335 25.607L263.828 57.785C264.2 58.746 264.944 60.358 266.556 61.753C267.176 62.311 268.168 63.086 268.168 64.078C268.168 65.752 266.959 66.155 264.51 66.155C262.836 66.155 261.317 66 258.403 66C255.489 66 253.877 66.155 252.048 66.155C250.219 66.155 249.351 65.442 249.351 64.233C249.351 62.466 253.009 61.815 253.009 58.994C253.009 58.498 252.234 56.173 251.614 55.057C251.397 54.654 250.901 54.344 250.281 54.344H239.524C238.718 54.344 238.129 54.654 237.757 55.057C237.137 55.987 236.114 58.436 236.114 59.49C236.114 62.218 239.338 62.621 239.338 64.388C239.338 65.38 238.749 66.155 236.734 66.155C235.401 66.155 233.138 66 231.712 66C230.255 66 229.325 66.155 227.961 66.155C226.628 66.155 225.915 65.535 225.915 64.419C225.915 62.466 228.426 62.621 230.317 57.723ZM274.231 43.959C274.231 39.774 274.231 33.853 274.138 32.458C273.735 27.591 270.666 27.87 270.666 25.514C270.666 24.491 271.162 23.685 272.898 23.685C274.789 23.685 277.145 23.84 279.16 23.84C281.237 23.84 284.647 23.685 286.445 23.685C288.088 23.685 288.646 24.491 288.646 25.514C288.646 28.149 284.585 27.653 284.151 32.582C283.996 33.915 283.965 38.379 283.965 43.959V56.545C283.965 59.955 285.205 60.575 289.483 60.575C296.272 60.575 298.07 57.971 299.589 53.693C300.333 51.802 300.984 50.934 301.976 50.934C303.061 50.934 303.526 51.957 303.526 53.6C303.526 55.336 303.03 59.273 302.751 63.675C302.627 65.597 301.914 66.155 299.775 66.155C297.202 66.155 292.49 66 287.096 66C278.819 66 274.851 66.155 272.867 66.155C271.286 66.155 270.418 65.566 270.418 64.45C270.418 62.311 273.301 62.435 273.859 58.963C274.138 57.351 274.231 52.019 274.231 43.959ZM326.115 67.054C313.963 67.054 306.182 56.7 306.182 45.075C306.182 33.729 312.909 22.786 326.456 22.786C331.23 22.786 333.462 24.274 335.415 24.274C336.81 24.274 337.709 23.623 338.949 23.623C341.336 23.623 341.398 26.01 342.142 29.699C342.948 33.884 343.382 34.907 343.382 35.775C343.382 37.108 342.607 37.728 341.708 37.728C340.065 37.728 339.228 35.837 337.864 33.884C335.012 29.885 331.261 27.591 327.541 27.591C320.69 27.591 316.753 34.535 316.753 42.161C316.753 52.856 322.984 59.924 329.153 59.924C331.54 59.924 333.648 58.777 334.454 57.537C335.136 56.421 335.26 55.243 335.26 53.011C335.26 47.865 334.113 47.493 332.718 46.501C331.509 45.633 329.99 45.54 329.99 43.959C329.99 42.719 330.889 41.975 332.718 41.975C334.485 41.975 336.717 42.161 338.298 42.161C340.437 42.161 342.39 41.975 344.746 41.975C346.141 41.975 346.73 42.781 346.73 43.835C346.73 46.222 344.839 45.912 344.839 52.329C344.839 55.832 345.149 61.567 345.149 63.644C345.149 65.225 344.684 66.186 343.165 66.186C342.39 66.186 341.646 65.721 340.902 64.884C340.251 64.295 339.631 63.675 339.011 63.675C338.081 63.675 336.934 64.295 335.415 64.946C333.183 65.876 330.052 67.054 326.115 67.054ZM370.06 28.273C366.216 28.273 362.248 32.055 362.248 41.324C362.248 45.54 362.961 50.438 364.821 54.561C366.96 58.994 370.37 60.947 373.439 60.947C377.872 60.947 381.778 57.661 381.778 49.539C381.778 44.951 380.631 39.433 378.74 35.496C376.694 31.001 373.377 28.273 370.06 28.273ZM350.654 45.261C350.654 31.993 359.086 22.817 371.424 22.817C382.832 22.817 392.597 31.094 392.597 45.943C392.597 59.986 383.39 67.054 371.858 67.054C358.59 67.054 350.654 57.94 350.654 45.261Z" fill="#620E31"/>
<path d="M113.4 90V76H119.8C121.08 76 122.18 76.2067 123.1 76.62C124.033 77.0333 124.753 77.6333 125.26 78.42C125.767 79.1933 126.02 80.1133 126.02 81.18C126.02 82.2333 125.767 83.1467 125.26 83.92C124.753 84.6933 124.033 85.2933 123.1 85.72C122.18 86.1333 121.08 86.34 119.8 86.34H115.6L117.36 84.62V90H113.4ZM117.36 85.04L115.6 83.22H119.56C120.387 83.22 121 83.04 121.4 82.68C121.813 82.32 122.02 81.82 122.02 81.18C122.02 80.5267 121.813 80.02 121.4 79.66C121 79.3 120.387 79.12 119.56 79.12H115.6L117.36 77.3V85.04ZM130.951 90V76H137.351C138.631 76 139.731 76.2067 140.651 76.62C141.584 77.0333 142.304 77.6333 142.811 78.42C143.317 79.1933 143.571 80.1133 143.571 81.18C143.571 82.2333 143.317 83.1467 142.811 83.92C142.304 84.68 141.584 85.2667 140.651 85.68C139.731 86.08 138.631 86.28 137.351 86.28H133.151L134.911 84.62V90H130.951ZM139.611 90L136.131 84.9H140.351L143.851 90H139.611ZM134.911 85.04L133.151 83.22H137.111C137.937 83.22 138.551 83.04 138.951 82.68C139.364 82.32 139.571 81.82 139.571 81.18C139.571 80.5267 139.364 80.02 138.951 79.66C138.551 79.3 137.937 79.12 137.111 79.12H133.151L134.911 77.3V85.04ZM148.755 90V76H152.715V90H148.755ZM158.533 90V76H161.793L167.593 85.52H165.873L171.513 76H174.773L174.813 90H171.173L171.133 81.54H171.753L167.533 88.62H165.773L161.433 81.54H162.193V90H158.533ZM184.255 81.42H190.755V84.38H184.255V81.42ZM184.535 86.94H191.855V90H180.615V76H191.595V79.06H184.535V86.94ZM197.052 90V76H203.452C204.732 76 205.832 76.2067 206.752 76.62C207.686 77.0333 208.406 77.6333 208.912 78.42C209.419 79.1933 209.672 80.1133 209.672 81.18C209.672 82.2333 209.419 83.1467 208.912 83.92C208.406 84.68 207.686 85.2667 206.752 85.68C205.832 86.08 204.732 86.28 203.452 86.28H199.252L201.012 84.62V90H197.052ZM205.712 90L202.232 84.9H206.452L209.952 90H205.712ZM201.012 85.04L199.252 83.22H203.212C204.039 83.22 204.652 83.04 205.052 82.68C205.466 82.32 205.672 81.82 205.672 81.18C205.672 80.5267 205.466 80.02 205.052 79.66C204.652 79.3 204.039 79.12 203.212 79.12H199.252L201.012 77.3V85.04ZM221.917 90.28C220.797 90.28 219.764 90.1 218.817 89.74C217.87 89.38 217.044 88.8733 216.337 88.22C215.644 87.5533 215.104 86.78 214.717 85.9C214.33 85.02 214.137 84.0533 214.137 83C214.137 81.9467 214.33 80.98 214.717 80.1C215.104 79.22 215.644 78.4533 216.337 77.8C217.044 77.1333 217.87 76.62 218.817 76.26C219.764 75.9 220.797 75.72 221.917 75.72C223.05 75.72 224.084 75.9 225.017 76.26C225.964 76.62 226.784 77.1333 227.477 77.8C228.17 78.4533 228.71 79.22 229.097 80.1C229.497 80.98 229.697 81.9467 229.697 83C229.697 84.0533 229.497 85.0267 229.097 85.92C228.71 86.8 228.17 87.5667 227.477 88.22C226.784 88.8733 225.964 89.38 225.017 89.74C224.084 90.1 223.05 90.28 221.917 90.28ZM221.917 87C222.45 87 222.944 86.9067 223.397 86.72C223.864 86.5333 224.264 86.2667 224.597 85.92C224.944 85.56 225.21 85.1333 225.397 84.64C225.597 84.1467 225.697 83.6 225.697 83C225.697 82.3867 225.597 81.84 225.397 81.36C225.21 80.8667 224.944 80.4467 224.597 80.1C224.264 79.74 223.864 79.4667 223.397 79.28C222.944 79.0933 222.45 79 221.917 79C221.384 79 220.884 79.0933 220.417 79.28C219.964 79.4667 219.564 79.74 219.217 80.1C218.884 80.4467 218.617 80.8667 218.417 81.36C218.23 81.84 218.137 82.3867 218.137 83C218.137 83.6 218.23 84.1467 218.417 84.64C218.617 85.1333 218.884 85.56 219.217 85.92C219.564 86.2667 219.964 86.5333 220.417 86.72C220.884 86.9067 221.384 87 221.917 87ZM247.231 81.42H253.731V84.38H247.231V81.42ZM247.511 86.94H254.831V90H243.591V76H254.571V79.06H247.511V86.94ZM260.029 90V76H263.989V86.86H270.669V90H260.029ZM284.056 90V76H290.456C291.736 76 292.836 76.2067 293.756 76.62C294.69 77.0333 295.41 77.6333 295.916 78.42C296.423 79.1933 296.676 80.1133 296.676 81.18C296.676 82.2333 296.423 83.1467 295.916 83.92C295.41 84.6933 294.69 85.2933 293.756 85.72C292.836 86.1333 291.736 86.34 290.456 86.34H286.256L288.016 84.62V90H284.056ZM288.016 85.04L286.256 83.22H290.216C291.043 83.22 291.656 83.04 292.056 82.68C292.47 82.32 292.676 81.82 292.676 81.18C292.676 80.5267 292.47 80.02 292.056 79.66C291.656 79.3 291.043 79.12 290.216 79.12H286.256L288.016 77.3V85.04ZM307.93 90.28C305.864 90.28 304.25 89.7133 303.09 88.58C301.93 87.4467 301.35 85.84 301.35 83.76V76H305.31V83.64C305.31 84.84 305.544 85.7 306.01 86.22C306.49 86.74 307.144 87 307.97 87C308.797 87 309.444 86.74 309.91 86.22C310.377 85.7 310.61 84.84 310.61 83.64V76H314.51V83.76C314.51 85.84 313.93 87.4467 312.77 88.58C311.61 89.7133 309.997 90.28 307.93 90.28ZM323.833 81.42H330.333V84.38H323.833V81.42ZM324.113 86.94H331.433V90H320.193V76H331.173V79.06H324.113V86.94ZM336.63 90V76H343.79C345.63 76 347.004 76.34 347.91 77.02C348.817 77.6867 349.27 78.5667 349.27 79.66C349.27 80.38 349.077 81.0133 348.69 81.56C348.317 82.0933 347.784 82.52 347.09 82.84C346.41 83.1467 345.597 83.3 344.65 83.3L345.05 82.34C346.037 82.34 346.897 82.4933 347.63 82.8C348.364 83.0933 348.93 83.5267 349.33 84.1C349.744 84.66 349.95 85.3467 349.95 86.16C349.95 87.3733 349.457 88.32 348.47 89C347.497 89.6667 346.07 90 344.19 90H336.63ZM340.55 87.14H343.87C344.55 87.14 345.064 87.0267 345.41 86.8C345.77 86.56 345.95 86.2 345.95 85.72C345.95 85.24 345.77 84.8867 345.41 84.66C345.064 84.42 344.55 84.3 343.87 84.3H340.27V81.56H343.27C343.937 81.56 344.437 81.4467 344.77 81.22C345.104 80.9933 345.27 80.6533 345.27 80.2C345.27 79.7467 345.104 79.4133 344.77 79.2C344.437 78.9733 343.937 78.86 343.27 78.86H340.55V87.14ZM355.002 90V76H358.962V86.86H365.642V90H355.002ZM377.054 90.28C375.934 90.28 374.9 90.1 373.954 89.74C373.007 89.38 372.18 88.8733 371.474 88.22C370.78 87.5533 370.24 86.78 369.854 85.9C369.467 85.02 369.274 84.0533 369.274 83C369.274 81.9467 369.467 80.98 369.854 80.1C370.24 79.22 370.78 78.4533 371.474 77.8C372.18 77.1333 373.007 76.62 373.954 76.26C374.9 75.9 375.934 75.72 377.054 75.72C378.187 75.72 379.22 75.9 380.154 76.26C381.1 76.62 381.92 77.1333 382.614 77.8C383.307 78.4533 383.847 79.22 384.234 80.1C384.634 80.98 384.834 81.9467 384.834 83C384.834 84.0533 384.634 85.0267 384.234 85.92C383.847 86.8 383.307 87.5667 382.614 88.22C381.92 88.8733 381.1 89.38 380.154 89.74C379.22 90.1 378.187 90.28 377.054 90.28ZM377.054 87C377.587 87 378.08 86.9067 378.534 86.72C379 86.5333 379.4 86.2667 379.734 85.92C380.08 85.56 380.347 85.1333 380.534 84.64C380.734 84.1467 380.834 83.6 380.834 83C380.834 82.3867 380.734 81.84 380.534 81.36C380.347 80.8667 380.08 80.4467 379.734 80.1C379.4 79.74 379 79.4667 378.534 79.28C378.08 79.0933 377.587 79 377.054 79C376.52 79 376.02 79.0933 375.554 79.28C375.1 79.4667 374.7 79.74 374.354 80.1C374.02 80.4467 373.754 80.8667 373.554 81.36C373.367 81.84 373.274 82.3867 373.274 83C373.274 83.6 373.367 84.1467 373.554 84.64C373.754 85.1333 374.02 85.56 374.354 85.92C374.7 86.2667 375.1 86.5333 375.554 86.72C376.02 86.9067 376.52 87 377.054 87Z" fill="#B28E5E"/>
<path d="M23.1229 101.686C22.9626 101.621 22.9146 99.3245 22.9146 90.9083V80.1953L23.5235 79.6171C23.8439 79.2959 24.1965 78.9426 24.3086 78.8301C24.4048 78.7177 24.6291 78.4928 24.8054 78.3162C24.9817 78.1395 25.19 77.9307 25.2541 77.8504C25.3342 77.7701 25.6226 77.497 25.879 77.24C26.1514 76.9831 26.4399 76.6939 26.52 76.5976C26.6161 76.5012 27.1129 75.9872 27.6417 75.4572C28.1705 74.9272 28.6832 74.4293 28.7633 74.3329C28.8595 74.2526 29.1479 73.9635 29.4043 73.7065C29.6767 73.4495 29.9652 73.1604 30.0613 73.048C30.1735 72.9356 30.3978 72.7107 30.5741 72.534C30.7503 72.3574 30.9586 72.1486 31.0388 72.0683C31.1029 71.9879 31.3913 71.7149 31.6477 71.4579C31.9201 71.2009 32.2246 70.8958 32.3367 70.7673C33.3302 69.7072 34.7403 68.4223 34.8365 68.5026C34.8846 68.5508 34.9326 73.5298 34.9326 79.5529V90.5068L34.3718 91.085C34.0513 91.4223 33.7308 91.6793 33.6507 91.6793C33.5706 91.6793 33.4744 91.8238 33.4103 92.0005C33.3623 92.1772 33.1059 92.4342 32.8495 92.5787C32.6091 92.7393 32.3207 93.0124 32.2246 93.2212C32.1444 93.4139 31.856 93.703 31.5836 93.8636C31.3112 94.0243 31.0868 94.2491 31.0868 94.3615C31.0868 94.474 30.8305 94.731 30.526 94.9237C30.2215 95.1325 29.9652 95.3734 29.9652 95.4858C29.9652 95.5822 29.6767 95.8713 29.3242 96.1283C28.9717 96.3692 28.6832 96.6423 28.6832 96.7065C28.6832 96.8832 27.3532 98.1842 26.8405 98.5215C26.6161 98.666 26.4399 98.8748 26.4399 99.0033C26.4399 99.1157 26.1514 99.4048 25.7989 99.6618C25.4464 99.9027 25.1579 100.192 25.1579 100.304C25.1579 100.401 24.9176 100.642 24.6131 100.818C24.3247 101.011 24.0362 101.3 23.9882 101.477C23.908 101.782 23.5555 101.862 23.1229 101.686Z" fill="#9B2149"/>
<path d="M76.9156 100.995C76.515 100.545 76.0983 100.095 75.9702 99.983C74.8004 98.9069 71.3071 95.3252 71.3071 95.2128C71.3071 95.1164 71.227 95.0522 71.1469 95.0522C71.0508 95.0522 70.0092 94.0885 68.8234 92.8999C67.1569 91.2456 66.6602 90.6513 66.6602 90.3301C66.6602 89.7037 67.1088 89.8001 67.8139 90.5871C68.1504 90.9565 68.4228 91.3259 68.4228 91.3902C68.4228 91.4544 68.519 91.5187 68.6471 91.5187C68.7753 91.5187 69.0157 91.7435 69.1759 92.0005C69.3202 92.2735 69.5765 92.5145 69.7208 92.5627C69.849 92.6108 70.0573 92.8196 70.1694 93.0124C70.2816 93.2212 70.57 93.5103 70.8104 93.6548C71.0508 93.7994 71.3392 94.0885 71.4674 94.3133C71.5796 94.5382 71.7398 94.7309 71.8039 94.7309C71.9 94.7309 73.4063 96.1925 74.0633 96.9153C74.2075 97.092 74.8004 97.6863 75.3773 98.2484C75.9541 98.8106 76.4349 99.3245 76.4349 99.3888C76.4349 99.453 76.5791 99.5494 76.7553 99.5976C76.9316 99.6458 77.0758 99.7742 77.0758 99.9027C77.0758 100.015 77.22 100.208 77.3963 100.32L77.7168 100.513L77.6847 90.3783C77.6527 82.4279 77.5886 80.2114 77.4444 80.1471C77.2361 80.0829 77.1399 78.9907 77.3322 78.9907C77.3803 78.9907 77.7008 79.2638 78.0533 79.585L78.6782 80.1793V90.7156C78.6622 101.846 78.6782 101.798 77.9411 101.798C77.7809 101.798 77.3162 101.429 76.9156 100.995Z" fill="#9B2149"/>
<path d="M36.6469 88.2583C36.5347 87.921 36.5027 71.4099 36.6309 68.8079C36.711 66.8163 36.7911 66.2541 36.9994 66.0775C37.2558 65.8365 37.7846 65.3065 38.1051 64.9853C38.2974 64.7765 39.1787 63.8931 39.387 63.7004C39.6274 63.4755 40.2203 62.8652 40.3485 62.7206C40.4126 62.6564 40.685 62.3994 40.9413 62.1424C41.2138 61.8854 41.5182 61.5803 41.6304 61.4518C41.8707 61.2108 43.6815 59.3798 43.8738 59.2032C44.0981 58.9783 45.9088 57.1634 46.0691 56.9867C46.1652 56.9064 46.4536 56.6173 46.71 56.3603C46.9824 56.1033 47.2709 55.8142 47.351 55.7178C47.6875 55.3484 48.4246 54.722 48.4887 54.7702C48.5207 54.8023 48.5688 59.7011 48.6169 65.6599C48.697 77.5132 48.7291 77.0796 47.7516 77.6578C47.4952 77.8023 47.2709 78.0272 47.2709 78.1396C47.2709 78.252 47.0145 78.509 46.71 78.7018C46.4056 78.9106 46.1492 79.1675 46.1492 79.28C46.1492 79.3924 45.8928 79.6333 45.5883 79.81C45.2839 79.9867 44.9954 80.2758 44.9474 80.4525C44.8993 80.6131 44.6429 80.8701 44.4026 81.0146C44.1622 81.1592 43.9058 81.4322 43.8097 81.6089C43.7295 81.8016 43.4571 82.0586 43.2007 82.1871C42.9444 82.2995 42.704 82.5405 42.672 82.7011C42.6239 82.8617 42.3354 83.1508 42.047 83.3435C41.7426 83.5202 41.5022 83.7772 41.5022 83.9057C41.5022 84.0181 41.2458 84.2912 40.9413 84.4839C40.6369 84.6927 40.3805 84.9497 40.3805 85.0621C40.3805 85.1745 40.1241 85.4155 39.8197 85.5921C39.5152 85.7688 39.2268 86.0579 39.1787 86.2185C39.1306 86.3952 38.8422 86.6682 38.5538 86.861C38.2493 87.0377 37.9769 87.3107 37.9448 87.4713C37.8327 87.8568 36.743 88.5153 36.6469 88.2583Z" fill="#9B2149"/>
<path d="M58.4236 82.476C53.1677 77.2078 52.6069 76.5975 52.671 76.212C52.7671 75.7141 53.312 75.6017 53.4722 76.0514C53.5363 76.196 53.6965 76.4369 53.8247 76.5814C53.9689 76.726 54.1933 76.999 54.3215 77.1918C54.4497 77.3845 54.6099 77.5451 54.658 77.5451C54.7701 77.5451 56.4527 79.2155 58.3595 81.2071C58.5679 81.4159 58.8723 81.705 59.0326 81.8496C60.0261 82.733 60.5709 83.4397 60.5709 83.8733C60.5709 84.2267 60.635 84.2909 61.0195 84.2909C61.3561 84.2909 61.7086 84.5158 62.3816 85.1904C62.8783 85.6722 63.295 86.138 63.327 86.2022C63.4232 86.411 64.3846 87.0214 64.641 87.0214C64.7852 87.0214 64.8974 87.1499 64.8974 87.3105C64.8974 87.8405 64.7051 88.3063 64.4808 88.3063C64.3686 88.3063 61.6445 85.6883 58.4236 82.476Z" fill="#9B2149"/>
<path d="M99.9901 78.8945C99.862 78.8624 95.263 78.8142 89.7668 78.7981C80.4087 78.7499 79.7677 78.7339 79.6235 78.4608C79.5274 78.3163 79.3671 78.1075 79.271 78.0272C79.1588 77.9308 78.9345 77.7381 78.7422 77.5774C78.5659 77.4329 78.3256 77.1438 78.2134 76.951C78.1173 76.7423 77.941 76.5816 77.8288 76.5816C77.6045 76.5816 77.0757 76.0195 77.0757 75.7786C77.0757 75.6983 76.8834 75.5376 76.643 75.4252C76.4027 75.3128 76.0982 75.0076 75.986 74.7667C75.8739 74.5258 75.6976 74.333 75.6015 74.333C75.5214 74.333 75.0086 73.8833 74.4958 73.3372C73.967 72.7751 73.4703 72.2611 73.3741 72.1647C73.294 72.0844 72.7812 71.5865 72.2524 71.0726C71.7397 70.5586 71.307 70.0607 71.307 69.9964C71.307 69.9161 71.1147 69.7555 70.8744 69.6431C70.634 69.5307 70.3295 69.2255 70.2174 68.9846C70.1052 68.7436 69.945 68.5509 69.8809 68.5509C69.6886 68.5509 68.9675 67.8603 68.7752 67.5069C68.663 67.266 68.663 67.1054 68.8233 66.8966C68.9995 66.6396 69.7367 66.6235 79.4312 66.6235C88.5009 66.6235 89.8789 66.6557 90.0552 66.8645C90.1674 66.9929 90.4238 67.1054 90.6321 67.1054C90.8885 67.1054 91.0807 67.266 91.257 67.5872C91.4012 67.8603 91.6095 68.0691 91.7377 68.0691C91.882 68.0691 92.1864 68.3582 92.4268 68.7115C92.6671 69.0488 92.9075 69.3379 92.9716 69.354C93.0998 69.354 94.7022 70.928 94.7022 71.0565C94.7022 71.201 95.0868 71.5383 95.3912 71.6508C95.5354 71.699 95.7438 71.9238 95.8399 72.1326C95.936 72.3414 96.2085 72.6305 96.4488 72.7751C96.6892 72.9196 96.9776 73.2087 97.1058 73.4336C97.218 73.6585 97.3782 73.8512 97.4423 73.8512C97.5385 73.8512 98.9486 75.2164 99.5254 75.8749C99.6857 76.0516 99.9741 76.3407 100.166 76.5174C100.887 77.1598 101.224 77.6256 101.304 78.0914C101.384 78.4769 101.32 78.5733 100.855 78.766C100.567 78.8945 100.295 78.9748 100.279 78.9748C100.247 78.9587 100.118 78.9266 99.9901 78.8945Z" fill="#9B2149"/>
<path d="M0 78.0432C0 77.9469 9.83879 68.0048 11.0727 66.8645C11.281 66.6557 12.8513 66.6235 21.9049 66.6235C31.3592 66.6235 32.5129 66.6557 32.593 66.8805C32.6411 67.009 32.7533 67.0893 32.8334 67.0251C32.9135 66.9769 33.0417 67.0251 33.0898 67.1214C33.1539 67.2178 32.8975 67.5872 32.5129 67.9566L31.8078 68.5991L31.7598 68.1012L31.7117 67.5872H21.5684H11.4252L9.27795 69.7555C8.09217 70.9441 7.03458 71.9238 6.93843 71.9238C6.82626 71.9238 6.73012 72.0041 6.73012 72.1166C6.73012 72.3414 4.95145 74.1724 4.72711 74.1724C4.63096 74.1724 4.48675 74.333 4.40663 74.5418C4.31048 74.7346 4.08614 74.9594 3.89386 75.0558C3.68554 75.1361 3.5253 75.2807 3.5253 75.377C3.5253 75.4573 2.91639 76.1319 2.17928 76.8707C1.18578 77.8505 0.737108 78.1878 0.416626 78.1878C0.192289 78.1878 0 78.1235 0 78.0432Z" fill="#9B2149"/>
<path d="M74.3838 77.0633C74.1594 76.8384 74.0312 76.5332 74.0312 76.1799V75.6338L74.544 76.1156C74.8325 76.3726 75.2331 76.7581 75.4414 76.983L75.8099 77.3845H75.2651C74.9446 77.3845 74.5921 77.256 74.3838 77.0633Z" fill="#9B2149"/>
<path d="M71.6279 74.1243C71.6279 74.0279 71.4196 73.8352 71.1472 73.7227C70.7466 73.5461 70.6665 73.4176 70.6665 72.9518C70.6665 72.47 70.6986 72.4218 70.9549 72.5503C71.0992 72.6306 71.5799 73.0803 72.0125 73.5139L72.7977 74.3331H72.2208C71.8523 74.3331 71.6279 74.2528 71.6279 74.1243Z" fill="#9B2149"/>
<path d="M68.6151 71.2813C68.4228 71.0886 68.2626 70.7995 68.2626 70.6388C68.2626 70.43 68.1504 70.3176 67.9741 70.3176C67.8139 70.3176 67.4614 70.1088 67.1729 69.8358C66.7243 69.4342 66.6602 69.2897 66.7723 68.8881L66.9005 68.4224L68.4869 70.0124L70.0893 71.6025H69.5285C69.176 71.6025 68.8234 71.474 68.6151 71.2813Z" fill="#9B2149"/>
<path d="M72.7496 64.8569L66.0836 64.7766L65.5387 64.2466C63.1672 61.998 62.0134 60.8255 62.0134 60.7131C62.0134 60.6328 61.8372 60.4882 61.6128 60.3918C61.4045 60.2955 61.1161 59.9903 60.9719 59.7173C60.8437 59.4603 60.6193 59.2354 60.5072 59.2354C60.395 59.2354 60.1546 59.0427 59.9944 58.8178C59.8342 58.5769 59.5938 58.3038 59.4816 58.2075C59.1131 57.9023 58.7445 57.5329 58.4721 57.2117C58.3279 57.0511 58.0555 56.7941 57.8952 56.6656C57.719 56.5371 57.4946 56.264 57.3825 56.0713C57.2863 55.8625 57.094 55.7019 56.9658 55.7019C56.8537 55.7019 56.5973 55.4449 56.405 55.1397C56.2127 54.8346 55.9884 54.5776 55.9083 54.5776C55.6839 54.5776 55.1231 54.0476 55.1231 53.8227C55.1231 53.6942 54.9468 53.5175 54.7225 53.4212C53.6489 52.9393 54.434 52.8911 65.4907 52.843C76.4832 52.8108 76.5473 52.8108 76.9799 53.1481C77.2043 53.3248 77.3966 53.5657 77.3966 53.6781C77.3966 53.7906 77.5728 53.9833 77.7972 54.0957C78.0215 54.2242 78.358 54.5615 78.5343 54.8506C78.7105 55.1397 78.9669 55.3807 79.0951 55.3807C79.2233 55.3807 79.4797 55.6376 79.656 55.9428C79.8483 56.248 80.0726 56.505 80.1687 56.505C80.361 56.505 82.2038 58.4163 82.2038 58.6251C82.2038 58.6893 82.2839 58.7536 82.3961 58.7536C82.5884 58.7536 83.4857 59.7012 83.4857 59.91C83.4857 59.9742 83.5498 60.0385 83.646 60.0385C83.8383 60.0385 85.7291 61.9498 85.7291 62.1586C85.7291 62.2228 85.8092 62.2871 85.9054 62.2871C86.0977 62.2871 87.9725 64.1984 87.9725 64.4072C87.9725 64.4714 88.0846 64.5357 88.2128 64.5357C88.5493 64.5357 88.5173 64.8569 88.1808 64.873C87.2674 64.9372 78.4381 64.9212 72.7496 64.8569Z" fill="#9B2149"/>
<path d="M13.3963 64.5033C13.5565 64.3105 16.2485 61.5962 19.3412 58.4802C23.7799 54.0312 25.0778 52.8105 25.3983 52.8105C25.6867 52.8105 25.7989 52.8909 25.7989 53.1318C25.7989 53.3085 25.7028 53.453 25.5906 53.453C25.4784 53.453 25.3022 53.5976 25.19 53.7742C25.0778 53.9509 24.8855 54.0955 24.7573 54.0955C24.6291 54.0955 24.517 54.1918 24.517 54.3043C24.517 54.5612 23.6837 55.3804 23.4273 55.3804C23.3152 55.3804 23.2351 55.4607 23.2351 55.541C23.2351 55.798 22.2576 56.8259 22.0012 56.8259C21.889 56.8259 21.7929 56.9223 21.7929 57.0347C21.7929 57.2596 20.1264 58.9139 19.9181 58.9139C19.8379 58.9139 19.7098 59.0745 19.6296 59.2833C19.5335 59.476 19.3091 59.7009 19.1169 59.7973C18.9085 59.8776 18.7483 60.0382 18.7483 60.1346C18.7483 60.3594 17.899 61.1625 17.6587 61.1625C17.5465 61.1625 17.4664 61.2267 17.4664 61.3231C17.4664 61.564 16.7934 62.2868 16.553 62.2868C16.4408 62.2868 16.3447 62.3671 16.3447 62.4635C16.3447 62.5598 15.864 63.1381 15.2711 63.7484C14.3417 64.696 14.1013 64.8566 13.6366 64.8566H13.0918L13.3963 64.5033Z" fill="#9B2149"/>
<path d="M62.1733 64.632C62.1733 64.5035 61.997 64.359 61.7727 64.3108C61.356 64.1983 61.1477 63.7165 61.2439 63.1062C61.2919 62.801 61.4362 62.8974 62.3335 63.8129L63.359 64.8569H62.7662C62.3656 64.8569 62.1733 64.7766 62.1733 64.632Z" fill="#9B2149"/>
<path d="M57.0137 59.701C56.8535 59.6207 56.7253 59.3959 56.7253 59.2353C56.7253 59.0586 56.6452 58.914 56.549 58.914C56.4529 58.914 56.2766 58.8177 56.1644 58.7213C56.0363 58.6089 55.8279 58.4161 55.6837 58.3037C55.5555 58.1913 55.4434 57.8379 55.4434 57.5167V56.9385L56.4529 57.8861C56.9977 58.4001 57.6547 59.0746 57.895 59.3638L58.3597 59.8777H57.8149C57.5265 59.8777 57.1579 59.7974 57.0137 59.701Z" fill="#9B2149"/>
<path d="M52.7192 55.9108C52.7192 55.2522 52.8955 54.7383 53.1038 54.7383C53.216 54.7383 53.5365 54.9953 53.8409 55.3004L54.3857 55.8626H53.9531C53.6807 55.8626 53.5204 55.9429 53.5204 56.1035C53.5204 56.2481 53.3762 56.3444 53.1198 56.3444C52.7833 56.3444 52.7192 56.2641 52.7192 55.9108Z" fill="#9B2149"/>
<path d="M24.5006 48.49C24.2763 48.2651 24.0359 47.9439 23.9879 47.7833C23.9238 47.6387 23.6994 47.4299 23.4911 47.3496C23.2668 47.2693 22.9784 46.9802 22.8341 46.7072C22.7059 46.4502 22.4816 46.2253 22.3374 46.2253C22.2092 46.2253 21.9528 45.9683 21.7766 45.6632C21.6003 45.358 21.3119 45.0689 21.1356 45.0207C20.9753 44.9725 20.719 44.7316 20.5747 44.4907C20.4466 44.2498 20.11 43.9285 19.8537 43.784C19.5973 43.6234 19.389 43.3985 19.389 43.27C19.389 43.1255 19.1806 42.9167 18.9082 42.7721C18.6519 42.6436 18.3153 42.3063 18.1872 42.0493C18.0429 41.7763 17.8346 41.5675 17.6904 41.5675C17.5622 41.5675 17.3058 41.3105 17.1296 41.0053C16.9533 40.7002 16.6649 40.4111 16.4886 40.3629C16.3284 40.2986 16.072 40.0577 15.9598 39.8168C15.8316 39.5759 15.5432 39.3028 15.3188 39.1904C15.0785 39.094 14.8221 38.821 14.7099 38.5961C14.6138 38.3873 14.4055 38.1625 14.2452 38.1143C13.9728 38.0179 13.2998 37.2309 13.2998 37.006C13.2998 36.9579 18.2993 36.9097 24.4045 36.9097H35.4932L36.7751 38.1946C37.4802 38.9173 38.7781 40.1862 39.6434 41.0535C40.5247 41.9048 41.3099 42.7079 41.4061 42.8363C41.5022 42.9488 42.015 43.4627 42.5278 43.9606C43.0566 44.4586 43.5533 44.9565 43.6494 45.0689C44.05 45.5668 45.6525 47.189 45.7326 47.189C45.8447 47.189 47.1747 48.6185 47.2388 48.8112C47.2709 48.8915 42.5919 48.9558 36.1021 48.9397L24.9173 48.9236L24.5006 48.49Z" fill="#9B2149"/>
<path d="M75.7939 48.6505C75.7939 48.4739 75.8741 48.2811 75.9702 48.2329C76.0503 48.1687 76.1945 47.9438 76.2747 47.735C76.3708 47.5102 76.5631 47.3496 76.7394 47.3496C76.9317 47.3496 77.14 47.1408 77.3002 46.8035C77.4765 46.418 77.7008 46.2253 78.0213 46.145C78.3898 46.0646 78.518 45.9201 78.5982 45.5667C78.6623 45.2616 78.8545 45.0206 79.0789 44.9403C79.2872 44.86 79.5436 44.587 79.6718 44.3461C79.816 44.057 80.0243 43.8803 80.2967 43.8482C80.6172 43.816 80.7614 43.6715 80.8576 43.286C80.9697 42.9166 81.146 42.7399 81.5145 42.6275C81.8991 42.5311 82.0433 42.3866 82.0754 42.0653C82.1074 41.7762 82.2356 41.6317 82.476 41.5996C82.6843 41.5674 82.9247 41.3265 83.0689 41.0053C83.2131 40.7001 83.5336 40.3628 83.7579 40.2504C83.9983 40.138 84.2867 39.8649 84.3829 39.6561C84.495 39.4473 84.7354 39.2064 84.9437 39.094C85.152 38.9976 85.4244 38.7085 85.5366 38.4676C85.6808 38.1785 85.8731 38.0339 86.1135 38.0339C86.3859 38.0339 86.5141 37.9054 86.6262 37.52C86.7705 37.022 86.8345 36.9899 87.6037 36.9417L88.437 36.8936L86.2096 39.1422C84.9758 40.395 83.9021 41.4068 83.806 41.4068C83.7259 41.4068 83.6458 41.4711 83.6458 41.5514C83.6458 41.7602 77.7489 47.6708 77.5566 47.6708C77.4605 47.6708 77.3964 47.7511 77.3964 47.8635C77.3964 47.976 77.2041 48.2651 76.9637 48.506C76.4509 49.036 75.7939 49.1163 75.7939 48.6505Z" fill="#9B2149"/>
<path d="M52.9916 46.948C52.7192 46.7553 52.7031 46.1289 52.7192 36.3153C52.7192 30.5975 52.7512 25.7469 52.7833 25.5542C52.8954 24.976 53.3441 24.2532 53.6486 24.1568C53.8088 24.1086 54.0652 23.8356 54.2254 23.5625C54.3857 23.3056 54.6901 23.0004 54.8984 22.904C55.1067 22.8077 55.3151 22.5989 55.3792 22.4222C55.4272 22.2616 55.6676 22.0206 55.908 21.9082C56.1483 21.7797 56.4207 21.4906 56.5329 21.2658C56.629 21.0248 56.9014 20.7679 57.1258 20.6554C57.3501 20.5591 57.5264 20.4145 57.5264 20.3503C57.5264 20.2699 58.2475 19.5151 59.1288 18.6477C59.9941 17.7804 60.7953 16.9934 60.9075 16.881C61.0036 16.7846 61.7087 16.0458 62.4939 15.2588C64.0642 13.6526 64.4328 13.3796 64.7052 13.6526C64.9455 13.8935 64.9776 34.7574 64.7533 35.3356C64.577 35.7692 63.231 37.2308 62.9906 37.2308C62.9105 37.2308 62.7022 37.4396 62.558 37.6966C62.3977 37.9536 62.1093 38.2427 61.901 38.3391C61.7087 38.4355 61.5324 38.58 61.5324 38.6442C61.5324 38.853 60.7793 39.6401 60.587 39.6401C60.4908 39.6401 60.3306 39.8007 60.2345 39.9934C59.9941 40.4592 59.7698 40.668 59.4172 40.8125C59.257 40.8607 59.1288 40.9732 59.1288 41.0535C59.1288 41.2462 54.9786 45.4222 54.7863 45.4222C54.7061 45.4222 54.5619 45.5989 54.4658 45.8077C54.3696 46.0165 54.1133 46.2895 53.8889 46.4019C53.6646 46.5304 53.4402 46.7392 53.3761 46.8998C53.296 47.1247 53.2319 47.1247 52.9916 46.948Z" fill="#9B2149"/>
<path d="M10.6561 34.5489C10.4478 34.4365 10.2235 34.1955 10.1754 34.0189C10.1113 33.8422 9.85492 33.5852 9.59853 33.4407C9.34215 33.3122 9.03769 33.0231 8.94154 32.8143C8.8454 32.5894 8.70118 32.4127 8.63709 32.4127C8.4448 32.4127 6.56998 30.5496 6.56998 30.3569C6.56998 30.2605 6.36166 30.0677 6.08925 29.9232C5.83287 29.7786 5.60853 29.5698 5.60853 29.4253C5.60853 29.2968 5.35215 29.0398 5.04769 28.8631C4.74323 28.6865 4.4548 28.3974 4.40672 28.2207C4.34263 28.0601 4.08624 27.8031 3.82986 27.6585C3.57347 27.53 3.28504 27.2409 3.20492 27.0161C3.1248 26.8073 2.86841 26.5503 2.64407 26.47C2.41974 26.3897 2.17937 26.1809 2.1313 26.0363C2.00311 25.683 1.82684 25.5063 1.24998 25.1369C0.993591 24.9763 0.801302 24.7675 0.801302 24.655C0.801302 24.5426 0.657085 24.3338 0.48082 24.1732C0.0481698 23.8038 0.080218 23.4504 0.576965 23.0007L0.977567 22.6152H11.1048H21.248L23.8119 25.169C25.238 26.5824 26.52 27.9155 26.6642 28.1404C26.8084 28.3652 26.9847 28.558 27.0648 28.558C27.2411 28.558 32.1124 33.4567 32.4489 33.9546C32.5771 34.1634 32.8014 34.3401 32.9456 34.3401C33.0899 34.3401 33.17 34.4365 33.1219 34.5489C33.0258 34.838 11.217 34.838 10.6561 34.5489Z" fill="#9B2149"/>
<path d="M90.8565 33.7779C90.8565 33.4728 90.9206 33.2158 91.0007 33.2158C91.0808 33.2158 91.225 33.007 91.3212 32.7339C91.4013 32.4609 91.5936 32.2521 91.7378 32.2521C92.0743 32.2521 92.4589 31.8666 92.4589 31.5454C92.4589 31.4169 92.6992 31.192 93.0037 31.0475C93.3402 30.8869 93.5806 30.646 93.6126 30.4372C93.6447 30.2444 93.869 29.9874 94.1094 29.875C94.3497 29.7465 94.6221 29.4735 94.7023 29.2647C94.8305 28.9595 94.9747 28.8792 95.4233 28.8792C95.9521 28.8792 95.9842 28.8471 95.9842 28.317C95.9842 27.8513 96.0643 27.7388 96.529 27.514C96.8655 27.3534 97.1059 27.1124 97.1379 26.9036C97.17 26.7109 97.3302 26.5342 97.4905 26.5021C97.8911 26.4218 98.2276 26.0845 98.2276 25.7633C98.2276 25.6348 98.4679 25.4099 98.7724 25.2654C99.1089 25.1048 99.3973 24.8156 99.4935 24.5265C99.5736 24.2696 99.7499 24.0608 99.878 24.0608C100.006 24.0608 100.199 23.9483 100.311 23.8198C100.487 23.611 99.4454 23.5789 91.0327 23.5789H81.5625V23.1934C81.5625 22.9365 81.6747 22.7758 81.9311 22.7116C82.572 22.551 100.663 22.5992 100.551 22.7758C100.503 22.8722 100.567 22.9365 100.695 22.9365C100.936 22.9365 101.496 23.8841 101.352 24.0286C101.304 24.0768 101.272 24.0608 101.272 23.9805C101.272 23.9001 101.016 24.1893 100.695 24.5908C100.375 25.0084 100.006 25.3457 99.8941 25.3457C99.7659 25.3457 99.6697 25.4099 99.6697 25.5063C99.6697 25.699 96.3527 29.0398 96.1605 29.0398C96.0803 29.0398 95.9842 29.1844 95.9361 29.3771C95.888 29.5538 95.6958 29.7465 95.5195 29.7947C95.3272 29.8429 95.183 29.9393 95.183 30.0035C95.183 30.1481 91.0808 34.3401 90.9366 34.3401C90.8885 34.3401 90.8565 34.0831 90.8565 33.7779Z" fill="#9B2149"/>
<path d="M66.7406 33.023C66.6925 32.8142 66.6765 27.7709 66.6925 21.796L66.7406 10.9385L68.4231 9.3002C69.3525 8.41682 70.1537 7.62981 70.2178 7.56556C70.3621 7.38889 72.2048 5.54182 72.4131 5.34908C72.5093 5.26878 73.3105 4.44964 74.1918 3.5502C75.0731 2.6347 75.8583 1.89587 75.9384 1.89587C76.0186 1.89587 76.1307 1.75132 76.1948 1.57464C76.2429 1.39796 76.4993 1.14098 76.7717 0.980367C77.0281 0.819752 77.2845 0.578831 77.3325 0.418216C77.4607 0.000618296 78.0055 -0.111812 78.3741 0.225479C78.6625 0.498523 78.6786 0.835814 78.6786 11.0348V21.5712L77.2204 23.0649C76.4352 23.8679 75.7141 24.5425 75.634 24.5425C75.5539 24.5425 75.4096 24.6871 75.3135 24.8637C75.2174 25.0404 74.7687 25.5223 74.32 25.9399C73.2304 26.9517 73.0381 27.1605 72.7496 27.5621C72.6214 27.7548 72.4612 27.9154 72.3811 27.9154C72.2529 27.9154 70.6665 29.4413 70.6665 29.5698C70.6665 29.6501 68.8558 31.4811 67.5578 32.7017C66.8528 33.3603 66.8207 33.3763 66.7406 33.023Z" fill="#9B2149"/>
<path d="M36.6793 32.5412C36.6313 30.6781 36.6152 13.5244 36.6633 13.4281C36.8235 13.0747 38.1856 14.2954 42.9287 19.0496C48.8256 24.9602 49.1621 25.3457 48.3929 25.3457C47.9282 25.3457 47.2713 24.8799 47.2713 24.5587C47.2713 24.4141 47.0469 24.2053 46.7745 24.0768C46.5021 23.9644 46.2457 23.7395 46.1816 23.595C46.0855 23.3059 45.3964 22.6152 45.2041 22.6152C45.1401 22.6152 44.9958 22.4546 44.8837 22.2458C44.7715 22.037 44.467 21.7479 44.2107 21.5873C43.9543 21.4427 43.746 21.2179 43.746 21.1054C43.746 20.977 43.6338 20.8485 43.5056 20.7842C43.3774 20.736 43.2652 20.5433 43.2652 20.3666C43.2652 20.1578 43.1531 20.0454 42.9447 20.0454C42.7845 20.0454 42.5762 19.949 42.5121 19.8366C42.448 19.7081 42.1916 19.4832 41.9352 19.3226C41.6949 19.1781 41.4545 18.889 41.4064 18.6962C41.3584 18.5035 41.118 18.2626 40.8456 18.1662C40.5892 18.0698 40.3809 17.8932 40.3809 17.7647C40.3809 17.6522 40.2207 17.4274 40.0284 17.2828C39.3554 16.7689 37.9773 15.4036 37.9773 15.227C37.9773 15.1466 37.9132 15.0663 37.817 15.0663C37.7369 15.0663 37.6568 14.9539 37.6568 14.8254C37.6568 14.6969 37.5927 14.5845 37.4966 14.5845C37.3844 14.5845 37.3363 17.7968 37.3363 23.9001C37.3363 33.1033 37.3363 33.2158 37.0158 33.2158C36.7434 33.2158 36.6954 33.1033 36.6793 32.5412Z" fill="#9B2149"/>
<path d="M34.1314 11.388C34.1314 11.3077 33.9872 11.1792 33.8109 11.131C33.6347 11.0828 33.4584 10.874 33.3943 10.6813C33.3462 10.4885 33.0738 10.2155 32.8014 10.0709C32.4649 9.91033 32.2726 9.68547 32.2406 9.41243C32.2085 9.10726 32.0803 8.97877 31.7118 8.89846C31.4393 8.85027 31.1669 8.65754 31.0708 8.43268C30.9747 8.22388 30.6862 7.93477 30.4298 7.77416C30.1254 7.59748 29.9651 7.37262 29.9651 7.09958C29.9651 6.82653 29.869 6.7141 29.6607 6.7141C29.3081 6.7141 28.523 6.02346 28.523 5.70223C28.523 5.57374 28.3467 5.41312 28.1224 5.36494C27.898 5.30069 27.7218 5.18826 27.7218 5.09189C27.7218 4.8831 27.4654 4.64217 26.8885 4.2567C26.6321 4.09608 26.4398 3.90335 26.4398 3.79092C26.4398 3.61424 25.8309 3.01997 25.6386 3.01997C25.5745 3.01997 25.4463 2.85935 25.3342 2.65055C25.222 2.44176 24.9175 2.15265 24.6612 1.99203C24.4048 1.84748 24.1965 1.60656 24.1965 1.47807C24.1965 1.34958 24.1324 1.25321 24.0362 1.25321C23.9561 1.25321 23.876 0.996225 23.876 0.691057C23.876 0.385889 23.908 0.128906 23.9561 0.128906C24.1484 0.128906 34.9326 11.0828 34.9326 11.2916C34.9326 11.4362 34.7724 11.5325 34.532 11.5325C34.3077 11.5325 34.1314 11.4683 34.1314 11.388Z" fill="#9B2149"/>
<path d="M77.7173 101.557C77.7173 101.428 77.6372 101.316 77.541 101.316C77.4609 101.316 77.4288 101.412 77.4929 101.525C77.557 101.621 77.557 101.669 77.4769 101.605C77.4128 101.541 77.2686 101.316 77.1725 101.123C77.0603 100.914 76.884 100.754 76.7558 100.754C76.6276 100.754 76.5155 100.641 76.5155 100.513C76.5155 100.175 74.0317 97.7663 73.8074 97.8947C73.7112 97.9429 73.6792 97.9429 73.7433 97.8787C73.7914 97.8144 73.7273 97.6056 73.5831 97.429C73.0863 96.8347 70.1539 93.9276 70.0257 93.9276C69.9776 93.9276 69.8174 93.7509 69.7052 93.526C69.5931 93.3172 69.3687 93.0924 69.2405 93.0442C69.0963 92.996 68.8399 92.739 68.6797 92.466C68.5034 92.1769 68.3111 92.0163 68.1669 92.0644C68.0387 92.1126 67.9426 92.0644 67.9426 91.952C67.9426 91.8396 67.6541 91.422 67.3016 91.0365L66.6606 90.3298L66.6767 79.7132C66.6927 73.8829 66.7568 68.9359 66.8209 68.7111C66.9491 68.3256 66.9972 68.3256 67.0452 68.7593C67.0612 68.8556 67.1414 68.9359 67.2215 68.9199C67.3176 68.9199 67.4779 69.0002 67.59 69.1287C67.7022 69.2572 67.7503 69.3535 67.7022 69.3535C67.6381 69.3535 67.9426 69.6426 68.3432 69.996C68.7438 70.3494 69.0322 70.6385 68.9521 70.6385C68.888 70.6385 69.0803 70.8151 69.3847 71.0239C70.0257 71.4576 71.2275 72.7425 71.1794 72.9352C71.1634 72.9995 71.2115 73.0477 71.3076 73.0477C71.3878 73.0477 72.221 73.8026 73.1664 74.7341C74.0958 75.6657 74.8009 76.4206 74.7368 76.4206C74.6567 76.4206 74.7849 76.5491 74.9932 76.6936C75.6982 77.1755 77.7173 79.2153 77.7173 79.4401C77.7173 79.5526 77.7814 79.6168 77.8615 79.5526C77.9416 79.5044 78.1659 79.665 78.3582 79.9059C78.6627 80.2914 78.6787 80.3556 78.4544 80.4038C78.1499 80.4681 78.1179 80.8535 78.4063 80.966C78.5665 81.0302 78.5665 81.0623 78.4063 81.0623C78.2781 81.0784 78.198 81.3354 78.198 81.7851C78.198 82.2027 78.2781 82.5239 78.4063 82.5721C78.5665 82.6364 78.5665 82.6685 78.4063 82.6685C78.1339 82.6845 78.1019 100.288 78.3582 100.384C78.4544 100.416 78.5505 100.657 78.5665 100.914C78.5986 101.332 78.5505 101.396 78.2461 101.348C77.8615 101.3 77.7333 101.557 78.0858 101.685C78.198 101.733 78.1659 101.782 78.0057 101.782C77.8455 101.798 77.7173 101.685 77.7173 101.557Z" fill="#631032"/>
<path d="M63.872 87.6156C63.7278 87.4068 63.4394 87.1338 63.2151 87.0214C62.9907 86.9089 62.7824 86.668 62.7183 86.5074C62.6702 86.3307 62.526 86.2344 62.3978 86.2825C62.2857 86.3307 62.1895 86.3147 62.2216 86.2504C62.2857 86.0256 61.4364 85.1422 60.7634 84.7085C60.3948 84.4837 60.0904 84.1785 60.0904 84.05C60.0904 83.9215 59.9942 83.7609 59.882 83.6966C59.7539 83.6324 59.5455 83.3754 59.4013 83.1506C59.2411 82.9257 58.9526 82.6527 58.7443 82.5402C58.536 82.4278 58.2636 82.1548 58.1514 81.946C58.0393 81.7211 57.847 81.5926 57.7348 81.6247C57.6226 81.6729 57.5425 81.6568 57.5746 81.5926C57.6226 81.432 57.3823 81.1589 55.7158 79.4564C54.9306 78.6694 54.2255 78.0591 54.1454 78.1233C54.0653 78.1715 54.0012 78.1233 54.0012 78.027C54.0012 77.8663 53.9051 77.7218 53.3602 77.0793C52.7032 76.3084 52.7193 76.4529 52.7193 65.9809C52.7193 59.3475 52.7673 55.8622 52.8795 55.8622C52.9757 55.8622 53.0398 55.6534 53.0398 55.4124C53.0398 55.1555 53.0878 54.8985 53.1359 54.8503C53.2801 54.7218 56.2446 57.661 56.1484 57.8217C56.1004 57.8859 56.1324 57.9501 56.1965 57.9501C56.4369 57.9501 57.3663 58.7853 57.2701 58.9299C57.2381 58.9941 57.3983 59.1708 57.6387 59.2993C58.2316 59.6045 62.0453 63.4913 61.9011 63.6198C61.853 63.6841 61.8851 63.7323 61.9972 63.7323C62.2857 63.7323 64.529 65.9487 64.7213 66.4306C64.8495 66.7358 64.8816 69.9159 64.8655 77.2078L64.8175 87.5514L64.4649 87.7763C64.1445 87.9851 64.0964 87.969 63.872 87.6156Z" fill="#631032"/>
<path d="M10.8966 78.9905C5.30416 78.9423 0.609101 78.8459 0.448861 78.7817C-0.288248 78.4122 -0.0639105 78.1231 4.02223 74.0435C6.21754 71.8431 7.96416 69.996 7.88404 69.9157C7.81994 69.8354 7.85199 69.8194 7.93211 69.8836C8.02826 69.9318 8.74934 69.3215 9.53452 68.5344L10.9607 67.105H21.7289C31.103 67.105 32.5131 67.1371 32.6893 67.3459C32.8336 67.5226 32.8336 67.5868 32.7054 67.5868C32.5932 67.5868 32.5611 67.6671 32.6252 67.7796C32.6893 67.892 32.6733 67.9081 32.5451 67.8438C32.449 67.7796 32.3208 67.8438 32.2567 68.0044C32.1285 68.3578 22.0173 78.5086 21.4725 78.8298C21.1199 79.0386 19.7579 79.0547 10.8966 78.9905Z" fill="#631032"/>
<path d="M13.8132 64.2619C14.1337 63.9246 14.7746 63.2821 15.2073 62.8163C15.656 62.3506 16.0245 61.9008 16.0245 61.8045C16.0245 61.7242 16.0726 61.6599 16.1527 61.676C16.329 61.7402 18.2679 59.8289 18.2679 59.6041C18.2679 59.4916 18.3801 59.3953 18.5083 59.3953C18.6364 59.3953 18.9569 59.0901 19.2293 58.7207C19.4857 58.3673 19.7101 58.1264 19.7101 58.1906C19.7101 58.2549 20.6875 57.3394 21.8733 56.1508C23.0591 54.9462 24.0366 53.9022 24.0366 53.8059C24.0366 53.7256 24.1808 53.6131 24.3731 53.5649C24.5493 53.5168 24.7416 53.324 24.7897 53.1473C24.8698 52.8261 24.9179 52.8261 35.9745 52.8101C42.4963 52.8101 47.1273 52.8743 47.1754 52.9546C47.2234 53.0349 44.6436 55.7493 41.4227 58.9777L35.5739 64.8561H24.4051H13.2363L13.8132 64.2619Z" fill="#631032"/>
<path d="M54.4182 48.8428C54.306 48.7304 54.4502 48.5698 56.1007 46.9476C56.6295 46.4176 57.1583 45.8875 57.2545 45.7751C57.3666 45.6627 57.623 45.4057 57.8313 45.213C58.0396 45.0202 58.3281 44.715 58.4723 44.5544C58.6165 44.3938 58.8729 44.1368 59.0331 43.9923C59.1934 43.8477 59.4498 43.6068 59.594 43.4301C60.251 42.6752 61.5649 41.4064 61.6931 41.4064C61.7733 41.4064 61.9655 41.1976 62.1098 40.9406C62.27 40.6836 62.5584 40.3785 62.7668 40.266C62.959 40.1536 63.1674 39.9609 63.2154 39.8163C63.2635 39.6717 63.4558 39.4469 63.6481 39.3184C63.8243 39.1899 64.0968 38.949 64.241 38.7884C64.3852 38.6278 64.8339 38.1298 65.2505 37.6962L66.0036 36.9092H76.9961C86.8029 36.9092 88.7899 36.9734 87.6842 37.2625C87.508 37.3107 87.2195 37.6962 87.0112 38.1138C86.7708 38.5956 86.6106 38.8044 86.5305 38.6759C86.4664 38.5635 86.3222 38.5314 86.226 38.5796C86.1299 38.6438 86.0818 38.7723 86.1459 38.8526C86.2421 39.0293 85.6011 39.6236 85.2806 39.6396C85.1684 39.6396 85.0242 39.7681 84.9761 39.9287C84.8159 40.3785 84.3833 40.8442 84.1269 40.8442C84.0147 40.8442 83.7263 41.1815 83.5019 41.5991C83.2776 42.0328 83.0533 42.2898 82.9892 42.1773C82.8449 41.9525 82.5245 42.1613 82.5245 42.4986C82.5245 42.8037 82.0758 43.2535 81.7553 43.2535C81.6592 43.2535 81.4348 43.5104 81.2746 43.8156C81.0983 44.169 80.89 44.3778 80.6817 44.3778C80.4894 44.3778 80.2811 44.5544 80.1529 44.8435C80.0247 45.1005 79.7843 45.3414 79.6081 45.3896C79.4478 45.4217 79.2075 45.7109 79.0793 46C78.9351 46.3533 78.7107 46.5782 78.4383 46.6424C78.198 46.7067 77.9416 46.8994 77.8614 47.0921C77.557 47.7667 77.2365 48.2325 77.2365 48.0237C77.2365 47.8952 77.1404 47.831 77.0442 47.8792C76.9321 47.9113 76.8519 48.0398 76.884 48.1361C76.9 48.2486 76.7558 48.4734 76.5635 48.634C76.211 48.9392 75.7623 48.9392 65.3627 48.9553C59.4017 48.9553 54.4823 48.9071 54.4182 48.8428Z" fill="#631032"/>
<path d="M48.1366 46.8673C47.9764 46.7067 46.6303 45.3575 45.1401 43.896C43.6659 42.4183 42.384 41.0852 42.3038 40.9085C42.2077 40.7479 42.0635 40.6034 41.9833 40.6034C41.8552 40.6034 38.8266 37.632 37.6248 36.331C37.4646 36.1543 37.1921 35.8813 36.9999 35.7046C36.6794 35.3994 36.6633 35.271 36.7435 33.5684C36.7915 32.4923 36.7755 31.8017 36.6794 31.8659C36.5993 31.9141 36.5352 31.8338 36.5352 31.7053C36.5352 31.5608 36.6153 31.4483 36.6954 31.4483C36.8076 31.4483 36.8556 28.3645 36.8556 22.5342C36.8556 13.6844 36.8556 13.6201 37.1761 13.6201C37.3524 13.6201 37.5447 13.7325 37.5927 13.861C37.6568 13.9895 37.753 14.0698 37.8171 14.0217C37.8972 13.9735 37.9933 14.0859 38.0574 14.2626C38.1055 14.4393 38.2337 14.5838 38.3138 14.5838C38.394 14.5838 38.458 14.6962 38.458 14.8247C38.458 15.0978 39.0029 15.419 39.1791 15.2584C39.2593 15.1941 39.2593 15.2263 39.2112 15.3226C39.083 15.5475 39.6278 16.0775 39.8201 15.9169C39.8842 15.8366 39.9002 15.9169 39.8361 16.0936C39.756 16.3184 39.8041 16.3666 39.9803 16.2863C40.1246 16.2381 40.2047 16.2542 40.1566 16.3184C40.0605 16.4791 40.6213 16.993 40.8777 16.993C40.9738 16.993 41.0219 17.1055 40.9578 17.2339C40.9097 17.3785 41.0059 17.5391 41.2302 17.6515C41.6789 17.8925 42.1436 18.3743 42.0474 18.4867C41.9994 18.5349 42.0955 18.6474 42.2718 18.7437C42.448 18.8401 42.7205 19.0489 42.8807 19.1934C43.0409 19.3541 43.2332 19.4825 43.3294 19.4825C43.4255 19.4825 43.5858 19.6592 43.6819 19.868C43.7941 20.0768 44.0024 20.3177 44.1306 20.3981C44.2748 20.4784 44.3549 20.6068 44.3068 20.6872C44.2267 20.8156 44.7395 21.2011 44.8837 21.1208C44.9158 21.1048 44.9318 21.1208 44.9158 21.1529C44.8837 21.1851 45.044 21.3778 45.2683 21.5705C45.4766 21.7793 45.6048 21.9881 45.5407 22.0684C45.4766 22.1327 45.5727 22.1327 45.749 22.0684C45.9253 22.0042 46.0214 22.0042 45.9573 22.0524C45.8291 22.1809 46.406 22.7751 46.6303 22.7751C46.7265 22.7751 46.7906 22.9036 46.7585 23.0643C46.7265 23.2409 46.8066 23.3373 46.9829 23.3212C47.1431 23.3052 47.2393 23.3534 47.1912 23.4176C47.1431 23.4818 47.3033 23.6585 47.5117 23.8031C47.736 23.9476 47.8802 24.1243 47.8482 24.2046C47.8001 24.2689 47.9764 24.4937 48.2488 24.6865L48.7295 25.0398L48.6974 36.0419C48.6814 42.081 48.6173 47.0601 48.5532 47.1082C48.4891 47.1404 48.2968 47.044 48.1366 46.8673Z" fill="#631032"/>
<path d="M68.6156 34.7894C68.4073 34.5806 68.263 34.7412 71.7563 31.2077C73.1985 29.7461 74.4323 28.5575 74.5124 28.5575C74.5926 28.5575 74.7528 28.3969 74.8489 28.2042C75.0893 27.7384 75.57 27.2565 75.6822 27.369C75.7303 27.4172 75.8424 27.3047 75.9546 27.128C76.1148 26.8229 77.1564 25.7307 77.9736 25.0079C78.1499 24.8634 78.3903 24.6064 78.5185 24.4297C78.6467 24.2691 79.1114 23.8194 79.544 23.45C80.2491 22.8396 80.4093 22.7754 81.1785 22.7754C81.6592 22.7754 82.0438 22.8557 82.0438 22.936C82.0438 23.0484 85.1685 23.0966 91.53 23.0966C96.7379 23.0806 101.048 23.1448 101.112 23.209C101.321 23.4339 101.481 24.1085 101.305 23.9961C101.209 23.9479 101 24.0603 100.84 24.2691C100.68 24.4779 100.455 24.6225 100.343 24.5743C100.247 24.5422 100.103 24.6546 100.039 24.8152C99.8946 25.2489 99.478 25.6825 99.0774 25.8431C98.853 25.9234 98.7088 26.1162 98.7088 26.3089C98.7088 26.4856 98.6447 26.6301 98.5646 26.6301C98.4845 26.6301 98.3563 26.7908 98.3082 26.9674C98.2281 27.2244 98.164 27.2565 98.0679 27.112C97.9236 26.8711 97.5871 27.0317 97.5871 27.369C97.5871 27.6581 97.0904 28.156 96.7859 28.156C96.6577 28.156 96.5295 28.3005 96.4975 28.4772C96.4174 28.8787 95.9206 29.3606 95.5841 29.3606C95.4559 29.3606 95.2636 29.5373 95.1835 29.7461C95.1034 29.9549 94.847 30.2279 94.5906 30.3564C94.3503 30.4688 94.1259 30.7097 94.0939 30.8864C94.0458 31.0631 93.9336 31.2719 93.8054 31.3361C93.6773 31.4004 93.5811 31.5931 93.5811 31.7377C93.5811 31.9625 93.5491 31.9625 93.4369 31.7859C93.2606 31.4968 92.9401 31.7056 92.9401 32.1071C92.9401 32.2677 92.876 32.4123 92.812 32.4123C92.7318 32.4123 92.5876 32.5729 92.4915 32.7817C92.3953 32.9744 92.3152 33.0387 92.3152 32.9423C92.2832 32.5568 91.9627 32.7335 91.8024 33.2153C91.7063 33.4884 91.5621 33.6972 91.482 33.6972C91.4018 33.6972 91.3377 33.8096 91.3377 33.9381C91.3377 34.0666 91.0173 34.3557 90.6487 34.5806L89.9436 34.9821H79.3838C71.596 34.9821 68.7598 34.9339 68.6156 34.7894Z" fill="#631032"/>
<path d="M34.2596 32.9262C34.0193 32.6852 33.6667 32.3319 33.4584 32.1392C32.8815 31.577 32.7373 31.4324 31.7278 30.4045C31.215 29.8745 30.6702 29.3284 30.542 29.1999C30.3978 29.0714 29.9171 28.5735 29.4524 28.1077C28.9877 27.6259 28.4749 27.128 28.3307 26.9834C27.9782 26.6461 27.4013 26.0679 27.0488 25.6985C26.9046 25.554 26.6962 25.3612 26.6001 25.2648C26.5039 25.1845 26.2636 24.9276 26.0553 24.7027C25.847 24.4778 25.0618 23.7069 24.2926 22.9681L22.9146 21.6189V10.8898C22.9146 0.289289 22.9146 0.144736 23.235 0.0483672C23.6837 -0.0961859 24.1644 0.0965516 24.2766 0.449904C24.3247 0.610518 24.4849 0.787194 24.6131 0.835378C24.7413 0.883563 24.8214 0.995993 24.7573 1.0763C24.6612 1.25298 25.206 1.60633 25.3823 1.4939C25.4303 1.44571 25.4464 1.46178 25.3983 1.52602C25.3662 1.57421 25.4944 1.783 25.7188 1.97574C25.9271 2.18454 26.0553 2.39334 26.0072 2.44152C25.9431 2.48971 25.9752 2.53789 26.0713 2.53789C26.2796 2.53789 26.7924 3.01974 27.0167 3.42127C27.1289 3.59795 27.3212 3.72644 27.4654 3.72644C27.6096 3.71038 27.6897 3.7425 27.6417 3.80675C27.6096 3.87099 27.7538 4.04767 27.9621 4.20828C28.1865 4.3689 28.3147 4.56164 28.2826 4.64194C28.2346 4.70619 28.3467 4.80256 28.523 4.8668C28.6993 4.93105 28.9556 5.15591 29.0678 5.39683C29.196 5.63775 29.5966 6.00717 29.9491 6.23203C30.3177 6.45689 30.5741 6.71387 30.542 6.8263C30.4939 6.92267 30.6542 7.13147 30.8946 7.29208C31.3913 7.61331 31.7278 7.93454 31.7759 8.11122C31.7919 8.17546 31.9041 8.22365 32.0162 8.22365C32.1284 8.20759 32.1925 8.22365 32.1444 8.27183C32.0964 8.32002 32.2406 8.49669 32.4489 8.67337C32.6732 8.85004 32.8174 9.04278 32.7694 9.12309C32.7213 9.18733 32.8976 9.38007 33.1379 9.52463C33.6827 9.87798 34.1314 10.3438 34.0353 10.4562C33.9872 10.4883 34.1795 10.6007 34.4359 10.6971L34.9326 10.8738V22.0365C34.9326 28.172 34.8685 33.2313 34.8044 33.2795C34.7243 33.3277 34.4839 33.1671 34.2596 32.9262Z" fill="#631032"/>
<path d="M186 109C186 110.091 185.091 110.961 184.002 110.915L139 109L184.002 107.085C185.091 107.039 186 107.909 186 109V109Z" fill="#620E31"/>
<path d="M196.528 115V113.32L200.848 109.24C201.189 108.931 201.44 108.653 201.6 108.408C201.76 108.163 201.867 107.939 201.92 107.736C201.984 107.533 202.016 107.347 202.016 107.176C202.016 106.728 201.861 106.387 201.552 106.152C201.253 105.907 200.811 105.784 200.224 105.784C199.755 105.784 199.317 105.875 198.912 106.056C198.517 106.237 198.181 106.52 197.904 106.904L196.016 105.688C196.443 105.048 197.04 104.541 197.808 104.168C198.576 103.795 199.461 103.608 200.464 103.608C201.296 103.608 202.021 103.747 202.64 104.024C203.269 104.291 203.755 104.669 204.096 105.16C204.448 105.651 204.624 106.237 204.624 106.92C204.624 107.283 204.576 107.645 204.48 108.008C204.395 108.36 204.213 108.733 203.936 109.128C203.669 109.523 203.275 109.965 202.752 110.456L199.168 113.832L198.672 112.888H204.992V115H196.528ZM212.862 115.192C211.944 115.192 211.123 114.968 210.398 114.52C209.672 114.061 209.102 113.4 208.686 112.536C208.27 111.672 208.062 110.627 208.062 109.4C208.062 108.173 208.27 107.128 208.686 106.264C209.102 105.4 209.672 104.744 210.398 104.296C211.123 103.837 211.944 103.608 212.862 103.608C213.79 103.608 214.611 103.837 215.326 104.296C216.051 104.744 216.622 105.4 217.038 106.264C217.454 107.128 217.662 108.173 217.662 109.4C217.662 110.627 217.454 111.672 217.038 112.536C216.622 113.4 216.051 114.061 215.326 114.52C214.611 114.968 213.79 115.192 212.862 115.192ZM212.862 113C213.299 113 213.678 112.877 213.998 112.632C214.328 112.387 214.584 111.997 214.766 111.464C214.958 110.931 215.054 110.243 215.054 109.4C215.054 108.557 214.958 107.869 214.766 107.336C214.584 106.803 214.328 106.413 213.998 106.168C213.678 105.923 213.299 105.8 212.862 105.8C212.435 105.8 212.056 105.923 211.726 106.168C211.406 106.413 211.15 106.803 210.958 107.336C210.776 107.869 210.686 108.557 210.686 109.4C210.686 110.243 210.776 110.931 210.958 111.464C211.15 111.997 211.406 112.387 211.726 112.632C212.056 112.877 212.435 113 212.862 113ZM220.762 115V113.32L225.082 109.24C225.424 108.931 225.674 108.653 225.834 108.408C225.994 108.163 226.101 107.939 226.154 107.736C226.218 107.533 226.25 107.347 226.25 107.176C226.25 106.728 226.096 106.387 225.786 106.152C225.488 105.907 225.045 105.784 224.458 105.784C223.989 105.784 223.552 105.875 223.146 106.056C222.752 106.237 222.416 106.52 222.138 106.904L220.25 105.688C220.677 105.048 221.274 104.541 222.042 104.168C222.81 103.795 223.696 103.608 224.698 103.608C225.53 103.608 226.256 103.747 226.874 104.024C227.504 104.291 227.989 104.669 228.33 105.16C228.682 105.651 228.858 106.237 228.858 106.92C228.858 107.283 228.81 107.645 228.714 108.008C228.629 108.36 228.448 108.733 228.17 109.128C227.904 109.523 227.509 109.965 226.986 110.456L223.402 113.832L222.906 112.888H229.226V115H220.762ZM232.2 115V113.32L236.52 109.24C236.861 108.931 237.112 108.653 237.272 108.408C237.432 108.163 237.539 107.939 237.592 107.736C237.656 107.533 237.688 107.347 237.688 107.176C237.688 106.728 237.533 106.387 237.224 106.152C236.925 105.907 236.483 105.784 235.896 105.784C235.427 105.784 234.989 105.875 234.584 106.056C234.189 106.237 233.853 106.52 233.576 106.904L231.688 105.688C232.115 105.048 232.712 104.541 233.48 104.168C234.248 103.795 235.133 103.608 236.136 103.608C236.968 103.608 237.693 103.747 238.312 104.024C238.941 104.291 239.427 104.669 239.768 105.16C240.12 105.651 240.296 106.237 240.296 106.92C240.296 107.283 240.248 107.645 240.152 108.008C240.067 108.36 239.885 108.733 239.608 109.128C239.341 109.523 238.947 109.965 238.424 110.456L234.84 113.832L234.344 112.888H240.664V115H232.2ZM250.473 111.496V109.496H255.001V111.496H250.473ZM264.872 115V113.32L269.192 109.24C269.533 108.931 269.784 108.653 269.944 108.408C270.104 108.163 270.21 107.939 270.264 107.736C270.328 107.533 270.36 107.347 270.36 107.176C270.36 106.728 270.205 106.387 269.896 106.152C269.597 105.907 269.154 105.784 268.568 105.784C268.098 105.784 267.661 105.875 267.256 106.056C266.861 106.237 266.525 106.52 266.248 106.904L264.36 105.688C264.786 105.048 265.384 104.541 266.152 104.168C266.92 103.795 267.805 103.608 268.808 103.608C269.64 103.608 270.365 103.747 270.984 104.024C271.613 104.291 272.098 104.669 272.44 105.16C272.792 105.651 272.968 106.237 272.968 106.92C272.968 107.283 272.92 107.645 272.824 108.008C272.738 108.36 272.557 108.733 272.28 109.128C272.013 109.523 271.618 109.965 271.096 110.456L267.512 113.832L267.016 112.888H273.336V115H264.872ZM281.205 115.192C280.288 115.192 279.467 114.968 278.741 114.52C278.016 114.061 277.445 113.4 277.029 112.536C276.613 111.672 276.405 110.627 276.405 109.4C276.405 108.173 276.613 107.128 277.029 106.264C277.445 105.4 278.016 104.744 278.741 104.296C279.467 103.837 280.288 103.608 281.205 103.608C282.133 103.608 282.955 103.837 283.669 104.296C284.395 104.744 284.965 105.4 285.381 106.264C285.797 107.128 286.005 108.173 286.005 109.4C286.005 110.627 285.797 111.672 285.381 112.536C284.965 113.4 284.395 114.061 283.669 114.52C282.955 114.968 282.133 115.192 281.205 115.192ZM281.205 113C281.643 113 282.021 112.877 282.341 112.632C282.672 112.387 282.928 111.997 283.109 111.464C283.301 110.931 283.397 110.243 283.397 109.4C283.397 108.557 283.301 107.869 283.109 107.336C282.928 106.803 282.672 106.413 282.341 106.168C282.021 105.923 281.643 105.8 281.205 105.8C280.779 105.8 280.4 105.923 280.069 106.168C279.749 106.413 279.493 106.803 279.301 107.336C279.12 107.869 279.029 108.557 279.029 109.4C279.029 110.243 279.12 110.931 279.301 111.464C279.493 111.997 279.749 112.387 280.069 112.632C280.4 112.877 280.779 113 281.205 113ZM289.106 115V113.32L293.426 109.24C293.767 108.931 294.018 108.653 294.178 108.408C294.338 108.163 294.445 107.939 294.498 107.736C294.562 107.533 294.594 107.347 294.594 107.176C294.594 106.728 294.439 106.387 294.13 106.152C293.831 105.907 293.389 105.784 292.802 105.784C292.333 105.784 291.895 105.875 291.49 106.056C291.095 106.237 290.759 106.52 290.482 106.904L288.594 105.688C289.021 105.048 289.618 104.541 290.386 104.168C291.154 103.795 292.039 103.608 293.042 103.608C293.874 103.608 294.599 103.747 295.218 104.024C295.847 104.291 296.333 104.669 296.674 105.16C297.026 105.651 297.202 106.237 297.202 106.92C297.202 107.283 297.154 107.645 297.058 108.008C296.973 108.36 296.791 108.733 296.514 109.128C296.247 109.523 295.853 109.965 295.33 110.456L291.746 113.832L291.25 112.888H297.57V115H289.106ZM305.28 115.192C304.341 115.192 303.52 115.053 302.816 114.776C302.112 114.488 301.562 114.088 301.168 113.576C300.773 113.053 300.576 112.445 300.576 111.752C300.576 111.059 300.768 110.472 301.152 109.992C301.546 109.501 302.096 109.133 302.8 108.888C303.504 108.632 304.33 108.504 305.28 108.504C306.24 108.504 307.072 108.632 307.776 108.888C308.49 109.133 309.04 109.501 309.424 109.992C309.818 110.472 310.016 111.059 310.016 111.752C310.016 112.445 309.818 113.053 309.424 113.576C309.029 114.088 308.474 114.488 307.76 114.776C307.056 115.053 306.229 115.192 305.28 115.192ZM305.28 113.288C305.93 113.288 306.442 113.144 306.816 112.856C307.2 112.568 307.392 112.173 307.392 111.672C307.392 111.171 307.2 110.781 306.816 110.504C306.442 110.216 305.93 110.072 305.28 110.072C304.64 110.072 304.133 110.216 303.76 110.504C303.386 110.781 303.2 111.171 303.2 111.672C303.2 112.173 303.386 112.568 303.76 112.856C304.133 113.144 304.64 113.288 305.28 113.288ZM305.28 109.816C304.416 109.816 303.658 109.699 303.008 109.464C302.368 109.229 301.866 108.888 301.504 108.44C301.152 107.981 300.976 107.437 300.976 106.808C300.976 106.147 301.157 105.581 301.52 105.112C301.882 104.632 302.389 104.264 303.04 104.008C303.69 103.741 304.437 103.608 305.28 103.608C306.144 103.608 306.896 103.741 307.536 104.008C308.186 104.264 308.693 104.632 309.056 105.112C309.429 105.581 309.616 106.147 309.616 106.808C309.616 107.437 309.434 107.981 309.072 108.44C308.72 108.888 308.218 109.229 307.568 109.464C306.917 109.699 306.154 109.816 305.28 109.816ZM305.28 108.296C305.824 108.296 306.25 108.173 306.56 107.928C306.88 107.683 307.04 107.347 307.04 106.92C307.04 106.472 306.874 106.125 306.544 105.88C306.224 105.635 305.802 105.512 305.28 105.512C304.768 105.512 304.352 105.635 304.032 105.88C303.712 106.125 303.552 106.472 303.552 106.92C303.552 107.347 303.706 107.683 304.016 107.928C304.325 108.173 304.746 108.296 305.28 108.296Z" fill="black"/>
<path d="M321 109C321 107.909 321.909 107.039 322.998 107.085L368 109L322.998 110.915C321.909 110.961 321 110.091 321 109V109Z" fill="#620E31"/>
</svg>
