<svg width="291" height="271" viewBox="0 0 291 271" fill="none" xmlns="http://www.w3.org/2000/svg">
<path d="M77.6556 131.009C74.8036 131.009 71.8596 133.815 71.8596 140.692C71.8596 143.82 72.3886 147.454 73.7686 150.513C75.3556 153.802 77.8856 155.251 80.1626 155.251C83.4516 155.251 86.3496 152.813 86.3496 146.787C86.3496 143.383 85.4986 139.289 84.0956 136.368C82.5776 133.033 80.1166 131.009 77.6556 131.009ZM63.2576 143.613C63.2576 133.769 69.5136 126.961 78.6676 126.961C87.1316 126.961 94.3766 133.102 94.3766 144.119C94.3766 154.538 87.5456 159.782 78.9896 159.782C69.1456 159.782 63.2576 153.02 63.2576 143.613ZM99.2512 159.115C97.9862 159.115 97.4342 158.609 97.4342 157.85C97.4342 156.286 99.6192 156.378 99.9872 153.779C100.194 152.399 100.263 148.466 100.263 142.647C100.263 137.817 100.217 135.057 100.171 134.16C99.8722 130.526 97.6182 130.733 97.6182 128.962C97.6182 128.18 98.0552 127.605 99.2742 127.605C101.206 127.605 103.414 127.72 105.415 127.72C107.807 127.72 110.153 127.582 112.522 127.582C117.697 127.582 123.194 129.238 123.194 134.988C123.194 138.3 120.572 140.761 118.548 141.589C118.456 141.635 118.318 141.727 118.318 141.865C118.318 142.003 118.456 142.072 118.548 142.095C122.435 143.222 125.333 146.051 125.333 149.823C125.333 157.873 118.41 159.138 112.706 159.138C110.314 159.138 106.818 159 104.38 159C102.609 159 100.976 159.115 99.2512 159.115ZM117.237 149.708C117.237 146.971 115.742 145.2 113.373 144.418C112.177 144.027 109.969 143.912 108.52 143.912C107.761 143.912 107.485 144.28 107.485 146.212V152.79C107.485 154.676 107.83 155.067 111.096 155.067C115.19 155.067 117.237 153.342 117.237 149.708ZM107.485 132.734V139.105C107.485 140.048 107.945 140.163 109.003 140.163C110.475 140.163 112.338 139.956 113.465 139.473C114.96 138.852 115.88 137.518 115.88 135.678C115.88 132.435 113.074 131.492 109.808 131.492C107.945 131.492 107.485 131.814 107.485 132.734ZM146.536 136.897C146.536 133.654 144.213 131.653 140.993 131.653C138.555 131.653 138.302 131.952 138.302 134.758V139.266C138.302 141.014 138.693 141.957 141.269 141.957C144.489 141.957 146.536 140.117 146.536 136.897ZM138.279 148.397V151.985C138.279 153.871 138.9 154.837 139.682 155.665C140.395 156.47 141.361 156.93 141.361 157.85C141.361 158.678 140.648 159.115 139.567 159.115C138.21 159.115 136.232 159 134.737 159C133.15 159 131.172 159.115 130.068 159.115C128.803 159.115 128.251 158.609 128.251 157.85C128.251 156.309 130.436 156.378 130.804 153.779C131.011 152.468 131.08 147.109 131.08 142.647C131.08 139.519 131.057 135.149 130.988 134.16C130.689 130.526 128.435 130.733 128.435 128.962C128.435 128.203 128.803 127.605 130.091 127.605C132.414 127.605 133.196 127.72 135.887 127.72C138.417 127.72 140.924 127.559 143.822 127.559C150.446 127.559 154.609 130.227 154.609 135.954C154.609 138.783 153.183 141.911 147.893 143.751C147.755 143.82 147.594 143.912 147.594 144.073C147.594 144.188 147.686 144.349 147.916 144.464C151.09 146.166 153.022 148.926 154.931 152.376C155.851 154.078 156.587 155.274 157.553 156.033C158.45 156.815 158.956 156.93 158.956 157.827C158.956 158.839 158.266 159.115 157.53 159.115C156.564 159.115 154.218 159 153.114 159C151.182 159 149.411 159.115 148.721 159.115C147.594 159.115 146.858 158.517 146.858 157.758C146.858 156.953 147.41 156.654 147.41 155.55C147.41 152.951 144.742 148.42 142.649 146.925C141.729 146.35 140.257 146.212 139.912 146.212C138.739 146.212 138.279 147.04 138.279 148.397ZM169.539 146.258H175.611C176.071 146.258 176.163 146.097 176.163 145.844C176.163 145.154 174.208 139.427 173.104 137.288C172.989 137.035 172.782 136.759 172.644 136.759C172.46 136.759 172.322 137.035 172.184 137.288C171.172 139.312 169.01 145.269 169.01 145.844C169.01 146.097 169.125 146.258 169.539 146.258ZM162.018 152.859L169.01 134.643C169.608 133.01 169.999 131.377 170.206 130.158C170.528 128.571 174.047 127.007 175.542 127.007C176.761 127.007 177.175 127.858 177.612 129.031L186.881 152.905C187.157 153.618 187.709 154.814 188.905 155.849C189.365 156.263 190.101 156.838 190.101 157.574C190.101 158.816 189.204 159.115 187.387 159.115C186.145 159.115 185.018 159 182.856 159C180.694 159 179.498 159.115 178.141 159.115C176.784 159.115 176.14 158.586 176.14 157.689C176.14 156.378 178.854 155.895 178.854 153.802C178.854 153.434 178.279 151.709 177.819 150.881C177.658 150.582 177.29 150.352 176.83 150.352H168.849C168.251 150.352 167.814 150.582 167.538 150.881C167.078 151.571 166.319 153.388 166.319 154.17C166.319 156.194 168.711 156.493 168.711 157.804C168.711 158.54 168.274 159.115 166.779 159.115C165.79 159.115 164.111 159 163.053 159C161.972 159 161.282 159.115 160.27 159.115C159.281 159.115 158.752 158.655 158.752 157.827C158.752 156.378 160.615 156.493 162.018 152.859ZM203.477 130.963C201.246 130.963 199.245 132.182 199.245 134.367C199.245 136.943 202.948 138.093 207.18 139.611C211.918 141.313 217.001 143.728 217.001 149.731C217.001 156.194 212.033 159.759 205.11 159.759C201.614 159.759 198.509 158.678 196.784 158.678C195.91 158.678 195.174 159.069 194.438 159.069C192.805 159.069 192.966 157.643 192.414 154.055C192.046 151.502 191.839 150.582 191.839 149.869C191.839 148.857 192.299 148.259 192.92 148.259C193.909 148.259 194.737 149.731 195.979 151.134C197.888 153.296 201.016 155.274 204.857 155.274C207.479 155.274 209.273 153.94 209.273 151.801C209.273 148.811 205.685 147.799 201.867 146.442C197.359 144.832 192.368 142.67 192.368 136.621C192.368 130.825 196.462 126.938 202.971 126.938C206.237 126.938 208.215 128.042 209.687 128.042C210.699 128.042 211.297 127.559 212.217 127.559C214.034 127.559 213.988 129.33 214.563 132.067C215.253 135.264 215.552 135.954 215.552 136.575C215.552 137.518 215 138.024 214.31 138.024C213.068 138.024 212.585 136.621 211.389 135.264C208.56 131.906 205.754 130.963 203.477 130.963ZM46.6412 192.403C46.6412 188.999 44.2492 186.653 40.7992 186.653C38.3612 186.653 37.9012 186.952 37.9012 189.758V194.473C37.9012 197.532 39.1432 198.084 41.6502 198.084C44.8242 198.084 46.6412 195.922 46.6412 192.403ZM37.9702 203.696V207.008C37.9702 209.216 39.0282 210.09 40.5692 210.757C41.6502 211.24 42.6162 211.654 42.6162 212.597C42.6162 213.747 41.6272 214.115 40.1552 214.115C38.7982 214.115 35.8312 214 34.3362 214C32.7492 214 30.7712 214.115 29.6672 214.115C28.4022 214.115 27.8502 213.609 27.8502 212.85C27.8502 211.309 30.0352 211.378 30.4032 208.779C30.6102 207.468 30.6792 202.109 30.6792 197.647C30.6792 194.519 30.6562 190.149 30.5872 189.16C30.2882 185.526 28.0342 185.733 28.0342 183.962C28.0342 183.203 28.4022 182.605 29.6902 182.605C32.0132 182.605 32.7952 182.72 35.4862 182.72C38.0162 182.72 40.7302 182.559 43.6282 182.559C50.2752 182.559 54.5992 186.285 54.5992 192.012C54.5992 197.532 51.1492 202.201 43.4212 202.201C41.2132 202.201 40.0172 201.856 39.0512 201.856C38.0622 201.856 37.9702 202.316 37.9702 203.696ZM86.323 202.408C86.323 204.677 85.817 206.732 84.805 208.572C83.8237 210.381 82.321 211.823 80.297 212.896C78.3037 213.939 75.7737 214.46 72.707 214.46C68.3524 214.46 65.0404 213.356 62.771 211.148C60.5017 208.909 59.367 205.965 59.367 202.316V181.156H66.313V201.258C66.313 203.957 66.865 205.858 67.969 206.962C69.073 208.066 70.7137 208.618 72.891 208.618C74.4244 208.618 75.6664 208.357 76.617 207.836C77.5677 207.315 78.2577 206.502 78.687 205.398C79.147 204.294 79.377 202.899 79.377 201.212V181.156H86.323V202.408ZM82.551 171.496C82.1217 171.925 81.5544 172.447 80.849 173.06C80.1437 173.673 79.377 174.317 78.549 174.992C77.7517 175.667 76.9544 176.311 76.157 176.924C75.3904 177.507 74.7157 177.997 74.133 178.396H69.579V177.798C70.0697 177.215 70.637 176.541 71.281 175.774C71.9557 174.977 72.615 174.164 73.259 173.336C73.903 172.477 74.4397 171.711 74.869 171.036H82.551V171.496ZM93.8606 214.115C92.5956 214.115 92.0436 213.609 92.0436 212.85C92.0436 211.286 94.2286 211.378 94.5966 208.779C94.8036 207.399 94.8726 203.466 94.8726 197.647C94.8726 192.817 94.8266 190.057 94.7806 189.16C94.4816 185.526 92.2276 185.733 92.2276 183.962C92.2276 183.18 92.6646 182.605 93.8836 182.605C95.8156 182.605 98.0236 182.72 100.025 182.72C102.417 182.72 104.763 182.582 107.132 182.582C112.307 182.582 117.804 184.238 117.804 189.988C117.804 193.3 115.182 195.761 113.158 196.589C113.066 196.635 112.928 196.727 112.928 196.865C112.928 197.003 113.066 197.072 113.158 197.095C117.045 198.222 119.943 201.051 119.943 204.823C119.943 212.873 113.02 214.138 107.316 214.138C104.924 214.138 101.428 214 98.9896 214C97.2186 214 95.5856 214.115 93.8606 214.115ZM111.847 204.708C111.847 201.971 110.352 200.2 107.983 199.418C106.787 199.027 104.579 198.912 103.13 198.912C102.371 198.912 102.095 199.28 102.095 201.212V207.79C102.095 209.676 102.44 210.067 105.706 210.067C109.8 210.067 111.847 208.342 111.847 204.708ZM102.095 187.734V194.105C102.095 195.048 102.555 195.163 103.613 195.163C105.085 195.163 106.948 194.956 108.075 194.473C109.57 193.852 110.49 192.518 110.49 190.678C110.49 187.435 107.684 186.492 104.418 186.492C102.555 186.492 102.095 186.814 102.095 187.734ZM125.689 197.647C125.689 194.542 125.689 190.149 125.62 189.114C125.321 185.503 123.044 185.71 123.044 183.962C123.044 183.203 123.412 182.605 124.7 182.605C126.103 182.605 127.851 182.72 129.346 182.72C130.887 182.72 133.417 182.605 134.751 182.605C135.97 182.605 136.384 183.203 136.384 183.962C136.384 185.917 133.371 185.549 133.049 189.206C132.934 190.195 132.911 193.507 132.911 197.647V206.985C132.911 209.515 133.831 209.975 137.005 209.975C142.042 209.975 143.376 208.043 144.503 204.869C145.055 203.466 145.538 202.822 146.274 202.822C147.079 202.822 147.424 203.581 147.424 204.8C147.424 206.088 147.056 209.009 146.849 212.275C146.757 213.701 146.228 214.115 144.641 214.115C142.732 214.115 139.236 214 135.234 214C129.093 214 126.149 214.115 124.677 214.115C123.504 214.115 122.86 213.678 122.86 212.85C122.86 211.263 124.999 211.355 125.413 208.779C125.62 207.583 125.689 203.627 125.689 197.647ZM160.63 182.605C161.849 182.605 162.263 183.203 162.263 183.962C162.263 185.733 160.055 185.48 159.733 189.114C159.618 190.126 159.595 193.507 159.595 197.647C159.595 202.822 159.71 207.353 159.894 208.71C160.308 211.355 162.447 211.286 162.447 212.85C162.447 213.54 161.849 214.115 160.63 214.115C159.273 214.115 157.525 214 156.03 214C154.489 214 152.718 214.115 151.361 214.115C150.096 214.115 149.544 213.54 149.544 212.85C149.544 211.286 151.752 211.332 152.12 208.71C152.304 207.445 152.373 202.04 152.373 197.647C152.373 194.542 152.373 190.149 152.304 189.114C152.005 185.503 149.728 185.71 149.728 183.962C149.728 183.203 150.096 182.605 151.384 182.605C152.787 182.605 154.535 182.72 156.03 182.72C157.571 182.72 159.319 182.605 160.63 182.605ZM165.477 198.475C165.477 190.057 170.468 181.938 180.519 181.938C184.061 181.938 185.717 183.042 187.166 183.042C188.201 183.042 188.868 182.559 189.788 182.559C191.559 182.559 191.605 184.33 192.157 187.067C192.755 190.172 193.077 190.931 193.077 191.575C193.077 192.564 192.502 193.024 191.835 193.024C190.616 193.024 189.995 191.621 188.983 190.172C186.867 187.205 184.084 185.503 181.324 185.503C176.241 185.503 173.619 190.264 173.619 195.738C173.619 202.822 177.46 208.549 183.716 208.549C188.04 208.549 190.524 205.789 191.72 203.535C192.134 202.868 192.479 202.316 192.962 202.316C193.629 202.316 193.882 203.236 193.882 203.995C193.882 205.49 193.422 207.192 192.456 208.756C190.478 211.953 186.384 214.782 180.565 214.782C170.859 214.782 165.477 207.1 165.477 198.475ZM205.522 201.258H211.594C212.054 201.258 212.146 201.097 212.146 200.844C212.146 200.154 210.191 194.427 209.087 192.288C208.972 192.035 208.765 191.759 208.627 191.759C208.443 191.759 208.305 192.035 208.167 192.288C207.155 194.312 204.993 200.269 204.993 200.844C204.993 201.097 205.108 201.258 205.522 201.258ZM198.001 207.859L204.993 189.643C205.591 188.01 205.982 186.377 206.189 185.158C206.511 183.571 210.03 182.007 211.525 182.007C212.744 182.007 213.158 182.858 213.595 184.031L222.864 207.905C223.14 208.618 223.692 209.814 224.888 210.849C225.348 211.263 226.084 211.838 226.084 212.574C226.084 213.816 225.187 214.115 223.37 214.115C222.128 214.115 221.001 214 218.839 214C216.677 214 215.481 214.115 214.124 214.115C212.767 214.115 212.123 213.586 212.123 212.689C212.123 211.378 214.837 210.895 214.837 208.802C214.837 208.434 214.262 206.709 213.802 205.881C213.641 205.582 213.273 205.352 212.813 205.352H204.832C204.234 205.352 203.797 205.582 203.521 205.881C203.061 206.571 202.302 208.388 202.302 209.17C202.302 211.194 204.694 211.493 204.694 212.804C204.694 213.54 204.257 214.115 202.762 214.115C201.773 214.115 200.094 214 199.036 214C197.955 214 197.265 214.115 196.253 214.115C195.264 214.115 194.735 213.655 194.735 212.827C194.735 211.378 196.598 211.493 198.001 207.859ZM239.46 185.963C237.229 185.963 235.228 187.182 235.228 189.367C235.228 191.943 238.931 193.093 243.163 194.611C247.901 196.313 252.984 198.728 252.984 204.731C252.984 211.194 248.016 214.759 241.093 214.759C237.597 214.759 234.492 213.678 232.767 213.678C231.893 213.678 231.157 214.069 230.421 214.069C228.788 214.069 228.949 212.643 228.397 209.055C228.029 206.502 227.822 205.582 227.822 204.869C227.822 203.857 228.282 203.259 228.903 203.259C229.892 203.259 230.72 204.731 231.962 206.134C233.871 208.296 236.999 210.274 240.84 210.274C243.462 210.274 245.256 208.94 245.256 206.801C245.256 203.811 241.668 202.799 237.85 201.442C233.342 199.832 228.351 197.67 228.351 191.621C228.351 185.825 232.445 181.938 238.954 181.938C242.22 181.938 244.198 183.042 245.67 183.042C246.682 183.042 247.28 182.559 248.2 182.559C250.017 182.559 249.971 184.33 250.546 187.067C251.236 190.264 251.535 190.954 251.535 191.575C251.535 192.518 250.983 193.024 250.293 193.024C249.051 193.024 248.568 191.621 247.372 190.264C244.543 186.906 241.737 185.963 239.46 185.963Z" fill="#620E31"/>
<path d="M5.45256 247.16C4.5779 247.16 3.74056 247.037 2.94056 246.792C2.14056 246.536 1.5059 246.211 1.03656 245.816L1.75656 244.2C2.20456 244.552 2.75923 244.845 3.42056 245.08C4.0819 245.315 4.75923 245.432 5.45256 245.432C6.03923 245.432 6.5139 245.368 6.87656 245.24C7.23923 245.112 7.5059 244.941 7.67656 244.728C7.84723 244.504 7.93256 244.253 7.93256 243.976C7.93256 243.635 7.8099 243.363 7.56456 243.16C7.31923 242.947 6.99923 242.781 6.60456 242.664C6.22056 242.536 5.78856 242.419 5.30856 242.312C4.83923 242.205 4.36456 242.083 3.88456 241.944C3.41523 241.795 2.98323 241.608 2.58856 241.384C2.20456 241.149 1.8899 240.84 1.64456 240.456C1.39923 240.072 1.27656 239.581 1.27656 238.984C1.27656 238.376 1.43656 237.821 1.75656 237.32C2.08723 236.808 2.58323 236.403 3.24456 236.104C3.91656 235.795 4.76456 235.64 5.78856 235.64C6.46056 235.64 7.12723 235.725 7.78856 235.896C8.4499 236.067 9.0259 236.312 9.51656 236.632L8.86056 238.248C8.35923 237.949 7.8419 237.731 7.30856 237.592C6.77523 237.443 6.26323 237.368 5.77256 237.368C5.19656 237.368 4.72723 237.437 4.36456 237.576C4.01256 237.715 3.75123 237.896 3.58056 238.12C3.42056 238.344 3.34056 238.6 3.34056 238.888C3.34056 239.229 3.4579 239.507 3.69256 239.72C3.9379 239.923 4.25256 240.083 4.63656 240.2C5.03123 240.317 5.46856 240.435 5.94856 240.552C6.42856 240.659 6.90323 240.781 7.37256 240.92C7.85256 241.059 8.28456 241.24 8.66856 241.464C9.06323 241.688 9.3779 241.992 9.61256 242.376C9.8579 242.76 9.98056 243.245 9.98056 243.832C9.98056 244.429 9.81523 244.984 9.48456 245.496C9.16456 245.997 8.66856 246.403 7.99656 246.712C7.32456 247.011 6.47656 247.16 5.45256 247.16ZM13.9631 240.456H19.5311V242.168H13.9631V240.456ZM14.1231 245.256H20.4431V247H12.0431V235.8H20.2191V237.544H14.1231V245.256ZM27.9458 247.16C27.0925 247.16 26.2978 247.021 25.5618 246.744C24.8365 246.456 24.2018 246.056 23.6578 245.544C23.1245 245.021 22.7085 244.408 22.4098 243.704C22.1111 243 21.9618 242.232 21.9618 241.4C21.9618 240.568 22.1111 239.8 22.4098 239.096C22.7085 238.392 23.1298 237.784 23.6738 237.272C24.2178 236.749 24.8525 236.349 25.5778 236.072C26.3031 235.784 27.0978 235.64 27.9618 235.64C28.8791 235.64 29.7165 235.8 30.4738 236.12C31.2311 236.429 31.8711 236.893 32.3938 237.512L31.0498 238.776C30.6445 238.339 30.1911 238.013 29.6898 237.8C29.1885 237.576 28.6445 237.464 28.0578 237.464C27.4711 237.464 26.9325 237.56 26.4418 237.752C25.9618 237.944 25.5405 238.216 25.1778 238.568C24.8258 238.92 24.5485 239.336 24.3458 239.816C24.1538 240.296 24.0578 240.824 24.0578 241.4C24.0578 241.976 24.1538 242.504 24.3458 242.984C24.5485 243.464 24.8258 243.88 25.1778 244.232C25.5405 244.584 25.9618 244.856 26.4418 245.048C26.9325 245.24 27.4711 245.336 28.0578 245.336C28.6445 245.336 29.1885 245.229 29.6898 245.016C30.1911 244.792 30.6445 244.456 31.0498 244.008L32.3938 245.288C31.8711 245.896 31.2311 246.36 30.4738 246.68C29.7165 247 28.8738 247.16 27.9458 247.16ZM34.3868 247V235.8H38.9948C39.9868 235.8 40.8348 235.96 41.5388 236.28C42.2535 236.6 42.8028 237.059 43.1868 237.656C43.5708 238.253 43.7628 238.963 43.7628 239.784C43.7628 240.605 43.5708 241.315 43.1868 241.912C42.8028 242.499 42.2535 242.952 41.5388 243.272C40.8348 243.581 39.9868 243.736 38.9948 243.736H35.5388L36.4668 242.792V247H34.3868ZM41.7148 247L38.8828 242.936H41.1068L43.9548 247H41.7148ZM36.4668 243.016L35.5388 242.024H38.8988C39.8161 242.024 40.5041 241.827 40.9628 241.432C41.4321 241.037 41.6668 240.488 41.6668 239.784C41.6668 239.069 41.4321 238.52 40.9628 238.136C40.5041 237.752 39.8161 237.56 38.8988 237.56H35.5388L36.4668 236.536V243.016ZM48.0099 240.456H53.5779V242.168H48.0099V240.456ZM48.1699 245.256H54.4899V247H46.0899V235.8H54.2659V237.544H48.1699V245.256ZM59.0807 247V237.56H55.3687V235.8H64.8727V237.56H61.1607V247H59.0807ZM64.2872 247L69.3272 235.8H71.3752L76.4312 247H74.2552L69.9192 236.904H70.7512L66.4312 247H64.2872ZM66.6072 244.408L67.1672 242.776H73.2152L73.7752 244.408H66.6072ZM77.8556 247V235.8H82.4636C83.4556 235.8 84.3036 235.96 85.0076 236.28C85.7222 236.6 86.2716 237.059 86.6556 237.656C87.0396 238.253 87.2316 238.963 87.2316 239.784C87.2316 240.605 87.0396 241.315 86.6556 241.912C86.2716 242.499 85.7222 242.952 85.0076 243.272C84.3036 243.581 83.4556 243.736 82.4636 243.736H79.0076L79.9356 242.792V247H77.8556ZM85.1836 247L82.3516 242.936H84.5756L87.4236 247H85.1836ZM79.9356 243.016L79.0076 242.024H82.3676C83.2849 242.024 83.9729 241.827 84.4316 241.432C84.9009 241.037 85.1356 240.488 85.1356 239.784C85.1356 239.069 84.9009 238.52 84.4316 238.136C83.9729 237.752 83.2849 237.56 82.3676 237.56H79.0076L79.9356 236.536V243.016ZM89.5587 247V235.8H91.6387V247H89.5587ZM89.2547 234.888L91.4147 232.696H93.7667L90.9827 234.888H89.2547ZM93.0841 247L98.1241 235.8H100.172L105.228 247H103.052L98.7161 236.904H99.5481L95.2281 247H93.0841ZM95.4041 244.408L95.9641 242.776H102.012L102.572 244.408H95.4041ZM111.074 247V235.8H115.97C117.186 235.8 118.253 236.035 119.17 236.504C120.088 236.973 120.802 237.624 121.314 238.456C121.826 239.288 122.082 240.269 122.082 241.4C122.082 242.52 121.826 243.501 121.314 244.344C120.802 245.176 120.088 245.827 119.17 246.296C118.253 246.765 117.186 247 115.97 247H111.074ZM113.154 245.24H115.874C116.717 245.24 117.442 245.08 118.05 244.76C118.669 244.44 119.144 243.992 119.474 243.416C119.816 242.84 119.986 242.168 119.986 241.4C119.986 240.621 119.816 239.949 119.474 239.384C119.144 238.808 118.669 238.36 118.05 238.04C117.442 237.72 116.717 237.56 115.874 237.56H113.154V245.24ZM126.213 240.456H131.781V242.168H126.213V240.456ZM126.373 245.256H132.693V247H124.293V235.8H132.469V237.544H126.373V245.256ZM149.104 247.16C148.229 247.16 147.424 247.016 146.688 246.728C145.952 246.44 145.312 246.04 144.768 245.528C144.224 245.005 143.802 244.397 143.504 243.704C143.205 243 143.056 242.232 143.056 241.4C143.056 240.568 143.205 239.805 143.504 239.112C143.802 238.408 144.224 237.8 144.768 237.288C145.312 236.765 145.952 236.36 146.688 236.072C147.424 235.784 148.224 235.64 149.088 235.64C149.962 235.64 150.762 235.784 151.488 236.072C152.224 236.36 152.864 236.765 153.408 237.288C153.952 237.8 154.373 238.408 154.672 239.112C154.97 239.805 155.12 240.568 155.12 241.4C155.12 242.232 154.97 243 154.672 243.704C154.373 244.408 153.952 245.016 153.408 245.528C152.864 246.04 152.224 246.44 151.488 246.728C150.762 247.016 149.968 247.16 149.104 247.16ZM149.088 245.336C149.653 245.336 150.176 245.24 150.656 245.048C151.136 244.856 151.552 244.584 151.904 244.232C152.256 243.869 152.528 243.453 152.72 242.984C152.922 242.504 153.024 241.976 153.024 241.4C153.024 240.824 152.922 240.301 152.72 239.832C152.528 239.352 152.256 238.936 151.904 238.584C151.552 238.221 151.136 237.944 150.656 237.752C150.176 237.56 149.653 237.464 149.088 237.464C148.522 237.464 148 237.56 147.52 237.752C147.05 237.944 146.634 238.221 146.272 238.584C145.92 238.936 145.642 239.352 145.44 239.832C145.248 240.301 145.152 240.824 145.152 241.4C145.152 241.965 145.248 242.488 145.44 242.968C145.642 243.448 145.92 243.869 146.272 244.232C146.624 244.584 147.04 244.856 147.52 245.048C148 245.24 148.522 245.336 149.088 245.336ZM157.324 247V235.8H162.572C163.916 235.8 164.94 236.067 165.644 236.6C166.348 237.123 166.7 237.827 166.7 238.712C166.7 239.309 166.562 239.821 166.284 240.248C166.007 240.664 165.634 240.989 165.164 241.224C164.706 241.448 164.204 241.56 163.66 241.56L163.948 240.984C164.578 240.984 165.143 241.101 165.644 241.336C166.146 241.56 166.54 241.891 166.828 242.328C167.127 242.765 167.276 243.309 167.276 243.96C167.276 244.92 166.908 245.667 166.172 246.2C165.436 246.733 164.343 247 162.892 247H157.324ZM159.404 245.368H162.764C163.543 245.368 164.14 245.24 164.556 244.984C164.972 244.728 165.18 244.317 165.18 243.752C165.18 243.197 164.972 242.792 164.556 242.536C164.14 242.269 163.543 242.136 162.764 242.136H159.244V240.52H162.348C163.074 240.52 163.628 240.392 164.012 240.136C164.407 239.88 164.604 239.496 164.604 238.984C164.604 238.461 164.407 238.072 164.012 237.816C163.628 237.56 163.074 237.432 162.348 237.432H159.404V245.368ZM169.496 247V235.8H174.104C175.096 235.8 175.944 235.96 176.648 236.28C177.363 236.6 177.912 237.059 178.296 237.656C178.68 238.253 178.872 238.963 178.872 239.784C178.872 240.605 178.68 241.315 178.296 241.912C177.912 242.499 177.363 242.952 176.648 243.272C175.944 243.581 175.096 243.736 174.104 243.736H170.648L171.576 242.792V247H169.496ZM176.824 247L173.992 242.936H176.216L179.064 247H176.824ZM171.576 243.016L170.648 242.024H174.008C174.926 242.024 175.614 241.827 176.072 241.432C176.542 241.037 176.776 240.488 176.776 239.784C176.776 239.069 176.542 238.52 176.072 238.136C175.614 237.752 174.926 237.56 174.008 237.56H170.648L171.576 236.536V243.016ZM179.615 247L184.655 235.8H186.703L191.759 247H189.583L185.247 236.904H186.079L181.759 247H179.615ZM181.935 244.408L182.495 242.776H188.543L189.103 244.408H181.935ZM196.656 247.16C195.781 247.16 194.944 247.037 194.144 246.792C193.344 246.536 192.709 246.211 192.24 245.816L192.96 244.2C193.408 244.552 193.962 244.845 194.624 245.08C195.285 245.315 195.962 245.432 196.656 245.432C197.242 245.432 197.717 245.368 198.08 245.24C198.442 245.112 198.709 244.941 198.88 244.728C199.05 244.504 199.136 244.253 199.136 243.976C199.136 243.635 199.013 243.363 198.768 243.16C198.522 242.947 198.202 242.781 197.808 242.664C197.424 242.536 196.992 242.419 196.512 242.312C196.042 242.205 195.568 242.083 195.088 241.944C194.618 241.795 194.186 241.608 193.792 241.384C193.408 241.149 193.093 240.84 192.848 240.456C192.602 240.072 192.48 239.581 192.48 238.984C192.48 238.376 192.64 237.821 192.96 237.32C193.29 236.808 193.786 236.403 194.448 236.104C195.12 235.795 195.968 235.64 196.992 235.64C197.664 235.64 198.33 235.725 198.992 235.896C199.653 236.067 200.229 236.312 200.72 236.632L200.064 238.248C199.562 237.949 199.045 237.731 198.512 237.592C197.978 237.443 197.466 237.368 196.976 237.368C196.4 237.368 195.93 237.437 195.568 237.576C195.216 237.715 194.954 237.896 194.784 238.12C194.624 238.344 194.544 238.6 194.544 238.888C194.544 239.229 194.661 239.507 194.896 239.72C195.141 239.923 195.456 240.083 195.84 240.2C196.234 240.317 196.672 240.435 197.152 240.552C197.632 240.659 198.106 240.781 198.576 240.92C199.056 241.059 199.488 241.24 199.872 241.464C200.266 241.688 200.581 241.992 200.816 242.376C201.061 242.76 201.184 243.245 201.184 243.832C201.184 244.429 201.018 244.984 200.688 245.496C200.368 245.997 199.872 246.403 199.2 246.712C198.528 247.011 197.68 247.16 196.656 247.16ZM207.668 247V235.8H212.276C213.268 235.8 214.116 235.96 214.82 236.28C215.535 236.6 216.084 237.059 216.468 237.656C216.852 238.253 217.044 238.963 217.044 239.784C217.044 240.605 216.852 241.315 216.468 241.912C216.084 242.509 215.535 242.968 214.82 243.288C214.116 243.608 213.268 243.768 212.276 243.768H208.82L209.748 242.792V247H207.668ZM209.748 243.016L208.82 242.008H212.18C213.097 242.008 213.785 241.816 214.244 241.432C214.713 241.037 214.948 240.488 214.948 239.784C214.948 239.069 214.713 238.52 214.244 238.136C213.785 237.752 213.097 237.56 212.18 237.56H208.82L209.748 236.536V243.016ZM223.922 247.16C222.386 247.16 221.18 246.728 220.306 245.864C219.442 245 219.01 243.752 219.01 242.12V235.8H221.09V242.04C221.09 243.192 221.335 244.029 221.826 244.552C222.327 245.075 223.031 245.336 223.938 245.336C224.844 245.336 225.543 245.075 226.034 244.552C226.524 244.029 226.77 243.192 226.77 242.04V235.8H228.818V242.12C228.818 243.752 228.38 245 227.506 245.864C226.642 246.728 225.447 247.16 223.922 247.16ZM222.594 234.888L224.754 232.696H227.106L224.322 234.888H222.594ZM231.731 247V235.8H236.979C238.323 235.8 239.347 236.067 240.051 236.6C240.755 237.123 241.107 237.827 241.107 238.712C241.107 239.309 240.968 239.821 240.691 240.248C240.413 240.664 240.04 240.989 239.571 241.224C239.112 241.448 238.611 241.56 238.067 241.56L238.355 240.984C238.984 240.984 239.549 241.101 240.051 241.336C240.552 241.56 240.947 241.891 241.235 242.328C241.533 242.765 241.683 243.309 241.683 243.96C241.683 244.92 241.315 245.667 240.579 246.2C239.843 246.733 238.749 247 237.299 247H231.731ZM233.811 245.368H237.171C237.949 245.368 238.547 245.24 238.963 244.984C239.379 244.728 239.587 244.317 239.587 243.752C239.587 243.197 239.379 242.792 238.963 242.536C238.547 242.269 237.949 242.136 237.171 242.136H233.651V240.52H236.755C237.48 240.52 238.035 240.392 238.419 240.136C238.813 239.88 239.011 239.496 239.011 238.984C239.011 238.461 238.813 238.072 238.419 237.816C238.035 237.56 237.48 237.432 236.755 237.432H233.811V245.368ZM243.902 247V235.8H245.982V245.24H251.838V247H243.902ZM253.481 247V235.8H255.561V247H253.481ZM263.774 247.16C262.921 247.16 262.126 247.021 261.39 246.744C260.665 246.456 260.03 246.056 259.486 245.544C258.953 245.021 258.537 244.408 258.238 243.704C257.939 243 257.79 242.232 257.79 241.4C257.79 240.568 257.939 239.8 258.238 239.096C258.537 238.392 258.958 237.784 259.502 237.272C260.046 236.749 260.681 236.349 261.406 236.072C262.131 235.784 262.926 235.64 263.79 235.64C264.707 235.64 265.545 235.8 266.302 236.12C267.059 236.429 267.699 236.893 268.222 237.512L266.878 238.776C266.473 238.339 266.019 238.013 265.518 237.8C265.017 237.576 264.473 237.464 263.886 237.464C263.299 237.464 262.761 237.56 262.27 237.752C261.79 237.944 261.369 238.216 261.006 238.568C260.654 238.92 260.377 239.336 260.174 239.816C259.982 240.296 259.886 240.824 259.886 241.4C259.886 241.976 259.982 242.504 260.174 242.984C260.377 243.464 260.654 243.88 261.006 244.232C261.369 244.584 261.79 244.856 262.27 245.048C262.761 245.24 263.299 245.336 263.886 245.336C264.473 245.336 265.017 245.229 265.518 245.016C266.019 244.792 266.473 244.456 266.878 244.008L268.222 245.288C267.699 245.896 267.059 246.36 266.302 246.68C265.545 247 264.702 247.16 263.774 247.16ZM268.397 247L273.437 235.8H275.485L280.541 247H278.365L274.029 236.904H274.861L270.541 247H268.397ZM270.717 244.408L271.277 242.776H277.325L277.885 244.408H270.717ZM285.437 247.16C284.562 247.16 283.725 247.037 282.925 246.792C282.125 246.536 281.49 246.211 281.021 245.816L281.741 244.2C282.189 244.552 282.744 244.845 283.405 245.08C284.066 245.315 284.744 245.432 285.437 245.432C286.024 245.432 286.498 245.368 286.861 245.24C287.224 245.112 287.49 244.941 287.661 244.728C287.832 244.504 287.917 244.253 287.917 243.976C287.917 243.635 287.794 243.363 287.549 243.16C287.304 242.947 286.984 242.781 286.589 242.664C286.205 242.536 285.773 242.419 285.293 242.312C284.824 242.205 284.349 242.083 283.869 241.944C283.4 241.795 282.968 241.608 282.573 241.384C282.189 241.149 281.874 240.84 281.629 240.456C281.384 240.072 281.261 239.581 281.261 238.984C281.261 238.376 281.421 237.821 281.741 237.32C282.072 236.808 282.568 236.403 283.229 236.104C283.901 235.795 284.749 235.64 285.773 235.64C286.445 235.64 287.112 235.725 287.773 235.896C288.434 236.067 289.01 236.312 289.501 236.632L288.845 238.248C288.344 237.949 287.826 237.731 287.293 237.592C286.76 237.443 286.248 237.368 285.757 237.368C285.181 237.368 284.712 237.437 284.349 237.576C283.997 237.715 283.736 237.896 283.565 238.12C283.405 238.344 283.325 238.6 283.325 238.888C283.325 239.229 283.442 239.507 283.677 239.72C283.922 239.923 284.237 240.083 284.621 240.2C285.016 240.317 285.453 240.435 285.933 240.552C286.413 240.659 286.888 240.781 287.357 240.92C287.837 241.059 288.269 241.24 288.653 241.464C289.048 241.688 289.362 241.992 289.597 242.376C289.842 242.76 289.965 243.245 289.965 243.832C289.965 244.429 289.8 244.984 289.469 245.496C289.149 245.997 288.653 246.403 287.981 246.712C287.309 247.011 286.461 247.16 285.437 247.16ZM14.4357 267V262.568L14.8997 263.848L10.0357 255.8H12.2597L16.1637 262.28H14.9157L18.8517 255.8H20.8997L16.0357 263.848L16.5157 262.568V267H14.4357ZM31.9317 267.16C31.057 267.16 30.2517 267.016 29.5157 266.728C28.7797 266.44 28.1397 266.04 27.5957 265.528C27.0517 265.005 26.6304 264.397 26.3317 263.704C26.033 263 25.8837 262.232 25.8837 261.4C25.8837 260.568 26.033 259.805 26.3317 259.112C26.6304 258.408 27.0517 257.8 27.5957 257.288C28.1397 256.765 28.7797 256.36 29.5157 256.072C30.2517 255.784 31.0517 255.64 31.9157 255.64C32.7904 255.64 33.5904 255.784 34.3157 256.072C35.0517 256.36 35.6917 256.765 36.2357 257.288C36.7797 257.8 37.201 258.408 37.4997 259.112C37.7984 259.805 37.9477 260.568 37.9477 261.4C37.9477 262.232 37.7984 263 37.4997 263.704C37.201 264.408 36.7797 265.016 36.2357 265.528C35.6917 266.04 35.0517 266.44 34.3157 266.728C33.5904 267.016 32.7957 267.16 31.9317 267.16ZM31.9157 265.336C32.481 265.336 33.0037 265.24 33.4837 265.048C33.9637 264.856 34.3797 264.584 34.7317 264.232C35.0837 263.869 35.3557 263.453 35.5477 262.984C35.7504 262.504 35.8517 261.976 35.8517 261.4C35.8517 260.824 35.7504 260.301 35.5477 259.832C35.3557 259.352 35.0837 258.936 34.7317 258.584C34.3797 258.221 33.9637 257.944 33.4837 257.752C33.0037 257.56 32.481 257.464 31.9157 257.464C31.3504 257.464 30.8277 257.56 30.3477 257.752C29.8784 257.944 29.4624 258.221 29.0997 258.584C28.7477 258.936 28.4704 259.352 28.2677 259.832C28.0757 260.301 27.9797 260.824 27.9797 261.4C27.9797 261.965 28.0757 262.488 28.2677 262.968C28.4704 263.448 28.7477 263.869 29.0997 264.232C29.4517 264.584 29.8677 264.856 30.3477 265.048C30.8277 265.24 31.3504 265.336 31.9157 265.336ZM40.1524 267V255.8H44.7604C45.7524 255.8 46.6004 255.96 47.3044 256.28C48.0191 256.6 48.5684 257.059 48.9524 257.656C49.3364 258.253 49.5284 258.963 49.5284 259.784C49.5284 260.605 49.3364 261.315 48.9524 261.912C48.5684 262.499 48.0191 262.952 47.3044 263.272C46.6004 263.581 45.7524 263.736 44.7604 263.736H41.3044L42.2324 262.792V267H40.1524ZM47.4804 267L44.6484 262.936H46.8724L49.7204 267H47.4804ZM42.2324 263.016L41.3044 262.024H44.6644C45.5818 262.024 46.2698 261.827 46.7284 261.432C47.1978 261.037 47.4324 260.488 47.4324 259.784C47.4324 259.069 47.1978 258.52 46.7284 258.136C46.2698 257.752 45.5818 257.56 44.6644 257.56H41.3044L42.2324 256.536V263.016ZM51.8556 267V255.8H56.7516C57.9676 255.8 59.0342 256.035 59.9516 256.504C60.8689 256.973 61.5836 257.624 62.0956 258.456C62.6076 259.288 62.8636 260.269 62.8636 261.4C62.8636 262.52 62.6076 263.501 62.0956 264.344C61.5836 265.176 60.8689 265.827 59.9516 266.296C59.0342 266.765 57.9676 267 56.7516 267H51.8556ZM53.9356 265.24H56.6556C57.4982 265.24 58.2236 265.08 58.8316 264.76C59.4502 264.44 59.9249 263.992 60.2556 263.416C60.5969 262.84 60.7676 262.168 60.7676 261.4C60.7676 260.621 60.5969 259.949 60.2556 259.384C59.9249 258.808 59.4502 258.36 58.8316 258.04C58.2236 257.72 57.4982 257.56 56.6556 257.56H53.9356V265.24ZM66.9943 260.456H72.5623V262.168H66.9943V260.456ZM67.1543 265.256H73.4743V267H65.0743V255.8H73.2503V257.544H67.1543V265.256ZM75.7931 267V255.8H77.5051L84.5291 264.424H83.6811V255.8H85.7451V267H84.0331L77.0091 258.376H77.8571V267H75.7931ZM87.1622 267L92.2022 255.8H94.2502L99.3062 267H97.1302L92.7942 256.904H93.6262L89.3062 267H87.1622ZM89.4822 264.408L90.0422 262.776H96.0902L96.6502 264.408H89.4822ZM100.731 267V255.8H102.443L107.339 263.976H106.443L111.259 255.8H112.971L112.987 267H111.019L111.003 258.888H111.419L107.323 265.72H106.395L102.235 258.888H102.715V267H100.731ZM116.012 267V255.8H118.092V267H116.012ZM123.041 260.456H128.609V262.168H123.041V260.456ZM123.201 265.256H129.521V267H121.121V255.8H129.297V257.544H123.201V265.256ZM131.84 267V255.8H133.552L140.576 264.424H139.728V255.8H141.792V267H140.08L133.056 258.376H133.904V267H131.84ZM147.065 267V257.56H143.353V255.8H152.857V257.56H149.145V267H147.065ZM159.51 267.16C158.635 267.16 157.83 267.016 157.094 266.728C156.358 266.44 155.718 266.04 155.174 265.528C154.63 265.005 154.208 264.397 153.91 263.704C153.611 263 153.462 262.232 153.462 261.4C153.462 260.568 153.611 259.805 153.91 259.112C154.208 258.408 154.63 257.8 155.174 257.288C155.718 256.765 156.358 256.36 157.094 256.072C157.83 255.784 158.63 255.64 159.494 255.64C160.368 255.64 161.168 255.784 161.894 256.072C162.63 256.36 163.27 256.765 163.814 257.288C164.358 257.8 164.779 258.408 165.078 259.112C165.376 259.805 165.526 260.568 165.526 261.4C165.526 262.232 165.376 263 165.078 263.704C164.779 264.408 164.358 265.016 163.814 265.528C163.27 266.04 162.63 266.44 161.894 266.728C161.168 267.016 160.374 267.16 159.51 267.16ZM159.494 265.336C160.059 265.336 160.582 265.24 161.062 265.048C161.542 264.856 161.958 264.584 162.31 264.232C162.662 263.869 162.934 263.453 163.126 262.984C163.328 262.504 163.43 261.976 163.43 261.4C163.43 260.824 163.328 260.301 163.126 259.832C162.934 259.352 162.662 258.936 162.31 258.584C161.958 258.221 161.542 257.944 161.062 257.752C160.582 257.56 160.059 257.464 159.494 257.464C158.928 257.464 158.406 257.56 157.926 257.752C157.456 257.944 157.04 258.221 156.678 258.584C156.326 258.936 156.048 259.352 155.846 259.832C155.654 260.301 155.558 260.824 155.558 261.4C155.558 261.965 155.654 262.488 155.846 262.968C156.048 263.448 156.326 263.869 156.678 264.232C157.03 264.584 157.446 264.856 157.926 265.048C158.406 265.24 158.928 265.336 159.494 265.336ZM174.424 267V257.56H170.712V255.8H180.216V257.56H176.504V267H174.424ZM183.697 260.456H189.265V262.168H183.697V260.456ZM183.857 265.256H190.177V267H181.777V255.8H189.953V257.544H183.857V265.256ZM192.496 267V255.8H197.104C198.096 255.8 198.944 255.96 199.648 256.28C200.363 256.6 200.912 257.059 201.296 257.656C201.68 258.253 201.872 258.963 201.872 259.784C201.872 260.605 201.68 261.315 201.296 261.912C200.912 262.499 200.363 262.952 199.648 263.272C198.944 263.581 198.096 263.736 197.104 263.736H193.648L194.576 262.792V267H192.496ZM199.824 267L196.992 262.936H199.216L202.064 267H199.824ZM194.576 263.016L193.648 262.024H197.008C197.926 262.024 198.614 261.827 199.072 261.432C199.542 261.037 199.776 260.488 199.776 259.784C199.776 259.069 199.542 258.52 199.072 258.136C198.614 257.752 197.926 257.56 197.008 257.56H193.648L194.576 256.536V263.016ZM204.199 267V255.8H208.807C209.799 255.8 210.647 255.96 211.351 256.28C212.066 256.6 212.615 257.059 212.999 257.656C213.383 258.253 213.575 258.963 213.575 259.784C213.575 260.605 213.383 261.315 212.999 261.912C212.615 262.499 212.066 262.952 211.351 263.272C210.647 263.581 209.799 263.736 208.807 263.736H205.351L206.279 262.792V267H204.199ZM211.527 267L208.695 262.936H210.919L213.767 267H211.527ZM206.279 263.016L205.351 262.024H208.711C209.629 262.024 210.317 261.827 210.775 261.432C211.245 261.037 211.479 260.488 211.479 259.784C211.479 259.069 211.245 258.52 210.775 258.136C210.317 257.752 209.629 257.56 208.711 257.56H205.351L206.279 256.536V263.016ZM215.902 267V255.8H217.982V267H215.902ZM223.284 267V257.56H219.572V255.8H229.076V257.56H225.364V267H223.284ZM235.729 267.16C234.854 267.16 234.049 267.016 233.313 266.728C232.577 266.44 231.937 266.04 231.393 265.528C230.849 265.005 230.427 264.397 230.129 263.704C229.83 263 229.681 262.232 229.681 261.4C229.681 260.568 229.83 259.805 230.129 259.112C230.427 258.408 230.849 257.8 231.393 257.288C231.937 256.765 232.577 256.36 233.313 256.072C234.049 255.784 234.849 255.64 235.713 255.64C236.587 255.64 237.387 255.784 238.113 256.072C238.849 256.36 239.489 256.765 240.033 257.288C240.577 257.8 240.998 258.408 241.297 259.112C241.595 259.805 241.745 260.568 241.745 261.4C241.745 262.232 241.595 263 241.297 263.704C240.998 264.408 240.577 265.016 240.033 265.528C239.489 266.04 238.849 266.44 238.113 266.728C237.387 267.016 236.593 267.16 235.729 267.16ZM235.713 265.336C236.278 265.336 236.801 265.24 237.281 265.048C237.761 264.856 238.177 264.584 238.529 264.232C238.881 263.869 239.153 263.453 239.345 262.984C239.547 262.504 239.649 261.976 239.649 261.4C239.649 260.824 239.547 260.301 239.345 259.832C239.153 259.352 238.881 258.936 238.529 258.584C238.177 258.221 237.761 257.944 237.281 257.752C236.801 257.56 236.278 257.464 235.713 257.464C235.147 257.464 234.625 257.56 234.145 257.752C233.675 257.944 233.259 258.221 232.897 258.584C232.545 258.936 232.267 259.352 232.065 259.832C231.873 260.301 231.777 260.824 231.777 261.4C231.777 261.965 231.873 262.488 232.065 262.968C232.267 263.448 232.545 263.869 232.897 264.232C233.249 264.584 233.665 264.856 234.145 265.048C234.625 265.24 235.147 265.336 235.713 265.336ZM243.949 267V255.8H248.557C249.549 255.8 250.397 255.96 251.101 256.28C251.816 256.6 252.365 257.059 252.749 257.656C253.133 258.253 253.325 258.963 253.325 259.784C253.325 260.605 253.133 261.315 252.749 261.912C252.365 262.499 251.816 262.952 251.101 263.272C250.397 263.581 249.549 263.736 248.557 263.736H245.101L246.029 262.792V267H243.949ZM251.277 267L248.445 262.936H250.669L253.517 267H251.277ZM246.029 263.016L245.101 262.024H248.461C249.379 262.024 250.067 261.827 250.525 261.432C250.995 261.037 251.229 260.488 251.229 259.784C251.229 259.069 250.995 258.52 250.525 258.136C250.067 257.752 249.379 257.56 248.461 257.56H245.101L246.029 256.536V263.016ZM255.652 267V255.8H257.732V267H255.652ZM259.178 267L264.218 255.8H266.266L271.322 267H269.146L264.81 256.904H265.642L261.322 267H259.178ZM261.498 264.408L262.058 262.776H268.106L268.666 264.408H261.498ZM272.746 267V255.8H274.826V265.24H280.682V267H272.746Z" fill="#6B7071"/>
<path d="M106.23 108.685C106.07 108.621 106.022 106.324 106.022 97.9082V87.1952L106.631 86.617C106.951 86.2958 107.304 85.9424 107.416 85.83C107.512 85.7176 107.736 85.4927 107.913 85.316C108.089 85.1394 108.297 84.9306 108.361 84.8503C108.441 84.7699 108.73 84.4969 108.986 84.2399C109.259 83.9829 109.547 83.6938 109.627 83.5975C109.723 83.5011 110.22 82.9871 110.749 82.4571C111.278 81.9271 111.79 81.4292 111.871 81.3328C111.967 81.2525 112.255 80.9634 112.511 80.7064C112.784 80.4494 113.072 80.1603 113.168 80.0479C113.281 79.9354 113.505 79.7106 113.681 79.5339C113.858 79.3572 114.066 79.1484 114.146 79.0681C114.21 78.9878 114.498 78.7148 114.755 78.4578C115.027 78.2008 115.332 77.8956 115.444 77.7672C116.437 76.7071 117.848 75.4222 117.944 75.5025C117.992 75.5507 118.04 80.5297 118.04 86.5528V97.5067L117.479 98.0849C117.158 98.4222 116.838 98.6792 116.758 98.6792C116.678 98.6792 116.582 98.8237 116.518 99.0004C116.469 99.1771 116.213 99.434 115.957 99.5786C115.716 99.7392 115.428 100.012 115.332 100.221C115.252 100.414 114.963 100.703 114.691 100.864C114.418 101.024 114.194 101.249 114.194 101.361C114.194 101.474 113.938 101.731 113.633 101.924C113.329 102.132 113.072 102.373 113.072 102.486C113.072 102.582 112.784 102.871 112.431 103.128C112.079 103.369 111.79 103.642 111.79 103.706C111.79 103.883 110.46 105.184 109.948 105.521C109.723 105.666 109.547 105.875 109.547 106.003C109.547 106.116 109.259 106.405 108.906 106.662C108.554 106.903 108.265 107.192 108.265 107.304C108.265 107.401 108.025 107.641 107.72 107.818C107.432 108.011 107.143 108.3 107.095 108.477C107.015 108.782 106.663 108.862 106.23 108.685Z" fill="#9B2149"/>
<path d="M160.023 107.995C159.622 107.545 159.206 107.095 159.077 106.983C157.908 105.907 154.414 102.325 154.414 102.213C154.414 102.116 154.334 102.052 154.254 102.052C154.158 102.052 153.116 101.088 151.931 99.8998C150.264 98.2455 149.767 97.6512 149.767 97.33C149.767 96.7036 150.216 96.8 150.921 97.587C151.258 97.9564 151.53 98.3258 151.53 98.39C151.53 98.4543 151.626 98.5185 151.754 98.5185C151.883 98.5185 152.123 98.7434 152.283 99.0004C152.427 99.2734 152.684 99.5143 152.828 99.5625C152.956 99.6107 153.165 99.8195 153.277 100.012C153.389 100.221 153.677 100.51 153.918 100.655C154.158 100.799 154.446 101.088 154.575 101.313C154.687 101.538 154.847 101.731 154.911 101.731C155.007 101.731 156.514 103.192 157.171 103.915C157.315 104.092 157.908 104.686 158.485 105.248C159.061 105.81 159.542 106.324 159.542 106.389C159.542 106.453 159.686 106.549 159.863 106.597C160.039 106.646 160.183 106.774 160.183 106.903C160.183 107.015 160.327 107.208 160.504 107.32L160.824 107.513L160.792 97.3782C160.76 89.4278 160.696 87.2113 160.552 87.147C160.343 87.0828 160.247 85.9906 160.44 85.9906C160.488 85.9906 160.808 86.2636 161.161 86.5849L161.786 87.1791V97.7155C161.77 108.846 161.786 108.798 161.048 108.798C160.888 108.798 160.423 108.428 160.023 107.995Z" fill="#9B2149"/>
<path d="M119.754 95.2581C119.642 94.9208 119.61 78.4096 119.738 75.8077C119.818 73.816 119.899 73.2539 120.107 73.0772C120.363 72.8363 120.892 72.3063 121.213 71.985C121.405 71.7762 122.286 70.8929 122.494 70.7001C122.735 70.4753 123.328 69.8649 123.456 69.7204C123.52 69.6561 123.792 69.3991 124.049 69.1422C124.321 68.8852 124.626 68.58 124.738 68.4515C124.978 68.2106 126.789 66.3796 126.981 66.2029C127.206 65.9781 129.016 64.1631 129.177 63.9864C129.273 63.9061 129.561 63.617 129.818 63.36C130.09 63.1031 130.378 62.814 130.458 62.7176C130.795 62.3482 131.532 61.7218 131.596 61.77C131.628 61.8021 131.676 66.7008 131.724 72.6596C131.804 84.513 131.837 84.0793 130.859 84.6575C130.603 84.8021 130.378 85.0269 130.378 85.1394C130.378 85.2518 130.122 85.5088 129.818 85.7015C129.513 85.9103 129.257 86.1673 129.257 86.2797C129.257 86.3922 129 86.6331 128.696 86.8098C128.391 86.9864 128.103 87.2755 128.055 87.4522C128.007 87.6128 127.75 87.8698 127.51 88.0144C127.27 88.1589 127.013 88.432 126.917 88.6086C126.837 88.8014 126.565 89.0584 126.308 89.1869C126.052 89.2993 125.811 89.5402 125.779 89.7008C125.731 89.8614 125.443 90.1505 125.154 90.3433C124.85 90.52 124.61 90.7769 124.61 90.9054C124.61 91.0179 124.353 91.2909 124.049 91.4836C123.744 91.6924 123.488 91.9494 123.488 92.0619C123.488 92.1743 123.232 92.4152 122.927 92.5919C122.623 92.7686 122.334 93.0577 122.286 93.2183C122.238 93.395 121.95 93.668 121.661 93.8607C121.357 94.0374 121.084 94.3105 121.052 94.4711C120.94 94.8565 119.851 95.5151 119.754 95.2581Z" fill="#9B2149"/>
<path d="M141.531 89.4759C136.275 84.2078 135.714 83.5974 135.778 83.212C135.875 82.7141 136.419 82.6016 136.58 83.0513C136.644 83.1959 136.804 83.4368 136.932 83.5814C137.076 83.7259 137.301 83.999 137.429 84.1917C137.557 84.3844 137.717 84.5451 137.765 84.5451C137.878 84.5451 139.56 86.2155 141.467 88.2071C141.675 88.4159 141.98 88.705 142.14 88.8495C143.134 89.7329 143.678 90.4396 143.678 90.8733C143.678 91.2266 143.742 91.2909 144.127 91.2909C144.464 91.2909 144.816 91.5157 145.489 92.1903C145.986 92.6722 146.402 93.1379 146.434 93.2022C146.531 93.411 147.492 94.0213 147.748 94.0213C147.893 94.0213 148.005 94.1498 148.005 94.3104C148.005 94.8405 147.813 95.3062 147.588 95.3062C147.476 95.3062 144.752 92.6882 141.531 89.4759Z" fill="#9B2149"/>
<path d="M183.098 85.8942C182.969 85.8621 178.37 85.8139 172.874 85.7979C163.516 85.7497 162.875 85.7336 162.731 85.4606C162.635 85.316 162.475 85.1072 162.378 85.0269C162.266 84.9306 162.042 84.7378 161.85 84.5772C161.673 84.4326 161.433 84.1435 161.321 83.9508C161.225 83.742 161.048 83.5814 160.936 83.5814C160.712 83.5814 160.183 83.0192 160.183 82.7783C160.183 82.698 159.991 82.5374 159.75 82.425C159.51 82.3125 159.206 82.0074 159.093 81.7664C158.981 81.5255 158.805 81.3328 158.709 81.3328C158.629 81.3328 158.116 80.8831 157.603 80.337C157.074 79.7748 156.578 79.2609 156.482 79.1645C156.401 79.0842 155.889 78.5863 155.36 78.0723C154.847 77.5583 154.414 77.0604 154.414 76.9962C154.414 76.9159 154.222 76.7553 153.982 76.6428C153.741 76.5304 153.437 76.2252 153.325 75.9843C153.213 75.7434 153.052 75.5507 152.988 75.5507C152.796 75.5507 152.075 74.86 151.883 74.5067C151.77 74.2657 151.77 74.1051 151.931 73.8963C152.107 73.6394 152.844 73.6233 162.539 73.6233C171.608 73.6233 172.986 73.6554 173.163 73.8642C173.275 73.9927 173.531 74.1051 173.739 74.1051C173.996 74.1051 174.188 74.2657 174.364 74.587C174.509 74.86 174.717 75.0688 174.845 75.0688C174.989 75.0688 175.294 75.3579 175.534 75.7113C175.775 76.0486 176.015 76.3377 176.079 76.3537C176.207 76.3537 177.81 77.9278 177.81 78.0563C177.81 78.2008 178.194 78.5381 178.499 78.6505C178.643 78.6987 178.851 78.9236 178.947 79.1324C179.043 79.3412 179.316 79.6303 179.556 79.7748C179.797 79.9194 180.085 80.2085 180.213 80.4333C180.325 80.6582 180.486 80.8509 180.55 80.8509C180.646 80.8509 182.056 82.2162 182.633 82.8747C182.793 83.0514 183.082 83.3405 183.274 83.5171C183.995 84.1596 184.331 84.6254 184.412 85.0912C184.492 85.4766 184.428 85.573 183.963 85.7657C183.674 85.8942 183.402 85.9745 183.386 85.9745C183.354 85.9585 183.226 85.9264 183.098 85.8942Z" fill="#9B2149"/>
<path d="M83.1072 85.043C83.1072 84.9466 92.946 75.0046 94.1799 73.8642C94.3882 73.6554 95.9586 73.6233 105.012 73.6233C114.466 73.6233 115.62 73.6554 115.7 73.8803C115.748 74.0088 115.86 74.0891 115.941 74.0248C116.021 73.9766 116.149 74.0248 116.197 74.1212C116.261 74.2176 116.005 74.587 115.62 74.9564L114.915 75.5988L114.867 75.1009L114.819 74.587H104.676H94.5324L92.3852 76.7553C91.1994 77.9438 90.1418 78.9236 90.0457 78.9236C89.9335 78.9236 89.8374 79.0039 89.8374 79.1163C89.8374 79.3412 88.0587 81.1722 87.8343 81.1722C87.7382 81.1722 87.594 81.3328 87.5139 81.5416C87.4177 81.7343 87.1934 81.9592 87.0011 82.0556C86.7928 82.1359 86.6325 82.2804 86.6325 82.3768C86.6325 82.4571 86.0236 83.1317 85.2865 83.8705C84.293 84.8502 83.8443 85.1875 83.5239 85.1875C83.2995 85.1875 83.1072 85.1233 83.1072 85.043Z" fill="#9B2149"/>
<path d="M157.491 84.0632C157.267 83.8383 157.139 83.5332 157.139 83.1798V82.6337L157.651 83.1156C157.94 83.3726 158.34 83.758 158.549 83.9829L158.917 84.3844H158.372C158.052 84.3844 157.699 84.2559 157.491 84.0632Z" fill="#9B2149"/>
<path d="M154.735 81.124C154.735 81.0276 154.527 80.8349 154.254 80.7224C153.854 80.5458 153.773 80.4173 153.773 79.9515C153.773 79.4696 153.806 79.4215 154.062 79.55C154.206 79.6303 154.687 80.08 155.12 80.5136L155.905 81.3328H155.328C154.959 81.3328 154.735 81.2525 154.735 81.124Z" fill="#9B2149"/>
<path d="M151.722 78.2811C151.53 78.0884 151.37 77.7993 151.37 77.6387C151.37 77.4299 151.258 77.3174 151.081 77.3174C150.921 77.3174 150.569 77.1086 150.28 76.8356C149.832 76.4341 149.767 76.2895 149.88 75.888L150.008 75.4222L151.594 77.0123L153.197 78.6023H152.636C152.283 78.6023 151.931 78.4739 151.722 78.2811Z" fill="#9B2149"/>
<path d="M155.857 71.8565L149.191 71.7762L148.646 71.2462C146.274 68.9976 145.12 67.8251 145.12 67.7126C145.12 67.6323 144.944 67.4878 144.72 67.3914C144.512 67.295 144.223 66.9899 144.079 66.7168C143.951 66.4598 143.726 66.235 143.614 66.235C143.502 66.235 143.262 66.0422 143.101 65.8174C142.941 65.5765 142.701 65.3034 142.589 65.2071C142.22 64.9019 141.852 64.5325 141.579 64.2112C141.435 64.0506 141.163 63.7936 141.002 63.6652C140.826 63.5367 140.602 63.2636 140.49 63.0709C140.393 62.8621 140.201 62.7015 140.073 62.7015C139.961 62.7015 139.704 62.4445 139.512 62.1393C139.32 61.8341 139.095 61.5772 139.015 61.5772C138.791 61.5772 138.23 61.0471 138.23 60.8223C138.23 60.6938 138.054 60.5171 137.83 60.4207C136.756 59.9389 137.541 59.8907 148.598 59.8425C159.59 59.8104 159.654 59.8104 160.087 60.1477C160.311 60.3244 160.504 60.5653 160.504 60.6777C160.504 60.7902 160.68 60.9829 160.904 61.0953C161.129 61.2238 161.465 61.5611 161.641 61.8502C161.818 62.1393 162.074 62.3802 162.202 62.3802C162.33 62.3802 162.587 62.6372 162.763 62.9424C162.955 63.2476 163.18 63.5045 163.276 63.5045C163.468 63.5045 165.311 65.4159 165.311 65.6246C165.311 65.6889 165.391 65.7531 165.503 65.7531C165.695 65.7531 166.593 66.7008 166.593 66.9096C166.593 66.9738 166.657 67.0381 166.753 67.0381C166.945 67.0381 168.836 68.9494 168.836 69.1582C168.836 69.2224 168.916 69.2867 169.012 69.2867C169.205 69.2867 171.08 71.198 171.08 71.4068C171.08 71.471 171.192 71.5353 171.32 71.5353C171.656 71.5353 171.624 71.8565 171.288 71.8726C170.374 71.9368 161.545 71.9207 155.857 71.8565Z" fill="#9B2149"/>
<path d="M96.5034 71.5032C96.6636 71.3104 99.3557 68.596 102.448 65.4801C106.887 61.0311 108.185 59.8104 108.505 59.8104C108.794 59.8104 108.906 59.8907 108.906 60.1317C108.906 60.3083 108.81 60.4529 108.698 60.4529C108.586 60.4529 108.409 60.5974 108.297 60.7741C108.185 60.9508 107.993 61.0953 107.864 61.0953C107.736 61.0953 107.624 61.1917 107.624 61.3041C107.624 61.5611 106.791 62.3803 106.534 62.3803C106.422 62.3803 106.342 62.4606 106.342 62.5409C106.342 62.7979 105.365 63.8258 105.108 63.8258C104.996 63.8258 104.9 63.9222 104.9 64.0346C104.9 64.2594 103.233 65.9138 103.025 65.9138C102.945 65.9138 102.817 66.0744 102.737 66.2832C102.641 66.4759 102.416 66.7008 102.224 66.7972C102.016 66.8775 101.855 67.0381 101.855 67.1344C101.855 67.3593 101.006 68.1624 100.766 68.1624C100.654 68.1624 100.573 68.2266 100.573 68.323C100.573 68.5639 99.9005 69.2867 99.6601 69.2867C99.548 69.2867 99.4518 69.367 99.4518 69.4634C99.4518 69.5597 98.9711 70.1379 98.3782 70.7483C97.4488 71.6959 97.2084 71.8565 96.7437 71.8565H96.1989L96.5034 71.5032Z" fill="#9B2149"/>
<path d="M145.281 71.6316C145.281 71.5031 145.104 71.3586 144.88 71.3104C144.464 71.198 144.255 70.7161 144.351 70.1058C144.399 69.8006 144.544 69.897 145.441 70.8125L146.467 71.8565H145.874C145.473 71.8565 145.281 71.7762 145.281 71.6316Z" fill="#9B2149"/>
<path d="M140.121 66.7008C139.961 66.6205 139.833 66.3956 139.833 66.235C139.833 66.0583 139.752 65.9138 139.656 65.9138C139.56 65.9138 139.384 65.8174 139.272 65.7211C139.143 65.6086 138.935 65.4159 138.791 65.3035C138.663 65.191 138.551 64.8377 138.551 64.5164V63.9382L139.56 64.8859C140.105 65.3998 140.762 66.0744 141.002 66.3635L141.467 66.8775H140.922C140.634 66.8775 140.265 66.7972 140.121 66.7008Z" fill="#9B2149"/>
<path d="M135.827 62.9103C135.827 62.2518 136.003 61.7378 136.211 61.7378C136.323 61.7378 136.644 61.9948 136.948 62.2999L137.493 62.8621H137.06C136.788 62.8621 136.628 62.9424 136.628 63.103C136.628 63.2476 136.484 63.3439 136.227 63.3439C135.891 63.3439 135.827 63.2636 135.827 62.9103Z" fill="#9B2149"/>
<path d="M107.608 55.4899C107.384 55.2651 107.143 54.9438 107.095 54.7832C107.031 54.6387 106.807 54.4299 106.599 54.3496C106.374 54.2692 106.086 53.9801 105.942 53.7071C105.813 53.4501 105.589 53.2252 105.445 53.2252C105.317 53.2252 105.06 52.9683 104.884 52.6631C104.708 52.3579 104.419 52.0688 104.243 52.0206C104.083 51.9725 103.826 51.7315 103.682 51.4906C103.554 51.2497 103.217 50.9285 102.961 50.7839C102.705 50.6233 102.496 50.3984 102.496 50.2699C102.496 50.1254 102.288 49.9166 102.016 49.772C101.759 49.6435 101.423 49.3063 101.295 49.0493C101.15 48.7762 100.942 48.5674 100.798 48.5674C100.67 48.5674 100.413 48.3104 100.237 48.0053C100.061 47.7001 99.7723 47.411 99.596 47.3628C99.4358 47.2986 99.1794 47.0577 99.0672 46.8167C98.939 46.5758 98.6506 46.3028 98.4263 46.1903C98.1859 46.094 97.9295 45.8209 97.8173 45.5961C97.7212 45.3873 97.5129 45.1624 97.3526 45.1142C97.0802 45.0178 96.4072 44.2308 96.4072 44.006C96.4072 43.9578 101.407 43.9096 107.512 43.9096H118.601L119.883 45.1945C120.588 45.9173 121.886 47.1861 122.751 48.0535C123.632 48.9047 124.417 49.7078 124.513 49.8363C124.61 49.9487 125.122 50.4627 125.635 50.9606C126.164 51.4585 126.661 51.9564 126.757 52.0688C127.157 52.5667 128.76 54.1889 128.84 54.1889C128.952 54.1889 130.282 55.6184 130.346 55.8111C130.378 55.8915 125.699 55.9557 119.21 55.9396L108.025 55.9236L107.608 55.4899Z" fill="#9B2149"/>
<path d="M158.901 55.6505C158.901 55.4739 158.981 55.2811 159.078 55.2329C159.158 55.1687 159.302 54.9438 159.382 54.735C159.478 54.5102 159.67 54.3496 159.847 54.3496C160.039 54.3496 160.247 54.1408 160.408 53.8035C160.584 53.418 160.808 53.2253 161.129 53.145C161.497 53.0646 161.625 52.9201 161.705 52.5667C161.77 52.2616 161.962 52.0206 162.186 51.9403C162.394 51.86 162.651 51.587 162.779 51.3461C162.923 51.057 163.132 50.8803 163.404 50.8482C163.724 50.816 163.869 50.6715 163.965 50.286C164.077 49.9166 164.253 49.7399 164.622 49.6275C165.006 49.5311 165.151 49.3866 165.183 49.0653C165.215 48.7762 165.343 48.6317 165.583 48.5996C165.792 48.5674 166.032 48.3265 166.176 48.0053C166.32 47.7001 166.641 47.3628 166.865 47.2504C167.106 47.138 167.394 46.8649 167.49 46.6561C167.602 46.4473 167.843 46.2064 168.051 46.094C168.259 45.9976 168.532 45.7085 168.644 45.4676C168.788 45.1785 168.98 45.0339 169.221 45.0339C169.493 45.0339 169.621 44.9054 169.734 44.52C169.878 44.022 169.942 43.9899 170.711 43.9417L171.544 43.8936L169.317 46.1422C168.083 47.395 167.009 48.4068 166.913 48.4068C166.833 48.4068 166.753 48.4711 166.753 48.5514C166.753 48.7602 160.856 54.6708 160.664 54.6708C160.568 54.6708 160.504 54.7511 160.504 54.8635C160.504 54.976 160.311 55.2651 160.071 55.506C159.558 56.036 158.901 56.1163 158.901 55.6505Z" fill="#9B2149"/>
<path d="M136.099 53.948C135.827 53.7553 135.81 53.1289 135.827 43.3153C135.827 37.5975 135.859 32.7469 135.891 32.5542C136.003 31.976 136.451 31.2532 136.756 31.1568C136.916 31.1086 137.173 30.8356 137.333 30.5625C137.493 30.3056 137.797 30.0004 138.006 29.904C138.214 29.8077 138.422 29.5989 138.487 29.4222C138.535 29.2616 138.775 29.0206 139.015 28.9082C139.256 28.7797 139.528 28.4906 139.64 28.2658C139.736 28.0248 140.009 27.7679 140.233 27.6554C140.457 27.5591 140.634 27.4145 140.634 27.3503C140.634 27.2699 141.355 26.5151 142.236 25.6477C143.101 24.7804 143.903 23.9934 144.015 23.881C144.111 23.7846 144.816 23.0458 145.601 22.2588C147.172 20.6526 147.54 20.3796 147.813 20.6526C148.053 20.8935 148.085 41.7574 147.861 42.3356C147.684 42.7692 146.338 44.2308 146.098 44.2308C146.018 44.2308 145.81 44.4396 145.665 44.6966C145.505 44.9536 145.217 45.2427 145.008 45.3391C144.816 45.4355 144.64 45.58 144.64 45.6442C144.64 45.853 143.887 46.6401 143.694 46.6401C143.598 46.6401 143.438 46.8007 143.342 46.9934C143.101 47.4592 142.877 47.668 142.525 47.8125C142.364 47.8607 142.236 47.9732 142.236 48.0535C142.236 48.2462 138.086 52.4222 137.894 52.4222C137.814 52.4222 137.669 52.5989 137.573 52.8077C137.477 53.0165 137.221 53.2895 136.996 53.4019C136.772 53.5304 136.548 53.7392 136.484 53.8998C136.403 54.1247 136.339 54.1247 136.099 53.948Z" fill="#9B2149"/>
<path d="M93.7632 41.5486C93.5549 41.4362 93.3306 41.1952 93.2825 41.0186C93.2184 40.8419 92.962 40.5849 92.7056 40.4403C92.4493 40.3119 92.1448 40.0227 92.0487 39.814C91.9525 39.5891 91.8083 39.4124 91.7442 39.4124C91.5519 39.4124 89.6771 37.5493 89.6771 37.3565C89.6771 37.2602 89.4688 37.0674 89.1964 36.9229C88.94 36.7783 88.7156 36.5695 88.7156 36.425C88.7156 36.2965 88.4593 36.0395 88.1548 35.8628C87.8503 35.6862 87.5619 35.3971 87.5138 35.2204C87.4497 35.0598 87.1934 34.8028 86.937 34.6582C86.6806 34.5297 86.3922 34.2406 86.312 34.0158C86.2319 33.807 85.9755 33.55 85.7512 33.4697C85.5269 33.3894 85.2865 33.1806 85.2384 33.036C85.1102 32.6827 84.934 32.506 84.3571 32.1366C84.1007 31.976 83.9084 31.7672 83.9084 31.6547C83.9084 31.5423 83.7642 31.3335 83.5879 31.1729C83.1553 30.8035 83.1873 30.4501 83.6841 30.0004L84.0847 29.6149H94.2119H104.355L106.919 32.1687C108.345 33.5821 109.627 34.9152 109.771 35.1401C109.916 35.3649 110.092 35.5577 110.172 35.5577C110.348 35.5577 115.22 40.4564 115.556 40.9543C115.684 41.1631 115.909 41.3398 116.053 41.3398C116.197 41.3398 116.277 41.4362 116.229 41.5486C116.133 41.8377 94.3241 41.8377 93.7632 41.5486Z" fill="#9B2149"/>
<path d="M173.964 40.7776C173.964 40.4725 174.028 40.2155 174.108 40.2155C174.188 40.2155 174.332 40.0067 174.429 39.7336C174.509 39.4606 174.701 39.2518 174.845 39.2518C175.182 39.2518 175.566 38.8663 175.566 38.5451C175.566 38.4166 175.807 38.1917 176.111 38.0472C176.448 37.8866 176.688 37.6457 176.72 37.4369C176.752 37.2441 176.976 36.9871 177.217 36.8747C177.457 36.7462 177.73 36.4732 177.81 36.2644C177.938 35.9592 178.082 35.8789 178.531 35.8789C179.06 35.8789 179.092 35.8468 179.092 35.3167C179.092 34.851 179.172 34.7385 179.636 34.5137C179.973 34.3531 180.213 34.1121 180.245 33.9033C180.277 33.7106 180.438 33.5339 180.598 33.5018C180.998 33.4215 181.335 33.0842 181.335 32.763C181.335 32.6345 181.575 32.4096 181.88 32.2651C182.216 32.1045 182.505 31.8153 182.601 31.5262C182.681 31.2693 182.857 31.0605 182.985 31.0605C183.114 31.0605 183.306 30.948 183.418 30.8195C183.594 30.6107 182.553 30.5786 174.14 30.5786H164.67V30.1931C164.67 29.9362 164.782 29.7755 165.038 29.7113C165.679 29.5507 183.771 29.5989 183.658 29.7755C183.61 29.8719 183.675 29.9362 183.803 29.9362C184.043 29.9362 184.604 30.8838 184.46 31.0283C184.412 31.0765 184.38 31.0605 184.38 30.9801C184.38 30.8998 184.123 31.1889 183.803 31.5905C183.482 32.0081 183.114 32.3454 183.001 32.3454C182.873 32.3454 182.777 32.4096 182.777 32.506C182.777 32.6987 179.46 36.0395 179.268 36.0395C179.188 36.0395 179.092 36.1841 179.044 36.3768C178.995 36.5535 178.803 36.7462 178.627 36.7944C178.435 36.8426 178.29 36.9389 178.29 37.0032C178.29 37.1477 174.188 41.3398 174.044 41.3398C173.996 41.3398 173.964 41.0828 173.964 40.7776Z" fill="#9B2149"/>
<path d="M149.848 40.0227C149.8 39.8139 149.784 34.7706 149.8 28.7958L149.848 17.9382L151.53 16.3C152.46 15.4166 153.261 14.6296 153.325 14.5653C153.469 14.3886 155.312 12.5416 155.52 12.3488C155.616 12.2685 156.417 11.4494 157.299 10.55C158.18 9.63445 158.965 8.89563 159.045 8.89563C159.126 8.89563 159.238 8.75107 159.302 8.5744C159.35 8.39772 159.606 8.14074 159.879 7.98012C160.135 7.81951 160.391 7.57859 160.44 7.41797C160.568 7.00037 161.113 6.88794 161.481 7.22523C161.77 7.49828 161.786 7.83557 161.786 18.0346V28.5709L160.327 30.0646C159.542 30.8677 158.821 31.5423 158.741 31.5423C158.661 31.5423 158.517 31.6868 158.42 31.8635C158.324 32.0402 157.876 32.522 157.427 32.9396C156.337 33.9515 156.145 34.1603 155.857 34.5618C155.728 34.7546 155.568 34.9152 155.488 34.9152C155.36 34.9152 153.774 36.441 153.774 36.5695C153.774 36.6498 151.963 38.4808 150.665 39.7015C149.96 40.36 149.928 40.3761 149.848 40.0227Z" fill="#9B2149"/>
<path d="M119.786 39.5409C119.738 37.6778 119.722 20.5241 119.77 20.4278C119.931 20.0744 121.293 21.2951 126.036 26.0493C131.933 31.9599 132.269 32.3454 131.5 32.3454C131.035 32.3454 130.378 31.8796 130.378 31.5584C130.378 31.4138 130.154 31.205 129.882 31.0765C129.609 30.9641 129.353 30.7392 129.289 30.5947C129.193 30.3056 128.503 29.6149 128.311 29.6149C128.247 29.6149 128.103 29.4543 127.991 29.2455C127.879 29.0367 127.574 28.7476 127.318 28.587C127.061 28.4424 126.853 28.2176 126.853 28.1051C126.853 27.9766 126.741 27.8482 126.613 27.7839C126.484 27.7357 126.372 27.543 126.372 27.3663C126.372 27.1575 126.26 27.0451 126.052 27.0451C125.892 27.0451 125.683 26.9487 125.619 26.8363C125.555 26.7078 125.299 26.4829 125.042 26.3223C124.802 26.1778 124.562 25.8887 124.513 25.6959C124.465 25.5032 124.225 25.2623 123.953 25.1659C123.696 25.0695 123.488 24.8928 123.488 24.7644C123.488 24.6519 123.328 24.4271 123.135 24.2825C122.462 23.7685 121.084 22.4033 121.084 22.2266C121.084 22.1463 121.02 22.066 120.924 22.066C120.844 22.066 120.764 21.9536 120.764 21.8251C120.764 21.6966 120.7 21.5842 120.604 21.5842C120.491 21.5842 120.443 24.7965 120.443 30.8998C120.443 40.103 120.443 40.2155 120.123 40.2155C119.85 40.2155 119.802 40.103 119.786 39.5409Z" fill="#9B2149"/>
<path d="M117.239 18.3879C117.239 18.3076 117.094 18.1791 116.918 18.1309C116.742 18.0828 116.566 17.874 116.501 17.6812C116.453 17.4885 116.181 17.2154 115.909 17.0709C115.572 16.9103 115.38 16.6854 115.348 16.4124C115.316 16.1072 115.187 15.9787 114.819 15.8984C114.547 15.8502 114.274 15.6575 114.178 15.4326C114.082 15.2238 113.793 14.9347 113.537 14.7741C113.233 14.5974 113.072 14.3726 113.072 14.0995C113.072 13.8265 112.976 13.714 112.768 13.714C112.415 13.714 111.63 13.0234 111.63 12.7022C111.63 12.5737 111.454 12.4131 111.23 12.3649C111.005 12.3006 110.829 12.1882 110.829 12.0918C110.829 11.883 110.573 11.6421 109.996 11.2566C109.739 11.096 109.547 10.9033 109.547 10.7909C109.547 10.6142 108.938 10.0199 108.746 10.0199C108.682 10.0199 108.554 9.85929 108.441 9.65049C108.329 9.44169 108.025 9.15259 107.768 8.99197C107.512 8.84742 107.304 8.6065 107.304 8.47801C107.304 8.34952 107.24 8.25315 107.143 8.25315C107.063 8.25315 106.983 7.99616 106.983 7.691C106.983 7.38583 107.015 7.12885 107.063 7.12885C107.256 7.12885 118.04 18.0828 118.04 18.2916C118.04 18.4361 117.88 18.5325 117.639 18.5325C117.415 18.5325 117.239 18.4682 117.239 18.3879Z" fill="#9B2149"/>
<path d="M160.824 108.557C160.824 108.428 160.744 108.316 160.648 108.316C160.568 108.316 160.536 108.412 160.6 108.525C160.664 108.621 160.664 108.669 160.584 108.605C160.52 108.541 160.375 108.316 160.279 108.123C160.167 107.914 159.991 107.754 159.863 107.754C159.734 107.754 159.622 107.641 159.622 107.513C159.622 107.175 157.139 104.766 156.914 104.895C156.818 104.943 156.786 104.943 156.85 104.879C156.898 104.814 156.834 104.606 156.69 104.429C156.193 103.835 153.261 100.928 153.133 100.928C153.084 100.928 152.924 100.751 152.812 100.526C152.7 100.317 152.476 100.092 152.347 100.044C152.203 99.996 151.947 99.739 151.786 99.466C151.61 99.1769 151.418 99.0163 151.274 99.0644C151.146 99.1126 151.049 99.0644 151.049 98.952C151.049 98.8396 150.761 98.422 150.408 98.0365L149.767 97.3298L149.783 86.7132C149.8 80.8829 149.864 75.9359 149.928 75.7111C150.056 75.3256 150.104 75.3256 150.152 75.7593C150.168 75.8556 150.248 75.9359 150.328 75.9199C150.424 75.9199 150.585 76.0002 150.697 76.1287C150.809 76.2572 150.857 76.3535 150.809 76.3535C150.745 76.3535 151.049 76.6426 151.45 76.996C151.851 77.3494 152.139 77.6385 152.059 77.6385C151.995 77.6385 152.187 77.8151 152.492 78.0239C153.133 78.4576 154.334 79.7425 154.286 79.9352C154.27 79.9995 154.318 80.0477 154.414 80.0477C154.495 80.0477 155.328 80.8026 156.273 81.7341C157.203 82.6657 157.908 83.4206 157.844 83.4206C157.763 83.4206 157.892 83.5491 158.1 83.6936C158.805 84.1755 160.824 86.2153 160.824 86.4401C160.824 86.5526 160.888 86.6168 160.968 86.5526C161.048 86.5044 161.273 86.665 161.465 86.9059C161.77 87.2914 161.786 87.3556 161.561 87.4038C161.257 87.4681 161.225 87.8535 161.513 87.966C161.673 88.0302 161.673 88.0623 161.513 88.0623C161.385 88.0784 161.305 88.3354 161.305 88.7851C161.305 89.2027 161.385 89.5239 161.513 89.5721C161.673 89.6364 161.673 89.6685 161.513 89.6685C161.241 89.6845 161.209 107.288 161.465 107.384C161.561 107.416 161.657 107.657 161.673 107.914C161.705 108.332 161.657 108.396 161.353 108.348C160.968 108.3 160.84 108.557 161.193 108.685C161.305 108.733 161.273 108.782 161.113 108.782C160.952 108.798 160.824 108.685 160.824 108.557Z" fill="#631032"/>
<path d="M146.979 94.6154C146.835 94.4066 146.547 94.1336 146.322 94.0211C146.098 93.9087 145.89 93.6678 145.826 93.5072C145.777 93.3305 145.633 93.2341 145.505 93.2823C145.393 93.3305 145.297 93.3144 145.329 93.2502C145.393 93.0253 144.544 92.1419 143.871 91.7083C143.502 91.4834 143.198 91.1782 143.198 91.0498C143.198 90.9213 143.101 90.7607 142.989 90.6964C142.861 90.6322 142.653 90.3752 142.509 90.1503C142.348 89.9255 142.06 89.6524 141.852 89.54C141.643 89.4276 141.371 89.1545 141.259 88.9457C141.147 88.7208 140.954 88.5924 140.842 88.6245C140.73 88.6727 140.65 88.6566 140.682 88.5924C140.73 88.4317 140.49 88.1587 138.823 86.4562C138.038 85.6692 137.333 85.0588 137.253 85.1231C137.173 85.1713 137.108 85.1231 137.108 85.0267C137.108 84.8661 137.012 84.7215 136.467 84.0791C135.81 83.3081 135.827 83.4527 135.827 72.9806C135.827 66.3472 135.875 62.8619 135.987 62.8619C136.083 62.8619 136.147 62.6531 136.147 62.4122C136.147 62.1552 136.195 61.8982 136.243 61.85C136.387 61.7215 139.352 64.6608 139.256 64.8214C139.208 64.8857 139.24 64.9499 139.304 64.9499C139.544 64.9499 140.473 65.7851 140.377 65.9296C140.345 65.9939 140.506 66.1706 140.746 66.2991C141.339 66.6042 145.153 70.4911 145.008 70.6196C144.96 70.6838 144.992 70.732 145.104 70.732C145.393 70.732 147.636 72.9485 147.829 73.4303C147.957 73.7355 147.989 76.9157 147.973 84.2076L147.925 94.5512L147.572 94.776C147.252 94.9848 147.204 94.9688 146.979 94.6154Z" fill="#631032"/>
<path d="M94.0036 85.9904C88.4112 85.9422 83.7162 85.8458 83.5559 85.7816C82.8188 85.4122 83.0431 85.1231 87.1293 81.0435C89.3246 78.843 91.0712 76.996 90.9911 76.9157C90.927 76.8354 90.959 76.8193 91.0392 76.8836C91.1353 76.9317 91.8564 76.3214 92.6416 75.5344L94.0677 74.1049H104.836C114.21 74.1049 115.62 74.137 115.796 74.3458C115.941 74.5225 115.941 74.5868 115.812 74.5868C115.7 74.5868 115.668 74.6671 115.732 74.7795C115.796 74.8919 115.78 74.908 115.652 74.8437C115.556 74.7795 115.428 74.8437 115.364 75.0044C115.236 75.3577 105.124 85.5086 104.58 85.8298C104.227 86.0386 102.865 86.0546 94.0036 85.9904Z" fill="#631032"/>
<path d="M96.92 71.2621C97.2405 70.9248 97.8815 70.2823 98.3141 69.8165C98.7628 69.3507 99.1313 68.901 99.1313 68.8047C99.1313 68.7243 99.1794 68.6601 99.2595 68.6762C99.4358 68.7404 101.375 66.8291 101.375 66.6042C101.375 66.4918 101.487 66.3954 101.615 66.3954C101.743 66.3954 102.064 66.0903 102.336 65.7209C102.593 65.3675 102.817 65.1266 102.817 65.1908C102.817 65.2551 103.794 64.3396 104.98 63.151C106.166 61.9464 107.143 60.9024 107.143 60.8061C107.143 60.7257 107.288 60.6133 107.48 60.5651C107.656 60.5169 107.848 60.3242 107.897 60.1475C107.977 59.8263 108.025 59.8263 119.081 59.8102C125.603 59.8102 130.234 59.8745 130.282 59.9548C130.33 60.0351 127.75 62.7495 124.53 65.9778L118.681 71.8563H107.512H96.3431L96.92 71.2621Z" fill="#631032"/>
<path d="M137.525 55.8431C137.413 55.7307 137.557 55.57 139.208 53.9478C139.736 53.4178 140.265 52.8878 140.361 52.7753C140.474 52.6629 140.73 52.4059 140.938 52.2132C141.147 52.0205 141.435 51.7153 141.579 51.5547C141.723 51.3941 141.98 51.1371 142.14 50.9925C142.3 50.848 142.557 50.607 142.701 50.4304C143.358 49.6755 144.672 48.4066 144.8 48.4066C144.88 48.4066 145.072 48.1978 145.217 47.9408C145.377 47.6839 145.665 47.3787 145.874 47.2663C146.066 47.1538 146.274 46.9611 146.322 46.8165C146.37 46.672 146.563 46.4471 146.755 46.3186C146.931 46.1902 147.204 45.9492 147.348 45.7886C147.492 45.628 147.941 45.1301 148.357 44.6964L149.11 43.9094H160.103C169.91 43.9094 171.897 43.9737 170.791 44.2628C170.615 44.311 170.326 44.6964 170.118 45.114C169.878 45.5959 169.717 45.8047 169.637 45.6762C169.573 45.5638 169.429 45.5316 169.333 45.5798C169.237 45.6441 169.189 45.7726 169.253 45.8529C169.349 46.0295 168.708 46.6238 168.387 46.6399C168.275 46.6399 168.131 46.7684 168.083 46.929C167.923 47.3787 167.49 47.8445 167.234 47.8445C167.122 47.8445 166.833 48.1818 166.609 48.5994C166.384 49.033 166.16 49.29 166.096 49.1776C165.952 48.9527 165.631 49.1615 165.631 49.4988C165.631 49.804 165.183 50.2537 164.862 50.2537C164.766 50.2537 164.542 50.5107 164.381 50.8158C164.205 51.1692 163.997 51.378 163.789 51.378C163.596 51.378 163.388 51.5547 163.26 51.8438C163.132 52.1008 162.891 52.3417 162.715 52.3899C162.555 52.422 162.314 52.7111 162.186 53.0002C162.042 53.3536 161.818 53.5784 161.545 53.6427C161.305 53.7069 161.048 53.8996 160.968 54.0924C160.664 54.767 160.343 55.2327 160.343 55.0239C160.343 54.8955 160.247 54.8312 160.151 54.8794C160.039 54.9115 159.959 55.04 159.991 55.1364C160.007 55.2488 159.863 55.4737 159.67 55.6343C159.318 55.9395 158.869 55.9395 148.47 55.9555C142.509 55.9555 137.589 55.9073 137.525 55.8431Z" fill="#631032"/>
<path d="M131.244 53.8675C131.083 53.7069 129.737 52.3577 128.247 50.8961C126.773 49.4185 125.491 48.0854 125.411 47.9087C125.315 47.7481 125.171 47.6035 125.09 47.6035C124.962 47.6035 121.934 44.6322 120.732 43.3312C120.572 43.1545 120.299 42.8815 120.107 42.7048C119.786 42.3996 119.77 42.2711 119.851 40.5686C119.899 39.4925 119.883 38.8019 119.786 38.8661C119.706 38.9143 119.642 38.834 119.642 38.7055C119.642 38.5609 119.722 38.4485 119.802 38.4485C119.915 38.4485 119.963 35.3647 119.963 29.5344C119.963 20.6845 119.963 20.6203 120.283 20.6203C120.459 20.6203 120.652 20.7327 120.7 20.8612C120.764 20.9897 120.86 21.07 120.924 21.0218C121.004 20.9737 121.1 21.0861 121.165 21.2628C121.213 21.4394 121.341 21.584 121.421 21.584C121.501 21.584 121.565 21.6964 121.565 21.8249C121.565 22.098 122.11 22.4192 122.286 22.2586C122.366 22.1943 122.366 22.2264 122.318 22.3228C122.19 22.5477 122.735 23.0777 122.927 22.9171C122.991 22.8368 123.007 22.9171 122.943 23.0938C122.863 23.3186 122.911 23.3668 123.087 23.2865C123.232 23.2383 123.312 23.2544 123.264 23.3186C123.168 23.4792 123.728 23.9932 123.985 23.9932C124.081 23.9932 124.129 24.1056 124.065 24.2341C124.017 24.3787 124.113 24.5393 124.337 24.6517C124.786 24.8926 125.251 25.3745 125.155 25.4869C125.106 25.5351 125.203 25.6475 125.379 25.7439C125.555 25.8403 125.828 26.0491 125.988 26.1936C126.148 26.3542 126.34 26.4827 126.436 26.4827C126.533 26.4827 126.693 26.6594 126.789 26.8682C126.901 27.077 127.109 27.3179 127.238 27.3982C127.382 27.4785 127.462 27.607 127.414 27.6873C127.334 27.8158 127.847 28.2013 127.991 28.121C128.023 28.1049 128.039 28.121 128.023 28.1531C127.991 28.1852 128.151 28.378 128.375 28.5707C128.584 28.7795 128.712 28.9883 128.648 29.0686C128.584 29.1329 128.68 29.1329 128.856 29.0686C129.032 29.0044 129.128 29.0044 129.064 29.0526C128.936 29.1811 129.513 29.7753 129.737 29.7753C129.834 29.7753 129.898 29.9038 129.866 30.0644C129.834 30.2411 129.914 30.3375 130.09 30.3214C130.25 30.3054 130.346 30.3535 130.298 30.4178C130.25 30.482 130.41 30.6587 130.619 30.8033C130.843 30.9478 130.987 31.1245 130.955 31.2048C130.907 31.269 131.083 31.4939 131.356 31.6866L131.837 32.04L131.805 43.0421C131.788 49.0812 131.724 54.0602 131.66 54.1084C131.596 54.1406 131.404 54.0442 131.244 53.8675Z" fill="#631032"/>
<path d="M151.722 41.7893C151.514 41.5805 151.37 41.7411 154.863 38.2076C156.305 36.746 157.539 35.5575 157.619 35.5575C157.699 35.5575 157.86 35.3968 157.956 35.2041C158.196 34.7383 158.677 34.2565 158.789 34.3689C158.837 34.4171 158.949 34.3047 159.061 34.128C159.222 33.8228 160.263 32.7306 161.081 32.0079C161.257 31.8633 161.497 31.6063 161.625 31.4297C161.754 31.269 162.218 30.8193 162.651 30.4499C163.356 29.8396 163.516 29.7753 164.285 29.7753C164.766 29.7753 165.151 29.8556 165.151 29.9359C165.151 30.0484 168.275 30.0966 174.637 30.0966C179.845 30.0805 184.155 30.1447 184.219 30.209C184.428 30.4338 184.588 31.1084 184.412 30.996C184.315 30.9478 184.107 31.0602 183.947 31.269C183.787 31.4778 183.562 31.6224 183.45 31.5742C183.354 31.5421 183.21 31.6545 183.146 31.8151C183.001 32.2488 182.585 32.6825 182.184 32.8431C181.96 32.9234 181.816 33.1161 181.816 33.3088C181.816 33.4855 181.752 33.6301 181.671 33.6301C181.591 33.6301 181.463 33.7907 181.415 33.9674C181.335 34.2244 181.271 34.2565 181.175 34.1119C181.031 33.871 180.694 34.0316 180.694 34.3689C180.694 34.658 180.197 35.1559 179.893 35.1559C179.765 35.1559 179.636 35.3005 179.604 35.4771C179.524 35.8787 179.028 36.3605 178.691 36.3605C178.563 36.3605 178.371 36.5372 178.29 36.746C178.21 36.9548 177.954 37.2278 177.698 37.3563C177.457 37.4688 177.233 37.7097 177.201 37.8864C177.153 38.063 177.041 38.2718 176.912 38.3361C176.784 38.4003 176.688 38.5931 176.688 38.7376C176.688 38.9625 176.656 38.9625 176.544 38.7858C176.368 38.4967 176.047 38.7055 176.047 39.107C176.047 39.2676 175.983 39.4122 175.919 39.4122C175.839 39.4122 175.694 39.5728 175.598 39.7816C175.502 39.9744 175.422 40.0386 175.422 39.9422C175.39 39.5568 175.07 39.7334 174.909 40.2153C174.813 40.4883 174.669 40.6971 174.589 40.6971C174.509 40.6971 174.445 40.8095 174.445 40.938C174.445 41.0665 174.124 41.3556 173.756 41.5805L173.051 41.982H162.491C154.703 41.982 151.867 41.9338 151.722 41.7893Z" fill="#631032"/>
<path d="M117.367 39.9262C117.126 39.6852 116.774 39.3319 116.566 39.1391C115.989 38.577 115.845 38.4324 114.835 37.4045C114.322 36.8745 113.777 36.3284 113.649 36.1999C113.505 36.0714 113.024 35.5735 112.56 35.1077C112.095 34.6259 111.582 34.128 111.438 33.9834C111.085 33.6461 110.508 33.0679 110.156 32.6985C110.012 32.554 109.803 32.3612 109.707 32.2648C109.611 32.1845 109.371 31.9276 109.162 31.7027C108.954 31.4778 108.169 30.7069 107.4 29.9681L106.022 28.6189V17.8898C106.022 7.28929 106.022 7.14474 106.342 7.04837C106.791 6.90381 107.272 7.09655 107.384 7.4499C107.432 7.61052 107.592 7.78719 107.72 7.83538C107.848 7.88356 107.929 7.99599 107.864 8.0763C107.768 8.25298 108.313 8.60633 108.489 8.4939C108.538 8.44571 108.554 8.46178 108.505 8.52602C108.473 8.57421 108.602 8.783 108.826 8.97574C109.034 9.18454 109.162 9.39334 109.114 9.44152C109.05 9.48971 109.082 9.53789 109.178 9.53789C109.387 9.53789 109.9 10.0197 110.124 10.4213C110.236 10.5979 110.428 10.7264 110.573 10.7264C110.717 10.7104 110.797 10.7425 110.749 10.8067C110.717 10.871 110.861 11.0477 111.069 11.2083C111.294 11.3689 111.422 11.5616 111.39 11.6419C111.342 11.7062 111.454 11.8026 111.63 11.8668C111.806 11.931 112.063 12.1559 112.175 12.3968C112.303 12.6378 112.704 13.0072 113.056 13.232C113.425 13.4569 113.681 13.7139 113.649 13.8263C113.601 13.9227 113.761 14.1315 114.002 14.2921C114.498 14.6133 114.835 14.9345 114.883 15.1112C114.899 15.1755 115.011 15.2236 115.123 15.2236C115.236 15.2076 115.3 15.2236 115.252 15.2718C115.204 15.32 115.348 15.4967 115.556 15.6734C115.78 15.85 115.925 16.0428 115.877 16.1231C115.828 16.1873 116.005 16.3801 116.245 16.5246C116.79 16.878 117.239 17.3438 117.142 17.4562C117.094 17.4883 117.287 17.6007 117.543 17.6971L118.04 17.8738V29.0365C118.04 35.172 117.976 40.2313 117.912 40.2795C117.831 40.3277 117.591 40.1671 117.367 39.9262Z" fill="#631032"/>
</svg>
