<svg width="742" height="146" viewBox="0 0 742 146" fill="none" xmlns="http://www.w3.org/2000/svg">
<path d="M471.64 15.009C468.788 15.009 465.844 17.815 465.844 24.692C465.844 27.82 466.373 31.454 467.753 34.513C469.34 37.802 471.87 39.251 474.147 39.251C477.436 39.251 480.334 36.813 480.334 30.787C480.334 27.383 479.483 23.289 478.08 20.368C476.562 17.033 474.101 15.009 471.64 15.009ZM457.242 27.613C457.242 17.769 463.498 10.961 472.652 10.961C481.116 10.961 488.361 17.102 488.361 28.119C488.361 38.538 481.53 43.782 472.974 43.782C463.13 43.782 457.242 37.02 457.242 27.613ZM493.236 43.115C491.971 43.115 491.419 42.609 491.419 41.85C491.419 40.286 493.604 40.378 493.972 37.779C494.179 36.399 494.248 32.466 494.248 26.647C494.248 21.817 494.202 19.057 494.156 18.16C493.857 14.526 491.603 14.733 491.603 12.962C491.603 12.18 492.04 11.605 493.259 11.605C495.191 11.605 497.399 11.72 499.4 11.72C501.792 11.72 504.138 11.582 506.507 11.582C511.682 11.582 517.179 13.238 517.179 18.988C517.179 22.3 514.557 24.761 512.533 25.589C512.441 25.635 512.303 25.727 512.303 25.865C512.303 26.003 512.441 26.072 512.533 26.095C516.42 27.222 519.318 30.051 519.318 33.823C519.318 41.873 512.395 43.138 506.691 43.138C504.299 43.138 500.803 43 498.365 43C496.594 43 494.961 43.115 493.236 43.115ZM511.222 33.708C511.222 30.971 509.727 29.2 507.358 28.418C506.162 28.027 503.954 27.912 502.505 27.912C501.746 27.912 501.47 28.28 501.47 30.212V36.79C501.47 38.676 501.815 39.067 505.081 39.067C509.175 39.067 511.222 37.342 511.222 33.708ZM501.47 16.734V23.105C501.47 24.048 501.93 24.163 502.988 24.163C504.46 24.163 506.323 23.956 507.45 23.473C508.945 22.852 509.865 21.518 509.865 19.678C509.865 16.435 507.059 15.492 503.793 15.492C501.93 15.492 501.47 15.814 501.47 16.734ZM540.52 20.897C540.52 17.654 538.197 15.653 534.977 15.653C532.539 15.653 532.286 15.952 532.286 18.758V23.266C532.286 25.014 532.677 25.957 535.253 25.957C538.473 25.957 540.52 24.117 540.52 20.897ZM532.263 32.397V35.985C532.263 37.871 532.884 38.837 533.666 39.665C534.379 40.47 535.345 40.93 535.345 41.85C535.345 42.678 534.632 43.115 533.551 43.115C532.194 43.115 530.216 43 528.721 43C527.134 43 525.156 43.115 524.052 43.115C522.787 43.115 522.235 42.609 522.235 41.85C522.235 40.309 524.42 40.378 524.788 37.779C524.995 36.468 525.064 31.109 525.064 26.647C525.064 23.519 525.041 19.149 524.972 18.16C524.673 14.526 522.419 14.733 522.419 12.962C522.419 12.203 522.787 11.605 524.075 11.605C526.398 11.605 527.18 11.72 529.871 11.72C532.401 11.72 534.908 11.559 537.806 11.559C544.43 11.559 548.593 14.227 548.593 19.954C548.593 22.783 547.167 25.911 541.877 27.751C541.739 27.82 541.578 27.912 541.578 28.073C541.578 28.188 541.67 28.349 541.9 28.464C545.074 30.166 547.006 32.926 548.915 36.376C549.835 38.078 550.571 39.274 551.537 40.033C552.434 40.815 552.94 40.93 552.94 41.827C552.94 42.839 552.25 43.115 551.514 43.115C550.548 43.115 548.202 43 547.098 43C545.166 43 543.395 43.115 542.705 43.115C541.578 43.115 540.842 42.517 540.842 41.758C540.842 40.953 541.394 40.654 541.394 39.55C541.394 36.951 538.726 32.42 536.633 30.925C535.713 30.35 534.241 30.212 533.896 30.212C532.723 30.212 532.263 31.04 532.263 32.397ZM563.524 30.258H569.596C570.056 30.258 570.148 30.097 570.148 29.844C570.148 29.154 568.193 23.427 567.089 21.288C566.974 21.035 566.767 20.759 566.629 20.759C566.445 20.759 566.307 21.035 566.169 21.288C565.157 23.312 562.995 29.269 562.995 29.844C562.995 30.097 563.11 30.258 563.524 30.258ZM556.003 36.859L562.995 18.643C563.593 17.01 563.984 15.377 564.191 14.158C564.513 12.571 568.032 11.007 569.527 11.007C570.746 11.007 571.16 11.858 571.597 13.031L580.866 36.905C581.142 37.618 581.694 38.814 582.89 39.849C583.35 40.263 584.086 40.838 584.086 41.574C584.086 42.816 583.189 43.115 581.372 43.115C580.13 43.115 579.003 43 576.841 43C574.679 43 573.483 43.115 572.126 43.115C570.769 43.115 570.125 42.586 570.125 41.689C570.125 40.378 572.839 39.895 572.839 37.802C572.839 37.434 572.264 35.709 571.804 34.881C571.643 34.582 571.275 34.352 570.815 34.352H562.834C562.236 34.352 561.799 34.582 561.523 34.881C561.063 35.571 560.304 37.388 560.304 38.17C560.304 40.194 562.696 40.493 562.696 41.804C562.696 42.54 562.259 43.115 560.764 43.115C559.775 43.115 558.096 43 557.038 43C555.957 43 555.267 43.115 554.255 43.115C553.266 43.115 552.737 42.655 552.737 41.827C552.737 40.378 554.6 40.493 556.003 36.859ZM597.461 14.963C595.231 14.963 593.23 16.182 593.23 18.367C593.23 20.943 596.932 22.093 601.165 23.611C605.903 25.313 610.985 27.728 610.985 33.731C610.985 40.194 606.018 43.759 599.095 43.759C595.599 43.759 592.494 42.678 590.769 42.678C589.895 42.678 589.159 43.069 588.423 43.069C586.79 43.069 586.951 41.643 586.399 38.055C586.031 35.502 585.824 34.582 585.824 33.869C585.824 32.857 586.284 32.259 586.905 32.259C587.894 32.259 588.722 33.731 589.964 35.134C591.873 37.296 595.001 39.274 598.842 39.274C601.464 39.274 603.258 37.94 603.258 35.801C603.258 32.811 599.67 31.799 595.852 30.442C591.344 28.832 586.353 26.67 586.353 20.621C586.353 14.825 590.447 10.938 596.956 10.938C600.222 10.938 602.2 12.042 603.672 12.042C604.684 12.042 605.282 11.559 606.202 11.559C608.019 11.559 607.973 13.33 608.548 16.067C609.238 19.264 609.537 19.954 609.537 20.575C609.537 21.518 608.985 22.024 608.295 22.024C607.052 22.024 606.57 20.621 605.374 19.264C602.545 15.906 599.739 14.963 597.461 14.963ZM476.608 76.403C476.608 72.999 474.216 70.653 470.766 70.653C468.328 70.653 467.868 70.952 467.868 73.758V78.473C467.868 81.532 469.11 82.084 471.617 82.084C474.791 82.084 476.608 79.922 476.608 76.403ZM467.937 87.696V91.008C467.937 93.216 468.995 94.09 470.536 94.757C471.617 95.24 472.583 95.654 472.583 96.597C472.583 97.747 471.594 98.115 470.122 98.115C468.765 98.115 465.798 98 464.303 98C462.716 98 460.738 98.115 459.634 98.115C458.369 98.115 457.817 97.609 457.817 96.85C457.817 95.309 460.002 95.378 460.37 92.779C460.577 91.468 460.646 86.109 460.646 81.647C460.646 78.519 460.623 74.149 460.554 73.16C460.255 69.526 458.001 69.733 458.001 67.962C458.001 67.203 458.369 66.605 459.657 66.605C461.98 66.605 462.762 66.72 465.453 66.72C467.983 66.72 470.697 66.559 473.595 66.559C480.242 66.559 484.566 70.285 484.566 76.012C484.566 81.532 481.116 86.201 473.388 86.201C471.18 86.201 469.984 85.856 469.018 85.856C468.029 85.856 467.937 86.316 467.937 87.696ZM516.29 86.408C516.29 88.6773 515.784 90.732 514.772 92.572C513.79 94.3813 512.288 95.8227 510.264 96.896C508.27 97.9387 505.74 98.46 502.674 98.46C498.319 98.46 495.007 97.356 492.738 95.148C490.468 92.9093 489.334 89.9653 489.334 86.316V65.156H496.28V85.258C496.28 87.9567 496.832 89.858 497.936 90.962C499.04 92.066 500.68 92.618 502.858 92.618C504.391 92.618 505.633 92.3573 506.584 91.836C507.534 91.3147 508.224 90.502 508.654 89.398C509.114 88.294 509.344 86.8987 509.344 85.212V65.156H516.29V86.408ZM512.518 55.496C512.088 55.9253 511.521 56.4467 510.816 57.06C510.11 57.6733 509.344 58.3173 508.516 58.992C507.718 59.6667 506.921 60.3107 506.124 60.924C505.357 61.5067 504.682 61.9973 504.1 62.396H499.546V61.798C500.036 61.2153 500.604 60.5407 501.248 59.774C501.922 58.9767 502.582 58.164 503.226 57.336C503.87 56.4773 504.406 55.7107 504.836 55.036H512.518V55.496ZM523.827 98.115C522.562 98.115 522.01 97.609 522.01 96.85C522.01 95.286 524.195 95.378 524.563 92.779C524.77 91.399 524.839 87.466 524.839 81.647C524.839 76.817 524.793 74.057 524.747 73.16C524.448 69.526 522.194 69.733 522.194 67.962C522.194 67.18 522.631 66.605 523.85 66.605C525.782 66.605 527.99 66.72 529.991 66.72C532.383 66.72 534.729 66.582 537.098 66.582C542.273 66.582 547.77 68.238 547.77 73.988C547.77 77.3 545.148 79.761 543.124 80.589C543.032 80.635 542.894 80.727 542.894 80.865C542.894 81.003 543.032 81.072 543.124 81.095C547.011 82.222 549.909 85.051 549.909 88.823C549.909 96.873 542.986 98.138 537.282 98.138C534.89 98.138 531.394 98 528.956 98C527.185 98 525.552 98.115 523.827 98.115ZM541.813 88.708C541.813 85.971 540.318 84.2 537.949 83.418C536.753 83.027 534.545 82.912 533.096 82.912C532.337 82.912 532.061 83.28 532.061 85.212V91.79C532.061 93.676 532.406 94.067 535.672 94.067C539.766 94.067 541.813 92.342 541.813 88.708ZM532.061 71.734V78.105C532.061 79.048 532.521 79.163 533.579 79.163C535.051 79.163 536.914 78.956 538.041 78.473C539.536 77.852 540.456 76.518 540.456 74.678C540.456 71.435 537.65 70.492 534.384 70.492C532.521 70.492 532.061 70.814 532.061 71.734ZM555.656 81.647C555.656 78.542 555.656 74.149 555.587 73.114C555.288 69.503 553.011 69.71 553.011 67.962C553.011 67.203 553.379 66.605 554.667 66.605C556.07 66.605 557.818 66.72 559.313 66.72C560.854 66.72 563.384 66.605 564.718 66.605C565.937 66.605 566.351 67.203 566.351 67.962C566.351 69.917 563.338 69.549 563.016 73.206C562.901 74.195 562.878 77.507 562.878 81.647V90.985C562.878 93.515 563.798 93.975 566.972 93.975C572.009 93.975 573.343 92.043 574.47 88.869C575.022 87.466 575.505 86.822 576.241 86.822C577.046 86.822 577.391 87.581 577.391 88.8C577.391 90.088 577.023 93.009 576.816 96.275C576.724 97.701 576.195 98.115 574.608 98.115C572.699 98.115 569.203 98 565.201 98C559.06 98 556.116 98.115 554.644 98.115C553.471 98.115 552.827 97.678 552.827 96.85C552.827 95.263 554.966 95.355 555.38 92.779C555.587 91.583 555.656 87.627 555.656 81.647ZM590.596 66.605C591.815 66.605 592.229 67.203 592.229 67.962C592.229 69.733 590.021 69.48 589.699 73.114C589.584 74.126 589.561 77.507 589.561 81.647C589.561 86.822 589.676 91.353 589.86 92.71C590.274 95.355 592.413 95.286 592.413 96.85C592.413 97.54 591.815 98.115 590.596 98.115C589.239 98.115 587.491 98 585.996 98C584.455 98 582.684 98.115 581.327 98.115C580.062 98.115 579.51 97.54 579.51 96.85C579.51 95.286 581.718 95.332 582.086 92.71C582.27 91.445 582.339 86.04 582.339 81.647C582.339 78.542 582.339 74.149 582.27 73.114C581.971 69.503 579.694 69.71 579.694 67.962C579.694 67.203 580.062 66.605 581.35 66.605C582.753 66.605 584.501 66.72 585.996 66.72C587.537 66.72 589.285 66.605 590.596 66.605ZM595.444 82.475C595.444 74.057 600.435 65.938 610.486 65.938C614.028 65.938 615.684 67.042 617.133 67.042C618.168 67.042 618.835 66.559 619.755 66.559C621.526 66.559 621.572 68.33 622.124 71.067C622.722 74.172 623.044 74.931 623.044 75.575C623.044 76.564 622.469 77.024 621.802 77.024C620.583 77.024 619.962 75.621 618.95 74.172C616.834 71.205 614.051 69.503 611.291 69.503C606.208 69.503 603.586 74.264 603.586 79.738C603.586 86.822 607.427 92.549 613.683 92.549C618.007 92.549 620.491 89.789 621.687 87.535C622.101 86.868 622.446 86.316 622.929 86.316C623.596 86.316 623.849 87.236 623.849 87.995C623.849 89.49 623.389 91.192 622.423 92.756C620.445 95.953 616.351 98.782 610.532 98.782C600.826 98.782 595.444 91.1 595.444 82.475ZM635.488 85.258H641.56C642.02 85.258 642.112 85.097 642.112 84.844C642.112 84.154 640.157 78.427 639.053 76.288C638.938 76.035 638.731 75.759 638.593 75.759C638.409 75.759 638.271 76.035 638.133 76.288C637.121 78.312 634.959 84.269 634.959 84.844C634.959 85.097 635.074 85.258 635.488 85.258ZM627.967 91.859L634.959 73.643C635.557 72.01 635.948 70.377 636.155 69.158C636.477 67.571 639.996 66.007 641.491 66.007C642.71 66.007 643.124 66.858 643.561 68.031L652.83 91.905C653.106 92.618 653.658 93.814 654.854 94.849C655.314 95.263 656.05 95.838 656.05 96.574C656.05 97.816 655.153 98.115 653.336 98.115C652.094 98.115 650.967 98 648.805 98C646.643 98 645.447 98.115 644.09 98.115C642.733 98.115 642.089 97.586 642.089 96.689C642.089 95.378 644.803 94.895 644.803 92.802C644.803 92.434 644.228 90.709 643.768 89.881C643.607 89.582 643.239 89.352 642.779 89.352H634.798C634.2 89.352 633.763 89.582 633.487 89.881C633.027 90.571 632.268 92.388 632.268 93.17C632.268 95.194 634.66 95.493 634.66 96.804C634.66 97.54 634.223 98.115 632.728 98.115C631.739 98.115 630.06 98 629.002 98C627.921 98 627.231 98.115 626.219 98.115C625.23 98.115 624.701 97.655 624.701 96.827C624.701 95.378 626.564 95.493 627.967 91.859ZM669.426 69.963C667.195 69.963 665.194 71.182 665.194 73.367C665.194 75.943 668.897 77.093 673.129 78.611C677.867 80.313 682.95 82.728 682.95 88.731C682.95 95.194 677.982 98.759 671.059 98.759C667.563 98.759 664.458 97.678 662.733 97.678C661.859 97.678 661.123 98.069 660.387 98.069C658.754 98.069 658.915 96.643 658.363 93.055C657.995 90.502 657.788 89.582 657.788 88.869C657.788 87.857 658.248 87.259 658.869 87.259C659.858 87.259 660.686 88.731 661.928 90.134C663.837 92.296 666.965 94.274 670.806 94.274C673.428 94.274 675.222 92.94 675.222 90.801C675.222 87.811 671.634 86.799 667.816 85.442C663.308 83.832 658.317 81.67 658.317 75.621C658.317 69.825 662.411 65.938 668.92 65.938C672.186 65.938 674.164 67.042 675.636 67.042C676.648 67.042 677.246 66.559 678.166 66.559C679.983 66.559 679.937 68.33 680.512 71.067C681.202 74.264 681.501 74.954 681.501 75.575C681.501 76.518 680.949 77.024 680.259 77.024C679.017 77.024 678.534 75.621 677.338 74.264C674.509 70.906 671.703 69.963 669.426 69.963Z" fill="#620E31"/>
<path d="M460.976 122.16C460.101 122.16 459.264 122.037 458.464 121.792C457.664 121.536 457.029 121.211 456.56 120.816L457.28 119.2C457.728 119.552 458.283 119.845 458.944 120.08C459.605 120.315 460.283 120.432 460.976 120.432C461.563 120.432 462.037 120.368 462.4 120.24C462.763 120.112 463.029 119.941 463.2 119.728C463.371 119.504 463.456 119.253 463.456 118.976C463.456 118.635 463.333 118.363 463.088 118.16C462.843 117.947 462.523 117.781 462.128 117.664C461.744 117.536 461.312 117.419 460.832 117.312C460.363 117.205 459.888 117.083 459.408 116.944C458.939 116.795 458.507 116.608 458.112 116.384C457.728 116.149 457.413 115.84 457.168 115.456C456.923 115.072 456.8 114.581 456.8 113.984C456.8 113.376 456.96 112.821 457.28 112.32C457.611 111.808 458.107 111.403 458.768 111.104C459.44 110.795 460.288 110.64 461.312 110.64C461.984 110.64 462.651 110.725 463.312 110.896C463.973 111.067 464.549 111.312 465.04 111.632L464.384 113.248C463.883 112.949 463.365 112.731 462.832 112.592C462.299 112.443 461.787 112.368 461.296 112.368C460.72 112.368 460.251 112.437 459.888 112.576C459.536 112.715 459.275 112.896 459.104 113.12C458.944 113.344 458.864 113.6 458.864 113.888C458.864 114.229 458.981 114.507 459.216 114.72C459.461 114.923 459.776 115.083 460.16 115.2C460.555 115.317 460.992 115.435 461.472 115.552C461.952 115.659 462.427 115.781 462.896 115.92C463.376 116.059 463.808 116.24 464.192 116.464C464.587 116.688 464.901 116.992 465.136 117.376C465.381 117.76 465.504 118.245 465.504 118.832C465.504 119.429 465.339 119.984 465.008 120.496C464.688 120.997 464.192 121.403 463.52 121.712C462.848 122.011 462 122.16 460.976 122.16ZM469.487 115.456H475.055V117.168H469.487V115.456ZM469.647 120.256H475.967V122H467.567V110.8H475.743V112.544H469.647V120.256ZM483.469 122.16C482.616 122.16 481.821 122.021 481.085 121.744C480.36 121.456 479.725 121.056 479.181 120.544C478.648 120.021 478.232 119.408 477.933 118.704C477.635 118 477.485 117.232 477.485 116.4C477.485 115.568 477.635 114.8 477.933 114.096C478.232 113.392 478.653 112.784 479.197 112.272C479.741 111.749 480.376 111.349 481.101 111.072C481.827 110.784 482.621 110.64 483.485 110.64C484.403 110.64 485.24 110.8 485.997 111.12C486.755 111.429 487.395 111.893 487.917 112.512L486.573 113.776C486.168 113.339 485.715 113.013 485.213 112.8C484.712 112.576 484.168 112.464 483.581 112.464C482.995 112.464 482.456 112.56 481.965 112.752C481.485 112.944 481.064 113.216 480.701 113.568C480.349 113.92 480.072 114.336 479.869 114.816C479.677 115.296 479.581 115.824 479.581 116.4C479.581 116.976 479.677 117.504 479.869 117.984C480.072 118.464 480.349 118.88 480.701 119.232C481.064 119.584 481.485 119.856 481.965 120.048C482.456 120.24 482.995 120.336 483.581 120.336C484.168 120.336 484.712 120.229 485.213 120.016C485.715 119.792 486.168 119.456 486.573 119.008L487.917 120.288C487.395 120.896 486.755 121.36 485.997 121.68C485.24 122 484.397 122.16 483.469 122.16ZM489.91 122V110.8H494.518C495.51 110.8 496.358 110.96 497.062 111.28C497.777 111.6 498.326 112.059 498.71 112.656C499.094 113.253 499.286 113.963 499.286 114.784C499.286 115.605 499.094 116.315 498.71 116.912C498.326 117.499 497.777 117.952 497.062 118.272C496.358 118.581 495.51 118.736 494.518 118.736H491.062L491.99 117.792V122H489.91ZM497.238 122L494.406 117.936H496.63L499.478 122H497.238ZM491.99 118.016L491.062 117.024H494.422C495.34 117.024 496.028 116.827 496.486 116.432C496.956 116.037 497.19 115.488 497.19 114.784C497.19 114.069 496.956 113.52 496.486 113.136C496.028 112.752 495.34 112.56 494.422 112.56H491.062L491.99 111.536V118.016ZM503.533 115.456H509.101V117.168H503.533V115.456ZM503.693 120.256H510.013V122H501.613V110.8H509.789V112.544H503.693V120.256ZM514.604 122V112.56H510.892V110.8H520.396V112.56H516.684V122H514.604ZM519.811 122L524.851 110.8H526.899L531.955 122H529.779L525.443 111.904H526.275L521.955 122H519.811ZM522.131 119.408L522.691 117.776H528.739L529.299 119.408H522.131ZM533.379 122V110.8H537.987C538.979 110.8 539.827 110.96 540.531 111.28C541.246 111.6 541.795 112.059 542.179 112.656C542.563 113.253 542.755 113.963 542.755 114.784C542.755 115.605 542.563 116.315 542.179 116.912C541.795 117.499 541.246 117.952 540.531 118.272C539.827 118.581 538.979 118.736 537.987 118.736H534.531L535.459 117.792V122H533.379ZM540.707 122L537.875 117.936H540.099L542.947 122H540.707ZM535.459 118.016L534.531 117.024H537.891C538.808 117.024 539.496 116.827 539.955 116.432C540.424 116.037 540.659 115.488 540.659 114.784C540.659 114.069 540.424 113.52 539.955 113.136C539.496 112.752 538.808 112.56 537.891 112.56H534.531L535.459 111.536V118.016ZM545.082 122V110.8H547.162V122H545.082ZM544.778 109.888L546.938 107.696H549.29L546.506 109.888H544.778ZM548.607 122L553.648 110.8H555.696L560.752 122H558.576L554.24 111.904H555.072L550.752 122H548.607ZM550.928 119.408L551.488 117.776H557.536L558.095 119.408H550.928ZM566.598 122V110.8H571.494C572.71 110.8 573.776 111.035 574.694 111.504C575.611 111.973 576.326 112.624 576.838 113.456C577.35 114.288 577.606 115.269 577.606 116.4C577.606 117.52 577.35 118.501 576.838 119.344C576.326 120.176 575.611 120.827 574.694 121.296C573.776 121.765 572.71 122 571.494 122H566.598ZM568.678 120.24H571.398C572.24 120.24 572.966 120.08 573.574 119.76C574.192 119.44 574.667 118.992 574.998 118.416C575.339 117.84 575.51 117.168 575.51 116.4C575.51 115.621 575.339 114.949 574.998 114.384C574.667 113.808 574.192 113.36 573.574 113.04C572.966 112.72 572.24 112.56 571.398 112.56H568.678V120.24ZM581.737 115.456H587.305V117.168H581.737V115.456ZM581.897 120.256H588.217V122H579.817V110.8H587.993V112.544H581.897V120.256ZM600.205 122.16C599.33 122.16 598.525 122.016 597.789 121.728C597.053 121.44 596.413 121.04 595.869 120.528C595.325 120.005 594.904 119.397 594.605 118.704C594.306 118 594.157 117.232 594.157 116.4C594.157 115.568 594.306 114.805 594.605 114.112C594.904 113.408 595.325 112.8 595.869 112.288C596.413 111.765 597.053 111.36 597.789 111.072C598.525 110.784 599.325 110.64 600.189 110.64C601.064 110.64 601.864 110.784 602.589 111.072C603.325 111.36 603.965 111.765 604.509 112.288C605.053 112.8 605.474 113.408 605.773 114.112C606.072 114.805 606.221 115.568 606.221 116.4C606.221 117.232 606.072 118 605.773 118.704C605.474 119.408 605.053 120.016 604.509 120.528C603.965 121.04 603.325 121.44 602.589 121.728C601.864 122.016 601.069 122.16 600.205 122.16ZM600.189 120.336C600.754 120.336 601.277 120.24 601.757 120.048C602.237 119.856 602.653 119.584 603.005 119.232C603.357 118.869 603.629 118.453 603.821 117.984C604.024 117.504 604.125 116.976 604.125 116.4C604.125 115.824 604.024 115.301 603.821 114.832C603.629 114.352 603.357 113.936 603.005 113.584C602.653 113.221 602.237 112.944 601.757 112.752C601.277 112.56 600.754 112.464 600.189 112.464C599.624 112.464 599.101 112.56 598.621 112.752C598.152 112.944 597.736 113.221 597.373 113.584C597.021 113.936 596.744 114.352 596.541 114.832C596.349 115.301 596.253 115.824 596.253 116.4C596.253 116.965 596.349 117.488 596.541 117.968C596.744 118.448 597.021 118.869 597.373 119.232C597.725 119.584 598.141 119.856 598.621 120.048C599.101 120.24 599.624 120.336 600.189 120.336ZM608.426 122V110.8H613.674C615.018 110.8 616.042 111.067 616.746 111.6C617.45 112.123 617.802 112.827 617.802 113.712C617.802 114.309 617.663 114.821 617.386 115.248C617.109 115.664 616.735 115.989 616.266 116.224C615.807 116.448 615.306 116.56 614.762 116.56L615.05 115.984C615.679 115.984 616.245 116.101 616.746 116.336C617.247 116.56 617.642 116.891 617.93 117.328C618.229 117.765 618.378 118.309 618.378 118.96C618.378 119.92 618.01 120.667 617.274 121.2C616.538 121.733 615.445 122 613.994 122H608.426ZM610.506 120.368H613.866C614.645 120.368 615.242 120.24 615.658 119.984C616.074 119.728 616.282 119.317 616.282 118.752C616.282 118.197 616.074 117.792 615.658 117.536C615.242 117.269 614.645 117.136 613.866 117.136H610.346V115.52H613.45C614.175 115.52 614.73 115.392 615.114 115.136C615.509 114.88 615.706 114.496 615.706 113.984C615.706 113.461 615.509 113.072 615.114 112.816C614.73 112.56 614.175 112.432 613.45 112.432H610.506V120.368ZM620.598 122V110.8H625.206C626.198 110.8 627.046 110.96 627.75 111.28C628.464 111.6 629.014 112.059 629.398 112.656C629.782 113.253 629.974 113.963 629.974 114.784C629.974 115.605 629.782 116.315 629.398 116.912C629.014 117.499 628.464 117.952 627.75 118.272C627.046 118.581 626.198 118.736 625.206 118.736H621.75L622.678 117.792V122H620.598ZM627.926 122L625.094 117.936H627.318L630.166 122H627.926ZM622.678 118.016L621.75 117.024H625.11C626.027 117.024 626.715 116.827 627.174 116.432C627.643 116.037 627.878 115.488 627.878 114.784C627.878 114.069 627.643 113.52 627.174 113.136C626.715 112.752 626.027 112.56 625.11 112.56H621.75L622.678 111.536V118.016ZM630.717 122L635.757 110.8H637.805L642.861 122H640.685L636.349 111.904H637.181L632.861 122H630.717ZM633.037 119.408L633.597 117.776H639.645L640.205 119.408H633.037ZM647.757 122.16C646.883 122.16 646.045 122.037 645.245 121.792C644.445 121.536 643.811 121.211 643.341 120.816L644.061 119.2C644.509 119.552 645.064 119.845 645.725 120.08C646.387 120.315 647.064 120.432 647.757 120.432C648.344 120.432 648.819 120.368 649.181 120.24C649.544 120.112 649.811 119.941 649.981 119.728C650.152 119.504 650.237 119.253 650.237 118.976C650.237 118.635 650.115 118.363 649.869 118.16C649.624 117.947 649.304 117.781 648.909 117.664C648.525 117.536 648.093 117.419 647.613 117.312C647.144 117.205 646.669 117.083 646.189 116.944C645.72 116.795 645.288 116.608 644.893 116.384C644.509 116.149 644.195 115.84 643.949 115.456C643.704 115.072 643.581 114.581 643.581 113.984C643.581 113.376 643.741 112.821 644.061 112.32C644.392 111.808 644.888 111.403 645.549 111.104C646.221 110.795 647.069 110.64 648.093 110.64C648.765 110.64 649.432 110.725 650.093 110.896C650.755 111.067 651.331 111.312 651.821 111.632L651.165 113.248C650.664 112.949 650.147 112.731 649.613 112.592C649.08 112.443 648.568 112.368 648.077 112.368C647.501 112.368 647.032 112.437 646.669 112.576C646.317 112.715 646.056 112.896 645.885 113.12C645.725 113.344 645.645 113.6 645.645 113.888C645.645 114.229 645.763 114.507 645.997 114.72C646.243 114.923 646.557 115.083 646.941 115.2C647.336 115.317 647.773 115.435 648.253 115.552C648.733 115.659 649.208 115.781 649.677 115.92C650.157 116.059 650.589 116.24 650.973 116.464C651.368 116.688 651.683 116.992 651.917 117.376C652.163 117.76 652.285 118.245 652.285 118.832C652.285 119.429 652.12 119.984 651.789 120.496C651.469 120.997 650.973 121.403 650.301 121.712C649.629 122.011 648.781 122.16 647.757 122.16ZM658.77 122V110.8H663.378C664.37 110.8 665.218 110.96 665.922 111.28C666.636 111.6 667.186 112.059 667.57 112.656C667.954 113.253 668.146 113.963 668.146 114.784C668.146 115.605 667.954 116.315 667.57 116.912C667.186 117.509 666.636 117.968 665.922 118.288C665.218 118.608 664.37 118.768 663.378 118.768H659.922L660.85 117.792V122H658.77ZM660.85 118.016L659.922 117.008H663.282C664.199 117.008 664.887 116.816 665.346 116.432C665.815 116.037 666.05 115.488 666.05 114.784C666.05 114.069 665.815 113.52 665.346 113.136C664.887 112.752 664.199 112.56 663.282 112.56H659.922L660.85 111.536V118.016ZM675.023 122.16C673.487 122.16 672.282 121.728 671.407 120.864C670.543 120 670.111 118.752 670.111 117.12V110.8H672.191V117.04C672.191 118.192 672.436 119.029 672.927 119.552C673.428 120.075 674.132 120.336 675.039 120.336C675.946 120.336 676.644 120.075 677.135 119.552C677.626 119.029 677.871 118.192 677.871 117.04V110.8H679.919V117.12C679.919 118.752 679.482 120 678.607 120.864C677.743 121.728 676.548 122.16 675.023 122.16ZM673.695 109.888L675.855 107.696H678.207L675.423 109.888H673.695ZM682.832 122V110.8H688.08C689.424 110.8 690.448 111.067 691.152 111.6C691.856 112.123 692.208 112.827 692.208 113.712C692.208 114.309 692.069 114.821 691.792 115.248C691.515 115.664 691.141 115.989 690.672 116.224C690.213 116.448 689.712 116.56 689.168 116.56L689.456 115.984C690.085 115.984 690.651 116.101 691.152 116.336C691.653 116.56 692.048 116.891 692.336 117.328C692.635 117.765 692.784 118.309 692.784 118.96C692.784 119.92 692.416 120.667 691.68 121.2C690.944 121.733 689.851 122 688.4 122H682.832ZM684.912 120.368H688.272C689.051 120.368 689.648 120.24 690.064 119.984C690.48 119.728 690.688 119.317 690.688 118.752C690.688 118.197 690.48 117.792 690.064 117.536C689.648 117.269 689.051 117.136 688.272 117.136H684.752V115.52H687.856C688.581 115.52 689.136 115.392 689.52 115.136C689.915 114.88 690.112 114.496 690.112 113.984C690.112 113.461 689.915 113.072 689.52 112.816C689.136 112.56 688.581 112.432 687.856 112.432H684.912V120.368ZM695.004 122V110.8H697.084V120.24H702.94V122H695.004ZM704.582 122V110.8H706.662V122H704.582ZM714.876 122.16C714.022 122.16 713.228 122.021 712.492 121.744C711.766 121.456 711.132 121.056 710.588 120.544C710.054 120.021 709.638 119.408 709.34 118.704C709.041 118 708.892 117.232 708.892 116.4C708.892 115.568 709.041 114.8 709.34 114.096C709.638 113.392 710.06 112.784 710.604 112.272C711.148 111.749 711.782 111.349 712.508 111.072C713.233 110.784 714.028 110.64 714.892 110.64C715.809 110.64 716.646 110.8 717.404 111.12C718.161 111.429 718.801 111.893 719.324 112.512L717.98 113.776C717.574 113.339 717.121 113.013 716.62 112.8C716.118 112.576 715.574 112.464 714.988 112.464C714.401 112.464 713.862 112.56 713.372 112.752C712.892 112.944 712.47 113.216 712.108 113.568C711.756 113.92 711.478 114.336 711.276 114.816C711.084 115.296 710.988 115.824 710.988 116.4C710.988 116.976 711.084 117.504 711.276 117.984C711.478 118.464 711.756 118.88 712.108 119.232C712.47 119.584 712.892 119.856 713.372 120.048C713.862 120.24 714.401 120.336 714.988 120.336C715.574 120.336 716.118 120.229 716.62 120.016C717.121 119.792 717.574 119.456 717.98 119.008L719.324 120.288C718.801 120.896 718.161 121.36 717.404 121.68C716.646 122 715.804 122.16 714.876 122.16ZM719.498 122L724.538 110.8H726.586L731.642 122H729.466L725.13 111.904H725.962L721.642 122H719.498ZM721.818 119.408L722.378 117.776H728.426L728.986 119.408H721.818ZM736.539 122.16C735.664 122.16 734.827 122.037 734.027 121.792C733.227 121.536 732.592 121.211 732.123 120.816L732.843 119.2C733.291 119.552 733.845 119.845 734.507 120.08C735.168 120.315 735.845 120.432 736.539 120.432C737.125 120.432 737.6 120.368 737.963 120.24C738.325 120.112 738.592 119.941 738.763 119.728C738.933 119.504 739.019 119.253 739.019 118.976C739.019 118.635 738.896 118.363 738.651 118.16C738.405 117.947 738.085 117.781 737.691 117.664C737.307 117.536 736.875 117.419 736.395 117.312C735.925 117.205 735.451 117.083 734.971 116.944C734.501 116.795 734.069 116.608 733.674 116.384C733.291 116.149 732.976 115.84 732.731 115.456C732.485 115.072 732.363 114.581 732.363 113.984C732.363 113.376 732.523 112.821 732.843 112.32C733.173 111.808 733.669 111.403 734.331 111.104C735.003 110.795 735.851 110.64 736.875 110.64C737.547 110.64 738.213 110.725 738.875 110.896C739.536 111.067 740.112 111.312 740.602 111.632L739.947 113.248C739.445 112.949 738.928 112.731 738.395 112.592C737.861 112.443 737.349 112.368 736.859 112.368C736.283 112.368 735.813 112.437 735.451 112.576C735.099 112.715 734.837 112.896 734.667 113.12C734.507 113.344 734.427 113.6 734.427 113.888C734.427 114.229 734.544 114.507 734.779 114.72C735.024 114.923 735.339 115.083 735.723 115.2C736.117 115.317 736.555 115.435 737.035 115.552C737.515 115.659 737.989 115.781 738.459 115.92C738.939 116.059 739.371 116.24 739.755 116.464C740.149 116.688 740.464 116.992 740.699 117.376C740.944 117.76 741.067 118.245 741.067 118.832C741.067 119.429 740.901 119.984 740.571 120.496C740.251 120.997 739.755 121.403 739.083 121.712C738.411 122.011 737.563 122.16 736.539 122.16ZM460.256 142V137.568L460.72 138.848L455.856 130.8H458.08L461.984 137.28H460.736L464.672 130.8H466.72L461.856 138.848L462.336 137.568V142H460.256ZM477.752 142.16C476.877 142.16 476.072 142.016 475.336 141.728C474.6 141.44 473.96 141.04 473.416 140.528C472.872 140.005 472.451 139.397 472.152 138.704C471.853 138 471.704 137.232 471.704 136.4C471.704 135.568 471.853 134.805 472.152 134.112C472.451 133.408 472.872 132.8 473.416 132.288C473.96 131.765 474.6 131.36 475.336 131.072C476.072 130.784 476.872 130.64 477.736 130.64C478.611 130.64 479.411 130.784 480.136 131.072C480.872 131.36 481.512 131.765 482.056 132.288C482.6 132.8 483.021 133.408 483.32 134.112C483.619 134.805 483.768 135.568 483.768 136.4C483.768 137.232 483.619 138 483.32 138.704C483.021 139.408 482.6 140.016 482.056 140.528C481.512 141.04 480.872 141.44 480.136 141.728C479.411 142.016 478.616 142.16 477.752 142.16ZM477.736 140.336C478.301 140.336 478.824 140.24 479.304 140.048C479.784 139.856 480.2 139.584 480.552 139.232C480.904 138.869 481.176 138.453 481.368 137.984C481.571 137.504 481.672 136.976 481.672 136.4C481.672 135.824 481.571 135.301 481.368 134.832C481.176 134.352 480.904 133.936 480.552 133.584C480.2 133.221 479.784 132.944 479.304 132.752C478.824 132.56 478.301 132.464 477.736 132.464C477.171 132.464 476.648 132.56 476.168 132.752C475.699 132.944 475.283 133.221 474.92 133.584C474.568 133.936 474.291 134.352 474.088 134.832C473.896 135.301 473.8 135.824 473.8 136.4C473.8 136.965 473.896 137.488 474.088 137.968C474.291 138.448 474.568 138.869 474.92 139.232C475.272 139.584 475.688 139.856 476.168 140.048C476.648 140.24 477.171 140.336 477.736 140.336ZM485.973 142V130.8H490.581C491.573 130.8 492.421 130.96 493.125 131.28C493.839 131.6 494.389 132.059 494.773 132.656C495.157 133.253 495.349 133.963 495.349 134.784C495.349 135.605 495.157 136.315 494.773 136.912C494.389 137.499 493.839 137.952 493.125 138.272C492.421 138.581 491.573 138.736 490.581 138.736H487.125L488.053 137.792V142H485.973ZM493.301 142L490.469 137.936H492.693L495.541 142H493.301ZM488.053 138.016L487.125 137.024H490.485C491.402 137.024 492.09 136.827 492.549 136.432C493.018 136.037 493.253 135.488 493.253 134.784C493.253 134.069 493.018 133.52 492.549 133.136C492.09 132.752 491.402 132.56 490.485 132.56H487.125L488.053 131.536V138.016ZM497.676 142V130.8H502.572C503.788 130.8 504.855 131.035 505.772 131.504C506.689 131.973 507.404 132.624 507.916 133.456C508.428 134.288 508.684 135.269 508.684 136.4C508.684 137.52 508.428 138.501 507.916 139.344C507.404 140.176 506.689 140.827 505.772 141.296C504.855 141.765 503.788 142 502.572 142H497.676ZM499.756 140.24H502.476C503.319 140.24 504.044 140.08 504.652 139.76C505.271 139.44 505.745 138.992 506.076 138.416C506.417 137.84 506.588 137.168 506.588 136.4C506.588 135.621 506.417 134.949 506.076 134.384C505.745 133.808 505.271 133.36 504.652 133.04C504.044 132.72 503.319 132.56 502.476 132.56H499.756V140.24ZM512.815 135.456H518.383V137.168H512.815V135.456ZM512.975 140.256H519.295V142H510.895V130.8H519.071V132.544H512.975V140.256ZM521.613 142V130.8H523.325L530.349 139.424H529.501V130.8H531.565V142H529.853L522.829 133.376H523.677V142H521.613ZM532.982 142L538.023 130.8H540.071L545.127 142H542.951L538.615 131.904H539.447L535.127 142H532.982ZM535.303 139.408L535.863 137.776H541.911L542.47 139.408H535.303ZM546.551 142V130.8H548.263L553.159 138.976H552.263L557.079 130.8H558.791L558.807 142H556.839L556.823 133.888H557.239L553.143 140.72H552.215L548.055 133.888H548.535V142H546.551ZM561.832 142V130.8H563.912V142H561.832ZM568.862 135.456H574.43V137.168H568.862V135.456ZM569.022 140.256H575.342V142H566.942V130.8H575.118V132.544H569.022V140.256ZM577.66 142V130.8H579.372L586.396 139.424H585.548V130.8H587.612V142H585.9L578.876 133.376H579.724V142H577.66ZM592.885 142V132.56H589.173V130.8H598.677V132.56H594.965V142H592.885ZM605.33 142.16C604.455 142.16 603.65 142.016 602.914 141.728C602.178 141.44 601.538 141.04 600.994 140.528C600.45 140.005 600.029 139.397 599.73 138.704C599.431 138 599.282 137.232 599.282 136.4C599.282 135.568 599.431 134.805 599.73 134.112C600.029 133.408 600.45 132.8 600.994 132.288C601.538 131.765 602.178 131.36 602.914 131.072C603.65 130.784 604.45 130.64 605.314 130.64C606.189 130.64 606.989 130.784 607.714 131.072C608.45 131.36 609.09 131.765 609.634 132.288C610.178 132.8 610.599 133.408 610.898 134.112C611.197 134.805 611.346 135.568 611.346 136.4C611.346 137.232 611.197 138 610.898 138.704C610.599 139.408 610.178 140.016 609.634 140.528C609.09 141.04 608.45 141.44 607.714 141.728C606.989 142.016 606.194 142.16 605.33 142.16ZM605.314 140.336C605.879 140.336 606.402 140.24 606.882 140.048C607.362 139.856 607.778 139.584 608.13 139.232C608.482 138.869 608.754 138.453 608.946 137.984C609.149 137.504 609.25 136.976 609.25 136.4C609.25 135.824 609.149 135.301 608.946 134.832C608.754 134.352 608.482 133.936 608.13 133.584C607.778 133.221 607.362 132.944 606.882 132.752C606.402 132.56 605.879 132.464 605.314 132.464C604.749 132.464 604.226 132.56 603.746 132.752C603.277 132.944 602.861 133.221 602.498 133.584C602.146 133.936 601.869 134.352 601.666 134.832C601.474 135.301 601.378 135.824 601.378 136.4C601.378 136.965 601.474 137.488 601.666 137.968C601.869 138.448 602.146 138.869 602.498 139.232C602.85 139.584 603.266 139.856 603.746 140.048C604.226 140.24 604.749 140.336 605.314 140.336ZM620.245 142V132.56H616.533V130.8H626.037V132.56H622.325V142H620.245ZM629.518 135.456H635.086V137.168H629.518V135.456ZM629.678 140.256H635.998V142H627.598V130.8H635.774V132.544H629.678V140.256ZM638.317 142V130.8H642.925C643.917 130.8 644.765 130.96 645.469 131.28C646.183 131.6 646.733 132.059 647.117 132.656C647.501 133.253 647.693 133.963 647.693 134.784C647.693 135.605 647.501 136.315 647.117 136.912C646.733 137.499 646.183 137.952 645.469 138.272C644.765 138.581 643.917 138.736 642.925 138.736H639.469L640.397 137.792V142H638.317ZM645.645 142L642.813 137.936H645.036L647.885 142H645.645ZM640.397 138.016L639.469 137.024H642.829C643.746 137.024 644.434 136.827 644.892 136.432C645.362 136.037 645.597 135.488 645.597 134.784C645.597 134.069 645.362 133.52 644.892 133.136C644.434 132.752 643.746 132.56 642.829 132.56H639.469L640.397 131.536V138.016ZM650.02 142V130.8H654.628C655.62 130.8 656.468 130.96 657.172 131.28C657.886 131.6 658.436 132.059 658.82 132.656C659.204 133.253 659.396 133.963 659.396 134.784C659.396 135.605 659.204 136.315 658.82 136.912C658.436 137.499 657.886 137.952 657.172 138.272C656.468 138.581 655.62 138.736 654.628 138.736H651.172L652.1 137.792V142H650.02ZM657.348 142L654.516 137.936H656.74L659.588 142H657.348ZM652.1 138.016L651.172 137.024H654.532C655.449 137.024 656.137 136.827 656.596 136.432C657.065 136.037 657.3 135.488 657.3 134.784C657.3 134.069 657.065 133.52 656.596 133.136C656.137 132.752 655.449 132.56 654.532 132.56H651.172L652.1 131.536V138.016ZM661.723 142V130.8H663.803V142H661.723ZM669.104 142V132.56H665.392V130.8H674.896V132.56H671.184V142H669.104ZM681.549 142.16C680.674 142.16 679.869 142.016 679.133 141.728C678.397 141.44 677.757 141.04 677.213 140.528C676.669 140.005 676.248 139.397 675.949 138.704C675.65 138 675.501 137.232 675.501 136.4C675.501 135.568 675.65 134.805 675.949 134.112C676.248 133.408 676.669 132.8 677.213 132.288C677.757 131.765 678.397 131.36 679.133 131.072C679.869 130.784 680.669 130.64 681.533 130.64C682.408 130.64 683.208 130.784 683.933 131.072C684.669 131.36 685.309 131.765 685.853 132.288C686.397 132.8 686.818 133.408 687.117 134.112C687.416 134.805 687.565 135.568 687.565 136.4C687.565 137.232 687.416 138 687.117 138.704C686.818 139.408 686.397 140.016 685.853 140.528C685.309 141.04 684.669 141.44 683.933 141.728C683.208 142.016 682.413 142.16 681.549 142.16ZM681.533 140.336C682.098 140.336 682.621 140.24 683.101 140.048C683.581 139.856 683.997 139.584 684.349 139.232C684.701 138.869 684.973 138.453 685.165 137.984C685.368 137.504 685.469 136.976 685.469 136.4C685.469 135.824 685.368 135.301 685.165 134.832C684.973 134.352 684.701 133.936 684.349 133.584C683.997 133.221 683.581 132.944 683.101 132.752C682.621 132.56 682.098 132.464 681.533 132.464C680.968 132.464 680.445 132.56 679.965 132.752C679.496 132.944 679.08 133.221 678.717 133.584C678.365 133.936 678.088 134.352 677.885 134.832C677.693 135.301 677.597 135.824 677.597 136.4C677.597 136.965 677.693 137.488 677.885 137.968C678.088 138.448 678.365 138.869 678.717 139.232C679.069 139.584 679.485 139.856 679.965 140.048C680.445 140.24 680.968 140.336 681.533 140.336ZM689.77 142V130.8H694.378C695.37 130.8 696.218 130.96 696.922 131.28C697.636 131.6 698.186 132.059 698.57 132.656C698.954 133.253 699.146 133.963 699.146 134.784C699.146 135.605 698.954 136.315 698.57 136.912C698.186 137.499 697.636 137.952 696.922 138.272C696.218 138.581 695.37 138.736 694.378 138.736H690.922L691.85 137.792V142H689.77ZM697.098 142L694.266 137.936H696.49L699.338 142H697.098ZM691.85 138.016L690.922 137.024H694.282C695.199 137.024 695.887 136.827 696.346 136.432C696.815 136.037 697.05 135.488 697.05 134.784C697.05 134.069 696.815 133.52 696.346 133.136C695.887 132.752 695.199 132.56 694.282 132.56H690.922L691.85 131.536V138.016ZM701.473 142V130.8H703.553V142H701.473ZM704.998 142L710.038 130.8H712.086L717.142 142H714.966L710.63 131.904H711.462L707.142 142H704.998ZM707.318 139.408L707.878 137.776H713.926L714.486 139.408H707.318ZM718.567 142V130.8H720.647V140.24H726.503V142H718.567Z" fill="#6B7071"/>
<path d="M154.408 31.685C156.051 31.685 156.609 32.491 156.609 33.514C156.609 35.901 153.571 35.56 153.168 40.458C153.044 41.822 153.013 46.379 153.013 51.959C153.013 58.934 153.106 65.041 153.416 66.87C153.912 70.435 156.826 70.342 156.826 72.45C156.826 73.38 156.051 74.155 154.408 74.155C152.548 74.155 150.192 74 148.208 74C146.1 74 143.744 74.155 141.884 74.155C140.21 74.155 139.466 73.38 139.466 72.45C139.466 70.342 142.411 70.404 142.938 66.87C143.062 65.816 143.31 60.732 143.31 56.95C143.31 55.028 142.876 54.284 141.357 54.284H129.98C128.647 54.284 127.934 54.718 127.934 56.95C127.934 60.825 128.213 65.661 128.399 66.87C128.926 70.435 131.84 70.342 131.84 72.45C131.84 73.38 131.034 74.155 129.391 74.155C127.562 74.155 125.206 74 123.191 74C121.114 74 118.727 74.155 116.898 74.155C115.193 74.155 114.449 73.38 114.449 72.45C114.449 70.342 117.425 70.404 117.921 66.87C118.169 65.165 118.262 57.88 118.262 51.959C118.262 47.774 118.262 41.853 118.169 40.458C117.766 35.591 114.697 35.87 114.697 33.514C114.697 32.491 115.193 31.685 116.929 31.685C118.82 31.685 121.176 31.84 123.191 31.84C125.268 31.84 127.624 31.685 129.391 31.685C131.034 31.685 131.592 32.491 131.592 33.514C131.592 35.498 129.453 35.622 128.554 38.288C128.213 39.063 127.934 42.907 127.934 45.449C127.934 47.96 128.43 48.611 130.042 48.611H141.202C142.69 48.611 143.31 48.084 143.31 45.449C143.31 42.69 142.969 38.877 142.721 38.288C141.977 35.932 139.683 35.374 139.683 33.514C139.683 32.491 140.21 31.685 141.915 31.685C143.806 31.685 146.162 31.84 148.208 31.84C150.285 31.84 152.61 31.685 154.408 31.685ZM176.618 31.685C178.261 31.685 178.819 32.491 178.819 33.514C178.819 35.901 175.843 35.56 175.409 40.458C175.254 41.822 175.223 46.379 175.223 51.959C175.223 58.934 175.378 65.041 175.626 66.87C176.184 70.435 179.067 70.342 179.067 72.45C179.067 73.38 178.261 74.155 176.618 74.155C174.789 74.155 172.433 74 170.418 74C168.341 74 165.954 74.155 164.125 74.155C162.42 74.155 161.676 73.38 161.676 72.45C161.676 70.342 164.652 70.404 165.148 66.87C165.396 65.165 165.489 57.88 165.489 51.959C165.489 47.774 165.489 41.853 165.396 40.458C164.993 35.591 161.924 35.87 161.924 33.514C161.924 32.491 162.42 31.685 164.156 31.685C166.047 31.685 168.403 31.84 170.418 31.84C172.495 31.84 174.851 31.685 176.618 31.685ZM197.504 41.636V63.181C197.504 67.583 198.496 68.699 202.96 68.699C211.33 68.699 214.089 60.949 214.089 53.85C214.089 44.457 210.09 36.924 201.1 36.924C197.938 36.924 197.504 38.35 197.504 41.636ZM192.699 31.84C196.109 31.84 198.434 31.654 201.782 31.654C213.562 31.654 225.063 37.575 225.063 52.672C225.063 65.971 217.437 74.186 204.851 74.186C201.193 74.186 196.636 73.969 192.699 73.969C190.622 73.969 188.235 74.124 186.406 74.124C184.701 74.124 183.957 73.38 183.957 72.45C183.957 70.342 186.933 70.404 187.429 66.87C187.677 65.165 187.77 57.88 187.77 51.959C187.77 47.774 187.77 41.853 187.677 40.458C187.274 35.591 184.205 35.87 184.205 33.514C184.205 32.491 184.701 31.685 186.437 31.685C188.328 31.685 190.684 31.84 192.699 31.84ZM240.454 56.826H248.638C249.258 56.826 249.382 56.609 249.382 56.268C249.382 55.338 246.747 47.619 245.259 44.736C245.104 44.395 244.825 44.023 244.639 44.023C244.391 44.023 244.205 44.395 244.019 44.736C242.655 47.464 239.741 55.493 239.741 56.268C239.741 56.609 239.896 56.826 240.454 56.826ZM230.317 65.723L239.741 41.171C240.547 38.97 241.074 36.769 241.353 35.126C241.787 32.987 246.53 30.879 248.545 30.879C250.188 30.879 250.746 32.026 251.335 33.607L263.828 65.785C264.2 66.746 264.944 68.358 266.556 69.753C267.176 70.311 268.168 71.086 268.168 72.078C268.168 73.752 266.959 74.155 264.51 74.155C262.836 74.155 261.317 74 258.403 74C255.489 74 253.877 74.155 252.048 74.155C250.219 74.155 249.351 73.442 249.351 72.233C249.351 70.466 253.009 69.815 253.009 66.994C253.009 66.498 252.234 64.173 251.614 63.057C251.397 62.654 250.901 62.344 250.281 62.344H239.524C238.718 62.344 238.129 62.654 237.757 63.057C237.137 63.987 236.114 66.436 236.114 67.49C236.114 70.218 239.338 70.621 239.338 72.388C239.338 73.38 238.749 74.155 236.734 74.155C235.401 74.155 233.138 74 231.712 74C230.255 74 229.325 74.155 227.961 74.155C226.628 74.155 225.915 73.535 225.915 72.419C225.915 70.466 228.426 70.621 230.317 65.723ZM274.231 51.959C274.231 47.774 274.231 41.853 274.138 40.458C273.735 35.591 270.666 35.87 270.666 33.514C270.666 32.491 271.162 31.685 272.898 31.685C274.789 31.685 277.145 31.84 279.16 31.84C281.237 31.84 284.647 31.685 286.445 31.685C288.088 31.685 288.646 32.491 288.646 33.514C288.646 36.149 284.585 35.653 284.151 40.582C283.996 41.915 283.965 46.379 283.965 51.959V64.545C283.965 67.955 285.205 68.575 289.483 68.575C296.272 68.575 298.07 65.971 299.589 61.693C300.333 59.802 300.984 58.934 301.976 58.934C303.061 58.934 303.526 59.957 303.526 61.6C303.526 63.336 303.03 67.273 302.751 71.675C302.627 73.597 301.914 74.155 299.775 74.155C297.202 74.155 292.49 74 287.096 74C278.819 74 274.851 74.155 272.867 74.155C271.286 74.155 270.418 73.566 270.418 72.45C270.418 70.311 273.301 70.435 273.859 66.963C274.138 65.351 274.231 60.019 274.231 51.959ZM326.115 75.054C313.963 75.054 306.182 64.7 306.182 53.075C306.182 41.729 312.909 30.786 326.456 30.786C331.23 30.786 333.462 32.274 335.415 32.274C336.81 32.274 337.709 31.623 338.949 31.623C341.336 31.623 341.398 34.01 342.142 37.699C342.948 41.884 343.382 42.907 343.382 43.775C343.382 45.108 342.607 45.728 341.708 45.728C340.065 45.728 339.228 43.837 337.864 41.884C335.012 37.885 331.261 35.591 327.541 35.591C320.69 35.591 316.753 42.535 316.753 50.161C316.753 60.856 322.984 67.924 329.153 67.924C331.54 67.924 333.648 66.777 334.454 65.537C335.136 64.421 335.26 63.243 335.26 61.011C335.26 55.865 334.113 55.493 332.718 54.501C331.509 53.633 329.99 53.54 329.99 51.959C329.99 50.719 330.889 49.975 332.718 49.975C334.485 49.975 336.717 50.161 338.298 50.161C340.437 50.161 342.39 49.975 344.746 49.975C346.141 49.975 346.73 50.781 346.73 51.835C346.73 54.222 344.839 53.912 344.839 60.329C344.839 63.832 345.149 69.567 345.149 71.644C345.149 73.225 344.684 74.186 343.165 74.186C342.39 74.186 341.646 73.721 340.902 72.884C340.251 72.295 339.631 71.675 339.011 71.675C338.081 71.675 336.934 72.295 335.415 72.946C333.183 73.876 330.052 75.054 326.115 75.054ZM370.06 36.273C366.216 36.273 362.248 40.055 362.248 49.324C362.248 53.54 362.961 58.438 364.821 62.561C366.96 66.994 370.37 68.947 373.439 68.947C377.872 68.947 381.778 65.661 381.778 57.539C381.778 52.951 380.631 47.433 378.74 43.496C376.694 39.001 373.377 36.273 370.06 36.273ZM350.654 53.261C350.654 39.993 359.086 30.817 371.424 30.817C382.832 30.817 392.597 39.094 392.597 53.943C392.597 67.986 383.39 75.054 371.858 75.054C358.59 75.054 350.654 65.94 350.654 53.261Z" fill="#620E31"/>
<path d="M113.4 98V84H119.8C121.08 84 122.18 84.2067 123.1 84.62C124.033 85.0333 124.753 85.6333 125.26 86.42C125.767 87.1933 126.02 88.1133 126.02 89.18C126.02 90.2333 125.767 91.1467 125.26 91.92C124.753 92.6933 124.033 93.2933 123.1 93.72C122.18 94.1333 121.08 94.34 119.8 94.34H115.6L117.36 92.62V98H113.4ZM117.36 93.04L115.6 91.22H119.56C120.387 91.22 121 91.04 121.4 90.68C121.813 90.32 122.02 89.82 122.02 89.18C122.02 88.5267 121.813 88.02 121.4 87.66C121 87.3 120.387 87.12 119.56 87.12H115.6L117.36 85.3V93.04ZM130.951 98V84H137.351C138.631 84 139.731 84.2067 140.651 84.62C141.584 85.0333 142.304 85.6333 142.811 86.42C143.317 87.1933 143.571 88.1133 143.571 89.18C143.571 90.2333 143.317 91.1467 142.811 91.92C142.304 92.68 141.584 93.2667 140.651 93.68C139.731 94.08 138.631 94.28 137.351 94.28H133.151L134.911 92.62V98H130.951ZM139.611 98L136.131 92.9H140.351L143.851 98H139.611ZM134.911 93.04L133.151 91.22H137.111C137.937 91.22 138.551 91.04 138.951 90.68C139.364 90.32 139.571 89.82 139.571 89.18C139.571 88.5267 139.364 88.02 138.951 87.66C138.551 87.3 137.937 87.12 137.111 87.12H133.151L134.911 85.3V93.04ZM148.755 98V84H152.715V98H148.755ZM158.533 98V84H161.793L167.593 93.52H165.873L171.513 84H174.773L174.813 98H171.173L171.133 89.54H171.753L167.533 96.62H165.773L161.433 89.54H162.193V98H158.533ZM184.255 89.42H190.755V92.38H184.255V89.42ZM184.535 94.94H191.855V98H180.615V84H191.595V87.06H184.535V94.94ZM197.052 98V84H203.452C204.732 84 205.832 84.2067 206.752 84.62C207.686 85.0333 208.406 85.6333 208.912 86.42C209.419 87.1933 209.672 88.1133 209.672 89.18C209.672 90.2333 209.419 91.1467 208.912 91.92C208.406 92.68 207.686 93.2667 206.752 93.68C205.832 94.08 204.732 94.28 203.452 94.28H199.252L201.012 92.62V98H197.052ZM205.712 98L202.232 92.9H206.452L209.952 98H205.712ZM201.012 93.04L199.252 91.22H203.212C204.039 91.22 204.652 91.04 205.052 90.68C205.466 90.32 205.672 89.82 205.672 89.18C205.672 88.5267 205.466 88.02 205.052 87.66C204.652 87.3 204.039 87.12 203.212 87.12H199.252L201.012 85.3V93.04ZM221.917 98.28C220.797 98.28 219.764 98.1 218.817 97.74C217.87 97.38 217.044 96.8733 216.337 96.22C215.644 95.5533 215.104 94.78 214.717 93.9C214.33 93.02 214.137 92.0533 214.137 91C214.137 89.9467 214.33 88.98 214.717 88.1C215.104 87.22 215.644 86.4533 216.337 85.8C217.044 85.1333 217.87 84.62 218.817 84.26C219.764 83.9 220.797 83.72 221.917 83.72C223.05 83.72 224.084 83.9 225.017 84.26C225.964 84.62 226.784 85.1333 227.477 85.8C228.17 86.4533 228.71 87.22 229.097 88.1C229.497 88.98 229.697 89.9467 229.697 91C229.697 92.0533 229.497 93.0267 229.097 93.92C228.71 94.8 228.17 95.5667 227.477 96.22C226.784 96.8733 225.964 97.38 225.017 97.74C224.084 98.1 223.05 98.28 221.917 98.28ZM221.917 95C222.45 95 222.944 94.9067 223.397 94.72C223.864 94.5333 224.264 94.2667 224.597 93.92C224.944 93.56 225.21 93.1333 225.397 92.64C225.597 92.1467 225.697 91.6 225.697 91C225.697 90.3867 225.597 89.84 225.397 89.36C225.21 88.8667 224.944 88.4467 224.597 88.1C224.264 87.74 223.864 87.4667 223.397 87.28C222.944 87.0933 222.45 87 221.917 87C221.384 87 220.884 87.0933 220.417 87.28C219.964 87.4667 219.564 87.74 219.217 88.1C218.884 88.4467 218.617 88.8667 218.417 89.36C218.23 89.84 218.137 90.3867 218.137 91C218.137 91.6 218.23 92.1467 218.417 92.64C218.617 93.1333 218.884 93.56 219.217 93.92C219.564 94.2667 219.964 94.5333 220.417 94.72C220.884 94.9067 221.384 95 221.917 95ZM247.231 89.42H253.731V92.38H247.231V89.42ZM247.511 94.94H254.831V98H243.591V84H254.571V87.06H247.511V94.94ZM260.029 98V84H263.989V94.86H270.669V98H260.029ZM284.056 98V84H290.456C291.736 84 292.836 84.2067 293.756 84.62C294.69 85.0333 295.41 85.6333 295.916 86.42C296.423 87.1933 296.676 88.1133 296.676 89.18C296.676 90.2333 296.423 91.1467 295.916 91.92C295.41 92.6933 294.69 93.2933 293.756 93.72C292.836 94.1333 291.736 94.34 290.456 94.34H286.256L288.016 92.62V98H284.056ZM288.016 93.04L286.256 91.22H290.216C291.043 91.22 291.656 91.04 292.056 90.68C292.47 90.32 292.676 89.82 292.676 89.18C292.676 88.5267 292.47 88.02 292.056 87.66C291.656 87.3 291.043 87.12 290.216 87.12H286.256L288.016 85.3V93.04ZM307.93 98.28C305.864 98.28 304.25 97.7133 303.09 96.58C301.93 95.4467 301.35 93.84 301.35 91.76V84H305.31V91.64C305.31 92.84 305.544 93.7 306.01 94.22C306.49 94.74 307.144 95 307.97 95C308.797 95 309.444 94.74 309.91 94.22C310.377 93.7 310.61 92.84 310.61 91.64V84H314.51V91.76C314.51 93.84 313.93 95.4467 312.77 96.58C311.61 97.7133 309.997 98.28 307.93 98.28ZM323.833 89.42H330.333V92.38H323.833V89.42ZM324.113 94.94H331.433V98H320.193V84H331.173V87.06H324.113V94.94ZM336.63 98V84H343.79C345.63 84 347.004 84.34 347.91 85.02C348.817 85.6867 349.27 86.5667 349.27 87.66C349.27 88.38 349.077 89.0133 348.69 89.56C348.317 90.0933 347.784 90.52 347.09 90.84C346.41 91.1467 345.597 91.3 344.65 91.3L345.05 90.34C346.037 90.34 346.897 90.4933 347.63 90.8C348.364 91.0933 348.93 91.5267 349.33 92.1C349.744 92.66 349.95 93.3467 349.95 94.16C349.95 95.3733 349.457 96.32 348.47 97C347.497 97.6667 346.07 98 344.19 98H336.63ZM340.55 95.14H343.87C344.55 95.14 345.064 95.0267 345.41 94.8C345.77 94.56 345.95 94.2 345.95 93.72C345.95 93.24 345.77 92.8867 345.41 92.66C345.064 92.42 344.55 92.3 343.87 92.3H340.27V89.56H343.27C343.937 89.56 344.437 89.4467 344.77 89.22C345.104 88.9933 345.27 88.6533 345.27 88.2C345.27 87.7467 345.104 87.4133 344.77 87.2C344.437 86.9733 343.937 86.86 343.27 86.86H340.55V95.14ZM355.002 98V84H358.962V94.86H365.642V98H355.002ZM377.054 98.28C375.934 98.28 374.9 98.1 373.954 97.74C373.007 97.38 372.18 96.8733 371.474 96.22C370.78 95.5533 370.24 94.78 369.854 93.9C369.467 93.02 369.274 92.0533 369.274 91C369.274 89.9467 369.467 88.98 369.854 88.1C370.24 87.22 370.78 86.4533 371.474 85.8C372.18 85.1333 373.007 84.62 373.954 84.26C374.9 83.9 375.934 83.72 377.054 83.72C378.187 83.72 379.22 83.9 380.154 84.26C381.1 84.62 381.92 85.1333 382.614 85.8C383.307 86.4533 383.847 87.22 384.234 88.1C384.634 88.98 384.834 89.9467 384.834 91C384.834 92.0533 384.634 93.0267 384.234 93.92C383.847 94.8 383.307 95.5667 382.614 96.22C381.92 96.8733 381.1 97.38 380.154 97.74C379.22 98.1 378.187 98.28 377.054 98.28ZM377.054 95C377.587 95 378.08 94.9067 378.534 94.72C379 94.5333 379.4 94.2667 379.734 93.92C380.08 93.56 380.347 93.1333 380.534 92.64C380.734 92.1467 380.834 91.6 380.834 91C380.834 90.3867 380.734 89.84 380.534 89.36C380.347 88.8667 380.08 88.4467 379.734 88.1C379.4 87.74 379 87.4667 378.534 87.28C378.08 87.0933 377.587 87 377.054 87C376.52 87 376.02 87.0933 375.554 87.28C375.1 87.4667 374.7 87.74 374.354 88.1C374.02 88.4467 373.754 88.8667 373.554 89.36C373.367 89.84 373.274 90.3867 373.274 91C373.274 91.6 373.367 92.1467 373.554 92.64C373.754 93.1333 374.02 93.56 374.354 93.92C374.7 94.2667 375.1 94.5333 375.554 94.72C376.02 94.9067 376.52 95 377.054 95Z" fill="#B28E5E"/>
<path d="M23.1228 109.685C22.9625 109.621 22.9145 107.324 22.9145 98.9082V88.1952L23.5234 87.617C23.8439 87.2958 24.1964 86.9424 24.3086 86.83C24.4047 86.7176 24.629 86.4927 24.8053 86.316C24.9816 86.1394 25.1899 85.9306 25.254 85.8503C25.3341 85.7699 25.6225 85.4969 25.8789 85.2399C26.1513 84.9829 26.4398 84.6938 26.5199 84.5975C26.616 84.5011 27.1128 83.9871 27.6416 83.4571C28.1704 82.9271 28.6831 82.4292 28.7633 82.3328C28.8594 82.2525 29.1478 81.9634 29.4042 81.7064C29.6766 81.4494 29.9651 81.1603 30.0612 81.0479C30.1734 80.9354 30.3977 80.7106 30.574 80.5339C30.7502 80.3572 30.9586 80.1484 31.0387 80.0681C31.1028 79.9878 31.3912 79.7148 31.6476 79.4578C31.92 79.2008 32.2245 78.8956 32.3366 78.7672C33.3301 77.7071 34.7402 76.4222 34.8364 76.5025C34.8845 76.5507 34.9325 81.5297 34.9325 87.5528V98.5067L34.3717 99.0849C34.0512 99.4222 33.7307 99.6792 33.6506 99.6792C33.5705 99.6792 33.4743 99.8237 33.4102 100C33.3622 100.177 33.1058 100.434 32.8494 100.579C32.609 100.739 32.3206 101.012 32.2245 101.221C32.1443 101.414 31.8559 101.703 31.5835 101.864C31.3111 102.024 31.0867 102.249 31.0867 102.361C31.0867 102.474 30.8304 102.731 30.5259 102.924C30.2214 103.132 29.9651 103.373 29.9651 103.486C29.9651 103.582 29.6766 103.871 29.3241 104.128C28.9716 104.369 28.6831 104.642 28.6831 104.706C28.6831 104.883 27.3531 106.184 26.8404 106.521C26.616 106.666 26.4398 106.875 26.4398 107.003C26.4398 107.116 26.1513 107.405 25.7988 107.662C25.4463 107.903 25.1578 108.192 25.1578 108.304C25.1578 108.401 24.9175 108.641 24.613 108.818C24.3246 109.011 24.0361 109.3 23.9881 109.477C23.908 109.782 23.5554 109.862 23.1228 109.685Z" fill="#9B2149"/>
<path d="M76.9157 108.995C76.5151 108.545 76.0984 108.095 75.9702 107.983C74.8005 106.907 71.3072 103.325 71.3072 103.213C71.3072 103.116 71.2271 103.052 71.147 103.052C71.0509 103.052 70.0093 102.088 68.8235 100.9C67.157 99.2455 66.6602 98.6512 66.6602 98.33C66.6602 97.7036 67.1089 97.8 67.814 98.587C68.1505 98.9564 68.4229 99.3258 68.4229 99.39C68.4229 99.4543 68.519 99.5185 68.6472 99.5185C68.7754 99.5185 69.0158 99.7434 69.176 100C69.3202 100.273 69.5766 100.514 69.7209 100.563C69.849 100.611 70.0574 100.82 70.1695 101.012C70.2817 101.221 70.5701 101.51 70.8105 101.655C71.0509 101.799 71.3393 102.088 71.4675 102.313C71.5796 102.538 71.7399 102.731 71.804 102.731C71.9001 102.731 73.4064 104.192 74.0634 104.915C74.2076 105.092 74.8005 105.686 75.3774 106.248C75.9542 106.81 76.4349 107.324 76.4349 107.389C76.4349 107.453 76.5792 107.549 76.7554 107.597C76.9317 107.646 77.0759 107.774 77.0759 107.903C77.0759 108.015 77.2201 108.208 77.3964 108.32L77.7169 108.513L77.6848 98.3782C77.6528 90.4278 77.5887 88.2113 77.4445 88.147C77.2362 88.0828 77.14 86.9906 77.3323 86.9906C77.3804 86.9906 77.7009 87.2636 78.0534 87.5849L78.6783 88.1791V98.7155C78.6623 109.846 78.6783 109.798 77.9412 109.798C77.781 109.798 77.3163 109.428 76.9157 108.995Z" fill="#9B2149"/>
<path d="M36.6471 96.2581C36.5349 95.9208 36.5029 79.4096 36.6311 76.8077C36.7112 74.816 36.7913 74.2539 36.9996 74.0772C37.256 73.8363 37.7848 73.3063 38.1053 72.985C38.2976 72.7762 39.1789 71.8929 39.3872 71.7001C39.6276 71.4753 40.2205 70.8649 40.3487 70.7204C40.4128 70.6561 40.6852 70.3991 40.9416 70.1422C41.214 69.8852 41.5184 69.58 41.6306 69.4515C41.871 69.2106 43.6817 67.3796 43.874 67.2029C44.0983 66.9781 45.909 65.1631 46.0693 64.9864C46.1654 64.9061 46.4539 64.617 46.7102 64.36C46.9826 64.1031 47.2711 63.814 47.3512 63.7176C47.6877 63.3482 48.4248 62.7218 48.4889 62.77C48.521 62.8021 48.569 67.7008 48.6171 73.6596C48.6972 85.513 48.7293 85.0793 47.7518 85.6575C47.4954 85.8021 47.2711 86.0269 47.2711 86.1394C47.2711 86.2518 47.0147 86.5088 46.7102 86.7015C46.4058 86.9103 46.1494 87.1673 46.1494 87.2797C46.1494 87.3922 45.893 87.6331 45.5886 87.8098C45.2841 87.9864 44.9957 88.2755 44.9476 88.4522C44.8995 88.6128 44.6431 88.8698 44.4028 89.0144C44.1624 89.1589 43.906 89.432 43.8099 89.6086C43.7298 89.8014 43.4573 90.0584 43.201 90.1869C42.9446 90.2993 42.7042 90.5402 42.6722 90.7008C42.6241 90.8614 42.3357 91.1505 42.0472 91.3433C41.7428 91.52 41.5024 91.7769 41.5024 91.9054C41.5024 92.0179 41.246 92.2909 40.9416 92.4836C40.6371 92.6924 40.3807 92.9494 40.3807 93.0619C40.3807 93.1743 40.1243 93.4152 39.8199 93.5919C39.5154 93.7686 39.227 94.0577 39.1789 94.2183C39.1308 94.395 38.8424 94.668 38.554 94.8607C38.2495 95.0374 37.9771 95.3105 37.9451 95.4711C37.8329 95.8565 36.7432 96.5151 36.6471 96.2581Z" fill="#9B2149"/>
<path d="M58.4239 90.4759C53.168 85.2078 52.6071 84.5974 52.6712 84.212C52.7673 83.7141 53.3122 83.6016 53.4724 84.0513C53.5365 84.1959 53.6967 84.4368 53.8249 84.5814C53.9692 84.7259 54.1935 84.999 54.3217 85.1917C54.4499 85.3844 54.6101 85.5451 54.6582 85.5451C54.7704 85.5451 56.4529 87.2155 58.3598 89.2071C58.5681 89.4159 58.8725 89.705 59.0328 89.8495C60.0263 90.7329 60.5711 91.4396 60.5711 91.8733C60.5711 92.2266 60.6352 92.2909 61.0198 92.2909C61.3563 92.2909 61.7088 92.5157 62.3818 93.1903C62.8786 93.6722 63.2952 94.1379 63.3272 94.2022C63.4234 94.411 64.3848 95.0213 64.6412 95.0213C64.7854 95.0213 64.8976 95.1498 64.8976 95.3104C64.8976 95.8405 64.7053 96.3062 64.481 96.3062C64.3688 96.3062 61.6447 93.6882 58.4239 90.4759Z" fill="#9B2149"/>
<path d="M99.9904 86.8942C99.8622 86.8621 95.2633 86.8139 89.767 86.7979C80.4089 86.7497 79.7679 86.7336 79.6237 86.4606C79.5276 86.316 79.3673 86.1072 79.2712 86.0269C79.159 85.9306 78.9347 85.7378 78.7424 85.5772C78.5661 85.4326 78.3258 85.1435 78.2136 84.9508C78.1175 84.742 77.9412 84.5814 77.829 84.5814C77.6047 84.5814 77.0759 84.0192 77.0759 83.7783C77.0759 83.698 76.8836 83.5374 76.6433 83.425C76.4029 83.3125 76.0984 83.0074 75.9863 82.7664C75.8741 82.5255 75.6978 82.3328 75.6017 82.3328C75.5216 82.3328 75.0088 81.8831 74.496 81.337C73.9672 80.7748 73.4705 80.2609 73.3743 80.1645C73.2942 80.0842 72.7814 79.5863 72.2526 79.0723C71.7399 78.5583 71.3072 78.0604 71.3072 77.9962C71.3072 77.9159 71.1149 77.7553 70.8746 77.6428C70.6342 77.5304 70.3298 77.2252 70.2176 76.9843C70.1054 76.7434 69.9452 76.5507 69.8811 76.5507C69.6888 76.5507 68.9677 75.86 68.7754 75.5067C68.6633 75.2657 68.6633 75.1051 68.8235 74.8963C68.9998 74.6394 69.7369 74.6233 79.4314 74.6233C88.5011 74.6233 89.8792 74.6554 90.0554 74.8642C90.1676 74.9927 90.424 75.1051 90.6323 75.1051C90.8887 75.1051 91.081 75.2657 91.2572 75.587C91.4014 75.86 91.6098 76.0688 91.7379 76.0688C91.8822 76.0688 92.1866 76.3579 92.427 76.7113C92.6673 77.0486 92.9077 77.3377 92.9718 77.3537C93.1 77.3537 94.7024 78.9278 94.7024 79.0563C94.7024 79.2008 95.087 79.5381 95.3914 79.6505C95.5357 79.6987 95.744 79.9236 95.8401 80.1324C95.9363 80.3412 96.2087 80.6303 96.449 80.7748C96.6894 80.9194 96.9778 81.2085 97.106 81.4333C97.2182 81.6582 97.3784 81.8509 97.4425 81.8509C97.5387 81.8509 98.9488 83.2162 99.5257 83.8747C99.6859 84.0514 99.9743 84.3405 100.167 84.5171C100.888 85.1596 101.224 85.6254 101.304 86.0912C101.384 86.4766 101.32 86.573 100.856 86.7657C100.567 86.8942 100.295 86.9745 100.279 86.9745C100.247 86.9585 100.119 86.9264 99.9904 86.8942Z" fill="#9B2149"/>
<path d="M0 86.043C0 85.9466 9.83879 76.0046 11.0726 74.8642C11.281 74.6554 12.8513 74.6233 21.9049 74.6233C31.3592 74.6233 32.5129 74.6554 32.593 74.8803C32.6411 75.0088 32.7533 75.0891 32.8334 75.0248C32.9135 74.9766 33.0417 75.0248 33.0898 75.1212C33.1539 75.2176 32.8975 75.587 32.5129 75.9564L31.8078 76.5988L31.7598 76.1009L31.7117 75.587H21.5684H11.4252L9.27795 77.7553C8.09217 78.9438 7.03458 79.9236 6.93843 79.9236C6.82626 79.9236 6.73012 80.0039 6.73012 80.1163C6.73012 80.3412 4.95145 82.1722 4.72711 82.1722C4.63096 82.1722 4.48675 82.3328 4.40663 82.5416C4.31048 82.7343 4.08614 82.9592 3.89386 83.0556C3.68554 83.1359 3.5253 83.2804 3.5253 83.3768C3.5253 83.4571 2.91639 84.1317 2.17928 84.8705C1.18578 85.8502 0.737108 86.1875 0.416626 86.1875C0.192289 86.1875 0 86.1233 0 86.043Z" fill="#9B2149"/>
<path d="M74.3838 85.0632C74.1595 84.8383 74.0313 84.5332 74.0313 84.1798V83.6337L74.5441 84.1156C74.8325 84.3726 75.2331 84.758 75.4414 84.9829L75.81 85.3844H75.2652C74.9447 85.3844 74.5922 85.2559 74.3838 85.0632Z" fill="#9B2149"/>
<path d="M71.6277 82.124C71.6277 82.0276 71.4194 81.8349 71.147 81.7224C70.7464 81.5458 70.6663 81.4173 70.6663 80.9515C70.6663 80.4696 70.6983 80.4215 70.9547 80.55C71.0989 80.6303 71.5796 81.08 72.0123 81.5136L72.7975 82.3328H72.2206C71.852 82.3328 71.6277 82.2525 71.6277 82.124Z" fill="#9B2149"/>
<path d="M68.6152 79.2811C68.4229 79.0884 68.2626 78.7993 68.2626 78.6387C68.2626 78.4299 68.1505 78.3174 67.9742 78.3174C67.814 78.3174 67.4614 78.1086 67.173 77.8356C66.7243 77.4341 66.6602 77.2895 66.7724 76.888L66.9006 76.4222L68.487 78.0123L70.0894 79.6023H69.5285C69.176 79.6023 68.8235 79.4739 68.6152 79.2811Z" fill="#9B2149"/>
<path d="M72.7494 72.8565L66.0834 72.7762L65.5386 72.2462C63.167 69.9976 62.0133 68.8251 62.0133 68.7126C62.0133 68.6323 61.837 68.4878 61.6127 68.3914C61.4043 68.295 61.1159 67.9899 60.9717 67.7168C60.8435 67.4598 60.6192 67.235 60.507 67.235C60.3948 67.235 60.1545 67.0422 59.9942 66.8174C59.834 66.5765 59.5936 66.3034 59.4814 66.2071C59.1129 65.9019 58.7443 65.5325 58.4719 65.2112C58.3277 65.0506 58.0553 64.7936 57.8951 64.6652C57.7188 64.5367 57.4945 64.2636 57.3823 64.0709C57.2861 63.8621 57.0939 63.7015 56.9657 63.7015C56.8535 63.7015 56.5971 63.4445 56.4048 63.1393C56.2125 62.8341 55.9882 62.5772 55.9081 62.5772C55.6837 62.5772 55.1229 62.0471 55.1229 61.8223C55.1229 61.6938 54.9466 61.5171 54.7223 61.4207C53.6487 60.9389 54.4339 60.8907 65.4905 60.8425C76.483 60.8104 76.5471 60.8104 76.9798 61.1477C77.2041 61.3244 77.3964 61.5653 77.3964 61.6777C77.3964 61.7902 77.5727 61.9829 77.797 62.0953C78.0213 62.2238 78.3578 62.5611 78.5341 62.8502C78.7104 63.1393 78.9667 63.3802 79.0949 63.3802C79.2231 63.3802 79.4795 63.6372 79.6558 63.9424C79.8481 64.2476 80.0724 64.5045 80.1686 64.5045C80.3608 64.5045 82.2036 66.4159 82.2036 66.6246C82.2036 66.6889 82.2837 66.7531 82.3959 66.7531C82.5882 66.7531 83.4855 67.7008 83.4855 67.9096C83.4855 67.9738 83.5496 68.0381 83.6458 68.0381C83.8381 68.0381 85.7289 69.9494 85.7289 70.1582C85.7289 70.2224 85.809 70.2867 85.9052 70.2867C86.0975 70.2867 87.9723 72.198 87.9723 72.4068C87.9723 72.471 88.0845 72.5353 88.2127 72.5353C88.5492 72.5353 88.5171 72.8565 88.1806 72.8726C87.2672 72.9368 78.438 72.9207 72.7494 72.8565Z" fill="#9B2149"/>
<path d="M13.3961 72.5032C13.5564 72.3104 16.2484 69.596 19.3411 66.4801C23.7798 62.0311 25.0777 60.8104 25.3982 60.8104C25.6866 60.8104 25.7988 60.8907 25.7988 61.1317C25.7988 61.3083 25.7027 61.4529 25.5905 61.4529C25.4783 61.4529 25.3021 61.5974 25.1899 61.7741C25.0777 61.9508 24.8854 62.0953 24.7572 62.0953C24.629 62.0953 24.5169 62.1917 24.5169 62.3041C24.5169 62.5611 23.6836 63.3803 23.4272 63.3803C23.3151 63.3803 23.2349 63.4606 23.2349 63.5409C23.2349 63.7979 22.2575 64.8258 22.0011 64.8258C21.8889 64.8258 21.7928 64.9222 21.7928 65.0346C21.7928 65.2594 20.1263 66.9138 19.918 66.9138C19.8378 66.9138 19.7096 67.0744 19.6295 67.2832C19.5334 67.4759 19.309 67.7008 19.1168 67.7972C18.9084 67.8775 18.7482 68.0381 18.7482 68.1344C18.7482 68.3593 17.8989 69.1624 17.6586 69.1624C17.5464 69.1624 17.4663 69.2266 17.4663 69.323C17.4663 69.5639 16.7933 70.2867 16.5529 70.2867C16.4407 70.2867 16.3446 70.367 16.3446 70.4634C16.3446 70.5597 15.8639 71.1379 15.271 71.7483C14.3416 72.6959 14.1012 72.8565 13.6365 72.8565H13.0917L13.3961 72.5032Z" fill="#9B2149"/>
<path d="M62.1735 72.6316C62.1735 72.5031 61.9972 72.3586 61.7729 72.3104C61.3563 72.198 61.148 71.7161 61.2441 71.1058C61.2922 70.8006 61.4364 70.897 62.3338 71.8125L63.3593 72.8565H62.7664C62.3658 72.8565 62.1735 72.7762 62.1735 72.6316Z" fill="#9B2149"/>
<path d="M57.0137 67.7008C56.8535 67.6205 56.7253 67.3956 56.7253 67.235C56.7253 67.0583 56.6452 66.9138 56.549 66.9138C56.4529 66.9138 56.2766 66.8174 56.1644 66.7211C56.0363 66.6086 55.8279 66.4159 55.6837 66.3035C55.5555 66.191 55.4434 65.8377 55.4434 65.5164V64.9382L56.4529 65.8859C56.9977 66.3998 57.6547 67.0744 57.895 67.3635L58.3597 67.8775H57.8149C57.5265 67.8775 57.1579 67.7972 57.0137 67.7008Z" fill="#9B2149"/>
<path d="M52.7193 63.9103C52.7193 63.2518 52.8955 62.7378 53.1038 62.7378C53.216 62.7378 53.5365 62.9948 53.841 63.2999L54.3858 63.8621H53.9531C53.6807 63.8621 53.5205 63.9424 53.5205 64.103C53.5205 64.2476 53.3763 64.3439 53.1199 64.3439C52.7834 64.3439 52.7193 64.2636 52.7193 63.9103Z" fill="#9B2149"/>
<path d="M24.5008 56.4899C24.2765 56.2651 24.0361 55.9438 23.9881 55.7832C23.924 55.6387 23.6996 55.4299 23.4913 55.3496C23.267 55.2692 22.9786 54.9801 22.8343 54.7071C22.7061 54.4501 22.4818 54.2252 22.3376 54.2252C22.2094 54.2252 21.953 53.9683 21.7767 53.6631C21.6005 53.3579 21.3121 53.0688 21.1358 53.0206C20.9755 52.9725 20.7192 52.7315 20.5749 52.4906C20.4467 52.2497 20.1102 51.9285 19.8539 51.7839C19.5975 51.6233 19.3892 51.3984 19.3892 51.2699C19.3892 51.1254 19.1808 50.9166 18.9084 50.772C18.6521 50.6435 18.3155 50.3063 18.1874 50.0493C18.0431 49.7762 17.8348 49.5674 17.6906 49.5674C17.5624 49.5674 17.306 49.3104 17.1298 49.0053C16.9535 48.7001 16.6651 48.411 16.4888 48.3628C16.3286 48.2986 16.0722 48.0577 15.96 47.8167C15.8318 47.5758 15.5434 47.3028 15.319 47.1903C15.0787 47.094 14.8223 46.8209 14.7101 46.5961C14.614 46.3873 14.4057 46.1624 14.2454 46.1142C13.973 46.0178 13.3 45.2308 13.3 45.006C13.3 44.9578 18.2995 44.9096 24.4047 44.9096H35.4934L36.7753 46.1945C37.4804 46.9173 38.7783 48.1861 39.6436 49.0535C40.5249 49.9047 41.3101 50.7078 41.4063 50.8363C41.5024 50.9487 42.0152 51.4627 42.528 51.9606C43.0567 52.4585 43.5535 52.9564 43.6496 53.0688C44.0502 53.5667 45.6527 55.1889 45.7328 55.1889C45.8449 55.1889 47.1749 56.6184 47.239 56.8111C47.2711 56.8915 42.5921 56.9557 36.1023 56.9396L24.9175 56.9236L24.5008 56.4899Z" fill="#9B2149"/>
<path d="M75.794 56.6505C75.794 56.4738 75.8741 56.2811 75.9702 56.2329C76.0504 56.1687 76.1946 55.9438 76.2747 55.735C76.3708 55.5101 76.5631 55.3495 76.7394 55.3495C76.9317 55.3495 77.14 55.1407 77.3002 54.8034C77.4765 54.418 77.7008 54.2252 78.0213 54.1449C78.3899 54.0646 78.5181 53.9201 78.5982 53.5667C78.6623 53.2615 78.8546 53.0206 79.0789 52.9403C79.2872 52.86 79.5436 52.587 79.6718 52.346C79.816 52.0569 80.0243 51.8803 80.2967 51.8481C80.6172 51.816 80.7614 51.6715 80.8576 51.286C80.9698 50.9166 81.146 50.7399 81.5146 50.6275C81.8992 50.5311 82.0434 50.3865 82.0754 50.0653C82.1075 49.7762 82.2357 49.6317 82.476 49.5995C82.6843 49.5674 82.9247 49.3265 83.0689 49.0053C83.2131 48.7001 83.5336 48.3628 83.758 48.2504C83.9983 48.1379 84.2867 47.8649 84.3829 47.6561C84.4951 47.4473 84.7354 47.2064 84.9437 47.0939C85.152 46.9976 85.4245 46.7085 85.5366 46.4675C85.6808 46.1784 85.8731 46.0339 86.1135 46.0339C86.3859 46.0339 86.5141 45.9054 86.6263 45.5199C86.7705 45.022 86.8346 44.9899 87.6037 44.9417L88.437 44.8935L86.2096 47.1421C84.9758 48.3949 83.9022 49.4068 83.806 49.4068C83.7259 49.4068 83.6458 49.471 83.6458 49.5513C83.6458 49.7601 77.7489 55.6708 77.5566 55.6708C77.4605 55.6708 77.3964 55.7511 77.3964 55.8635C77.3964 55.9759 77.2041 56.265 76.9637 56.506C76.451 57.036 75.794 57.1163 75.794 56.6505Z" fill="#9B2149"/>
<path d="M52.9917 54.948C52.7193 54.7553 52.7033 54.1289 52.7193 44.3153C52.7193 38.5974 52.7513 33.7469 52.7834 33.5541C52.8955 32.9759 53.3442 32.2532 53.6487 32.1568C53.8089 32.1086 54.0653 31.8356 54.2255 31.5625C54.3858 31.3055 54.6902 31.0004 54.8986 30.904C55.1069 30.8076 55.3152 30.5988 55.3793 30.4221C55.4273 30.2615 55.6677 30.0206 55.9081 29.9082C56.1484 29.7797 56.4208 29.4906 56.533 29.2657C56.6292 29.0248 56.9016 28.7678 57.1259 28.6554C57.3502 28.559 57.5265 28.4145 57.5265 28.3502C57.5265 28.2699 58.2476 27.515 59.1289 26.6477C59.9942 25.7804 60.7954 24.9934 60.9076 24.8809C61.0037 24.7846 61.7088 24.0458 62.494 23.2587C64.0643 21.6526 64.4329 21.3796 64.7053 21.6526C64.9457 21.8935 64.9777 42.7573 64.7534 43.3356C64.5771 43.7692 63.2311 45.2308 62.9907 45.2308C62.9106 45.2308 62.7023 45.4396 62.5581 45.6966C62.3978 45.9536 62.1094 46.2427 61.9011 46.3391C61.7088 46.4354 61.5325 46.58 61.5325 46.6442C61.5325 46.853 60.7794 47.64 60.5871 47.64C60.491 47.64 60.3307 47.8006 60.2346 47.9934C59.9942 48.4592 59.7699 48.668 59.4173 48.8125C59.2571 48.8607 59.1289 48.9731 59.1289 49.0534C59.1289 49.2462 54.9787 53.4222 54.7864 53.4222C54.7063 53.4222 54.562 53.5988 54.4659 53.8076C54.3698 54.0164 54.1134 54.2895 53.889 54.4019C53.6647 54.5304 53.4404 54.7392 53.3763 54.8998C53.2961 55.1247 53.232 55.1247 52.9917 54.948Z" fill="#9B2149"/>
<path d="M10.656 42.5486C10.4477 42.4361 10.2234 42.1952 10.1753 42.0185C10.1112 41.8419 9.85483 41.5849 9.59844 41.4403C9.34205 41.3118 9.0376 41.0227 8.94145 40.8139C8.84531 40.5891 8.70109 40.4124 8.63699 40.4124C8.44471 40.4124 6.56989 38.5493 6.56989 38.3565C6.56989 38.2601 6.36157 38.0674 6.08916 37.9229C5.83278 37.7783 5.60844 37.5695 5.60844 37.425C5.60844 37.2965 5.35205 37.0395 5.0476 36.8628C4.74314 36.6861 4.4547 36.397 4.40663 36.2203C4.34254 36.0597 4.08615 35.8027 3.82977 35.6582C3.57338 35.5297 3.28495 35.2406 3.20483 35.0157C3.1247 34.8069 2.86832 34.55 2.64398 34.4696C2.41964 34.3893 2.17928 34.1805 2.13121 34.036C2.00302 33.6826 1.82675 33.506 1.24989 33.1365C0.9935 32.9759 0.801211 32.7671 0.801211 32.6547C0.801211 32.5423 0.656994 32.3335 0.480729 32.1729C0.0480783 31.8034 0.0801265 31.4501 0.576873 31.0004L0.977476 30.6149H11.1047H21.248L23.8118 33.1687C25.238 34.5821 26.5199 35.9152 26.6641 36.14C26.8083 36.3649 26.9846 36.5576 27.0647 36.5576C27.241 36.5576 32.1123 41.4564 32.4488 41.9543C32.577 42.1631 32.8013 42.3398 32.9455 42.3398C33.0898 42.3398 33.1699 42.4361 33.1218 42.5486C33.0257 42.8377 11.2169 42.8377 10.656 42.5486Z" fill="#9B2149"/>
<path d="M90.8566 41.7776C90.8566 41.4724 90.9207 41.2155 91.0008 41.2155C91.081 41.2155 91.2252 41.0067 91.3213 40.7336C91.4014 40.4606 91.5937 40.2518 91.738 40.2518C92.0745 40.2518 92.459 39.8663 92.459 39.5451C92.459 39.4166 92.6994 39.1917 93.0039 39.0472C93.3404 38.8865 93.5807 38.6456 93.6128 38.4368C93.6448 38.2441 93.8692 37.9871 94.1095 37.8747C94.3499 37.7462 94.6223 37.4731 94.7024 37.2643C94.8306 36.9592 94.9748 36.8789 95.4235 36.8789C95.9523 36.8789 95.9843 36.8467 95.9843 36.3167C95.9843 35.8509 96.0645 35.7385 96.5292 35.5136C96.8657 35.353 97.106 35.1121 97.1381 34.9033C97.1701 34.7106 97.3304 34.5339 97.4906 34.5018C97.8912 34.4215 98.2277 34.0842 98.2277 33.7629C98.2277 33.6344 98.4681 33.4096 98.7725 33.265C99.109 33.1044 99.3975 32.8153 99.4936 32.5262C99.5737 32.2692 99.75 32.0604 99.8782 32.0604C100.006 32.0604 100.199 31.948 100.311 31.8195C100.487 31.6107 99.4455 31.5786 91.0329 31.5786H81.5627V31.1931C81.5627 30.9361 81.6748 30.7755 81.9312 30.7113C82.5722 30.5506 100.663 30.5988 100.551 30.7755C100.503 30.8719 100.567 30.9361 100.695 30.9361C100.936 30.9361 101.497 31.8837 101.352 32.0283C101.304 32.0765 101.272 32.0604 101.272 31.9801C101.272 31.8998 101.016 32.1889 100.695 32.5905C100.375 33.0081 100.006 33.3453 99.8942 33.3453C99.766 33.3453 99.6699 33.4096 99.6699 33.506C99.6699 33.6987 96.3529 37.0395 96.1606 37.0395C96.0805 37.0395 95.9843 37.184 95.9363 37.3768C95.8882 37.5534 95.6959 37.7462 95.5196 37.7944C95.3274 37.8425 95.1831 37.9389 95.1831 38.0032C95.1831 38.1477 91.081 42.3398 90.9367 42.3398C90.8887 42.3398 90.8566 42.0828 90.8566 41.7776Z" fill="#9B2149"/>
<path d="M66.7404 41.0227C66.6923 40.8139 66.6763 35.7706 66.6923 29.7958L66.7404 18.9382L68.4229 17.3C69.3523 16.4166 70.1535 15.6296 70.2176 15.5653C70.3618 15.3886 72.2046 13.5416 72.4129 13.3488C72.509 13.2685 73.3102 12.4494 74.1916 11.55C75.0729 10.6345 75.8581 9.89563 75.9382 9.89563C76.0183 9.89563 76.1305 9.75107 76.1946 9.5744C76.2426 9.39772 76.499 9.14074 76.7714 8.98012C77.0278 8.81951 77.2842 8.57859 77.3323 8.41797C77.4605 8.00037 78.0053 7.88794 78.3739 8.22523C78.6623 8.49828 78.6783 8.83557 78.6783 19.0346V29.5709L77.2201 31.0646C76.4349 31.8677 75.7139 32.5423 75.6337 32.5423C75.5536 32.5423 75.4094 32.6868 75.3133 32.8635C75.2171 33.0402 74.7684 33.522 74.3198 33.9396C73.2301 34.9515 73.0378 35.1603 72.7494 35.5618C72.6212 35.7546 72.461 35.9152 72.3808 35.9152C72.2526 35.9152 70.6663 37.441 70.6663 37.5695C70.6663 37.6498 68.8555 39.4808 67.5576 40.7015C66.8525 41.36 66.8205 41.3761 66.7404 41.0227Z" fill="#9B2149"/>
<path d="M36.6791 40.5409C36.6311 38.6777 36.615 21.5241 36.6631 21.4277C36.8234 21.0744 38.1854 22.2951 42.9285 27.0492C48.8254 32.9599 49.1619 33.3453 48.3928 33.3453C47.9281 33.3453 47.2711 32.8796 47.2711 32.5583C47.2711 32.4138 47.0467 32.205 46.7743 32.0765C46.5019 31.964 46.2455 31.7392 46.1814 31.5946C46.0853 31.3055 45.3963 30.6149 45.204 30.6149C45.1399 30.6149 44.9957 30.4543 44.8835 30.2455C44.7713 30.0367 44.4669 29.7476 44.2105 29.587C43.9541 29.4424 43.7458 29.2175 43.7458 29.1051C43.7458 28.9766 43.6336 28.8481 43.5054 28.7839C43.3772 28.7357 43.265 28.543 43.265 28.3663C43.265 28.1575 43.1529 28.0451 42.9446 28.0451C42.7843 28.0451 42.576 27.9487 42.5119 27.8363C42.4478 27.7078 42.1914 27.4829 41.935 27.3223C41.6947 27.1777 41.4543 26.8886 41.4063 26.6959C41.3582 26.5032 41.1178 26.2622 40.8454 26.1659C40.589 26.0695 40.3807 25.8928 40.3807 25.7643C40.3807 25.6519 40.2205 25.427 40.0282 25.2825C39.3552 24.7685 37.9771 23.4033 37.9771 23.2266C37.9771 23.1463 37.913 23.066 37.8169 23.066C37.7367 23.066 37.6566 22.9536 37.6566 22.8251C37.6566 22.6966 37.5925 22.5842 37.4964 22.5842C37.3842 22.5842 37.3361 25.7965 37.3361 31.8998C37.3361 41.103 37.3361 41.2154 37.0157 41.2154C36.7432 41.2154 36.6952 41.103 36.6791 40.5409Z" fill="#9B2149"/>
<path d="M34.1313 19.388C34.1313 19.3076 33.9871 19.1792 33.8108 19.131C33.6346 19.0828 33.4583 18.874 33.3942 18.6812C33.3461 18.4885 33.0737 18.2155 32.8013 18.0709C32.4648 17.9103 32.2725 17.6854 32.2405 17.4124C32.2084 17.1072 32.0802 16.9787 31.7117 16.8984C31.4393 16.8502 31.1669 16.6575 31.0707 16.4326C30.9746 16.2238 30.6861 15.9347 30.4298 15.7741C30.1253 15.5975 29.9651 15.3726 29.9651 15.0995C29.9651 14.8265 29.8689 14.7141 29.6606 14.7141C29.3081 14.7141 28.5229 14.0234 28.5229 13.7022C28.5229 13.5737 28.3466 13.4131 28.1223 13.3649C27.8979 13.3007 27.7217 13.1882 27.7217 13.0919C27.7217 12.8831 27.4653 12.6421 26.8884 12.2567C26.632 12.0961 26.4398 11.9033 26.4398 11.7909C26.4398 11.6142 25.8308 11.0199 25.6386 11.0199C25.5745 11.0199 25.4463 10.8593 25.3341 10.6505C25.2219 10.4417 24.9175 10.1526 24.6611 9.992C24.4047 9.84745 24.1964 9.60653 24.1964 9.47804C24.1964 9.34955 24.1323 9.25318 24.0361 9.25318C23.956 9.25318 23.8759 8.99619 23.8759 8.69103C23.8759 8.38586 23.9079 8.12888 23.956 8.12888C24.1483 8.12888 34.9325 19.0828 34.9325 19.2916C34.9325 19.4361 34.7723 19.5325 34.5319 19.5325C34.3076 19.5325 34.1313 19.4683 34.1313 19.388Z" fill="#9B2149"/>
<path d="M77.7169 109.557C77.7169 109.428 77.6368 109.316 77.5406 109.316C77.4605 109.316 77.4284 109.412 77.4925 109.525C77.5566 109.621 77.5566 109.669 77.4765 109.605C77.4124 109.541 77.2682 109.316 77.1721 109.123C77.0599 108.914 76.8836 108.754 76.7554 108.754C76.6272 108.754 76.5151 108.641 76.5151 108.513C76.5151 108.175 74.0313 105.766 73.807 105.895C73.7109 105.943 73.6788 105.943 73.7429 105.879C73.791 105.814 73.7269 105.606 73.5827 105.429C73.0859 104.835 70.1535 101.928 70.0253 101.928C69.9772 101.928 69.817 101.751 69.7048 101.526C69.5927 101.317 69.3683 101.092 69.2401 101.044C69.0959 100.996 68.8395 100.739 68.6793 100.466C68.503 100.177 68.3107 100.016 68.1665 100.064C68.0383 100.113 67.9422 100.064 67.9422 99.952C67.9422 99.8396 67.6537 99.422 67.3012 99.0365L66.6602 98.3298L66.6763 87.7132C66.6923 81.8829 66.7564 76.9359 66.8205 76.7111C66.9487 76.3256 66.9968 76.3256 67.0448 76.7593C67.0609 76.8556 67.141 76.9359 67.2211 76.9199C67.3172 76.9199 67.4775 77.0002 67.5896 77.1287C67.7018 77.2572 67.7499 77.3535 67.7018 77.3535C67.6377 77.3535 67.9422 77.6426 68.3428 77.996C68.7434 78.3494 69.0318 78.6385 68.9517 78.6385C68.8876 78.6385 69.0799 78.8151 69.3843 79.0239C70.0253 79.4576 71.2271 80.7425 71.179 80.9352C71.163 80.9995 71.2111 81.0477 71.3072 81.0477C71.3874 81.0477 72.2206 81.8026 73.166 82.7341C74.0954 83.6657 74.8005 84.4206 74.7364 84.4206C74.6563 84.4206 74.7845 84.5491 74.9928 84.6936C75.6978 85.1755 77.7169 87.2153 77.7169 87.4401C77.7169 87.5526 77.781 87.6168 77.8611 87.5526C77.9412 87.5044 78.1656 87.665 78.3578 87.9059C78.6623 88.2914 78.6783 88.3556 78.454 88.4038C78.1495 88.4681 78.1175 88.8535 78.4059 88.966C78.5662 89.0302 78.5662 89.0623 78.4059 89.0623C78.2777 89.0784 78.1976 89.3354 78.1976 89.7851C78.1976 90.2027 78.2777 90.5239 78.4059 90.5721C78.5662 90.6364 78.5662 90.6685 78.4059 90.6685C78.1335 90.6845 78.1015 108.288 78.3578 108.384C78.454 108.416 78.5501 108.657 78.5662 108.914C78.5982 109.332 78.5501 109.396 78.2457 109.348C77.8611 109.3 77.7329 109.557 78.0854 109.685C78.1976 109.733 78.1656 109.782 78.0053 109.782C77.8451 109.798 77.7169 109.685 77.7169 109.557Z" fill="#631032"/>
<path d="M63.872 95.6154C63.7278 95.4066 63.4394 95.1336 63.2151 95.0211C62.9907 94.9087 62.7824 94.6678 62.7183 94.5072C62.6702 94.3305 62.526 94.2341 62.3978 94.2823C62.2857 94.3305 62.1895 94.3144 62.2216 94.2502C62.2857 94.0253 61.4364 93.1419 60.7634 92.7083C60.3948 92.4834 60.0904 92.1782 60.0904 92.0498C60.0904 91.9213 59.9942 91.7607 59.882 91.6964C59.7539 91.6322 59.5455 91.3752 59.4013 91.1503C59.2411 90.9255 58.9526 90.6524 58.7443 90.54C58.536 90.4276 58.2636 90.1545 58.1514 89.9457C58.0393 89.7208 57.847 89.5924 57.7348 89.6245C57.6226 89.6727 57.5425 89.6566 57.5746 89.5924C57.6226 89.4317 57.3823 89.1587 55.7158 87.4562C54.9306 86.6692 54.2255 86.0588 54.1454 86.1231C54.0653 86.1713 54.0012 86.1231 54.0012 86.0267C54.0012 85.8661 53.9051 85.7215 53.3602 85.0791C52.7032 84.3081 52.7193 84.4527 52.7193 73.9806C52.7193 67.3472 52.7673 63.8619 52.8795 63.8619C52.9757 63.8619 53.0398 63.6531 53.0398 63.4122C53.0398 63.1552 53.0878 62.8982 53.1359 62.85C53.2801 62.7215 56.2446 65.6608 56.1484 65.8214C56.1004 65.8857 56.1324 65.9499 56.1965 65.9499C56.4369 65.9499 57.3663 66.7851 57.2701 66.9296C57.2381 66.9939 57.3983 67.1706 57.6387 67.2991C58.2316 67.6042 62.0453 71.4911 61.9011 71.6196C61.853 71.6838 61.8851 71.732 61.9972 71.732C62.2857 71.732 64.529 73.9485 64.7213 74.4303C64.8495 74.7355 64.8816 77.9157 64.8655 85.2076L64.8175 95.5512L64.4649 95.776C64.1445 95.9848 64.0964 95.9688 63.872 95.6154Z" fill="#631032"/>
<path d="M10.8964 86.9904C5.30398 86.9422 0.608918 86.8458 0.448677 86.7816C-0.288431 86.4122 -0.0640936 86.1231 4.02205 82.0435C6.21735 79.843 7.96398 77.996 7.88386 77.9157C7.81976 77.8354 7.85181 77.8193 7.93193 77.8836C8.02807 77.9317 8.74916 77.3214 9.53434 76.5344L10.9605 75.1049H21.7287C31.1028 75.1049 32.5129 75.137 32.6892 75.3458C32.8334 75.5225 32.8334 75.5868 32.7052 75.5868C32.593 75.5868 32.561 75.6671 32.6251 75.7795C32.6892 75.8919 32.6731 75.908 32.5449 75.8437C32.4488 75.7795 32.3206 75.8437 32.2565 76.0044C32.1283 76.3577 22.0171 86.5086 21.4723 86.8298C21.1198 87.0386 19.7577 87.0546 10.8964 86.9904Z" fill="#631032"/>
<path d="M13.8128 72.2621C14.1333 71.9248 14.7742 71.2823 15.2069 70.8165C15.6555 70.3507 16.0241 69.901 16.0241 69.8047C16.0241 69.7243 16.0722 69.6601 16.1523 69.6762C16.3286 69.7404 18.2675 67.8291 18.2675 67.6042C18.2675 67.4918 18.3796 67.3954 18.5078 67.3954C18.636 67.3954 18.9565 67.0903 19.2289 66.7209C19.4853 66.3675 19.7096 66.1266 19.7096 66.1908C19.7096 66.2551 20.6871 65.3396 21.8729 64.151C23.0587 62.9464 24.0361 61.9024 24.0361 61.8061C24.0361 61.7257 24.1804 61.6133 24.3726 61.5651C24.5489 61.5169 24.7412 61.3242 24.7893 61.1475C24.8694 60.8263 24.9175 60.8263 35.9741 60.8102C42.4959 60.8102 47.1269 60.8745 47.1749 60.9548C47.223 61.0351 44.6431 63.7495 41.4223 66.9778L35.5735 72.8563H24.4047H13.2359L13.8128 72.2621Z" fill="#631032"/>
<path d="M54.4178 56.8431C54.3057 56.7306 54.4499 56.57 56.1004 54.9478C56.6292 54.4178 57.158 53.8877 57.2541 53.7753C57.3663 53.6629 57.6226 53.4059 57.831 53.2132C58.0393 53.0204 58.3277 52.7153 58.4719 52.5546C58.6161 52.394 58.8725 52.137 59.0328 51.9925C59.193 51.8479 59.4494 51.607 59.5936 51.4303C60.2506 50.6755 61.5646 49.4066 61.6928 49.4066C61.7729 49.4066 61.9652 49.1978 62.1094 48.9408C62.2696 48.6838 62.5581 48.3787 62.7664 48.2662C62.9587 48.1538 63.167 47.9611 63.2151 47.8165C63.2631 47.672 63.4554 47.4471 63.6477 47.3186C63.824 47.1901 64.0964 46.9492 64.2406 46.7886C64.3848 46.628 64.8335 46.1301 65.2501 45.6964L66.0033 44.9094H76.9958C86.8025 44.9094 88.7895 44.9736 87.6839 45.2627C87.5076 45.3109 87.2192 45.6964 87.0108 46.114C86.7705 46.5958 86.6102 46.8046 86.5301 46.6762C86.466 46.5637 86.3218 46.5316 86.2257 46.5798C86.1295 46.644 86.0814 46.7725 86.1455 46.8528C86.2417 47.0295 85.6007 47.6238 85.2802 47.6398C85.1681 47.6398 85.0239 47.7683 84.9758 47.9289C84.8155 48.3787 84.3829 48.8444 84.1265 48.8444C84.0143 48.8444 83.7259 49.1817 83.5016 49.5993C83.2772 50.033 83.0529 50.29 82.9888 50.1775C82.8446 49.9527 82.5241 50.1615 82.5241 50.4988C82.5241 50.8039 82.0754 51.2537 81.7549 51.2537C81.6588 51.2537 81.4345 51.5106 81.2742 51.8158C81.0979 52.1692 80.8896 52.378 80.6813 52.378C80.489 52.378 80.2807 52.5546 80.1525 52.8438C80.0243 53.1007 79.784 53.3417 79.6077 53.3898C79.4475 53.422 79.2071 53.7111 79.0789 54.0002C78.9347 54.3535 78.7104 54.5784 78.438 54.6426C78.1976 54.7069 77.9412 54.8996 77.8611 55.0924C77.5566 55.7669 77.2361 56.2327 77.2361 56.0239C77.2361 55.8954 77.14 55.8312 77.0439 55.8794C76.9317 55.9115 76.8516 56.04 76.8836 56.1363C76.8996 56.2488 76.7554 56.4736 76.5631 56.6343C76.2106 56.9394 75.7619 56.9394 65.3623 56.9555C59.4013 56.9555 54.4819 56.9073 54.4178 56.8431Z" fill="#631032"/>
<path d="M48.1364 54.8675C47.9761 54.7069 46.6301 53.3577 45.1399 51.8961C43.6657 50.4185 42.3837 49.0854 42.3036 48.9087C42.2075 48.7481 42.0633 48.6035 41.9831 48.6035C41.8549 48.6035 38.8264 45.6322 37.6246 44.3312C37.4643 44.1545 37.1919 43.8815 36.9996 43.7048C36.6792 43.3996 36.6631 43.2711 36.7433 41.5686C36.7913 40.4925 36.7753 39.8019 36.6792 39.8661C36.599 39.9143 36.5349 39.834 36.5349 39.7055C36.5349 39.5609 36.6151 39.4485 36.6952 39.4485C36.8074 39.4485 36.8554 36.3647 36.8554 30.5344C36.8554 21.6845 36.8554 21.6203 37.1759 21.6203C37.3522 21.6203 37.5445 21.7327 37.5925 21.8612C37.6566 21.9897 37.7528 22.07 37.8169 22.0218C37.897 21.9737 37.9931 22.0861 38.0572 22.2628C38.1053 22.4394 38.2335 22.584 38.3136 22.584C38.3937 22.584 38.4578 22.6964 38.4578 22.8249C38.4578 23.098 39.0027 23.4192 39.1789 23.2586C39.259 23.1943 39.259 23.2264 39.211 23.3228C39.0828 23.5477 39.6276 24.0777 39.8199 23.9171C39.884 23.8368 39.9 23.9171 39.8359 24.0938C39.7558 24.3186 39.8039 24.3668 39.9801 24.2865C40.1243 24.2383 40.2045 24.2544 40.1564 24.3186C40.0602 24.4792 40.6211 24.9932 40.8775 24.9932C40.9736 24.9932 41.0217 25.1056 40.9576 25.2341C40.9095 25.3787 41.0057 25.5393 41.23 25.6517C41.6787 25.8926 42.1434 26.3745 42.0472 26.4869C41.9992 26.5351 42.0953 26.6475 42.2716 26.7439C42.4478 26.8403 42.7202 27.0491 42.8805 27.1936C43.0407 27.3542 43.233 27.4827 43.3292 27.4827C43.4253 27.4827 43.5855 27.6594 43.6817 27.8682C43.7939 28.077 44.0022 28.3179 44.1304 28.3982C44.2746 28.4785 44.3547 28.607 44.3066 28.6873C44.2265 28.8158 44.7393 29.2013 44.8835 29.121C44.9155 29.1049 44.9316 29.121 44.9155 29.1531C44.8835 29.1852 45.0437 29.378 45.2681 29.5707C45.4764 29.7795 45.6046 29.9883 45.5405 30.0686C45.4764 30.1329 45.5725 30.1329 45.7488 30.0686C45.9251 30.0044 46.0212 30.0044 45.9571 30.0526C45.8289 30.1811 46.4058 30.7753 46.6301 30.7753C46.7263 30.7753 46.7904 30.9038 46.7583 31.0644C46.7263 31.2411 46.8064 31.3375 46.9827 31.3214C47.1429 31.3054 47.239 31.3535 47.191 31.4178C47.1429 31.482 47.3031 31.6587 47.5114 31.8033C47.7358 31.9478 47.88 32.1245 47.848 32.2048C47.7999 32.269 47.9761 32.4939 48.2486 32.6866L48.7293 33.04L48.6972 44.0421C48.6812 50.0812 48.6171 55.0602 48.553 55.1084C48.4889 55.1406 48.2966 55.0442 48.1364 54.8675Z" fill="#631032"/>
<path d="M68.6152 42.7893C68.4069 42.5805 68.2626 42.7411 71.7559 39.2076C73.1981 37.746 74.4319 36.5575 74.512 36.5575C74.5922 36.5575 74.7524 36.3968 74.8485 36.2041C75.0889 35.7383 75.5696 35.2565 75.6818 35.3689C75.7299 35.4171 75.842 35.3047 75.9542 35.128C76.1144 34.8228 77.156 33.7306 77.9732 33.0079C78.1495 32.8633 78.3899 32.6063 78.5181 32.4297C78.6463 32.269 79.111 31.8193 79.5436 31.4499C80.2487 30.8396 80.4089 30.7753 81.1781 30.7753C81.6588 30.7753 82.0434 30.8556 82.0434 30.9359C82.0434 31.0484 85.1681 31.0966 91.5296 31.0966C96.7375 31.0805 101.048 31.1447 101.112 31.209C101.32 31.4338 101.481 32.1084 101.304 31.996C101.208 31.9478 101 32.0602 100.84 32.269C100.679 32.4778 100.455 32.6224 100.343 32.5742C100.247 32.5421 100.103 32.6545 100.038 32.8151C99.8942 33.2488 99.4776 33.6825 99.077 33.8431C98.8526 33.9234 98.7084 34.1161 98.7084 34.3088C98.7084 34.4855 98.6443 34.6301 98.5642 34.6301C98.4841 34.6301 98.3559 34.7907 98.3078 34.9674C98.2277 35.2244 98.1636 35.2565 98.0675 35.1119C97.9232 34.871 97.5867 35.0316 97.5867 35.3689C97.5867 35.658 97.09 36.1559 96.7855 36.1559C96.6573 36.1559 96.5291 36.3005 96.4971 36.4771C96.417 36.8787 95.9202 37.3605 95.5837 37.3605C95.4555 37.3605 95.2632 37.5372 95.1831 37.746C95.103 37.9548 94.8466 38.2278 94.5902 38.3563C94.3499 38.4688 94.1255 38.7097 94.0935 38.8864C94.0454 39.063 93.9332 39.2718 93.805 39.3361C93.6769 39.4003 93.5807 39.5931 93.5807 39.7376C93.5807 39.9625 93.5487 39.9625 93.4365 39.7858C93.2602 39.4967 92.9397 39.7055 92.9397 40.107C92.9397 40.2676 92.8757 40.4122 92.8116 40.4122C92.7314 40.4122 92.5872 40.5728 92.4911 40.7816C92.3949 40.9744 92.3148 41.0386 92.3148 40.9422C92.2828 40.5568 91.9623 40.7334 91.802 41.2153C91.7059 41.4883 91.5617 41.6971 91.4816 41.6971C91.4014 41.6971 91.3373 41.8095 91.3373 41.938C91.3373 42.0665 91.0169 42.3556 90.6483 42.5805L89.9432 42.982H79.3834C71.5957 42.982 68.7594 42.9338 68.6152 42.7893Z" fill="#631032"/>
<path d="M34.2595 40.9262C34.0192 40.6852 33.6666 40.3319 33.4583 40.1391C32.8814 39.577 32.7372 39.4324 31.7277 38.4045C31.2149 37.8745 30.6701 37.3284 30.5419 37.1999C30.3977 37.0714 29.917 36.5735 29.4523 36.1077C28.9876 35.6259 28.4748 35.128 28.3306 34.9834C27.9781 34.6461 27.4012 34.0679 27.0487 33.6985C26.9045 33.554 26.6961 33.3612 26.6 33.2648C26.5039 33.1845 26.2635 32.9276 26.0552 32.7027C25.8469 32.4778 25.0617 31.7069 24.2925 30.9681L22.9145 29.6189V18.8898C22.9145 8.28929 22.9145 8.14474 23.2349 8.04837C23.6836 7.90381 24.1643 8.09655 24.2765 8.4499C24.3246 8.61052 24.4848 8.78719 24.613 8.83538C24.7412 8.88356 24.8213 8.99599 24.7572 9.0763C24.6611 9.25298 25.2059 9.60633 25.3822 9.4939C25.4302 9.44571 25.4463 9.46178 25.3982 9.52602C25.3661 9.57421 25.4943 9.783 25.7187 9.97574C25.927 10.1845 26.0552 10.3933 26.0071 10.4415C25.943 10.4897 25.9751 10.5379 26.0712 10.5379C26.2795 10.5379 26.7923 11.0197 27.0166 11.4213C27.1288 11.5979 27.3211 11.7264 27.4653 11.7264C27.6095 11.7104 27.6896 11.7425 27.6416 11.8067C27.6095 11.871 27.7537 12.0477 27.962 12.2083C28.1864 12.3689 28.3146 12.5616 28.2825 12.6419C28.2345 12.7062 28.3466 12.8026 28.5229 12.8668C28.6992 12.931 28.9555 13.1559 29.0677 13.3968C29.1959 13.6378 29.5965 14.0072 29.949 14.232C30.3176 14.4569 30.574 14.7139 30.5419 14.8263C30.4939 14.9227 30.6541 15.1315 30.8945 15.2921C31.3912 15.6133 31.7277 15.9345 31.7758 16.1112C31.7918 16.1755 31.904 16.2236 32.0161 16.2236C32.1283 16.2076 32.1924 16.2236 32.1443 16.2718C32.0963 16.32 32.2405 16.4967 32.4488 16.6734C32.6731 16.85 32.8174 17.0428 32.7693 17.1231C32.7212 17.1873 32.8975 17.3801 33.1378 17.5246C33.6827 17.878 34.1313 18.3438 34.0352 18.4562C33.9871 18.4883 34.1794 18.6007 34.4358 18.6971L34.9325 18.8738V30.0365C34.9325 36.172 34.8684 41.2313 34.8043 41.2795C34.7242 41.3277 34.4839 41.1671 34.2595 40.9262Z" fill="#631032"/>
<rect x="422" y="8" width="7" height="119" rx="3.5" fill="#620E31"/>
<path d="M186 117C186 118.091 185.091 118.961 184.002 118.915L139 117L184.002 115.085C185.091 115.039 186 115.909 186 117Z" fill="#620E31"/>
<path d="M196.528 123V121.32L200.848 117.24C201.189 116.931 201.44 116.653 201.6 116.408C201.76 116.163 201.867 115.939 201.92 115.736C201.984 115.533 202.016 115.347 202.016 115.176C202.016 114.728 201.861 114.387 201.552 114.152C201.253 113.907 200.811 113.784 200.224 113.784C199.755 113.784 199.317 113.875 198.912 114.056C198.517 114.237 198.181 114.52 197.904 114.904L196.016 113.688C196.443 113.048 197.04 112.541 197.808 112.168C198.576 111.795 199.461 111.608 200.464 111.608C201.296 111.608 202.021 111.747 202.64 112.024C203.269 112.291 203.755 112.669 204.096 113.16C204.448 113.651 204.624 114.237 204.624 114.92C204.624 115.283 204.576 115.645 204.48 116.008C204.395 116.36 204.213 116.733 203.936 117.128C203.669 117.523 203.275 117.965 202.752 118.456L199.168 121.832L198.672 120.888H204.992V123H196.528ZM212.862 123.192C211.944 123.192 211.123 122.968 210.398 122.52C209.672 122.061 209.102 121.4 208.686 120.536C208.27 119.672 208.062 118.627 208.062 117.4C208.062 116.173 208.27 115.128 208.686 114.264C209.102 113.4 209.672 112.744 210.398 112.296C211.123 111.837 211.944 111.608 212.862 111.608C213.79 111.608 214.611 111.837 215.326 112.296C216.051 112.744 216.622 113.4 217.038 114.264C217.454 115.128 217.662 116.173 217.662 117.4C217.662 118.627 217.454 119.672 217.038 120.536C216.622 121.4 216.051 122.061 215.326 122.52C214.611 122.968 213.79 123.192 212.862 123.192ZM212.862 121C213.299 121 213.678 120.877 213.998 120.632C214.328 120.387 214.584 119.997 214.766 119.464C214.958 118.931 215.054 118.243 215.054 117.4C215.054 116.557 214.958 115.869 214.766 115.336C214.584 114.803 214.328 114.413 213.998 114.168C213.678 113.923 213.299 113.8 212.862 113.8C212.435 113.8 212.056 113.923 211.726 114.168C211.406 114.413 211.15 114.803 210.958 115.336C210.776 115.869 210.686 116.557 210.686 117.4C210.686 118.243 210.776 118.931 210.958 119.464C211.15 119.997 211.406 120.387 211.726 120.632C212.056 120.877 212.435 121 212.862 121ZM220.762 123V121.32L225.082 117.24C225.424 116.931 225.674 116.653 225.834 116.408C225.994 116.163 226.101 115.939 226.154 115.736C226.218 115.533 226.25 115.347 226.25 115.176C226.25 114.728 226.096 114.387 225.786 114.152C225.488 113.907 225.045 113.784 224.458 113.784C223.989 113.784 223.552 113.875 223.146 114.056C222.752 114.237 222.416 114.52 222.138 114.904L220.25 113.688C220.677 113.048 221.274 112.541 222.042 112.168C222.81 111.795 223.696 111.608 224.698 111.608C225.53 111.608 226.256 111.747 226.874 112.024C227.504 112.291 227.989 112.669 228.33 113.16C228.682 113.651 228.858 114.237 228.858 114.92C228.858 115.283 228.81 115.645 228.714 116.008C228.629 116.36 228.448 116.733 228.17 117.128C227.904 117.523 227.509 117.965 226.986 118.456L223.402 121.832L222.906 120.888H229.226V123H220.762ZM232.2 123V121.32L236.52 117.24C236.861 116.931 237.112 116.653 237.272 116.408C237.432 116.163 237.539 115.939 237.592 115.736C237.656 115.533 237.688 115.347 237.688 115.176C237.688 114.728 237.533 114.387 237.224 114.152C236.925 113.907 236.483 113.784 235.896 113.784C235.427 113.784 234.989 113.875 234.584 114.056C234.189 114.237 233.853 114.52 233.576 114.904L231.688 113.688C232.115 113.048 232.712 112.541 233.48 112.168C234.248 111.795 235.133 111.608 236.136 111.608C236.968 111.608 237.693 111.747 238.312 112.024C238.941 112.291 239.427 112.669 239.768 113.16C240.12 113.651 240.296 114.237 240.296 114.92C240.296 115.283 240.248 115.645 240.152 116.008C240.067 116.36 239.885 116.733 239.608 117.128C239.341 117.523 238.947 117.965 238.424 118.456L234.84 121.832L234.344 120.888H240.664V123H232.2ZM250.473 119.496V117.496H255.001V119.496H250.473ZM264.872 123V121.32L269.192 117.24C269.533 116.931 269.784 116.653 269.944 116.408C270.104 116.163 270.21 115.939 270.264 115.736C270.328 115.533 270.36 115.347 270.36 115.176C270.36 114.728 270.205 114.387 269.896 114.152C269.597 113.907 269.154 113.784 268.568 113.784C268.098 113.784 267.661 113.875 267.256 114.056C266.861 114.237 266.525 114.52 266.248 114.904L264.36 113.688C264.786 113.048 265.384 112.541 266.152 112.168C266.92 111.795 267.805 111.608 268.808 111.608C269.64 111.608 270.365 111.747 270.984 112.024C271.613 112.291 272.098 112.669 272.44 113.16C272.792 113.651 272.968 114.237 272.968 114.92C272.968 115.283 272.92 115.645 272.824 116.008C272.738 116.36 272.557 116.733 272.28 117.128C272.013 117.523 271.618 117.965 271.096 118.456L267.512 121.832L267.016 120.888H273.336V123H264.872ZM281.205 123.192C280.288 123.192 279.467 122.968 278.741 122.52C278.016 122.061 277.445 121.4 277.029 120.536C276.613 119.672 276.405 118.627 276.405 117.4C276.405 116.173 276.613 115.128 277.029 114.264C277.445 113.4 278.016 112.744 278.741 112.296C279.467 111.837 280.288 111.608 281.205 111.608C282.133 111.608 282.955 111.837 283.669 112.296C284.395 112.744 284.965 113.4 285.381 114.264C285.797 115.128 286.005 116.173 286.005 117.4C286.005 118.627 285.797 119.672 285.381 120.536C284.965 121.4 284.395 122.061 283.669 122.52C282.955 122.968 282.133 123.192 281.205 123.192ZM281.205 121C281.643 121 282.021 120.877 282.341 120.632C282.672 120.387 282.928 119.997 283.109 119.464C283.301 118.931 283.397 118.243 283.397 117.4C283.397 116.557 283.301 115.869 283.109 115.336C282.928 114.803 282.672 114.413 282.341 114.168C282.021 113.923 281.643 113.8 281.205 113.8C280.779 113.8 280.4 113.923 280.069 114.168C279.749 114.413 279.493 114.803 279.301 115.336C279.12 115.869 279.029 116.557 279.029 117.4C279.029 118.243 279.12 118.931 279.301 119.464C279.493 119.997 279.749 120.387 280.069 120.632C280.4 120.877 280.779 121 281.205 121ZM289.106 123V121.32L293.426 117.24C293.767 116.931 294.018 116.653 294.178 116.408C294.338 116.163 294.445 115.939 294.498 115.736C294.562 115.533 294.594 115.347 294.594 115.176C294.594 114.728 294.439 114.387 294.13 114.152C293.831 113.907 293.389 113.784 292.802 113.784C292.333 113.784 291.895 113.875 291.49 114.056C291.095 114.237 290.759 114.52 290.482 114.904L288.594 113.688C289.021 113.048 289.618 112.541 290.386 112.168C291.154 111.795 292.039 111.608 293.042 111.608C293.874 111.608 294.599 111.747 295.218 112.024C295.847 112.291 296.333 112.669 296.674 113.16C297.026 113.651 297.202 114.237 297.202 114.92C297.202 115.283 297.154 115.645 297.058 116.008C296.973 116.36 296.791 116.733 296.514 117.128C296.247 117.523 295.853 117.965 295.33 118.456L291.746 121.832L291.25 120.888H297.57V123H289.106ZM305.28 123.192C304.341 123.192 303.52 123.053 302.816 122.776C302.112 122.488 301.562 122.088 301.168 121.576C300.773 121.053 300.576 120.445 300.576 119.752C300.576 119.059 300.768 118.472 301.152 117.992C301.546 117.501 302.096 117.133 302.8 116.888C303.504 116.632 304.33 116.504 305.28 116.504C306.24 116.504 307.072 116.632 307.776 116.888C308.49 117.133 309.04 117.501 309.424 117.992C309.818 118.472 310.016 119.059 310.016 119.752C310.016 120.445 309.818 121.053 309.424 121.576C309.029 122.088 308.474 122.488 307.76 122.776C307.056 123.053 306.229 123.192 305.28 123.192ZM305.28 121.288C305.93 121.288 306.442 121.144 306.816 120.856C307.2 120.568 307.392 120.173 307.392 119.672C307.392 119.171 307.2 118.781 306.816 118.504C306.442 118.216 305.93 118.072 305.28 118.072C304.64 118.072 304.133 118.216 303.76 118.504C303.386 118.781 303.2 119.171 303.2 119.672C303.2 120.173 303.386 120.568 303.76 120.856C304.133 121.144 304.64 121.288 305.28 121.288ZM305.28 117.816C304.416 117.816 303.658 117.699 303.008 117.464C302.368 117.229 301.866 116.888 301.504 116.44C301.152 115.981 300.976 115.437 300.976 114.808C300.976 114.147 301.157 113.581 301.52 113.112C301.882 112.632 302.389 112.264 303.04 112.008C303.69 111.741 304.437 111.608 305.28 111.608C306.144 111.608 306.896 111.741 307.536 112.008C308.186 112.264 308.693 112.632 309.056 113.112C309.429 113.581 309.616 114.147 309.616 114.808C309.616 115.437 309.434 115.981 309.072 116.44C308.72 116.888 308.218 117.229 307.568 117.464C306.917 117.699 306.154 117.816 305.28 117.816ZM305.28 116.296C305.824 116.296 306.25 116.173 306.56 115.928C306.88 115.683 307.04 115.347 307.04 114.92C307.04 114.472 306.874 114.125 306.544 113.88C306.224 113.635 305.802 113.512 305.28 113.512C304.768 113.512 304.352 113.635 304.032 113.88C303.712 114.125 303.552 114.472 303.552 114.92C303.552 115.347 303.706 115.683 304.016 115.928C304.325 116.173 304.746 116.296 305.28 116.296Z" fill="black"/>
<path d="M321 117C321 115.909 321.909 115.039 322.998 115.085L368 117L322.998 118.915C321.909 118.961 321 118.091 321 117Z" fill="#620E31"/>
</svg>
