<svg width="411" height="143" viewBox="0 0 411 143" fill="none" xmlns="http://www.w3.org/2000/svg">
<path d="M135.64 15.009C132.788 15.009 129.844 17.815 129.844 24.692C129.844 27.82 130.373 31.454 131.753 34.513C133.34 37.802 135.87 39.251 138.147 39.251C141.436 39.251 144.334 36.813 144.334 30.787C144.334 27.383 143.483 23.289 142.08 20.368C140.562 17.033 138.101 15.009 135.64 15.009ZM121.242 27.613C121.242 17.769 127.498 10.961 136.652 10.961C145.116 10.961 152.361 17.102 152.361 28.119C152.361 38.538 145.53 43.782 136.974 43.782C127.13 43.782 121.242 37.02 121.242 27.613ZM157.236 43.115C155.971 43.115 155.419 42.609 155.419 41.85C155.419 40.286 157.604 40.378 157.972 37.779C158.179 36.399 158.248 32.466 158.248 26.647C158.248 21.817 158.202 19.057 158.156 18.16C157.857 14.526 155.603 14.733 155.603 12.962C155.603 12.18 156.04 11.605 157.259 11.605C159.191 11.605 161.399 11.72 163.4 11.72C165.792 11.72 168.138 11.582 170.507 11.582C175.682 11.582 181.179 13.238 181.179 18.988C181.179 22.3 178.557 24.761 176.533 25.589C176.441 25.635 176.303 25.727 176.303 25.865C176.303 26.003 176.441 26.072 176.533 26.095C180.42 27.222 183.318 30.051 183.318 33.823C183.318 41.873 176.395 43.138 170.691 43.138C168.299 43.138 164.803 43 162.365 43C160.594 43 158.961 43.115 157.236 43.115ZM175.222 33.708C175.222 30.971 173.727 29.2 171.358 28.418C170.162 28.027 167.954 27.912 166.505 27.912C165.746 27.912 165.47 28.28 165.47 30.212V36.79C165.47 38.676 165.815 39.067 169.081 39.067C173.175 39.067 175.222 37.342 175.222 33.708ZM165.47 16.734V23.105C165.47 24.048 165.93 24.163 166.988 24.163C168.46 24.163 170.323 23.956 171.45 23.473C172.945 22.852 173.865 21.518 173.865 19.678C173.865 16.435 171.059 15.492 167.793 15.492C165.93 15.492 165.47 15.814 165.47 16.734ZM204.52 20.897C204.52 17.654 202.197 15.653 198.977 15.653C196.539 15.653 196.286 15.952 196.286 18.758V23.266C196.286 25.014 196.677 25.957 199.253 25.957C202.473 25.957 204.52 24.117 204.52 20.897ZM196.263 32.397V35.985C196.263 37.871 196.884 38.837 197.666 39.665C198.379 40.47 199.345 40.93 199.345 41.85C199.345 42.678 198.632 43.115 197.551 43.115C196.194 43.115 194.216 43 192.721 43C191.134 43 189.156 43.115 188.052 43.115C186.787 43.115 186.235 42.609 186.235 41.85C186.235 40.309 188.42 40.378 188.788 37.779C188.995 36.468 189.064 31.109 189.064 26.647C189.064 23.519 189.041 19.149 188.972 18.16C188.673 14.526 186.419 14.733 186.419 12.962C186.419 12.203 186.787 11.605 188.075 11.605C190.398 11.605 191.18 11.72 193.871 11.72C196.401 11.72 198.908 11.559 201.806 11.559C208.43 11.559 212.593 14.227 212.593 19.954C212.593 22.783 211.167 25.911 205.877 27.751C205.739 27.82 205.578 27.912 205.578 28.073C205.578 28.188 205.67 28.349 205.9 28.464C209.074 30.166 211.006 32.926 212.915 36.376C213.835 38.078 214.571 39.274 215.537 40.033C216.434 40.815 216.94 40.93 216.94 41.827C216.94 42.839 216.25 43.115 215.514 43.115C214.548 43.115 212.202 43 211.098 43C209.166 43 207.395 43.115 206.705 43.115C205.578 43.115 204.842 42.517 204.842 41.758C204.842 40.953 205.394 40.654 205.394 39.55C205.394 36.951 202.726 32.42 200.633 30.925C199.713 30.35 198.241 30.212 197.896 30.212C196.723 30.212 196.263 31.04 196.263 32.397ZM227.524 30.258H233.596C234.056 30.258 234.148 30.097 234.148 29.844C234.148 29.154 232.193 23.427 231.089 21.288C230.974 21.035 230.767 20.759 230.629 20.759C230.445 20.759 230.307 21.035 230.169 21.288C229.157 23.312 226.995 29.269 226.995 29.844C226.995 30.097 227.11 30.258 227.524 30.258ZM220.003 36.859L226.995 18.643C227.593 17.01 227.984 15.377 228.191 14.158C228.513 12.571 232.032 11.007 233.527 11.007C234.746 11.007 235.16 11.858 235.597 13.031L244.866 36.905C245.142 37.618 245.694 38.814 246.89 39.849C247.35 40.263 248.086 40.838 248.086 41.574C248.086 42.816 247.189 43.115 245.372 43.115C244.13 43.115 243.003 43 240.841 43C238.679 43 237.483 43.115 236.126 43.115C234.769 43.115 234.125 42.586 234.125 41.689C234.125 40.378 236.839 39.895 236.839 37.802C236.839 37.434 236.264 35.709 235.804 34.881C235.643 34.582 235.275 34.352 234.815 34.352H226.834C226.236 34.352 225.799 34.582 225.523 34.881C225.063 35.571 224.304 37.388 224.304 38.17C224.304 40.194 226.696 40.493 226.696 41.804C226.696 42.54 226.259 43.115 224.764 43.115C223.775 43.115 222.096 43 221.038 43C219.957 43 219.267 43.115 218.255 43.115C217.266 43.115 216.737 42.655 216.737 41.827C216.737 40.378 218.6 40.493 220.003 36.859ZM261.461 14.963C259.231 14.963 257.23 16.182 257.23 18.367C257.23 20.943 260.932 22.093 265.165 23.611C269.903 25.313 274.985 27.728 274.985 33.731C274.985 40.194 270.018 43.759 263.095 43.759C259.599 43.759 256.494 42.678 254.769 42.678C253.895 42.678 253.159 43.069 252.423 43.069C250.79 43.069 250.951 41.643 250.399 38.055C250.031 35.502 249.824 34.582 249.824 33.869C249.824 32.857 250.284 32.259 250.905 32.259C251.894 32.259 252.722 33.731 253.964 35.134C255.873 37.296 259.001 39.274 262.842 39.274C265.464 39.274 267.258 37.94 267.258 35.801C267.258 32.811 263.67 31.799 259.852 30.442C255.344 28.832 250.353 26.67 250.353 20.621C250.353 14.825 254.447 10.938 260.956 10.938C264.222 10.938 266.2 12.042 267.672 12.042C268.684 12.042 269.282 11.559 270.202 11.559C272.019 11.559 271.973 13.33 272.548 16.067C273.238 19.264 273.537 19.954 273.537 20.575C273.537 21.518 272.985 22.024 272.295 22.024C271.052 22.024 270.57 20.621 269.374 19.264C266.545 15.906 263.739 14.963 261.461 14.963ZM140.608 76.403C140.608 72.999 138.216 70.653 134.766 70.653C132.328 70.653 131.868 70.952 131.868 73.758V78.473C131.868 81.532 133.11 82.084 135.617 82.084C138.791 82.084 140.608 79.922 140.608 76.403ZM131.937 87.696V91.008C131.937 93.216 132.995 94.09 134.536 94.757C135.617 95.24 136.583 95.654 136.583 96.597C136.583 97.747 135.594 98.115 134.122 98.115C132.765 98.115 129.798 98 128.303 98C126.716 98 124.738 98.115 123.634 98.115C122.369 98.115 121.817 97.609 121.817 96.85C121.817 95.309 124.002 95.378 124.37 92.779C124.577 91.468 124.646 86.109 124.646 81.647C124.646 78.519 124.623 74.149 124.554 73.16C124.255 69.526 122.001 69.733 122.001 67.962C122.001 67.203 122.369 66.605 123.657 66.605C125.98 66.605 126.762 66.72 129.453 66.72C131.983 66.72 134.697 66.559 137.595 66.559C144.242 66.559 148.566 70.285 148.566 76.012C148.566 81.532 145.116 86.201 137.388 86.201C135.18 86.201 133.984 85.856 133.018 85.856C132.029 85.856 131.937 86.316 131.937 87.696ZM180.29 86.408C180.29 88.6773 179.784 90.732 178.772 92.572C177.79 94.3813 176.288 95.8227 174.264 96.896C172.27 97.9387 169.74 98.46 166.674 98.46C162.319 98.46 159.007 97.356 156.738 95.148C154.468 92.9093 153.334 89.9653 153.334 86.316V65.156H160.28V85.258C160.28 87.9567 160.832 89.858 161.936 90.962C163.04 92.066 164.68 92.618 166.858 92.618C168.391 92.618 169.633 92.3573 170.584 91.836C171.534 91.3147 172.224 90.502 172.654 89.398C173.114 88.294 173.344 86.8987 173.344 85.212V65.156H180.29V86.408ZM176.518 55.496C176.088 55.9253 175.521 56.4467 174.816 57.06C174.11 57.6733 173.344 58.3173 172.516 58.992C171.718 59.6667 170.921 60.3107 170.124 60.924C169.357 61.5067 168.682 61.9973 168.1 62.396H163.546V61.798C164.036 61.2153 164.604 60.5407 165.248 59.774C165.922 58.9767 166.582 58.164 167.226 57.336C167.87 56.4773 168.406 55.7107 168.836 55.036H176.518V55.496ZM187.827 98.115C186.562 98.115 186.01 97.609 186.01 96.85C186.01 95.286 188.195 95.378 188.563 92.779C188.77 91.399 188.839 87.466 188.839 81.647C188.839 76.817 188.793 74.057 188.747 73.16C188.448 69.526 186.194 69.733 186.194 67.962C186.194 67.18 186.631 66.605 187.85 66.605C189.782 66.605 191.99 66.72 193.991 66.72C196.383 66.72 198.729 66.582 201.098 66.582C206.273 66.582 211.77 68.238 211.77 73.988C211.77 77.3 209.148 79.761 207.124 80.589C207.032 80.635 206.894 80.727 206.894 80.865C206.894 81.003 207.032 81.072 207.124 81.095C211.011 82.222 213.909 85.051 213.909 88.823C213.909 96.873 206.986 98.138 201.282 98.138C198.89 98.138 195.394 98 192.956 98C191.185 98 189.552 98.115 187.827 98.115ZM205.813 88.708C205.813 85.971 204.318 84.2 201.949 83.418C200.753 83.027 198.545 82.912 197.096 82.912C196.337 82.912 196.061 83.28 196.061 85.212V91.79C196.061 93.676 196.406 94.067 199.672 94.067C203.766 94.067 205.813 92.342 205.813 88.708ZM196.061 71.734V78.105C196.061 79.048 196.521 79.163 197.579 79.163C199.051 79.163 200.914 78.956 202.041 78.473C203.536 77.852 204.456 76.518 204.456 74.678C204.456 71.435 201.65 70.492 198.384 70.492C196.521 70.492 196.061 70.814 196.061 71.734ZM219.656 81.647C219.656 78.542 219.656 74.149 219.587 73.114C219.288 69.503 217.011 69.71 217.011 67.962C217.011 67.203 217.379 66.605 218.667 66.605C220.07 66.605 221.818 66.72 223.313 66.72C224.854 66.72 227.384 66.605 228.718 66.605C229.937 66.605 230.351 67.203 230.351 67.962C230.351 69.917 227.338 69.549 227.016 73.206C226.901 74.195 226.878 77.507 226.878 81.647V90.985C226.878 93.515 227.798 93.975 230.972 93.975C236.009 93.975 237.343 92.043 238.47 88.869C239.022 87.466 239.505 86.822 240.241 86.822C241.046 86.822 241.391 87.581 241.391 88.8C241.391 90.088 241.023 93.009 240.816 96.275C240.724 97.701 240.195 98.115 238.608 98.115C236.699 98.115 233.203 98 229.201 98C223.06 98 220.116 98.115 218.644 98.115C217.471 98.115 216.827 97.678 216.827 96.85C216.827 95.263 218.966 95.355 219.38 92.779C219.587 91.583 219.656 87.627 219.656 81.647ZM254.596 66.605C255.815 66.605 256.229 67.203 256.229 67.962C256.229 69.733 254.021 69.48 253.699 73.114C253.584 74.126 253.561 77.507 253.561 81.647C253.561 86.822 253.676 91.353 253.86 92.71C254.274 95.355 256.413 95.286 256.413 96.85C256.413 97.54 255.815 98.115 254.596 98.115C253.239 98.115 251.491 98 249.996 98C248.455 98 246.684 98.115 245.327 98.115C244.062 98.115 243.51 97.54 243.51 96.85C243.51 95.286 245.718 95.332 246.086 92.71C246.27 91.445 246.339 86.04 246.339 81.647C246.339 78.542 246.339 74.149 246.27 73.114C245.971 69.503 243.694 69.71 243.694 67.962C243.694 67.203 244.062 66.605 245.35 66.605C246.753 66.605 248.501 66.72 249.996 66.72C251.537 66.72 253.285 66.605 254.596 66.605ZM259.444 82.475C259.444 74.057 264.435 65.938 274.486 65.938C278.028 65.938 279.684 67.042 281.133 67.042C282.168 67.042 282.835 66.559 283.755 66.559C285.526 66.559 285.572 68.33 286.124 71.067C286.722 74.172 287.044 74.931 287.044 75.575C287.044 76.564 286.469 77.024 285.802 77.024C284.583 77.024 283.962 75.621 282.95 74.172C280.834 71.205 278.051 69.503 275.291 69.503C270.208 69.503 267.586 74.264 267.586 79.738C267.586 86.822 271.427 92.549 277.683 92.549C282.007 92.549 284.491 89.789 285.687 87.535C286.101 86.868 286.446 86.316 286.929 86.316C287.596 86.316 287.849 87.236 287.849 87.995C287.849 89.49 287.389 91.192 286.423 92.756C284.445 95.953 280.351 98.782 274.532 98.782C264.826 98.782 259.444 91.1 259.444 82.475ZM299.488 85.258H305.56C306.02 85.258 306.112 85.097 306.112 84.844C306.112 84.154 304.157 78.427 303.053 76.288C302.938 76.035 302.731 75.759 302.593 75.759C302.409 75.759 302.271 76.035 302.133 76.288C301.121 78.312 298.959 84.269 298.959 84.844C298.959 85.097 299.074 85.258 299.488 85.258ZM291.967 91.859L298.959 73.643C299.557 72.01 299.948 70.377 300.155 69.158C300.477 67.571 303.996 66.007 305.491 66.007C306.71 66.007 307.124 66.858 307.561 68.031L316.83 91.905C317.106 92.618 317.658 93.814 318.854 94.849C319.314 95.263 320.05 95.838 320.05 96.574C320.05 97.816 319.153 98.115 317.336 98.115C316.094 98.115 314.967 98 312.805 98C310.643 98 309.447 98.115 308.09 98.115C306.733 98.115 306.089 97.586 306.089 96.689C306.089 95.378 308.803 94.895 308.803 92.802C308.803 92.434 308.228 90.709 307.768 89.881C307.607 89.582 307.239 89.352 306.779 89.352H298.798C298.2 89.352 297.763 89.582 297.487 89.881C297.027 90.571 296.268 92.388 296.268 93.17C296.268 95.194 298.66 95.493 298.66 96.804C298.66 97.54 298.223 98.115 296.728 98.115C295.739 98.115 294.06 98 293.002 98C291.921 98 291.231 98.115 290.219 98.115C289.23 98.115 288.701 97.655 288.701 96.827C288.701 95.378 290.564 95.493 291.967 91.859ZM333.426 69.963C331.195 69.963 329.194 71.182 329.194 73.367C329.194 75.943 332.897 77.093 337.129 78.611C341.867 80.313 346.95 82.728 346.95 88.731C346.95 95.194 341.982 98.759 335.059 98.759C331.563 98.759 328.458 97.678 326.733 97.678C325.859 97.678 325.123 98.069 324.387 98.069C322.754 98.069 322.915 96.643 322.363 93.055C321.995 90.502 321.788 89.582 321.788 88.869C321.788 87.857 322.248 87.259 322.869 87.259C323.858 87.259 324.686 88.731 325.928 90.134C327.837 92.296 330.965 94.274 334.806 94.274C337.428 94.274 339.222 92.94 339.222 90.801C339.222 87.811 335.634 86.799 331.816 85.442C327.308 83.832 322.317 81.67 322.317 75.621C322.317 69.825 326.411 65.938 332.92 65.938C336.186 65.938 338.164 67.042 339.636 67.042C340.648 67.042 341.246 66.559 342.166 66.559C343.983 66.559 343.937 68.33 344.512 71.067C345.202 74.264 345.501 74.954 345.501 75.575C345.501 76.518 344.949 77.024 344.259 77.024C343.017 77.024 342.534 75.621 341.338 74.264C338.509 70.906 335.703 69.963 333.426 69.963Z" fill="#620E31"/>
<path d="M124.976 119.16C124.101 119.16 123.264 119.037 122.464 118.792C121.664 118.536 121.029 118.211 120.56 117.816L121.28 116.2C121.728 116.552 122.283 116.845 122.944 117.08C123.605 117.315 124.283 117.432 124.976 117.432C125.563 117.432 126.037 117.368 126.4 117.24C126.763 117.112 127.029 116.941 127.2 116.728C127.371 116.504 127.456 116.253 127.456 115.976C127.456 115.635 127.333 115.363 127.088 115.16C126.843 114.947 126.523 114.781 126.128 114.664C125.744 114.536 125.312 114.419 124.832 114.312C124.363 114.205 123.888 114.083 123.408 113.944C122.939 113.795 122.507 113.608 122.112 113.384C121.728 113.149 121.413 112.84 121.168 112.456C120.923 112.072 120.8 111.581 120.8 110.984C120.8 110.376 120.96 109.821 121.28 109.32C121.611 108.808 122.107 108.403 122.768 108.104C123.44 107.795 124.288 107.64 125.312 107.64C125.984 107.64 126.651 107.725 127.312 107.896C127.973 108.067 128.549 108.312 129.04 108.632L128.384 110.248C127.883 109.949 127.365 109.731 126.832 109.592C126.299 109.443 125.787 109.368 125.296 109.368C124.72 109.368 124.251 109.437 123.888 109.576C123.536 109.715 123.275 109.896 123.104 110.12C122.944 110.344 122.864 110.6 122.864 110.888C122.864 111.229 122.981 111.507 123.216 111.72C123.461 111.923 123.776 112.083 124.16 112.2C124.555 112.317 124.992 112.435 125.472 112.552C125.952 112.659 126.427 112.781 126.896 112.92C127.376 113.059 127.808 113.24 128.192 113.464C128.587 113.688 128.901 113.992 129.136 114.376C129.381 114.76 129.504 115.245 129.504 115.832C129.504 116.429 129.339 116.984 129.008 117.496C128.688 117.997 128.192 118.403 127.52 118.712C126.848 119.011 126 119.16 124.976 119.16ZM133.487 112.456H139.055V114.168H133.487V112.456ZM133.647 117.256H139.967V119H131.567V107.8H139.743V109.544H133.647V117.256ZM147.469 119.16C146.616 119.16 145.821 119.021 145.085 118.744C144.36 118.456 143.725 118.056 143.181 117.544C142.648 117.021 142.232 116.408 141.933 115.704C141.635 115 141.485 114.232 141.485 113.4C141.485 112.568 141.635 111.8 141.933 111.096C142.232 110.392 142.653 109.784 143.197 109.272C143.741 108.749 144.376 108.349 145.101 108.072C145.827 107.784 146.621 107.64 147.485 107.64C148.403 107.64 149.24 107.8 149.997 108.12C150.755 108.429 151.395 108.893 151.917 109.512L150.573 110.776C150.168 110.339 149.715 110.013 149.213 109.8C148.712 109.576 148.168 109.464 147.581 109.464C146.995 109.464 146.456 109.56 145.965 109.752C145.485 109.944 145.064 110.216 144.701 110.568C144.349 110.92 144.072 111.336 143.869 111.816C143.677 112.296 143.581 112.824 143.581 113.4C143.581 113.976 143.677 114.504 143.869 114.984C144.072 115.464 144.349 115.88 144.701 116.232C145.064 116.584 145.485 116.856 145.965 117.048C146.456 117.24 146.995 117.336 147.581 117.336C148.168 117.336 148.712 117.229 149.213 117.016C149.715 116.792 150.168 116.456 150.573 116.008L151.917 117.288C151.395 117.896 150.755 118.36 149.997 118.68C149.24 119 148.397 119.16 147.469 119.16ZM153.91 119V107.8H158.518C159.51 107.8 160.358 107.96 161.062 108.28C161.777 108.6 162.326 109.059 162.71 109.656C163.094 110.253 163.286 110.963 163.286 111.784C163.286 112.605 163.094 113.315 162.71 113.912C162.326 114.499 161.777 114.952 161.062 115.272C160.358 115.581 159.51 115.736 158.518 115.736H155.062L155.99 114.792V119H153.91ZM161.238 119L158.406 114.936H160.63L163.478 119H161.238ZM155.99 115.016L155.062 114.024H158.422C159.34 114.024 160.028 113.827 160.486 113.432C160.956 113.037 161.19 112.488 161.19 111.784C161.19 111.069 160.956 110.52 160.486 110.136C160.028 109.752 159.34 109.56 158.422 109.56H155.062L155.99 108.536V115.016ZM167.533 112.456H173.101V114.168H167.533V112.456ZM167.693 117.256H174.013V119H165.613V107.8H173.789V109.544H167.693V117.256ZM178.604 119V109.56H174.892V107.8H184.396V109.56H180.684V119H178.604ZM183.811 119L188.851 107.8H190.899L195.955 119H193.779L189.443 108.904H190.275L185.955 119H183.811ZM186.131 116.408L186.691 114.776H192.739L193.299 116.408H186.131ZM197.379 119V107.8H201.987C202.979 107.8 203.827 107.96 204.531 108.28C205.246 108.6 205.795 109.059 206.179 109.656C206.563 110.253 206.755 110.963 206.755 111.784C206.755 112.605 206.563 113.315 206.179 113.912C205.795 114.499 205.246 114.952 204.531 115.272C203.827 115.581 202.979 115.736 201.987 115.736H198.531L199.459 114.792V119H197.379ZM204.707 119L201.875 114.936H204.099L206.947 119H204.707ZM199.459 115.016L198.531 114.024H201.891C202.808 114.024 203.496 113.827 203.955 113.432C204.424 113.037 204.659 112.488 204.659 111.784C204.659 111.069 204.424 110.52 203.955 110.136C203.496 109.752 202.808 109.56 201.891 109.56H198.531L199.459 108.536V115.016ZM209.082 119V107.8H211.162V119H209.082ZM208.778 106.888L210.938 104.696H213.29L210.506 106.888H208.778ZM212.607 119L217.648 107.8H219.696L224.752 119H222.576L218.24 108.904H219.072L214.752 119H212.607ZM214.928 116.408L215.488 114.776H221.536L222.095 116.408H214.928ZM230.598 119V107.8H235.494C236.71 107.8 237.776 108.035 238.694 108.504C239.611 108.973 240.326 109.624 240.838 110.456C241.35 111.288 241.606 112.269 241.606 113.4C241.606 114.52 241.35 115.501 240.838 116.344C240.326 117.176 239.611 117.827 238.694 118.296C237.776 118.765 236.71 119 235.494 119H230.598ZM232.678 117.24H235.398C236.24 117.24 236.966 117.08 237.574 116.76C238.192 116.44 238.667 115.992 238.998 115.416C239.339 114.84 239.51 114.168 239.51 113.4C239.51 112.621 239.339 111.949 238.998 111.384C238.667 110.808 238.192 110.36 237.574 110.04C236.966 109.72 236.24 109.56 235.398 109.56H232.678V117.24ZM245.737 112.456H251.305V114.168H245.737V112.456ZM245.897 117.256H252.217V119H243.817V107.8H251.993V109.544H245.897V117.256ZM264.205 119.16C263.33 119.16 262.525 119.016 261.789 118.728C261.053 118.44 260.413 118.04 259.869 117.528C259.325 117.005 258.904 116.397 258.605 115.704C258.306 115 258.157 114.232 258.157 113.4C258.157 112.568 258.306 111.805 258.605 111.112C258.904 110.408 259.325 109.8 259.869 109.288C260.413 108.765 261.053 108.36 261.789 108.072C262.525 107.784 263.325 107.64 264.189 107.64C265.064 107.64 265.864 107.784 266.589 108.072C267.325 108.36 267.965 108.765 268.509 109.288C269.053 109.8 269.474 110.408 269.773 111.112C270.072 111.805 270.221 112.568 270.221 113.4C270.221 114.232 270.072 115 269.773 115.704C269.474 116.408 269.053 117.016 268.509 117.528C267.965 118.04 267.325 118.44 266.589 118.728C265.864 119.016 265.069 119.16 264.205 119.16ZM264.189 117.336C264.754 117.336 265.277 117.24 265.757 117.048C266.237 116.856 266.653 116.584 267.005 116.232C267.357 115.869 267.629 115.453 267.821 114.984C268.024 114.504 268.125 113.976 268.125 113.4C268.125 112.824 268.024 112.301 267.821 111.832C267.629 111.352 267.357 110.936 267.005 110.584C266.653 110.221 266.237 109.944 265.757 109.752C265.277 109.56 264.754 109.464 264.189 109.464C263.624 109.464 263.101 109.56 262.621 109.752C262.152 109.944 261.736 110.221 261.373 110.584C261.021 110.936 260.744 111.352 260.541 111.832C260.349 112.301 260.253 112.824 260.253 113.4C260.253 113.965 260.349 114.488 260.541 114.968C260.744 115.448 261.021 115.869 261.373 116.232C261.725 116.584 262.141 116.856 262.621 117.048C263.101 117.24 263.624 117.336 264.189 117.336ZM272.426 119V107.8H277.674C279.018 107.8 280.042 108.067 280.746 108.6C281.45 109.123 281.802 109.827 281.802 110.712C281.802 111.309 281.663 111.821 281.386 112.248C281.109 112.664 280.735 112.989 280.266 113.224C279.807 113.448 279.306 113.56 278.762 113.56L279.05 112.984C279.679 112.984 280.245 113.101 280.746 113.336C281.247 113.56 281.642 113.891 281.93 114.328C282.229 114.765 282.378 115.309 282.378 115.96C282.378 116.92 282.01 117.667 281.274 118.2C280.538 118.733 279.445 119 277.994 119H272.426ZM274.506 117.368H277.866C278.645 117.368 279.242 117.24 279.658 116.984C280.074 116.728 280.282 116.317 280.282 115.752C280.282 115.197 280.074 114.792 279.658 114.536C279.242 114.269 278.645 114.136 277.866 114.136H274.346V112.52H277.45C278.175 112.52 278.73 112.392 279.114 112.136C279.509 111.88 279.706 111.496 279.706 110.984C279.706 110.461 279.509 110.072 279.114 109.816C278.73 109.56 278.175 109.432 277.45 109.432H274.506V117.368ZM284.598 119V107.8H289.206C290.198 107.8 291.046 107.96 291.75 108.28C292.464 108.6 293.014 109.059 293.398 109.656C293.782 110.253 293.974 110.963 293.974 111.784C293.974 112.605 293.782 113.315 293.398 113.912C293.014 114.499 292.464 114.952 291.75 115.272C291.046 115.581 290.198 115.736 289.206 115.736H285.75L286.678 114.792V119H284.598ZM291.926 119L289.094 114.936H291.318L294.166 119H291.926ZM286.678 115.016L285.75 114.024H289.11C290.027 114.024 290.715 113.827 291.174 113.432C291.643 113.037 291.878 112.488 291.878 111.784C291.878 111.069 291.643 110.52 291.174 110.136C290.715 109.752 290.027 109.56 289.11 109.56H285.75L286.678 108.536V115.016ZM294.717 119L299.757 107.8H301.805L306.861 119H304.685L300.349 108.904H301.181L296.861 119H294.717ZM297.037 116.408L297.597 114.776H303.645L304.205 116.408H297.037ZM311.757 119.16C310.883 119.16 310.045 119.037 309.245 118.792C308.445 118.536 307.811 118.211 307.341 117.816L308.061 116.2C308.509 116.552 309.064 116.845 309.725 117.08C310.387 117.315 311.064 117.432 311.757 117.432C312.344 117.432 312.819 117.368 313.181 117.24C313.544 117.112 313.811 116.941 313.981 116.728C314.152 116.504 314.237 116.253 314.237 115.976C314.237 115.635 314.115 115.363 313.869 115.16C313.624 114.947 313.304 114.781 312.909 114.664C312.525 114.536 312.093 114.419 311.613 114.312C311.144 114.205 310.669 114.083 310.189 113.944C309.72 113.795 309.288 113.608 308.893 113.384C308.509 113.149 308.195 112.84 307.949 112.456C307.704 112.072 307.581 111.581 307.581 110.984C307.581 110.376 307.741 109.821 308.061 109.32C308.392 108.808 308.888 108.403 309.549 108.104C310.221 107.795 311.069 107.64 312.093 107.64C312.765 107.64 313.432 107.725 314.093 107.896C314.755 108.067 315.331 108.312 315.821 108.632L315.165 110.248C314.664 109.949 314.147 109.731 313.613 109.592C313.08 109.443 312.568 109.368 312.077 109.368C311.501 109.368 311.032 109.437 310.669 109.576C310.317 109.715 310.056 109.896 309.885 110.12C309.725 110.344 309.645 110.6 309.645 110.888C309.645 111.229 309.763 111.507 309.997 111.72C310.243 111.923 310.557 112.083 310.941 112.2C311.336 112.317 311.773 112.435 312.253 112.552C312.733 112.659 313.208 112.781 313.677 112.92C314.157 113.059 314.589 113.24 314.973 113.464C315.368 113.688 315.683 113.992 315.917 114.376C316.163 114.76 316.285 115.245 316.285 115.832C316.285 116.429 316.12 116.984 315.789 117.496C315.469 117.997 314.973 118.403 314.301 118.712C313.629 119.011 312.781 119.16 311.757 119.16ZM322.77 119V107.8H327.378C328.37 107.8 329.218 107.96 329.922 108.28C330.636 108.6 331.186 109.059 331.57 109.656C331.954 110.253 332.146 110.963 332.146 111.784C332.146 112.605 331.954 113.315 331.57 113.912C331.186 114.509 330.636 114.968 329.922 115.288C329.218 115.608 328.37 115.768 327.378 115.768H323.922L324.85 114.792V119H322.77ZM324.85 115.016L323.922 114.008H327.282C328.199 114.008 328.887 113.816 329.346 113.432C329.815 113.037 330.05 112.488 330.05 111.784C330.05 111.069 329.815 110.52 329.346 110.136C328.887 109.752 328.199 109.56 327.282 109.56H323.922L324.85 108.536V115.016ZM339.023 119.16C337.487 119.16 336.282 118.728 335.407 117.864C334.543 117 334.111 115.752 334.111 114.12V107.8H336.191V114.04C336.191 115.192 336.436 116.029 336.927 116.552C337.428 117.075 338.132 117.336 339.039 117.336C339.946 117.336 340.644 117.075 341.135 116.552C341.626 116.029 341.871 115.192 341.871 114.04V107.8H343.919V114.12C343.919 115.752 343.482 117 342.607 117.864C341.743 118.728 340.548 119.16 339.023 119.16ZM337.695 106.888L339.855 104.696H342.207L339.423 106.888H337.695ZM346.832 119V107.8H352.08C353.424 107.8 354.448 108.067 355.152 108.6C355.856 109.123 356.208 109.827 356.208 110.712C356.208 111.309 356.069 111.821 355.792 112.248C355.515 112.664 355.141 112.989 354.672 113.224C354.213 113.448 353.712 113.56 353.168 113.56L353.456 112.984C354.085 112.984 354.651 113.101 355.152 113.336C355.653 113.56 356.048 113.891 356.336 114.328C356.635 114.765 356.784 115.309 356.784 115.96C356.784 116.92 356.416 117.667 355.68 118.2C354.944 118.733 353.851 119 352.4 119H346.832ZM348.912 117.368H352.272C353.051 117.368 353.648 117.24 354.064 116.984C354.48 116.728 354.688 116.317 354.688 115.752C354.688 115.197 354.48 114.792 354.064 114.536C353.648 114.269 353.051 114.136 352.272 114.136H348.752V112.52H351.856C352.581 112.52 353.136 112.392 353.52 112.136C353.915 111.88 354.112 111.496 354.112 110.984C354.112 110.461 353.915 110.072 353.52 109.816C353.136 109.56 352.581 109.432 351.856 109.432H348.912V117.368ZM359.004 119V107.8H361.084V117.24H366.94V119H359.004ZM368.582 119V107.8H370.662V119H368.582ZM378.876 119.16C378.022 119.16 377.228 119.021 376.492 118.744C375.766 118.456 375.132 118.056 374.588 117.544C374.054 117.021 373.638 116.408 373.34 115.704C373.041 115 372.892 114.232 372.892 113.4C372.892 112.568 373.041 111.8 373.34 111.096C373.638 110.392 374.06 109.784 374.604 109.272C375.148 108.749 375.782 108.349 376.508 108.072C377.233 107.784 378.028 107.64 378.892 107.64C379.809 107.64 380.646 107.8 381.404 108.12C382.161 108.429 382.801 108.893 383.324 109.512L381.98 110.776C381.574 110.339 381.121 110.013 380.62 109.8C380.118 109.576 379.574 109.464 378.988 109.464C378.401 109.464 377.862 109.56 377.372 109.752C376.892 109.944 376.47 110.216 376.108 110.568C375.756 110.92 375.478 111.336 375.276 111.816C375.084 112.296 374.988 112.824 374.988 113.4C374.988 113.976 375.084 114.504 375.276 114.984C375.478 115.464 375.756 115.88 376.108 116.232C376.47 116.584 376.892 116.856 377.372 117.048C377.862 117.24 378.401 117.336 378.988 117.336C379.574 117.336 380.118 117.229 380.62 117.016C381.121 116.792 381.574 116.456 381.98 116.008L383.324 117.288C382.801 117.896 382.161 118.36 381.404 118.68C380.646 119 379.804 119.16 378.876 119.16ZM383.498 119L388.538 107.8H390.586L395.642 119H393.466L389.13 108.904H389.962L385.642 119H383.498ZM385.818 116.408L386.378 114.776H392.426L392.986 116.408H385.818ZM400.539 119.16C399.664 119.16 398.827 119.037 398.027 118.792C397.227 118.536 396.592 118.211 396.123 117.816L396.843 116.2C397.291 116.552 397.845 116.845 398.507 117.08C399.168 117.315 399.845 117.432 400.539 117.432C401.125 117.432 401.6 117.368 401.963 117.24C402.325 117.112 402.592 116.941 402.763 116.728C402.933 116.504 403.019 116.253 403.019 115.976C403.019 115.635 402.896 115.363 402.651 115.16C402.405 114.947 402.085 114.781 401.691 114.664C401.307 114.536 400.875 114.419 400.395 114.312C399.925 114.205 399.451 114.083 398.971 113.944C398.501 113.795 398.069 113.608 397.674 113.384C397.291 113.149 396.976 112.84 396.731 112.456C396.485 112.072 396.363 111.581 396.363 110.984C396.363 110.376 396.523 109.821 396.843 109.32C397.173 108.808 397.669 108.403 398.331 108.104C399.003 107.795 399.851 107.64 400.875 107.64C401.547 107.64 402.213 107.725 402.875 107.896C403.536 108.067 404.112 108.312 404.602 108.632L403.947 110.248C403.445 109.949 402.928 109.731 402.395 109.592C401.861 109.443 401.349 109.368 400.859 109.368C400.283 109.368 399.813 109.437 399.451 109.576C399.099 109.715 398.837 109.896 398.667 110.12C398.507 110.344 398.427 110.6 398.427 110.888C398.427 111.229 398.544 111.507 398.779 111.72C399.024 111.923 399.339 112.083 399.723 112.2C400.117 112.317 400.555 112.435 401.035 112.552C401.515 112.659 401.989 112.781 402.459 112.92C402.939 113.059 403.371 113.24 403.755 113.464C404.149 113.688 404.464 113.992 404.699 114.376C404.944 114.76 405.067 115.245 405.067 115.832C405.067 116.429 404.901 116.984 404.571 117.496C404.251 117.997 403.755 118.403 403.083 118.712C402.411 119.011 401.563 119.16 400.539 119.16ZM124.256 139V134.568L124.72 135.848L119.856 127.8H122.08L125.984 134.28H124.736L128.672 127.8H130.72L125.856 135.848L126.336 134.568V139H124.256ZM141.752 139.16C140.877 139.16 140.072 139.016 139.336 138.728C138.6 138.44 137.96 138.04 137.416 137.528C136.872 137.005 136.451 136.397 136.152 135.704C135.853 135 135.704 134.232 135.704 133.4C135.704 132.568 135.853 131.805 136.152 131.112C136.451 130.408 136.872 129.8 137.416 129.288C137.96 128.765 138.6 128.36 139.336 128.072C140.072 127.784 140.872 127.64 141.736 127.64C142.611 127.64 143.411 127.784 144.136 128.072C144.872 128.36 145.512 128.765 146.056 129.288C146.6 129.8 147.021 130.408 147.32 131.112C147.619 131.805 147.768 132.568 147.768 133.4C147.768 134.232 147.619 135 147.32 135.704C147.021 136.408 146.6 137.016 146.056 137.528C145.512 138.04 144.872 138.44 144.136 138.728C143.411 139.016 142.616 139.16 141.752 139.16ZM141.736 137.336C142.301 137.336 142.824 137.24 143.304 137.048C143.784 136.856 144.2 136.584 144.552 136.232C144.904 135.869 145.176 135.453 145.368 134.984C145.571 134.504 145.672 133.976 145.672 133.4C145.672 132.824 145.571 132.301 145.368 131.832C145.176 131.352 144.904 130.936 144.552 130.584C144.2 130.221 143.784 129.944 143.304 129.752C142.824 129.56 142.301 129.464 141.736 129.464C141.171 129.464 140.648 129.56 140.168 129.752C139.699 129.944 139.283 130.221 138.92 130.584C138.568 130.936 138.291 131.352 138.088 131.832C137.896 132.301 137.8 132.824 137.8 133.4C137.8 133.965 137.896 134.488 138.088 134.968C138.291 135.448 138.568 135.869 138.92 136.232C139.272 136.584 139.688 136.856 140.168 137.048C140.648 137.24 141.171 137.336 141.736 137.336ZM149.973 139V127.8H154.581C155.573 127.8 156.421 127.96 157.125 128.28C157.839 128.6 158.389 129.059 158.773 129.656C159.157 130.253 159.349 130.963 159.349 131.784C159.349 132.605 159.157 133.315 158.773 133.912C158.389 134.499 157.839 134.952 157.125 135.272C156.421 135.581 155.573 135.736 154.581 135.736H151.125L152.053 134.792V139H149.973ZM157.301 139L154.469 134.936H156.693L159.541 139H157.301ZM152.053 135.016L151.125 134.024H154.485C155.402 134.024 156.09 133.827 156.549 133.432C157.018 133.037 157.253 132.488 157.253 131.784C157.253 131.069 157.018 130.52 156.549 130.136C156.09 129.752 155.402 129.56 154.485 129.56H151.125L152.053 128.536V135.016ZM161.676 139V127.8H166.572C167.788 127.8 168.855 128.035 169.772 128.504C170.689 128.973 171.404 129.624 171.916 130.456C172.428 131.288 172.684 132.269 172.684 133.4C172.684 134.52 172.428 135.501 171.916 136.344C171.404 137.176 170.689 137.827 169.772 138.296C168.855 138.765 167.788 139 166.572 139H161.676ZM163.756 137.24H166.476C167.319 137.24 168.044 137.08 168.652 136.76C169.271 136.44 169.745 135.992 170.076 135.416C170.417 134.84 170.588 134.168 170.588 133.4C170.588 132.621 170.417 131.949 170.076 131.384C169.745 130.808 169.271 130.36 168.652 130.04C168.044 129.72 167.319 129.56 166.476 129.56H163.756V137.24ZM176.815 132.456H182.383V134.168H176.815V132.456ZM176.975 137.256H183.295V139H174.895V127.8H183.071V129.544H176.975V137.256ZM185.613 139V127.8H187.325L194.349 136.424H193.501V127.8H195.565V139H193.853L186.829 130.376H187.677V139H185.613ZM196.982 139L202.023 127.8H204.071L209.127 139H206.951L202.615 128.904H203.447L199.127 139H196.982ZM199.303 136.408L199.863 134.776H205.911L206.47 136.408H199.303ZM210.551 139V127.8H212.263L217.159 135.976H216.263L221.079 127.8H222.791L222.807 139H220.839L220.823 130.888H221.239L217.143 137.72H216.215L212.055 130.888H212.535V139H210.551ZM225.832 139V127.8H227.912V139H225.832ZM232.862 132.456H238.43V134.168H232.862V132.456ZM233.022 137.256H239.342V139H230.942V127.8H239.118V129.544H233.022V137.256ZM241.66 139V127.8H243.372L250.396 136.424H249.548V127.8H251.612V139H249.9L242.876 130.376H243.724V139H241.66ZM256.885 139V129.56H253.173V127.8H262.677V129.56H258.965V139H256.885ZM269.33 139.16C268.455 139.16 267.65 139.016 266.914 138.728C266.178 138.44 265.538 138.04 264.994 137.528C264.45 137.005 264.029 136.397 263.73 135.704C263.431 135 263.282 134.232 263.282 133.4C263.282 132.568 263.431 131.805 263.73 131.112C264.029 130.408 264.45 129.8 264.994 129.288C265.538 128.765 266.178 128.36 266.914 128.072C267.65 127.784 268.45 127.64 269.314 127.64C270.189 127.64 270.989 127.784 271.714 128.072C272.45 128.36 273.09 128.765 273.634 129.288C274.178 129.8 274.599 130.408 274.898 131.112C275.197 131.805 275.346 132.568 275.346 133.4C275.346 134.232 275.197 135 274.898 135.704C274.599 136.408 274.178 137.016 273.634 137.528C273.09 138.04 272.45 138.44 271.714 138.728C270.989 139.016 270.194 139.16 269.33 139.16ZM269.314 137.336C269.879 137.336 270.402 137.24 270.882 137.048C271.362 136.856 271.778 136.584 272.13 136.232C272.482 135.869 272.754 135.453 272.946 134.984C273.149 134.504 273.25 133.976 273.25 133.4C273.25 132.824 273.149 132.301 272.946 131.832C272.754 131.352 272.482 130.936 272.13 130.584C271.778 130.221 271.362 129.944 270.882 129.752C270.402 129.56 269.879 129.464 269.314 129.464C268.749 129.464 268.226 129.56 267.746 129.752C267.277 129.944 266.861 130.221 266.498 130.584C266.146 130.936 265.869 131.352 265.666 131.832C265.474 132.301 265.378 132.824 265.378 133.4C265.378 133.965 265.474 134.488 265.666 134.968C265.869 135.448 266.146 135.869 266.498 136.232C266.85 136.584 267.266 136.856 267.746 137.048C268.226 137.24 268.749 137.336 269.314 137.336ZM284.245 139V129.56H280.533V127.8H290.037V129.56H286.325V139H284.245ZM293.518 132.456H299.086V134.168H293.518V132.456ZM293.678 137.256H299.998V139H291.598V127.8H299.774V129.544H293.678V137.256ZM302.317 139V127.8H306.925C307.917 127.8 308.765 127.96 309.469 128.28C310.183 128.6 310.733 129.059 311.117 129.656C311.501 130.253 311.693 130.963 311.693 131.784C311.693 132.605 311.501 133.315 311.117 133.912C310.733 134.499 310.183 134.952 309.469 135.272C308.765 135.581 307.917 135.736 306.925 135.736H303.469L304.397 134.792V139H302.317ZM309.645 139L306.813 134.936H309.036L311.885 139H309.645ZM304.397 135.016L303.469 134.024H306.829C307.746 134.024 308.434 133.827 308.892 133.432C309.362 133.037 309.597 132.488 309.597 131.784C309.597 131.069 309.362 130.52 308.892 130.136C308.434 129.752 307.746 129.56 306.829 129.56H303.469L304.397 128.536V135.016ZM314.02 139V127.8H318.628C319.62 127.8 320.468 127.96 321.172 128.28C321.886 128.6 322.436 129.059 322.82 129.656C323.204 130.253 323.396 130.963 323.396 131.784C323.396 132.605 323.204 133.315 322.82 133.912C322.436 134.499 321.886 134.952 321.172 135.272C320.468 135.581 319.62 135.736 318.628 135.736H315.172L316.1 134.792V139H314.02ZM321.348 139L318.516 134.936H320.74L323.588 139H321.348ZM316.1 135.016L315.172 134.024H318.532C319.449 134.024 320.137 133.827 320.596 133.432C321.065 133.037 321.3 132.488 321.3 131.784C321.3 131.069 321.065 130.52 320.596 130.136C320.137 129.752 319.449 129.56 318.532 129.56H315.172L316.1 128.536V135.016ZM325.723 139V127.8H327.803V139H325.723ZM333.104 139V129.56H329.392V127.8H338.896V129.56H335.184V139H333.104ZM345.549 139.16C344.674 139.16 343.869 139.016 343.133 138.728C342.397 138.44 341.757 138.04 341.213 137.528C340.669 137.005 340.248 136.397 339.949 135.704C339.65 135 339.501 134.232 339.501 133.4C339.501 132.568 339.65 131.805 339.949 131.112C340.248 130.408 340.669 129.8 341.213 129.288C341.757 128.765 342.397 128.36 343.133 128.072C343.869 127.784 344.669 127.64 345.533 127.64C346.408 127.64 347.208 127.784 347.933 128.072C348.669 128.36 349.309 128.765 349.853 129.288C350.397 129.8 350.818 130.408 351.117 131.112C351.416 131.805 351.565 132.568 351.565 133.4C351.565 134.232 351.416 135 351.117 135.704C350.818 136.408 350.397 137.016 349.853 137.528C349.309 138.04 348.669 138.44 347.933 138.728C347.208 139.016 346.413 139.16 345.549 139.16ZM345.533 137.336C346.098 137.336 346.621 137.24 347.101 137.048C347.581 136.856 347.997 136.584 348.349 136.232C348.701 135.869 348.973 135.453 349.165 134.984C349.368 134.504 349.469 133.976 349.469 133.4C349.469 132.824 349.368 132.301 349.165 131.832C348.973 131.352 348.701 130.936 348.349 130.584C347.997 130.221 347.581 129.944 347.101 129.752C346.621 129.56 346.098 129.464 345.533 129.464C344.968 129.464 344.445 129.56 343.965 129.752C343.496 129.944 343.08 130.221 342.717 130.584C342.365 130.936 342.088 131.352 341.885 131.832C341.693 132.301 341.597 132.824 341.597 133.4C341.597 133.965 341.693 134.488 341.885 134.968C342.088 135.448 342.365 135.869 342.717 136.232C343.069 136.584 343.485 136.856 343.965 137.048C344.445 137.24 344.968 137.336 345.533 137.336ZM353.77 139V127.8H358.378C359.37 127.8 360.218 127.96 360.922 128.28C361.636 128.6 362.186 129.059 362.57 129.656C362.954 130.253 363.146 130.963 363.146 131.784C363.146 132.605 362.954 133.315 362.57 133.912C362.186 134.499 361.636 134.952 360.922 135.272C360.218 135.581 359.37 135.736 358.378 135.736H354.922L355.85 134.792V139H353.77ZM361.098 139L358.266 134.936H360.49L363.338 139H361.098ZM355.85 135.016L354.922 134.024H358.282C359.199 134.024 359.887 133.827 360.346 133.432C360.815 133.037 361.05 132.488 361.05 131.784C361.05 131.069 360.815 130.52 360.346 130.136C359.887 129.752 359.199 129.56 358.282 129.56H354.922L355.85 128.536V135.016ZM365.473 139V127.8H367.553V139H365.473ZM368.998 139L374.038 127.8H376.086L381.142 139H378.966L374.63 128.904H375.462L371.142 139H368.998ZM371.318 136.408L371.878 134.776H377.926L378.486 136.408H371.318ZM382.567 139V127.8H384.647V137.24H390.503V139H382.567Z" fill="#6B7071"/>
<path d="M23.1228 111.685C22.9625 111.621 22.9145 109.324 22.9145 100.908V90.1952L23.5234 89.617C23.8439 89.2958 24.1964 88.9424 24.3086 88.83C24.4047 88.7176 24.629 88.4927 24.8053 88.316C24.9816 88.1394 25.1899 87.9306 25.254 87.8503C25.3341 87.7699 25.6225 87.4969 25.8789 87.2399C26.1513 86.9829 26.4398 86.6938 26.5199 86.5975C26.616 86.5011 27.1128 85.9871 27.6416 85.4571C28.1704 84.9271 28.6831 84.4292 28.7633 84.3328C28.8594 84.2525 29.1478 83.9634 29.4042 83.7064C29.6766 83.4494 29.9651 83.1603 30.0612 83.0479C30.1734 82.9354 30.3977 82.7106 30.574 82.5339C30.7502 82.3572 30.9586 82.1484 31.0387 82.0681C31.1028 81.9878 31.3912 81.7148 31.6476 81.4578C31.92 81.2008 32.2245 80.8956 32.3366 80.7672C33.3301 79.7071 34.7402 78.4222 34.8364 78.5025C34.8845 78.5507 34.9325 83.5297 34.9325 89.5528V100.507L34.3717 101.085C34.0512 101.422 33.7307 101.679 33.6506 101.679C33.5705 101.679 33.4743 101.824 33.4102 102C33.3622 102.177 33.1058 102.434 32.8494 102.579C32.609 102.739 32.3206 103.012 32.2245 103.221C32.1443 103.414 31.8559 103.703 31.5835 103.864C31.3111 104.024 31.0867 104.249 31.0867 104.361C31.0867 104.474 30.8304 104.731 30.5259 104.924C30.2214 105.132 29.9651 105.373 29.9651 105.486C29.9651 105.582 29.6766 105.871 29.3241 106.128C28.9716 106.369 28.6831 106.642 28.6831 106.706C28.6831 106.883 27.3531 108.184 26.8404 108.521C26.616 108.666 26.4398 108.875 26.4398 109.003C26.4398 109.116 26.1513 109.405 25.7988 109.662C25.4463 109.903 25.1578 110.192 25.1578 110.304C25.1578 110.401 24.9175 110.641 24.613 110.818C24.3246 111.011 24.0361 111.3 23.9881 111.477C23.908 111.782 23.5554 111.862 23.1228 111.685Z" fill="#9B2149"/>
<path d="M76.9157 110.995C76.5151 110.545 76.0984 110.095 75.9702 109.983C74.8005 108.907 71.3072 105.325 71.3072 105.213C71.3072 105.116 71.2271 105.052 71.147 105.052C71.0509 105.052 70.0093 104.088 68.8235 102.9C67.157 101.245 66.6602 100.651 66.6602 100.33C66.6602 99.7036 67.1089 99.8 67.814 100.587C68.1505 100.956 68.4229 101.326 68.4229 101.39C68.4229 101.454 68.519 101.519 68.6472 101.519C68.7754 101.519 69.0158 101.743 69.176 102C69.3202 102.273 69.5766 102.514 69.7209 102.563C69.849 102.611 70.0574 102.82 70.1695 103.012C70.2817 103.221 70.5701 103.51 70.8105 103.655C71.0509 103.799 71.3393 104.088 71.4675 104.313C71.5796 104.538 71.7399 104.731 71.804 104.731C71.9001 104.731 73.4064 106.192 74.0634 106.915C74.2076 107.092 74.8005 107.686 75.3774 108.248C75.9542 108.81 76.4349 109.324 76.4349 109.389C76.4349 109.453 76.5792 109.549 76.7554 109.597C76.9317 109.646 77.0759 109.774 77.0759 109.903C77.0759 110.015 77.2201 110.208 77.3964 110.32L77.7169 110.513L77.6848 100.378C77.6528 92.4278 77.5887 90.2113 77.4445 90.147C77.2362 90.0828 77.14 88.9906 77.3323 88.9906C77.3804 88.9906 77.7009 89.2636 78.0534 89.5849L78.6783 90.1791V100.715C78.6623 111.846 78.6783 111.798 77.9412 111.798C77.781 111.798 77.3163 111.428 76.9157 110.995Z" fill="#9B2149"/>
<path d="M36.6471 98.2581C36.5349 97.9208 36.5029 81.4096 36.6311 78.8077C36.7112 76.816 36.7913 76.2539 36.9996 76.0772C37.256 75.8363 37.7848 75.3063 38.1053 74.985C38.2976 74.7762 39.1789 73.8929 39.3872 73.7001C39.6276 73.4753 40.2205 72.8649 40.3487 72.7204C40.4128 72.6561 40.6852 72.3991 40.9416 72.1422C41.214 71.8852 41.5184 71.58 41.6306 71.4515C41.871 71.2106 43.6817 69.3796 43.874 69.2029C44.0983 68.9781 45.909 67.1631 46.0693 66.9864C46.1654 66.9061 46.4539 66.617 46.7102 66.36C46.9826 66.1031 47.2711 65.814 47.3512 65.7176C47.6877 65.3482 48.4248 64.7218 48.4889 64.77C48.521 64.8021 48.569 69.7008 48.6171 75.6596C48.6972 87.513 48.7293 87.0793 47.7518 87.6575C47.4954 87.8021 47.2711 88.0269 47.2711 88.1394C47.2711 88.2518 47.0147 88.5088 46.7102 88.7015C46.4058 88.9103 46.1494 89.1673 46.1494 89.2797C46.1494 89.3922 45.893 89.6331 45.5886 89.8098C45.2841 89.9864 44.9957 90.2755 44.9476 90.4522C44.8995 90.6128 44.6431 90.8698 44.4028 91.0144C44.1624 91.1589 43.906 91.432 43.8099 91.6086C43.7298 91.8014 43.4573 92.0584 43.201 92.1869C42.9446 92.2993 42.7042 92.5402 42.6722 92.7008C42.6241 92.8614 42.3357 93.1505 42.0472 93.3433C41.7428 93.52 41.5024 93.7769 41.5024 93.9054C41.5024 94.0179 41.246 94.2909 40.9416 94.4836C40.6371 94.6924 40.3807 94.9494 40.3807 95.0619C40.3807 95.1743 40.1243 95.4152 39.8199 95.5919C39.5154 95.7686 39.227 96.0577 39.1789 96.2183C39.1308 96.395 38.8424 96.668 38.554 96.8607C38.2495 97.0374 37.9771 97.3105 37.9451 97.4711C37.8329 97.8565 36.7432 98.5151 36.6471 98.2581Z" fill="#9B2149"/>
<path d="M58.4239 92.4759C53.168 87.2078 52.6071 86.5974 52.6712 86.212C52.7674 85.7141 53.3122 85.6016 53.4724 86.0513C53.5365 86.1959 53.6968 86.4368 53.825 86.5814C53.9692 86.7259 54.1935 86.999 54.3217 87.1917C54.4499 87.3844 54.6101 87.5451 54.6582 87.5451C54.7704 87.5451 56.4529 89.2155 58.3598 91.2071C58.5681 91.4159 58.8725 91.705 59.0328 91.8495C60.0263 92.7329 60.5711 93.4396 60.5711 93.8733C60.5711 94.2266 60.6352 94.2909 61.0198 94.2909C61.3563 94.2909 61.7088 94.5157 62.3818 95.1903C62.8786 95.6722 63.2952 96.1379 63.3272 96.2022C63.4234 96.411 64.3848 97.0213 64.6412 97.0213C64.7854 97.0213 64.8976 97.1498 64.8976 97.3104C64.8976 97.8405 64.7053 98.3062 64.481 98.3062C64.3688 98.3062 61.6447 95.6882 58.4239 92.4759Z" fill="#9B2149"/>
<path d="M99.9904 88.8942C99.8622 88.8621 95.2633 88.8139 89.767 88.7979C80.4089 88.7497 79.7679 88.7336 79.6237 88.4606C79.5276 88.316 79.3673 88.1072 79.2712 88.0269C79.159 87.9306 78.9347 87.7378 78.7424 87.5772C78.5661 87.4326 78.3258 87.1435 78.2136 86.9508C78.1175 86.742 77.9412 86.5814 77.829 86.5814C77.6047 86.5814 77.0759 86.0192 77.0759 85.7783C77.0759 85.698 76.8836 85.5374 76.6433 85.425C76.4029 85.3125 76.0984 85.0074 75.9863 84.7664C75.8741 84.5255 75.6978 84.3328 75.6017 84.3328C75.5216 84.3328 75.0088 83.8831 74.496 83.337C73.9672 82.7748 73.4705 82.2609 73.3743 82.1645C73.2942 82.0842 72.7814 81.5863 72.2526 81.0723C71.7399 80.5583 71.3072 80.0604 71.3072 79.9962C71.3072 79.9159 71.1149 79.7553 70.8746 79.6428C70.6342 79.5304 70.3298 79.2252 70.2176 78.9843C70.1054 78.7434 69.9452 78.5507 69.8811 78.5507C69.6888 78.5507 68.9677 77.86 68.7754 77.5067C68.6633 77.2657 68.6633 77.1051 68.8235 76.8963C68.9998 76.6394 69.7369 76.6233 79.4314 76.6233C88.5011 76.6233 89.8792 76.6554 90.0554 76.8642C90.1676 76.9927 90.424 77.1051 90.6323 77.1051C90.8887 77.1051 91.081 77.2657 91.2572 77.587C91.4014 77.86 91.6098 78.0688 91.7379 78.0688C91.8822 78.0688 92.1866 78.3579 92.427 78.7113C92.6673 79.0486 92.9077 79.3377 92.9718 79.3537C93.1 79.3537 94.7024 80.9278 94.7024 81.0563C94.7024 81.2008 95.087 81.5381 95.3914 81.6505C95.5357 81.6987 95.744 81.9236 95.8401 82.1324C95.9363 82.3412 96.2087 82.6303 96.449 82.7748C96.6894 82.9194 96.9778 83.2085 97.106 83.4333C97.2182 83.6582 97.3784 83.8509 97.4425 83.8509C97.5387 83.8509 98.9488 85.2162 99.5257 85.8747C99.6859 86.0514 99.9743 86.3405 100.167 86.5171C100.888 87.1596 101.224 87.6254 101.304 88.0912C101.384 88.4766 101.32 88.573 100.856 88.7657C100.567 88.8942 100.295 88.9745 100.279 88.9745C100.247 88.9585 100.119 88.9264 99.9904 88.8942Z" fill="#9B2149"/>
<path d="M0 88.043C0 87.9466 9.83879 78.0046 11.0726 76.8642C11.281 76.6554 12.8513 76.6233 21.9049 76.6233C31.3592 76.6233 32.5129 76.6554 32.593 76.8803C32.6411 77.0088 32.7533 77.0891 32.8334 77.0248C32.9135 76.9766 33.0417 77.0248 33.0898 77.1212C33.1539 77.2176 32.8975 77.587 32.5129 77.9564L31.8078 78.5988L31.7598 78.1009L31.7117 77.587H21.5684H11.4252L9.27795 79.7553C8.09217 80.9438 7.03458 81.9236 6.93843 81.9236C6.82626 81.9236 6.73012 82.0039 6.73012 82.1163C6.73012 82.3412 4.95145 84.1722 4.72711 84.1722C4.63096 84.1722 4.48675 84.3328 4.40663 84.5416C4.31048 84.7343 4.08614 84.9592 3.89386 85.0556C3.68554 85.1359 3.5253 85.2804 3.5253 85.3768C3.5253 85.4571 2.91639 86.1317 2.17928 86.8705C1.18578 87.8502 0.737108 88.1875 0.416626 88.1875C0.192289 88.1875 0 88.1233 0 88.043Z" fill="#9B2149"/>
<path d="M74.3838 87.0632C74.1595 86.8383 74.0313 86.5332 74.0313 86.1798V85.6337L74.5441 86.1156C74.8325 86.3726 75.2331 86.758 75.4414 86.9829L75.81 87.3844H75.2652C74.9447 87.3844 74.5922 87.2559 74.3838 87.0632Z" fill="#9B2149"/>
<path d="M71.6277 84.124C71.6277 84.0276 71.4194 83.8349 71.147 83.7224C70.7464 83.5458 70.6663 83.4173 70.6663 82.9515C70.6663 82.4696 70.6983 82.4215 70.9547 82.55C71.0989 82.6303 71.5796 83.08 72.0123 83.5136L72.7975 84.3328H72.2206C71.852 84.3328 71.6277 84.2525 71.6277 84.124Z" fill="#9B2149"/>
<path d="M68.6152 81.2811C68.4229 81.0884 68.2626 80.7993 68.2626 80.6387C68.2626 80.4299 68.1505 80.3174 67.9742 80.3174C67.814 80.3174 67.4614 80.1086 67.173 79.8356C66.7243 79.4341 66.6602 79.2895 66.7724 78.888L66.9006 78.4222L68.487 80.0123L70.0894 81.6023H69.5285C69.176 81.6023 68.8235 81.4739 68.6152 81.2811Z" fill="#9B2149"/>
<path d="M72.7494 74.8565L66.0834 74.7762L65.5386 74.2462C63.167 71.9976 62.0133 70.8251 62.0133 70.7126C62.0133 70.6323 61.837 70.4878 61.6127 70.3914C61.4043 70.295 61.1159 69.9899 60.9717 69.7168C60.8435 69.4598 60.6192 69.235 60.507 69.235C60.3948 69.235 60.1545 69.0422 59.9942 68.8174C59.834 68.5765 59.5936 68.3034 59.4814 68.2071C59.1129 67.9019 58.7443 67.5325 58.4719 67.2112C58.3277 67.0506 58.0553 66.7936 57.8951 66.6652C57.7188 66.5367 57.4945 66.2636 57.3823 66.0709C57.2861 65.8621 57.0939 65.7015 56.9657 65.7015C56.8535 65.7015 56.5971 65.4445 56.4048 65.1393C56.2125 64.8341 55.9882 64.5772 55.9081 64.5772C55.6837 64.5772 55.1229 64.0471 55.1229 63.8223C55.1229 63.6938 54.9466 63.5171 54.7223 63.4207C53.6487 62.9389 54.4339 62.8907 65.4905 62.8425C76.483 62.8104 76.5471 62.8104 76.9798 63.1477C77.2041 63.3244 77.3964 63.5653 77.3964 63.6777C77.3964 63.7902 77.5727 63.9829 77.797 64.0953C78.0213 64.2238 78.3578 64.5611 78.5341 64.8502C78.7104 65.1393 78.9667 65.3802 79.0949 65.3802C79.2231 65.3802 79.4795 65.6372 79.6558 65.9424C79.8481 66.2476 80.0724 66.5045 80.1686 66.5045C80.3608 66.5045 82.2036 68.4159 82.2036 68.6246C82.2036 68.6889 82.2837 68.7531 82.3959 68.7531C82.5882 68.7531 83.4855 69.7008 83.4855 69.9096C83.4855 69.9738 83.5496 70.0381 83.6458 70.0381C83.8381 70.0381 85.7289 71.9494 85.7289 72.1582C85.7289 72.2224 85.809 72.2867 85.9052 72.2867C86.0975 72.2867 87.9723 74.198 87.9723 74.4068C87.9723 74.471 88.0845 74.5353 88.2127 74.5353C88.5492 74.5353 88.5171 74.8565 88.1806 74.8726C87.2672 74.9368 78.438 74.9207 72.7494 74.8565Z" fill="#9B2149"/>
<path d="M13.3961 74.5032C13.5564 74.3104 16.2484 71.596 19.3411 68.4801C23.7798 64.0311 25.0777 62.8104 25.3982 62.8104C25.6866 62.8104 25.7988 62.8907 25.7988 63.1317C25.7988 63.3083 25.7027 63.4529 25.5905 63.4529C25.4783 63.4529 25.3021 63.5974 25.1899 63.7741C25.0777 63.9508 24.8854 64.0953 24.7572 64.0953C24.629 64.0953 24.5169 64.1917 24.5169 64.3041C24.5169 64.5611 23.6836 65.3803 23.4272 65.3803C23.3151 65.3803 23.2349 65.4606 23.2349 65.5409C23.2349 65.7979 22.2575 66.8258 22.0011 66.8258C21.8889 66.8258 21.7928 66.9222 21.7928 67.0346C21.7928 67.2594 20.1263 68.9138 19.918 68.9138C19.8378 68.9138 19.7096 69.0744 19.6295 69.2832C19.5334 69.4759 19.309 69.7008 19.1168 69.7972C18.9084 69.8775 18.7482 70.0381 18.7482 70.1344C18.7482 70.3593 17.8989 71.1624 17.6586 71.1624C17.5464 71.1624 17.4663 71.2266 17.4663 71.323C17.4663 71.5639 16.7933 72.2867 16.5529 72.2867C16.4407 72.2867 16.3446 72.367 16.3446 72.4634C16.3446 72.5597 15.8639 73.1379 15.271 73.7483C14.3416 74.6959 14.1012 74.8565 13.6365 74.8565H13.0917L13.3961 74.5032Z" fill="#9B2149"/>
<path d="M62.1735 74.6316C62.1735 74.5031 61.9972 74.3586 61.7729 74.3104C61.3563 74.198 61.148 73.7161 61.2441 73.1058C61.2922 72.8006 61.4364 72.897 62.3337 73.8125L63.3593 74.8565H62.7664C62.3658 74.8565 62.1735 74.7762 62.1735 74.6316Z" fill="#9B2149"/>
<path d="M57.0137 69.7008C56.8535 69.6205 56.7253 69.3956 56.7253 69.235C56.7253 69.0583 56.6452 68.9138 56.549 68.9138C56.4529 68.9138 56.2766 68.8174 56.1645 68.7211C56.0363 68.6086 55.828 68.4159 55.6837 68.3035C55.5555 68.191 55.4434 67.8377 55.4434 67.5164V66.9382L56.4529 67.8859C56.9977 68.3998 57.6547 69.0744 57.8951 69.3635L58.3598 69.8775H57.8149C57.5265 69.8775 57.158 69.7972 57.0137 69.7008Z" fill="#9B2149"/>
<path d="M52.7193 65.9103C52.7193 65.2518 52.8955 64.7378 53.1038 64.7378C53.216 64.7378 53.5365 64.9948 53.841 65.2999L54.3858 65.8621H53.9531C53.6807 65.8621 53.5205 65.9424 53.5205 66.103C53.5205 66.2476 53.3763 66.3439 53.1199 66.3439C52.7834 66.3439 52.7193 66.2636 52.7193 65.9103Z" fill="#9B2149"/>
<path d="M24.5008 58.4899C24.2765 58.2651 24.0361 57.9438 23.9881 57.7832C23.924 57.6387 23.6996 57.4299 23.4913 57.3496C23.267 57.2692 22.9786 56.9801 22.8343 56.7071C22.7061 56.4501 22.4818 56.2252 22.3376 56.2252C22.2094 56.2252 21.953 55.9683 21.7767 55.6631C21.6005 55.3579 21.3121 55.0688 21.1358 55.0206C20.9755 54.9725 20.7192 54.7315 20.5749 54.4906C20.4467 54.2497 20.1102 53.9285 19.8539 53.7839C19.5975 53.6233 19.3892 53.3984 19.3892 53.2699C19.3892 53.1254 19.1808 52.9166 18.9084 52.772C18.6521 52.6435 18.3155 52.3063 18.1874 52.0493C18.0431 51.7762 17.8348 51.5674 17.6906 51.5674C17.5624 51.5674 17.306 51.3104 17.1298 51.0053C16.9535 50.7001 16.6651 50.411 16.4888 50.3628C16.3286 50.2986 16.0722 50.0577 15.96 49.8167C15.8318 49.5758 15.5434 49.3028 15.319 49.1903C15.0787 49.094 14.8223 48.8209 14.7101 48.5961C14.614 48.3873 14.4057 48.1624 14.2454 48.1142C13.973 48.0178 13.3 47.2308 13.3 47.006C13.3 46.9578 18.2995 46.9096 24.4047 46.9096H35.4934L36.7753 48.1945C37.4804 48.9173 38.7783 50.1861 39.6436 51.0535C40.5249 51.9047 41.3101 52.7078 41.4063 52.8363C41.5024 52.9487 42.0152 53.4627 42.528 53.9606C43.0567 54.4585 43.5535 54.9564 43.6496 55.0688C44.0502 55.5667 45.6527 57.1889 45.7328 57.1889C45.8449 57.1889 47.1749 58.6184 47.239 58.8111C47.2711 58.8915 42.5921 58.9557 36.1023 58.9396L24.9175 58.9236L24.5008 58.4899Z" fill="#9B2149"/>
<path d="M75.794 58.6505C75.794 58.4739 75.8741 58.2811 75.9702 58.2329C76.0504 58.1687 76.1946 57.9438 76.2747 57.735C76.3708 57.5102 76.5631 57.3496 76.7394 57.3496C76.9317 57.3496 77.14 57.1408 77.3002 56.8035C77.4765 56.418 77.7008 56.2253 78.0213 56.145C78.3899 56.0646 78.5181 55.9201 78.5982 55.5667C78.6623 55.2616 78.8546 55.0206 79.0789 54.9403C79.2872 54.86 79.5436 54.587 79.6718 54.3461C79.816 54.057 80.0243 53.8803 80.2967 53.8482C80.6172 53.816 80.7614 53.6715 80.8576 53.286C80.9698 52.9166 81.146 52.7399 81.5146 52.6275C81.8992 52.5311 82.0434 52.3866 82.0754 52.0653C82.1075 51.7762 82.2357 51.6317 82.476 51.5996C82.6843 51.5674 82.9247 51.3265 83.0689 51.0053C83.2131 50.7001 83.5336 50.3628 83.758 50.2504C83.9983 50.138 84.2867 49.8649 84.3829 49.6561C84.4951 49.4473 84.7354 49.2064 84.9437 49.094C85.152 48.9976 85.4245 48.7085 85.5366 48.4676C85.6808 48.1785 85.8731 48.0339 86.1135 48.0339C86.3859 48.0339 86.5141 47.9054 86.6263 47.52C86.7705 47.022 86.8346 46.9899 87.6037 46.9417L88.437 46.8936L86.2096 49.1422C84.9758 50.395 83.9022 51.4068 83.806 51.4068C83.7259 51.4068 83.6458 51.4711 83.6458 51.5514C83.6458 51.7602 77.7489 57.6708 77.5566 57.6708C77.4605 57.6708 77.3964 57.7511 77.3964 57.8635C77.3964 57.976 77.2041 58.2651 76.9637 58.506C76.451 59.036 75.794 59.1163 75.794 58.6505Z" fill="#9B2149"/>
<path d="M52.9917 56.948C52.7193 56.7553 52.7033 56.1289 52.7193 46.3153C52.7193 40.5975 52.7513 35.7469 52.7834 35.5542C52.8955 34.976 53.3442 34.2532 53.6487 34.1568C53.8089 34.1086 54.0653 33.8356 54.2255 33.5625C54.3858 33.3056 54.6902 33.0004 54.8986 32.904C55.1069 32.8077 55.3152 32.5989 55.3793 32.4222C55.4273 32.2616 55.6677 32.0206 55.9081 31.9082C56.1484 31.7797 56.4208 31.4906 56.533 31.2658C56.6292 31.0248 56.9016 30.7679 57.1259 30.6554C57.3502 30.5591 57.5265 30.4145 57.5265 30.3503C57.5265 30.2699 58.2476 29.5151 59.1289 28.6477C59.9942 27.7804 60.7954 26.9934 60.9076 26.881C61.0037 26.7846 61.7088 26.0458 62.494 25.2588C64.0643 23.6526 64.4329 23.3796 64.7053 23.6526C64.9457 23.8935 64.9777 44.7574 64.7534 45.3356C64.5771 45.7692 63.2311 47.2308 62.9907 47.2308C62.9106 47.2308 62.7023 47.4396 62.5581 47.6966C62.3978 47.9536 62.1094 48.2427 61.9011 48.3391C61.7088 48.4355 61.5325 48.58 61.5325 48.6442C61.5325 48.853 60.7794 49.6401 60.5871 49.6401C60.491 49.6401 60.3307 49.8007 60.2346 49.9934C59.9942 50.4592 59.7699 50.668 59.4173 50.8125C59.2571 50.8607 59.1289 50.9732 59.1289 51.0535C59.1289 51.2462 54.9787 55.4222 54.7864 55.4222C54.7063 55.4222 54.562 55.5989 54.4659 55.8077C54.3698 56.0165 54.1134 56.2895 53.889 56.4019C53.6647 56.5304 53.4404 56.7392 53.3763 56.8998C53.2961 57.1247 53.232 57.1247 52.9917 56.948Z" fill="#9B2149"/>
<path d="M10.656 44.5486C10.4477 44.4362 10.2234 44.1952 10.1753 44.0186C10.1112 43.8419 9.85483 43.5849 9.59844 43.4403C9.34205 43.3119 9.0376 43.0227 8.94145 42.814C8.84531 42.5891 8.70109 42.4124 8.63699 42.4124C8.44471 42.4124 6.56989 40.5493 6.56989 40.3565C6.56989 40.2602 6.36157 40.0674 6.08916 39.9229C5.83278 39.7783 5.60844 39.5695 5.60844 39.425C5.60844 39.2965 5.35205 39.0395 5.0476 38.8628C4.74314 38.6862 4.4547 38.3971 4.40663 38.2204C4.34254 38.0598 4.08615 37.8028 3.82977 37.6582C3.57338 37.5297 3.28495 37.2406 3.20483 37.0158C3.1247 36.807 2.86832 36.55 2.64398 36.4697C2.41964 36.3894 2.17928 36.1806 2.13121 36.036C2.00302 35.6827 1.82675 35.506 1.24989 35.1366C0.9935 34.976 0.801211 34.7672 0.801211 34.6547C0.801211 34.5423 0.656994 34.3335 0.480729 34.1729C0.0480783 33.8035 0.0801265 33.4501 0.576873 33.0004L0.977476 32.6149H11.1047H21.248L23.8118 35.1687C25.238 36.5821 26.5199 37.9152 26.6641 38.1401C26.8083 38.3649 26.9846 38.5577 27.0647 38.5577C27.241 38.5577 32.1123 43.4564 32.4488 43.9543C32.577 44.1631 32.8013 44.3398 32.9455 44.3398C33.0898 44.3398 33.1699 44.4362 33.1218 44.5486C33.0257 44.8377 11.2169 44.8377 10.656 44.5486Z" fill="#9B2149"/>
<path d="M90.8566 43.7776C90.8566 43.4725 90.9207 43.2155 91.0008 43.2155C91.081 43.2155 91.2252 43.0067 91.3213 42.7336C91.4014 42.4606 91.5937 42.2518 91.738 42.2518C92.0745 42.2518 92.459 41.8663 92.459 41.5451C92.459 41.4166 92.6994 41.1917 93.0039 41.0472C93.3404 40.8866 93.5807 40.6457 93.6128 40.4369C93.6448 40.2441 93.8692 39.9871 94.1095 39.8747C94.3499 39.7462 94.6223 39.4732 94.7024 39.2644C94.8306 38.9592 94.9748 38.8789 95.4235 38.8789C95.9523 38.8789 95.9843 38.8468 95.9843 38.3167C95.9843 37.851 96.0645 37.7385 96.5292 37.5137C96.8657 37.3531 97.106 37.1121 97.1381 36.9033C97.1701 36.7106 97.3304 36.5339 97.4906 36.5018C97.8912 36.4215 98.2277 36.0842 98.2277 35.763C98.2277 35.6345 98.4681 35.4096 98.7725 35.2651C99.109 35.1045 99.3975 34.8153 99.4936 34.5262C99.5737 34.2693 99.75 34.0605 99.8782 34.0605C100.006 34.0605 100.199 33.948 100.311 33.8195C100.487 33.6107 99.4455 33.5786 91.0329 33.5786H81.5627V33.1931C81.5627 32.9362 81.6748 32.7755 81.9312 32.7113C82.5722 32.5507 100.663 32.5989 100.551 32.7755C100.503 32.8719 100.567 32.9362 100.695 32.9362C100.936 32.9362 101.497 33.8838 101.352 34.0283C101.304 34.0765 101.272 34.0605 101.272 33.9801C101.272 33.8998 101.016 34.1889 100.695 34.5905C100.375 35.0081 100.006 35.3454 99.8942 35.3454C99.766 35.3454 99.6699 35.4096 99.6699 35.506C99.6699 35.6987 96.3529 39.0395 96.1606 39.0395C96.0805 39.0395 95.9843 39.1841 95.9363 39.3768C95.8882 39.5535 95.6959 39.7462 95.5196 39.7944C95.3274 39.8426 95.1831 39.9389 95.1831 40.0032C95.1831 40.1477 91.081 44.3398 90.9367 44.3398C90.8887 44.3398 90.8566 44.0828 90.8566 43.7776Z" fill="#9B2149"/>
<path d="M66.7404 43.0227C66.6923 42.8139 66.6763 37.7706 66.6923 31.7958L66.7404 20.9382L68.4229 19.3C69.3523 18.4166 70.1535 17.6296 70.2176 17.5653C70.3618 17.3886 72.2046 15.5416 72.4129 15.3488C72.509 15.2685 73.3102 14.4494 74.1916 13.55C75.0729 12.6345 75.8581 11.8956 75.9382 11.8956C76.0183 11.8956 76.1305 11.7511 76.1946 11.5744C76.2426 11.3977 76.499 11.1407 76.7714 10.9801C77.0278 10.8195 77.2842 10.5786 77.3323 10.418C77.4605 10.0004 78.0053 9.88794 78.3739 10.2252C78.6623 10.4983 78.6783 10.8356 78.6783 21.0346V31.5709L77.2201 33.0646C76.4349 33.8677 75.7139 34.5423 75.6337 34.5423C75.5536 34.5423 75.4094 34.6868 75.3133 34.8635C75.2171 35.0402 74.7684 35.522 74.3198 35.9396C73.2301 36.9515 73.0378 37.1603 72.7494 37.5618C72.6212 37.7546 72.461 37.9152 72.3808 37.9152C72.2526 37.9152 70.6663 39.441 70.6663 39.5695C70.6663 39.6498 68.8555 41.4808 67.5576 42.7015C66.8525 43.36 66.8205 43.3761 66.7404 43.0227Z" fill="#9B2149"/>
<path d="M36.6792 42.5409C36.6311 40.6778 36.6151 23.5241 36.6631 23.4278C36.8234 23.0744 38.1854 24.2951 42.9286 29.0493C48.8254 34.9599 49.1619 35.3454 48.3928 35.3454C47.9281 35.3454 47.2711 34.8796 47.2711 34.5584C47.2711 34.4138 47.0468 34.205 46.7743 34.0765C46.5019 33.9641 46.2455 33.7392 46.1814 33.5947C46.0853 33.3056 45.3963 32.6149 45.204 32.6149C45.1399 32.6149 44.9957 32.4543 44.8835 32.2455C44.7713 32.0367 44.4669 31.7476 44.2105 31.587C43.9541 31.4424 43.7458 31.2176 43.7458 31.1051C43.7458 30.9766 43.6336 30.8482 43.5054 30.7839C43.3772 30.7357 43.2651 30.543 43.2651 30.3663C43.2651 30.1575 43.1529 30.0451 42.9446 30.0451C42.7843 30.0451 42.576 29.9487 42.5119 29.8363C42.4478 29.7078 42.1914 29.4829 41.9351 29.3223C41.6947 29.1778 41.4543 28.8887 41.4063 28.6959C41.3582 28.5032 41.1178 28.2623 40.8454 28.1659C40.589 28.0695 40.3807 27.8928 40.3807 27.7644C40.3807 27.6519 40.2205 27.4271 40.0282 27.2825C39.3552 26.7685 37.9771 25.4033 37.9771 25.2266C37.9771 25.1463 37.913 25.066 37.8169 25.066C37.7367 25.066 37.6566 24.9536 37.6566 24.8251C37.6566 24.6966 37.5925 24.5842 37.4964 24.5842C37.3842 24.5842 37.3361 27.7965 37.3361 33.8998C37.3361 43.103 37.3361 43.2155 37.0157 43.2155C36.7433 43.2155 36.6952 43.103 36.6792 42.5409Z" fill="#9B2149"/>
<path d="M34.1313 21.3879C34.1313 21.3076 33.9871 21.1791 33.8108 21.1309C33.6346 21.0828 33.4583 20.874 33.3942 20.6812C33.3461 20.4885 33.0737 20.2154 32.8013 20.0709C32.4648 19.9103 32.2725 19.6854 32.2405 19.4124C32.2084 19.1072 32.0802 18.9787 31.7117 18.8984C31.4393 18.8502 31.1669 18.6575 31.0707 18.4326C30.9746 18.2238 30.6861 17.9347 30.4298 17.7741C30.1253 17.5974 29.9651 17.3726 29.9651 17.0995C29.9651 16.8265 29.8689 16.714 29.6606 16.714C29.3081 16.714 28.5229 16.0234 28.5229 15.7022C28.5229 15.5737 28.3466 15.4131 28.1223 15.3649C27.8979 15.3006 27.7217 15.1882 27.7217 15.0918C27.7217 14.883 27.4653 14.6421 26.8884 14.2566C26.632 14.096 26.4398 13.9033 26.4398 13.7909C26.4398 13.6142 25.8308 13.0199 25.6386 13.0199C25.5745 13.0199 25.4463 12.8593 25.3341 12.6505C25.2219 12.4417 24.9175 12.1526 24.6611 11.992C24.4047 11.8474 24.1964 11.6065 24.1964 11.478C24.1964 11.3495 24.1323 11.2531 24.0361 11.2531C23.956 11.2531 23.8759 10.9962 23.8759 10.691C23.8759 10.3858 23.9079 10.1288 23.956 10.1288C24.1483 10.1288 34.9325 21.0828 34.9325 21.2916C34.9325 21.4361 34.7723 21.5325 34.5319 21.5325C34.3076 21.5325 34.1313 21.4682 34.1313 21.3879Z" fill="#9B2149"/>
<path d="M77.7169 111.557C77.7169 111.428 77.6368 111.316 77.5406 111.316C77.4605 111.316 77.4284 111.412 77.4925 111.525C77.5566 111.621 77.5566 111.669 77.4765 111.605C77.4124 111.541 77.2682 111.316 77.1721 111.123C77.0599 110.914 76.8836 110.754 76.7554 110.754C76.6272 110.754 76.5151 110.641 76.5151 110.513C76.5151 110.175 74.0313 107.766 73.807 107.895C73.7109 107.943 73.6788 107.943 73.7429 107.879C73.791 107.814 73.7269 107.606 73.5827 107.429C73.0859 106.835 70.1535 103.928 70.0253 103.928C69.9772 103.928 69.817 103.751 69.7048 103.526C69.5927 103.317 69.3683 103.092 69.2401 103.044C69.0959 102.996 68.8395 102.739 68.6793 102.466C68.503 102.177 68.3107 102.016 68.1665 102.064C68.0383 102.113 67.9422 102.064 67.9422 101.952C67.9422 101.84 67.6537 101.422 67.3012 101.037L66.6602 100.33L66.6763 89.7132C66.6923 83.8829 66.7564 78.9359 66.8205 78.7111C66.9487 78.3256 66.9968 78.3256 67.0448 78.7593C67.0609 78.8556 67.141 78.9359 67.2211 78.9199C67.3172 78.9199 67.4775 79.0002 67.5896 79.1287C67.7018 79.2572 67.7499 79.3535 67.7018 79.3535C67.6377 79.3535 67.9422 79.6426 68.3428 79.996C68.7434 80.3494 69.0318 80.6385 68.9517 80.6385C68.8876 80.6385 69.0799 80.8151 69.3843 81.0239C70.0253 81.4576 71.2271 82.7425 71.179 82.9352C71.163 82.9995 71.2111 83.0477 71.3072 83.0477C71.3874 83.0477 72.2206 83.8026 73.166 84.7341C74.0954 85.6657 74.8005 86.4206 74.7364 86.4206C74.6563 86.4206 74.7845 86.5491 74.9928 86.6936C75.6978 87.1755 77.7169 89.2153 77.7169 89.4401C77.7169 89.5526 77.781 89.6168 77.8611 89.5526C77.9412 89.5044 78.1656 89.665 78.3578 89.9059C78.6623 90.2914 78.6783 90.3556 78.454 90.4038C78.1495 90.4681 78.1175 90.8535 78.4059 90.966C78.5662 91.0302 78.5662 91.0623 78.4059 91.0623C78.2777 91.0784 78.1976 91.3354 78.1976 91.7851C78.1976 92.2027 78.2777 92.5239 78.4059 92.5721C78.5662 92.6364 78.5662 92.6685 78.4059 92.6685C78.1335 92.6845 78.1015 110.288 78.3578 110.384C78.454 110.416 78.5501 110.657 78.5662 110.914C78.5982 111.332 78.5501 111.396 78.2457 111.348C77.8611 111.3 77.7329 111.557 78.0854 111.685C78.1976 111.733 78.1656 111.782 78.0053 111.782C77.8451 111.798 77.7169 111.685 77.7169 111.557Z" fill="#631032"/>
<path d="M63.8721 97.6154C63.7278 97.4066 63.4394 97.1336 63.2151 97.0211C62.9907 96.9087 62.7824 96.6678 62.7183 96.5072C62.6703 96.3305 62.526 96.2341 62.3978 96.2823C62.2857 96.3305 62.1895 96.3144 62.2216 96.2502C62.2857 96.0253 61.4364 95.1419 60.7634 94.7083C60.3948 94.4834 60.0904 94.1782 60.0904 94.0498C60.0904 93.9213 59.9942 93.7607 59.8821 93.6964C59.7539 93.6322 59.5456 93.3752 59.4013 93.1503C59.2411 92.9255 58.9527 92.6524 58.7443 92.54C58.536 92.4276 58.2636 92.1545 58.1515 91.9457C58.0393 91.7208 57.847 91.5924 57.7348 91.6245C57.6227 91.6727 57.5425 91.6566 57.5746 91.5924C57.6227 91.4317 57.3823 91.1587 55.7158 89.4562C54.9306 88.6692 54.2256 88.0588 54.1454 88.1231C54.0653 88.1713 54.0012 88.1231 54.0012 88.0267C54.0012 87.8661 53.9051 87.7215 53.3603 87.0791C52.7033 86.3081 52.7193 86.4527 52.7193 75.9806C52.7193 69.3472 52.7674 65.8619 52.8795 65.8619C52.9757 65.8619 53.0398 65.6531 53.0398 65.4122C53.0398 65.1552 53.0878 64.8982 53.1359 64.85C53.2801 64.7215 56.2446 67.6608 56.1484 67.8214C56.1004 67.8857 56.1324 67.9499 56.1965 67.9499C56.4369 67.9499 57.3663 68.7851 57.2701 68.9296C57.2381 68.9939 57.3983 69.1706 57.6387 69.2991C58.2316 69.6042 62.0453 73.4911 61.9011 73.6196C61.853 73.6838 61.8851 73.732 61.9972 73.732C62.2857 73.732 64.529 75.9485 64.7213 76.4303C64.8495 76.7355 64.8816 79.9157 64.8656 87.2076L64.8175 97.5512L64.465 97.776C64.1445 97.9848 64.0964 97.9688 63.8721 97.6154Z" fill="#631032"/>
<path d="M10.8964 88.9904C5.30398 88.9422 0.608918 88.8458 0.448677 88.7816C-0.288431 88.4122 -0.0640936 88.1231 4.02205 84.0435C6.21735 81.843 7.96398 79.996 7.88386 79.9157C7.81976 79.8354 7.85181 79.8193 7.93193 79.8836C8.02807 79.9317 8.74916 79.3214 9.53434 78.5344L10.9605 77.1049H21.7287C31.1028 77.1049 32.5129 77.137 32.6892 77.3458C32.8334 77.5225 32.8334 77.5868 32.7052 77.5868C32.593 77.5868 32.561 77.6671 32.6251 77.7795C32.6892 77.8919 32.6731 77.908 32.5449 77.8437C32.4488 77.7795 32.3206 77.8437 32.2565 78.0044C32.1283 78.3577 22.0171 88.5086 21.4723 88.8298C21.1198 89.0386 19.7577 89.0546 10.8964 88.9904Z" fill="#631032"/>
<path d="M13.8128 74.2621C14.1333 73.9248 14.7742 73.2823 15.2069 72.8165C15.6555 72.3507 16.0241 71.901 16.0241 71.8047C16.0241 71.7243 16.0722 71.6601 16.1523 71.6762C16.3286 71.7404 18.2675 69.8291 18.2675 69.6042C18.2675 69.4918 18.3796 69.3954 18.5078 69.3954C18.636 69.3954 18.9565 69.0903 19.2289 68.7209C19.4853 68.3675 19.7096 68.1266 19.7096 68.1908C19.7096 68.2551 20.6871 67.3396 21.8729 66.151C23.0587 64.9464 24.0361 63.9024 24.0361 63.8061C24.0361 63.7257 24.1804 63.6133 24.3726 63.5651C24.5489 63.5169 24.7412 63.3242 24.7893 63.1475C24.8694 62.8263 24.9175 62.8263 35.9741 62.8102C42.4959 62.8102 47.1269 62.8745 47.1749 62.9548C47.223 63.0351 44.6431 65.7495 41.4223 68.9778L35.5735 74.8563H24.4047H13.2359L13.8128 74.2621Z" fill="#631032"/>
<path d="M54.4178 58.8431C54.3057 58.7307 54.4499 58.57 56.1004 56.9478C56.6292 56.4178 57.158 55.8878 57.2541 55.7753C57.3663 55.6629 57.6226 55.4059 57.831 55.2132C58.0393 55.0205 58.3277 54.7153 58.4719 54.5547C58.6161 54.3941 58.8725 54.1371 59.0328 53.9925C59.193 53.848 59.4494 53.607 59.5936 53.4304C60.2506 52.6755 61.5646 51.4066 61.6928 51.4066C61.7729 51.4066 61.9652 51.1978 62.1094 50.9408C62.2696 50.6839 62.5581 50.3787 62.7664 50.2663C62.9587 50.1538 63.167 49.9611 63.2151 49.8165C63.2631 49.672 63.4554 49.4471 63.6477 49.3186C63.824 49.1902 64.0964 48.9492 64.2406 48.7886C64.3848 48.628 64.8335 48.1301 65.2501 47.6964L66.0033 46.9094H76.9958C86.8025 46.9094 88.7895 46.9737 87.6839 47.2628C87.5076 47.311 87.2192 47.6964 87.0108 48.114C86.7705 48.5959 86.6102 48.8047 86.5301 48.6762C86.466 48.5638 86.3218 48.5316 86.2257 48.5798C86.1295 48.6441 86.0814 48.7726 86.1455 48.8529C86.2417 49.0295 85.6007 49.6238 85.2802 49.6399C85.1681 49.6399 85.0239 49.7684 84.9758 49.929C84.8155 50.3787 84.3829 50.8445 84.1265 50.8445C84.0143 50.8445 83.7259 51.1818 83.5016 51.5994C83.2772 52.033 83.0529 52.29 82.9888 52.1776C82.8446 51.9527 82.5241 52.1615 82.5241 52.4988C82.5241 52.804 82.0754 53.2537 81.7549 53.2537C81.6588 53.2537 81.4345 53.5107 81.2742 53.8158C81.0979 54.1692 80.8896 54.378 80.6813 54.378C80.489 54.378 80.2807 54.5547 80.1525 54.8438C80.0243 55.1008 79.784 55.3417 79.6077 55.3899C79.4475 55.422 79.2071 55.7111 79.0789 56.0002C78.9347 56.3536 78.7104 56.5784 78.438 56.6427C78.1976 56.7069 77.9412 56.8996 77.8611 57.0924C77.5566 57.767 77.2361 58.2327 77.2361 58.0239C77.2361 57.8955 77.14 57.8312 77.0439 57.8794C76.9317 57.9115 76.8516 58.04 76.8836 58.1364C76.8996 58.2488 76.7554 58.4737 76.5631 58.6343C76.2106 58.9395 75.7619 58.9395 65.3623 58.9555C59.4013 58.9555 54.4819 58.9073 54.4178 58.8431Z" fill="#631032"/>
<path d="M48.1364 56.8675C47.9761 56.7069 46.6301 55.3577 45.1399 53.8961C43.6657 52.4185 42.3837 51.0854 42.3036 50.9087C42.2075 50.7481 42.0633 50.6035 41.9831 50.6035C41.8549 50.6035 38.8264 47.6322 37.6246 46.3312C37.4643 46.1545 37.1919 45.8815 36.9996 45.7048C36.6792 45.3996 36.6631 45.2711 36.7433 43.5686C36.7913 42.4925 36.7753 41.8019 36.6792 41.8661C36.599 41.9143 36.5349 41.834 36.5349 41.7055C36.5349 41.5609 36.6151 41.4485 36.6952 41.4485C36.8074 41.4485 36.8554 38.3647 36.8554 32.5344C36.8554 23.6845 36.8554 23.6203 37.1759 23.6203C37.3522 23.6203 37.5445 23.7327 37.5925 23.8612C37.6566 23.9897 37.7528 24.07 37.8169 24.0218C37.897 23.9737 37.9931 24.0861 38.0572 24.2628C38.1053 24.4394 38.2335 24.584 38.3136 24.584C38.3937 24.584 38.4578 24.6964 38.4578 24.8249C38.4578 25.098 39.0027 25.4192 39.1789 25.2586C39.259 25.1943 39.259 25.2264 39.211 25.3228C39.0828 25.5477 39.6276 26.0777 39.8199 25.9171C39.884 25.8368 39.9 25.9171 39.8359 26.0938C39.7558 26.3186 39.8039 26.3668 39.9801 26.2865C40.1243 26.2383 40.2045 26.2544 40.1564 26.3186C40.0602 26.4792 40.6211 26.9932 40.8775 26.9932C40.9736 26.9932 41.0217 27.1056 40.9576 27.2341C40.9095 27.3787 41.0057 27.5393 41.23 27.6517C41.6787 27.8926 42.1434 28.3745 42.0472 28.4869C41.9992 28.5351 42.0953 28.6475 42.2716 28.7439C42.4478 28.8403 42.7202 29.0491 42.8805 29.1936C43.0407 29.3542 43.233 29.4827 43.3292 29.4827C43.4253 29.4827 43.5855 29.6594 43.6817 29.8682C43.7939 30.077 44.0022 30.3179 44.1304 30.3982C44.2746 30.4785 44.3547 30.607 44.3066 30.6873C44.2265 30.8158 44.7393 31.2013 44.8835 31.121C44.9155 31.1049 44.9316 31.121 44.9155 31.1531C44.8835 31.1852 45.0437 31.378 45.2681 31.5707C45.4764 31.7795 45.6046 31.9883 45.5405 32.0686C45.4764 32.1329 45.5725 32.1329 45.7488 32.0686C45.9251 32.0044 46.0212 32.0044 45.9571 32.0526C45.8289 32.1811 46.4058 32.7753 46.6301 32.7753C46.7263 32.7753 46.7904 32.9038 46.7583 33.0644C46.7263 33.2411 46.8064 33.3375 46.9827 33.3214C47.1429 33.3054 47.239 33.3535 47.191 33.4178C47.1429 33.482 47.3031 33.6587 47.5114 33.8033C47.7358 33.9478 47.88 34.1245 47.848 34.2048C47.7999 34.269 47.9761 34.4939 48.2486 34.6866L48.7293 35.04L48.6972 46.0421C48.6812 52.0812 48.6171 57.0602 48.553 57.1084C48.4889 57.1406 48.2966 57.0442 48.1364 56.8675Z" fill="#631032"/>
<path d="M68.6152 44.7893C68.4069 44.5805 68.2626 44.7411 71.7559 41.2076C73.1981 39.746 74.4319 38.5575 74.512 38.5575C74.5922 38.5575 74.7524 38.3968 74.8485 38.2041C75.0889 37.7383 75.5696 37.2565 75.6818 37.3689C75.7299 37.4171 75.842 37.3047 75.9542 37.128C76.1144 36.8228 77.156 35.7306 77.9732 35.0079C78.1495 34.8633 78.3899 34.6063 78.5181 34.4297C78.6463 34.269 79.111 33.8193 79.5436 33.4499C80.2487 32.8396 80.4089 32.7753 81.1781 32.7753C81.6588 32.7753 82.0434 32.8556 82.0434 32.9359C82.0434 33.0484 85.1681 33.0966 91.5296 33.0966C96.7375 33.0805 101.048 33.1447 101.112 33.209C101.32 33.4338 101.481 34.1084 101.304 33.996C101.208 33.9478 101 34.0602 100.84 34.269C100.679 34.4778 100.455 34.6224 100.343 34.5742C100.247 34.5421 100.103 34.6545 100.038 34.8151C99.8942 35.2488 99.4776 35.6825 99.077 35.8431C98.8526 35.9234 98.7084 36.1161 98.7084 36.3088C98.7084 36.4855 98.6443 36.6301 98.5642 36.6301C98.4841 36.6301 98.3559 36.7907 98.3078 36.9674C98.2277 37.2244 98.1636 37.2565 98.0675 37.1119C97.9232 36.871 97.5867 37.0316 97.5867 37.3689C97.5867 37.658 97.09 38.1559 96.7855 38.1559C96.6573 38.1559 96.5291 38.3005 96.4971 38.4771C96.417 38.8787 95.9202 39.3605 95.5837 39.3605C95.4555 39.3605 95.2632 39.5372 95.1831 39.746C95.103 39.9548 94.8466 40.2278 94.5902 40.3563C94.3499 40.4688 94.1255 40.7097 94.0935 40.8864C94.0454 41.063 93.9332 41.2718 93.805 41.3361C93.6769 41.4003 93.5807 41.5931 93.5807 41.7376C93.5807 41.9625 93.5487 41.9625 93.4365 41.7858C93.2602 41.4967 92.9397 41.7055 92.9397 42.107C92.9397 42.2676 92.8757 42.4122 92.8116 42.4122C92.7314 42.4122 92.5872 42.5728 92.4911 42.7816C92.3949 42.9744 92.3148 43.0386 92.3148 42.9422C92.2828 42.5568 91.9623 42.7334 91.802 43.2153C91.7059 43.4883 91.5617 43.6971 91.4816 43.6971C91.4014 43.6971 91.3373 43.8095 91.3373 43.938C91.3373 44.0665 91.0169 44.3556 90.6483 44.5805L89.9432 44.982H79.3834C71.5957 44.982 68.7594 44.9338 68.6152 44.7893Z" fill="#631032"/>
<path d="M34.2595 42.9262C34.0192 42.6852 33.6666 42.3319 33.4583 42.1391C32.8814 41.577 32.7372 41.4324 31.7277 40.4045C31.2149 39.8745 30.6701 39.3284 30.5419 39.1999C30.3977 39.0714 29.917 38.5735 29.4523 38.1077C28.9876 37.6259 28.4748 37.128 28.3306 36.9834C27.9781 36.6461 27.4012 36.0679 27.0487 35.6985C26.9045 35.554 26.6961 35.3612 26.6 35.2648C26.5039 35.1845 26.2635 34.9276 26.0552 34.7027C25.8469 34.4778 25.0617 33.7069 24.2925 32.9681L22.9145 31.6189V20.8898C22.9145 10.2893 22.9145 10.1447 23.2349 10.0484C23.6836 9.90381 24.1643 10.0966 24.2765 10.4499C24.3246 10.6105 24.4848 10.7872 24.613 10.8354C24.7412 10.8836 24.8213 10.996 24.7572 11.0763C24.6611 11.253 25.2059 11.6063 25.3822 11.4939C25.4302 11.4457 25.4463 11.4618 25.3982 11.526C25.3661 11.5742 25.4943 11.783 25.7187 11.9757C25.927 12.1845 26.0552 12.3933 26.0071 12.4415C25.943 12.4897 25.9751 12.5379 26.0712 12.5379C26.2795 12.5379 26.7923 13.0197 27.0166 13.4213C27.1288 13.5979 27.3211 13.7264 27.4653 13.7264C27.6095 13.7104 27.6896 13.7425 27.6416 13.8067C27.6095 13.871 27.7537 14.0477 27.962 14.2083C28.1864 14.3689 28.3146 14.5616 28.2825 14.6419C28.2345 14.7062 28.3466 14.8026 28.5229 14.8668C28.6992 14.931 28.9555 15.1559 29.0677 15.3968C29.1959 15.6378 29.5965 16.0072 29.949 16.232C30.3176 16.4569 30.574 16.7139 30.5419 16.8263C30.4939 16.9227 30.6541 17.1315 30.8945 17.2921C31.3912 17.6133 31.7277 17.9345 31.7758 18.1112C31.7918 18.1755 31.904 18.2236 32.0161 18.2236C32.1283 18.2076 32.1924 18.2236 32.1443 18.2718C32.0963 18.32 32.2405 18.4967 32.4488 18.6734C32.6731 18.85 32.8174 19.0428 32.7693 19.1231C32.7212 19.1873 32.8975 19.3801 33.1378 19.5246C33.6827 19.878 34.1313 20.3438 34.0352 20.4562C33.9871 20.4883 34.1794 20.6007 34.4358 20.6971L34.9325 20.8738V32.0365C34.9325 38.172 34.8684 43.2313 34.8043 43.2795C34.7242 43.3277 34.4839 43.1671 34.2595 42.9262Z" fill="#631032"/>
</svg>
