<svg width="233" height="225" viewBox="0 0 233 225" fill="none" xmlns="http://www.w3.org/2000/svg">
<path d="M15.6742 130.009C12.8222 130.009 9.87818 132.815 9.87818 139.692C9.87818 142.82 10.4072 146.454 11.7872 149.513C13.3742 152.802 15.9042 154.251 18.1812 154.251C21.4702 154.251 24.3682 151.813 24.3682 145.787C24.3682 142.383 23.5172 138.289 22.1142 135.368C20.5962 132.033 18.1352 130.009 15.6742 130.009ZM1.27618 142.613C1.27618 132.769 7.53218 125.961 16.6862 125.961C25.1502 125.961 32.3952 132.102 32.3952 143.119C32.3952 153.538 25.5642 158.782 17.0082 158.782C7.16418 158.782 1.27618 152.02 1.27618 142.613ZM45.4577 146.017V150.594C45.4577 153.193 46.3547 154.113 47.8727 154.757C48.9767 155.263 49.9197 155.654 49.9197 156.597C49.9197 157.747 48.9307 158.115 47.4587 158.115C46.1017 158.115 43.4337 158 41.9387 158C40.3517 158 38.3737 158.115 37.2697 158.115C36.0047 158.115 35.4527 157.609 35.4527 156.85C35.4527 155.309 37.6377 155.378 38.0057 152.779C38.2127 151.468 38.2817 146.109 38.2817 141.647C38.2817 138.519 38.2587 134.149 38.1897 133.16C37.8907 129.526 35.6367 129.733 35.6367 127.962C35.6367 127.203 36.0047 126.605 37.2927 126.605C39.6157 126.605 42.3067 126.72 47.5967 126.72C52.1737 126.72 54.6577 126.605 56.3137 126.605C57.9467 126.605 58.4987 126.904 58.8207 128.997C59.0047 129.986 59.2807 131.803 59.6257 133.574C59.7867 134.356 59.9017 135.253 59.9017 135.552C59.9017 136.518 59.3037 136.909 58.6597 136.909C57.7167 136.909 57.2567 135.897 56.7507 134.954C54.9797 131.389 54.1287 130.515 49.1837 130.515C46.0327 130.515 45.4577 130.952 45.4577 133.482V137.507C45.4577 139.416 45.7797 139.761 46.6537 139.761C50.4487 139.761 50.7017 138.45 51.5757 137.047C51.8517 136.656 52.1737 136.38 52.6107 136.38C53.4847 136.38 53.8527 137.116 53.8527 139.186V145.833C53.8527 147.052 53.5997 147.719 52.7487 147.719C51.8287 147.719 51.4607 146.914 51.1617 146.247C50.3797 144.591 49.9657 143.786 46.7917 143.786C45.8027 143.786 45.4577 144.338 45.4577 146.017ZM73.3571 126.605C74.5761 126.605 74.9901 127.203 74.9901 127.962C74.9901 129.733 72.7821 129.48 72.4601 133.114C72.3451 134.126 72.3221 137.507 72.3221 141.647C72.3221 146.822 72.4371 151.353 72.6211 152.71C73.0351 155.355 75.1741 155.286 75.1741 156.85C75.1741 157.54 74.5761 158.115 73.3571 158.115C72.0001 158.115 70.2521 158 68.7571 158C67.2161 158 65.4451 158.115 64.0881 158.115C62.8231 158.115 62.2711 157.54 62.2711 156.85C62.2711 155.286 64.4791 155.332 64.8471 152.71C65.0311 151.445 65.1001 146.04 65.1001 141.647C65.1001 138.542 65.1001 134.149 65.0311 133.114C64.7321 129.503 62.4551 129.71 62.4551 127.962C62.4551 127.203 62.8231 126.605 64.1111 126.605C65.5141 126.605 67.2621 126.72 68.7571 126.72C70.2981 126.72 72.0461 126.605 73.3571 126.605ZM78.2044 142.475C78.2044 134.057 83.1954 125.938 93.2464 125.938C96.7884 125.938 98.4444 127.042 99.8934 127.042C100.928 127.042 101.595 126.559 102.515 126.559C104.286 126.559 104.332 128.33 104.884 131.067C105.482 134.172 105.804 134.931 105.804 135.575C105.804 136.564 105.229 137.024 104.562 137.024C103.343 137.024 102.722 135.621 101.71 134.172C99.5944 131.205 96.8114 129.503 94.0514 129.503C88.9684 129.503 86.3464 134.264 86.3464 139.738C86.3464 146.822 90.1874 152.549 96.4434 152.549C100.767 152.549 103.251 149.789 104.447 147.535C104.861 146.868 105.206 146.316 105.689 146.316C106.356 146.316 106.609 147.236 106.609 147.995C106.609 149.49 106.149 151.192 105.183 152.756C103.205 155.953 99.1114 158.782 93.2924 158.782C83.5864 158.782 78.2044 151.1 78.2044 142.475ZM120.705 126.605C121.924 126.605 122.338 127.203 122.338 127.962C122.338 129.733 120.13 129.48 119.808 133.114C119.693 134.126 119.67 137.507 119.67 141.647C119.67 146.822 119.785 151.353 119.969 152.71C120.383 155.355 122.522 155.286 122.522 156.85C122.522 157.54 121.924 158.115 120.705 158.115C119.348 158.115 117.6 158 116.105 158C114.564 158 112.793 158.115 111.436 158.115C110.171 158.115 109.619 157.54 109.619 156.85C109.619 155.286 111.827 155.332 112.195 152.71C112.379 151.445 112.448 146.04 112.448 141.647C112.448 138.542 112.448 134.149 112.379 133.114C112.08 129.503 109.803 129.71 109.803 127.962C109.803 127.203 110.171 126.605 111.459 126.605C112.862 126.605 114.61 126.72 116.105 126.72C117.646 126.72 119.394 126.605 120.705 126.605ZM135.005 145.258H141.077C141.537 145.258 141.629 145.097 141.629 144.844C141.629 144.154 139.674 138.427 138.57 136.288C138.455 136.035 138.248 135.759 138.11 135.759C137.926 135.759 137.788 136.035 137.65 136.288C136.638 138.312 134.476 144.269 134.476 144.844C134.476 145.097 134.591 145.258 135.005 145.258ZM127.484 151.859L134.476 133.643C135.074 132.01 135.465 130.377 135.672 129.158C135.994 127.571 139.513 126.007 141.008 126.007C142.227 126.007 142.641 126.858 143.078 128.031L152.347 151.905C152.623 152.618 153.175 153.814 154.371 154.849C154.831 155.263 155.567 155.838 155.567 156.574C155.567 157.816 154.67 158.115 152.853 158.115C151.611 158.115 150.484 158 148.322 158C146.16 158 144.964 158.115 143.607 158.115C142.25 158.115 141.606 157.586 141.606 156.689C141.606 155.378 144.32 154.895 144.32 152.802C144.32 152.434 143.745 150.709 143.285 149.881C143.124 149.582 142.756 149.352 142.296 149.352H134.315C133.717 149.352 133.28 149.582 133.004 149.881C132.544 150.571 131.785 152.388 131.785 153.17C131.785 155.194 134.177 155.493 134.177 156.804C134.177 157.54 133.74 158.115 132.245 158.115C131.256 158.115 129.577 158 128.519 158C127.438 158 126.748 158.115 125.736 158.115C124.747 158.115 124.218 157.655 124.218 156.827C124.218 155.378 126.081 155.493 127.484 151.859ZM160.065 141.647C160.065 138.542 160.065 134.149 159.996 133.114C159.697 129.503 157.42 129.71 157.42 127.962C157.42 127.203 157.788 126.605 159.076 126.605C160.479 126.605 162.227 126.72 163.722 126.72C165.263 126.72 167.793 126.605 169.127 126.605C170.346 126.605 170.76 127.203 170.76 127.962C170.76 129.917 167.747 129.549 167.425 133.206C167.31 134.195 167.287 137.507 167.287 141.647V150.985C167.287 153.515 168.207 153.975 171.381 153.975C176.418 153.975 177.752 152.043 178.879 148.869C179.431 147.466 179.914 146.822 180.65 146.822C181.455 146.822 181.8 147.581 181.8 148.8C181.8 150.088 181.432 153.009 181.225 156.275C181.133 157.701 180.604 158.115 179.017 158.115C177.108 158.115 173.612 158 169.61 158C163.469 158 160.525 158.115 159.053 158.115C157.88 158.115 157.236 157.678 157.236 156.85C157.236 155.263 159.375 155.355 159.789 152.779C159.996 151.583 160.065 147.627 160.065 141.647ZM199.423 158H184.473V154.044L188.475 152.204V130.952L184.473 129.112V125.156H199.423V129.112L195.421 130.952V152.204L199.423 154.044V158ZM201.677 115.496C201.248 115.925 200.68 116.447 199.975 117.06C199.27 117.673 198.503 118.317 197.675 118.992C196.878 119.667 196.08 120.311 195.283 120.924C194.516 121.507 193.842 121.997 193.259 122.396H188.705V121.798C189.196 121.215 189.763 120.541 190.407 119.774C191.082 118.977 191.741 118.164 192.385 117.336C193.029 116.477 193.566 115.711 193.995 115.036H201.677V115.496ZM211.552 145.258H217.624C218.084 145.258 218.176 145.097 218.176 144.844C218.176 144.154 216.221 138.427 215.117 136.288C215.002 136.035 214.795 135.759 214.657 135.759C214.473 135.759 214.335 136.035 214.197 136.288C213.185 138.312 211.023 144.269 211.023 144.844C211.023 145.097 211.138 145.258 211.552 145.258ZM204.031 151.859L211.023 133.643C211.621 132.01 212.012 130.377 212.219 129.158C212.541 127.571 216.06 126.007 217.555 126.007C218.774 126.007 219.188 126.858 219.625 128.031L228.894 151.905C229.17 152.618 229.722 153.814 230.918 154.849C231.378 155.263 232.114 155.838 232.114 156.574C232.114 157.816 231.217 158.115 229.4 158.115C228.158 158.115 227.031 158 224.869 158C222.707 158 221.511 158.115 220.154 158.115C218.797 158.115 218.153 157.586 218.153 156.689C218.153 155.378 220.867 154.895 220.867 152.802C220.867 152.434 220.292 150.709 219.832 149.881C219.671 149.582 219.303 149.352 218.843 149.352H210.862C210.264 149.352 209.827 149.582 209.551 149.881C209.091 150.571 208.332 152.388 208.332 153.17C208.332 155.194 210.724 155.493 210.724 156.804C210.724 157.54 210.287 158.115 208.792 158.115C207.803 158.115 206.124 158 205.066 158C203.985 158 203.295 158.115 202.283 158.115C201.294 158.115 200.765 157.655 200.765 156.827C200.765 155.378 202.628 155.493 204.031 151.859ZM62.8333 193.864C62.4193 193.864 61.3613 196.348 58.9923 202.673C57.5433 206.514 56.2553 210.056 55.5883 211.436C55.0363 212.448 54.1623 213.23 52.9663 213.23C52.3683 213.23 51.8393 212.678 51.5403 212.034C50.9193 210.7 46.2503 198.993 44.4103 194.669C44.1113 193.979 43.9273 193.634 43.7433 193.634C43.5593 193.634 43.4673 193.933 43.4213 194.416C43.3293 195.244 43.1223 202.098 43.1223 203.432C43.1223 205.824 43.3753 207.917 43.7433 208.722C44.5943 210.378 45.8593 210.401 45.8593 211.758C45.8593 212.563 45.4223 213.115 44.2033 213.115C42.7083 213.115 41.8113 213 40.9833 213C39.9483 213 38.7293 213.115 37.2113 213.115C36.1303 213.115 35.6243 212.586 35.6243 211.781C35.6243 210.056 37.8783 210.447 38.3383 206.951C38.8213 203.087 39.2123 195.129 39.2123 191.564C39.2123 190.161 39.1663 189.011 39.0973 188.16C38.7753 184.526 36.5443 184.733 36.5443 182.962C36.5443 182.18 36.9353 181.605 38.1543 181.605C38.9823 181.605 40.8683 181.72 41.9953 181.72C44.6633 181.72 45.4223 181.858 46.2273 182.364C47.0783 182.893 47.8603 184.135 48.2973 184.94C49.0103 186.251 53.4723 196.9 54.8293 200.074C54.9213 200.327 55.0363 200.488 55.2203 200.488C55.3353 200.488 55.4733 200.419 55.6343 200.097C56.0253 199.085 60.0503 188.758 61.8213 184.848C62.4193 183.583 63.0173 182.801 63.7073 182.341C64.4663 181.881 65.6853 181.72 68.0543 181.72C68.7673 181.72 70.3313 181.605 71.1593 181.605C72.2863 181.605 72.7003 182.203 72.7003 182.985C72.7003 184.687 70.6073 184.595 70.1703 188.091C70.0553 189.034 70.0323 190.46 70.0323 191.357C70.0323 196.233 70.5613 203.984 70.9753 206.859C71.4583 210.493 73.7123 210.056 73.7123 211.781C73.7123 212.586 73.2063 213.115 72.0563 213.115C70.5843 213.115 68.3763 213 67.3643 213C65.8003 213 64.2593 213.115 62.7643 213.115C61.5913 213.115 60.9473 212.632 60.9473 211.85C60.9473 210.309 63.0633 210.378 63.5463 207.687C63.6153 207.296 63.6383 206.652 63.6383 205.847C63.6383 203.777 63.4543 198.717 63.1323 194.646C63.0633 194.071 62.9023 193.864 62.8333 193.864ZM85.6134 200.258H91.6854C92.1454 200.258 92.2374 200.097 92.2374 199.844C92.2374 199.154 90.2824 193.427 89.1784 191.288C89.0634 191.035 88.8564 190.759 88.7184 190.759C88.5344 190.759 88.3964 191.035 88.2584 191.288C87.2464 193.312 85.0844 199.269 85.0844 199.844C85.0844 200.097 85.1994 200.258 85.6134 200.258ZM78.0924 206.859L85.0844 188.643C85.6824 187.01 86.0734 185.377 86.2804 184.158C86.6024 182.571 90.1214 181.007 91.6164 181.007C92.8354 181.007 93.2494 181.858 93.6864 183.031L102.955 206.905C103.231 207.618 103.783 208.814 104.979 209.849C105.439 210.263 106.175 210.838 106.175 211.574C106.175 212.816 105.278 213.115 103.461 213.115C102.219 213.115 101.092 213 98.9304 213C96.7684 213 95.5724 213.115 94.2154 213.115C92.8584 213.115 92.2144 212.586 92.2144 211.689C92.2144 210.378 94.9284 209.895 94.9284 207.802C94.9284 207.434 94.3534 205.709 93.8934 204.881C93.7324 204.582 93.3644 204.352 92.9044 204.352H84.9234C84.3254 204.352 83.8884 204.582 83.6124 204.881C83.1524 205.571 82.3934 207.388 82.3934 208.17C82.3934 210.194 84.7854 210.493 84.7854 211.804C84.7854 212.54 84.3484 213.115 82.8534 213.115C81.8644 213.115 80.1854 213 79.1274 213C78.0464 213 77.3564 213.115 76.3444 213.115C75.3554 213.115 74.8264 212.655 74.8264 211.827C74.8264 210.378 76.6894 210.493 78.0924 206.859ZM121.697 201.753C121.697 204.168 121.789 206.307 121.996 207.687C122.387 210.332 124.917 210.24 124.917 211.85C124.917 212.54 124.342 213.115 123.123 213.115C121.743 213.115 119.604 213 118.132 213C116.568 213 114.429 213.115 113.072 213.115C111.83 213.115 111.255 212.54 111.255 211.85C111.255 210.24 113.831 210.309 114.222 207.687C114.406 206.399 114.475 203.777 114.475 201.408C114.475 199.476 112.819 196.785 110.312 192.645C109.116 190.713 107.575 188.091 106.287 186.366C105.022 184.756 103.665 184.503 103.665 183.146C103.665 181.927 104.585 181.605 106.149 181.605C107.322 181.605 108.38 181.72 110.473 181.72C112.566 181.72 113.762 181.605 115.073 181.605C116.384 181.605 116.982 182.134 116.982 183.008C116.982 184.25 115.234 184.825 115.234 186.251C115.234 187.562 118.178 193.082 119.351 194.439C119.466 194.554 119.604 194.646 119.742 194.646C119.857 194.646 119.995 194.508 120.11 194.37C121.398 192.553 123.836 187.516 123.836 186.32C123.836 184.526 122.019 184.204 122.019 182.916C122.019 182.203 122.433 181.605 123.882 181.605C124.871 181.605 126.872 181.72 127.93 181.72C128.988 181.72 129.793 181.605 130.782 181.605C131.748 181.605 132.277 182.088 132.277 182.893C132.277 184.388 131.127 184.365 129.287 186.711C128.045 188.252 126.803 190.713 125.216 193.68C123.468 196.877 121.697 199.706 121.697 201.753ZM147.453 185.009C144.601 185.009 141.657 187.815 141.657 194.692C141.657 197.82 142.186 201.454 143.566 204.513C145.153 207.802 147.683 209.251 149.96 209.251C153.249 209.251 156.147 206.813 156.147 200.787C156.147 197.383 155.296 193.289 153.893 190.368C152.375 187.033 149.914 185.009 147.453 185.009ZM133.055 197.613C133.055 187.769 139.311 180.961 148.465 180.961C156.929 180.961 164.174 187.102 164.174 198.119C164.174 208.538 157.343 213.782 148.787 213.782C138.943 213.782 133.055 207.02 133.055 197.613ZM185.516 190.897C185.516 187.654 183.193 185.653 179.973 185.653C177.535 185.653 177.282 185.952 177.282 188.758V193.266C177.282 195.014 177.673 195.957 180.249 195.957C183.469 195.957 185.516 194.117 185.516 190.897ZM177.259 202.397V205.985C177.259 207.871 177.88 208.837 178.662 209.665C179.375 210.47 180.341 210.93 180.341 211.85C180.341 212.678 179.628 213.115 178.547 213.115C177.19 213.115 175.212 213 173.717 213C172.13 213 170.152 213.115 169.048 213.115C167.783 213.115 167.231 212.609 167.231 211.85C167.231 210.309 169.416 210.378 169.784 207.779C169.991 206.468 170.06 201.109 170.06 196.647C170.06 193.519 170.037 189.149 169.968 188.16C169.669 184.526 167.415 184.733 167.415 182.962C167.415 182.203 167.783 181.605 169.071 181.605C171.394 181.605 172.176 181.72 174.867 181.72C177.397 181.72 179.904 181.559 182.802 181.559C189.426 181.559 193.589 184.227 193.589 189.954C193.589 192.783 192.163 195.911 186.873 197.751C186.735 197.82 186.574 197.912 186.574 198.073C186.574 198.188 186.666 198.349 186.896 198.464C190.07 200.166 192.002 202.926 193.911 206.376C194.831 208.078 195.567 209.274 196.533 210.033C197.43 210.815 197.936 210.93 197.936 211.827C197.936 212.839 197.246 213.115 196.51 213.115C195.544 213.115 193.198 213 192.094 213C190.162 213 188.391 213.115 187.701 213.115C186.574 213.115 185.838 212.517 185.838 211.758C185.838 210.953 186.39 210.654 186.39 209.55C186.39 206.951 183.722 202.42 181.629 200.925C180.709 200.35 179.237 200.212 178.892 200.212C177.719 200.212 177.259 201.04 177.259 202.397Z" fill="#620E31"/>
<path d="M91.23 108.784C91.0698 108.72 91.0217 106.423 91.0217 98.007V87.294L91.6306 86.7158C91.9511 86.3945 92.3037 86.0412 92.4158 85.9288C92.512 85.8163 92.7363 85.5915 92.9126 85.4148C93.0888 85.2381 93.2972 85.0293 93.3612 84.949C93.4414 84.8687 93.7298 84.5957 93.9862 84.3387C94.2586 84.0817 94.547 83.7926 94.6272 83.6962C94.7233 83.5998 95.22 83.0859 95.7488 82.5558C96.2776 82.0258 96.7904 81.5279 96.8705 81.4315C96.9667 81.3512 97.2551 81.0621 97.5115 80.8052C97.7839 80.5482 98.0723 80.2591 98.1685 80.1466C98.2806 80.0342 98.505 79.8093 98.6812 79.6327C98.8575 79.456 99.0658 79.2472 99.1459 79.1669C99.21 79.0866 99.4985 78.8135 99.7549 78.5565C100.027 78.2996 100.332 77.9944 100.444 77.8659C101.437 76.8058 102.848 75.5209 102.944 75.6012C102.992 75.6494 103.04 80.6285 103.04 86.6515V97.6054L102.479 98.1836C102.158 98.5209 101.838 98.7779 101.758 98.7779C101.678 98.7779 101.582 98.9225 101.518 99.0991C101.469 99.2758 101.213 99.5328 100.957 99.6774C100.716 99.838 100.428 100.111 100.332 100.32C100.252 100.513 99.9632 100.802 99.6908 100.962C99.4184 101.123 99.194 101.348 99.194 101.46C99.194 101.573 98.9376 101.83 98.6332 102.022C98.3287 102.231 98.0723 102.472 98.0723 102.584C98.0723 102.681 97.7839 102.97 97.4314 103.227C97.0788 103.468 96.7904 103.741 96.7904 103.805C96.7904 103.982 95.4604 105.283 94.9476 105.62C94.7233 105.765 94.547 105.973 94.547 106.102C94.547 106.214 94.2586 106.503 93.9061 106.76C93.5535 107.001 93.2651 107.29 93.2651 107.403C93.2651 107.499 93.0247 107.74 92.7203 107.917C92.4318 108.11 92.1434 108.399 92.0953 108.575C92.0152 108.881 91.6627 108.961 91.23 108.784Z" fill="#9B2149"/>
<path d="M145.023 108.094C144.622 107.644 144.206 107.194 144.077 107.082C142.908 106.006 139.414 102.424 139.414 102.311C139.414 102.215 139.334 102.151 139.254 102.151C139.158 102.151 138.116 101.187 136.931 99.9986C135.264 98.3442 134.767 97.75 134.767 97.4287C134.767 96.8023 135.216 96.8987 135.921 97.6857C136.258 98.0551 136.53 98.4246 136.53 98.4888C136.53 98.553 136.626 98.6173 136.754 98.6173C136.883 98.6173 137.123 98.8421 137.283 99.0991C137.427 99.3722 137.684 99.6131 137.828 99.6613C137.956 99.7095 138.165 99.9183 138.277 100.111C138.389 100.32 138.677 100.609 138.918 100.753C139.158 100.898 139.446 101.187 139.575 101.412C139.687 101.637 139.847 101.83 139.911 101.83C140.007 101.83 141.514 103.291 142.171 104.014C142.315 104.191 142.908 104.785 143.485 105.347C144.061 105.909 144.542 106.423 144.542 106.487C144.542 106.552 144.686 106.648 144.863 106.696C145.039 106.744 145.183 106.873 145.183 107.001C145.183 107.114 145.327 107.307 145.504 107.419L145.824 107.612L145.792 97.4769C145.76 89.5265 145.696 87.31 145.552 87.2458C145.343 87.1815 145.247 86.0894 145.44 86.0894C145.488 86.0894 145.808 86.3624 146.161 86.6836L146.786 87.2779V97.8142C146.77 108.945 146.786 108.897 146.048 108.897C145.888 108.897 145.423 108.527 145.023 108.094Z" fill="#9B2149"/>
<path d="M104.754 95.357C104.642 95.0197 104.61 78.5085 104.738 75.9065C104.818 73.9149 104.899 73.3528 105.107 73.1761C105.363 72.9352 105.892 72.4051 106.213 72.0839C106.405 71.8751 107.286 70.9917 107.494 70.799C107.735 70.5741 108.328 69.9638 108.456 69.8193C108.52 69.755 108.792 69.498 109.049 69.241C109.321 68.9841 109.626 68.6789 109.738 68.5504C109.978 68.3095 111.789 66.4785 111.981 66.3018C112.206 66.0769 114.016 64.262 114.177 64.0853C114.273 64.005 114.561 63.7159 114.818 63.4589C115.09 63.2019 115.378 62.9128 115.458 62.8165C115.795 62.447 116.532 61.8207 116.596 61.8688C116.628 61.901 116.676 66.7997 116.724 72.7585C116.804 84.6119 116.837 84.1782 115.859 84.7564C115.603 84.901 115.378 85.1258 115.378 85.2382C115.378 85.3507 115.122 85.6077 114.818 85.8004C114.513 86.0092 114.257 86.2662 114.257 86.3786C114.257 86.491 114 86.732 113.696 86.9086C113.391 87.0853 113.103 87.3744 113.055 87.5511C113.007 87.7117 112.75 87.9687 112.51 88.1132C112.27 88.2578 112.013 88.5308 111.917 88.7075C111.837 88.9003 111.565 89.1572 111.308 89.2857C111.052 89.3982 110.811 89.6391 110.779 89.7997C110.731 89.9603 110.443 90.2494 110.154 90.4422C109.85 90.6188 109.61 90.8758 109.61 91.0043C109.61 91.1167 109.353 91.3898 109.049 91.5825C108.744 91.7913 108.488 92.0483 108.488 92.1607C108.488 92.2732 108.232 92.5141 107.927 92.6908C107.623 92.8674 107.334 93.1565 107.286 93.3172C107.238 93.4938 106.95 93.7669 106.661 93.9596C106.357 94.1363 106.084 94.4093 106.052 94.57C105.94 94.9554 104.851 95.6139 104.754 95.357Z" fill="#9B2149"/>
<path d="M126.531 89.5746C121.275 84.3065 120.714 83.6961 120.778 83.3107C120.875 82.8127 121.419 82.7003 121.58 83.15C121.644 83.2946 121.804 83.5355 121.932 83.6801C122.076 83.8246 122.301 84.0977 122.429 84.2904C122.557 84.4831 122.717 84.6438 122.765 84.6438C122.878 84.6438 124.56 86.3141 126.467 88.3058C126.675 88.5146 126.98 88.8037 127.14 88.9482C128.134 89.8316 128.678 90.5383 128.678 90.972C128.678 91.3253 128.742 91.3896 129.127 91.3896C129.464 91.3896 129.816 91.6144 130.489 92.289C130.986 92.7709 131.402 93.2366 131.434 93.3009C131.531 93.5097 132.492 94.12 132.748 94.12C132.893 94.12 133.005 94.2485 133.005 94.4091C133.005 94.9391 132.813 95.4049 132.588 95.4049C132.476 95.4049 129.752 92.7869 126.531 89.5746Z" fill="#9B2149"/>
<path d="M168.098 85.9931C167.969 85.961 163.37 85.9128 157.874 85.8967C148.516 85.8486 147.875 85.8325 147.731 85.5595C147.635 85.4149 147.475 85.2061 147.378 85.1258C147.266 85.0294 147.042 84.8367 146.85 84.6761C146.673 84.5315 146.433 84.2424 146.321 84.0497C146.225 83.8409 146.048 83.6803 145.936 83.6803C145.712 83.6803 145.183 83.1181 145.183 82.8772C145.183 82.7969 144.991 82.6363 144.75 82.5238C144.51 82.4114 144.206 82.1062 144.093 81.8653C143.981 81.6244 143.805 81.4317 143.709 81.4317C143.629 81.4317 143.116 80.9819 142.603 80.4359C142.074 79.8737 141.578 79.3597 141.482 79.2634C141.401 79.1831 140.889 78.6852 140.36 78.1712C139.847 77.6572 139.414 77.1593 139.414 77.0951C139.414 77.0148 139.222 76.8542 138.982 76.7417C138.741 76.6293 138.437 76.3241 138.325 76.0832C138.213 75.8423 138.052 75.6495 137.988 75.6495C137.796 75.6495 137.075 74.9589 136.883 74.6055C136.77 74.3646 136.77 74.204 136.931 73.9952C137.107 73.7382 137.844 73.7222 147.539 73.7222C156.608 73.7222 157.986 73.7543 158.163 73.9631C158.275 74.0916 158.531 74.204 158.739 74.204C158.996 74.204 159.188 74.3646 159.364 74.6859C159.509 74.9589 159.717 75.1677 159.845 75.1677C159.989 75.1677 160.294 75.4568 160.534 75.8102C160.775 76.1474 161.015 76.4366 161.079 76.4526C161.207 76.4526 162.81 78.0266 162.81 78.1551C162.81 78.2997 163.194 78.637 163.499 78.7494C163.643 78.7976 163.851 79.0224 163.947 79.2312C164.043 79.44 164.316 79.7292 164.556 79.8737C164.797 80.0183 165.085 80.3074 165.213 80.5322C165.325 80.7571 165.486 80.9498 165.55 80.9498C165.646 80.9498 167.056 82.315 167.633 82.9736C167.793 83.1502 168.082 83.4393 168.274 83.616C168.995 84.2585 169.331 84.7243 169.412 85.19C169.492 85.5755 169.428 85.6719 168.963 85.8646C168.674 85.9931 168.402 86.0734 168.386 86.0734C168.354 86.0574 168.226 86.0252 168.098 85.9931Z" fill="#9B2149"/>
<path d="M68.1072 85.1419C68.1072 85.0455 77.946 75.1035 79.1799 73.9631C79.3882 73.7543 80.9586 73.7222 90.0122 73.7222C99.4664 73.7222 100.62 73.7543 100.7 73.9792C100.748 74.1076 100.86 74.188 100.941 74.1237C101.021 74.0755 101.149 74.1237 101.197 74.2201C101.261 74.3164 101.005 74.6859 100.62 75.0553L99.9151 75.6977L99.867 75.1998L99.8189 74.6859H89.6757H79.5324L77.3852 76.8542C76.1994 78.0427 75.1418 79.0224 75.0457 79.0224C74.9335 79.0224 74.8374 79.1028 74.8374 79.2152C74.8374 79.44 73.0587 81.271 72.8343 81.271C72.7382 81.271 72.594 81.4317 72.5139 81.6405C72.4177 81.8332 72.1934 82.0581 72.0011 82.1544C71.7928 82.2347 71.6325 82.3793 71.6325 82.4757C71.6325 82.556 71.0236 83.2305 70.2865 83.9694C69.293 84.9491 68.8443 85.2864 68.5239 85.2864C68.2995 85.2864 68.1072 85.2222 68.1072 85.1419Z" fill="#9B2149"/>
<path d="M142.491 84.1619C142.267 83.937 142.139 83.6319 142.139 83.2785V82.7324L142.651 83.2143C142.94 83.4712 143.34 83.8567 143.549 84.0816L143.917 84.4831H143.372C143.052 84.4831 142.699 84.3546 142.491 84.1619Z" fill="#9B2149"/>
<path d="M139.735 81.2229C139.735 81.1265 139.527 80.9338 139.254 80.8214C138.854 80.6447 138.773 80.5162 138.773 80.0504C138.773 79.5686 138.806 79.5204 139.062 79.6489C139.206 79.7292 139.687 80.1789 140.12 80.6126L140.905 81.4317H140.328C139.959 81.4317 139.735 81.3514 139.735 81.2229Z" fill="#9B2149"/>
<path d="M136.722 78.3799C136.53 78.1872 136.37 77.8981 136.37 77.7375C136.37 77.5287 136.258 77.4162 136.081 77.4162C135.921 77.4162 135.569 77.2074 135.28 76.9344C134.832 76.5329 134.767 76.3883 134.88 75.9868L135.008 75.521L136.594 77.1111L138.197 78.7012H137.636C137.283 78.7012 136.931 78.5727 136.722 78.3799Z" fill="#9B2149"/>
<path d="M140.857 71.9556L134.191 71.8752L133.646 71.3452C131.274 69.0966 130.12 67.9241 130.12 67.8117C130.12 67.7314 129.944 67.5868 129.72 67.4905C129.512 67.3941 129.223 67.0889 129.079 66.8159C128.951 66.5589 128.726 66.334 128.614 66.334C128.502 66.334 128.262 66.1413 128.101 65.9164C127.941 65.6755 127.701 65.4025 127.589 65.3061C127.22 65.0009 126.852 64.6315 126.579 64.3103C126.435 64.1497 126.163 63.8927 126.002 63.7642C125.826 63.6357 125.602 63.3627 125.49 63.1699C125.393 62.9611 125.201 62.8005 125.073 62.8005C124.961 62.8005 124.704 62.5435 124.512 62.2384C124.32 61.9332 124.095 61.6762 124.015 61.6762C123.791 61.6762 123.23 61.1462 123.23 60.9213C123.23 60.7928 123.054 60.6162 122.83 60.5198C121.756 60.038 122.541 59.9898 133.598 59.9416C144.59 59.9095 144.654 59.9095 145.087 60.2468C145.311 60.4234 145.504 60.6644 145.504 60.7768C145.504 60.8892 145.68 61.082 145.904 61.1944C146.129 61.3229 146.465 61.6602 146.641 61.9493C146.818 62.2384 147.074 62.4793 147.202 62.4793C147.33 62.4793 147.587 62.7363 147.763 63.0414C147.955 63.3466 148.18 63.6036 148.276 63.6036C148.468 63.6036 150.311 65.5149 150.311 65.7237C150.311 65.788 150.391 65.8522 150.503 65.8522C150.695 65.8522 151.593 66.7998 151.593 67.0086C151.593 67.0729 151.657 67.1371 151.753 67.1371C151.945 67.1371 153.836 69.0484 153.836 69.2572C153.836 69.3215 153.916 69.3857 154.012 69.3857C154.205 69.3857 156.08 71.297 156.08 71.5058C156.08 71.5701 156.192 71.6343 156.32 71.6343C156.656 71.6343 156.624 71.9556 156.288 71.9716C155.374 72.0359 146.545 72.0198 140.857 71.9556Z" fill="#9B2149"/>
<path d="M81.5034 71.6019C81.6636 71.4092 84.3557 68.6948 87.4483 65.5789C91.887 61.1299 93.1849 59.9092 93.5054 59.9092C93.7939 59.9092 93.906 59.9895 93.906 60.2304C93.906 60.4071 93.8099 60.5516 93.6977 60.5516C93.5855 60.5516 93.4093 60.6962 93.2971 60.8729C93.1849 61.0495 92.9927 61.1941 92.8645 61.1941C92.7363 61.1941 92.6241 61.2905 92.6241 61.4029C92.6241 61.6599 91.7908 62.479 91.5345 62.479C91.4223 62.479 91.3422 62.5593 91.3422 62.6396C91.3422 62.8966 90.3647 63.9245 90.1083 63.9245C89.9961 63.9245 89.9 64.0209 89.9 64.1333C89.9 64.3582 88.2335 66.0125 88.0252 66.0125C87.9451 66.0125 87.8169 66.1731 87.7367 66.3819C87.6406 66.5747 87.4163 66.7995 87.224 66.8959C87.0157 66.9762 86.8554 67.1368 86.8554 67.2332C86.8554 67.4581 86.0061 68.2611 85.7658 68.2611C85.6536 68.2611 85.5735 68.3254 85.5735 68.4217C85.5735 68.6627 84.9005 69.3854 84.6601 69.3854C84.548 69.3854 84.4518 69.4657 84.4518 69.5621C84.4518 69.6585 83.9711 70.2367 83.3782 70.847C82.4488 71.7947 82.2084 71.9553 81.7437 71.9553H81.1989L81.5034 71.6019Z" fill="#9B2149"/>
<path d="M130.281 71.7306C130.281 71.6021 130.104 71.4576 129.88 71.4094C129.464 71.297 129.255 70.8151 129.351 70.2048C129.399 69.8996 129.544 69.996 130.441 70.9115L131.467 71.9555H130.874C130.473 71.9555 130.281 71.8752 130.281 71.7306Z" fill="#9B2149"/>
<path d="M125.121 66.7997C124.961 66.7194 124.833 66.4945 124.833 66.3339C124.833 66.1572 124.752 66.0127 124.656 66.0127C124.56 66.0127 124.384 65.9163 124.272 65.8199C124.143 65.7075 123.935 65.5148 123.791 65.4023C123.663 65.2899 123.551 64.9366 123.551 64.6153V64.0371L124.56 64.9847C125.105 65.4987 125.762 66.1733 126.002 66.4624L126.467 66.9764H125.922C125.634 66.9764 125.265 66.896 125.121 66.7997Z" fill="#9B2149"/>
<path d="M120.827 63.0094C120.827 62.3509 121.003 61.8369 121.211 61.8369C121.323 61.8369 121.644 62.0939 121.948 62.3991L122.493 62.9612H122.06C121.788 62.9612 121.628 63.0415 121.628 63.2021C121.628 63.3467 121.484 63.4431 121.227 63.4431C120.891 63.4431 120.827 63.3628 120.827 63.0094Z" fill="#9B2149"/>
<path d="M92.6081 55.5886C92.3837 55.3637 92.1434 55.0425 92.0953 54.8819C92.0312 54.7374 91.8069 54.5286 91.5986 54.4482C91.3742 54.3679 91.0858 54.0788 90.9416 53.8058C90.8134 53.5488 90.589 53.3239 90.4448 53.3239C90.3166 53.3239 90.0602 53.067 89.884 52.7618C89.7077 52.4566 89.4193 52.1675 89.243 52.1193C89.0828 52.0711 88.8264 51.8302 88.6822 51.5893C88.554 51.3484 88.2175 51.0272 87.9611 50.8826C87.7047 50.722 87.4964 50.4971 87.4964 50.3686C87.4964 50.2241 87.2881 50.0153 87.0157 49.8707C86.7593 49.7422 86.4228 49.4049 86.2946 49.148C86.1504 48.8749 85.942 48.6661 85.7978 48.6661C85.6696 48.6661 85.4133 48.4091 85.237 48.104C85.0607 47.7988 84.7723 47.5097 84.596 47.4615C84.4358 47.3973 84.1794 47.1563 84.0672 46.9154C83.939 46.6745 83.6506 46.4015 83.4263 46.289C83.1859 46.1927 82.9295 45.9196 82.8173 45.6948C82.7212 45.486 82.5129 45.2611 82.3526 45.2129C82.0802 45.1165 81.4072 44.3295 81.4072 44.1047C81.4072 44.0565 86.4067 44.0083 92.5119 44.0083H103.601L104.883 45.2932C105.588 46.016 106.886 47.2848 107.751 48.1522C108.632 49.0034 109.417 49.8065 109.513 49.935C109.61 50.0474 110.122 50.5614 110.635 51.0593C111.164 51.5572 111.661 52.0551 111.757 52.1675C112.157 52.6654 113.76 54.2876 113.84 54.2876C113.952 54.2876 115.282 55.7171 115.346 55.9098C115.378 55.9901 110.699 56.0544 104.21 56.0383L93.0247 56.0223L92.6081 55.5886Z" fill="#9B2149"/>
<path d="M143.901 55.7492C143.901 55.5725 143.981 55.3798 144.078 55.3316C144.158 55.2673 144.302 55.0425 144.382 54.8337C144.478 54.6088 144.67 54.4482 144.847 54.4482C145.039 54.4482 145.247 54.2394 145.408 53.9021C145.584 53.5166 145.808 53.3239 146.129 53.2436C146.497 53.1633 146.625 53.0187 146.705 52.6654C146.77 52.3602 146.962 52.1193 147.186 52.039C147.394 51.9587 147.651 51.6856 147.779 51.4447C147.923 51.1556 148.132 50.9789 148.404 50.9468C148.724 50.9147 148.869 50.7701 148.965 50.3846C149.077 50.0152 149.253 49.8386 149.622 49.7261C150.006 49.6298 150.151 49.4852 150.183 49.164C150.215 48.8749 150.343 48.7303 150.583 48.6982C150.792 48.6661 151.032 48.4251 151.176 48.1039C151.32 47.7988 151.641 47.4615 151.865 47.349C152.106 47.2366 152.394 46.9636 152.49 46.7548C152.602 46.546 152.843 46.305 153.051 46.1926C153.259 46.0962 153.532 45.8071 153.644 45.5662C153.788 45.2771 153.98 45.1326 154.221 45.1326C154.493 45.1326 154.621 45.0041 154.734 44.6186C154.878 44.1207 154.942 44.0886 155.711 44.0404L156.544 43.9922L154.317 46.2408C153.083 47.4936 152.009 48.5055 151.913 48.5055C151.833 48.5055 151.753 48.5697 151.753 48.65C151.753 48.8588 145.856 54.7694 145.664 54.7694C145.568 54.7694 145.504 54.8497 145.504 54.9622C145.504 55.0746 145.311 55.3637 145.071 55.6046C144.558 56.1346 143.901 56.215 143.901 55.7492Z" fill="#9B2149"/>
<path d="M121.099 54.0467C120.827 53.8539 120.81 53.2275 120.827 43.414C120.827 37.6961 120.859 32.8455 120.891 32.6528C121.003 32.0746 121.451 31.3518 121.756 31.2555C121.916 31.2073 122.173 30.9342 122.333 30.6612C122.493 30.4042 122.797 30.099 123.006 30.0027C123.214 29.9063 123.422 29.6975 123.487 29.5208C123.535 29.3602 123.775 29.1193 124.015 29.0068C124.256 28.8784 124.528 28.5892 124.64 28.3644C124.736 28.1235 125.009 27.8665 125.233 27.7541C125.457 27.6577 125.634 27.5131 125.634 27.4489C125.634 27.3686 126.355 26.6137 127.236 25.7464C128.101 24.8791 128.903 24.092 129.015 23.9796C129.111 23.8832 129.816 23.1444 130.601 22.3574C132.172 20.7513 132.54 20.4782 132.813 20.7513C133.053 20.9922 133.085 41.856 132.861 42.4342C132.684 42.8679 131.338 44.3295 131.098 44.3295C131.018 44.3295 130.81 44.5383 130.665 44.7953C130.505 45.0522 130.217 45.3413 130.008 45.4377C129.816 45.5341 129.64 45.6786 129.64 45.7429C129.64 45.9517 128.887 46.7387 128.694 46.7387C128.598 46.7387 128.438 46.8993 128.342 47.092C128.101 47.5578 127.877 47.7666 127.525 47.9112C127.364 47.9594 127.236 48.0718 127.236 48.1521C127.236 48.3448 123.086 52.5208 122.894 52.5208C122.814 52.5208 122.669 52.6975 122.573 52.9063C122.477 53.1151 122.221 53.3881 121.996 53.5006C121.772 53.6291 121.548 53.8379 121.484 53.9985C121.403 54.2233 121.339 54.2233 121.099 54.0467Z" fill="#9B2149"/>
<path d="M78.7632 41.6475C78.5549 41.5351 78.3306 41.2942 78.2825 41.1175C78.2184 40.9408 77.962 40.6838 77.7056 40.5393C77.4493 40.4108 77.1448 40.1217 77.0487 39.9129C76.9525 39.688 76.8083 39.5114 76.7442 39.5114C76.5519 39.5114 74.6771 37.6482 74.6771 37.4555C74.6771 37.3591 74.4688 37.1664 74.1964 37.0218C73.94 36.8773 73.7156 36.6685 73.7156 36.5239C73.7156 36.3954 73.4593 36.1384 73.1548 35.9618C72.8503 35.7851 72.5619 35.496 72.5138 35.3193C72.4497 35.1587 72.1934 34.9017 71.937 34.7572C71.6806 34.6287 71.3922 34.3396 71.312 34.1147C71.2319 33.9059 70.9755 33.6489 70.7512 33.5686C70.5269 33.4883 70.2865 33.2795 70.2384 33.135C70.1102 32.7816 69.934 32.6049 69.3571 32.2355C69.1007 32.0749 68.9084 31.8661 68.9084 31.7537C68.9084 31.6412 68.7642 31.4324 68.5879 31.2718C68.1553 30.9024 68.1873 30.5491 68.6841 30.0993L69.0847 29.7139H79.2119H89.3552L91.919 32.2676C93.3452 33.681 94.6271 35.0141 94.7713 35.239C94.9155 35.4639 95.0918 35.6566 95.1719 35.6566C95.3482 35.6566 100.22 40.5553 100.556 41.0533C100.684 41.2621 100.909 41.4387 101.053 41.4387C101.197 41.4387 101.277 41.5351 101.229 41.6475C101.133 41.9366 79.3241 41.9366 78.7632 41.6475Z" fill="#9B2149"/>
<path d="M158.964 40.8766C158.964 40.5714 159.028 40.3144 159.108 40.3144C159.188 40.3144 159.332 40.1056 159.429 39.8326C159.509 39.5595 159.701 39.3507 159.845 39.3507C160.182 39.3507 160.566 38.9653 160.566 38.644C160.566 38.5155 160.807 38.2907 161.111 38.1461C161.448 37.9855 161.688 37.7446 161.72 37.5358C161.752 37.3431 161.976 37.0861 162.217 36.9736C162.457 36.8451 162.73 36.5721 162.81 36.3633C162.938 36.0581 163.082 35.9778 163.531 35.9778C164.06 35.9778 164.092 35.9457 164.092 35.4157C164.092 34.9499 164.172 34.8375 164.636 34.6126C164.973 34.452 165.213 34.2111 165.245 34.0023C165.277 33.8095 165.438 33.6329 165.598 33.6007C165.998 33.5204 166.335 33.1831 166.335 32.8619C166.335 32.7334 166.575 32.5086 166.88 32.364C167.216 32.2034 167.505 31.9143 167.601 31.6252C167.681 31.3682 167.857 31.1594 167.985 31.1594C168.114 31.1594 168.306 31.047 168.418 30.9185C168.594 30.7097 167.553 30.6776 159.14 30.6776H149.67V30.2921C149.67 30.0351 149.782 29.8745 150.038 29.8102C150.679 29.6496 168.771 29.6978 168.658 29.8745C168.61 29.9708 168.675 30.0351 168.803 30.0351C169.043 30.0351 169.604 30.9827 169.46 31.1273C169.412 31.1755 169.38 31.1594 169.38 31.0791C169.38 30.9988 169.123 31.2879 168.803 31.6894C168.482 32.107 168.114 32.4443 168.001 32.4443C167.873 32.4443 167.777 32.5086 167.777 32.6049C167.777 32.7977 164.46 36.1384 164.268 36.1384C164.188 36.1384 164.092 36.283 164.044 36.4757C163.995 36.6524 163.803 36.8451 163.627 36.8933C163.435 36.9415 163.29 37.0379 163.29 37.1021C163.29 37.2467 159.188 41.4387 159.044 41.4387C158.996 41.4387 158.964 41.1817 158.964 40.8766Z" fill="#9B2149"/>
<path d="M134.848 40.1216C134.8 39.9128 134.784 34.8695 134.8 28.8946L134.848 18.0371L136.53 16.3988C137.46 15.5155 138.261 14.7284 138.325 14.6642C138.469 14.4875 140.312 12.6405 140.52 12.4477C140.616 12.3674 141.417 11.5483 142.299 10.6488C143.18 9.73333 143.965 8.9945 144.045 8.9945C144.126 8.9945 144.238 8.84995 144.302 8.67327C144.35 8.4966 144.606 8.23961 144.879 8.079C145.135 7.91839 145.391 7.67746 145.44 7.51685C145.568 7.09925 146.113 6.98682 146.481 7.32411C146.77 7.59716 146.786 7.93445 146.786 18.1335V28.6698L145.327 30.1635C144.542 30.9666 143.821 31.6412 143.741 31.6412C143.661 31.6412 143.517 31.7857 143.42 31.9624C143.324 32.1391 142.876 32.6209 142.427 33.0385C141.337 34.0504 141.145 34.2592 140.857 34.6607C140.728 34.8534 140.568 35.0141 140.488 35.0141C140.36 35.0141 138.774 36.5399 138.774 36.6684C138.774 36.7487 136.963 38.5797 135.665 39.8004C134.96 40.4589 134.928 40.4749 134.848 40.1216Z" fill="#9B2149"/>
<path d="M104.786 39.6398C104.738 37.7767 104.722 20.6231 104.77 20.5267C104.931 20.1734 106.293 21.394 111.036 26.1482C116.933 32.0588 117.269 32.4443 116.5 32.4443C116.035 32.4443 115.378 31.9785 115.378 31.6573C115.378 31.5127 115.154 31.3039 114.882 31.1754C114.609 31.063 114.353 30.8382 114.289 30.6936C114.193 30.4045 113.503 29.7139 113.311 29.7139C113.247 29.7139 113.103 29.5532 112.991 29.3444C112.879 29.1356 112.574 28.8465 112.318 28.6859C112.061 28.5414 111.853 28.3165 111.853 28.2041C111.853 28.0756 111.741 27.9471 111.613 27.8828C111.484 27.8347 111.372 27.6419 111.372 27.4653C111.372 27.2565 111.26 27.144 111.052 27.144C110.892 27.144 110.683 27.0477 110.619 26.9352C110.555 26.8067 110.299 26.5819 110.042 26.4213C109.802 26.2767 109.562 25.9876 109.513 25.7949C109.465 25.6021 109.225 25.3612 108.953 25.2648C108.696 25.1685 108.488 24.9918 108.488 24.8633C108.488 24.7509 108.328 24.526 108.135 24.3815C107.462 23.8675 106.084 22.5023 106.084 22.3256C106.084 22.2453 106.02 22.165 105.924 22.165C105.844 22.165 105.764 22.0525 105.764 21.9241C105.764 21.7956 105.7 21.6831 105.604 21.6831C105.491 21.6831 105.443 24.8954 105.443 30.9988C105.443 40.202 105.443 40.3144 105.123 40.3144C104.85 40.3144 104.802 40.202 104.786 39.6398Z" fill="#9B2149"/>
<path d="M102.239 18.4866C102.239 18.4063 102.094 18.2778 101.918 18.2296C101.742 18.1814 101.566 17.9726 101.501 17.7799C101.453 17.5872 101.181 17.3141 100.909 17.1696C100.572 17.009 100.38 16.7841 100.348 16.5111C100.316 16.2059 100.187 16.0774 99.8189 15.9971C99.5465 15.9489 99.2741 15.7562 99.178 15.5313C99.0818 15.3225 98.7934 15.0334 98.537 14.8728C98.2326 14.6961 98.0723 14.4713 98.0723 14.1982C98.0723 13.9252 97.9762 13.8127 97.7679 13.8127C97.4153 13.8127 96.6301 13.1221 96.6301 12.8009C96.6301 12.6724 96.4539 12.5118 96.2295 12.4636C96.0052 12.3993 95.8289 12.2869 95.8289 12.1905C95.8289 11.9817 95.5726 11.7408 94.9957 11.3553C94.7393 11.1947 94.547 11.002 94.547 10.8895C94.547 10.7129 93.9381 10.1186 93.7458 10.1186C93.6817 10.1186 93.5535 9.95799 93.4413 9.74919C93.3292 9.54039 93.0247 9.25128 92.7683 9.09067C92.5119 8.94611 92.3036 8.70519 92.3036 8.5767C92.3036 8.44821 92.2395 8.35184 92.1434 8.35184C92.0633 8.35184 91.9832 8.09486 91.9832 7.78969C91.9832 7.48452 92.0152 7.22754 92.0633 7.22754C92.2556 7.22754 103.04 18.1814 103.04 18.3902C103.04 18.5348 102.88 18.6312 102.639 18.6312C102.415 18.6312 102.239 18.5669 102.239 18.4866Z" fill="#9B2149"/>
<path d="M145.824 108.655C145.824 108.527 145.744 108.414 145.648 108.414C145.568 108.414 145.536 108.511 145.6 108.623C145.664 108.72 145.664 108.768 145.584 108.704C145.52 108.639 145.375 108.414 145.279 108.222C145.167 108.013 144.991 107.852 144.863 107.852C144.734 107.852 144.622 107.74 144.622 107.611C144.622 107.274 142.139 104.865 141.914 104.993C141.818 105.042 141.786 105.042 141.85 104.977C141.898 104.913 141.834 104.704 141.69 104.528C141.193 103.933 138.261 101.026 138.133 101.026C138.084 101.026 137.924 100.85 137.812 100.625C137.7 100.416 137.476 100.191 137.347 100.143C137.203 100.095 136.947 99.8377 136.786 99.5646C136.61 99.2755 136.418 99.1149 136.274 99.1631C136.146 99.2113 136.049 99.1631 136.049 99.0506C136.049 98.9382 135.761 98.5206 135.408 98.1351L134.767 97.4284L134.783 86.8118C134.8 80.9815 134.864 76.0346 134.928 75.8097C135.056 75.4242 135.104 75.4242 135.152 75.8579C135.168 75.9543 135.248 76.0346 135.328 76.0185C135.424 76.0185 135.585 76.0988 135.697 76.2273C135.809 76.3558 135.857 76.4522 135.809 76.4522C135.745 76.4522 136.049 76.7413 136.45 77.0946C136.851 77.448 137.139 77.7371 137.059 77.7371C136.995 77.7371 137.187 77.9138 137.492 78.1226C138.133 78.5562 139.334 79.8411 139.286 80.0339C139.27 80.0981 139.318 80.1463 139.414 80.1463C139.495 80.1463 140.328 80.9012 141.273 81.8328C142.203 82.7643 142.908 83.5192 142.844 83.5192C142.763 83.5192 142.892 83.6477 143.1 83.7923C143.805 84.2741 145.824 86.3139 145.824 86.5388C145.824 86.6512 145.888 86.7154 145.968 86.6512C146.048 86.603 146.273 86.7636 146.465 87.0045C146.77 87.39 146.786 87.4543 146.561 87.5025C146.257 87.5667 146.225 87.9522 146.513 88.0646C146.673 88.1289 146.673 88.161 146.513 88.161C146.385 88.177 146.305 88.434 146.305 88.8837C146.305 89.3013 146.385 89.6226 146.513 89.6707C146.673 89.735 146.673 89.7671 146.513 89.7671C146.241 89.7832 146.209 107.387 146.465 107.483C146.561 107.515 146.657 107.756 146.673 108.013C146.705 108.431 146.657 108.495 146.353 108.447C145.968 108.398 145.84 108.655 146.193 108.784C146.305 108.832 146.273 108.88 146.113 108.88C145.952 108.896 145.824 108.784 145.824 108.655Z" fill="#631032"/>
<path d="M131.979 94.7143C131.835 94.5055 131.547 94.2324 131.322 94.12C131.098 94.0076 130.89 93.7667 130.826 93.606C130.777 93.4294 130.633 93.333 130.505 93.3812C130.393 93.4294 130.297 93.4133 130.329 93.3491C130.393 93.1242 129.544 92.2408 128.871 91.8072C128.502 91.5823 128.198 91.2771 128.198 91.1486C128.198 91.0201 128.101 90.8595 127.989 90.7953C127.861 90.731 127.653 90.4741 127.509 90.2492C127.348 90.0243 127.06 89.7513 126.852 89.6389C126.643 89.5264 126.371 89.2534 126.259 89.0446C126.147 88.8197 125.954 88.6912 125.842 88.7234C125.73 88.7715 125.65 88.7555 125.682 88.6912C125.73 88.5306 125.49 88.2576 123.823 86.5551C123.038 85.768 122.333 85.1577 122.253 85.222C122.173 85.2701 122.108 85.222 122.108 85.1256C122.108 84.965 122.012 84.8204 121.467 84.178C120.81 83.407 120.827 83.5516 120.827 73.0795C120.827 66.4461 120.875 62.9608 120.987 62.9608C121.083 62.9608 121.147 62.752 121.147 62.5111C121.147 62.2541 121.195 61.9971 121.243 61.9489C121.387 61.8204 124.352 64.7597 124.256 64.9203C124.208 64.9845 124.24 65.0488 124.304 65.0488C124.544 65.0488 125.473 65.884 125.377 66.0285C125.345 66.0928 125.506 66.2694 125.746 66.3979C126.339 66.7031 130.153 70.59 130.008 70.7185C129.96 70.7827 129.992 70.8309 130.104 70.8309C130.393 70.8309 132.636 73.0474 132.829 73.5292C132.957 73.8344 132.989 77.0146 132.973 84.3065L132.925 94.65L132.572 94.8749C132.252 95.0837 132.204 95.0676 131.979 94.7143Z" fill="#631032"/>
<path d="M79.0036 86.0891C73.4112 86.0409 68.7162 85.9445 68.5559 85.8803C67.8188 85.5109 68.0431 85.2218 72.1293 81.1422C74.3246 78.9417 76.0712 77.0947 75.9911 77.0144C75.927 76.9341 75.959 76.918 76.0392 76.9822C76.1353 77.0304 76.8564 76.4201 77.6416 75.6331L79.0677 74.2036H89.8359C99.21 74.2036 100.62 74.2357 100.796 74.4445C100.941 74.6212 100.941 74.6855 100.812 74.6855C100.7 74.6855 100.668 74.7658 100.732 74.8782C100.796 74.9906 100.78 75.0067 100.652 74.9424C100.556 74.8782 100.428 74.9424 100.364 75.1031C100.236 75.4564 90.1243 85.6072 89.5795 85.9285C89.227 86.1373 87.865 86.1533 79.0036 86.0891Z" fill="#631032"/>
<path d="M81.92 71.3605C82.2405 71.0232 82.8815 70.3808 83.3141 69.915C83.7628 69.4492 84.1313 68.9995 84.1313 68.9031C84.1313 68.8228 84.1794 68.7586 84.2595 68.7746C84.4358 68.8389 86.3747 66.9275 86.3747 66.7027C86.3747 66.5903 86.4869 66.4939 86.6151 66.4939C86.7433 66.4939 87.0637 66.1887 87.3362 65.8193C87.5925 65.466 87.8169 65.225 87.8169 65.2893C87.8169 65.3535 88.7943 64.438 89.9801 63.2495C91.1659 62.0449 92.1434 61.0009 92.1434 60.9045C92.1434 60.8242 92.2876 60.7118 92.4799 60.6636C92.6562 60.6154 92.8484 60.4227 92.8965 60.246C92.9766 59.9248 93.0247 59.9248 104.081 59.9087C110.603 59.9087 115.234 59.9729 115.282 60.0532C115.33 60.1336 112.75 62.8479 109.53 66.0763L103.681 71.9548H92.5119H81.3431L81.92 71.3605Z" fill="#631032"/>
<path d="M122.525 55.9415C122.413 55.829 122.557 55.6684 124.208 54.0462C124.736 53.5162 125.265 52.9862 125.361 52.8737C125.474 52.7613 125.73 52.5043 125.938 52.3116C126.147 52.1188 126.435 51.8137 126.579 51.6531C126.723 51.4924 126.98 51.2355 127.14 51.0909C127.3 50.9464 127.557 50.7054 127.701 50.5288C128.358 49.7739 129.672 48.505 129.8 48.505C129.88 48.505 130.072 48.2962 130.217 48.0392C130.377 47.7823 130.665 47.4771 130.874 47.3647C131.066 47.2522 131.274 47.0595 131.322 46.9149C131.37 46.7704 131.563 46.5455 131.755 46.417C131.931 46.2885 132.204 46.0476 132.348 45.887C132.492 45.7264 132.941 45.2285 133.357 44.7948L134.11 44.0078H145.103C154.91 44.0078 156.897 44.0721 155.791 44.3612C155.615 44.4093 155.326 44.7948 155.118 45.2124C154.878 45.6943 154.717 45.9031 154.637 45.7746C154.573 45.6621 154.429 45.63 154.333 45.6782C154.237 45.7424 154.189 45.8709 154.253 45.9512C154.349 46.1279 153.708 46.7222 153.387 46.7383C153.275 46.7383 153.131 46.8668 153.083 47.0274C152.923 47.4771 152.49 47.9429 152.234 47.9429C152.122 47.9429 151.833 48.2802 151.609 48.6978C151.384 49.1314 151.16 49.3884 151.096 49.276C150.952 49.0511 150.631 49.2599 150.631 49.5972C150.631 49.9024 150.183 50.3521 149.862 50.3521C149.766 50.3521 149.542 50.6091 149.381 50.9142C149.205 51.2676 148.997 51.4764 148.789 51.4764C148.596 51.4764 148.388 51.6531 148.26 51.9422C148.132 52.1992 147.891 52.4401 147.715 52.4883C147.555 52.5204 147.314 52.8095 147.186 53.0986C147.042 53.4519 146.818 53.6768 146.545 53.7411C146.305 53.8053 146.048 53.998 145.968 54.1908C145.664 54.8654 145.343 55.3311 145.343 55.1223C145.343 54.9938 145.247 54.9296 145.151 54.9778C145.039 55.0099 144.959 55.1384 144.991 55.2348C145.007 55.3472 144.863 55.5721 144.67 55.7327C144.318 56.0378 143.869 56.0378 133.47 56.0539C127.509 56.0539 122.589 56.0057 122.525 55.9415Z" fill="#631032"/>
<path d="M116.244 53.966C116.083 53.8053 114.737 52.4562 113.247 50.9946C111.773 49.5169 110.491 48.1838 110.411 48.0072C110.315 47.8465 110.171 47.702 110.09 47.702C109.962 47.702 106.934 44.7306 105.732 43.4296C105.572 43.253 105.299 42.9799 105.107 42.8032C104.786 42.4981 104.77 42.3696 104.851 40.6671C104.899 39.591 104.883 38.9003 104.786 38.9646C104.706 39.0127 104.642 38.9324 104.642 38.8039C104.642 38.6594 104.722 38.547 104.802 38.547C104.915 38.547 104.963 35.4632 104.963 29.6329C104.963 20.783 104.963 20.7188 105.283 20.7188C105.459 20.7188 105.652 20.8312 105.7 20.9597C105.764 21.0882 105.86 21.1685 105.924 21.1203C106.004 21.0721 106.1 21.1845 106.165 21.3612C106.213 21.5379 106.341 21.6824 106.421 21.6824C106.501 21.6824 106.565 21.7949 106.565 21.9234C106.565 22.1964 107.11 22.5176 107.286 22.357C107.366 22.2928 107.366 22.3249 107.318 22.4213C107.19 22.6461 107.735 23.1762 107.927 23.0155C107.991 22.9352 108.007 23.0155 107.943 23.1922C107.863 23.4171 107.911 23.4653 108.087 23.385C108.232 23.3368 108.312 23.3528 108.264 23.4171C108.168 23.5777 108.728 24.0917 108.985 24.0917C109.081 24.0917 109.129 24.2041 109.065 24.3326C109.017 24.4771 109.113 24.6377 109.337 24.7502C109.786 24.9911 110.251 25.4729 110.155 25.5854C110.106 25.6336 110.203 25.746 110.379 25.8424C110.555 25.9387 110.828 26.1475 110.988 26.2921C111.148 26.4527 111.34 26.5812 111.436 26.5812C111.533 26.5812 111.693 26.7579 111.789 26.9667C111.901 27.1755 112.109 27.4164 112.238 27.4967C112.382 27.577 112.462 27.7055 112.414 27.7858C112.334 27.9143 112.847 28.2998 112.991 28.2194C113.023 28.2034 113.039 28.2194 113.023 28.2516C112.991 28.2837 113.151 28.4764 113.375 28.6692C113.584 28.878 113.712 29.0868 113.648 29.1671C113.584 29.2313 113.68 29.2313 113.856 29.1671C114.032 29.1028 114.128 29.1028 114.064 29.151C113.936 29.2795 114.513 29.8738 114.737 29.8738C114.834 29.8738 114.898 30.0023 114.866 30.1629C114.834 30.3396 114.914 30.4359 115.09 30.4199C115.25 30.4038 115.346 30.452 115.298 30.5162C115.25 30.5805 115.41 30.7572 115.619 30.9017C115.843 31.0463 115.987 31.2229 115.955 31.3032C115.907 31.3675 116.083 31.5924 116.356 31.7851L116.837 32.1384L116.805 43.1405C116.788 49.1796 116.724 54.1587 116.66 54.2069C116.596 54.239 116.404 54.1426 116.244 53.966Z" fill="#631032"/>
<path d="M136.722 41.888C136.514 41.6792 136.37 41.8398 139.863 38.3063C141.305 36.8447 142.539 35.6561 142.619 35.6561C142.699 35.6561 142.86 35.4955 142.956 35.3028C143.196 34.837 143.677 34.3552 143.789 34.4676C143.837 34.5158 143.949 34.4034 144.061 34.2267C144.222 33.9215 145.263 32.8293 146.081 32.1066C146.257 31.962 146.497 31.705 146.625 31.5284C146.754 31.3677 147.218 30.918 147.651 30.5486C148.356 29.9383 148.516 29.874 149.285 29.874C149.766 29.874 150.151 29.9543 150.151 30.0346C150.151 30.1471 153.275 30.1953 159.637 30.1953C164.845 30.1792 169.155 30.2434 169.219 30.3077C169.428 30.5325 169.588 31.2071 169.412 31.0947C169.315 31.0465 169.107 31.1589 168.947 31.3677C168.787 31.5765 168.562 31.7211 168.45 31.6729C168.354 31.6408 168.21 31.7532 168.146 31.9138C168.001 32.3475 167.585 32.7811 167.184 32.9418C166.96 33.0221 166.816 33.2148 166.816 33.4075C166.816 33.5842 166.752 33.7288 166.671 33.7288C166.591 33.7288 166.463 33.8894 166.415 34.0661C166.335 34.323 166.271 34.3552 166.175 34.2106C166.031 33.9697 165.694 34.1303 165.694 34.4676C165.694 34.7567 165.197 35.2546 164.893 35.2546C164.765 35.2546 164.636 35.3992 164.604 35.5758C164.524 35.9774 164.028 36.4592 163.691 36.4592C163.563 36.4592 163.371 36.6359 163.29 36.8447C163.21 37.0535 162.954 37.3265 162.698 37.455C162.457 37.5675 162.233 37.8084 162.201 37.9851C162.153 38.1617 162.041 38.3705 161.912 38.4348C161.784 38.499 161.688 38.6918 161.688 38.8363C161.688 39.0612 161.656 39.0612 161.544 38.8845C161.368 38.5954 161.047 38.8042 161.047 39.2057C161.047 39.3663 160.983 39.5109 160.919 39.5109C160.839 39.5109 160.694 39.6715 160.598 39.8803C160.502 40.073 160.422 40.1373 160.422 40.0409C160.39 39.6554 160.07 39.8321 159.909 40.314C159.813 40.587 159.669 40.7958 159.589 40.7958C159.509 40.7958 159.445 40.9082 159.445 41.0367C159.445 41.1652 159.124 41.4543 158.756 41.6792L158.051 42.0807H147.491C139.703 42.0807 136.867 42.0325 136.722 41.888Z" fill="#631032"/>
<path d="M102.367 40.0248C102.126 39.7839 101.774 39.4305 101.566 39.2378C100.989 38.6756 100.845 38.5311 99.835 37.5031C99.3222 36.9731 98.7774 36.427 98.6492 36.2985C98.505 36.17 98.0243 35.6721 97.5596 35.2064C97.0949 34.7245 96.5821 34.2266 96.4379 34.0821C96.0853 33.7448 95.5085 33.1666 95.1559 32.7971C95.0117 32.6526 94.8034 32.4599 94.7073 32.3635C94.6111 32.2832 94.3708 32.0262 94.1625 31.8013C93.9541 31.5765 93.169 30.8055 92.3998 30.0667L91.0217 28.7175V17.9885C91.0217 7.38792 91.0217 7.24337 91.3422 7.147C91.7909 7.00245 92.2716 7.19518 92.3838 7.54854C92.4318 7.70915 92.5921 7.88583 92.7203 7.93401C92.8485 7.9822 92.9286 8.09463 92.8645 8.17493C92.7684 8.35161 93.3132 8.70496 93.4894 8.59253C93.5375 8.54435 93.5535 8.56041 93.5055 8.62465C93.4734 8.67284 93.6016 8.88164 93.8259 9.07437C94.0343 9.28317 94.1625 9.49197 94.1144 9.54016C94.0503 9.58834 94.0823 9.63653 94.1785 9.63653C94.3868 9.63653 94.8996 10.1184 95.1239 10.5199C95.2361 10.6966 95.4284 10.8251 95.5726 10.8251C95.7168 10.809 95.7969 10.8411 95.7488 10.9054C95.7168 10.9696 95.861 11.1463 96.0693 11.3069C96.2937 11.4675 96.4218 11.6603 96.3898 11.7406C96.3417 11.8048 96.4539 11.9012 96.6302 11.9654C96.8064 12.0297 97.0628 12.2545 97.175 12.4955C97.3032 12.7364 97.7038 13.1058 98.0563 13.3307C98.4249 13.5555 98.6812 13.8125 98.6492 13.9249C98.6011 14.0213 98.7614 14.2301 99.0017 14.3907C99.4985 14.7119 99.835 15.0332 99.8831 15.2098C99.8991 15.2741 100.011 15.3223 100.123 15.3223C100.236 15.3062 100.3 15.3223 100.252 15.3705C100.204 15.4186 100.348 15.5953 100.556 15.772C100.78 15.9487 100.925 16.1414 100.877 16.2217C100.828 16.286 101.005 16.4787 101.245 16.6233C101.79 16.9766 102.239 17.4424 102.142 17.5548C102.094 17.5869 102.287 17.6994 102.543 17.7957L103.04 17.9724V29.1351C103.04 35.2706 102.976 40.33 102.912 40.3781C102.831 40.4263 102.591 40.2657 102.367 40.0248Z" fill="#631032"/>
</svg>
