<svg width="689" height="122" viewBox="0 0 689 122" fill="none" xmlns="http://www.w3.org/2000/svg">
<path d="M471.64 21.009C468.788 21.009 465.844 23.815 465.844 30.692C465.844 33.82 466.373 37.454 467.753 40.513C469.34 43.802 471.87 45.251 474.147 45.251C477.436 45.251 480.334 42.813 480.334 36.787C480.334 33.383 479.483 29.289 478.08 26.368C476.562 23.033 474.101 21.009 471.64 21.009ZM457.242 33.613C457.242 23.769 463.498 16.961 472.652 16.961C481.116 16.961 488.361 23.102 488.361 34.119C488.361 44.538 481.53 49.782 472.974 49.782C463.13 49.782 457.242 43.02 457.242 33.613ZM501.424 37.017V41.594C501.424 44.193 502.321 45.113 503.839 45.757C504.943 46.263 505.886 46.654 505.886 47.597C505.886 48.747 504.897 49.115 503.425 49.115C502.068 49.115 499.4 49 497.905 49C496.318 49 494.34 49.115 493.236 49.115C491.971 49.115 491.419 48.609 491.419 47.85C491.419 46.309 493.604 46.378 493.972 43.779C494.179 42.468 494.248 37.109 494.248 32.647C494.248 29.519 494.225 25.149 494.156 24.16C493.857 20.526 491.603 20.733 491.603 18.962C491.603 18.203 491.971 17.605 493.259 17.605C495.582 17.605 498.273 17.72 503.563 17.72C508.14 17.72 510.624 17.605 512.28 17.605C513.913 17.605 514.465 17.904 514.787 19.997C514.971 20.986 515.247 22.803 515.592 24.574C515.753 25.356 515.868 26.253 515.868 26.552C515.868 27.518 515.27 27.909 514.626 27.909C513.683 27.909 513.223 26.897 512.717 25.954C510.946 22.389 510.095 21.515 505.15 21.515C501.999 21.515 501.424 21.952 501.424 24.482V28.507C501.424 30.416 501.746 30.761 502.62 30.761C506.415 30.761 506.668 29.45 507.542 28.047C507.818 27.656 508.14 27.38 508.577 27.38C509.451 27.38 509.819 28.116 509.819 30.186V36.833C509.819 38.052 509.566 38.719 508.715 38.719C507.795 38.719 507.427 37.914 507.128 37.247C506.346 35.591 505.932 34.786 502.758 34.786C501.769 34.786 501.424 35.338 501.424 37.017ZM529.323 17.605C530.542 17.605 530.956 18.203 530.956 18.962C530.956 20.733 528.748 20.48 528.426 24.114C528.311 25.126 528.288 28.507 528.288 32.647C528.288 37.822 528.403 42.353 528.587 43.71C529.001 46.355 531.14 46.286 531.14 47.85C531.14 48.54 530.542 49.115 529.323 49.115C527.966 49.115 526.218 49 524.723 49C523.182 49 521.411 49.115 520.054 49.115C518.789 49.115 518.237 48.54 518.237 47.85C518.237 46.286 520.445 46.332 520.813 43.71C520.997 42.445 521.066 37.04 521.066 32.647C521.066 29.542 521.066 25.149 520.997 24.114C520.698 20.503 518.421 20.71 518.421 18.962C518.421 18.203 518.789 17.605 520.077 17.605C521.48 17.605 523.228 17.72 524.723 17.72C526.264 17.72 528.012 17.605 529.323 17.605ZM534.17 33.475C534.17 25.057 539.161 16.938 549.212 16.938C552.754 16.938 554.41 18.042 555.859 18.042C556.894 18.042 557.561 17.559 558.481 17.559C560.252 17.559 560.298 19.33 560.85 22.067C561.448 25.172 561.77 25.931 561.77 26.575C561.77 27.564 561.195 28.024 560.528 28.024C559.309 28.024 558.688 26.621 557.676 25.172C555.56 22.205 552.777 20.503 550.017 20.503C544.934 20.503 542.312 25.264 542.312 30.738C542.312 37.822 546.153 43.549 552.409 43.549C556.733 43.549 559.217 40.789 560.413 38.535C560.827 37.868 561.172 37.316 561.655 37.316C562.322 37.316 562.575 38.236 562.575 38.995C562.575 40.49 562.115 42.192 561.149 43.756C559.171 46.953 555.077 49.782 549.258 49.782C539.552 49.782 534.17 42.1 534.17 33.475ZM576.671 17.605C577.89 17.605 578.304 18.203 578.304 18.962C578.304 20.733 576.096 20.48 575.774 24.114C575.659 25.126 575.636 28.507 575.636 32.647C575.636 37.822 575.751 42.353 575.935 43.71C576.349 46.355 578.488 46.286 578.488 47.85C578.488 48.54 577.89 49.115 576.671 49.115C575.314 49.115 573.566 49 572.071 49C570.53 49 568.759 49.115 567.402 49.115C566.137 49.115 565.585 48.54 565.585 47.85C565.585 46.286 567.793 46.332 568.161 43.71C568.345 42.445 568.414 37.04 568.414 32.647C568.414 29.542 568.414 25.149 568.345 24.114C568.046 20.503 565.769 20.71 565.769 18.962C565.769 18.203 566.137 17.605 567.425 17.605C568.828 17.605 570.576 17.72 572.071 17.72C573.612 17.72 575.36 17.605 576.671 17.605ZM590.971 36.258H597.043C597.503 36.258 597.595 36.097 597.595 35.844C597.595 35.154 595.64 29.427 594.536 27.288C594.421 27.035 594.214 26.759 594.076 26.759C593.892 26.759 593.754 27.035 593.616 27.288C592.604 29.312 590.442 35.269 590.442 35.844C590.442 36.097 590.557 36.258 590.971 36.258ZM583.45 42.859L590.442 24.643C591.04 23.01 591.431 21.377 591.638 20.158C591.96 18.571 595.479 17.007 596.974 17.007C598.193 17.007 598.607 17.858 599.044 19.031L608.313 42.905C608.589 43.618 609.141 44.814 610.337 45.849C610.797 46.263 611.533 46.838 611.533 47.574C611.533 48.816 610.636 49.115 608.819 49.115C607.577 49.115 606.45 49 604.288 49C602.126 49 600.93 49.115 599.573 49.115C598.216 49.115 597.572 48.586 597.572 47.689C597.572 46.378 600.286 45.895 600.286 43.802C600.286 43.434 599.711 41.709 599.251 40.881C599.09 40.582 598.722 40.352 598.262 40.352H590.281C589.683 40.352 589.246 40.582 588.97 40.881C588.51 41.571 587.751 43.388 587.751 44.17C587.751 46.194 590.143 46.493 590.143 47.804C590.143 48.54 589.706 49.115 588.211 49.115C587.222 49.115 585.543 49 584.485 49C583.404 49 582.714 49.115 581.702 49.115C580.713 49.115 580.184 48.655 580.184 47.827C580.184 46.378 582.047 46.493 583.45 42.859ZM616.031 32.647C616.031 29.542 616.031 25.149 615.962 24.114C615.663 20.503 613.386 20.71 613.386 18.962C613.386 18.203 613.754 17.605 615.042 17.605C616.445 17.605 618.193 17.72 619.688 17.72C621.229 17.72 623.759 17.605 625.093 17.605C626.312 17.605 626.726 18.203 626.726 18.962C626.726 20.917 623.713 20.549 623.391 24.206C623.276 25.195 623.253 28.507 623.253 32.647V41.985C623.253 44.515 624.173 44.975 627.347 44.975C632.384 44.975 633.718 43.043 634.845 39.869C635.397 38.466 635.88 37.822 636.616 37.822C637.421 37.822 637.766 38.581 637.766 39.8C637.766 41.088 637.398 44.009 637.191 47.275C637.099 48.701 636.57 49.115 634.983 49.115C633.074 49.115 629.578 49 625.576 49C619.435 49 616.491 49.115 615.019 49.115C613.846 49.115 613.202 48.678 613.202 47.85C613.202 46.263 615.341 46.355 615.755 43.779C615.962 42.583 616.031 38.627 616.031 32.647ZM655.389 49H640.439V45.044L644.441 43.204V21.952L640.439 20.112V16.156H655.389V20.112L651.387 21.952V43.204L655.389 45.044V49ZM657.643 6.496C657.213 6.92533 656.646 7.44667 655.941 8.06C655.235 8.67333 654.469 9.31733 653.641 9.992C652.843 10.6667 652.046 11.3107 651.249 11.924C650.482 12.5067 649.807 12.9973 649.225 13.396H644.671V12.798C645.161 12.2153 645.729 11.5407 646.373 10.774C647.047 9.97666 647.707 9.164 648.351 8.336C648.995 7.47733 649.531 6.71066 649.961 6.036H657.643V6.496ZM667.518 36.258H673.59C674.05 36.258 674.142 36.097 674.142 35.844C674.142 35.154 672.187 29.427 671.083 27.288C670.968 27.035 670.761 26.759 670.623 26.759C670.439 26.759 670.301 27.035 670.163 27.288C669.151 29.312 666.989 35.269 666.989 35.844C666.989 36.097 667.104 36.258 667.518 36.258ZM659.997 42.859L666.989 24.643C667.587 23.01 667.978 21.377 668.185 20.158C668.507 18.571 672.026 17.007 673.521 17.007C674.74 17.007 675.154 17.858 675.591 19.031L684.86 42.905C685.136 43.618 685.688 44.814 686.884 45.849C687.344 46.263 688.08 46.838 688.08 47.574C688.08 48.816 687.183 49.115 685.366 49.115C684.124 49.115 682.997 49 680.835 49C678.673 49 677.477 49.115 676.12 49.115C674.763 49.115 674.119 48.586 674.119 47.689C674.119 46.378 676.833 45.895 676.833 43.802C676.833 43.434 676.258 41.709 675.798 40.881C675.637 40.582 675.269 40.352 674.809 40.352H666.828C666.23 40.352 665.793 40.582 665.517 40.881C665.057 41.571 664.298 43.388 664.298 44.17C664.298 46.194 666.69 46.493 666.69 47.804C666.69 48.54 666.253 49.115 664.758 49.115C663.769 49.115 662.09 49 661.032 49C659.951 49 659.261 49.115 658.249 49.115C657.26 49.115 656.731 48.655 656.731 47.827C656.731 46.378 658.594 46.493 659.997 42.859ZM484.681 84.864C484.267 84.864 483.209 87.348 480.84 93.673C479.391 97.514 478.103 101.056 477.436 102.436C476.884 103.448 476.01 104.23 474.814 104.23C474.216 104.23 473.687 103.678 473.388 103.034C472.767 101.7 468.098 89.993 466.258 85.669C465.959 84.979 465.775 84.634 465.591 84.634C465.407 84.634 465.315 84.933 465.269 85.416C465.177 86.244 464.97 93.098 464.97 94.432C464.97 96.824 465.223 98.917 465.591 99.722C466.442 101.378 467.707 101.401 467.707 102.758C467.707 103.563 467.27 104.115 466.051 104.115C464.556 104.115 463.659 104 462.831 104C461.796 104 460.577 104.115 459.059 104.115C457.978 104.115 457.472 103.586 457.472 102.781C457.472 101.056 459.726 101.447 460.186 97.951C460.669 94.087 461.06 86.129 461.06 82.564C461.06 81.161 461.014 80.011 460.945 79.16C460.623 75.526 458.392 75.733 458.392 73.962C458.392 73.18 458.783 72.605 460.002 72.605C460.83 72.605 462.716 72.72 463.843 72.72C466.511 72.72 467.27 72.858 468.075 73.364C468.926 73.893 469.708 75.135 470.145 75.94C470.858 77.251 475.32 87.9 476.677 91.074C476.769 91.327 476.884 91.488 477.068 91.488C477.183 91.488 477.321 91.419 477.482 91.097C477.873 90.085 481.898 79.758 483.669 75.848C484.267 74.583 484.865 73.801 485.555 73.341C486.314 72.881 487.533 72.72 489.902 72.72C490.615 72.72 492.179 72.605 493.007 72.605C494.134 72.605 494.548 73.203 494.548 73.985C494.548 75.687 492.455 75.595 492.018 79.091C491.903 80.034 491.88 81.46 491.88 82.357C491.88 87.233 492.409 94.984 492.823 97.859C493.306 101.493 495.56 101.056 495.56 102.781C495.56 103.586 495.054 104.115 493.904 104.115C492.432 104.115 490.224 104 489.212 104C487.648 104 486.107 104.115 484.612 104.115C483.439 104.115 482.795 103.632 482.795 102.85C482.795 101.309 484.911 101.378 485.394 98.687C485.463 98.296 485.486 97.652 485.486 96.847C485.486 94.777 485.302 89.717 484.98 85.646C484.911 85.071 484.75 84.864 484.681 84.864ZM507.461 91.258H513.533C513.993 91.258 514.085 91.097 514.085 90.844C514.085 90.154 512.13 84.427 511.026 82.288C510.911 82.035 510.704 81.759 510.566 81.759C510.382 81.759 510.244 82.035 510.106 82.288C509.094 84.312 506.932 90.269 506.932 90.844C506.932 91.097 507.047 91.258 507.461 91.258ZM499.94 97.859L506.932 79.643C507.53 78.01 507.921 76.377 508.128 75.158C508.45 73.571 511.969 72.007 513.464 72.007C514.683 72.007 515.097 72.858 515.534 74.031L524.803 97.905C525.079 98.618 525.631 99.814 526.827 100.849C527.287 101.263 528.023 101.838 528.023 102.574C528.023 103.816 527.126 104.115 525.309 104.115C524.067 104.115 522.94 104 520.778 104C518.616 104 517.42 104.115 516.063 104.115C514.706 104.115 514.062 103.586 514.062 102.689C514.062 101.378 516.776 100.895 516.776 98.802C516.776 98.434 516.201 96.709 515.741 95.881C515.58 95.582 515.212 95.352 514.752 95.352H506.771C506.173 95.352 505.736 95.582 505.46 95.881C505 96.571 504.241 98.388 504.241 99.17C504.241 101.194 506.633 101.493 506.633 102.804C506.633 103.54 506.196 104.115 504.701 104.115C503.712 104.115 502.033 104 500.975 104C499.894 104 499.204 104.115 498.192 104.115C497.203 104.115 496.674 103.655 496.674 102.827C496.674 101.378 498.537 101.493 499.94 97.859ZM543.545 92.753C543.545 95.168 543.637 97.307 543.844 98.687C544.235 101.332 546.765 101.24 546.765 102.85C546.765 103.54 546.19 104.115 544.971 104.115C543.591 104.115 541.452 104 539.98 104C538.416 104 536.277 104.115 534.92 104.115C533.678 104.115 533.103 103.54 533.103 102.85C533.103 101.24 535.679 101.309 536.07 98.687C536.254 97.399 536.323 94.777 536.323 92.408C536.323 90.476 534.667 87.785 532.16 83.645C530.964 81.713 529.423 79.091 528.135 77.366C526.87 75.756 525.513 75.503 525.513 74.146C525.513 72.927 526.433 72.605 527.997 72.605C529.17 72.605 530.228 72.72 532.321 72.72C534.414 72.72 535.61 72.605 536.921 72.605C538.232 72.605 538.83 73.134 538.83 74.008C538.83 75.25 537.082 75.825 537.082 77.251C537.082 78.562 540.026 84.082 541.199 85.439C541.314 85.554 541.452 85.646 541.59 85.646C541.705 85.646 541.843 85.508 541.958 85.37C543.246 83.553 545.684 78.516 545.684 77.32C545.684 75.526 543.867 75.204 543.867 73.916C543.867 73.203 544.281 72.605 545.73 72.605C546.719 72.605 548.72 72.72 549.778 72.72C550.836 72.72 551.641 72.605 552.63 72.605C553.596 72.605 554.125 73.088 554.125 73.893C554.125 75.388 552.975 75.365 551.135 77.711C549.893 79.252 548.651 81.713 547.064 84.68C545.316 87.877 543.545 90.706 543.545 92.753ZM569.3 76.009C566.448 76.009 563.504 78.815 563.504 85.692C563.504 88.82 564.033 92.454 565.413 95.513C567 98.802 569.53 100.251 571.807 100.251C575.096 100.251 577.994 97.813 577.994 91.787C577.994 88.383 577.143 84.289 575.74 81.368C574.222 78.033 571.761 76.009 569.3 76.009ZM554.902 88.613C554.902 78.769 561.158 71.961 570.312 71.961C578.776 71.961 586.021 78.102 586.021 89.119C586.021 99.538 579.19 104.782 570.634 104.782C560.79 104.782 554.902 98.02 554.902 88.613ZM607.364 81.897C607.364 78.654 605.041 76.653 601.821 76.653C599.383 76.653 599.13 76.952 599.13 79.758V84.266C599.13 86.014 599.521 86.957 602.097 86.957C605.317 86.957 607.364 85.117 607.364 81.897ZM599.107 93.397V96.985C599.107 98.871 599.728 99.837 600.51 100.665C601.223 101.47 602.189 101.93 602.189 102.85C602.189 103.678 601.476 104.115 600.395 104.115C599.038 104.115 597.06 104 595.565 104C593.978 104 592 104.115 590.896 104.115C589.631 104.115 589.079 103.609 589.079 102.85C589.079 101.309 591.264 101.378 591.632 98.779C591.839 97.468 591.908 92.109 591.908 87.647C591.908 84.519 591.885 80.149 591.816 79.16C591.517 75.526 589.263 75.733 589.263 73.962C589.263 73.203 589.631 72.605 590.919 72.605C593.242 72.605 594.024 72.72 596.715 72.72C599.245 72.72 601.752 72.559 604.65 72.559C611.274 72.559 615.437 75.227 615.437 80.954C615.437 83.783 614.011 86.911 608.721 88.751C608.583 88.82 608.422 88.912 608.422 89.073C608.422 89.188 608.514 89.349 608.744 89.464C611.918 91.166 613.85 93.926 615.759 97.376C616.679 99.078 617.415 100.274 618.381 101.033C619.278 101.815 619.784 101.93 619.784 102.827C619.784 103.839 619.094 104.115 618.358 104.115C617.392 104.115 615.046 104 613.942 104C612.01 104 610.239 104.115 609.549 104.115C608.422 104.115 607.686 103.517 607.686 102.758C607.686 101.953 608.238 101.654 608.238 100.55C608.238 97.951 605.57 93.42 603.477 91.925C602.557 91.35 601.085 91.212 600.74 91.212C599.567 91.212 599.107 92.04 599.107 93.397Z" fill="#620E31"/>
<path d="M23.1228 101.686C22.9625 101.621 22.9145 99.3245 22.9145 90.9083V80.1953L23.5234 79.6171C23.8439 79.2959 24.1964 78.9426 24.3086 78.8301C24.4047 78.7177 24.629 78.4928 24.8053 78.3162C24.9816 78.1395 25.1899 77.9307 25.254 77.8504C25.3341 77.7701 25.6225 77.497 25.8789 77.24C26.1513 76.9831 26.4398 76.6939 26.5199 76.5976C26.616 76.5012 27.1128 75.9872 27.6416 75.4572C28.1704 74.9272 28.6831 74.4293 28.7633 74.3329C28.8594 74.2526 29.1478 73.9635 29.4042 73.7065C29.6766 73.4495 29.9651 73.1604 30.0612 73.048C30.1734 72.9356 30.3977 72.7107 30.574 72.534C30.7502 72.3574 30.9586 72.1486 31.0387 72.0683C31.1028 71.9879 31.3912 71.7149 31.6476 71.4579C31.92 71.2009 32.2245 70.8958 32.3366 70.7673C33.3301 69.7072 34.7402 68.4223 34.8364 68.5026C34.8845 68.5508 34.9325 73.5298 34.9325 79.5529V90.5068L34.3717 91.085C34.0512 91.4223 33.7307 91.6793 33.6506 91.6793C33.5705 91.6793 33.4743 91.8238 33.4102 92.0005C33.3622 92.1772 33.1058 92.4342 32.8494 92.5787C32.609 92.7393 32.3206 93.0124 32.2245 93.2212C32.1443 93.4139 31.8559 93.703 31.5835 93.8636C31.3111 94.0243 31.0867 94.2491 31.0867 94.3615C31.0867 94.474 30.8304 94.731 30.5259 94.9237C30.2214 95.1325 29.9651 95.3734 29.9651 95.4858C29.9651 95.5822 29.6766 95.8713 29.3241 96.1283C28.9716 96.3692 28.6831 96.6423 28.6831 96.7065C28.6831 96.8832 27.3531 98.1842 26.8404 98.5215C26.616 98.666 26.4398 98.8748 26.4398 99.0033C26.4398 99.1157 26.1513 99.4048 25.7988 99.6618C25.4463 99.9027 25.1578 100.192 25.1578 100.304C25.1578 100.401 24.9175 100.642 24.613 100.818C24.3246 101.011 24.0361 101.3 23.9881 101.477C23.908 101.782 23.5554 101.862 23.1228 101.686Z" fill="#9B2149"/>
<path d="M76.9157 100.995C76.5151 100.545 76.0984 100.095 75.9702 99.983C74.8005 98.9069 71.3072 95.3252 71.3072 95.2128C71.3072 95.1164 71.2271 95.0522 71.147 95.0522C71.0509 95.0522 70.0093 94.0885 68.8235 92.8999C67.157 91.2456 66.6602 90.6513 66.6602 90.3301C66.6602 89.7037 67.1089 89.8001 67.814 90.5871C68.1505 90.9565 68.4229 91.3259 68.4229 91.3902C68.4229 91.4544 68.519 91.5187 68.6472 91.5187C68.7754 91.5187 69.0158 91.7435 69.176 92.0005C69.3202 92.2735 69.5766 92.5145 69.7209 92.5627C69.849 92.6108 70.0574 92.8196 70.1695 93.0124C70.2817 93.2212 70.5701 93.5103 70.8105 93.6548C71.0509 93.7994 71.3393 94.0885 71.4675 94.3133C71.5796 94.5382 71.7399 94.7309 71.804 94.7309C71.9001 94.7309 73.4064 96.1925 74.0634 96.9153C74.2076 97.092 74.8005 97.6863 75.3774 98.2484C75.9542 98.8106 76.4349 99.3245 76.4349 99.3888C76.4349 99.453 76.5792 99.5494 76.7554 99.5976C76.9317 99.6458 77.0759 99.7742 77.0759 99.9027C77.0759 100.015 77.2201 100.208 77.3964 100.32L77.7169 100.513L77.6848 90.3783C77.6528 82.4279 77.5887 80.2114 77.4445 80.1471C77.2362 80.0829 77.14 78.9907 77.3323 78.9907C77.3804 78.9907 77.7009 79.2638 78.0534 79.585L78.6783 80.1793V90.7156C78.6623 101.846 78.6783 101.798 77.9412 101.798C77.781 101.798 77.3163 101.429 76.9157 100.995Z" fill="#9B2149"/>
<path d="M36.6471 88.2583C36.5349 87.921 36.5029 71.4099 36.6311 68.8079C36.7112 66.8163 36.7913 66.2541 36.9996 66.0775C37.256 65.8365 37.7848 65.3065 38.1053 64.9853C38.2976 64.7765 39.1789 63.8931 39.3872 63.7004C39.6276 63.4755 40.2205 62.8652 40.3487 62.7206C40.4128 62.6564 40.6852 62.3994 40.9416 62.1424C41.214 61.8854 41.5184 61.5803 41.6306 61.4518C41.871 61.2108 43.6817 59.3798 43.874 59.2032C44.0983 58.9783 45.909 57.1634 46.0693 56.9867C46.1654 56.9064 46.4539 56.6173 46.7102 56.3603C46.9826 56.1033 47.2711 55.8142 47.3512 55.7178C47.6877 55.3484 48.4248 54.722 48.4889 54.7702C48.521 54.8023 48.569 59.7011 48.6171 65.6599C48.6972 77.5132 48.7293 77.0796 47.7518 77.6578C47.4954 77.8023 47.2711 78.0272 47.2711 78.1396C47.2711 78.252 47.0147 78.509 46.7102 78.7018C46.4058 78.9106 46.1494 79.1675 46.1494 79.28C46.1494 79.3924 45.893 79.6333 45.5886 79.81C45.2841 79.9867 44.9957 80.2758 44.9476 80.4525C44.8995 80.6131 44.6431 80.8701 44.4028 81.0146C44.1624 81.1592 43.906 81.4322 43.8099 81.6089C43.7298 81.8016 43.4573 82.0586 43.201 82.1871C42.9446 82.2995 42.7042 82.5405 42.6722 82.7011C42.6241 82.8617 42.3357 83.1508 42.0472 83.3435C41.7428 83.5202 41.5024 83.7772 41.5024 83.9057C41.5024 84.0181 41.246 84.2912 40.9416 84.4839C40.6371 84.6927 40.3807 84.9497 40.3807 85.0621C40.3807 85.1745 40.1243 85.4155 39.8199 85.5921C39.5154 85.7688 39.227 86.0579 39.1789 86.2185C39.1308 86.3952 38.8424 86.6682 38.554 86.861C38.2495 87.0377 37.9771 87.3107 37.9451 87.4713C37.8329 87.8568 36.7432 88.5153 36.6471 88.2583Z" fill="#9B2149"/>
<path d="M58.4239 82.476C53.168 77.2078 52.6071 76.5975 52.6712 76.212C52.7673 75.7141 53.3122 75.6017 53.4724 76.0514C53.5365 76.196 53.6967 76.4369 53.8249 76.5814C53.9692 76.726 54.1935 76.999 54.3217 77.1918C54.4499 77.3845 54.6101 77.5451 54.6582 77.5451C54.7704 77.5451 56.4529 79.2155 58.3598 81.2071C58.5681 81.4159 58.8725 81.705 59.0328 81.8496C60.0263 82.733 60.5711 83.4397 60.5711 83.8733C60.5711 84.2267 60.6352 84.2909 61.0198 84.2909C61.3563 84.2909 61.7088 84.5158 62.3818 85.1904C62.8786 85.6722 63.2952 86.138 63.3272 86.2022C63.4234 86.411 64.3848 87.0214 64.6412 87.0214C64.7854 87.0214 64.8976 87.1499 64.8976 87.3105C64.8976 87.8405 64.7053 88.3063 64.481 88.3063C64.3688 88.3063 61.6447 85.6883 58.4239 82.476Z" fill="#9B2149"/>
<path d="M99.9904 78.8945C99.8622 78.8624 95.2633 78.8142 89.767 78.7981C80.4089 78.7499 79.7679 78.7339 79.6237 78.4608C79.5276 78.3163 79.3673 78.1075 79.2712 78.0272C79.159 77.9308 78.9347 77.7381 78.7424 77.5774C78.5661 77.4329 78.3258 77.1438 78.2136 76.951C78.1175 76.7423 77.9412 76.5816 77.829 76.5816C77.6047 76.5816 77.0759 76.0195 77.0759 75.7786C77.0759 75.6983 76.8836 75.5376 76.6433 75.4252C76.4029 75.3128 76.0984 75.0076 75.9863 74.7667C75.8741 74.5258 75.6978 74.333 75.6017 74.333C75.5216 74.333 75.0088 73.8833 74.496 73.3372C73.9672 72.7751 73.4705 72.2611 73.3743 72.1647C73.2942 72.0844 72.7814 71.5865 72.2526 71.0726C71.7399 70.5586 71.3072 70.0607 71.3072 69.9964C71.3072 69.9161 71.1149 69.7555 70.8746 69.6431C70.6342 69.5307 70.3298 69.2255 70.2176 68.9846C70.1054 68.7436 69.9452 68.5509 69.8811 68.5509C69.6888 68.5509 68.9677 67.8603 68.7754 67.5069C68.6633 67.266 68.6633 67.1054 68.8235 66.8966C68.9998 66.6396 69.7369 66.6235 79.4314 66.6235C88.5011 66.6235 89.8792 66.6557 90.0554 66.8645C90.1676 66.9929 90.424 67.1054 90.6323 67.1054C90.8887 67.1054 91.081 67.266 91.2572 67.5872C91.4014 67.8603 91.6098 68.0691 91.7379 68.0691C91.8822 68.0691 92.1866 68.3582 92.427 68.7115C92.6673 69.0488 92.9077 69.3379 92.9718 69.354C93.1 69.354 94.7024 70.928 94.7024 71.0565C94.7024 71.201 95.087 71.5383 95.3914 71.6508C95.5357 71.699 95.744 71.9238 95.8401 72.1326C95.9363 72.3414 96.2087 72.6305 96.449 72.7751C96.6894 72.9196 96.9778 73.2087 97.106 73.4336C97.2182 73.6585 97.3784 73.8512 97.4425 73.8512C97.5387 73.8512 98.9488 75.2164 99.5257 75.8749C99.6859 76.0516 99.9743 76.3407 100.167 76.5174C100.888 77.1598 101.224 77.6256 101.304 78.0914C101.384 78.4769 101.32 78.5733 100.856 78.766C100.567 78.8945 100.295 78.9748 100.279 78.9748C100.247 78.9587 100.119 78.9266 99.9904 78.8945Z" fill="#9B2149"/>
<path d="M0 78.0432C0 77.9469 9.83879 68.0048 11.0726 66.8645C11.281 66.6557 12.8513 66.6235 21.9049 66.6235C31.3592 66.6235 32.5129 66.6557 32.593 66.8805C32.6411 67.009 32.7533 67.0893 32.8334 67.0251C32.9135 66.9769 33.0417 67.0251 33.0898 67.1214C33.1539 67.2178 32.8975 67.5872 32.5129 67.9566L31.8078 68.5991L31.7598 68.1012L31.7117 67.5872H21.5684H11.4252L9.27795 69.7555C8.09217 70.9441 7.03458 71.9238 6.93843 71.9238C6.82626 71.9238 6.73012 72.0041 6.73012 72.1166C6.73012 72.3414 4.95145 74.1724 4.72711 74.1724C4.63096 74.1724 4.48675 74.333 4.40663 74.5418C4.31048 74.7346 4.08614 74.9594 3.89386 75.0558C3.68554 75.1361 3.5253 75.2807 3.5253 75.377C3.5253 75.4573 2.91639 76.1319 2.17928 76.8707C1.18578 77.8505 0.737108 78.1878 0.416626 78.1878C0.192289 78.1878 0 78.1235 0 78.0432Z" fill="#9B2149"/>
<path d="M74.3838 77.0633C74.1595 76.8384 74.0313 76.5332 74.0313 76.1799V75.6338L74.5441 76.1156C74.8325 76.3726 75.2331 76.7581 75.4414 76.983L75.81 77.3845H75.2652C74.9447 77.3845 74.5922 77.256 74.3838 77.0633Z" fill="#9B2149"/>
<path d="M71.6277 74.1243C71.6277 74.0279 71.4194 73.8352 71.147 73.7227C70.7464 73.5461 70.6663 73.4176 70.6663 72.9518C70.6663 72.47 70.6983 72.4218 70.9547 72.5503C71.0989 72.6306 71.5796 73.0803 72.0123 73.5139L72.7975 74.3331H72.2206C71.852 74.3331 71.6277 74.2528 71.6277 74.1243Z" fill="#9B2149"/>
<path d="M68.6152 71.2813C68.4229 71.0886 68.2626 70.7995 68.2626 70.6388C68.2626 70.43 68.1505 70.3176 67.9742 70.3176C67.814 70.3176 67.4614 70.1088 67.173 69.8358C66.7243 69.4342 66.6602 69.2897 66.7724 68.8881L66.9006 68.4224L68.487 70.0124L70.0894 71.6025H69.5285C69.176 71.6025 68.8235 71.474 68.6152 71.2813Z" fill="#9B2149"/>
<path d="M72.7494 64.8569L66.0834 64.7766L65.5386 64.2466C63.167 61.998 62.0133 60.8255 62.0133 60.7131C62.0133 60.6328 61.837 60.4882 61.6127 60.3918C61.4043 60.2955 61.1159 59.9903 60.9717 59.7173C60.8435 59.4603 60.6192 59.2354 60.507 59.2354C60.3948 59.2354 60.1545 59.0427 59.9942 58.8178C59.834 58.5769 59.5936 58.3038 59.4814 58.2075C59.1129 57.9023 58.7443 57.5329 58.4719 57.2117C58.3277 57.0511 58.0553 56.7941 57.8951 56.6656C57.7188 56.5371 57.4945 56.264 57.3823 56.0713C57.2861 55.8625 57.0939 55.7019 56.9657 55.7019C56.8535 55.7019 56.5971 55.4449 56.4048 55.1397C56.2125 54.8346 55.9882 54.5776 55.9081 54.5776C55.6837 54.5776 55.1229 54.0476 55.1229 53.8227C55.1229 53.6942 54.9466 53.5175 54.7223 53.4212C53.6487 52.9393 54.4339 52.8911 65.4905 52.843C76.483 52.8108 76.5471 52.8108 76.9798 53.1481C77.2041 53.3248 77.3964 53.5657 77.3964 53.6781C77.3964 53.7906 77.5727 53.9833 77.797 54.0957C78.0213 54.2242 78.3578 54.5615 78.5341 54.8506C78.7104 55.1397 78.9667 55.3807 79.0949 55.3807C79.2231 55.3807 79.4795 55.6376 79.6558 55.9428C79.8481 56.248 80.0724 56.505 80.1686 56.505C80.3608 56.505 82.2036 58.4163 82.2036 58.6251C82.2036 58.6893 82.2837 58.7536 82.3959 58.7536C82.5882 58.7536 83.4855 59.7012 83.4855 59.91C83.4855 59.9742 83.5496 60.0385 83.6458 60.0385C83.8381 60.0385 85.7289 61.9498 85.7289 62.1586C85.7289 62.2228 85.809 62.2871 85.9052 62.2871C86.0975 62.2871 87.9723 64.1984 87.9723 64.4072C87.9723 64.4714 88.0845 64.5357 88.2127 64.5357C88.5492 64.5357 88.5171 64.8569 88.1806 64.873C87.2672 64.9372 78.438 64.9212 72.7494 64.8569Z" fill="#9B2149"/>
<path d="M13.3961 64.5033C13.5564 64.3105 16.2484 61.5962 19.3411 58.4802C23.7798 54.0312 25.0777 52.8105 25.3982 52.8105C25.6866 52.8105 25.7988 52.8909 25.7988 53.1318C25.7988 53.3085 25.7027 53.453 25.5905 53.453C25.4783 53.453 25.3021 53.5976 25.1899 53.7742C25.0777 53.9509 24.8854 54.0955 24.7572 54.0955C24.629 54.0955 24.5169 54.1918 24.5169 54.3043C24.5169 54.5612 23.6836 55.3804 23.4272 55.3804C23.3151 55.3804 23.2349 55.4607 23.2349 55.541C23.2349 55.798 22.2575 56.8259 22.0011 56.8259C21.8889 56.8259 21.7928 56.9223 21.7928 57.0347C21.7928 57.2596 20.1263 58.9139 19.918 58.9139C19.8378 58.9139 19.7096 59.0745 19.6295 59.2833C19.5334 59.476 19.309 59.7009 19.1168 59.7973C18.9084 59.8776 18.7482 60.0382 18.7482 60.1346C18.7482 60.3594 17.8989 61.1625 17.6586 61.1625C17.5464 61.1625 17.4663 61.2267 17.4663 61.3231C17.4663 61.564 16.7933 62.2868 16.5529 62.2868C16.4407 62.2868 16.3446 62.3671 16.3446 62.4635C16.3446 62.5598 15.8639 63.1381 15.271 63.7484C14.3416 64.696 14.1012 64.8566 13.6365 64.8566H13.0917L13.3961 64.5033Z" fill="#9B2149"/>
<path d="M62.1735 64.632C62.1735 64.5035 61.9972 64.359 61.7729 64.3108C61.3563 64.1983 61.148 63.7165 61.2441 63.1062C61.2922 62.801 61.4364 62.8974 62.3338 63.8129L63.3593 64.8569H62.7664C62.3658 64.8569 62.1735 64.7766 62.1735 64.632Z" fill="#9B2149"/>
<path d="M57.0137 59.701C56.8535 59.6207 56.7253 59.3959 56.7253 59.2353C56.7253 59.0586 56.6452 58.914 56.549 58.914C56.4529 58.914 56.2766 58.8177 56.1644 58.7213C56.0363 58.6089 55.8279 58.4161 55.6837 58.3037C55.5555 58.1913 55.4434 57.8379 55.4434 57.5167V56.9385L56.4529 57.8861C56.9977 58.4001 57.6547 59.0746 57.895 59.3638L58.3597 59.8777H57.8149C57.5265 59.8777 57.1579 59.7974 57.0137 59.701Z" fill="#9B2149"/>
<path d="M52.7193 55.9108C52.7193 55.2522 52.8955 54.7383 53.1038 54.7383C53.216 54.7383 53.5365 54.9953 53.841 55.3004L54.3858 55.8626H53.9531C53.6807 55.8626 53.5205 55.9429 53.5205 56.1035C53.5205 56.2481 53.3763 56.3444 53.1199 56.3444C52.7834 56.3444 52.7193 56.2641 52.7193 55.9108Z" fill="#9B2149"/>
<path d="M24.5008 48.49C24.2765 48.2651 24.0361 47.9439 23.9881 47.7833C23.924 47.6387 23.6996 47.4299 23.4913 47.3496C23.267 47.2693 22.9786 46.9802 22.8343 46.7072C22.7061 46.4502 22.4818 46.2253 22.3376 46.2253C22.2094 46.2253 21.953 45.9683 21.7767 45.6632C21.6005 45.358 21.3121 45.0689 21.1358 45.0207C20.9755 44.9725 20.7192 44.7316 20.5749 44.4907C20.4467 44.2498 20.1102 43.9285 19.8539 43.784C19.5975 43.6234 19.3892 43.3985 19.3892 43.27C19.3892 43.1255 19.1808 42.9167 18.9084 42.7721C18.6521 42.6436 18.3155 42.3063 18.1874 42.0493C18.0431 41.7763 17.8348 41.5675 17.6906 41.5675C17.5624 41.5675 17.306 41.3105 17.1298 41.0053C16.9535 40.7002 16.6651 40.4111 16.4888 40.3629C16.3286 40.2986 16.0722 40.0577 15.96 39.8168C15.8318 39.5759 15.5434 39.3028 15.319 39.1904C15.0787 39.094 14.8223 38.821 14.7101 38.5961C14.614 38.3873 14.4057 38.1625 14.2454 38.1143C13.973 38.0179 13.3 37.2309 13.3 37.006C13.3 36.9579 18.2995 36.9097 24.4047 36.9097H35.4934L36.7753 38.1946C37.4804 38.9173 38.7783 40.1862 39.6436 41.0535C40.5249 41.9048 41.3101 42.7079 41.4063 42.8363C41.5024 42.9488 42.0152 43.4627 42.528 43.9606C43.0567 44.4586 43.5535 44.9565 43.6496 45.0689C44.0502 45.5668 45.6527 47.189 45.7328 47.189C45.8449 47.189 47.1749 48.6185 47.239 48.8112C47.2711 48.8915 42.5921 48.9558 36.1023 48.9397L24.9175 48.9236L24.5008 48.49Z" fill="#9B2149"/>
<path d="M75.794 48.6505C75.794 48.4739 75.8741 48.2811 75.9702 48.2329C76.0504 48.1687 76.1946 47.9438 76.2747 47.735C76.3708 47.5102 76.5631 47.3496 76.7394 47.3496C76.9317 47.3496 77.14 47.1408 77.3002 46.8035C77.4765 46.418 77.7008 46.2253 78.0213 46.145C78.3899 46.0646 78.5181 45.9201 78.5982 45.5667C78.6623 45.2616 78.8546 45.0206 79.0789 44.9403C79.2872 44.86 79.5436 44.587 79.6718 44.3461C79.816 44.057 80.0243 43.8803 80.2967 43.8482C80.6172 43.816 80.7614 43.6715 80.8576 43.286C80.9698 42.9166 81.146 42.7399 81.5146 42.6275C81.8992 42.5311 82.0434 42.3866 82.0754 42.0653C82.1075 41.7762 82.2357 41.6317 82.476 41.5996C82.6843 41.5674 82.9247 41.3265 83.0689 41.0053C83.2131 40.7001 83.5336 40.3628 83.758 40.2504C83.9983 40.138 84.2867 39.8649 84.3829 39.6561C84.4951 39.4473 84.7354 39.2064 84.9437 39.094C85.152 38.9976 85.4245 38.7085 85.5366 38.4676C85.6808 38.1785 85.8731 38.0339 86.1135 38.0339C86.3859 38.0339 86.5141 37.9054 86.6263 37.52C86.7705 37.022 86.8346 36.9899 87.6037 36.9417L88.437 36.8936L86.2096 39.1422C84.9758 40.395 83.9022 41.4068 83.806 41.4068C83.7259 41.4068 83.6458 41.4711 83.6458 41.5514C83.6458 41.7602 77.7489 47.6708 77.5566 47.6708C77.4605 47.6708 77.3964 47.7511 77.3964 47.8635C77.3964 47.976 77.2041 48.2651 76.9637 48.506C76.451 49.036 75.794 49.1163 75.794 48.6505Z" fill="#9B2149"/>
<path d="M52.9917 46.948C52.7193 46.7553 52.7033 46.1289 52.7193 36.3153C52.7193 30.5975 52.7513 25.7469 52.7834 25.5542C52.8955 24.976 53.3442 24.2532 53.6487 24.1568C53.8089 24.1086 54.0653 23.8356 54.2255 23.5625C54.3858 23.3056 54.6902 23.0004 54.8986 22.904C55.1069 22.8077 55.3152 22.5989 55.3793 22.4222C55.4273 22.2616 55.6677 22.0206 55.9081 21.9082C56.1484 21.7797 56.4208 21.4906 56.533 21.2658C56.6292 21.0248 56.9016 20.7679 57.1259 20.6554C57.3502 20.5591 57.5265 20.4145 57.5265 20.3503C57.5265 20.2699 58.2476 19.5151 59.1289 18.6477C59.9942 17.7804 60.7954 16.9934 60.9076 16.881C61.0037 16.7846 61.7088 16.0458 62.494 15.2588C64.0643 13.6526 64.4329 13.3796 64.7053 13.6526C64.9457 13.8935 64.9777 34.7574 64.7534 35.3356C64.5771 35.7692 63.2311 37.2308 62.9907 37.2308C62.9106 37.2308 62.7023 37.4396 62.5581 37.6966C62.3978 37.9536 62.1094 38.2427 61.9011 38.3391C61.7088 38.4355 61.5325 38.58 61.5325 38.6442C61.5325 38.853 60.7794 39.6401 60.5871 39.6401C60.491 39.6401 60.3307 39.8007 60.2346 39.9934C59.9942 40.4592 59.7699 40.668 59.4173 40.8125C59.2571 40.8607 59.1289 40.9732 59.1289 41.0535C59.1289 41.2462 54.9787 45.4222 54.7864 45.4222C54.7063 45.4222 54.562 45.5989 54.4659 45.8077C54.3698 46.0165 54.1134 46.2895 53.889 46.4019C53.6647 46.5304 53.4404 46.7392 53.3763 46.8998C53.2961 47.1247 53.232 47.1247 52.9917 46.948Z" fill="#9B2149"/>
<path d="M10.656 34.5489C10.4477 34.4365 10.2234 34.1955 10.1753 34.0189C10.1112 33.8422 9.85483 33.5852 9.59844 33.4407C9.34205 33.3122 9.0376 33.0231 8.94145 32.8143C8.84531 32.5894 8.70109 32.4127 8.63699 32.4127C8.44471 32.4127 6.56989 30.5496 6.56989 30.3569C6.56989 30.2605 6.36157 30.0677 6.08916 29.9232C5.83278 29.7786 5.60844 29.5698 5.60844 29.4253C5.60844 29.2968 5.35205 29.0398 5.0476 28.8631C4.74314 28.6865 4.4547 28.3974 4.40663 28.2207C4.34254 28.0601 4.08615 27.8031 3.82977 27.6585C3.57338 27.53 3.28495 27.2409 3.20483 27.0161C3.1247 26.8073 2.86832 26.5503 2.64398 26.47C2.41964 26.3897 2.17928 26.1809 2.13121 26.0363C2.00302 25.683 1.82675 25.5063 1.24989 25.1369C0.9935 24.9763 0.801211 24.7675 0.801211 24.655C0.801211 24.5426 0.656994 24.3338 0.480729 24.1732C0.0480783 23.8038 0.0801265 23.4504 0.576873 23.0007L0.977476 22.6152H11.1047H21.248L23.8118 25.169C25.238 26.5824 26.5199 27.9155 26.6641 28.1404C26.8083 28.3652 26.9846 28.558 27.0647 28.558C27.241 28.558 32.1123 33.4567 32.4488 33.9546C32.577 34.1634 32.8013 34.3401 32.9455 34.3401C33.0898 34.3401 33.1699 34.4365 33.1218 34.5489C33.0257 34.838 11.2169 34.838 10.656 34.5489Z" fill="#9B2149"/>
<path d="M90.8566 33.7779C90.8566 33.4728 90.9207 33.2158 91.0008 33.2158C91.081 33.2158 91.2252 33.007 91.3213 32.7339C91.4014 32.4609 91.5937 32.2521 91.738 32.2521C92.0745 32.2521 92.459 31.8666 92.459 31.5454C92.459 31.4169 92.6994 31.192 93.0039 31.0475C93.3404 30.8869 93.5807 30.646 93.6128 30.4372C93.6448 30.2444 93.8692 29.9874 94.1095 29.875C94.3499 29.7465 94.6223 29.4735 94.7024 29.2647C94.8306 28.9595 94.9748 28.8792 95.4235 28.8792C95.9523 28.8792 95.9843 28.8471 95.9843 28.317C95.9843 27.8513 96.0645 27.7388 96.5292 27.514C96.8657 27.3534 97.106 27.1124 97.1381 26.9036C97.1701 26.7109 97.3304 26.5342 97.4906 26.5021C97.8912 26.4218 98.2277 26.0845 98.2277 25.7633C98.2277 25.6348 98.4681 25.4099 98.7725 25.2654C99.109 25.1048 99.3975 24.8156 99.4936 24.5265C99.5737 24.2696 99.75 24.0608 99.8782 24.0608C100.006 24.0608 100.199 23.9483 100.311 23.8198C100.487 23.611 99.4455 23.5789 91.0329 23.5789H81.5627V23.1934C81.5627 22.9365 81.6748 22.7758 81.9312 22.7116C82.5722 22.551 100.663 22.5992 100.551 22.7758C100.503 22.8722 100.567 22.9365 100.695 22.9365C100.936 22.9365 101.497 23.8841 101.352 24.0286C101.304 24.0768 101.272 24.0608 101.272 23.9805C101.272 23.9001 101.016 24.1893 100.695 24.5908C100.375 25.0084 100.006 25.3457 99.8942 25.3457C99.766 25.3457 99.6699 25.4099 99.6699 25.5063C99.6699 25.699 96.3529 29.0398 96.1606 29.0398C96.0805 29.0398 95.9843 29.1844 95.9363 29.3771C95.8882 29.5538 95.6959 29.7465 95.5196 29.7947C95.3274 29.8429 95.1831 29.9393 95.1831 30.0035C95.1831 30.1481 91.081 34.3401 90.9367 34.3401C90.8887 34.3401 90.8566 34.0831 90.8566 33.7779Z" fill="#9B2149"/>
<path d="M66.7404 33.023C66.6923 32.8142 66.6763 27.7709 66.6923 21.796L66.7404 10.9385L68.4229 9.3002C69.3523 8.41682 70.1535 7.62981 70.2176 7.56556C70.3618 7.38889 72.2046 5.54182 72.4129 5.34908C72.509 5.26877 73.3102 4.44964 74.1916 3.5502C75.0729 2.6347 75.8581 1.89587 75.9382 1.89587C76.0183 1.89587 76.1305 1.75132 76.1946 1.57464C76.2426 1.39796 76.499 1.14098 76.7714 0.980367C77.0278 0.819752 77.2842 0.578831 77.3323 0.418216C77.4605 0.000618296 78.0053 -0.111812 78.3739 0.225479C78.6623 0.498523 78.6783 0.835814 78.6783 11.0348V21.5711L77.2201 23.0649C76.4349 23.8679 75.7139 24.5425 75.6337 24.5425C75.5536 24.5425 75.4094 24.6871 75.3133 24.8637C75.2171 25.0404 74.7684 25.5223 74.3198 25.9399C73.2301 26.9517 73.0378 27.1605 72.7494 27.5621C72.6212 27.7548 72.461 27.9154 72.3808 27.9154C72.2526 27.9154 70.6663 29.4413 70.6663 29.5698C70.6663 29.6501 68.8555 31.4811 67.5576 32.7017C66.8525 33.3603 66.8205 33.3763 66.7404 33.023Z" fill="#9B2149"/>
<path d="M36.6791 32.5412C36.6311 30.6781 36.615 13.5244 36.6631 13.4281C36.8234 13.0747 38.1854 14.2954 42.9285 19.0496C48.8254 24.9602 49.1619 25.3457 48.3928 25.3457C47.9281 25.3457 47.2711 24.8799 47.2711 24.5587C47.2711 24.4141 47.0467 24.2053 46.7743 24.0768C46.5019 23.9644 46.2455 23.7395 46.1814 23.595C46.0853 23.3059 45.3963 22.6152 45.204 22.6152C45.1399 22.6152 44.9957 22.4546 44.8835 22.2458C44.7713 22.037 44.4669 21.7479 44.2105 21.5873C43.9541 21.4427 43.7458 21.2179 43.7458 21.1054C43.7458 20.977 43.6336 20.8485 43.5054 20.7842C43.3772 20.736 43.265 20.5433 43.265 20.3666C43.265 20.1578 43.1529 20.0454 42.9446 20.0454C42.7843 20.0454 42.576 19.949 42.5119 19.8366C42.4478 19.7081 42.1914 19.4832 41.935 19.3226C41.6947 19.1781 41.4543 18.889 41.4063 18.6962C41.3582 18.5035 41.1178 18.2626 40.8454 18.1662C40.589 18.0698 40.3807 17.8932 40.3807 17.7647C40.3807 17.6522 40.2205 17.4274 40.0282 17.2828C39.3552 16.7689 37.9771 15.4036 37.9771 15.227C37.9771 15.1466 37.913 15.0663 37.8169 15.0663C37.7367 15.0663 37.6566 14.9539 37.6566 14.8254C37.6566 14.6969 37.5925 14.5845 37.4964 14.5845C37.3842 14.5845 37.3361 17.7968 37.3361 23.9001C37.3361 33.1033 37.3361 33.2158 37.0157 33.2158C36.7432 33.2158 36.6952 33.1033 36.6791 32.5412Z" fill="#9B2149"/>
<path d="M34.1313 11.388C34.1313 11.3077 33.9871 11.1792 33.8108 11.131C33.6346 11.0828 33.4583 10.874 33.3942 10.6813C33.3461 10.4885 33.0737 10.2155 32.8013 10.0709C32.4648 9.91033 32.2725 9.68547 32.2405 9.41243C32.2084 9.10726 32.0802 8.97877 31.7117 8.89846C31.4393 8.85027 31.1669 8.65754 31.0707 8.43268C30.9746 8.22388 30.6861 7.93477 30.4298 7.77416C30.1253 7.59748 29.9651 7.37262 29.9651 7.09958C29.9651 6.82653 29.8689 6.7141 29.6606 6.7141C29.3081 6.7141 28.5229 6.02346 28.5229 5.70223C28.5229 5.57374 28.3466 5.41312 28.1223 5.36494C27.8979 5.30069 27.7217 5.18826 27.7217 5.09189C27.7217 4.8831 27.4653 4.64217 26.8884 4.2567C26.632 4.09608 26.4398 3.90335 26.4398 3.79092C26.4398 3.61424 25.8308 3.01997 25.6386 3.01997C25.5745 3.01997 25.4463 2.85935 25.3341 2.65055C25.2219 2.44176 24.9175 2.15265 24.6611 1.99203C24.4047 1.84748 24.1964 1.60656 24.1964 1.47807C24.1964 1.34958 24.1323 1.25321 24.0361 1.25321C23.956 1.25321 23.8759 0.996225 23.8759 0.691057C23.8759 0.385889 23.9079 0.128906 23.956 0.128906C24.1483 0.128906 34.9325 11.0828 34.9325 11.2916C34.9325 11.4362 34.7723 11.5325 34.5319 11.5325C34.3076 11.5325 34.1313 11.4683 34.1313 11.388Z" fill="#9B2149"/>
<path d="M77.7169 101.557C77.7169 101.428 77.6368 101.316 77.5406 101.316C77.4605 101.316 77.4284 101.412 77.4925 101.525C77.5566 101.621 77.5566 101.669 77.4765 101.605C77.4124 101.541 77.2682 101.316 77.1721 101.123C77.0599 100.914 76.8836 100.754 76.7554 100.754C76.6272 100.754 76.5151 100.641 76.5151 100.513C76.5151 100.175 74.0313 97.7663 73.807 97.8947C73.7109 97.9429 73.6788 97.9429 73.7429 97.8787C73.791 97.8144 73.7269 97.6056 73.5827 97.429C73.0859 96.8347 70.1535 93.9276 70.0253 93.9276C69.9772 93.9276 69.817 93.7509 69.7048 93.526C69.5927 93.3172 69.3683 93.0924 69.2401 93.0442C69.0959 92.996 68.8395 92.739 68.6793 92.466C68.503 92.1769 68.3107 92.0163 68.1665 92.0644C68.0383 92.1126 67.9422 92.0644 67.9422 91.952C67.9422 91.8396 67.6537 91.422 67.3012 91.0365L66.6602 90.3298L66.6763 79.7132C66.6923 73.8829 66.7564 68.9359 66.8205 68.7111C66.9487 68.3256 66.9968 68.3256 67.0448 68.7593C67.0609 68.8556 67.141 68.9359 67.2211 68.9199C67.3172 68.9199 67.4775 69.0002 67.5896 69.1287C67.7018 69.2572 67.7499 69.3535 67.7018 69.3535C67.6377 69.3535 67.9422 69.6426 68.3428 69.996C68.7434 70.3494 69.0318 70.6385 68.9517 70.6385C68.8876 70.6385 69.0799 70.8151 69.3843 71.0239C70.0253 71.4576 71.2271 72.7425 71.179 72.9352C71.163 72.9995 71.2111 73.0477 71.3072 73.0477C71.3874 73.0477 72.2206 73.8026 73.166 74.7341C74.0954 75.6657 74.8005 76.4206 74.7364 76.4206C74.6563 76.4206 74.7845 76.5491 74.9928 76.6936C75.6978 77.1755 77.7169 79.2153 77.7169 79.4401C77.7169 79.5526 77.781 79.6168 77.8611 79.5526C77.9412 79.5044 78.1656 79.665 78.3578 79.9059C78.6623 80.2914 78.6783 80.3556 78.454 80.4038C78.1495 80.4681 78.1175 80.8535 78.4059 80.966C78.5662 81.0302 78.5662 81.0623 78.4059 81.0623C78.2777 81.0784 78.1976 81.3354 78.1976 81.7851C78.1976 82.2027 78.2777 82.5239 78.4059 82.5721C78.5662 82.6364 78.5662 82.6685 78.4059 82.6685C78.1335 82.6845 78.1015 100.288 78.3578 100.384C78.454 100.416 78.5501 100.657 78.5662 100.914C78.5982 101.332 78.5501 101.396 78.2457 101.348C77.8611 101.3 77.7329 101.557 78.0854 101.685C78.1976 101.733 78.1656 101.782 78.0053 101.782C77.8451 101.798 77.7169 101.685 77.7169 101.557Z" fill="#631032"/>
<path d="M63.872 87.6156C63.7278 87.4068 63.4394 87.1338 63.2151 87.0214C62.9907 86.9089 62.7824 86.668 62.7183 86.5074C62.6702 86.3307 62.526 86.2344 62.3978 86.2825C62.2857 86.3307 62.1895 86.3147 62.2216 86.2504C62.2857 86.0256 61.4364 85.1422 60.7634 84.7085C60.3948 84.4837 60.0904 84.1785 60.0904 84.05C60.0904 83.9215 59.9942 83.7609 59.882 83.6966C59.7539 83.6324 59.5455 83.3754 59.4013 83.1506C59.2411 82.9257 58.9526 82.6527 58.7443 82.5402C58.536 82.4278 58.2636 82.1548 58.1514 81.946C58.0393 81.7211 57.847 81.5926 57.7348 81.6247C57.6226 81.6729 57.5425 81.6568 57.5746 81.5926C57.6226 81.432 57.3823 81.1589 55.7158 79.4564C54.9306 78.6694 54.2255 78.0591 54.1454 78.1233C54.0653 78.1715 54.0012 78.1233 54.0012 78.027C54.0012 77.8663 53.9051 77.7218 53.3602 77.0793C52.7032 76.3084 52.7193 76.4529 52.7193 65.9809C52.7193 59.3475 52.7673 55.8622 52.8795 55.8622C52.9757 55.8622 53.0398 55.6534 53.0398 55.4124C53.0398 55.1555 53.0878 54.8985 53.1359 54.8503C53.2801 54.7218 56.2446 57.661 56.1484 57.8217C56.1004 57.8859 56.1324 57.9501 56.1965 57.9501C56.4369 57.9501 57.3663 58.7853 57.2701 58.9299C57.2381 58.9941 57.3983 59.1708 57.6387 59.2993C58.2316 59.6045 62.0453 63.4913 61.9011 63.6198C61.853 63.6841 61.8851 63.7323 61.9972 63.7323C62.2857 63.7323 64.529 65.9487 64.7213 66.4306C64.8495 66.7358 64.8816 69.9159 64.8655 77.2078L64.8175 87.5514L64.4649 87.7763C64.1445 87.9851 64.0964 87.969 63.872 87.6156Z" fill="#631032"/>
<path d="M10.8964 78.9905C5.30398 78.9423 0.608918 78.8459 0.448677 78.7817C-0.288431 78.4122 -0.0640936 78.1231 4.02205 74.0435C6.21735 71.8431 7.96398 69.996 7.88386 69.9157C7.81976 69.8354 7.85181 69.8194 7.93193 69.8836C8.02807 69.9318 8.74916 69.3215 9.53434 68.5344L10.9605 67.105H21.7287C31.1028 67.105 32.5129 67.1371 32.6892 67.3459C32.8334 67.5226 32.8334 67.5868 32.7052 67.5868C32.593 67.5868 32.561 67.6671 32.6251 67.7796C32.6892 67.892 32.6731 67.9081 32.5449 67.8438C32.4488 67.7796 32.3206 67.8438 32.2565 68.0044C32.1283 68.3578 22.0171 78.5086 21.4723 78.8298C21.1198 79.0386 19.7577 79.0547 10.8964 78.9905Z" fill="#631032"/>
<path d="M13.8128 64.2619C14.1333 63.9246 14.7742 63.2821 15.2069 62.8163C15.6555 62.3506 16.0241 61.9008 16.0241 61.8045C16.0241 61.7242 16.0722 61.6599 16.1523 61.676C16.3286 61.7402 18.2675 59.8289 18.2675 59.6041C18.2675 59.4916 18.3796 59.3953 18.5078 59.3953C18.636 59.3953 18.9565 59.0901 19.2289 58.7207C19.4853 58.3673 19.7096 58.1264 19.7096 58.1906C19.7096 58.2549 20.6871 57.3394 21.8729 56.1508C23.0587 54.9462 24.0361 53.9022 24.0361 53.8059C24.0361 53.7256 24.1804 53.6131 24.3726 53.5649C24.5489 53.5168 24.7412 53.324 24.7893 53.1473C24.8694 52.8261 24.9175 52.8261 35.9741 52.8101C42.4959 52.8101 47.1269 52.8743 47.1749 52.9546C47.223 53.0349 44.6431 55.7493 41.4223 58.9777L35.5735 64.8561H24.4047H13.2359L13.8128 64.2619Z" fill="#631032"/>
<path d="M54.4178 48.8428C54.3057 48.7304 54.4499 48.5698 56.1004 46.9476C56.6292 46.4176 57.158 45.8875 57.2541 45.7751C57.3663 45.6627 57.6226 45.4057 57.831 45.2129C58.0393 45.0202 58.3277 44.715 58.4719 44.5544C58.6161 44.3938 58.8725 44.1368 59.0328 43.9923C59.193 43.8477 59.4494 43.6068 59.5936 43.4301C60.2506 42.6752 61.5646 41.4064 61.6928 41.4064C61.7729 41.4064 61.9652 41.1976 62.1094 40.9406C62.2696 40.6836 62.5581 40.3785 62.7664 40.266C62.9587 40.1536 63.167 39.9609 63.2151 39.8163C63.2631 39.6717 63.4554 39.4469 63.6477 39.3184C63.824 39.1899 64.0964 38.949 64.2406 38.7884C64.3848 38.6278 64.8335 38.1299 65.2501 37.6962L66.0033 36.9092H76.9958C86.8025 36.9092 88.7895 36.9734 87.6839 37.2625C87.5076 37.3107 87.2192 37.6962 87.0108 38.1138C86.7705 38.5956 86.6102 38.8044 86.5301 38.6759C86.466 38.5635 86.3218 38.5314 86.2257 38.5796C86.1295 38.6438 86.0814 38.7723 86.1455 38.8526C86.2417 39.0293 85.6007 39.6236 85.2802 39.6396C85.1681 39.6396 85.0239 39.7681 84.9758 39.9287C84.8155 40.3785 84.3829 40.8442 84.1265 40.8442C84.0143 40.8442 83.7259 41.1815 83.5016 41.5991C83.2772 42.0328 83.0529 42.2898 82.9888 42.1773C82.8446 41.9525 82.5241 42.1613 82.5241 42.4986C82.5241 42.8037 82.0754 43.2535 81.7549 43.2535C81.6588 43.2535 81.4345 43.5104 81.2742 43.8156C81.0979 44.169 80.8896 44.3778 80.6813 44.3778C80.489 44.3778 80.2807 44.5544 80.1525 44.8435C80.0243 45.1005 79.784 45.3414 79.6077 45.3896C79.4475 45.4217 79.2071 45.7109 79.0789 46C78.9347 46.3533 78.7104 46.5782 78.438 46.6424C78.1976 46.7067 77.9412 46.8994 77.8611 47.0921C77.5566 47.7667 77.2361 48.2325 77.2361 48.0237C77.2361 47.8952 77.14 47.831 77.0439 47.8792C76.9317 47.9113 76.8516 48.0398 76.8836 48.1361C76.8996 48.2486 76.7554 48.4734 76.5631 48.634C76.2106 48.9392 75.7619 48.9392 65.3623 48.9553C59.4013 48.9553 54.4819 48.9071 54.4178 48.8428Z" fill="#631032"/>
<path d="M48.1364 46.8673C47.9761 46.7067 46.6301 45.3575 45.1399 43.896C43.6657 42.4183 42.3837 41.0852 42.3036 40.9085C42.2075 40.7479 42.0633 40.6034 41.9831 40.6034C41.8549 40.6034 38.8264 37.632 37.6246 36.331C37.4643 36.1543 37.1919 35.8813 36.9996 35.7046C36.6792 35.3994 36.6631 35.271 36.7433 33.5684C36.7913 32.4923 36.7753 31.8017 36.6792 31.8659C36.599 31.9141 36.5349 31.8338 36.5349 31.7053C36.5349 31.5608 36.6151 31.4483 36.6952 31.4483C36.8074 31.4483 36.8554 28.3645 36.8554 22.5342C36.8554 13.6844 36.8554 13.6201 37.1759 13.6201C37.3522 13.6201 37.5445 13.7325 37.5925 13.861C37.6566 13.9895 37.7528 14.0698 37.8169 14.0217C37.897 13.9735 37.9931 14.0859 38.0572 14.2626C38.1053 14.4393 38.2335 14.5838 38.3136 14.5838C38.3937 14.5838 38.4578 14.6962 38.4578 14.8247C38.4578 15.0978 39.0027 15.419 39.1789 15.2584C39.259 15.1941 39.259 15.2263 39.211 15.3226C39.0828 15.5475 39.6276 16.0775 39.8199 15.9169C39.884 15.8366 39.9 15.9169 39.8359 16.0936C39.7558 16.3184 39.8039 16.3666 39.9801 16.2863C40.1243 16.2381 40.2045 16.2542 40.1564 16.3184C40.0602 16.4791 40.6211 16.993 40.8775 16.993C40.9736 16.993 41.0217 17.1055 40.9576 17.2339C40.9095 17.3785 41.0057 17.5391 41.23 17.6515C41.6787 17.8925 42.1434 18.3743 42.0472 18.4867C41.9992 18.5349 42.0953 18.6474 42.2716 18.7437C42.4478 18.8401 42.7202 19.0489 42.8805 19.1934C43.0407 19.3541 43.233 19.4825 43.3292 19.4825C43.4253 19.4825 43.5855 19.6592 43.6817 19.868C43.7939 20.0768 44.0022 20.3177 44.1304 20.3981C44.2746 20.4784 44.3547 20.6068 44.3066 20.6872C44.2265 20.8156 44.7393 21.2011 44.8835 21.1208C44.9155 21.1048 44.9316 21.1208 44.9155 21.1529C44.8835 21.1851 45.0437 21.3778 45.2681 21.5705C45.4764 21.7793 45.6046 21.9881 45.5405 22.0684C45.4764 22.1327 45.5725 22.1327 45.7488 22.0684C45.9251 22.0042 46.0212 22.0042 45.9571 22.0524C45.8289 22.1809 46.4058 22.7751 46.6301 22.7751C46.7263 22.7751 46.7904 22.9036 46.7583 23.0643C46.7263 23.2409 46.8064 23.3373 46.9827 23.3212C47.1429 23.3052 47.239 23.3534 47.191 23.4176C47.1429 23.4818 47.3031 23.6585 47.5114 23.8031C47.7358 23.9476 47.88 24.1243 47.848 24.2046C47.7999 24.2689 47.9761 24.4937 48.2486 24.6865L48.7293 25.0398L48.6972 36.0419C48.6812 42.081 48.6171 47.0601 48.553 47.1082C48.4889 47.1404 48.2966 47.044 48.1364 46.8673Z" fill="#631032"/>
<path d="M68.6152 34.7894C68.4069 34.5806 68.2626 34.7412 71.7559 31.2077C73.1981 29.7461 74.4319 28.5575 74.512 28.5575C74.5922 28.5575 74.7524 28.3969 74.8485 28.2042C75.0889 27.7384 75.5696 27.2565 75.6818 27.369C75.7299 27.4172 75.842 27.3047 75.9542 27.128C76.1144 26.8229 77.156 25.7307 77.9732 25.0079C78.1495 24.8634 78.3899 24.6064 78.5181 24.4297C78.6463 24.2691 79.111 23.8194 79.5436 23.45C80.2487 22.8396 80.4089 22.7754 81.1781 22.7754C81.6588 22.7754 82.0434 22.8557 82.0434 22.936C82.0434 23.0484 85.1681 23.0966 91.5296 23.0966C96.7375 23.0806 101.048 23.1448 101.112 23.209C101.32 23.4339 101.481 24.1085 101.304 23.9961C101.208 23.9479 101 24.0603 100.84 24.2691C100.679 24.4779 100.455 24.6225 100.343 24.5743C100.247 24.5422 100.103 24.6546 100.038 24.8152C99.8942 25.2489 99.4776 25.6825 99.077 25.8431C98.8526 25.9234 98.7084 26.1162 98.7084 26.3089C98.7084 26.4856 98.6443 26.6301 98.5642 26.6301C98.4841 26.6301 98.3559 26.7908 98.3078 26.9674C98.2277 27.2244 98.1636 27.2565 98.0675 27.112C97.9232 26.8711 97.5867 27.0317 97.5867 27.369C97.5867 27.6581 97.09 28.156 96.7855 28.156C96.6573 28.156 96.5291 28.3005 96.4971 28.4772C96.417 28.8787 95.9202 29.3606 95.5837 29.3606C95.4555 29.3606 95.2632 29.5373 95.1831 29.7461C95.103 29.9549 94.8466 30.2279 94.5902 30.3564C94.3499 30.4688 94.1255 30.7097 94.0935 30.8864C94.0454 31.0631 93.9332 31.2719 93.805 31.3361C93.6769 31.4004 93.5807 31.5931 93.5807 31.7377C93.5807 31.9625 93.5487 31.9625 93.4365 31.7859C93.2602 31.4968 92.9397 31.7056 92.9397 32.1071C92.9397 32.2677 92.8757 32.4123 92.8116 32.4123C92.7314 32.4123 92.5872 32.5729 92.4911 32.7817C92.3949 32.9744 92.3148 33.0387 92.3148 32.9423C92.2828 32.5568 91.9623 32.7335 91.802 33.2153C91.7059 33.4884 91.5617 33.6972 91.4816 33.6972C91.4014 33.6972 91.3373 33.8096 91.3373 33.9381C91.3373 34.0666 91.0169 34.3557 90.6483 34.5806L89.9432 34.9821H79.3834C71.5957 34.9821 68.7594 34.9339 68.6152 34.7894Z" fill="#631032"/>
<path d="M34.2595 32.9262C34.0192 32.6852 33.6666 32.3319 33.4583 32.1391C32.8814 31.577 32.7372 31.4324 31.7277 30.4045C31.2149 29.8745 30.6701 29.3284 30.5419 29.1999C30.3977 29.0714 29.917 28.5735 29.4523 28.1077C28.9876 27.6259 28.4748 27.128 28.3306 26.9834C27.9781 26.6461 27.4012 26.0679 27.0487 25.6985C26.9045 25.554 26.6961 25.3612 26.6 25.2648C26.5039 25.1845 26.2635 24.9276 26.0552 24.7027C25.8469 24.4778 25.0617 23.7069 24.2925 22.9681L22.9145 21.6189V10.8898C22.9145 0.289289 22.9145 0.144736 23.2349 0.0483672C23.6836 -0.0961859 24.1643 0.0965516 24.2765 0.449904C24.3246 0.610518 24.4848 0.787194 24.613 0.835378C24.7412 0.883563 24.8213 0.995993 24.7572 1.0763C24.6611 1.25298 25.2059 1.60633 25.3822 1.4939C25.4302 1.44571 25.4463 1.46178 25.3982 1.52602C25.3661 1.57421 25.4943 1.783 25.7187 1.97574C25.927 2.18454 26.0552 2.39334 26.0071 2.44152C25.943 2.48971 25.9751 2.53789 26.0712 2.53789C26.2795 2.53789 26.7923 3.01974 27.0166 3.42127C27.1288 3.59795 27.3211 3.72644 27.4653 3.72644C27.6095 3.71038 27.6896 3.7425 27.6416 3.80675C27.6095 3.87099 27.7537 4.04767 27.962 4.20828C28.1864 4.3689 28.3146 4.56164 28.2825 4.64194C28.2345 4.70619 28.3466 4.80256 28.5229 4.8668C28.6992 4.93105 28.9555 5.15591 29.0677 5.39683C29.1959 5.63775 29.5965 6.00717 29.949 6.23203C30.3176 6.45689 30.574 6.71387 30.5419 6.8263C30.4939 6.92267 30.6541 7.13147 30.8945 7.29208C31.3912 7.61331 31.7277 7.93454 31.7758 8.11122C31.7918 8.17546 31.904 8.22365 32.0161 8.22365C32.1283 8.20759 32.1924 8.22365 32.1443 8.27183C32.0963 8.32002 32.2405 8.49669 32.4488 8.67337C32.6731 8.85004 32.8174 9.04278 32.7693 9.12309C32.7212 9.18733 32.8975 9.38007 33.1378 9.52462C33.6827 9.87798 34.1313 10.3438 34.0352 10.4562C33.9871 10.4883 34.1794 10.6007 34.4358 10.6971L34.9325 10.8738V22.0365C34.9325 28.172 34.8684 33.2313 34.8043 33.2795C34.7242 33.3277 34.4839 33.1671 34.2595 32.9262Z" fill="#631032"/>
<rect x="422" y="3" width="7" height="119" rx="3.5" fill="#620E31"/>
<path d="M154.408 22.685C156.051 22.685 156.609 23.491 156.609 24.514C156.609 26.901 153.571 26.56 153.168 31.458C153.044 32.822 153.013 37.379 153.013 42.959C153.013 49.934 153.106 56.041 153.416 57.87C153.912 61.435 156.826 61.342 156.826 63.45C156.826 64.38 156.051 65.155 154.408 65.155C152.548 65.155 150.192 65 148.208 65C146.1 65 143.744 65.155 141.884 65.155C140.21 65.155 139.466 64.38 139.466 63.45C139.466 61.342 142.411 61.404 142.938 57.87C143.062 56.816 143.31 51.732 143.31 47.95C143.31 46.028 142.876 45.284 141.357 45.284H129.98C128.647 45.284 127.934 45.718 127.934 47.95C127.934 51.825 128.213 56.661 128.399 57.87C128.926 61.435 131.84 61.342 131.84 63.45C131.84 64.38 131.034 65.155 129.391 65.155C127.562 65.155 125.206 65 123.191 65C121.114 65 118.727 65.155 116.898 65.155C115.193 65.155 114.449 64.38 114.449 63.45C114.449 61.342 117.425 61.404 117.921 57.87C118.169 56.165 118.262 48.88 118.262 42.959C118.262 38.774 118.262 32.853 118.169 31.458C117.766 26.591 114.697 26.87 114.697 24.514C114.697 23.491 115.193 22.685 116.929 22.685C118.82 22.685 121.176 22.84 123.191 22.84C125.268 22.84 127.624 22.685 129.391 22.685C131.034 22.685 131.592 23.491 131.592 24.514C131.592 26.498 129.453 26.622 128.554 29.288C128.213 30.063 127.934 33.907 127.934 36.449C127.934 38.96 128.43 39.611 130.042 39.611H141.202C142.69 39.611 143.31 39.084 143.31 36.449C143.31 33.69 142.969 29.877 142.721 29.288C141.977 26.932 139.683 26.374 139.683 24.514C139.683 23.491 140.21 22.685 141.915 22.685C143.806 22.685 146.162 22.84 148.208 22.84C150.285 22.84 152.61 22.685 154.408 22.685ZM176.618 22.685C178.261 22.685 178.819 23.491 178.819 24.514C178.819 26.901 175.843 26.56 175.409 31.458C175.254 32.822 175.223 37.379 175.223 42.959C175.223 49.934 175.378 56.041 175.626 57.87C176.184 61.435 179.067 61.342 179.067 63.45C179.067 64.38 178.261 65.155 176.618 65.155C174.789 65.155 172.433 65 170.418 65C168.341 65 165.954 65.155 164.125 65.155C162.42 65.155 161.676 64.38 161.676 63.45C161.676 61.342 164.652 61.404 165.148 57.87C165.396 56.165 165.489 48.88 165.489 42.959C165.489 38.774 165.489 32.853 165.396 31.458C164.993 26.591 161.924 26.87 161.924 24.514C161.924 23.491 162.42 22.685 164.156 22.685C166.047 22.685 168.403 22.84 170.418 22.84C172.495 22.84 174.851 22.685 176.618 22.685ZM197.504 32.636V54.181C197.504 58.583 198.496 59.699 202.96 59.699C211.33 59.699 214.089 51.949 214.089 44.85C214.089 35.457 210.09 27.924 201.1 27.924C197.938 27.924 197.504 29.35 197.504 32.636ZM192.699 22.84C196.109 22.84 198.434 22.654 201.782 22.654C213.562 22.654 225.063 28.575 225.063 43.672C225.063 56.971 217.437 65.186 204.851 65.186C201.193 65.186 196.636 64.969 192.699 64.969C190.622 64.969 188.235 65.124 186.406 65.124C184.701 65.124 183.957 64.38 183.957 63.45C183.957 61.342 186.933 61.404 187.429 57.87C187.677 56.165 187.77 48.88 187.77 42.959C187.77 38.774 187.77 32.853 187.677 31.458C187.274 26.591 184.205 26.87 184.205 24.514C184.205 23.491 184.701 22.685 186.437 22.685C188.328 22.685 190.684 22.84 192.699 22.84ZM240.454 47.826H248.638C249.258 47.826 249.382 47.609 249.382 47.268C249.382 46.338 246.747 38.619 245.259 35.736C245.104 35.395 244.825 35.023 244.639 35.023C244.391 35.023 244.205 35.395 244.019 35.736C242.655 38.464 239.741 46.493 239.741 47.268C239.741 47.609 239.896 47.826 240.454 47.826ZM230.317 56.723L239.741 32.171C240.547 29.97 241.074 27.769 241.353 26.126C241.787 23.987 246.53 21.879 248.545 21.879C250.188 21.879 250.746 23.026 251.335 24.607L263.828 56.785C264.2 57.746 264.944 59.358 266.556 60.753C267.176 61.311 268.168 62.086 268.168 63.078C268.168 64.752 266.959 65.155 264.51 65.155C262.836 65.155 261.317 65 258.403 65C255.489 65 253.877 65.155 252.048 65.155C250.219 65.155 249.351 64.442 249.351 63.233C249.351 61.466 253.009 60.815 253.009 57.994C253.009 57.498 252.234 55.173 251.614 54.057C251.397 53.654 250.901 53.344 250.281 53.344H239.524C238.718 53.344 238.129 53.654 237.757 54.057C237.137 54.987 236.114 57.436 236.114 58.49C236.114 61.218 239.338 61.621 239.338 63.388C239.338 64.38 238.749 65.155 236.734 65.155C235.401 65.155 233.138 65 231.712 65C230.255 65 229.325 65.155 227.961 65.155C226.628 65.155 225.915 64.535 225.915 63.419C225.915 61.466 228.426 61.621 230.317 56.723ZM274.231 42.959C274.231 38.774 274.231 32.853 274.138 31.458C273.735 26.591 270.666 26.87 270.666 24.514C270.666 23.491 271.162 22.685 272.898 22.685C274.789 22.685 277.145 22.84 279.16 22.84C281.237 22.84 284.647 22.685 286.445 22.685C288.088 22.685 288.646 23.491 288.646 24.514C288.646 27.149 284.585 26.653 284.151 31.582C283.996 32.915 283.965 37.379 283.965 42.959V55.545C283.965 58.955 285.205 59.575 289.483 59.575C296.272 59.575 298.07 56.971 299.589 52.693C300.333 50.802 300.984 49.934 301.976 49.934C303.061 49.934 303.526 50.957 303.526 52.6C303.526 54.336 303.03 58.273 302.751 62.675C302.627 64.597 301.914 65.155 299.775 65.155C297.202 65.155 292.49 65 287.096 65C278.819 65 274.851 65.155 272.867 65.155C271.286 65.155 270.418 64.566 270.418 63.45C270.418 61.311 273.301 61.435 273.859 57.963C274.138 56.351 274.231 51.019 274.231 42.959ZM326.115 66.054C313.963 66.054 306.182 55.7 306.182 44.075C306.182 32.729 312.909 21.786 326.456 21.786C331.23 21.786 333.462 23.274 335.415 23.274C336.81 23.274 337.709 22.623 338.949 22.623C341.336 22.623 341.398 25.01 342.142 28.699C342.948 32.884 343.382 33.907 343.382 34.775C343.382 36.108 342.607 36.728 341.708 36.728C340.065 36.728 339.228 34.837 337.864 32.884C335.012 28.885 331.261 26.591 327.541 26.591C320.69 26.591 316.753 33.535 316.753 41.161C316.753 51.856 322.984 58.924 329.153 58.924C331.54 58.924 333.648 57.777 334.454 56.537C335.136 55.421 335.26 54.243 335.26 52.011C335.26 46.865 334.113 46.493 332.718 45.501C331.509 44.633 329.99 44.54 329.99 42.959C329.99 41.719 330.889 40.975 332.718 40.975C334.485 40.975 336.717 41.161 338.298 41.161C340.437 41.161 342.39 40.975 344.746 40.975C346.141 40.975 346.73 41.781 346.73 42.835C346.73 45.222 344.839 44.912 344.839 51.329C344.839 54.832 345.149 60.567 345.149 62.644C345.149 64.225 344.684 65.186 343.165 65.186C342.39 65.186 341.646 64.721 340.902 63.884C340.251 63.295 339.631 62.675 339.011 62.675C338.081 62.675 336.934 63.295 335.415 63.946C333.183 64.876 330.052 66.054 326.115 66.054ZM370.06 27.273C366.216 27.273 362.248 31.055 362.248 40.324C362.248 44.54 362.961 49.438 364.821 53.561C366.96 57.994 370.37 59.947 373.439 59.947C377.872 59.947 381.778 56.661 381.778 48.539C381.778 43.951 380.631 38.433 378.74 34.496C376.694 30.001 373.377 27.273 370.06 27.273ZM350.654 44.261C350.654 30.993 359.086 21.817 371.424 21.817C382.832 21.817 392.597 30.094 392.597 44.943C392.597 58.986 383.39 66.054 371.858 66.054C358.59 66.054 350.654 56.94 350.654 44.261Z" fill="#620E31"/>
<path d="M113.4 89V75H119.8C121.08 75 122.18 75.2067 123.1 75.62C124.033 76.0333 124.753 76.6333 125.26 77.42C125.767 78.1933 126.02 79.1133 126.02 80.18C126.02 81.2333 125.767 82.1467 125.26 82.92C124.753 83.6933 124.033 84.2933 123.1 84.72C122.18 85.1333 121.08 85.34 119.8 85.34H115.6L117.36 83.62V89H113.4ZM117.36 84.04L115.6 82.22H119.56C120.387 82.22 121 82.04 121.4 81.68C121.813 81.32 122.02 80.82 122.02 80.18C122.02 79.5267 121.813 79.02 121.4 78.66C121 78.3 120.387 78.12 119.56 78.12H115.6L117.36 76.3V84.04ZM130.951 89V75H137.351C138.631 75 139.731 75.2067 140.651 75.62C141.584 76.0333 142.304 76.6333 142.811 77.42C143.317 78.1933 143.571 79.1133 143.571 80.18C143.571 81.2333 143.317 82.1467 142.811 82.92C142.304 83.68 141.584 84.2667 140.651 84.68C139.731 85.08 138.631 85.28 137.351 85.28H133.151L134.911 83.62V89H130.951ZM139.611 89L136.131 83.9H140.351L143.851 89H139.611ZM134.911 84.04L133.151 82.22H137.111C137.937 82.22 138.551 82.04 138.951 81.68C139.364 81.32 139.571 80.82 139.571 80.18C139.571 79.5267 139.364 79.02 138.951 78.66C138.551 78.3 137.937 78.12 137.111 78.12H133.151L134.911 76.3V84.04ZM148.755 89V75H152.715V89H148.755ZM158.533 89V75H161.793L167.593 84.52H165.873L171.513 75H174.773L174.813 89H171.173L171.133 80.54H171.753L167.533 87.62H165.773L161.433 80.54H162.193V89H158.533ZM184.255 80.42H190.755V83.38H184.255V80.42ZM184.535 85.94H191.855V89H180.615V75H191.595V78.06H184.535V85.94ZM197.052 89V75H203.452C204.732 75 205.832 75.2067 206.752 75.62C207.686 76.0333 208.406 76.6333 208.912 77.42C209.419 78.1933 209.672 79.1133 209.672 80.18C209.672 81.2333 209.419 82.1467 208.912 82.92C208.406 83.68 207.686 84.2667 206.752 84.68C205.832 85.08 204.732 85.28 203.452 85.28H199.252L201.012 83.62V89H197.052ZM205.712 89L202.232 83.9H206.452L209.952 89H205.712ZM201.012 84.04L199.252 82.22H203.212C204.039 82.22 204.652 82.04 205.052 81.68C205.466 81.32 205.672 80.82 205.672 80.18C205.672 79.5267 205.466 79.02 205.052 78.66C204.652 78.3 204.039 78.12 203.212 78.12H199.252L201.012 76.3V84.04ZM221.917 89.28C220.797 89.28 219.764 89.1 218.817 88.74C217.87 88.38 217.044 87.8733 216.337 87.22C215.644 86.5533 215.104 85.78 214.717 84.9C214.33 84.02 214.137 83.0533 214.137 82C214.137 80.9467 214.33 79.98 214.717 79.1C215.104 78.22 215.644 77.4533 216.337 76.8C217.044 76.1333 217.87 75.62 218.817 75.26C219.764 74.9 220.797 74.72 221.917 74.72C223.05 74.72 224.084 74.9 225.017 75.26C225.964 75.62 226.784 76.1333 227.477 76.8C228.17 77.4533 228.71 78.22 229.097 79.1C229.497 79.98 229.697 80.9467 229.697 82C229.697 83.0533 229.497 84.0267 229.097 84.92C228.71 85.8 228.17 86.5667 227.477 87.22C226.784 87.8733 225.964 88.38 225.017 88.74C224.084 89.1 223.05 89.28 221.917 89.28ZM221.917 86C222.45 86 222.944 85.9067 223.397 85.72C223.864 85.5333 224.264 85.2667 224.597 84.92C224.944 84.56 225.21 84.1333 225.397 83.64C225.597 83.1467 225.697 82.6 225.697 82C225.697 81.3867 225.597 80.84 225.397 80.36C225.21 79.8667 224.944 79.4467 224.597 79.1C224.264 78.74 223.864 78.4667 223.397 78.28C222.944 78.0933 222.45 78 221.917 78C221.384 78 220.884 78.0933 220.417 78.28C219.964 78.4667 219.564 78.74 219.217 79.1C218.884 79.4467 218.617 79.8667 218.417 80.36C218.23 80.84 218.137 81.3867 218.137 82C218.137 82.6 218.23 83.1467 218.417 83.64C218.617 84.1333 218.884 84.56 219.217 84.92C219.564 85.2667 219.964 85.5333 220.417 85.72C220.884 85.9067 221.384 86 221.917 86ZM247.231 80.42H253.731V83.38H247.231V80.42ZM247.511 85.94H254.831V89H243.591V75H254.571V78.06H247.511V85.94ZM260.029 89V75H263.989V85.86H270.669V89H260.029ZM284.056 89V75H290.456C291.736 75 292.836 75.2067 293.756 75.62C294.69 76.0333 295.41 76.6333 295.916 77.42C296.423 78.1933 296.676 79.1133 296.676 80.18C296.676 81.2333 296.423 82.1467 295.916 82.92C295.41 83.6933 294.69 84.2933 293.756 84.72C292.836 85.1333 291.736 85.34 290.456 85.34H286.256L288.016 83.62V89H284.056ZM288.016 84.04L286.256 82.22H290.216C291.043 82.22 291.656 82.04 292.056 81.68C292.47 81.32 292.676 80.82 292.676 80.18C292.676 79.5267 292.47 79.02 292.056 78.66C291.656 78.3 291.043 78.12 290.216 78.12H286.256L288.016 76.3V84.04ZM307.93 89.28C305.864 89.28 304.25 88.7133 303.09 87.58C301.93 86.4467 301.35 84.84 301.35 82.76V75H305.31V82.64C305.31 83.84 305.544 84.7 306.01 85.22C306.49 85.74 307.144 86 307.97 86C308.797 86 309.444 85.74 309.91 85.22C310.377 84.7 310.61 83.84 310.61 82.64V75H314.51V82.76C314.51 84.84 313.93 86.4467 312.77 87.58C311.61 88.7133 309.997 89.28 307.93 89.28ZM323.833 80.42H330.333V83.38H323.833V80.42ZM324.113 85.94H331.433V89H320.193V75H331.173V78.06H324.113V85.94ZM336.63 89V75H343.79C345.63 75 347.004 75.34 347.91 76.02C348.817 76.6867 349.27 77.5667 349.27 78.66C349.27 79.38 349.077 80.0133 348.69 80.56C348.317 81.0933 347.784 81.52 347.09 81.84C346.41 82.1467 345.597 82.3 344.65 82.3L345.05 81.34C346.037 81.34 346.897 81.4933 347.63 81.8C348.364 82.0933 348.93 82.5267 349.33 83.1C349.744 83.66 349.95 84.3467 349.95 85.16C349.95 86.3733 349.457 87.32 348.47 88C347.497 88.6667 346.07 89 344.19 89H336.63ZM340.55 86.14H343.87C344.55 86.14 345.064 86.0267 345.41 85.8C345.77 85.56 345.95 85.2 345.95 84.72C345.95 84.24 345.77 83.8867 345.41 83.66C345.064 83.42 344.55 83.3 343.87 83.3H340.27V80.56H343.27C343.937 80.56 344.437 80.4467 344.77 80.22C345.104 79.9933 345.27 79.6533 345.27 79.2C345.27 78.7467 345.104 78.4133 344.77 78.2C344.437 77.9733 343.937 77.86 343.27 77.86H340.55V86.14ZM355.002 89V75H358.962V85.86H365.642V89H355.002ZM377.054 89.28C375.934 89.28 374.9 89.1 373.954 88.74C373.007 88.38 372.18 87.8733 371.474 87.22C370.78 86.5533 370.24 85.78 369.854 84.9C369.467 84.02 369.274 83.0533 369.274 82C369.274 80.9467 369.467 79.98 369.854 79.1C370.24 78.22 370.78 77.4533 371.474 76.8C372.18 76.1333 373.007 75.62 373.954 75.26C374.9 74.9 375.934 74.72 377.054 74.72C378.187 74.72 379.22 74.9 380.154 75.26C381.1 75.62 381.92 76.1333 382.614 76.8C383.307 77.4533 383.847 78.22 384.234 79.1C384.634 79.98 384.834 80.9467 384.834 82C384.834 83.0533 384.634 84.0267 384.234 84.92C383.847 85.8 383.307 86.5667 382.614 87.22C381.92 87.8733 381.1 88.38 380.154 88.74C379.22 89.1 378.187 89.28 377.054 89.28ZM377.054 86C377.587 86 378.08 85.9067 378.534 85.72C379 85.5333 379.4 85.2667 379.734 84.92C380.08 84.56 380.347 84.1333 380.534 83.64C380.734 83.1467 380.834 82.6 380.834 82C380.834 81.3867 380.734 80.84 380.534 80.36C380.347 79.8667 380.08 79.4467 379.734 79.1C379.4 78.74 379 78.4667 378.534 78.28C378.08 78.0933 377.587 78 377.054 78C376.52 78 376.02 78.0933 375.554 78.28C375.1 78.4667 374.7 78.74 374.354 79.1C374.02 79.4467 373.754 79.8667 373.554 80.36C373.367 80.84 373.274 81.3867 373.274 82C373.274 82.6 373.367 83.1467 373.554 83.64C373.754 84.1333 374.02 84.56 374.354 84.92C374.7 85.2667 375.1 85.5333 375.554 85.72C376.02 85.9067 376.52 86 377.054 86Z" fill="#B28E5E"/>
<path d="M186 108C186 109.091 185.091 109.961 184.002 109.915L139 108L184.002 106.085C185.091 106.039 186 106.909 186 108Z" fill="#620E31"/>
<path d="M196.528 114V112.32L200.848 108.24C201.189 107.931 201.44 107.653 201.6 107.408C201.76 107.163 201.867 106.939 201.92 106.736C201.984 106.533 202.016 106.347 202.016 106.176C202.016 105.728 201.861 105.387 201.552 105.152C201.253 104.907 200.811 104.784 200.224 104.784C199.755 104.784 199.317 104.875 198.912 105.056C198.517 105.237 198.181 105.52 197.904 105.904L196.016 104.688C196.443 104.048 197.04 103.541 197.808 103.168C198.576 102.795 199.461 102.608 200.464 102.608C201.296 102.608 202.021 102.747 202.64 103.024C203.269 103.291 203.755 103.669 204.096 104.16C204.448 104.651 204.624 105.237 204.624 105.92C204.624 106.283 204.576 106.645 204.48 107.008C204.395 107.36 204.213 107.733 203.936 108.128C203.669 108.523 203.275 108.965 202.752 109.456L199.168 112.832L198.672 111.888H204.992V114H196.528ZM212.862 114.192C211.944 114.192 211.123 113.968 210.398 113.52C209.672 113.061 209.102 112.4 208.686 111.536C208.27 110.672 208.062 109.627 208.062 108.4C208.062 107.173 208.27 106.128 208.686 105.264C209.102 104.4 209.672 103.744 210.398 103.296C211.123 102.837 211.944 102.608 212.862 102.608C213.79 102.608 214.611 102.837 215.326 103.296C216.051 103.744 216.622 104.4 217.038 105.264C217.454 106.128 217.662 107.173 217.662 108.4C217.662 109.627 217.454 110.672 217.038 111.536C216.622 112.4 216.051 113.061 215.326 113.52C214.611 113.968 213.79 114.192 212.862 114.192ZM212.862 112C213.299 112 213.678 111.877 213.998 111.632C214.328 111.387 214.584 110.997 214.766 110.464C214.958 109.931 215.054 109.243 215.054 108.4C215.054 107.557 214.958 106.869 214.766 106.336C214.584 105.803 214.328 105.413 213.998 105.168C213.678 104.923 213.299 104.8 212.862 104.8C212.435 104.8 212.056 104.923 211.726 105.168C211.406 105.413 211.15 105.803 210.958 106.336C210.776 106.869 210.686 107.557 210.686 108.4C210.686 109.243 210.776 109.931 210.958 110.464C211.15 110.997 211.406 111.387 211.726 111.632C212.056 111.877 212.435 112 212.862 112ZM220.762 114V112.32L225.082 108.24C225.424 107.931 225.674 107.653 225.834 107.408C225.994 107.163 226.101 106.939 226.154 106.736C226.218 106.533 226.25 106.347 226.25 106.176C226.25 105.728 226.096 105.387 225.786 105.152C225.488 104.907 225.045 104.784 224.458 104.784C223.989 104.784 223.552 104.875 223.146 105.056C222.752 105.237 222.416 105.52 222.138 105.904L220.25 104.688C220.677 104.048 221.274 103.541 222.042 103.168C222.81 102.795 223.696 102.608 224.698 102.608C225.53 102.608 226.256 102.747 226.874 103.024C227.504 103.291 227.989 103.669 228.33 104.16C228.682 104.651 228.858 105.237 228.858 105.92C228.858 106.283 228.81 106.645 228.714 107.008C228.629 107.36 228.448 107.733 228.17 108.128C227.904 108.523 227.509 108.965 226.986 109.456L223.402 112.832L222.906 111.888H229.226V114H220.762ZM232.2 114V112.32L236.52 108.24C236.861 107.931 237.112 107.653 237.272 107.408C237.432 107.163 237.539 106.939 237.592 106.736C237.656 106.533 237.688 106.347 237.688 106.176C237.688 105.728 237.533 105.387 237.224 105.152C236.925 104.907 236.483 104.784 235.896 104.784C235.427 104.784 234.989 104.875 234.584 105.056C234.189 105.237 233.853 105.52 233.576 105.904L231.688 104.688C232.115 104.048 232.712 103.541 233.48 103.168C234.248 102.795 235.133 102.608 236.136 102.608C236.968 102.608 237.693 102.747 238.312 103.024C238.941 103.291 239.427 103.669 239.768 104.16C240.12 104.651 240.296 105.237 240.296 105.92C240.296 106.283 240.248 106.645 240.152 107.008C240.067 107.36 239.885 107.733 239.608 108.128C239.341 108.523 238.947 108.965 238.424 109.456L234.84 112.832L234.344 111.888H240.664V114H232.2ZM250.473 110.496V108.496H255.001V110.496H250.473ZM264.872 114V112.32L269.192 108.24C269.533 107.931 269.784 107.653 269.944 107.408C270.104 107.163 270.21 106.939 270.264 106.736C270.328 106.533 270.36 106.347 270.36 106.176C270.36 105.728 270.205 105.387 269.896 105.152C269.597 104.907 269.154 104.784 268.568 104.784C268.098 104.784 267.661 104.875 267.256 105.056C266.861 105.237 266.525 105.52 266.248 105.904L264.36 104.688C264.786 104.048 265.384 103.541 266.152 103.168C266.92 102.795 267.805 102.608 268.808 102.608C269.64 102.608 270.365 102.747 270.984 103.024C271.613 103.291 272.098 103.669 272.44 104.16C272.792 104.651 272.968 105.237 272.968 105.92C272.968 106.283 272.92 106.645 272.824 107.008C272.738 107.36 272.557 107.733 272.28 108.128C272.013 108.523 271.618 108.965 271.096 109.456L267.512 112.832L267.016 111.888H273.336V114H264.872ZM281.205 114.192C280.288 114.192 279.467 113.968 278.741 113.52C278.016 113.061 277.445 112.4 277.029 111.536C276.613 110.672 276.405 109.627 276.405 108.4C276.405 107.173 276.613 106.128 277.029 105.264C277.445 104.4 278.016 103.744 278.741 103.296C279.467 102.837 280.288 102.608 281.205 102.608C282.133 102.608 282.955 102.837 283.669 103.296C284.395 103.744 284.965 104.4 285.381 105.264C285.797 106.128 286.005 107.173 286.005 108.4C286.005 109.627 285.797 110.672 285.381 111.536C284.965 112.4 284.395 113.061 283.669 113.52C282.955 113.968 282.133 114.192 281.205 114.192ZM281.205 112C281.643 112 282.021 111.877 282.341 111.632C282.672 111.387 282.928 110.997 283.109 110.464C283.301 109.931 283.397 109.243 283.397 108.4C283.397 107.557 283.301 106.869 283.109 106.336C282.928 105.803 282.672 105.413 282.341 105.168C282.021 104.923 281.643 104.8 281.205 104.8C280.779 104.8 280.4 104.923 280.069 105.168C279.749 105.413 279.493 105.803 279.301 106.336C279.12 106.869 279.029 107.557 279.029 108.4C279.029 109.243 279.12 109.931 279.301 110.464C279.493 110.997 279.749 111.387 280.069 111.632C280.4 111.877 280.779 112 281.205 112ZM289.106 114V112.32L293.426 108.24C293.767 107.931 294.018 107.653 294.178 107.408C294.338 107.163 294.445 106.939 294.498 106.736C294.562 106.533 294.594 106.347 294.594 106.176C294.594 105.728 294.439 105.387 294.13 105.152C293.831 104.907 293.389 104.784 292.802 104.784C292.333 104.784 291.895 104.875 291.49 105.056C291.095 105.237 290.759 105.52 290.482 105.904L288.594 104.688C289.021 104.048 289.618 103.541 290.386 103.168C291.154 102.795 292.039 102.608 293.042 102.608C293.874 102.608 294.599 102.747 295.218 103.024C295.847 103.291 296.333 103.669 296.674 104.16C297.026 104.651 297.202 105.237 297.202 105.92C297.202 106.283 297.154 106.645 297.058 107.008C296.973 107.36 296.791 107.733 296.514 108.128C296.247 108.523 295.853 108.965 295.33 109.456L291.746 112.832L291.25 111.888H297.57V114H289.106ZM305.28 114.192C304.341 114.192 303.52 114.053 302.816 113.776C302.112 113.488 301.562 113.088 301.168 112.576C300.773 112.053 300.576 111.445 300.576 110.752C300.576 110.059 300.768 109.472 301.152 108.992C301.546 108.501 302.096 108.133 302.8 107.888C303.504 107.632 304.33 107.504 305.28 107.504C306.24 107.504 307.072 107.632 307.776 107.888C308.49 108.133 309.04 108.501 309.424 108.992C309.818 109.472 310.016 110.059 310.016 110.752C310.016 111.445 309.818 112.053 309.424 112.576C309.029 113.088 308.474 113.488 307.76 113.776C307.056 114.053 306.229 114.192 305.28 114.192ZM305.28 112.288C305.93 112.288 306.442 112.144 306.816 111.856C307.2 111.568 307.392 111.173 307.392 110.672C307.392 110.171 307.2 109.781 306.816 109.504C306.442 109.216 305.93 109.072 305.28 109.072C304.64 109.072 304.133 109.216 303.76 109.504C303.386 109.781 303.2 110.171 303.2 110.672C303.2 111.173 303.386 111.568 303.76 111.856C304.133 112.144 304.64 112.288 305.28 112.288ZM305.28 108.816C304.416 108.816 303.658 108.699 303.008 108.464C302.368 108.229 301.866 107.888 301.504 107.44C301.152 106.981 300.976 106.437 300.976 105.808C300.976 105.147 301.157 104.581 301.52 104.112C301.882 103.632 302.389 103.264 303.04 103.008C303.69 102.741 304.437 102.608 305.28 102.608C306.144 102.608 306.896 102.741 307.536 103.008C308.186 103.264 308.693 103.632 309.056 104.112C309.429 104.581 309.616 105.147 309.616 105.808C309.616 106.437 309.434 106.981 309.072 107.44C308.72 107.888 308.218 108.229 307.568 108.464C306.917 108.699 306.154 108.816 305.28 108.816ZM305.28 107.296C305.824 107.296 306.25 107.173 306.56 106.928C306.88 106.683 307.04 106.347 307.04 105.92C307.04 105.472 306.874 105.125 306.544 104.88C306.224 104.635 305.802 104.512 305.28 104.512C304.768 104.512 304.352 104.635 304.032 104.88C303.712 105.125 303.552 105.472 303.552 105.92C303.552 106.347 303.706 106.683 304.016 106.928C304.325 107.173 304.746 107.296 305.28 107.296Z" fill="black"/>
<path d="M321 108C321 106.909 321.909 106.039 322.998 106.085L368 108L322.998 109.915C321.909 109.961 321 109.091 321 108Z" fill="#620E31"/>
</svg>
