<svg width="353" height="110" viewBox="0 0 353 110" fill="none" xmlns="http://www.w3.org/2000/svg">
<path d="M135.64 15.009C132.788 15.009 129.844 17.815 129.844 24.692C129.844 27.82 130.373 31.454 131.753 34.513C133.34 37.802 135.87 39.251 138.147 39.251C141.436 39.251 144.334 36.813 144.334 30.787C144.334 27.383 143.483 23.289 142.08 20.368C140.562 17.033 138.101 15.009 135.64 15.009ZM121.242 27.613C121.242 17.769 127.498 10.961 136.652 10.961C145.116 10.961 152.361 17.102 152.361 28.119C152.361 38.538 145.53 43.782 136.974 43.782C127.13 43.782 121.242 37.02 121.242 27.613ZM165.424 31.017V35.594C165.424 38.193 166.321 39.113 167.839 39.757C168.943 40.263 169.886 40.654 169.886 41.597C169.886 42.747 168.897 43.115 167.425 43.115C166.068 43.115 163.4 43 161.905 43C160.318 43 158.34 43.115 157.236 43.115C155.971 43.115 155.419 42.609 155.419 41.85C155.419 40.309 157.604 40.378 157.972 37.779C158.179 36.468 158.248 31.109 158.248 26.647C158.248 23.519 158.225 19.149 158.156 18.16C157.857 14.526 155.603 14.733 155.603 12.962C155.603 12.203 155.971 11.605 157.259 11.605C159.582 11.605 162.273 11.72 167.563 11.72C172.14 11.72 174.624 11.605 176.28 11.605C177.913 11.605 178.465 11.904 178.787 13.997C178.971 14.986 179.247 16.803 179.592 18.574C179.753 19.356 179.868 20.253 179.868 20.552C179.868 21.518 179.27 21.909 178.626 21.909C177.683 21.909 177.223 20.897 176.717 19.954C174.946 16.389 174.095 15.515 169.15 15.515C165.999 15.515 165.424 15.952 165.424 18.482V22.507C165.424 24.416 165.746 24.761 166.62 24.761C170.415 24.761 170.668 23.45 171.542 22.047C171.818 21.656 172.14 21.38 172.577 21.38C173.451 21.38 173.819 22.116 173.819 24.186V30.833C173.819 32.052 173.566 32.719 172.715 32.719C171.795 32.719 171.427 31.914 171.128 31.247C170.346 29.591 169.932 28.786 166.758 28.786C165.769 28.786 165.424 29.338 165.424 31.017ZM193.323 11.605C194.542 11.605 194.956 12.203 194.956 12.962C194.956 14.733 192.748 14.48 192.426 18.114C192.311 19.126 192.288 22.507 192.288 26.647C192.288 31.822 192.403 36.353 192.587 37.71C193.001 40.355 195.14 40.286 195.14 41.85C195.14 42.54 194.542 43.115 193.323 43.115C191.966 43.115 190.218 43 188.723 43C187.182 43 185.411 43.115 184.054 43.115C182.789 43.115 182.237 42.54 182.237 41.85C182.237 40.286 184.445 40.332 184.813 37.71C184.997 36.445 185.066 31.04 185.066 26.647C185.066 23.542 185.066 19.149 184.997 18.114C184.698 14.503 182.421 14.71 182.421 12.962C182.421 12.203 182.789 11.605 184.077 11.605C185.48 11.605 187.228 11.72 188.723 11.72C190.264 11.72 192.012 11.605 193.323 11.605ZM198.17 27.475C198.17 19.057 203.161 10.938 213.212 10.938C216.754 10.938 218.41 12.042 219.859 12.042C220.894 12.042 221.561 11.559 222.481 11.559C224.252 11.559 224.298 13.33 224.85 16.067C225.448 19.172 225.77 19.931 225.77 20.575C225.77 21.564 225.195 22.024 224.528 22.024C223.309 22.024 222.688 20.621 221.676 19.172C219.56 16.205 216.777 14.503 214.017 14.503C208.934 14.503 206.312 19.264 206.312 24.738C206.312 31.822 210.153 37.549 216.409 37.549C220.733 37.549 223.217 34.789 224.413 32.535C224.827 31.868 225.172 31.316 225.655 31.316C226.322 31.316 226.575 32.236 226.575 32.995C226.575 34.49 226.115 36.192 225.149 37.756C223.171 40.953 219.077 43.782 213.258 43.782C203.552 43.782 198.17 36.1 198.17 27.475ZM240.671 11.605C241.89 11.605 242.304 12.203 242.304 12.962C242.304 14.733 240.096 14.48 239.774 18.114C239.659 19.126 239.636 22.507 239.636 26.647C239.636 31.822 239.751 36.353 239.935 37.71C240.349 40.355 242.488 40.286 242.488 41.85C242.488 42.54 241.89 43.115 240.671 43.115C239.314 43.115 237.566 43 236.071 43C234.53 43 232.759 43.115 231.402 43.115C230.137 43.115 229.585 42.54 229.585 41.85C229.585 40.286 231.793 40.332 232.161 37.71C232.345 36.445 232.414 31.04 232.414 26.647C232.414 23.542 232.414 19.149 232.345 18.114C232.046 14.503 229.769 14.71 229.769 12.962C229.769 12.203 230.137 11.605 231.425 11.605C232.828 11.605 234.576 11.72 236.071 11.72C237.612 11.72 239.36 11.605 240.671 11.605ZM254.971 30.258H261.043C261.503 30.258 261.595 30.097 261.595 29.844C261.595 29.154 259.64 23.427 258.536 21.288C258.421 21.035 258.214 20.759 258.076 20.759C257.892 20.759 257.754 21.035 257.616 21.288C256.604 23.312 254.442 29.269 254.442 29.844C254.442 30.097 254.557 30.258 254.971 30.258ZM247.45 36.859L254.442 18.643C255.04 17.01 255.431 15.377 255.638 14.158C255.96 12.571 259.479 11.007 260.974 11.007C262.193 11.007 262.607 11.858 263.044 13.031L272.313 36.905C272.589 37.618 273.141 38.814 274.337 39.849C274.797 40.263 275.533 40.838 275.533 41.574C275.533 42.816 274.636 43.115 272.819 43.115C271.577 43.115 270.45 43 268.288 43C266.126 43 264.93 43.115 263.573 43.115C262.216 43.115 261.572 42.586 261.572 41.689C261.572 40.378 264.286 39.895 264.286 37.802C264.286 37.434 263.711 35.709 263.251 34.881C263.09 34.582 262.722 34.352 262.262 34.352H254.281C253.683 34.352 253.246 34.582 252.97 34.881C252.51 35.571 251.751 37.388 251.751 38.17C251.751 40.194 254.143 40.493 254.143 41.804C254.143 42.54 253.706 43.115 252.211 43.115C251.222 43.115 249.543 43 248.485 43C247.404 43 246.714 43.115 245.702 43.115C244.713 43.115 244.184 42.655 244.184 41.827C244.184 40.378 246.047 40.493 247.45 36.859ZM280.031 26.647C280.031 23.542 280.031 19.149 279.962 18.114C279.663 14.503 277.386 14.71 277.386 12.962C277.386 12.203 277.754 11.605 279.042 11.605C280.445 11.605 282.193 11.72 283.688 11.72C285.229 11.72 287.759 11.605 289.093 11.605C290.312 11.605 290.726 12.203 290.726 12.962C290.726 14.917 287.713 14.549 287.391 18.206C287.276 19.195 287.253 22.507 287.253 26.647V35.985C287.253 38.515 288.173 38.975 291.347 38.975C296.384 38.975 297.718 37.043 298.845 33.869C299.397 32.466 299.88 31.822 300.616 31.822C301.421 31.822 301.766 32.581 301.766 33.8C301.766 35.088 301.398 38.009 301.191 41.275C301.099 42.701 300.57 43.115 298.983 43.115C297.074 43.115 293.578 43 289.576 43C283.435 43 280.491 43.115 279.019 43.115C277.846 43.115 277.202 42.678 277.202 41.85C277.202 40.263 279.341 40.355 279.755 37.779C279.962 36.583 280.031 32.627 280.031 26.647ZM319.389 43H304.439V39.044L308.441 37.204V15.952L304.439 14.112V10.156H319.389V14.112L315.387 15.952V37.204L319.389 39.044V43ZM321.643 0.495999C321.213 0.925332 320.646 1.44667 319.941 2.06C319.235 2.67333 318.469 3.31733 317.641 3.992C316.843 4.66666 316.046 5.31066 315.249 5.924C314.482 6.50666 313.807 6.99733 313.225 7.396H308.671V6.798C309.161 6.21533 309.729 5.54066 310.373 4.774C311.047 3.97666 311.707 3.164 312.351 2.336C312.995 1.47733 313.531 0.710665 313.961 0.0359993H321.643V0.495999ZM331.518 30.258H337.59C338.05 30.258 338.142 30.097 338.142 29.844C338.142 29.154 336.187 23.427 335.083 21.288C334.968 21.035 334.761 20.759 334.623 20.759C334.439 20.759 334.301 21.035 334.163 21.288C333.151 23.312 330.989 29.269 330.989 29.844C330.989 30.097 331.104 30.258 331.518 30.258ZM323.997 36.859L330.989 18.643C331.587 17.01 331.978 15.377 332.185 14.158C332.507 12.571 336.026 11.007 337.521 11.007C338.74 11.007 339.154 11.858 339.591 13.031L348.86 36.905C349.136 37.618 349.688 38.814 350.884 39.849C351.344 40.263 352.08 40.838 352.08 41.574C352.08 42.816 351.183 43.115 349.366 43.115C348.124 43.115 346.997 43 344.835 43C342.673 43 341.477 43.115 340.12 43.115C338.763 43.115 338.119 42.586 338.119 41.689C338.119 40.378 340.833 39.895 340.833 37.802C340.833 37.434 340.258 35.709 339.798 34.881C339.637 34.582 339.269 34.352 338.809 34.352H330.828C330.23 34.352 329.793 34.582 329.517 34.881C329.057 35.571 328.298 37.388 328.298 38.17C328.298 40.194 330.69 40.493 330.69 41.804C330.69 42.54 330.253 43.115 328.758 43.115C327.769 43.115 326.09 43 325.032 43C323.951 43 323.261 43.115 322.249 43.115C321.26 43.115 320.731 42.655 320.731 41.827C320.731 40.378 322.594 40.493 323.997 36.859ZM148.681 78.864C148.267 78.864 147.209 81.348 144.84 87.673C143.391 91.514 142.103 95.056 141.436 96.436C140.884 97.448 140.01 98.23 138.814 98.23C138.216 98.23 137.687 97.678 137.388 97.034C136.767 95.7 132.098 83.993 130.258 79.669C129.959 78.979 129.775 78.634 129.591 78.634C129.407 78.634 129.315 78.933 129.269 79.416C129.177 80.244 128.97 87.098 128.97 88.432C128.97 90.824 129.223 92.917 129.591 93.722C130.442 95.378 131.707 95.401 131.707 96.758C131.707 97.563 131.27 98.115 130.051 98.115C128.556 98.115 127.659 98 126.831 98C125.796 98 124.577 98.115 123.059 98.115C121.978 98.115 121.472 97.586 121.472 96.781C121.472 95.056 123.726 95.447 124.186 91.951C124.669 88.087 125.06 80.129 125.06 76.564C125.06 75.161 125.014 74.011 124.945 73.16C124.623 69.526 122.392 69.733 122.392 67.962C122.392 67.18 122.783 66.605 124.002 66.605C124.83 66.605 126.716 66.72 127.843 66.72C130.511 66.72 131.27 66.858 132.075 67.364C132.926 67.893 133.708 69.135 134.145 69.94C134.858 71.251 139.32 81.9 140.677 85.074C140.769 85.327 140.884 85.488 141.068 85.488C141.183 85.488 141.321 85.419 141.482 85.097C141.873 84.085 145.898 73.758 147.669 69.848C148.267 68.583 148.865 67.801 149.555 67.341C150.314 66.881 151.533 66.72 153.902 66.72C154.615 66.72 156.179 66.605 157.007 66.605C158.134 66.605 158.548 67.203 158.548 67.985C158.548 69.687 156.455 69.595 156.018 73.091C155.903 74.034 155.88 75.46 155.88 76.357C155.88 81.233 156.409 88.984 156.823 91.859C157.306 95.493 159.56 95.056 159.56 96.781C159.56 97.586 159.054 98.115 157.904 98.115C156.432 98.115 154.224 98 153.212 98C151.648 98 150.107 98.115 148.612 98.115C147.439 98.115 146.795 97.632 146.795 96.85C146.795 95.309 148.911 95.378 149.394 92.687C149.463 92.296 149.486 91.652 149.486 90.847C149.486 88.777 149.302 83.717 148.98 79.646C148.911 79.071 148.75 78.864 148.681 78.864ZM171.461 85.258H177.533C177.993 85.258 178.085 85.097 178.085 84.844C178.085 84.154 176.13 78.427 175.026 76.288C174.911 76.035 174.704 75.759 174.566 75.759C174.382 75.759 174.244 76.035 174.106 76.288C173.094 78.312 170.932 84.269 170.932 84.844C170.932 85.097 171.047 85.258 171.461 85.258ZM163.94 91.859L170.932 73.643C171.53 72.01 171.921 70.377 172.128 69.158C172.45 67.571 175.969 66.007 177.464 66.007C178.683 66.007 179.097 66.858 179.534 68.031L188.803 91.905C189.079 92.618 189.631 93.814 190.827 94.849C191.287 95.263 192.023 95.838 192.023 96.574C192.023 97.816 191.126 98.115 189.309 98.115C188.067 98.115 186.94 98 184.778 98C182.616 98 181.42 98.115 180.063 98.115C178.706 98.115 178.062 97.586 178.062 96.689C178.062 95.378 180.776 94.895 180.776 92.802C180.776 92.434 180.201 90.709 179.741 89.881C179.58 89.582 179.212 89.352 178.752 89.352H170.771C170.173 89.352 169.736 89.582 169.46 89.881C169 90.571 168.241 92.388 168.241 93.17C168.241 95.194 170.633 95.493 170.633 96.804C170.633 97.54 170.196 98.115 168.701 98.115C167.712 98.115 166.033 98 164.975 98C163.894 98 163.204 98.115 162.192 98.115C161.203 98.115 160.674 97.655 160.674 96.827C160.674 95.378 162.537 95.493 163.94 91.859ZM207.545 86.753C207.545 89.168 207.637 91.307 207.844 92.687C208.235 95.332 210.765 95.24 210.765 96.85C210.765 97.54 210.19 98.115 208.971 98.115C207.591 98.115 205.452 98 203.98 98C202.416 98 200.277 98.115 198.92 98.115C197.678 98.115 197.103 97.54 197.103 96.85C197.103 95.24 199.679 95.309 200.07 92.687C200.254 91.399 200.323 88.777 200.323 86.408C200.323 84.476 198.667 81.785 196.16 77.645C194.964 75.713 193.423 73.091 192.135 71.366C190.87 69.756 189.513 69.503 189.513 68.146C189.513 66.927 190.433 66.605 191.997 66.605C193.17 66.605 194.228 66.72 196.321 66.72C198.414 66.72 199.61 66.605 200.921 66.605C202.232 66.605 202.83 67.134 202.83 68.008C202.83 69.25 201.082 69.825 201.082 71.251C201.082 72.562 204.026 78.082 205.199 79.439C205.314 79.554 205.452 79.646 205.59 79.646C205.705 79.646 205.843 79.508 205.958 79.37C207.246 77.553 209.684 72.516 209.684 71.32C209.684 69.526 207.867 69.204 207.867 67.916C207.867 67.203 208.281 66.605 209.73 66.605C210.719 66.605 212.72 66.72 213.778 66.72C214.836 66.72 215.641 66.605 216.63 66.605C217.596 66.605 218.125 67.088 218.125 67.893C218.125 69.388 216.975 69.365 215.135 71.711C213.893 73.252 212.651 75.713 211.064 78.68C209.316 81.877 207.545 84.706 207.545 86.753ZM233.3 70.009C230.448 70.009 227.504 72.815 227.504 79.692C227.504 82.82 228.033 86.454 229.413 89.513C231 92.802 233.53 94.251 235.807 94.251C239.096 94.251 241.994 91.813 241.994 85.787C241.994 82.383 241.143 78.289 239.74 75.368C238.222 72.033 235.761 70.009 233.3 70.009ZM218.902 82.613C218.902 72.769 225.158 65.961 234.312 65.961C242.776 65.961 250.021 72.102 250.021 83.119C250.021 93.538 243.19 98.782 234.634 98.782C224.79 98.782 218.902 92.02 218.902 82.613ZM271.364 75.897C271.364 72.654 269.041 70.653 265.821 70.653C263.383 70.653 263.13 70.952 263.13 73.758V78.266C263.13 80.014 263.521 80.957 266.097 80.957C269.317 80.957 271.364 79.117 271.364 75.897ZM263.107 87.397V90.985C263.107 92.871 263.728 93.837 264.51 94.665C265.223 95.47 266.189 95.93 266.189 96.85C266.189 97.678 265.476 98.115 264.395 98.115C263.038 98.115 261.06 98 259.565 98C257.978 98 256 98.115 254.896 98.115C253.631 98.115 253.079 97.609 253.079 96.85C253.079 95.309 255.264 95.378 255.632 92.779C255.839 91.468 255.908 86.109 255.908 81.647C255.908 78.519 255.885 74.149 255.816 73.16C255.517 69.526 253.263 69.733 253.263 67.962C253.263 67.203 253.631 66.605 254.919 66.605C257.242 66.605 258.024 66.72 260.715 66.72C263.245 66.72 265.752 66.559 268.65 66.559C275.274 66.559 279.437 69.227 279.437 74.954C279.437 77.783 278.011 80.911 272.721 82.751C272.583 82.82 272.422 82.912 272.422 83.073C272.422 83.188 272.514 83.349 272.744 83.464C275.918 85.166 277.85 87.926 279.759 91.376C280.679 93.078 281.415 94.274 282.381 95.033C283.278 95.815 283.784 95.93 283.784 96.827C283.784 97.839 283.094 98.115 282.358 98.115C281.392 98.115 279.046 98 277.942 98C276.01 98 274.239 98.115 273.549 98.115C272.422 98.115 271.686 97.517 271.686 96.758C271.686 95.953 272.238 95.654 272.238 94.55C272.238 91.951 269.57 87.42 267.477 85.925C266.557 85.35 265.085 85.212 264.74 85.212C263.567 85.212 263.107 86.04 263.107 87.397Z" fill="#620E31"/>
<path d="M23.1228 103.686C22.9625 103.621 22.9145 101.325 22.9145 92.9083V82.1953L23.5234 81.6171C23.8439 81.2959 24.1964 80.9426 24.3086 80.8301C24.4047 80.7177 24.629 80.4928 24.8053 80.3162C24.9816 80.1395 25.1899 79.9307 25.254 79.8504C25.3341 79.7701 25.6225 79.497 25.8789 79.24C26.1513 78.9831 26.4398 78.6939 26.5199 78.5976C26.616 78.5012 27.1128 77.9872 27.6416 77.4572C28.1704 76.9272 28.6831 76.4293 28.7633 76.3329C28.8594 76.2526 29.1478 75.9635 29.4042 75.7065C29.6766 75.4495 29.9651 75.1604 30.0612 75.048C30.1734 74.9356 30.3977 74.7107 30.574 74.534C30.7502 74.3574 30.9586 74.1486 31.0387 74.0683C31.1028 73.9879 31.3912 73.7149 31.6476 73.4579C31.92 73.2009 32.2245 72.8958 32.3366 72.7673C33.3301 71.7072 34.7402 70.4223 34.8364 70.5026C34.8845 70.5508 34.9325 75.5298 34.9325 81.5529V92.5068L34.3717 93.085C34.0512 93.4223 33.7307 93.6793 33.6506 93.6793C33.5705 93.6793 33.4743 93.8238 33.4102 94.0005C33.3622 94.1772 33.1058 94.4342 32.8494 94.5787C32.609 94.7393 32.3206 95.0124 32.2245 95.2212C32.1443 95.4139 31.8559 95.703 31.5835 95.8636C31.3111 96.0243 31.0867 96.2491 31.0867 96.3615C31.0867 96.474 30.8304 96.731 30.5259 96.9237C30.2214 97.1325 29.9651 97.3734 29.9651 97.4858C29.9651 97.5822 29.6766 97.8713 29.3241 98.1283C28.9716 98.3692 28.6831 98.6423 28.6831 98.7065C28.6831 98.8832 27.3531 100.184 26.8404 100.521C26.616 100.666 26.4398 100.875 26.4398 101.003C26.4398 101.116 26.1513 101.405 25.7988 101.662C25.4463 101.903 25.1578 102.192 25.1578 102.304C25.1578 102.401 24.9175 102.642 24.613 102.818C24.3246 103.011 24.0361 103.3 23.9881 103.477C23.908 103.782 23.5554 103.862 23.1228 103.686Z" fill="#9B2149"/>
<path d="M76.9157 102.995C76.5151 102.545 76.0984 102.095 75.9702 101.983C74.8005 100.907 71.3072 97.3252 71.3072 97.2128C71.3072 97.1164 71.2271 97.0522 71.147 97.0522C71.0509 97.0522 70.0093 96.0885 68.8235 94.8999C67.157 93.2456 66.6602 92.6513 66.6602 92.3301C66.6602 91.7037 67.1089 91.8001 67.814 92.5871C68.1505 92.9565 68.4229 93.3259 68.4229 93.3902C68.4229 93.4544 68.519 93.5187 68.6472 93.5187C68.7754 93.5187 69.0158 93.7435 69.176 94.0005C69.3202 94.2735 69.5766 94.5145 69.7209 94.5627C69.849 94.6108 70.0574 94.8196 70.1695 95.0124C70.2817 95.2212 70.5701 95.5103 70.8105 95.6548C71.0509 95.7994 71.3393 96.0885 71.4675 96.3133C71.5796 96.5382 71.7399 96.7309 71.804 96.7309C71.9001 96.7309 73.4064 98.1925 74.0634 98.9153C74.2076 99.092 74.8005 99.6863 75.3774 100.248C75.9542 100.811 76.4349 101.325 76.4349 101.389C76.4349 101.453 76.5792 101.549 76.7554 101.598C76.9317 101.646 77.0759 101.774 77.0759 101.903C77.0759 102.015 77.2201 102.208 77.3964 102.32L77.7169 102.513L77.6848 92.3783C77.6528 84.4279 77.5887 82.2114 77.4445 82.1471C77.2362 82.0829 77.14 80.9907 77.3323 80.9907C77.3804 80.9907 77.7009 81.2638 78.0534 81.585L78.6783 82.1793V92.7156C78.6623 103.846 78.6783 103.798 77.9412 103.798C77.781 103.798 77.3163 103.429 76.9157 102.995Z" fill="#9B2149"/>
<path d="M36.6471 90.2583C36.5349 89.921 36.5029 73.4099 36.6311 70.8079C36.7112 68.8163 36.7913 68.2541 36.9996 68.0775C37.256 67.8365 37.7848 67.3065 38.1053 66.9853C38.2976 66.7765 39.1789 65.8931 39.3872 65.7004C39.6276 65.4755 40.2205 64.8652 40.3487 64.7206C40.4128 64.6564 40.6852 64.3994 40.9416 64.1424C41.214 63.8854 41.5184 63.5803 41.6306 63.4518C41.871 63.2108 43.6817 61.3798 43.874 61.2032C44.0983 60.9783 45.909 59.1634 46.0693 58.9867C46.1654 58.9064 46.4539 58.6173 46.7102 58.3603C46.9826 58.1033 47.2711 57.8142 47.3512 57.7178C47.6877 57.3484 48.4248 56.722 48.4889 56.7702C48.521 56.8023 48.569 61.7011 48.6171 67.6599C48.6972 79.5132 48.7293 79.0796 47.7518 79.6578C47.4954 79.8023 47.2711 80.0272 47.2711 80.1396C47.2711 80.252 47.0147 80.509 46.7102 80.7018C46.4058 80.9106 46.1494 81.1675 46.1494 81.28C46.1494 81.3924 45.893 81.6333 45.5886 81.81C45.2841 81.9867 44.9957 82.2758 44.9476 82.4525C44.8995 82.6131 44.6431 82.8701 44.4028 83.0146C44.1624 83.1592 43.906 83.4322 43.8099 83.6089C43.7298 83.8016 43.4573 84.0586 43.201 84.1871C42.9446 84.2995 42.7042 84.5405 42.6722 84.7011C42.6241 84.8617 42.3357 85.1508 42.0472 85.3435C41.7428 85.5202 41.5024 85.7772 41.5024 85.9057C41.5024 86.0181 41.246 86.2912 40.9416 86.4839C40.6371 86.6927 40.3807 86.9497 40.3807 87.0621C40.3807 87.1745 40.1243 87.4155 39.8199 87.5921C39.5154 87.7688 39.227 88.0579 39.1789 88.2185C39.1308 88.3952 38.8424 88.6682 38.554 88.861C38.2495 89.0377 37.9771 89.3107 37.9451 89.4713C37.8329 89.8568 36.7432 90.5153 36.6471 90.2583Z" fill="#9B2149"/>
<path d="M58.4239 84.476C53.168 79.2078 52.6071 78.5975 52.6712 78.212C52.7673 77.7141 53.3122 77.6017 53.4724 78.0514C53.5365 78.196 53.6967 78.4369 53.8249 78.5814C53.9692 78.726 54.1935 78.999 54.3217 79.1918C54.4499 79.3845 54.6101 79.5451 54.6582 79.5451C54.7704 79.5451 56.4529 81.2155 58.3598 83.2071C58.5681 83.4159 58.8725 83.705 59.0328 83.8496C60.0263 84.733 60.5711 85.4397 60.5711 85.8733C60.5711 86.2267 60.6352 86.2909 61.0198 86.2909C61.3563 86.2909 61.7088 86.5158 62.3818 87.1904C62.8786 87.6722 63.2952 88.138 63.3272 88.2022C63.4234 88.411 64.3848 89.0214 64.6412 89.0214C64.7854 89.0214 64.8976 89.1499 64.8976 89.3105C64.8976 89.8405 64.7053 90.3063 64.481 90.3063C64.3688 90.3063 61.6447 87.6883 58.4239 84.476Z" fill="#9B2149"/>
<path d="M99.9904 80.8945C99.8622 80.8624 95.2633 80.8142 89.767 80.7981C80.4089 80.7499 79.7679 80.7339 79.6237 80.4608C79.5276 80.3163 79.3673 80.1075 79.2712 80.0272C79.159 79.9308 78.9347 79.7381 78.7424 79.5774C78.5661 79.4329 78.3258 79.1438 78.2136 78.951C78.1175 78.7423 77.9412 78.5816 77.829 78.5816C77.6047 78.5816 77.0759 78.0195 77.0759 77.7786C77.0759 77.6983 76.8836 77.5376 76.6433 77.4252C76.4029 77.3128 76.0984 77.0076 75.9863 76.7667C75.8741 76.5258 75.6978 76.333 75.6017 76.333C75.5216 76.333 75.0088 75.8833 74.496 75.3372C73.9672 74.7751 73.4705 74.2611 73.3743 74.1647C73.2942 74.0844 72.7814 73.5865 72.2526 73.0726C71.7399 72.5586 71.3072 72.0607 71.3072 71.9964C71.3072 71.9161 71.1149 71.7555 70.8746 71.6431C70.6342 71.5307 70.3298 71.2255 70.2176 70.9846C70.1054 70.7436 69.9452 70.5509 69.8811 70.5509C69.6888 70.5509 68.9677 69.8603 68.7754 69.5069C68.6633 69.266 68.6633 69.1054 68.8235 68.8966C68.9998 68.6396 69.7369 68.6235 79.4314 68.6235C88.5011 68.6235 89.8792 68.6557 90.0554 68.8645C90.1676 68.9929 90.424 69.1054 90.6323 69.1054C90.8887 69.1054 91.081 69.266 91.2572 69.5872C91.4014 69.8603 91.6098 70.0691 91.7379 70.0691C91.8822 70.0691 92.1866 70.3582 92.427 70.7115C92.6673 71.0488 92.9077 71.3379 92.9718 71.354C93.1 71.354 94.7024 72.928 94.7024 73.0565C94.7024 73.201 95.087 73.5383 95.3914 73.6508C95.5357 73.699 95.744 73.9238 95.8401 74.1326C95.9363 74.3414 96.2087 74.6305 96.449 74.7751C96.6894 74.9196 96.9778 75.2087 97.106 75.4336C97.2182 75.6585 97.3784 75.8512 97.4425 75.8512C97.5387 75.8512 98.9488 77.2164 99.5257 77.8749C99.6859 78.0516 99.9743 78.3407 100.167 78.5174C100.888 79.1598 101.224 79.6256 101.304 80.0914C101.384 80.4769 101.32 80.5733 100.856 80.766C100.567 80.8945 100.295 80.9748 100.279 80.9748C100.247 80.9587 100.119 80.9266 99.9904 80.8945Z" fill="#9B2149"/>
<path d="M0 80.0432C0 79.9469 9.83879 70.0048 11.0726 68.8645C11.281 68.6557 12.8513 68.6235 21.9049 68.6235C31.3592 68.6235 32.5129 68.6557 32.593 68.8805C32.6411 69.009 32.7533 69.0893 32.8334 69.0251C32.9135 68.9769 33.0417 69.0251 33.0898 69.1214C33.1539 69.2178 32.8975 69.5872 32.5129 69.9566L31.8078 70.5991L31.7598 70.1012L31.7117 69.5872H21.5684H11.4252L9.27795 71.7555C8.09217 72.9441 7.03458 73.9238 6.93843 73.9238C6.82626 73.9238 6.73012 74.0041 6.73012 74.1166C6.73012 74.3414 4.95145 76.1724 4.72711 76.1724C4.63096 76.1724 4.48675 76.333 4.40663 76.5418C4.31048 76.7346 4.08614 76.9594 3.89386 77.0558C3.68554 77.1361 3.5253 77.2807 3.5253 77.377C3.5253 77.4573 2.91639 78.1319 2.17928 78.8707C1.18578 79.8505 0.737108 80.1878 0.416626 80.1878C0.192289 80.1878 0 80.1235 0 80.0432Z" fill="#9B2149"/>
<path d="M74.3838 79.0633C74.1595 78.8384 74.0313 78.5332 74.0313 78.1799V77.6338L74.5441 78.1156C74.8325 78.3726 75.2331 78.7581 75.4414 78.983L75.81 79.3845H75.2652C74.9447 79.3845 74.5922 79.256 74.3838 79.0633Z" fill="#9B2149"/>
<path d="M71.6277 76.1243C71.6277 76.0279 71.4194 75.8352 71.147 75.7227C70.7464 75.5461 70.6663 75.4176 70.6663 74.9518C70.6663 74.47 70.6983 74.4218 70.9547 74.5503C71.0989 74.6306 71.5796 75.0803 72.0123 75.5139L72.7975 76.3331H72.2206C71.852 76.3331 71.6277 76.2528 71.6277 76.1243Z" fill="#9B2149"/>
<path d="M68.6152 73.2813C68.4229 73.0886 68.2626 72.7995 68.2626 72.6388C68.2626 72.43 68.1505 72.3176 67.9742 72.3176C67.814 72.3176 67.4614 72.1088 67.173 71.8358C66.7243 71.4342 66.6602 71.2897 66.7724 70.8881L66.9006 70.4224L68.487 72.0124L70.0894 73.6025H69.5285C69.176 73.6025 68.8235 73.474 68.6152 73.2813Z" fill="#9B2149"/>
<path d="M72.7494 66.8569L66.0834 66.7766L65.5386 66.2466C63.167 63.998 62.0133 62.8255 62.0133 62.7131C62.0133 62.6328 61.837 62.4882 61.6127 62.3918C61.4043 62.2955 61.1159 61.9903 60.9717 61.7173C60.8435 61.4603 60.6192 61.2354 60.507 61.2354C60.3948 61.2354 60.1545 61.0427 59.9942 60.8178C59.834 60.5769 59.5936 60.3038 59.4814 60.2075C59.1129 59.9023 58.7443 59.5329 58.4719 59.2117C58.3277 59.0511 58.0553 58.7941 57.8951 58.6656C57.7188 58.5371 57.4945 58.264 57.3823 58.0713C57.2861 57.8625 57.0939 57.7019 56.9657 57.7019C56.8535 57.7019 56.5971 57.4449 56.4048 57.1397C56.2125 56.8346 55.9882 56.5776 55.9081 56.5776C55.6837 56.5776 55.1229 56.0476 55.1229 55.8227C55.1229 55.6942 54.9466 55.5175 54.7223 55.4212C53.6487 54.9393 54.4339 54.8911 65.4905 54.843C76.483 54.8108 76.5471 54.8108 76.9798 55.1481C77.2041 55.3248 77.3964 55.5657 77.3964 55.6781C77.3964 55.7906 77.5727 55.9833 77.797 56.0957C78.0213 56.2242 78.3578 56.5615 78.5341 56.8506C78.7104 57.1397 78.9667 57.3807 79.0949 57.3807C79.2231 57.3807 79.4795 57.6376 79.6558 57.9428C79.8481 58.248 80.0724 58.505 80.1686 58.505C80.3608 58.505 82.2036 60.4163 82.2036 60.6251C82.2036 60.6893 82.2837 60.7536 82.3959 60.7536C82.5882 60.7536 83.4855 61.7012 83.4855 61.91C83.4855 61.9742 83.5496 62.0385 83.6458 62.0385C83.8381 62.0385 85.7289 63.9498 85.7289 64.1586C85.7289 64.2228 85.809 64.2871 85.9052 64.2871C86.0975 64.2871 87.9723 66.1984 87.9723 66.4072C87.9723 66.4714 88.0845 66.5357 88.2127 66.5357C88.5492 66.5357 88.5171 66.8569 88.1806 66.873C87.2672 66.9372 78.438 66.9212 72.7494 66.8569Z" fill="#9B2149"/>
<path d="M13.3961 66.5033C13.5564 66.3105 16.2484 63.5962 19.3411 60.4802C23.7797 56.0312 25.0777 54.8105 25.3982 54.8105C25.6866 54.8105 25.7988 54.8909 25.7988 55.1318C25.7988 55.3085 25.7026 55.453 25.5905 55.453C25.4783 55.453 25.302 55.5976 25.1899 55.7742C25.0777 55.9509 24.8854 56.0955 24.7572 56.0955C24.629 56.0955 24.5169 56.1918 24.5169 56.3043C24.5169 56.5612 23.6836 57.3804 23.4272 57.3804C23.3151 57.3804 23.2349 57.4607 23.2349 57.541C23.2349 57.798 22.2575 58.8259 22.0011 58.8259C21.8889 58.8259 21.7928 58.9223 21.7928 59.0347C21.7928 59.2596 20.1263 60.9139 19.9179 60.9139C19.8378 60.9139 19.7096 61.0745 19.6295 61.2833C19.5334 61.476 19.309 61.7009 19.1167 61.7973C18.9084 61.8776 18.7482 62.0382 18.7482 62.1346C18.7482 62.3594 17.8989 63.1625 17.6585 63.1625C17.5464 63.1625 17.4663 63.2267 17.4663 63.3231C17.4663 63.564 16.7932 64.2868 16.5529 64.2868C16.4407 64.2868 16.3446 64.3671 16.3446 64.4635C16.3446 64.5598 15.8638 65.1381 15.271 65.7484C14.3416 66.696 14.1012 66.8566 13.6365 66.8566H13.0917L13.3961 66.5033Z" fill="#9B2149"/>
<path d="M62.1735 66.632C62.1735 66.5035 61.9972 66.359 61.7729 66.3108C61.3563 66.1983 61.148 65.7165 61.2441 65.1062C61.2922 64.801 61.4364 64.8974 62.3338 65.8129L63.3593 66.8569H62.7664C62.3658 66.8569 62.1735 66.7766 62.1735 66.632Z" fill="#9B2149"/>
<path d="M57.0137 61.701C56.8535 61.6207 56.7253 61.3959 56.7253 61.2353C56.7253 61.0586 56.6452 60.914 56.549 60.914C56.4529 60.914 56.2766 60.8177 56.1644 60.7213C56.0363 60.6089 55.8279 60.4161 55.6837 60.3037C55.5555 60.1913 55.4434 59.8379 55.4434 59.5167V58.9385L56.4529 59.8861C56.9977 60.4001 57.6547 61.0746 57.895 61.3638L58.3597 61.8777H57.8149C57.5265 61.8777 57.1579 61.7974 57.0137 61.701Z" fill="#9B2149"/>
<path d="M52.7193 57.9108C52.7193 57.2522 52.8955 56.7383 53.1038 56.7383C53.216 56.7383 53.5365 56.9953 53.841 57.3004L54.3858 57.8626H53.9531C53.6807 57.8626 53.5205 57.9429 53.5205 58.1035C53.5205 58.2481 53.3763 58.3444 53.1199 58.3444C52.7834 58.3444 52.7193 58.2641 52.7193 57.9108Z" fill="#9B2149"/>
<path d="M24.5008 50.49C24.2765 50.2651 24.0361 49.9439 23.9881 49.7833C23.924 49.6387 23.6996 49.4299 23.4913 49.3496C23.267 49.2693 22.9785 48.9802 22.8343 48.7072C22.7061 48.4502 22.4818 48.2253 22.3376 48.2253C22.2094 48.2253 21.953 47.9683 21.7767 47.6632C21.6005 47.358 21.312 47.0689 21.1358 47.0207C20.9755 46.9725 20.7191 46.7316 20.5749 46.4907C20.4467 46.2498 20.1102 45.9285 19.8538 45.784C19.5975 45.6234 19.3891 45.3985 19.3891 45.27C19.3891 45.1255 19.1808 44.9167 18.9084 44.7721C18.652 44.6436 18.3155 44.3063 18.1873 44.0493C18.0431 43.7763 17.8348 43.5675 17.6906 43.5675C17.5624 43.5675 17.306 43.3105 17.1297 43.0053C16.9535 42.7002 16.665 42.4111 16.4888 42.3629C16.3285 42.2986 16.0722 42.0577 15.96 41.8168C15.8318 41.5759 15.5434 41.3028 15.319 41.1904C15.0787 41.094 14.8223 40.821 14.7101 40.5961C14.614 40.3873 14.4057 40.1625 14.2454 40.1143C13.973 40.0179 13.3 39.2309 13.3 39.006C13.3 38.9579 18.2995 38.9097 24.4047 38.9097H35.4934L36.7753 40.1946C37.4803 40.9173 38.7783 42.1862 39.6436 43.0535C40.5249 43.9048 41.3101 44.7079 41.4063 44.8363C41.5024 44.9488 42.0152 45.4627 42.5279 45.9606C43.0567 46.4586 43.5535 46.9565 43.6496 47.0689C44.0502 47.5668 45.6526 49.189 45.7328 49.189C45.8449 49.189 47.1749 50.6185 47.239 50.8112C47.2711 50.8915 42.592 50.9558 36.1023 50.9397L24.9175 50.9236L24.5008 50.49Z" fill="#9B2149"/>
<path d="M75.794 50.6505C75.794 50.4739 75.8741 50.2811 75.9703 50.2329C76.0504 50.1687 76.1946 49.9438 76.2747 49.735C76.3709 49.5102 76.5632 49.3496 76.7394 49.3496C76.9317 49.3496 77.14 49.1408 77.3003 48.8035C77.4765 48.418 77.7009 48.2253 78.0214 48.145C78.3899 48.0646 78.5181 47.9201 78.5982 47.5667C78.6623 47.2616 78.8546 47.0206 79.0789 46.9403C79.2873 46.86 79.5436 46.587 79.6718 46.3461C79.8161 46.057 80.0244 45.8803 80.2968 45.8482C80.6173 45.816 80.7615 45.6715 80.8576 45.286C80.9698 44.9166 81.1461 44.7399 81.5146 44.6275C81.8992 44.5311 82.0434 44.3866 82.0755 44.0653C82.1075 43.7762 82.2357 43.6317 82.4761 43.5996C82.6844 43.5674 82.9247 43.3265 83.0689 43.0053C83.2132 42.7001 83.5336 42.3628 83.758 42.2504C83.9983 42.138 84.2868 41.8649 84.3829 41.6561C84.4951 41.4473 84.7355 41.2064 84.9438 41.094C85.1521 40.9976 85.4245 40.7085 85.5367 40.4676C85.6809 40.1785 85.8732 40.0339 86.1135 40.0339C86.3859 40.0339 86.5141 39.9054 86.6263 39.52C86.7705 39.022 86.8346 38.9899 87.6038 38.9417L88.437 38.8936L86.2097 41.1422C84.9758 42.395 83.9022 43.4068 83.8061 43.4068C83.7259 43.4068 83.6458 43.4711 83.6458 43.5514C83.6458 43.7602 77.7489 49.6708 77.5567 49.6708C77.4605 49.6708 77.3964 49.7511 77.3964 49.8635C77.3964 49.976 77.2041 50.2651 76.9638 50.506C76.451 51.036 75.794 51.1163 75.794 50.6505Z" fill="#9B2149"/>
<path d="M52.9917 48.948C52.7193 48.7553 52.7033 48.1289 52.7193 38.3153C52.7193 32.5975 52.7513 27.7469 52.7834 27.5542C52.8955 26.976 53.3442 26.2532 53.6487 26.1568C53.8089 26.1086 54.0653 25.8356 54.2255 25.5625C54.3858 25.3056 54.6902 25.0004 54.8986 24.904C55.1069 24.8077 55.3152 24.5989 55.3793 24.4222C55.4273 24.2616 55.6677 24.0206 55.9081 23.9082C56.1484 23.7797 56.4208 23.4906 56.533 23.2658C56.6292 23.0248 56.9016 22.7679 57.1259 22.6554C57.3502 22.5591 57.5265 22.4145 57.5265 22.3503C57.5265 22.2699 58.2476 21.5151 59.1289 20.6477C59.9942 19.7804 60.7954 18.9934 60.9076 18.881C61.0037 18.7846 61.7088 18.0458 62.494 17.2588C64.0643 15.6526 64.4329 15.3796 64.7053 15.6526C64.9457 15.8935 64.9777 36.7574 64.7534 37.3356C64.5771 37.7692 63.2311 39.2308 62.9907 39.2308C62.9106 39.2308 62.7023 39.4396 62.5581 39.6966C62.3978 39.9536 62.1094 40.2427 61.9011 40.3391C61.7088 40.4355 61.5325 40.58 61.5325 40.6442C61.5325 40.853 60.7794 41.6401 60.5871 41.6401C60.491 41.6401 60.3307 41.8007 60.2346 41.9934C59.9942 42.4592 59.7699 42.668 59.4173 42.8125C59.2571 42.8607 59.1289 42.9732 59.1289 43.0535C59.1289 43.2462 54.9787 47.4222 54.7864 47.4222C54.7063 47.4222 54.562 47.5989 54.4659 47.8077C54.3698 48.0165 54.1134 48.2895 53.889 48.4019C53.6647 48.5304 53.4404 48.7392 53.3763 48.8998C53.2961 49.1247 53.232 49.1247 52.9917 48.948Z" fill="#9B2149"/>
<path d="M10.656 36.5489C10.4477 36.4365 10.2234 36.1955 10.1753 36.0189C10.1112 35.8422 9.85483 35.5852 9.59844 35.4407C9.34205 35.3122 9.0376 35.0231 8.94145 34.8143C8.84531 34.5894 8.70109 34.4127 8.63699 34.4127C8.44471 34.4127 6.56989 32.5496 6.56989 32.3569C6.56989 32.2605 6.36157 32.0677 6.08916 31.9232C5.83278 31.7786 5.60844 31.5698 5.60844 31.4253C5.60844 31.2968 5.35205 31.0398 5.0476 30.8631C4.74314 30.6865 4.4547 30.3974 4.40663 30.2207C4.34254 30.0601 4.08615 29.8031 3.82977 29.6585C3.57338 29.53 3.28495 29.2409 3.20483 29.0161C3.1247 28.8073 2.86832 28.5503 2.64398 28.47C2.41964 28.3897 2.17928 28.1809 2.13121 28.0363C2.00302 27.683 1.82675 27.5063 1.24989 27.1369C0.9935 26.9763 0.801211 26.7675 0.801211 26.655C0.801211 26.5426 0.656994 26.3338 0.480729 26.1732C0.0480783 25.8038 0.0801265 25.4504 0.576873 25.0007L0.977476 24.6152H11.1047H21.248L23.8118 27.169C25.238 28.5824 26.5199 29.9155 26.6641 30.1404C26.8083 30.3652 26.9846 30.558 27.0647 30.558C27.241 30.558 32.1123 35.4567 32.4488 35.9546C32.577 36.1634 32.8013 36.3401 32.9455 36.3401C33.0898 36.3401 33.1699 36.4365 33.1218 36.5489C33.0257 36.838 11.2169 36.838 10.656 36.5489Z" fill="#9B2149"/>
<path d="M90.8566 35.7779C90.8566 35.4728 90.9207 35.2158 91.0008 35.2158C91.0809 35.2158 91.2252 35.007 91.3213 34.7339C91.4014 34.4609 91.5937 34.2521 91.7379 34.2521C92.0744 34.2521 92.459 33.8666 92.459 33.5454C92.459 33.4169 92.6994 33.192 93.0038 33.0475C93.3403 32.8869 93.5807 32.646 93.6127 32.4372C93.6448 32.2444 93.8691 31.9874 94.1095 31.875C94.3499 31.7465 94.6223 31.4735 94.7024 31.2647C94.8306 30.9595 94.9748 30.8792 95.4235 30.8792C95.9523 30.8792 95.9843 30.8471 95.9843 30.317C95.9843 29.8513 96.0644 29.7388 96.5291 29.514C96.8656 29.3534 97.106 29.1124 97.138 28.9036C97.1701 28.7109 97.3303 28.5342 97.4906 28.5021C97.8912 28.4218 98.2277 28.0845 98.2277 27.7633C98.2277 27.6348 98.468 27.4099 98.7725 27.2654C99.109 27.1048 99.3974 26.8156 99.4936 26.5265C99.5737 26.2696 99.75 26.0608 99.8782 26.0608C100.006 26.0608 100.199 25.9483 100.311 25.8198C100.487 25.611 99.4455 25.5789 91.0329 25.5789H81.5626V25.1934C81.5626 24.9365 81.6748 24.7758 81.9312 24.7116C82.5721 24.551 100.663 24.5992 100.551 24.7758C100.503 24.8722 100.567 24.9365 100.695 24.9365C100.936 24.9365 101.497 25.8841 101.352 26.0286C101.304 26.0768 101.272 26.0608 101.272 25.9805C101.272 25.9001 101.016 26.1893 100.695 26.5908C100.375 27.0084 100.006 27.3457 99.8942 27.3457C99.766 27.3457 99.6699 27.4099 99.6699 27.5063C99.6699 27.699 96.3529 31.0398 96.1606 31.0398C96.0805 31.0398 95.9843 31.1844 95.9362 31.3771C95.8882 31.5538 95.6959 31.7465 95.5196 31.7947C95.3273 31.8429 95.1831 31.9393 95.1831 32.0035C95.1831 32.1481 91.0809 36.3401 90.9367 36.3401C90.8886 36.3401 90.8566 36.0831 90.8566 35.7779Z" fill="#9B2149"/>
<path d="M66.7404 35.023C66.6923 34.8142 66.6763 29.7709 66.6923 23.796L66.7404 12.9385L68.4229 11.3002C69.3523 10.4168 70.1535 9.62981 70.2176 9.56556C70.3618 9.38889 72.2046 7.54182 72.4129 7.34908C72.509 7.26877 73.3102 6.44964 74.1916 5.5502C75.0729 4.6347 75.8581 3.89587 75.9382 3.89587C76.0183 3.89587 76.1305 3.75132 76.1946 3.57464C76.2426 3.39796 76.499 3.14098 76.7714 2.98037C77.0278 2.81975 77.2842 2.57883 77.3323 2.41822C77.4605 2.00062 78.0053 1.88819 78.3739 2.22548C78.6623 2.49852 78.6783 2.83581 78.6783 13.0348V23.5711L77.2201 25.0649C76.4349 25.8679 75.7139 26.5425 75.6337 26.5425C75.5536 26.5425 75.4094 26.6871 75.3133 26.8637C75.2171 27.0404 74.7684 27.5223 74.3198 27.9399C73.2301 28.9517 73.0378 29.1605 72.7494 29.5621C72.6212 29.7548 72.461 29.9154 72.3808 29.9154C72.2526 29.9154 70.6663 31.4413 70.6663 31.5698C70.6663 31.6501 68.8555 33.4811 67.5576 34.7017C66.8525 35.3603 66.8205 35.3763 66.7404 35.023Z" fill="#9B2149"/>
<path d="M36.6791 34.5412C36.6311 32.6781 36.615 15.5244 36.6631 15.4281C36.8234 15.0747 38.1854 16.2954 42.9285 21.0496C48.8254 26.9602 49.1619 27.3457 48.3928 27.3457C47.9281 27.3457 47.2711 26.8799 47.2711 26.5587C47.2711 26.4141 47.0467 26.2053 46.7743 26.0768C46.5019 25.9644 46.2455 25.7395 46.1814 25.595C46.0853 25.3059 45.3963 24.6152 45.204 24.6152C45.1399 24.6152 44.9957 24.4546 44.8835 24.2458C44.7713 24.037 44.4669 23.7479 44.2105 23.5873C43.9541 23.4427 43.7458 23.2179 43.7458 23.1054C43.7458 22.977 43.6336 22.8485 43.5054 22.7842C43.3772 22.736 43.265 22.5433 43.265 22.3666C43.265 22.1578 43.1529 22.0454 42.9446 22.0454C42.7843 22.0454 42.576 21.949 42.5119 21.8366C42.4478 21.7081 42.1914 21.4832 41.935 21.3226C41.6947 21.1781 41.4543 20.889 41.4063 20.6962C41.3582 20.5035 41.1178 20.2626 40.8454 20.1662C40.589 20.0698 40.3807 19.8932 40.3807 19.7647C40.3807 19.6522 40.2205 19.4274 40.0282 19.2828C39.3552 18.7689 37.9771 17.4036 37.9771 17.227C37.9771 17.1466 37.913 17.0663 37.8169 17.0663C37.7367 17.0663 37.6566 16.9539 37.6566 16.8254C37.6566 16.6969 37.5925 16.5845 37.4964 16.5845C37.3842 16.5845 37.3361 19.7968 37.3361 25.9001C37.3361 35.1033 37.3361 35.2158 37.0157 35.2158C36.7432 35.2158 36.6952 35.1033 36.6791 34.5412Z" fill="#9B2149"/>
<path d="M34.1313 13.388C34.1313 13.3077 33.9871 13.1792 33.8109 13.131C33.6346 13.0828 33.4583 12.874 33.3942 12.6813C33.3462 12.4885 33.0737 12.2155 32.8013 12.0709C32.4648 11.9103 32.2725 11.6855 32.2405 11.4124C32.2084 11.1073 32.0803 10.9788 31.7117 10.8985C31.4393 10.8503 31.1669 10.6575 31.0707 10.4327C30.9746 10.2239 30.6862 9.93477 30.4298 9.77416C30.1253 9.59748 29.9651 9.37262 29.9651 9.09958C29.9651 8.82653 29.8689 8.7141 29.6606 8.7141C29.3081 8.7141 28.5229 8.02346 28.5229 7.70223C28.5229 7.57374 28.3466 7.41312 28.1223 7.36494C27.898 7.30069 27.7217 7.18826 27.7217 7.09189C27.7217 6.8831 27.4653 6.64217 26.8884 6.2567C26.6321 6.09608 26.4398 5.90335 26.4398 5.79092C26.4398 5.61424 25.8309 5.01997 25.6386 5.01997C25.5745 5.01997 25.4463 4.85935 25.3341 4.65055C25.2219 4.44176 24.9175 4.15265 24.6611 3.99203C24.4047 3.84748 24.1964 3.60656 24.1964 3.47807C24.1964 3.34958 24.1323 3.25321 24.0362 3.25321C23.956 3.25321 23.8759 2.99622 23.8759 2.69106C23.8759 2.38589 23.908 2.12891 23.956 2.12891C24.1483 2.12891 34.9325 13.0828 34.9325 13.2916C34.9325 13.4362 34.7723 13.5325 34.5319 13.5325C34.3076 13.5325 34.1313 13.4683 34.1313 13.388Z" fill="#9B2149"/>
<path d="M77.7169 103.557C77.7169 103.428 77.6368 103.316 77.5406 103.316C77.4605 103.316 77.4284 103.412 77.4925 103.525C77.5566 103.621 77.5566 103.669 77.4765 103.605C77.4124 103.541 77.2682 103.316 77.1721 103.123C77.0599 102.914 76.8836 102.754 76.7554 102.754C76.6272 102.754 76.5151 102.641 76.5151 102.513C76.5151 102.175 74.0313 99.7663 73.807 99.8947C73.7109 99.9429 73.6788 99.9429 73.7429 99.8787C73.791 99.8144 73.7269 99.6056 73.5827 99.429C73.0859 98.8347 70.1535 95.9276 70.0253 95.9276C69.9772 95.9276 69.817 95.7509 69.7048 95.526C69.5927 95.3172 69.3683 95.0924 69.2401 95.0442C69.0959 94.996 68.8395 94.739 68.6793 94.466C68.503 94.1769 68.3107 94.0163 68.1665 94.0644C68.0383 94.1126 67.9422 94.0644 67.9422 93.952C67.9422 93.8396 67.6537 93.422 67.3012 93.0365L66.6602 92.3298L66.6763 81.7132C66.6923 75.8829 66.7564 70.9359 66.8205 70.7111C66.9487 70.3256 66.9968 70.3256 67.0448 70.7593C67.0609 70.8556 67.141 70.9359 67.2211 70.9199C67.3172 70.9199 67.4775 71.0002 67.5896 71.1287C67.7018 71.2572 67.7499 71.3535 67.7018 71.3535C67.6377 71.3535 67.9422 71.6426 68.3428 71.996C68.7434 72.3494 69.0318 72.6385 68.9517 72.6385C68.8876 72.6385 69.0799 72.8151 69.3843 73.0239C70.0253 73.4576 71.2271 74.7425 71.179 74.9352C71.163 74.9995 71.2111 75.0477 71.3072 75.0477C71.3874 75.0477 72.2206 75.8026 73.166 76.7341C74.0954 77.6657 74.8005 78.4206 74.7364 78.4206C74.6563 78.4206 74.7845 78.5491 74.9928 78.6936C75.6978 79.1755 77.7169 81.2153 77.7169 81.4401C77.7169 81.5526 77.781 81.6168 77.8611 81.5526C77.9412 81.5044 78.1656 81.665 78.3578 81.9059C78.6623 82.2914 78.6783 82.3556 78.454 82.4038C78.1495 82.4681 78.1175 82.8535 78.4059 82.966C78.5662 83.0302 78.5662 83.0623 78.4059 83.0623C78.2777 83.0784 78.1976 83.3354 78.1976 83.7851C78.1976 84.2027 78.2777 84.5239 78.4059 84.5721C78.5662 84.6364 78.5662 84.6685 78.4059 84.6685C78.1335 84.6845 78.1015 102.288 78.3578 102.384C78.454 102.416 78.5501 102.657 78.5662 102.914C78.5982 103.332 78.5501 103.396 78.2457 103.348C77.8611 103.3 77.7329 103.557 78.0854 103.685C78.1976 103.733 78.1656 103.782 78.0053 103.782C77.8451 103.798 77.7169 103.685 77.7169 103.557Z" fill="#631032"/>
<path d="M63.872 89.6156C63.7278 89.4068 63.4394 89.1338 63.2151 89.0214C62.9907 88.9089 62.7824 88.668 62.7183 88.5074C62.6702 88.3307 62.526 88.2344 62.3978 88.2825C62.2857 88.3307 62.1895 88.3147 62.2216 88.2504C62.2857 88.0256 61.4364 87.1422 60.7634 86.7085C60.3948 86.4837 60.0904 86.1785 60.0904 86.05C60.0904 85.9215 59.9942 85.7609 59.882 85.6966C59.7539 85.6324 59.5455 85.3754 59.4013 85.1506C59.2411 84.9257 58.9526 84.6527 58.7443 84.5402C58.536 84.4278 58.2636 84.1548 58.1514 83.946C58.0393 83.7211 57.847 83.5926 57.7348 83.6247C57.6226 83.6729 57.5425 83.6568 57.5746 83.5926C57.6226 83.432 57.3823 83.1589 55.7158 81.4564C54.9306 80.6694 54.2255 80.0591 54.1454 80.1233C54.0653 80.1715 54.0012 80.1233 54.0012 80.027C54.0012 79.8663 53.9051 79.7218 53.3602 79.0793C52.7032 78.3084 52.7193 78.4529 52.7193 67.9809C52.7193 61.3475 52.7673 57.8622 52.8795 57.8622C52.9757 57.8622 53.0398 57.6534 53.0398 57.4124C53.0398 57.1555 53.0878 56.8985 53.1359 56.8503C53.2801 56.7218 56.2446 59.661 56.1484 59.8217C56.1004 59.8859 56.1324 59.9501 56.1965 59.9501C56.4369 59.9501 57.3663 60.7853 57.2701 60.9299C57.2381 60.9941 57.3983 61.1708 57.6387 61.2993C58.2316 61.6045 62.0453 65.4913 61.9011 65.6198C61.853 65.6841 61.8851 65.7323 61.9972 65.7323C62.2857 65.7323 64.529 67.9487 64.7213 68.4306C64.8495 68.7358 64.8816 71.9159 64.8655 79.2078L64.8175 89.5514L64.4649 89.7763C64.1445 89.9851 64.0964 89.969 63.872 89.6156Z" fill="#631032"/>
<path d="M10.8964 80.9905C5.30398 80.9423 0.608918 80.8459 0.448677 80.7817C-0.288431 80.4122 -0.0640936 80.1231 4.02205 76.0435C6.21735 73.8431 7.96398 71.996 7.88386 71.9157C7.81976 71.8354 7.85181 71.8194 7.93193 71.8836C8.02807 71.9318 8.74916 71.3215 9.53434 70.5344L10.9605 69.105H21.7287C31.1028 69.105 32.5129 69.1371 32.6892 69.3459C32.8334 69.5226 32.8334 69.5868 32.7052 69.5868C32.593 69.5868 32.561 69.6671 32.6251 69.7796C32.6892 69.892 32.6731 69.9081 32.5449 69.8438C32.4488 69.7796 32.3206 69.8438 32.2565 70.0044C32.1283 70.3578 22.0171 80.5086 21.4723 80.8298C21.1198 81.0386 19.7577 81.0547 10.8964 80.9905Z" fill="#631032"/>
<path d="M13.8128 66.2619C14.1333 65.9246 14.7742 65.2821 15.2069 64.8163C15.6555 64.3506 16.0241 63.9008 16.0241 63.8045C16.0241 63.7242 16.0722 63.6599 16.1523 63.676C16.3286 63.7402 18.2675 61.8289 18.2675 61.6041C18.2675 61.4916 18.3796 61.3953 18.5078 61.3953C18.636 61.3953 18.9565 61.0901 19.2289 60.7207C19.4853 60.3673 19.7096 60.1264 19.7096 60.1906C19.7096 60.2549 20.6871 59.3394 21.8729 58.1508C23.0587 56.9462 24.0361 55.9022 24.0361 55.8059C24.0361 55.7256 24.1804 55.6131 24.3726 55.5649C24.5489 55.5168 24.7412 55.324 24.7893 55.1473C24.8694 54.8261 24.9175 54.8261 35.9741 54.8101C42.4959 54.8101 47.1269 54.8743 47.1749 54.9546C47.223 55.0349 44.6431 57.7493 41.4223 60.9777L35.5735 66.8561H24.4047H13.2359L13.8128 66.2619Z" fill="#631032"/>
<path d="M54.4178 50.8428C54.3057 50.7304 54.4499 50.5698 56.1004 48.9476C56.6292 48.4176 57.158 47.8875 57.2541 47.7751C57.3663 47.6627 57.6226 47.4057 57.831 47.2129C58.0393 47.0202 58.3277 46.715 58.4719 46.5544C58.6161 46.3938 58.8725 46.1368 59.0328 45.9923C59.193 45.8477 59.4494 45.6068 59.5936 45.4301C60.2506 44.6752 61.5646 43.4064 61.6928 43.4064C61.7729 43.4064 61.9652 43.1976 62.1094 42.9406C62.2696 42.6836 62.5581 42.3785 62.7664 42.266C62.9587 42.1536 63.167 41.9609 63.2151 41.8163C63.2631 41.6717 63.4554 41.4469 63.6477 41.3184C63.824 41.1899 64.0964 40.949 64.2406 40.7884C64.3848 40.6278 64.8335 40.1299 65.2501 39.6962L66.0033 38.9092H76.9958C86.8025 38.9092 88.7895 38.9734 87.6839 39.2625C87.5076 39.3107 87.2192 39.6962 87.0108 40.1138C86.7705 40.5956 86.6102 40.8044 86.5301 40.6759C86.466 40.5635 86.3218 40.5314 86.2257 40.5796C86.1295 40.6438 86.0814 40.7723 86.1455 40.8526C86.2417 41.0293 85.6007 41.6236 85.2802 41.6396C85.1681 41.6396 85.0239 41.7681 84.9758 41.9287C84.8155 42.3785 84.3829 42.8442 84.1265 42.8442C84.0143 42.8442 83.7259 43.1815 83.5016 43.5991C83.2772 44.0328 83.0529 44.2898 82.9888 44.1773C82.8446 43.9525 82.5241 44.1613 82.5241 44.4986C82.5241 44.8037 82.0754 45.2535 81.7549 45.2535C81.6588 45.2535 81.4345 45.5104 81.2742 45.8156C81.0979 46.169 80.8896 46.3778 80.6813 46.3778C80.489 46.3778 80.2807 46.5544 80.1525 46.8435C80.0243 47.1005 79.784 47.3414 79.6077 47.3896C79.4475 47.4217 79.2071 47.7109 79.0789 48C78.9347 48.3533 78.7104 48.5782 78.438 48.6424C78.1976 48.7067 77.9412 48.8994 77.8611 49.0921C77.5566 49.7667 77.2361 50.2325 77.2361 50.0237C77.2361 49.8952 77.14 49.831 77.0439 49.8792C76.9317 49.9113 76.8516 50.0398 76.8836 50.1361C76.8996 50.2486 76.7554 50.4734 76.5631 50.634C76.2106 50.9392 75.7619 50.9392 65.3623 50.9553C59.4013 50.9553 54.4819 50.9071 54.4178 50.8428Z" fill="#631032"/>
<path d="M48.1364 48.8673C47.9761 48.7067 46.6301 47.3575 45.1399 45.896C43.6657 44.4183 42.3837 43.0852 42.3036 42.9085C42.2075 42.7479 42.0633 42.6034 41.9831 42.6034C41.8549 42.6034 38.8264 39.632 37.6246 38.331C37.4643 38.1543 37.1919 37.8813 36.9996 37.7046C36.6792 37.3994 36.6631 37.271 36.7433 35.5684C36.7913 34.4923 36.7753 33.8017 36.6792 33.8659C36.599 33.9141 36.5349 33.8338 36.5349 33.7053C36.5349 33.5608 36.6151 33.4483 36.6952 33.4483C36.8074 33.4483 36.8554 30.3645 36.8554 24.5342C36.8554 15.6844 36.8554 15.6201 37.1759 15.6201C37.3522 15.6201 37.5445 15.7325 37.5925 15.861C37.6566 15.9895 37.7528 16.0698 37.8169 16.0217C37.897 15.9735 37.9931 16.0859 38.0572 16.2626C38.1053 16.4393 38.2335 16.5838 38.3136 16.5838C38.3937 16.5838 38.4578 16.6962 38.4578 16.8247C38.4578 17.0978 39.0027 17.419 39.1789 17.2584C39.259 17.1941 39.259 17.2263 39.211 17.3226C39.0828 17.5475 39.6276 18.0775 39.8199 17.9169C39.884 17.8366 39.9 17.9169 39.8359 18.0936C39.7558 18.3184 39.8039 18.3666 39.9801 18.2863C40.1243 18.2381 40.2045 18.2542 40.1564 18.3184C40.0602 18.4791 40.6211 18.993 40.8775 18.993C40.9736 18.993 41.0217 19.1055 40.9576 19.2339C40.9095 19.3785 41.0057 19.5391 41.23 19.6515C41.6787 19.8925 42.1434 20.3743 42.0472 20.4867C41.9992 20.5349 42.0953 20.6474 42.2716 20.7437C42.4478 20.8401 42.7202 21.0489 42.8805 21.1934C43.0407 21.3541 43.233 21.4825 43.3292 21.4825C43.4253 21.4825 43.5855 21.6592 43.6817 21.868C43.7939 22.0768 44.0022 22.3177 44.1304 22.3981C44.2746 22.4784 44.3547 22.6068 44.3066 22.6872C44.2265 22.8156 44.7393 23.2011 44.8835 23.1208C44.9155 23.1048 44.9316 23.1208 44.9155 23.1529C44.8835 23.1851 45.0437 23.3778 45.2681 23.5705C45.4764 23.7793 45.6046 23.9881 45.5405 24.0684C45.4764 24.1327 45.5725 24.1327 45.7488 24.0684C45.9251 24.0042 46.0212 24.0042 45.9571 24.0524C45.8289 24.1809 46.4058 24.7751 46.6301 24.7751C46.7263 24.7751 46.7904 24.9036 46.7583 25.0643C46.7263 25.2409 46.8064 25.3373 46.9827 25.3212C47.1429 25.3052 47.239 25.3534 47.191 25.4176C47.1429 25.4818 47.3031 25.6585 47.5114 25.8031C47.7358 25.9476 47.88 26.1243 47.848 26.2046C47.7999 26.2689 47.9761 26.4937 48.2486 26.6865L48.7293 27.0398L48.6972 38.0419C48.6812 44.081 48.6171 49.0601 48.553 49.1082C48.4889 49.1404 48.2966 49.044 48.1364 48.8673Z" fill="#631032"/>
<path d="M68.6152 36.7894C68.4069 36.5806 68.2626 36.7412 71.7559 33.2077C73.1981 31.7461 74.4319 30.5575 74.512 30.5575C74.5922 30.5575 74.7524 30.3969 74.8485 30.2042C75.0889 29.7384 75.5696 29.2565 75.6818 29.369C75.7299 29.4172 75.842 29.3047 75.9542 29.128C76.1144 28.8229 77.156 27.7307 77.9732 27.0079C78.1495 26.8634 78.3899 26.6064 78.5181 26.4297C78.6463 26.2691 79.111 25.8194 79.5436 25.45C80.2487 24.8396 80.4089 24.7754 81.1781 24.7754C81.6588 24.7754 82.0434 24.8557 82.0434 24.936C82.0434 25.0484 85.1681 25.0966 91.5296 25.0966C96.7375 25.0806 101.048 25.1448 101.112 25.209C101.32 25.4339 101.481 26.1085 101.304 25.9961C101.208 25.9479 101 26.0603 100.84 26.2691C100.679 26.4779 100.455 26.6225 100.343 26.5743C100.247 26.5422 100.103 26.6546 100.038 26.8152C99.8942 27.2489 99.4776 27.6825 99.077 27.8431C98.8526 27.9234 98.7084 28.1162 98.7084 28.3089C98.7084 28.4856 98.6443 28.6301 98.5642 28.6301C98.4841 28.6301 98.3559 28.7908 98.3078 28.9674C98.2277 29.2244 98.1636 29.2565 98.0675 29.112C97.9232 28.8711 97.5867 29.0317 97.5867 29.369C97.5867 29.6581 97.09 30.156 96.7855 30.156C96.6573 30.156 96.5291 30.3005 96.4971 30.4772C96.417 30.8787 95.9202 31.3606 95.5837 31.3606C95.4555 31.3606 95.2632 31.5373 95.1831 31.7461C95.103 31.9549 94.8466 32.2279 94.5902 32.3564C94.3499 32.4688 94.1255 32.7097 94.0935 32.8864C94.0454 33.0631 93.9332 33.2719 93.805 33.3361C93.6769 33.4004 93.5807 33.5931 93.5807 33.7377C93.5807 33.9625 93.5487 33.9625 93.4365 33.7859C93.2602 33.4968 92.9397 33.7056 92.9397 34.1071C92.9397 34.2677 92.8757 34.4123 92.8116 34.4123C92.7314 34.4123 92.5872 34.5729 92.4911 34.7817C92.3949 34.9744 92.3148 35.0387 92.3148 34.9423C92.2828 34.5568 91.9623 34.7335 91.802 35.2153C91.7059 35.4884 91.5617 35.6972 91.4816 35.6972C91.4014 35.6972 91.3373 35.8096 91.3373 35.9381C91.3373 36.0666 91.0169 36.3557 90.6483 36.5806L89.9432 36.9821H79.3834C71.5957 36.9821 68.7594 36.9339 68.6152 36.7894Z" fill="#631032"/>
<path d="M34.2595 34.9262C34.0192 34.6852 33.6666 34.3319 33.4583 34.1391C32.8814 33.577 32.7372 33.4324 31.7277 32.4045C31.2149 31.8745 30.6701 31.3284 30.5419 31.1999C30.3977 31.0714 29.917 30.5735 29.4523 30.1077C28.9876 29.6259 28.4748 29.128 28.3306 28.9834C27.9781 28.6461 27.4012 28.0679 27.0487 27.6985C26.9045 27.554 26.6961 27.3612 26.6 27.2648C26.5039 27.1845 26.2635 26.9276 26.0552 26.7027C25.8469 26.4778 25.0617 25.7069 24.2925 24.9681L22.9145 23.6189V12.8898C22.9145 2.28929 22.9145 2.14474 23.2349 2.04837C23.6836 1.90381 24.1643 2.09655 24.2765 2.4499C24.3246 2.61052 24.4848 2.78719 24.613 2.83538C24.7412 2.88356 24.8213 2.99599 24.7572 3.0763C24.6611 3.25298 25.2059 3.60633 25.3822 3.4939C25.4302 3.44571 25.4463 3.46178 25.3982 3.52602C25.3661 3.57421 25.4943 3.783 25.7187 3.97574C25.927 4.18454 26.0552 4.39334 26.0071 4.44152C25.943 4.48971 25.9751 4.53789 26.0712 4.53789C26.2795 4.53789 26.7923 5.01974 27.0166 5.42127C27.1288 5.59795 27.3211 5.72644 27.4653 5.72644C27.6095 5.71038 27.6896 5.7425 27.6416 5.80675C27.6095 5.87099 27.7537 6.04767 27.962 6.20828C28.1864 6.3689 28.3146 6.56164 28.2825 6.64194C28.2345 6.70619 28.3466 6.80256 28.5229 6.8668C28.6992 6.93105 28.9555 7.15591 29.0677 7.39683C29.1959 7.63775 29.5965 8.00717 29.949 8.23203C30.3176 8.45689 30.574 8.71387 30.5419 8.8263C30.4939 8.92267 30.6541 9.13147 30.8945 9.29208C31.3912 9.61331 31.7277 9.93454 31.7758 10.1112C31.7918 10.1755 31.904 10.2236 32.0161 10.2236C32.1283 10.2076 32.1924 10.2236 32.1443 10.2718C32.0963 10.32 32.2405 10.4967 32.4488 10.6734C32.6731 10.85 32.8174 11.0428 32.7693 11.1231C32.7212 11.1873 32.8975 11.3801 33.1378 11.5246C33.6827 11.878 34.1313 12.3438 34.0352 12.4562C33.9871 12.4883 34.1794 12.6007 34.4358 12.6971L34.9325 12.8738V24.0365C34.9325 30.172 34.8684 35.2313 34.8043 35.2795C34.7242 35.3277 34.4839 35.1671 34.2595 34.9262Z" fill="#631032"/>
</svg>
