<svg width="351" height="187" viewBox="0 0 351 187" fill="none" xmlns="http://www.w3.org/2000/svg">
<path d="M52.712 135.342C52.712 132.086 50.424 129.842 47.124 129.842C44.792 129.842 44.352 130.128 44.352 132.812V137.322C44.352 140.248 45.54 140.776 47.938 140.776C50.974 140.776 52.712 138.708 52.712 135.342ZM44.418 146.144V149.312C44.418 151.424 45.43 152.26 46.904 152.898C47.938 153.36 48.862 153.756 48.862 154.658C48.862 155.758 47.916 156.11 46.508 156.11C45.21 156.11 42.372 156 40.942 156C39.424 156 37.532 156.11 36.476 156.11C35.266 156.11 34.738 155.626 34.738 154.9C34.738 153.426 36.828 153.492 37.18 151.006C37.378 149.752 37.444 144.626 37.444 140.358C37.444 137.366 37.422 133.186 37.356 132.24C37.07 128.764 34.914 128.962 34.914 127.268C34.914 126.542 35.266 125.97 36.498 125.97C38.72 125.97 39.468 126.08 42.042 126.08C44.462 126.08 47.058 125.926 49.83 125.926C56.188 125.926 60.324 129.49 60.324 134.968C60.324 140.248 57.024 144.714 49.632 144.714C47.52 144.714 46.376 144.384 45.452 144.384C44.506 144.384 44.418 144.824 44.418 146.144ZM65.3737 140.358C65.3737 137.388 65.3737 133.186 65.3077 132.196C65.0217 128.742 62.8437 128.94 62.8437 127.268C62.8437 126.542 63.1957 125.97 64.4277 125.97C65.7697 125.97 67.4417 126.08 68.8717 126.08C70.3457 126.08 72.7657 125.97 74.0417 125.97C75.2077 125.97 75.6037 126.542 75.6037 127.268C75.6037 129.138 72.7217 128.786 72.4137 132.284C72.3037 133.23 72.2817 136.398 72.2817 140.358V149.29C72.2817 151.71 73.1617 152.15 76.1977 152.15C81.0157 152.15 82.2917 150.302 83.3697 147.266C83.8977 145.924 84.3597 145.308 85.0637 145.308C85.8337 145.308 86.1637 146.034 86.1637 147.2C86.1637 148.432 85.8117 151.226 85.6137 154.35C85.5257 155.714 85.0197 156.11 83.5017 156.11C81.6757 156.11 78.3317 156 74.5037 156C68.6297 156 65.8137 156.11 64.4057 156.11C63.2837 156.11 62.6677 155.692 62.6677 154.9C62.6677 153.382 64.7137 153.47 65.1097 151.006C65.3077 149.862 65.3737 146.078 65.3737 140.358ZM97.5205 143.812H103.329C103.769 143.812 103.857 143.658 103.857 143.416C103.857 142.756 101.987 137.278 100.931 135.232C100.821 134.99 100.623 134.726 100.491 134.726C100.315 134.726 100.183 134.99 100.051 135.232C99.0825 137.168 97.0145 142.866 97.0145 143.416C97.0145 143.658 97.1245 143.812 97.5205 143.812ZM90.3265 150.126L97.0145 132.702C97.5865 131.14 97.9605 129.578 98.1585 128.412C98.4665 126.894 101.833 125.398 103.263 125.398C104.429 125.398 104.825 126.212 105.243 127.334L114.109 150.17C114.373 150.852 114.901 151.996 116.045 152.986C116.485 153.382 117.189 153.932 117.189 154.636C117.189 155.824 116.331 156.11 114.593 156.11C113.405 156.11 112.327 156 110.259 156C108.191 156 107.047 156.11 105.749 156.11C104.451 156.11 103.835 155.604 103.835 154.746C103.835 153.492 106.431 153.03 106.431 151.028C106.431 150.676 105.881 149.026 105.441 148.234C105.287 147.948 104.935 147.728 104.495 147.728H96.8605C96.2885 147.728 95.8705 147.948 95.6065 148.234C95.1665 148.894 94.4405 150.632 94.4405 151.38C94.4405 153.316 96.7285 153.602 96.7285 154.856C96.7285 155.56 96.3105 156.11 94.8805 156.11C93.9345 156.11 92.3285 156 91.3165 156C90.2825 156 89.6225 156.11 88.6545 156.11C87.7085 156.11 87.2025 155.67 87.2025 154.878C87.2025 153.492 88.9845 153.602 90.3265 150.126ZM120.545 125.97C121.359 125.97 123.185 126.08 124.307 126.08C125.583 126.08 126.375 126.124 126.925 126.41C127.673 126.762 128.157 127.51 129.521 129.182L138.981 142.052C139.905 143.196 140.521 143.746 140.631 143.746C140.873 143.746 140.939 143.614 140.939 139.808C140.939 135.562 140.719 131.69 140.059 130.436C139.355 128.764 137.859 128.456 137.859 127.246C137.859 126.454 138.299 125.97 139.421 125.97C140.565 125.97 141.885 126.08 142.721 126.08C143.711 126.08 144.987 125.97 145.977 125.97C147.077 125.97 147.473 126.52 147.473 127.268C147.473 128.94 145.515 128.566 145.251 131.844C145.163 132.79 145.119 136.266 145.119 139.192C145.141 150.258 145.493 150.302 145.493 153.558C145.493 155.076 144.063 156.352 141.951 156.352C141.379 156.352 140.609 155.868 139.883 155.01L126.793 137.718C126.331 137.19 126.111 136.882 125.935 136.882C125.605 136.882 125.561 137.322 125.561 141.612C125.561 146.342 125.935 150.434 126.529 151.688C127.277 153.448 128.773 153.624 128.773 154.812C128.773 155.604 128.289 156.11 127.189 156.11C125.913 156.11 124.703 156 123.867 156C122.855 156 121.513 156.11 120.303 156.11C119.225 156.11 118.785 155.582 118.785 154.834C118.785 153.184 121.073 153.558 121.337 150.28C121.425 149.246 121.491 145.748 121.491 140.424C121.491 135.782 121.469 133.098 121.403 132.24C121.095 128.764 118.961 128.962 118.961 127.268C118.961 126.476 119.467 125.97 120.545 125.97ZM168.225 137.564V143.922C168.225 145.088 167.983 145.726 167.169 145.726C166.289 145.726 165.937 144.956 165.651 144.318C164.903 142.734 164.507 141.964 161.471 141.964C160.525 141.964 160.195 142.492 160.195 144.098V148.762C160.195 151.82 161.163 152.15 164.199 152.15C169.039 152.15 170.469 150.808 172.075 147.332C172.493 146.452 172.999 145.792 173.637 145.792C174.297 145.792 174.715 146.298 174.715 147.64C174.715 148.718 174.099 152.194 173.901 154.46C173.813 155.802 173.329 156.11 171.789 156.11C170.227 156.11 166.729 156 163.143 156C159.161 156 155.377 156.11 152.363 156.11C151.153 156.11 150.625 155.626 150.625 154.9C150.625 153.426 152.715 153.492 153.067 151.006C153.265 149.752 153.331 144.626 153.331 140.358C153.331 137.366 153.309 133.186 153.243 132.24C152.957 128.764 150.801 128.962 150.801 127.268C150.801 126.542 151.153 125.97 152.385 125.97C154.607 125.97 157.181 126.08 162.241 126.08C166.619 126.08 168.995 125.97 170.579 125.97C172.141 125.97 172.669 126.256 172.977 128.258C173.153 129.204 173.417 130.942 173.747 132.636C173.901 133.384 174.011 134.242 174.011 134.528C174.011 135.452 173.439 135.826 172.823 135.826C171.921 135.826 171.481 134.858 170.997 133.956C169.303 130.546 168.489 129.71 163.759 129.71C160.745 129.71 160.195 130.128 160.195 132.548V135.958C160.195 137.784 160.503 138.114 161.339 138.114C164.925 138.114 165.233 136.86 166.047 135.518C166.311 135.144 166.641 134.88 167.037 134.88C167.873 134.88 168.225 135.584 168.225 137.564ZM186.466 143.812H192.274C192.714 143.812 192.802 143.658 192.802 143.416C192.802 142.756 190.932 137.278 189.876 135.232C189.766 134.99 189.568 134.726 189.436 134.726C189.26 134.726 189.128 134.99 188.996 135.232C188.028 137.168 185.96 142.866 185.96 143.416C185.96 143.658 186.07 143.812 186.466 143.812ZM179.272 150.126L185.96 132.702C186.532 131.14 186.906 129.578 187.104 128.412C187.412 126.894 190.778 125.398 192.208 125.398C193.374 125.398 193.77 126.212 194.188 127.334L203.054 150.17C203.318 150.852 203.846 151.996 204.99 152.986C205.43 153.382 206.134 153.932 206.134 154.636C206.134 155.824 205.276 156.11 203.538 156.11C202.35 156.11 201.272 156 199.204 156C197.136 156 195.992 156.11 194.694 156.11C193.396 156.11 192.78 155.604 192.78 154.746C192.78 153.492 195.376 153.03 195.376 151.028C195.376 150.676 194.826 149.026 194.386 148.234C194.232 147.948 193.88 147.728 193.44 147.728H185.806C185.234 147.728 184.816 147.948 184.552 148.234C184.112 148.894 183.386 150.632 183.386 151.38C183.386 153.316 185.674 153.602 185.674 154.856C185.674 155.56 185.256 156.11 183.826 156.11C182.88 156.11 181.274 156 180.262 156C179.228 156 178.568 156.11 177.6 156.11C176.654 156.11 176.148 155.67 176.148 154.878C176.148 153.492 177.93 153.602 179.272 150.126ZM206.729 141.15C206.729 133.098 211.503 125.332 221.117 125.332C224.505 125.332 226.089 126.388 227.475 126.388C228.465 126.388 229.103 125.926 229.983 125.926C231.677 125.926 231.721 127.62 232.249 130.238C232.821 133.208 233.129 133.934 233.129 134.55C233.129 135.496 232.579 135.936 231.941 135.936C230.775 135.936 230.181 134.594 229.213 133.208C227.189 130.37 224.527 128.742 221.887 128.742C217.025 128.742 214.517 133.296 214.517 138.532C214.517 145.308 218.191 150.786 224.175 150.786C228.311 150.786 230.687 148.146 231.831 145.99C232.227 145.352 232.557 144.824 233.019 144.824C233.657 144.824 233.899 145.704 233.899 146.43C233.899 147.86 233.459 149.488 232.535 150.984C230.643 154.042 226.727 156.748 221.161 156.748C211.877 156.748 206.729 149.4 206.729 141.15ZM247.381 125.97C248.547 125.97 248.943 126.542 248.943 127.268C248.943 128.962 246.831 128.72 246.523 132.196C246.413 133.164 246.391 136.398 246.391 140.358C246.391 145.308 246.501 149.642 246.677 150.94C247.073 153.47 249.119 153.404 249.119 154.9C249.119 155.56 248.547 156.11 247.381 156.11C246.083 156.11 244.411 156 242.981 156C241.507 156 239.813 156.11 238.515 156.11C237.305 156.11 236.777 155.56 236.777 154.9C236.777 153.404 238.889 153.448 239.241 150.94C239.417 149.73 239.483 144.56 239.483 140.358C239.483 137.388 239.483 133.186 239.417 132.196C239.131 128.742 236.953 128.94 236.953 127.268C236.953 126.542 237.305 125.97 238.537 125.97C239.879 125.97 241.551 126.08 242.981 126.08C244.455 126.08 246.127 125.97 247.381 125.97ZM283.324 140.248C283.324 142.683 283.016 144.897 282.4 146.892C281.813 148.857 280.904 150.559 279.672 151.996C278.469 153.433 276.914 154.533 275.008 155.296C273.13 156.059 270.916 156.44 268.364 156.44C265.812 156.44 263.582 156.059 261.676 155.296C259.798 154.504 258.244 153.404 257.012 151.996C255.809 150.559 254.9 148.843 254.284 146.848C253.697 144.853 253.404 142.639 253.404 140.204C253.404 136.948 253.932 134.117 254.988 131.712C256.073 129.307 257.716 127.444 259.916 126.124C262.145 124.775 264.976 124.1 268.408 124.1C271.81 124.1 274.612 124.775 276.812 126.124C279.012 127.444 280.64 129.321 281.696 131.756C282.781 134.161 283.324 136.992 283.324 140.248ZM260.4 140.248C260.4 142.448 260.678 144.34 261.236 145.924C261.793 147.508 262.658 148.725 263.832 149.576C265.005 150.427 266.516 150.852 268.364 150.852C270.27 150.852 271.796 150.427 272.94 149.576C274.113 148.725 274.964 147.508 275.492 145.924C276.049 144.34 276.328 142.448 276.328 140.248C276.328 136.933 275.712 134.337 274.48 132.46C273.248 130.583 271.224 129.644 268.408 129.644C266.53 129.644 265.005 130.069 263.832 130.92C262.658 131.771 261.793 132.988 261.236 134.572C260.678 136.156 260.4 138.048 260.4 140.248ZM277.648 115.344C277.237 115.755 276.694 116.253 276.02 116.84C275.345 117.427 274.612 118.043 273.82 118.688C273.057 119.333 272.294 119.949 271.532 120.536C270.798 121.093 270.153 121.563 269.596 121.944H265.24V121.372C265.709 120.815 266.252 120.169 266.868 119.436C267.513 118.673 268.144 117.896 268.76 117.104C269.376 116.283 269.889 115.549 270.3 114.904H277.648V115.344ZM289.369 125.97C290.183 125.97 292.009 126.08 293.131 126.08C294.407 126.08 295.199 126.124 295.749 126.41C296.497 126.762 296.981 127.51 298.345 129.182L307.805 142.052C308.729 143.196 309.345 143.746 309.455 143.746C309.697 143.746 309.763 143.614 309.763 139.808C309.763 135.562 309.543 131.69 308.883 130.436C308.179 128.764 306.683 128.456 306.683 127.246C306.683 126.454 307.123 125.97 308.245 125.97C309.389 125.97 310.709 126.08 311.545 126.08C312.535 126.08 313.811 125.97 314.801 125.97C315.901 125.97 316.297 126.52 316.297 127.268C316.297 128.94 314.339 128.566 314.075 131.844C313.987 132.79 313.943 136.266 313.943 139.192C313.965 150.258 314.317 150.302 314.317 153.558C314.317 155.076 312.887 156.352 310.775 156.352C310.203 156.352 309.433 155.868 308.707 155.01L295.617 137.718C295.155 137.19 294.935 136.882 294.759 136.882C294.429 136.882 294.385 137.322 294.385 141.612C294.385 146.342 294.759 150.434 295.353 151.688C296.101 153.448 297.597 153.624 297.597 154.812C297.597 155.604 297.113 156.11 296.013 156.11C294.737 156.11 293.527 156 292.691 156C291.679 156 290.337 156.11 289.127 156.11C288.049 156.11 287.609 155.582 287.609 154.834C287.609 153.184 289.897 153.558 290.161 150.28C290.249 149.246 290.315 145.748 290.315 140.424C290.315 135.782 290.293 133.098 290.227 132.24C289.919 128.764 287.785 128.962 287.785 127.268C287.785 126.476 288.291 125.97 289.369 125.97Z" fill="#620E31"/>
<path d="M6.32 183.16C4.784 183.16 3.57867 182.728 2.704 181.864C1.84 181 1.408 179.752 1.408 178.12V171.8H3.488V178.04C3.488 179.192 3.73333 180.029 4.224 180.552C4.72533 181.075 5.42933 181.336 6.336 181.336C7.24267 181.336 7.94133 181.075 8.432 180.552C8.92267 180.029 9.168 179.192 9.168 178.04V171.8H11.216V178.12C11.216 179.752 10.7787 181 9.904 181.864C9.04 182.728 7.84533 183.16 6.32 183.16ZM14.129 183V171.8H15.841L22.865 180.424H22.017V171.8H24.081V183H22.369L15.345 174.376H16.193V183H14.129ZM27.0821 183V171.8H29.1621V183H27.0821ZM32.1915 183V171.8H37.0875C38.3035 171.8 39.3702 172.035 40.2875 172.504C41.2048 172.973 41.9195 173.624 42.4315 174.456C42.9435 175.288 43.1995 176.269 43.1995 177.4C43.1995 178.52 42.9435 179.501 42.4315 180.344C41.9195 181.176 41.2048 181.827 40.2875 182.296C39.3702 182.765 38.3035 183 37.0875 183H32.1915ZM34.2715 181.24H36.9915C37.8342 181.24 38.5595 181.08 39.1675 180.76C39.7862 180.44 40.2608 179.992 40.5915 179.416C40.9328 178.84 41.1035 178.168 41.1035 177.4C41.1035 176.621 40.9328 175.949 40.5915 175.384C40.2608 174.808 39.7862 174.36 39.1675 174.04C38.5595 173.72 37.8342 173.56 36.9915 173.56H34.2715V181.24ZM43.67 183L48.71 171.8H50.758L55.814 183H53.638L49.302 172.904H50.134L45.814 183H43.67ZM45.99 180.408L46.55 178.776H52.598L53.158 180.408H45.99ZM57.2384 183V171.8H62.1344C63.3504 171.8 64.417 172.035 65.3344 172.504C66.2517 172.973 66.9664 173.624 67.4784 174.456C67.9904 175.288 68.2464 176.269 68.2464 177.4C68.2464 178.52 67.9904 179.501 67.4784 180.344C66.9664 181.176 66.2517 181.827 65.3344 182.296C64.417 182.765 63.3504 183 62.1344 183H57.2384ZM59.3184 181.24H62.0384C62.881 181.24 63.6064 181.08 64.2144 180.76C64.833 180.44 65.3077 179.992 65.6384 179.416C65.9797 178.84 66.1504 178.168 66.1504 177.4C66.1504 176.621 65.9797 175.949 65.6384 175.384C65.3077 174.808 64.833 174.36 64.2144 174.04C63.6064 173.72 62.881 173.56 62.0384 173.56H59.3184V181.24ZM74.879 183V171.8H79.775C80.991 171.8 82.0577 172.035 82.975 172.504C83.8923 172.973 84.607 173.624 85.119 174.456C85.631 175.288 85.887 176.269 85.887 177.4C85.887 178.52 85.631 179.501 85.119 180.344C84.607 181.176 83.8923 181.827 82.975 182.296C82.0577 182.765 80.991 183 79.775 183H74.879ZM76.959 181.24H79.679C80.5217 181.24 81.247 181.08 81.855 180.76C82.4737 180.44 82.9483 179.992 83.279 179.416C83.6203 178.84 83.791 178.168 83.791 177.4C83.791 176.621 83.6203 175.949 83.279 175.384C82.9483 174.808 82.4737 174.36 81.855 174.04C81.247 173.72 80.5217 173.56 79.679 173.56H76.959V181.24ZM90.0178 176.456H95.5858V178.168H90.0178V176.456ZM90.1778 181.256H96.4978V183H88.0978V171.8H96.2738V173.544H90.1778V181.256ZM103.238 183V171.8H107.846C108.838 171.8 109.686 171.96 110.39 172.28C111.105 172.6 111.654 173.059 112.038 173.656C112.422 174.253 112.614 174.963 112.614 175.784C112.614 176.605 112.422 177.315 112.038 177.912C111.654 178.509 111.105 178.968 110.39 179.288C109.686 179.608 108.838 179.768 107.846 179.768H104.39L105.318 178.792V183H103.238ZM105.318 179.016L104.39 178.008H107.75C108.668 178.008 109.356 177.816 109.814 177.432C110.284 177.037 110.518 176.488 110.518 175.784C110.518 175.069 110.284 174.52 109.814 174.136C109.356 173.752 108.668 173.56 107.75 173.56H104.39L105.318 172.536V179.016ZM114.692 183V171.8H116.772V181.24H122.628V183H114.692ZM122.701 183L127.741 171.8H129.789L134.845 183H132.669L128.333 172.904H129.165L124.845 183H122.701ZM125.021 180.408L125.581 178.776H131.629L132.189 180.408H125.021ZM136.27 183V171.8H137.982L145.006 180.424H144.158V171.8H146.222V183H144.51L137.486 174.376H138.334V183H136.27ZM151.143 176.456H156.711V178.168H151.143V176.456ZM151.303 181.256H157.623V183H149.223V171.8H157.399V173.544H151.303V181.256ZM158.357 183L163.398 171.8H165.446L170.502 183H168.326L163.99 172.904H164.822L160.502 183H158.357ZM160.678 180.408L161.238 178.776H167.286L167.845 180.408H160.678ZM176.954 183.16C176.1 183.16 175.306 183.021 174.57 182.744C173.844 182.456 173.21 182.056 172.666 181.544C172.132 181.021 171.716 180.408 171.418 179.704C171.119 179 170.97 178.232 170.97 177.4C170.97 176.568 171.119 175.8 171.418 175.096C171.716 174.392 172.138 173.784 172.682 173.272C173.226 172.749 173.86 172.349 174.586 172.072C175.311 171.784 176.106 171.64 176.97 171.64C177.887 171.64 178.724 171.8 179.482 172.12C180.239 172.429 180.879 172.893 181.402 173.512L180.058 174.776C179.652 174.339 179.199 174.013 178.698 173.8C178.196 173.576 177.652 173.464 177.066 173.464C176.479 173.464 175.94 173.56 175.45 173.752C174.97 173.944 174.548 174.216 174.186 174.568C173.834 174.92 173.556 175.336 173.354 175.816C173.162 176.296 173.066 176.824 173.066 177.4C173.066 177.976 173.162 178.504 173.354 178.984C173.556 179.464 173.834 179.88 174.186 180.232C174.548 180.584 174.97 180.856 175.45 181.048C175.94 181.24 176.479 181.336 177.066 181.336C177.652 181.336 178.196 181.229 178.698 181.016C179.199 180.792 179.652 180.456 180.058 180.008L181.402 181.288C180.879 181.896 180.239 182.36 179.482 182.68C178.724 183 177.882 183.16 176.954 183.16ZM183.395 183V171.8H185.475V183H183.395ZM193.752 183.16C192.877 183.16 192.072 183.016 191.336 182.728C190.6 182.44 189.96 182.04 189.416 181.528C188.872 181.005 188.451 180.397 188.152 179.704C187.853 179 187.704 178.232 187.704 177.4C187.704 176.568 187.853 175.805 188.152 175.112C188.451 174.408 188.872 173.8 189.416 173.288C189.96 172.765 190.6 172.36 191.336 172.072C192.072 171.784 192.872 171.64 193.736 171.64C194.611 171.64 195.411 171.784 196.136 172.072C196.872 172.36 197.512 172.765 198.056 173.288C198.6 173.8 199.021 174.408 199.32 175.112C199.619 175.805 199.768 176.568 199.768 177.4C199.768 178.232 199.619 179 199.32 179.704C199.021 180.408 198.6 181.016 198.056 181.528C197.512 182.04 196.872 182.44 196.136 182.728C195.411 183.016 194.616 183.16 193.752 183.16ZM193.736 181.336C194.301 181.336 194.824 181.24 195.304 181.048C195.784 180.856 196.2 180.584 196.552 180.232C196.904 179.869 197.176 179.453 197.368 178.984C197.571 178.504 197.672 177.976 197.672 177.4C197.672 176.824 197.571 176.301 197.368 175.832C197.176 175.352 196.904 174.936 196.552 174.584C196.2 174.221 195.784 173.944 195.304 173.752C194.824 173.56 194.301 173.464 193.736 173.464C193.171 173.464 192.648 173.56 192.168 173.752C191.699 173.944 191.283 174.221 190.92 174.584C190.568 174.936 190.291 175.352 190.088 175.832C189.896 176.301 189.8 176.824 189.8 177.4C189.8 177.965 189.896 178.488 190.088 178.968C190.291 179.448 190.568 179.869 190.92 180.232C191.272 180.584 191.688 180.856 192.168 181.048C192.648 181.24 193.171 181.336 193.736 181.336ZM192.392 170.888L194.552 168.696H196.904L194.12 170.888H192.392ZM201.973 183V171.8H203.685L210.709 180.424H209.861V171.8H211.925V183H210.213L203.189 174.376H204.037V183H201.973ZM222.1 183V178.568L222.564 179.848L217.7 171.8H219.924L223.828 178.28H222.58L226.516 171.8H228.564L223.7 179.848L224.18 178.568V183H222.1ZM234.348 183V171.8H238.956C239.948 171.8 240.796 171.96 241.5 172.28C242.214 172.6 242.764 173.059 243.148 173.656C243.532 174.253 243.724 174.963 243.724 175.784C243.724 176.605 243.532 177.315 243.148 177.912C242.764 178.509 242.214 178.968 241.5 179.288C240.796 179.608 239.948 179.768 238.956 179.768H235.5L236.428 178.792V183H234.348ZM236.428 179.016L235.5 178.008H238.86C239.777 178.008 240.465 177.816 240.924 177.432C241.393 177.037 241.628 176.488 241.628 175.784C241.628 175.069 241.393 174.52 240.924 174.136C240.465 173.752 239.777 173.56 238.86 173.56H235.5L236.428 172.536V179.016ZM245.801 183V171.8H250.409C251.401 171.8 252.249 171.96 252.953 172.28C253.668 172.6 254.217 173.059 254.601 173.656C254.985 174.253 255.177 174.963 255.177 175.784C255.177 176.605 254.985 177.315 254.601 177.912C254.217 178.499 253.668 178.952 252.953 179.272C252.249 179.581 251.401 179.736 250.409 179.736H246.953L247.881 178.792V183H245.801ZM253.129 183L250.297 178.936H252.521L255.369 183H253.129ZM247.881 179.016L246.953 178.024H250.313C251.23 178.024 251.918 177.827 252.377 177.432C252.846 177.037 253.081 176.488 253.081 175.784C253.081 175.069 252.846 174.52 252.377 174.136C251.918 173.752 251.23 173.56 250.313 173.56H246.953L247.881 172.536V179.016ZM262.752 183.16C261.877 183.16 261.072 183.016 260.336 182.728C259.6 182.44 258.96 182.04 258.416 181.528C257.872 181.005 257.451 180.397 257.152 179.704C256.853 179 256.704 178.232 256.704 177.4C256.704 176.568 256.853 175.805 257.152 175.112C257.451 174.408 257.872 173.8 258.416 173.288C258.96 172.765 259.6 172.36 260.336 172.072C261.072 171.784 261.872 171.64 262.736 171.64C263.611 171.64 264.411 171.784 265.136 172.072C265.872 172.36 266.512 172.765 267.056 173.288C267.6 173.8 268.021 174.408 268.32 175.112C268.619 175.805 268.768 176.568 268.768 177.4C268.768 178.232 268.619 179 268.32 179.704C268.021 180.408 267.6 181.016 267.056 181.528C266.512 182.04 265.872 182.44 265.136 182.728C264.411 183.016 263.616 183.16 262.752 183.16ZM262.736 181.336C263.301 181.336 263.824 181.24 264.304 181.048C264.784 180.856 265.2 180.584 265.552 180.232C265.904 179.869 266.176 179.453 266.368 178.984C266.571 178.504 266.672 177.976 266.672 177.4C266.672 176.824 266.571 176.301 266.368 175.832C266.176 175.352 265.904 174.936 265.552 174.584C265.2 174.221 264.784 173.944 264.304 173.752C263.824 173.56 263.301 173.464 262.736 173.464C262.171 173.464 261.648 173.56 261.168 173.752C260.699 173.944 260.283 174.221 259.92 174.584C259.568 174.936 259.291 175.352 259.088 175.832C258.896 176.301 258.8 176.824 258.8 177.4C258.8 177.965 258.896 178.488 259.088 178.968C259.291 179.448 259.568 179.869 259.92 180.232C260.272 180.584 260.688 180.856 261.168 181.048C261.648 181.24 262.171 181.336 262.736 181.336ZM274.445 183.16C273.57 183.16 272.733 183.037 271.933 182.792C271.133 182.536 270.498 182.211 270.029 181.816L270.749 180.2C271.197 180.552 271.751 180.845 272.413 181.08C273.074 181.315 273.751 181.432 274.445 181.432C275.031 181.432 275.506 181.368 275.869 181.24C276.231 181.112 276.498 180.941 276.669 180.728C276.839 180.504 276.925 180.253 276.925 179.976C276.925 179.635 276.802 179.363 276.557 179.16C276.311 178.947 275.991 178.781 275.597 178.664C275.213 178.536 274.781 178.419 274.301 178.312C273.831 178.205 273.357 178.083 272.877 177.944C272.407 177.795 271.975 177.608 271.581 177.384C271.197 177.149 270.882 176.84 270.637 176.456C270.391 176.072 270.269 175.581 270.269 174.984C270.269 174.376 270.429 173.821 270.749 173.32C271.079 172.808 271.575 172.403 272.237 172.104C272.909 171.795 273.757 171.64 274.781 171.64C275.453 171.64 276.119 171.725 276.781 171.896C277.442 172.067 278.018 172.312 278.509 172.632L277.853 174.248C277.351 173.949 276.834 173.731 276.301 173.592C275.767 173.443 275.255 173.368 274.765 173.368C274.189 173.368 273.719 173.437 273.357 173.576C273.005 173.715 272.743 173.896 272.573 174.12C272.413 174.344 272.333 174.6 272.333 174.888C272.333 175.229 272.45 175.507 272.685 175.72C272.93 175.923 273.245 176.083 273.629 176.2C274.023 176.317 274.461 176.435 274.941 176.552C275.421 176.659 275.895 176.781 276.365 176.92C276.845 177.059 277.277 177.24 277.661 177.464C278.055 177.688 278.37 177.992 278.605 178.376C278.85 178.76 278.973 179.245 278.973 179.832C278.973 180.429 278.807 180.984 278.477 181.496C278.157 181.997 277.661 182.403 276.989 182.712C276.317 183.011 275.469 183.16 274.445 183.16ZM281.035 183V171.8H285.643C286.635 171.8 287.483 171.96 288.187 172.28C288.902 172.6 289.451 173.059 289.835 173.656C290.219 174.253 290.411 174.963 290.411 175.784C290.411 176.605 290.219 177.315 289.835 177.912C289.451 178.509 288.902 178.968 288.187 179.288C287.483 179.608 286.635 179.768 285.643 179.768H282.187L283.115 178.792V183H281.035ZM283.115 179.016L282.187 178.008H285.547C286.465 178.008 287.153 177.816 287.611 177.432C288.081 177.037 288.315 176.488 288.315 175.784C288.315 175.069 288.081 174.52 287.611 174.136C287.153 173.752 286.465 173.56 285.547 173.56H282.187L283.115 172.536V179.016ZM294.408 176.456H299.976V178.168H294.408V176.456ZM294.568 181.256H300.888V183H292.488V171.8H300.664V173.544H294.568V181.256ZM308.391 183.16C307.538 183.16 306.743 183.021 306.007 182.744C305.282 182.456 304.647 182.056 304.103 181.544C303.57 181.021 303.154 180.408 302.855 179.704C302.556 179 302.407 178.232 302.407 177.4C302.407 176.568 302.556 175.8 302.855 175.096C303.154 174.392 303.575 173.784 304.119 173.272C304.663 172.749 305.298 172.349 306.023 172.072C306.748 171.784 307.543 171.64 308.407 171.64C309.324 171.64 310.162 171.8 310.919 172.12C311.676 172.429 312.316 172.893 312.839 173.512L311.495 174.776C311.09 174.339 310.636 174.013 310.135 173.8C309.634 173.576 309.09 173.464 308.503 173.464C307.916 173.464 307.378 173.56 306.887 173.752C306.407 173.944 305.986 174.216 305.623 174.568C305.271 174.92 304.994 175.336 304.791 175.816C304.599 176.296 304.503 176.824 304.503 177.4C304.503 177.976 304.599 178.504 304.791 178.984C304.994 179.464 305.271 179.88 305.623 180.232C305.986 180.584 306.407 180.856 306.887 181.048C307.378 181.24 307.916 181.336 308.503 181.336C309.09 181.336 309.634 181.229 310.135 181.016C310.636 180.792 311.09 180.456 311.495 180.008L312.839 181.288C312.316 181.896 311.676 182.36 310.919 182.68C310.162 183 309.319 183.16 308.391 183.16ZM316.979 183V173.56H313.267V171.8H322.771V173.56H319.059V183H316.979ZM324.332 183V171.8H326.412V183H324.332ZM332.675 183L327.779 171.8H330.035L334.403 181.928H333.107L337.523 171.8H339.603L334.723 183H332.675ZM338.842 183L343.882 171.8H345.93L350.986 183H348.81L344.474 172.904H345.306L340.986 183H338.842ZM341.162 180.408L341.722 178.776H347.77L348.33 180.408H341.162Z" fill="#6B7071"/>
<path d="M148.23 108.784C148.07 108.72 148.022 106.423 148.022 98.007V87.294L148.631 86.7158C148.951 86.3945 149.304 86.0412 149.416 85.9288C149.512 85.8163 149.736 85.5915 149.913 85.4148C150.089 85.2381 150.297 85.0293 150.361 84.949C150.441 84.8687 150.73 84.5957 150.986 84.3387C151.259 84.0817 151.547 83.7926 151.627 83.6962C151.723 83.5998 152.22 83.0859 152.749 82.5558C153.278 82.0258 153.79 81.5279 153.87 81.4315C153.967 81.3512 154.255 81.0621 154.511 80.8052C154.784 80.5482 155.072 80.2591 155.168 80.1466C155.281 80.0342 155.505 79.8093 155.681 79.6327C155.857 79.456 156.066 79.2472 156.146 79.1669C156.21 79.0866 156.498 78.8135 156.755 78.5565C157.027 78.2996 157.332 77.9944 157.444 77.8659C158.437 76.8058 159.847 75.5209 159.944 75.6012C159.992 75.6494 160.04 80.6285 160.04 86.6515V97.6054L159.479 98.1836C159.158 98.5209 158.838 98.7779 158.758 98.7779C158.678 98.7779 158.582 98.9225 158.517 99.0991C158.469 99.2758 158.213 99.5328 157.957 99.6774C157.716 99.838 157.428 100.111 157.332 100.32C157.252 100.513 156.963 100.802 156.691 100.962C156.418 101.123 156.194 101.348 156.194 101.46C156.194 101.573 155.938 101.83 155.633 102.022C155.329 102.231 155.072 102.472 155.072 102.584C155.072 102.681 154.784 102.97 154.431 103.227C154.079 103.468 153.79 103.741 153.79 103.805C153.79 103.982 152.46 105.283 151.948 105.62C151.723 105.765 151.547 105.973 151.547 106.102C151.547 106.214 151.259 106.503 150.906 106.76C150.554 107.001 150.265 107.29 150.265 107.403C150.265 107.499 150.025 107.74 149.72 107.917C149.432 108.11 149.143 108.399 149.095 108.575C149.015 108.881 148.663 108.961 148.23 108.784Z" fill="#9B2149"/>
<path d="M202.023 108.094C201.622 107.644 201.206 107.194 201.077 107.082C199.908 106.006 196.414 102.424 196.414 102.311C196.414 102.215 196.334 102.151 196.254 102.151C196.158 102.151 195.117 101.187 193.931 99.9986C192.264 98.3442 191.767 97.75 191.767 97.4287C191.767 96.8023 192.216 96.8987 192.921 97.6857C193.258 98.0551 193.53 98.4246 193.53 98.4888C193.53 98.553 193.626 98.6173 193.754 98.6173C193.883 98.6173 194.123 98.8421 194.283 99.0991C194.427 99.3722 194.684 99.6131 194.828 99.6613C194.956 99.7095 195.165 99.9183 195.277 100.111C195.389 100.32 195.677 100.609 195.918 100.753C196.158 100.898 196.447 101.187 196.575 101.412C196.687 101.637 196.847 101.83 196.911 101.83C197.007 101.83 198.514 103.291 199.171 104.014C199.315 104.191 199.908 104.785 200.485 105.347C201.061 105.909 201.542 106.423 201.542 106.487C201.542 106.552 201.686 106.648 201.863 106.696C202.039 106.744 202.183 106.873 202.183 107.001C202.183 107.114 202.327 107.307 202.504 107.419L202.824 107.612L202.792 97.4769C202.76 89.5265 202.696 87.31 202.552 87.2458C202.343 87.1815 202.247 86.0894 202.44 86.0894C202.488 86.0894 202.808 86.3624 203.161 86.6836L203.786 87.2779V97.8142C203.77 108.945 203.786 108.897 203.048 108.897C202.888 108.897 202.424 108.527 202.023 108.094Z" fill="#9B2149"/>
<path d="M161.754 95.357C161.642 95.0197 161.61 78.5085 161.738 75.9065C161.818 73.9149 161.899 73.3528 162.107 73.1761C162.363 72.9352 162.892 72.4051 163.213 72.0839C163.405 71.8751 164.286 70.9917 164.494 70.799C164.735 70.5741 165.328 69.9638 165.456 69.8193C165.52 69.755 165.792 69.498 166.049 69.241C166.321 68.9841 166.626 68.6789 166.738 68.5504C166.978 68.3095 168.789 66.4785 168.981 66.3018C169.206 66.0769 171.016 64.262 171.177 64.0853C171.273 64.005 171.561 63.7159 171.817 63.4589C172.09 63.2019 172.378 62.9128 172.458 62.8165C172.795 62.447 173.532 61.8207 173.596 61.8688C173.628 61.901 173.676 66.7997 173.724 72.7585C173.804 84.6119 173.837 84.1782 172.859 84.7564C172.603 84.901 172.378 85.1258 172.378 85.2382C172.378 85.3507 172.122 85.6077 171.817 85.8004C171.513 86.0092 171.257 86.2662 171.257 86.3786C171.257 86.491 171 86.732 170.696 86.9086C170.391 87.0853 170.103 87.3744 170.055 87.5511C170.007 87.7117 169.75 87.9687 169.51 88.1132C169.27 88.2578 169.013 88.5308 168.917 88.7075C168.837 88.9003 168.565 89.1572 168.308 89.2857C168.052 89.3982 167.811 89.6391 167.779 89.7997C167.731 89.9603 167.443 90.2494 167.154 90.4422C166.85 90.6188 166.61 90.8758 166.61 91.0043C166.61 91.1167 166.353 91.3898 166.049 91.5825C165.744 91.7913 165.488 92.0483 165.488 92.1607C165.488 92.2732 165.232 92.5141 164.927 92.6908C164.623 92.8674 164.334 93.1565 164.286 93.3172C164.238 93.4938 163.95 93.7669 163.661 93.9596C163.357 94.1363 163.084 94.4093 163.052 94.57C162.94 94.9554 161.85 95.6139 161.754 95.357Z" fill="#9B2149"/>
<path d="M183.531 89.5749C178.275 84.3067 177.714 83.6964 177.778 83.3109C177.875 82.813 178.419 82.7006 178.58 83.1503C178.644 83.2948 178.804 83.5358 178.932 83.6803C179.076 83.8249 179.301 84.0979 179.429 84.2906C179.557 84.4834 179.717 84.644 179.765 84.644C179.878 84.644 181.56 86.3144 183.467 88.306C183.675 88.5148 183.98 88.8039 184.14 88.9485C185.134 89.8318 185.678 90.5386 185.678 90.9722C185.678 91.3256 185.742 91.3898 186.127 91.3898C186.464 91.3898 186.816 91.6147 187.489 92.2893C187.986 92.7711 188.402 93.2369 188.434 93.3011C188.531 93.5099 189.492 94.1203 189.748 94.1203C189.893 94.1203 190.005 94.2487 190.005 94.4094C190.005 94.9394 189.813 95.4052 189.588 95.4052C189.476 95.4052 186.752 92.7872 183.531 89.5749Z" fill="#9B2149"/>
<path d="M225.098 85.9931C224.969 85.961 220.37 85.9128 214.874 85.8967C205.516 85.8486 204.875 85.8325 204.731 85.5595C204.635 85.4149 204.475 85.2061 204.378 85.1258C204.266 85.0294 204.042 84.8367 203.85 84.6761C203.673 84.5315 203.433 84.2424 203.321 84.0497C203.225 83.8409 203.048 83.6803 202.936 83.6803C202.712 83.6803 202.183 83.1181 202.183 82.8772C202.183 82.7969 201.991 82.6363 201.75 82.5238C201.51 82.4114 201.206 82.1062 201.094 81.8653C200.981 81.6244 200.805 81.4317 200.709 81.4317C200.629 81.4317 200.116 80.9819 199.603 80.4359C199.074 79.8737 198.578 79.3597 198.482 79.2634C198.401 79.1831 197.889 78.6852 197.36 78.1712C196.847 77.6572 196.414 77.1593 196.414 77.0951C196.414 77.0148 196.222 76.8542 195.982 76.7417C195.741 76.6293 195.437 76.3241 195.325 76.0832C195.213 75.8423 195.052 75.6495 194.988 75.6495C194.796 75.6495 194.075 74.9589 193.883 74.6055C193.77 74.3646 193.77 74.204 193.931 73.9952C194.107 73.7382 194.844 73.7222 204.539 73.7222C213.608 73.7222 214.986 73.7543 215.163 73.9631C215.275 74.0916 215.531 74.204 215.74 74.204C215.996 74.204 216.188 74.3646 216.364 74.6859C216.509 74.9589 216.717 75.1677 216.845 75.1677C216.989 75.1677 217.294 75.4568 217.534 75.8102C217.775 76.1474 218.015 76.4366 218.079 76.4526C218.207 76.4526 219.81 78.0266 219.81 78.1551C219.81 78.2997 220.194 78.637 220.499 78.7494C220.643 78.7976 220.851 79.0224 220.947 79.2312C221.044 79.44 221.316 79.7292 221.556 79.8737C221.797 80.0183 222.085 80.3074 222.213 80.5322C222.325 80.7571 222.486 80.9498 222.55 80.9498C222.646 80.9498 224.056 82.315 224.633 82.9736C224.793 83.1502 225.082 83.4393 225.274 83.616C225.995 84.2585 226.331 84.7243 226.412 85.19C226.492 85.5755 226.428 85.6719 225.963 85.8646C225.674 85.9931 225.402 86.0734 225.386 86.0734C225.354 86.0574 225.226 86.0252 225.098 85.9931Z" fill="#9B2149"/>
<path d="M125.107 85.1419C125.107 85.0455 134.946 75.1035 136.18 73.9631C136.388 73.7543 137.959 73.7222 147.012 73.7222C156.466 73.7222 157.62 73.7543 157.7 73.9792C157.748 74.1076 157.86 74.188 157.941 74.1237C158.021 74.0755 158.149 74.1237 158.197 74.2201C158.261 74.3164 158.005 74.6859 157.62 75.0553L156.915 75.6977L156.867 75.1998L156.819 74.6859H146.676H136.532L134.385 76.8542C133.199 78.0427 132.142 79.0224 132.046 79.0224C131.934 79.0224 131.837 79.1028 131.837 79.2152C131.837 79.44 130.059 81.2711 129.834 81.2711C129.738 81.2711 129.594 81.4317 129.514 81.6405C129.418 81.8332 129.193 82.0581 129.001 82.1544C128.793 82.2347 128.633 82.3793 128.633 82.4757C128.633 82.556 128.024 83.2305 127.287 83.9694C126.293 84.9491 125.844 85.2864 125.524 85.2864C125.3 85.2864 125.107 85.2222 125.107 85.1419Z" fill="#9B2149"/>
<path d="M199.491 84.1621C199.267 83.9373 199.139 83.6321 199.139 83.2788V82.7327L199.651 83.2145C199.94 83.4715 200.34 83.857 200.549 84.0818L200.917 84.4834H200.372C200.052 84.4834 199.699 84.3549 199.491 84.1621Z" fill="#9B2149"/>
<path d="M196.735 81.2229C196.735 81.1265 196.527 80.9338 196.254 80.8214C195.854 80.6447 195.773 80.5162 195.773 80.0504C195.773 79.5686 195.806 79.5204 196.062 79.6489C196.206 79.7292 196.687 80.1789 197.12 80.6126L197.905 81.4317H197.328C196.959 81.4317 196.735 81.3514 196.735 81.2229Z" fill="#9B2149"/>
<path d="M193.722 78.3799C193.53 78.1872 193.37 77.8981 193.37 77.7375C193.37 77.5287 193.258 77.4162 193.081 77.4162C192.921 77.4162 192.569 77.2074 192.28 76.9344C191.832 76.5329 191.767 76.3883 191.88 75.9868L192.008 75.521L193.594 77.1111L195.197 78.7012H194.636C194.283 78.7012 193.931 78.5727 193.722 78.3799Z" fill="#9B2149"/>
<path d="M197.857 71.9553L191.191 71.875L190.646 71.345C188.274 69.0964 187.12 67.9239 187.12 67.8115C187.12 67.7311 186.944 67.5866 186.72 67.4902C186.512 67.3939 186.223 67.0887 186.079 66.8156C185.951 66.5587 185.726 66.3338 185.614 66.3338C185.502 66.3338 185.262 66.1411 185.101 65.9162C184.941 65.6753 184.701 65.4022 184.589 65.3059C184.22 65.0007 183.852 64.6313 183.579 64.3101C183.435 64.1494 183.163 63.8925 183.002 63.764C182.826 63.6355 182.602 63.3624 182.49 63.1697C182.393 62.9609 182.201 62.8003 182.073 62.8003C181.961 62.8003 181.704 62.5433 181.512 62.2381C181.32 61.933 181.095 61.676 181.015 61.676C180.791 61.676 180.23 61.146 180.23 60.9211C180.23 60.7926 180.054 60.6159 179.83 60.5196C178.756 60.0377 179.541 59.9895 190.598 59.9413C201.59 59.9092 201.654 59.9092 202.087 60.2465C202.311 60.4232 202.504 60.6641 202.504 60.7765C202.504 60.889 202.68 61.0817 202.904 61.1941C203.129 61.3226 203.465 61.6599 203.641 61.949C203.818 62.2381 204.074 62.4791 204.202 62.4791C204.33 62.4791 204.587 62.736 204.763 63.0412C204.955 63.3464 205.18 63.6034 205.276 63.6034C205.468 63.6034 207.311 65.5147 207.311 65.7235C207.311 65.7877 207.391 65.852 207.503 65.852C207.695 65.852 208.593 66.7996 208.593 67.0084C208.593 67.0726 208.657 67.1369 208.753 67.1369C208.945 67.1369 210.836 69.0482 210.836 69.257C210.836 69.3212 210.916 69.3855 211.012 69.3855C211.205 69.3855 213.08 71.2968 213.08 71.5056C213.08 71.5698 213.192 71.6341 213.32 71.6341C213.656 71.6341 213.624 71.9553 213.288 71.9714C212.374 72.0356 203.545 72.0196 197.857 71.9553Z" fill="#9B2149"/>
<path d="M138.503 71.6022C138.664 71.4094 141.356 68.695 144.448 65.5791C148.887 61.1301 150.185 59.9094 150.505 59.9094C150.794 59.9094 150.906 59.9897 150.906 60.2307C150.906 60.4073 150.81 60.5519 150.698 60.5519C150.586 60.5519 150.409 60.6964 150.297 60.8731C150.185 61.0498 149.993 61.1943 149.864 61.1943C149.736 61.1943 149.624 61.2907 149.624 61.4031C149.624 61.6601 148.791 62.4793 148.534 62.4793C148.422 62.4793 148.342 62.5596 148.342 62.6399C148.342 62.8969 147.365 63.9248 147.108 63.9248C146.996 63.9248 146.9 64.0212 146.9 64.1336C146.9 64.3584 145.233 66.0128 145.025 66.0128C144.945 66.0128 144.817 66.1734 144.737 66.3822C144.641 66.5749 144.416 66.7998 144.224 66.8962C144.016 66.9765 143.855 67.1371 143.855 67.2334C143.855 67.4583 143.006 68.2614 142.766 68.2614C142.654 68.2614 142.573 68.3256 142.573 68.422C142.573 68.6629 141.9 69.3857 141.66 69.3857C141.548 69.3857 141.452 69.466 141.452 69.5624C141.452 69.6587 140.971 70.2369 140.378 70.8473C139.449 71.7949 139.208 71.9555 138.744 71.9555H138.199L138.503 71.6022Z" fill="#9B2149"/>
<path d="M187.281 71.7306C187.281 71.6021 187.104 71.4576 186.88 71.4094C186.464 71.297 186.255 70.8151 186.351 70.2048C186.399 69.8996 186.544 69.996 187.441 70.9115L188.467 71.9555H187.874C187.473 71.9555 187.281 71.8752 187.281 71.7306Z" fill="#9B2149"/>
<path d="M182.121 66.7997C181.961 66.7194 181.833 66.4945 181.833 66.3339C181.833 66.1572 181.752 66.0127 181.656 66.0127C181.56 66.0127 181.384 65.9163 181.272 65.8199C181.143 65.7075 180.935 65.5148 180.791 65.4023C180.663 65.2899 180.551 64.9366 180.551 64.6153V64.0371L181.56 64.9847C182.105 65.4987 182.762 66.1733 183.002 66.4624L183.467 66.9764H182.922C182.634 66.9764 182.265 66.896 182.121 66.7997Z" fill="#9B2149"/>
<path d="M177.827 63.0092C177.827 62.3506 178.003 61.8367 178.211 61.8367C178.323 61.8367 178.644 62.0937 178.948 62.3988L179.493 62.961H179.06C178.788 62.961 178.628 63.0413 178.628 63.2019C178.628 63.3464 178.483 63.4428 178.227 63.4428C177.891 63.4428 177.827 63.3625 177.827 63.0092Z" fill="#9B2149"/>
<path d="M149.608 55.5889C149.384 55.364 149.143 55.0428 149.095 54.8821C149.031 54.7376 148.807 54.5288 148.599 54.4485C148.374 54.3682 148.086 54.0791 147.942 53.806C147.813 53.549 147.589 53.3242 147.445 53.3242C147.317 53.3242 147.06 53.0672 146.884 52.762C146.708 52.4569 146.419 52.1678 146.243 52.1196C146.083 52.0714 145.826 51.8305 145.682 51.5896C145.554 51.3486 145.217 51.0274 144.961 50.8828C144.705 50.7222 144.496 50.4974 144.496 50.3689C144.496 50.2243 144.288 50.0155 144.016 49.871C143.759 49.7425 143.423 49.4052 143.295 49.1482C143.15 48.8752 142.942 48.6664 142.798 48.6664C142.67 48.6664 142.413 48.4094 142.237 48.1042C142.061 47.799 141.772 47.5099 141.596 47.4618C141.436 47.3975 141.179 47.1566 141.067 46.9157C140.939 46.6747 140.651 46.4017 140.426 46.2893C140.186 46.1929 139.93 45.9199 139.817 45.695C139.721 45.4862 139.513 45.2613 139.353 45.2132C139.08 45.1168 138.407 44.3298 138.407 44.1049C138.407 44.0567 143.407 44.0085 149.512 44.0085H160.601L161.883 45.2935C162.588 46.0162 163.886 47.2851 164.751 48.1524C165.632 49.0037 166.417 49.8067 166.513 49.9352C166.61 50.0477 167.122 50.5616 167.635 51.0595C168.164 51.5574 168.661 52.0553 168.757 52.1678C169.157 52.6657 170.76 54.2879 170.84 54.2879C170.952 54.2879 172.282 55.7173 172.346 55.9101C172.378 55.9904 167.699 56.0546 161.21 56.0386L150.025 56.0225L149.608 55.5889Z" fill="#9B2149"/>
<path d="M200.901 55.7494C200.901 55.5727 200.981 55.38 201.077 55.3318C201.158 55.2676 201.302 55.0427 201.382 54.8339C201.478 54.6091 201.67 54.4484 201.847 54.4484C202.039 54.4484 202.247 54.2396 202.407 53.9023C202.584 53.5169 202.808 53.3241 203.129 53.2438C203.497 53.1635 203.625 53.019 203.705 52.6656C203.77 52.3604 203.962 52.1195 204.186 52.0392C204.394 51.9589 204.651 51.6859 204.779 51.4449C204.923 51.1558 205.132 50.9792 205.404 50.947C205.724 50.9149 205.869 50.7704 205.965 50.3849C206.077 50.0155 206.253 49.8388 206.622 49.7264C207.006 49.63 207.151 49.4854 207.183 49.1642C207.215 48.8751 207.343 48.7306 207.583 48.6984C207.792 48.6663 208.032 48.4254 208.176 48.1042C208.32 47.799 208.641 47.4617 208.865 47.3493C209.106 47.2368 209.394 46.9638 209.49 46.755C209.602 46.5462 209.843 46.3053 210.051 46.1929C210.259 46.0965 210.532 45.8074 210.644 45.5665C210.788 45.2773 210.98 45.1328 211.221 45.1328C211.493 45.1328 211.621 45.0043 211.734 44.6188C211.878 44.1209 211.942 44.0888 212.711 44.0406L213.544 43.9924L211.317 46.241C210.083 47.4938 209.009 48.5057 208.913 48.5057C208.833 48.5057 208.753 48.5699 208.753 48.6503C208.753 48.8591 202.856 54.7697 202.664 54.7697C202.568 54.7697 202.504 54.85 202.504 54.9624C202.504 55.0748 202.311 55.3639 202.071 55.6049C201.558 56.1349 200.901 56.2152 200.901 55.7494Z" fill="#9B2149"/>
<path d="M178.099 54.0469C177.827 53.8542 177.81 53.2278 177.827 43.4142C177.827 37.6963 177.859 32.8458 177.891 32.653C178.003 32.0748 178.451 31.3521 178.756 31.2557C178.916 31.2075 179.173 30.9345 179.333 30.6614C179.493 30.4044 179.797 30.0993 180.006 30.0029C180.214 29.9065 180.422 29.6977 180.487 29.5211C180.535 29.3604 180.775 29.1195 181.015 29.0071C181.256 28.8786 181.528 28.5895 181.64 28.3646C181.736 28.1237 182.009 27.8667 182.233 27.7543C182.457 27.6579 182.634 27.5134 182.634 27.4491C182.634 27.3688 183.355 26.6139 184.236 25.7466C185.101 24.8793 185.903 24.0923 186.015 23.9799C186.111 23.8835 186.816 23.1447 187.601 22.3576C189.172 20.7515 189.54 20.4785 189.813 20.7515C190.053 20.9924 190.085 41.8563 189.861 42.4345C189.684 42.8681 188.338 44.3297 188.098 44.3297C188.018 44.3297 187.81 44.5385 187.665 44.7955C187.505 45.0525 187.217 45.3416 187.008 45.438C186.816 45.5343 186.64 45.6789 186.64 45.7431C186.64 45.9519 185.887 46.7389 185.694 46.7389C185.598 46.7389 185.438 46.8996 185.342 47.0923C185.101 47.5581 184.877 47.7669 184.525 47.9114C184.364 47.9596 184.236 48.072 184.236 48.1523C184.236 48.3451 180.086 52.5211 179.894 52.5211C179.814 52.5211 179.669 52.6977 179.573 52.9065C179.477 53.1153 179.221 53.3884 178.996 53.5008C178.772 53.6293 178.548 53.8381 178.484 53.9987C178.403 54.2236 178.339 54.2236 178.099 54.0469Z" fill="#9B2149"/>
<path d="M135.763 41.6475C135.555 41.5351 135.331 41.2942 135.283 41.1175C135.218 40.9408 134.962 40.6838 134.706 40.5393C134.449 40.4108 134.145 40.1217 134.049 39.9129C133.953 39.688 133.808 39.5114 133.744 39.5114C133.552 39.5114 131.677 37.6482 131.677 37.4555C131.677 37.3591 131.469 37.1664 131.196 37.0218C130.94 36.8773 130.716 36.6685 130.716 36.5239C130.716 36.3954 130.459 36.1384 130.155 35.9618C129.85 35.7851 129.562 35.496 129.514 35.3193C129.45 35.1587 129.193 34.9017 128.937 34.7572C128.681 34.6287 128.392 34.3396 128.312 34.1147C128.232 33.9059 127.976 33.6489 127.751 33.5686C127.527 33.4883 127.287 33.2795 127.238 33.135C127.11 32.7816 126.934 32.6049 126.357 32.2355C126.101 32.0749 125.908 31.8661 125.908 31.7537C125.908 31.6412 125.764 31.4324 125.588 31.2718C125.155 30.9024 125.187 30.5491 125.684 30.0993L126.085 29.7139H136.212H146.355L148.919 32.2676C150.345 33.681 151.627 35.0141 151.771 35.239C151.916 35.4639 152.092 35.6566 152.172 35.6566C152.348 35.6566 157.22 40.5553 157.556 41.0533C157.684 41.2621 157.909 41.4387 158.053 41.4387C158.197 41.4387 158.277 41.5351 158.229 41.6475C158.133 41.9366 136.324 41.9366 135.763 41.6475Z" fill="#9B2149"/>
<path d="M215.964 40.8766C215.964 40.5714 216.028 40.3144 216.108 40.3144C216.188 40.3144 216.332 40.1056 216.429 39.8326C216.509 39.5595 216.701 39.3507 216.845 39.3507C217.182 39.3507 217.566 38.9653 217.566 38.644C217.566 38.5155 217.807 38.2907 218.111 38.1461C218.448 37.9855 218.688 37.7446 218.72 37.5358C218.752 37.3431 218.976 37.0861 219.217 36.9736C219.457 36.8451 219.73 36.5721 219.81 36.3633C219.938 36.0581 220.082 35.9778 220.531 35.9778C221.06 35.9778 221.092 35.9457 221.092 35.4157C221.092 34.9499 221.172 34.8375 221.636 34.6126C221.973 34.452 222.213 34.2111 222.245 34.0023C222.277 33.8095 222.438 33.6329 222.598 33.6007C222.998 33.5204 223.335 33.1831 223.335 32.8619C223.335 32.7334 223.575 32.5086 223.88 32.364C224.216 32.2034 224.505 31.9143 224.601 31.6252C224.681 31.3682 224.857 31.1594 224.985 31.1594C225.114 31.1594 225.306 31.047 225.418 30.9185C225.594 30.7097 224.553 30.6776 216.14 30.6776H206.67V30.2921C206.67 30.0351 206.782 29.8745 207.038 29.8102C207.679 29.6496 225.771 29.6978 225.658 29.8745C225.61 29.9708 225.674 30.0351 225.803 30.0351C226.043 30.0351 226.604 30.9827 226.46 31.1273C226.412 31.1755 226.38 31.1594 226.38 31.0791C226.38 30.9988 226.123 31.2879 225.803 31.6894C225.482 32.107 225.114 32.4443 225.001 32.4443C224.873 32.4443 224.777 32.5086 224.777 32.6049C224.777 32.7977 221.46 36.1384 221.268 36.1384C221.188 36.1384 221.092 36.283 221.044 36.4757C220.995 36.6524 220.803 36.8451 220.627 36.8933C220.435 36.9415 220.29 37.0379 220.29 37.1021C220.29 37.2467 216.188 41.4387 216.044 41.4387C215.996 41.4387 215.964 41.1817 215.964 40.8766Z" fill="#9B2149"/>
<path d="M191.848 40.1216C191.8 39.9128 191.784 34.8695 191.8 28.8946L191.848 18.0371L193.53 16.3988C194.46 15.5155 195.261 14.7284 195.325 14.6642C195.469 14.4875 197.312 12.6405 197.52 12.4477C197.616 12.3674 198.417 11.5483 199.299 10.6488C200.18 9.73333 200.965 8.9945 201.045 8.9945C201.126 8.9945 201.238 8.84995 201.302 8.67327C201.35 8.4966 201.606 8.23961 201.879 8.079C202.135 7.91839 202.391 7.67746 202.44 7.51685C202.568 7.09925 203.113 6.98682 203.481 7.32411C203.77 7.59716 203.786 7.93445 203.786 18.1335V28.6698L202.327 30.1635C201.542 30.9666 200.821 31.6412 200.741 31.6412C200.661 31.6412 200.517 31.7857 200.42 31.9624C200.324 32.1391 199.876 32.6209 199.427 33.0385C198.337 34.0504 198.145 34.2592 197.857 34.6607C197.728 34.8534 197.568 35.0141 197.488 35.0141C197.36 35.0141 195.774 36.5399 195.774 36.6684C195.774 36.7487 193.963 38.5797 192.665 39.8004C191.96 40.4589 191.928 40.4749 191.848 40.1216Z" fill="#9B2149"/>
<path d="M161.786 39.6398C161.738 37.7767 161.722 20.6231 161.77 20.5267C161.931 20.1734 163.293 21.394 168.036 26.1482C173.933 32.0588 174.269 32.4443 173.5 32.4443C173.035 32.4443 172.378 31.9785 172.378 31.6573C172.378 31.5127 172.154 31.3039 171.882 31.1754C171.609 31.063 171.353 30.8382 171.289 30.6936C171.193 30.4045 170.503 29.7139 170.311 29.7139C170.247 29.7139 170.103 29.5532 169.991 29.3444C169.879 29.1356 169.574 28.8465 169.318 28.6859C169.061 28.5414 168.853 28.3165 168.853 28.2041C168.853 28.0756 168.741 27.9471 168.613 27.8828C168.484 27.8347 168.372 27.6419 168.372 27.4653C168.372 27.2565 168.26 27.144 168.052 27.144C167.892 27.144 167.683 27.0477 167.619 26.9352C167.555 26.8067 167.299 26.5819 167.042 26.4213C166.802 26.2767 166.562 25.9876 166.513 25.7949C166.465 25.6021 166.225 25.3612 165.953 25.2648C165.696 25.1685 165.488 24.9918 165.488 24.8633C165.488 24.7509 165.328 24.526 165.135 24.3815C164.462 23.8675 163.084 22.5023 163.084 22.3256C163.084 22.2453 163.02 22.165 162.924 22.165C162.844 22.165 162.764 22.0525 162.764 21.9241C162.764 21.7956 162.7 21.6831 162.604 21.6831C162.491 21.6831 162.443 24.8954 162.443 30.9988C162.443 40.202 162.443 40.3144 162.123 40.3144C161.85 40.3144 161.802 40.202 161.786 39.6398Z" fill="#9B2149"/>
<path d="M159.239 18.4869C159.239 18.4066 159.094 18.2781 158.918 18.2299C158.742 18.1817 158.566 17.9729 158.501 17.7802C158.453 17.5874 158.181 17.3144 157.909 17.1698C157.572 17.0092 157.38 16.7843 157.348 16.5113C157.316 16.2061 157.187 16.0776 156.819 15.9973C156.547 15.9492 156.274 15.7564 156.178 15.5316C156.082 15.3228 155.793 15.0336 155.537 14.873C155.233 14.6964 155.072 14.4715 155.072 14.1985C155.072 13.9254 154.976 13.813 154.768 13.813C154.415 13.813 153.63 13.1223 153.63 12.8011C153.63 12.6726 153.454 12.512 153.23 12.4638C153.005 12.3996 152.829 12.2871 152.829 12.1908C152.829 11.982 152.573 11.7411 151.996 11.3556C151.739 11.195 151.547 11.0022 151.547 10.8898C151.547 10.7131 150.938 10.1188 150.746 10.1188C150.682 10.1188 150.554 9.95823 150.441 9.74943C150.329 9.54063 150.025 9.25153 149.768 9.09091C149.512 8.94636 149.304 8.70544 149.304 8.57695C149.304 8.44845 149.24 8.35208 149.143 8.35208C149.063 8.35208 148.983 8.0951 148.983 7.78993C148.983 7.48477 149.015 7.22778 149.063 7.22778C149.256 7.22778 160.04 18.1817 160.04 18.3905C160.04 18.535 159.88 18.6314 159.639 18.6314C159.415 18.6314 159.239 18.5672 159.239 18.4869Z" fill="#9B2149"/>
<path d="M202.824 108.656C202.824 108.527 202.744 108.415 202.648 108.415C202.568 108.415 202.536 108.511 202.6 108.624C202.664 108.72 202.664 108.768 202.584 108.704C202.52 108.64 202.375 108.415 202.279 108.222C202.167 108.013 201.991 107.853 201.863 107.853C201.734 107.853 201.622 107.74 201.622 107.612C201.622 107.274 199.139 104.865 198.914 104.994C198.818 105.042 198.786 105.042 198.85 104.978C198.898 104.913 198.834 104.705 198.69 104.528C198.193 103.934 195.261 101.026 195.133 101.026C195.084 101.026 194.924 100.85 194.812 100.625C194.7 100.416 194.476 100.191 194.347 100.143C194.203 100.095 193.947 99.8379 193.787 99.5649C193.61 99.2757 193.418 99.1151 193.274 99.1633C193.146 99.2115 193.049 99.1633 193.049 99.0509C193.049 98.9385 192.761 98.5209 192.408 98.1354L191.767 97.4287L191.784 86.8121C191.8 80.9817 191.864 76.0348 191.928 75.81C192.056 75.4245 192.104 75.4245 192.152 75.8581C192.168 75.9545 192.248 76.0348 192.328 76.0188C192.424 76.0188 192.585 76.0991 192.697 76.2276C192.809 76.356 192.857 76.4524 192.809 76.4524C192.745 76.4524 193.049 76.7415 193.45 77.0949C193.851 77.4482 194.139 77.7373 194.059 77.7373C193.995 77.7373 194.187 77.914 194.492 78.1228C195.133 78.5565 196.334 79.8414 196.286 80.0341C196.27 80.0984 196.318 80.1466 196.414 80.1466C196.495 80.1466 197.328 80.9014 198.273 81.833C199.203 82.7646 199.908 83.5195 199.844 83.5195C199.764 83.5195 199.892 83.6479 200.1 83.7925C200.805 84.2743 202.824 86.3142 202.824 86.539C202.824 86.6514 202.888 86.7157 202.968 86.6514C203.048 86.6033 203.273 86.7639 203.465 87.0048C203.77 87.3903 203.786 87.4545 203.561 87.5027C203.257 87.5669 203.225 87.9524 203.513 88.0648C203.673 88.1291 203.673 88.1612 203.513 88.1612C203.385 88.1773 203.305 88.4343 203.305 88.884C203.305 89.3016 203.385 89.6228 203.513 89.671C203.673 89.7352 203.673 89.7674 203.513 89.7674C203.241 89.7834 203.209 107.387 203.465 107.483C203.561 107.515 203.657 107.756 203.673 108.013C203.705 108.431 203.657 108.495 203.353 108.447C202.968 108.399 202.84 108.656 203.193 108.784C203.305 108.832 203.273 108.88 203.113 108.88C202.952 108.897 202.824 108.784 202.824 108.656Z" fill="#631032"/>
<path d="M188.979 94.7143C188.835 94.5055 188.547 94.2324 188.322 94.12C188.098 94.0076 187.89 93.7667 187.826 93.606C187.777 93.4294 187.633 93.333 187.505 93.3812C187.393 93.4294 187.297 93.4133 187.329 93.3491C187.393 93.1242 186.544 92.2408 185.871 91.8072C185.502 91.5823 185.198 91.2771 185.198 91.1486C185.198 91.0201 185.101 90.8595 184.989 90.7953C184.861 90.731 184.653 90.4741 184.509 90.2492C184.348 90.0243 184.06 89.7513 183.852 89.6389C183.643 89.5264 183.371 89.2534 183.259 89.0446C183.147 88.8197 182.954 88.6912 182.842 88.7234C182.73 88.7715 182.65 88.7555 182.682 88.6912C182.73 88.5306 182.49 88.2576 180.823 86.5551C180.038 85.768 179.333 85.1577 179.253 85.222C179.173 85.2701 179.108 85.222 179.108 85.1256C179.108 84.965 179.012 84.8204 178.467 84.178C177.81 83.407 177.827 83.5516 177.827 73.0795C177.827 66.4461 177.875 62.9608 177.987 62.9608C178.083 62.9608 178.147 62.752 178.147 62.5111C178.147 62.2541 178.195 61.9971 178.243 61.9489C178.387 61.8204 181.352 64.7597 181.256 64.9203C181.208 64.9845 181.24 65.0488 181.304 65.0488C181.544 65.0488 182.473 65.884 182.377 66.0285C182.345 66.0928 182.506 66.2694 182.746 66.3979C183.339 66.7031 187.153 70.59 187.008 70.7185C186.96 70.7827 186.992 70.8309 187.104 70.8309C187.393 70.8309 189.636 73.0474 189.829 73.5292C189.957 73.8344 189.989 77.0146 189.973 84.3065L189.925 94.65L189.572 94.8749C189.252 95.0837 189.204 95.0676 188.979 94.7143Z" fill="#631032"/>
<path d="M136.004 86.0893C130.411 86.0411 125.716 85.9448 125.556 85.8805C124.819 85.5111 125.043 85.222 129.129 81.1424C131.325 78.942 133.071 77.0949 132.991 77.0146C132.927 76.9343 132.959 76.9182 133.039 76.9825C133.135 77.0307 133.856 76.4203 134.642 75.6333L136.068 74.2039H146.836C156.21 74.2039 157.62 74.236 157.796 74.4448C157.941 74.6215 157.941 74.6857 157.812 74.6857C157.7 74.6857 157.668 74.766 157.732 74.8784C157.796 74.9909 157.78 75.0069 157.652 74.9427C157.556 74.8784 157.428 74.9427 157.364 75.1033C157.236 75.4567 147.124 85.6075 146.58 85.9287C146.227 86.1375 144.865 86.1536 136.004 86.0893Z" fill="#631032"/>
<path d="M138.92 71.361C139.24 71.0237 139.881 70.3812 140.314 69.9155C140.763 69.4497 141.131 69 141.131 68.9036C141.131 68.8233 141.179 68.759 141.26 68.7751C141.436 68.8393 143.375 66.928 143.375 66.7032C143.375 66.5907 143.487 66.4944 143.615 66.4944C143.743 66.4944 144.064 66.1892 144.336 65.8198C144.593 65.4664 144.817 65.2255 144.817 65.2898C144.817 65.354 145.794 64.4385 146.98 63.25C148.166 62.0454 149.143 61.0014 149.143 60.905C149.143 60.8247 149.288 60.7123 149.48 60.6641C149.656 60.6159 149.848 60.4231 149.897 60.2465C149.977 59.9252 150.025 59.9252 161.081 59.9092C167.603 59.9092 172.234 59.9734 172.282 60.0537C172.33 60.134 169.75 62.8484 166.53 66.0768L160.681 71.9553H149.512H138.343L138.92 71.361Z" fill="#631032"/>
<path d="M179.525 55.942C179.413 55.8295 179.557 55.6689 181.208 54.0467C181.736 53.5167 182.265 52.9867 182.361 52.8742C182.474 52.7618 182.73 52.5048 182.938 52.3121C183.147 52.1193 183.435 51.8142 183.579 51.6536C183.723 51.4929 183.98 51.236 184.14 51.0914C184.3 50.9468 184.557 50.7059 184.701 50.5293C185.358 49.7744 186.672 48.5055 186.8 48.5055C186.88 48.5055 187.072 48.2967 187.217 48.0397C187.377 47.7827 187.665 47.4776 187.874 47.3651C188.066 47.2527 188.274 47.06 188.322 46.9154C188.37 46.7709 188.563 46.546 188.755 46.4175C188.931 46.289 189.204 46.0481 189.348 45.8875C189.492 45.7269 189.941 45.229 190.357 44.7953L191.11 44.0083H202.103C211.91 44.0083 213.897 44.0725 212.791 44.3617C212.615 44.4098 212.326 44.7953 212.118 45.2129C211.878 45.6948 211.717 45.9036 211.637 45.7751C211.573 45.6626 211.429 45.6305 211.333 45.6787C211.237 45.7429 211.189 45.8714 211.253 45.9517C211.349 46.1284 210.708 46.7227 210.387 46.7387C210.275 46.7387 210.131 46.8672 210.083 47.0279C209.923 47.4776 209.49 47.9434 209.234 47.9434C209.122 47.9434 208.833 48.2806 208.609 48.6982C208.384 49.1319 208.16 49.3889 208.096 49.2765C207.952 49.0516 207.631 49.2604 207.631 49.5977C207.631 49.9029 207.183 50.3526 206.862 50.3526C206.766 50.3526 206.542 50.6096 206.381 50.9147C206.205 51.2681 205.997 51.4769 205.789 51.4769C205.596 51.4769 205.388 51.6536 205.26 51.9427C205.132 52.1996 204.891 52.4406 204.715 52.4887C204.555 52.5209 204.314 52.81 204.186 53.0991C204.042 53.4524 203.818 53.6773 203.545 53.7415C203.305 53.8058 203.048 53.9985 202.968 54.1913C202.664 54.8658 202.343 55.3316 202.343 55.1228C202.343 54.9943 202.247 54.9301 202.151 54.9783C202.039 55.0104 201.959 55.1389 201.991 55.2353C202.007 55.3477 201.863 55.5725 201.67 55.7332C201.318 56.0383 200.869 56.0383 190.47 56.0544C184.509 56.0544 179.589 56.0062 179.525 55.942Z" fill="#631032"/>
<path d="M173.244 53.9664C173.083 53.8058 171.737 52.4567 170.247 50.9951C168.773 49.5174 167.491 48.1843 167.411 48.0076C167.315 47.847 167.17 47.7025 167.09 47.7025C166.962 47.7025 163.934 44.7311 162.732 43.4301C162.572 43.2535 162.299 42.9804 162.107 42.8037C161.786 42.4986 161.77 42.3701 161.85 40.6676C161.899 39.5914 161.883 38.9008 161.786 38.965C161.706 39.0132 161.642 38.9329 161.642 38.8044C161.642 38.6599 161.722 38.5475 161.802 38.5475C161.915 38.5475 161.963 35.4637 161.963 29.6333C161.963 20.7835 161.963 20.7192 162.283 20.7192C162.459 20.7192 162.652 20.8317 162.7 20.9602C162.764 21.0887 162.86 21.169 162.924 21.1208C163.004 21.0726 163.1 21.185 163.164 21.3617C163.213 21.5384 163.341 21.6829 163.421 21.6829C163.501 21.6829 163.565 21.7954 163.565 21.9238C163.565 22.1969 164.11 22.5181 164.286 22.3575C164.366 22.2933 164.366 22.3254 164.318 22.4218C164.19 22.6466 164.735 23.1766 164.927 23.016C164.991 22.9357 165.007 23.016 164.943 23.1927C164.863 23.4176 164.911 23.4657 165.087 23.3854C165.232 23.3373 165.312 23.3533 165.264 23.4176C165.167 23.5782 165.728 24.0921 165.985 24.0921C166.081 24.0921 166.129 24.2046 166.065 24.3331C166.017 24.4776 166.113 24.6382 166.337 24.7507C166.786 24.9916 167.251 25.4734 167.154 25.5859C167.106 25.634 167.203 25.7465 167.379 25.8428C167.555 25.9392 167.827 26.148 167.988 26.2926C168.148 26.4532 168.34 26.5817 168.436 26.5817C168.533 26.5817 168.693 26.7583 168.789 26.9671C168.901 27.1759 169.109 27.4169 169.238 27.4972C169.382 27.5775 169.462 27.706 169.414 27.7863C169.334 27.9148 169.847 28.3002 169.991 28.2199C170.023 28.2039 170.039 28.2199 170.023 28.2521C169.991 28.2842 170.151 28.4769 170.375 28.6697C170.584 28.8785 170.712 29.0873 170.648 29.1676C170.584 29.2318 170.68 29.2318 170.856 29.1676C171.032 29.1033 171.128 29.1033 171.064 29.1515C170.936 29.28 171.513 29.8743 171.737 29.8743C171.834 29.8743 171.898 30.0028 171.866 30.1634C171.834 30.34 171.914 30.4364 172.09 30.4204C172.25 30.4043 172.346 30.4525 172.298 30.5167C172.25 30.581 172.41 30.7576 172.619 30.9022C172.843 31.0468 172.987 31.2234 172.955 31.3037C172.907 31.368 173.083 31.5928 173.356 31.7856L173.837 32.1389L173.804 43.141C173.788 49.1801 173.724 54.1592 173.66 54.2074C173.596 54.2395 173.404 54.1431 173.244 53.9664Z" fill="#631032"/>
<path d="M193.722 41.8882C193.514 41.6794 193.37 41.8401 196.863 38.3065C198.305 36.8449 199.539 35.6564 199.619 35.6564C199.699 35.6564 199.86 35.4958 199.956 35.303C200.196 34.8373 200.677 34.3554 200.789 34.4678C200.837 34.516 200.949 34.4036 201.061 34.2269C201.222 33.9218 202.263 32.8296 203.08 32.1068C203.257 31.9623 203.497 31.7053 203.625 31.5286C203.753 31.368 204.218 30.9183 204.651 30.5488C205.356 29.9385 205.516 29.8743 206.285 29.8743C206.766 29.8743 207.151 29.9546 207.151 30.0349C207.151 30.1473 210.275 30.1955 216.637 30.1955C221.845 30.1794 226.155 30.2437 226.219 30.3079C226.428 30.5328 226.588 31.2074 226.412 31.0949C226.315 31.0468 226.107 31.1592 225.947 31.368C225.787 31.5768 225.562 31.7213 225.45 31.6732C225.354 31.641 225.21 31.7535 225.146 31.9141C225.001 32.3477 224.585 32.7814 224.184 32.942C223.96 33.0223 223.816 33.215 223.816 33.4078C223.816 33.5845 223.752 33.729 223.671 33.729C223.591 33.729 223.463 33.8896 223.415 34.0663C223.335 34.3233 223.271 34.3554 223.175 34.2109C223.03 33.9699 222.694 34.1306 222.694 34.4678C222.694 34.7569 222.197 35.2549 221.893 35.2549C221.765 35.2549 221.636 35.3994 221.604 35.5761C221.524 35.9776 221.027 36.4595 220.691 36.4595C220.563 36.4595 220.37 36.6361 220.29 36.8449C220.21 37.0537 219.954 37.3268 219.697 37.4553C219.457 37.5677 219.233 37.8086 219.201 37.9853C219.153 38.162 219.04 38.3708 218.912 38.435C218.784 38.4993 218.688 38.692 218.688 38.8366C218.688 39.0614 218.656 39.0614 218.544 38.8847C218.367 38.5956 218.047 38.8044 218.047 39.206C218.047 39.3666 217.983 39.5111 217.919 39.5111C217.839 39.5111 217.694 39.6718 217.598 39.8806C217.502 40.0733 217.422 40.1375 217.422 40.0412C217.39 39.6557 217.07 39.8324 216.909 40.3142C216.813 40.5873 216.669 40.7961 216.589 40.7961C216.509 40.7961 216.445 40.9085 216.445 41.037C216.445 41.1655 216.124 41.4546 215.756 41.6794L215.05 42.081H204.491C196.703 42.081 193.867 42.0328 193.722 41.8882Z" fill="#631032"/>
<path d="M159.367 40.025C159.126 39.7841 158.774 39.4308 158.566 39.238C157.989 38.6759 157.844 38.5313 156.835 37.5034C156.322 36.9734 155.777 36.4273 155.649 36.2988C155.505 36.1703 155.024 35.6724 154.56 35.2066C154.095 34.7248 153.582 34.2269 153.438 34.0823C153.085 33.745 152.508 33.1668 152.156 32.7974C152.012 32.6528 151.803 32.4601 151.707 32.3637C151.611 32.2834 151.371 32.0264 151.162 31.8016C150.954 31.5767 150.169 30.8058 149.4 30.0669L148.022 28.7178V17.9887C148.022 7.38817 148.022 7.24361 148.342 7.14724C148.791 7.00269 149.272 7.19543 149.384 7.54878C149.432 7.7094 149.592 7.88607 149.72 7.93426C149.848 7.98244 149.929 8.09487 149.864 8.17518C149.768 8.35185 150.313 8.70521 150.489 8.59277C150.537 8.54459 150.554 8.56065 150.505 8.6249C150.473 8.67308 150.602 8.88188 150.826 9.07462C151.034 9.28342 151.162 9.49222 151.114 9.5404C151.05 9.58859 151.082 9.63677 151.178 9.63677C151.387 9.63677 151.9 10.1186 152.124 10.5201C152.236 10.6968 152.428 10.8253 152.573 10.8253C152.717 10.8093 152.797 10.8414 152.749 10.9056C152.717 10.9699 152.861 11.1465 153.069 11.3072C153.294 11.4678 153.422 11.6605 153.39 11.7408C153.342 11.8051 153.454 11.9014 153.63 11.9657C153.806 12.0299 154.063 12.2548 154.175 12.4957C154.303 12.7366 154.704 13.106 155.056 13.3309C155.425 13.5558 155.681 13.8127 155.649 13.9252C155.601 14.0215 155.761 14.2303 156.002 14.391C156.498 14.7122 156.835 15.0334 156.883 15.2101C156.899 15.2743 157.011 15.3225 157.123 15.3225C157.236 15.3065 157.3 15.3225 157.252 15.3707C157.204 15.4189 157.348 15.5956 157.556 15.7722C157.78 15.9489 157.925 16.1417 157.877 16.222C157.828 16.2862 158.005 16.4789 158.245 16.6235C158.79 16.9769 159.239 17.4426 159.142 17.5551C159.094 17.5872 159.287 17.6996 159.543 17.796L160.04 17.9727V29.1354C160.04 35.2708 159.976 40.3302 159.912 40.3784C159.831 40.4266 159.591 40.266 159.367 40.025Z" fill="#631032"/>
</svg>
